<svg width="278" height="132" viewBox="0 0 278 132" fill="none" xmlns="http://www.w3.org/2000/svg">
<rect x="105" width="173" height="132" fill="black"/>
<path d="M201.649 22H162.869V58.5736H201.649V22Z" fill="white"/>
<path d="M219.618 22H203.581V58.5736H219.618V22Z" fill="white"/>
<path d="M219.618 60.5055H188.929V78.8379H219.618V60.5055Z" fill="white"/>
<path d="M187.015 60.5055H162.85V78.8379H187.015V60.5055Z" fill="white"/>
<path d="M191.662 92.9606C190.204 91.9583 188.838 91.029 188.838 89.1884C188.838 88.0951 189.475 86.947 191.28 86.947C192.829 86.947 193.794 87.7488 194.086 89.2431C194.086 89.2796 194.122 89.2978 194.159 89.2978H194.286C194.305 89.2978 194.323 89.2978 194.341 89.2796C194.359 89.2613 194.359 89.2431 194.359 89.2249C194.341 88.9151 194.341 88.4049 194.341 88.0951C194.341 87.5119 194.359 87.1475 194.396 86.7466C194.396 86.7283 194.396 86.7101 194.378 86.6919C194.359 86.6737 194.341 86.6737 194.323 86.6737C194.214 86.6919 194.104 86.6919 193.977 86.6919C193.612 86.6919 193.266 86.619 192.901 86.5461C192.428 86.455 191.899 86.3639 191.243 86.3639C188.947 86.3639 187.361 87.9128 187.361 90.1178C187.361 92.4504 189.002 93.562 190.587 94.6371C192.118 95.6758 193.539 96.6417 193.539 98.6097C193.539 100.468 192.173 101.307 190.806 101.307C189.238 101.307 187.635 100.45 187.635 98.792C187.635 98.6462 187.653 98.5004 187.671 98.3546V98.2999C187.671 98.2817 187.671 98.2635 187.653 98.2453C187.635 98.2271 187.617 98.2271 187.598 98.2271H187.489C187.453 98.2271 187.434 98.2453 187.416 98.2635C187.179 98.792 187.161 99.4115 187.161 99.5938C187.161 99.8671 187.179 100.104 187.216 100.341C187.234 100.578 187.27 100.778 187.27 101.015C187.27 101.197 187.27 101.434 187.252 101.544C187.252 101.562 187.252 101.598 187.27 101.617C187.289 101.635 187.307 101.635 187.343 101.635C187.453 101.617 187.525 101.617 187.635 101.617C188.072 101.617 188.455 101.708 188.838 101.781C189.311 101.89 189.84 101.999 190.587 101.999C193.157 101.999 194.943 100.25 194.943 97.7533C194.979 95.2203 193.302 94.0722 191.662 92.9606Z" fill="white"/>
<path d="M214.533 86.3824C209.722 86.3824 206.843 90.4096 206.843 94.2911C206.843 98.0815 209.649 101.981 214.369 101.981C218.652 101.981 222.023 98.5735 222.023 94.2183C222.005 89.8265 218.725 86.3824 214.533 86.3824ZM219.946 94.3458C219.946 98.6647 217.814 101.362 214.351 101.362C210.943 101.362 208.902 98.7011 208.902 94.2365C208.902 90.9017 210.324 87.0019 214.351 87.0019C216.939 86.9837 219.946 88.9154 219.946 94.3458Z" fill="white"/>
<path d="M175.425 101.689C174.185 101.27 172.727 98.6823 171.67 96.8053C171.087 95.7666 170.632 94.9466 170.285 94.5821C172.126 93.8896 173.238 92.45 173.238 90.7006C173.238 88.0765 171.215 86.4 168.099 86.4C167.88 86.4 167.534 86.4 167.133 86.4182C166.695 86.4364 166.203 86.4364 165.857 86.4364C164.909 86.4364 164.527 86.4364 163.798 86.4C163.78 86.4 163.761 86.4 163.743 86.4182C163.725 86.4364 163.725 86.4547 163.725 86.4729V86.5822C163.725 86.6187 163.743 86.6551 163.78 86.6551C164.508 86.7645 164.745 87.056 164.745 88.5139V99.885C164.745 101.58 164.472 101.616 163.725 101.744C163.688 101.744 163.67 101.78 163.67 101.817V101.926C163.67 101.944 163.67 101.962 163.688 101.981C163.707 101.999 163.725 101.999 163.743 101.999C164.18 101.981 164.782 101.962 165.602 101.962C166.477 101.962 167.206 101.999 167.461 101.999C167.479 101.999 167.497 101.999 167.515 101.981C167.534 101.962 167.534 101.944 167.534 101.926V101.817C167.534 101.78 167.515 101.744 167.479 101.744C166.75 101.634 166.458 101.58 166.458 99.885V95.0741H167.752C167.971 95.0741 168.244 95.0559 168.554 95.0013C168.919 95.3657 169.338 96.1493 169.611 96.6595C169.666 96.7507 169.721 96.8418 169.757 96.9147C172.272 101.616 172.563 101.908 174.823 101.999C175.078 101.999 175.169 101.999 175.37 101.981C175.406 101.981 175.443 101.944 175.443 101.908V101.78C175.461 101.726 175.443 101.689 175.425 101.689ZM171.288 90.974C171.288 92.4683 170.887 94.4546 167.461 94.4546H166.495V87.22C167.115 87.056 167.515 87.0196 167.971 87.0196C169.976 87.0196 171.288 88.5685 171.288 90.974Z" fill="white"/>
<path d="M234.853 101.672C233.614 101.253 232.174 98.6834 231.117 96.8064C230.534 95.7495 230.042 94.9112 229.714 94.565C231.5 93.8725 232.575 92.4329 232.575 90.7199C232.575 88.1141 230.57 86.4193 227.454 86.4193C227.235 86.4193 226.889 86.4193 226.506 86.4375C226.069 86.4558 225.577 86.4558 225.231 86.4558C224.301 86.4558 223.9 86.4558 223.172 86.4193C223.153 86.4193 223.135 86.4193 223.117 86.4375C223.099 86.4558 223.099 86.474 223.099 86.4922V86.6015C223.099 86.638 223.117 86.6744 223.153 86.6744C223.882 86.7838 224.119 87.0753 224.119 88.5332V99.8861C224.119 101.581 223.846 101.617 223.117 101.745C223.08 101.745 223.062 101.781 223.062 101.818V101.927C223.062 101.945 223.062 101.964 223.08 101.982C223.099 102 223.117 102 223.135 102C223.572 101.982 224.174 101.964 224.994 101.964C225.869 101.964 226.579 102 226.853 102C226.871 102 226.889 102 226.907 101.982C226.926 101.964 226.926 101.945 226.926 101.927V101.818C226.926 101.781 226.907 101.745 226.871 101.745C226.142 101.636 225.869 101.581 225.869 99.8861V95.0752H227.163C227.399 95.0752 227.709 95.057 228.056 95.0024C228.42 95.3668 228.839 96.1322 229.112 96.6607C229.167 96.77 229.222 96.8611 229.258 96.934C231.773 101.636 232.047 101.909 234.306 102C234.561 102 234.653 102 234.853 101.982C234.889 101.982 234.926 101.945 234.926 101.909V101.781C234.908 101.708 234.889 101.69 234.853 101.672ZM230.625 90.9933C230.625 92.4876 230.224 94.4739 226.798 94.4739H225.85V87.2393C226.452 87.0753 226.871 87.0389 227.327 87.0389C229.313 87.0571 230.625 88.6061 230.625 90.9933Z" fill="white"/>
<path d="M186.195 86.3639C185.193 86.3821 179.926 86.4732 175.133 86.3639C175.115 86.3639 175.06 86.3821 175.06 86.4185C174.969 86.8012 174.86 87.1475 174.769 87.4573C174.659 87.8582 174.55 88.2226 174.477 88.6053C174.477 88.6235 174.477 88.6418 174.495 88.66C174.513 88.6782 174.532 88.6782 174.55 88.6782H174.659C174.696 88.6782 174.714 88.66 174.732 88.6418C175.352 87.3297 176.336 87.3297 179.598 87.3297V99.8307C179.598 101.525 179.325 101.562 178.596 101.689C178.559 101.689 178.541 101.726 178.541 101.762V101.872C178.541 101.89 178.541 101.908 178.559 101.926C178.577 101.945 178.596 101.945 178.614 101.945C179.088 101.926 179.671 101.908 180.454 101.908C181.293 101.908 182.022 101.945 182.295 101.945C182.313 101.945 182.332 101.945 182.35 101.926C182.368 101.908 182.368 101.89 182.368 101.872V101.762C182.368 101.726 182.35 101.689 182.313 101.689C181.584 101.58 181.311 101.525 181.311 99.8307V87.3297C185.047 87.3297 185.539 87.4755 185.539 88.0404C185.539 88.1497 185.521 88.2591 185.502 88.332C185.502 88.3502 185.502 88.3684 185.521 88.3866C185.539 88.4049 185.557 88.4231 185.575 88.4231H185.703C185.739 88.4231 185.776 88.4049 185.776 88.3684C185.83 88.0404 186.086 87.0199 186.268 86.4368C186.268 86.4185 186.268 86.3821 186.25 86.3639C186.25 86.3821 186.213 86.3639 186.195 86.3639Z" fill="white"/>
<path d="M207.28 86.4003C207.262 86.3821 207.244 86.3639 207.226 86.3639C206.205 86.3821 200.92 86.4732 196.182 86.3639C196.146 86.3639 196.127 86.3821 196.109 86.4185C196.018 86.8012 195.909 87.1475 195.818 87.4573C195.708 87.8582 195.599 88.2226 195.526 88.6053C195.526 88.6235 195.526 88.6418 195.544 88.66C195.562 88.6782 195.581 88.6782 195.599 88.6782H195.708C195.745 88.6782 195.763 88.66 195.781 88.6418C196.401 87.3297 197.385 87.3297 200.647 87.3297V99.8307C200.647 101.525 200.374 101.562 199.645 101.689C199.608 101.689 199.59 101.726 199.59 101.762V101.872C199.59 101.89 199.59 101.908 199.608 101.926C199.626 101.945 199.645 101.945 199.663 101.945C200.137 101.926 200.72 101.908 201.503 101.908C202.342 101.908 203.071 101.945 203.344 101.945C203.362 101.945 203.381 101.945 203.399 101.926C203.417 101.908 203.417 101.89 203.417 101.872V101.762C203.417 101.726 203.399 101.689 203.362 101.689C202.633 101.58 202.36 101.525 202.36 99.8307V87.3297C206.096 87.3297 206.588 87.4755 206.588 88.0404C206.588 88.1497 206.57 88.2591 206.551 88.332C206.551 88.3502 206.551 88.3684 206.57 88.3866C206.588 88.4049 206.606 88.4231 206.624 88.4231H206.752C206.788 88.4231 206.825 88.4049 206.825 88.3684C206.88 88.0404 207.116 87.0199 207.317 86.4368C207.299 86.455 207.299 86.4368 207.28 86.4003Z" fill="white"/>
<path d="M162.96 101.708C162.431 101.635 162.212 101.544 161.994 101.143L156.417 86.3638C156.399 86.3273 156.381 86.3091 156.344 86.3091H156.126C156.089 86.3091 156.071 86.3273 156.053 86.3638L151.314 98.883C150.403 101.307 150.057 101.489 149.055 101.726C149.018 101.726 149 101.762 149 101.799V101.908C149 101.926 149 101.944 149.018 101.963C149.036 101.981 149.055 101.981 149.073 101.981L149.292 101.963C149.62 101.944 149.911 101.926 150.494 101.926C151.406 101.926 152.153 101.963 152.444 101.963C152.463 101.963 152.481 101.963 152.499 101.944C152.517 101.926 152.517 101.908 152.517 101.89V101.78C152.517 101.744 152.481 101.708 152.444 101.708C151.843 101.635 151.551 101.361 151.551 100.851C151.551 100.468 151.734 99.9399 151.898 99.4479L153.137 96.1131C153.848 96.0948 154.558 96.0948 155.305 96.0948H158.221L160.044 100.924C160.062 100.96 160.062 101.015 160.062 101.033C160.062 101.288 159.971 101.653 159.205 101.689C159.169 101.689 159.132 101.726 159.132 101.762V101.872C159.132 101.89 159.132 101.908 159.151 101.926C159.169 101.944 159.187 101.944 159.205 101.944C159.825 101.908 160.445 101.908 161.064 101.908C161.921 101.908 162.631 101.944 162.887 101.944C162.905 101.944 162.923 101.944 162.941 101.926C162.96 101.908 162.96 101.89 162.96 101.872V101.762C163.014 101.744 162.996 101.726 162.96 101.708ZM157.966 95.3477H155.324C154.686 95.3477 154.066 95.3477 153.428 95.3295L155.652 89.3341L155.67 89.2795L157.966 95.3477Z" fill="white"/>
<path d="M52.6491 22H13.8686V58.5736H52.6491V22Z" fill="black"/>
<path d="M70.6177 22H54.5807V58.5736H70.6177V22Z" fill="black"/>
<path d="M70.6177 60.5055H39.9286V78.8379H70.6177V60.5055Z" fill="black"/>
<path d="M38.015 60.5055H13.8501V78.8379H38.015V60.5055Z" fill="black"/>
<path d="M42.6622 92.9606C41.2043 91.9583 39.8375 91.029 39.8375 89.1884C39.8375 88.0951 40.4754 86.947 42.2795 86.947C43.8286 86.947 44.7944 87.7488 45.086 89.2431C45.086 89.2796 45.1225 89.2978 45.1589 89.2978H45.2865C45.3047 89.2978 45.3229 89.2978 45.3412 89.2796C45.3594 89.2613 45.3594 89.2431 45.3594 89.2249C45.3412 88.9151 45.3412 88.4049 45.3412 88.0951C45.3412 87.5119 45.3594 87.1475 45.3958 86.7466C45.3958 86.7283 45.3958 86.7101 45.3776 86.6919C45.3594 86.6737 45.3412 86.6737 45.3229 86.6737C45.2136 86.6919 45.1042 86.6919 44.9767 86.6919C44.6122 86.6919 44.2659 86.619 43.9015 86.5461C43.4277 86.455 42.8992 86.3639 42.2431 86.3639C39.9469 86.3639 38.3614 87.9128 38.3614 90.1178C38.3614 92.4504 40.0016 93.562 41.587 94.6371C43.1178 95.6758 44.5393 96.6417 44.5393 98.6097C44.5393 100.468 43.1725 101.307 41.8057 101.307C40.2385 101.307 38.6348 100.45 38.6348 98.792C38.6348 98.6462 38.653 98.5004 38.6712 98.3546V98.2999C38.6712 98.2817 38.6712 98.2635 38.653 98.2453C38.6348 98.2271 38.6165 98.2271 38.5983 98.2271H38.489C38.4525 98.2271 38.4343 98.2453 38.4161 98.2635C38.1792 98.792 38.1609 99.4115 38.1609 99.5938C38.1609 99.8671 38.1792 100.104 38.2156 100.341C38.2338 100.578 38.2703 100.778 38.2703 101.015C38.2703 101.197 38.2703 101.434 38.2521 101.544C38.2521 101.562 38.2521 101.598 38.2703 101.617C38.2885 101.635 38.3067 101.635 38.3432 101.635C38.4525 101.617 38.5254 101.617 38.6348 101.617C39.0721 101.617 39.4548 101.708 39.8375 101.781C40.3114 101.89 40.8399 101.999 41.587 101.999C44.1566 101.999 45.9426 100.25 45.9426 97.7533C45.979 95.2203 44.3024 94.0722 42.6622 92.9606Z" fill="black"/>
<path d="M65.5334 86.3824C60.7223 86.3824 57.8429 90.4096 57.8429 94.2911C57.8429 98.0815 60.6494 101.981 65.3694 101.981C69.652 101.981 73.0234 98.5735 73.0234 94.2182C73.0052 89.8265 69.7249 86.3824 65.5334 86.3824ZM70.9459 94.3458C70.9459 98.6647 68.8137 101.362 65.3512 101.362C61.9433 101.362 59.9022 98.7011 59.9022 94.2365C59.9022 90.9017 61.3237 87.0019 65.3512 87.0019C67.939 86.9837 70.9459 88.9154 70.9459 94.3458Z" fill="black"/>
<path d="M26.4246 101.689C25.1854 101.27 23.7275 98.6823 22.6705 96.8053C22.0873 95.7666 21.6317 94.9466 21.2855 94.5821C23.1261 93.8896 24.2377 92.45 24.2377 90.7006C24.2377 88.0765 22.2149 86.4 19.0986 86.4C18.8799 86.4 18.5336 86.4 18.1327 86.4182C17.6953 86.4364 17.2033 86.4364 16.857 86.4364C15.9094 86.4364 15.5267 86.4364 14.7977 86.4C14.7795 86.4 14.7613 86.4 14.7431 86.4182C14.7248 86.4364 14.7249 86.4547 14.7249 86.4729V86.5822C14.7249 86.6187 14.7431 86.6551 14.7795 86.6551C15.5085 86.7645 15.7454 87.056 15.7454 88.5139V99.885C15.7454 101.58 15.472 101.616 14.7249 101.744C14.6884 101.744 14.6702 101.78 14.6702 101.817V101.926C14.6702 101.944 14.6702 101.962 14.6884 101.981C14.7066 101.999 14.7248 101.999 14.7431 101.999C15.1804 101.981 15.7818 101.962 16.6019 101.962C17.4767 101.962 18.2056 101.999 18.4608 101.999C18.479 101.999 18.4972 101.999 18.5154 101.981C18.5336 101.962 18.5336 101.944 18.5336 101.926V101.817C18.5336 101.78 18.5154 101.744 18.479 101.744C17.75 101.634 17.4584 101.58 17.4584 99.885V95.0741H18.7523C18.971 95.0741 19.2444 95.0559 19.5542 95.0013C19.9187 95.3657 20.3378 96.1493 20.6112 96.6595C20.6658 96.7507 20.7205 96.8418 20.757 96.9147C23.2719 101.616 23.5634 101.908 25.8232 101.999C26.0784 101.999 26.1695 101.999 26.3699 101.981C26.4064 101.981 26.4428 101.944 26.4428 101.908V101.78C26.4611 101.726 26.4428 101.689 26.4246 101.689ZM22.2878 90.974C22.2878 92.4683 21.8869 94.4546 18.4608 94.4546H17.4949V87.22C18.1145 87.056 18.5154 87.0196 18.971 87.0196C20.9757 87.0196 22.2878 88.5685 22.2878 90.974Z" fill="black"/>
<path d="M85.853 101.672C84.6138 101.253 83.1741 98.6834 82.1171 96.8064C81.534 95.7495 81.0419 94.9112 80.7139 94.565C82.4998 93.8725 83.575 92.4329 83.575 90.7199C83.575 88.1141 81.5704 86.4193 78.4541 86.4193C78.2354 86.4193 77.8892 86.4193 77.5065 86.4375C77.0691 86.4558 76.577 86.4558 76.2308 86.4558C75.3014 86.4558 74.9005 86.4558 74.1715 86.4193C74.1533 86.4193 74.135 86.4193 74.1168 86.4375C74.0986 86.4558 74.0986 86.474 74.0986 86.4922V86.6015C74.0986 86.638 74.1168 86.6744 74.1533 86.6744C74.8822 86.7838 75.1191 87.0753 75.1191 88.5332V99.8861C75.1191 101.581 74.8458 101.617 74.1168 101.745C74.0804 101.745 74.0621 101.781 74.0621 101.818V101.927C74.0621 101.945 74.0621 101.964 74.0804 101.982C74.0986 102 74.1168 102 74.135 102C74.5724 101.982 75.1738 101.964 75.9939 101.964C76.8686 101.964 77.5794 102 77.8527 102C77.8709 102 77.8892 102 77.9074 101.982C77.9256 101.964 77.9256 101.945 77.9256 101.927V101.818C77.9256 101.781 77.9074 101.745 77.8709 101.745C77.142 101.636 76.8686 101.581 76.8686 99.8861V95.0752H78.1625C78.3994 95.0752 78.7092 95.057 79.0555 95.0024C79.42 95.3668 79.8391 96.1322 80.1125 96.6607C80.1672 96.77 80.2218 96.8611 80.2583 96.934C82.7732 101.636 83.0465 101.909 85.3063 102C85.5614 102 85.6526 102 85.853 101.982C85.8895 101.982 85.9259 101.945 85.9259 101.909V101.781C85.9077 101.708 85.8895 101.69 85.853 101.672ZM81.6251 90.9933C81.6251 92.4876 81.2242 94.4739 77.798 94.4739H76.8504V87.2393C77.4518 87.0753 77.8709 87.0389 78.3265 87.0389C80.313 87.0571 81.6251 88.6061 81.6251 90.9933Z" fill="black"/>
<path d="M37.195 86.3639C36.1927 86.3821 30.9259 86.4732 26.1331 86.3639C26.1148 86.3639 26.0602 86.3821 26.0602 86.4185C25.969 86.8012 25.8597 87.1475 25.7686 87.4573C25.6592 87.8582 25.5499 88.2226 25.477 88.6053C25.477 88.6235 25.477 88.6418 25.4952 88.66C25.5134 88.6782 25.5317 88.6782 25.5499 88.6782H25.6592C25.6957 88.6782 25.7139 88.66 25.7321 88.6418C26.3517 87.3297 27.3358 87.3297 30.5979 87.3297V99.8307C30.5979 101.525 30.3246 101.562 29.5956 101.689C29.5591 101.689 29.5409 101.726 29.5409 101.762V101.872C29.5409 101.89 29.5409 101.908 29.5591 101.926C29.5774 101.945 29.5956 101.945 29.6138 101.945C30.0876 101.926 30.6708 101.908 31.4544 101.908C32.2927 101.908 33.0217 101.945 33.2951 101.945C33.3133 101.945 33.3315 101.945 33.3497 101.926C33.3679 101.908 33.368 101.89 33.368 101.872V101.762C33.368 101.726 33.3497 101.689 33.3133 101.689C32.5843 101.58 32.311 101.525 32.311 99.8307V87.3297C36.0469 87.3297 36.5389 87.4755 36.5389 88.0404C36.5389 88.1497 36.5207 88.2591 36.5025 88.332C36.5025 88.3502 36.5025 88.3684 36.5207 88.3866C36.5389 88.4049 36.5571 88.4231 36.5754 88.4231H36.7029C36.7394 88.4231 36.7758 88.4049 36.7758 88.3684C36.8305 88.0404 37.0856 87.0199 37.2679 86.4368C37.2679 86.4185 37.2679 86.3821 37.2496 86.3639C37.2496 86.3821 37.2132 86.3639 37.195 86.3639Z" fill="black"/>
<path d="M58.2804 86.4003C58.2622 86.3821 58.244 86.3639 58.2258 86.3639C57.2052 86.3821 51.9203 86.4732 47.1821 86.3639C47.1456 86.3639 47.1274 86.3821 47.1092 86.4185C47.0181 86.8012 46.9087 87.1475 46.8176 87.4573C46.7083 87.8582 46.5989 88.2226 46.526 88.6053C46.526 88.6235 46.526 88.6418 46.5442 88.66C46.5625 88.6782 46.5807 88.6782 46.5989 88.6782H46.7083C46.7447 88.6782 46.7629 88.66 46.7812 88.6418C47.4008 87.3297 48.3849 87.3297 51.6469 87.3297V99.8307C51.6469 101.525 51.3736 101.562 50.6446 101.689C50.6082 101.689 50.59 101.726 50.59 101.762V101.872C50.59 101.89 50.59 101.908 50.6082 101.926C50.6264 101.945 50.6446 101.945 50.6629 101.945C51.1367 101.926 51.7198 101.908 52.5035 101.908C53.3418 101.908 54.0707 101.945 54.3441 101.945C54.3623 101.945 54.3805 101.945 54.3988 101.926C54.417 101.908 54.417 101.89 54.417 101.872V101.762C54.417 101.726 54.3988 101.689 54.3623 101.689C53.6333 101.58 53.36 101.525 53.36 99.8307V87.3297C57.0959 87.3297 57.5879 87.4755 57.5879 88.0404C57.5879 88.1497 57.5697 88.2591 57.5515 88.332C57.5515 88.3502 57.5515 88.3684 57.5697 88.3866C57.5879 88.4049 57.6062 88.4231 57.6244 88.4231H57.752C57.7884 88.4231 57.8249 88.4049 57.8249 88.3684C57.8795 88.0404 58.1164 87.0199 58.3169 86.4368C58.2987 86.455 58.2987 86.4368 58.2804 86.4003Z" fill="black"/>
<path d="M13.9595 101.708C13.431 101.635 13.2123 101.544 12.9937 101.143L7.41713 86.3638C7.39891 86.3273 7.38068 86.3091 7.34424 86.3091H7.12555C7.0891 86.3091 7.07088 86.3273 7.05265 86.3638L2.31444 98.883C1.40324 101.307 1.05699 101.489 0.0546717 101.726C0.0182239 101.726 0 101.762 0 101.799V101.908C0 101.926 0 101.944 0.0182239 101.963C0.0364478 101.981 0.0546717 101.981 0.0728957 101.981L0.291583 101.963C0.619613 101.944 0.911196 101.926 1.49436 101.926C2.40556 101.926 3.15274 101.963 3.44432 101.963C3.46254 101.963 3.48077 101.963 3.49899 101.944C3.51722 101.926 3.51722 101.908 3.51722 101.89V101.78C3.51722 101.744 3.48077 101.708 3.44432 101.708C2.84293 101.635 2.55135 101.361 2.55135 100.851C2.55135 100.468 2.73359 99.9399 2.8976 99.4479L4.13683 96.1131C4.84756 96.0948 5.55829 96.0948 6.30547 96.0948H9.2213L11.0437 100.924C11.0619 100.96 11.0619 101.015 11.0619 101.033C11.0619 101.288 10.9708 101.653 10.2054 101.689C10.1689 101.689 10.1325 101.726 10.1325 101.762V101.872C10.1325 101.89 10.1325 101.908 10.1507 101.926C10.1689 101.944 10.1872 101.944 10.2054 101.944C10.825 101.908 11.4446 101.908 12.0642 101.908C12.9208 101.908 13.6315 101.944 13.8866 101.944C13.9048 101.944 13.9231 101.944 13.9413 101.926C13.9595 101.908 13.9595 101.89 13.9595 101.872V101.762C14.0142 101.744 13.996 101.726 13.9595 101.708ZM8.96617 95.3477H6.3237C5.68586 95.3477 5.06625 95.3477 4.42841 95.3295L6.65173 89.3341L6.66995 89.2795L8.96617 95.3477Z" fill="black"/>
</svg>
