<svg width="179" height="132" viewBox="0 0 179 132" fill="none" xmlns="http://www.w3.org/2000/svg">
<rect y="64" width="179" height="68" fill="black"/>
<path d="M36.5971 88.7399L35.5256 88.0806C35.6722 87.4029 36.359 84.6007 38.0714 82.7509C39.8297 80.8553 41.9359 80.2326 43.7949 80.2143C44.8022 80.2051 45.7363 80.3608 46.5055 80.5348C46.5971 80.5531 46.6795 80.5714 46.7711 80.5897C47.5037 80.7546 48.2637 80.9011 48.8132 80.7729C49.1062 80.6996 49.3535 80.5806 49.5366 80.489C49.6557 80.4341 49.7747 80.37 49.8022 80.3883C49.8022 80.3883 49.8114 80.3974 49.8114 80.4066C49.8388 80.5256 49.729 80.9011 49.3901 81.3681C49.1703 81.6612 48.9139 81.826 48.7216 81.9542C48.5476 82.0641 48.4286 82.1374 48.4286 82.2564C48.4286 82.3114 48.4835 82.4212 48.5934 82.6044C48.9231 83.1996 49.6099 84.4359 49.5275 86.1667C49.3993 88.8407 48.1264 89.9853 47.2839 90.7454L47.1832 90.837H47.174C46.6154 91.4872 46.6795 92.0824 46.8443 92.467C47.0916 93.0531 47.6319 93.5293 48.337 93.7766C48.7399 93.9231 49.1703 93.9689 49.4909 94.0055C49.729 94.033 49.9579 94.0604 49.9854 94.1154C50.0586 94.2711 49.8388 94.5275 49.3627 94.8388C49.0147 95.0678 48.6301 95.1136 48.6209 95.1136C48.6117 95.1136 48.6026 95.1227 48.6026 95.1319C48.6026 95.141 48.6026 95.1593 48.6117 95.1593C48.6209 95.1685 49.5733 95.9927 49.674 97.119C49.7747 98.2637 49.6007 98.8956 49.0238 99.4451C48.5659 99.8846 47.8974 99.9396 47.641 99.8755C47.5861 99.8663 47.5678 99.848 47.5678 99.8388C47.5311 99.6923 47.7509 99.5458 47.9982 99.3718C48.0531 99.3352 48.1172 99.2894 48.1722 99.2527C48.5018 99.0147 48.685 98.63 48.5751 98.4103C48.5385 98.3462 48.4835 98.3278 48.4103 98.337C48.3553 98.3462 48.2912 98.3645 48.2271 98.3828C48.0898 98.4194 47.9524 98.4652 47.8883 98.3828C47.815 98.3004 47.8425 98.2271 47.9066 98.0897C47.9615 97.9799 48.0348 97.8333 48.044 97.6319C48.0806 97.2015 48.0257 96.0568 47.4029 95.9286C47.3755 95.9194 47.3572 95.9286 47.3388 95.9469C47.2839 95.9927 47.2747 96.1392 47.2747 96.359C47.2747 96.652 47.2656 97.0458 47.1007 97.3022C46.8443 97.7051 46.4322 98.0073 46.2399 98.0165C46.1941 98.0165 46.1667 98.0073 46.1484 97.9799C46.1209 97.9432 46.1392 97.8516 46.1667 97.7143C46.2308 97.3846 46.359 96.7711 46.1758 95.6264C46.1117 95.2234 45.8736 94.793 45.6447 94.3718C45.4249 93.9689 45.2143 93.5842 45.1594 93.2546C45.0769 92.641 45.1502 92.3846 45.489 92.1282C45.6905 91.9817 45.7271 91.8352 45.7271 91.7436C45.7271 91.652 45.6722 91.478 45.5165 91.4139C45.5073 91.4139 45.5073 91.4139 45.4982 91.4048C45.4982 91.4048 45.4982 91.4048 45.489 91.4048C45.4066 91.3864 45.2601 91.3681 45.1136 91.3773C44.4634 91.3864 42.9524 91.4048 41.881 89.9487C41.011 88.7674 40.9469 87.6593 41.1209 86.359V86.3498C41.1209 86.3315 41.0202 85.837 40.6081 85.4707C40.4066 85.2967 40.2143 85.196 40.0678 85.1227C39.9854 85.0769 39.8938 85.0403 39.8938 85.0128C39.8938 85.0128 39.8938 84.9945 39.9213 84.9762C40.0311 84.8663 40.3974 84.7198 40.9011 84.793C41.2857 84.848 41.5513 85.0037 41.5513 85.0037C41.5604 85.0128 41.5788 85.0037 41.5879 84.9945C41.5971 84.9853 42.5861 83.8223 44.2344 83.9505C45.2143 84.0238 46.1575 84.9853 46.185 86.0385C46.2125 87.0916 45.718 87.6319 45.2967 87.7784C44.9487 87.8974 44.6374 87.8883 44.4451 87.7509C44.3535 87.6868 44.3077 87.6044 44.2985 87.5128C44.2894 87.4304 44.3718 87.3846 44.5183 87.3114C44.7564 87.1923 45.1136 87.0092 45.1594 86.3498C45.1777 86.011 45.0678 85.6722 44.848 85.4341C44.6923 85.2692 44.4176 85.0769 43.978 85.0952C43.4011 85.1227 42.9341 85.3516 42.6136 85.7546C42.2106 86.2766 42.0733 87.0824 42.2289 88.0165C42.4579 89.3718 43.7583 90.3059 45.2051 90.1593C46.0568 90.0678 46.8443 89.6007 47.4396 88.8223C48.0073 88.0897 48.337 87.1465 48.3462 86.2399C48.3736 83.978 47.0641 81.6429 44.0696 81.533C41.2033 81.4231 39.4267 83.2088 38.6117 84.2619C38.1081 84.9212 37.5769 86.1758 37.1832 87.2015C37.3572 87.174 37.9158 87.0916 38.4011 87.3388C38.9048 87.5861 39.5 88.1905 39.3993 88.456C39.3718 88.5293 39.2161 88.4927 39.0055 88.4286C38.7125 88.3553 38.3004 88.3736 37.8333 88.4377C37.0183 88.511 36.6887 88.6575 36.5971 88.7399ZM49.4359 104.07C49.1795 105.59 48.3187 106.231 47.5861 106.332C47.5311 106.341 47.467 106.341 47.4121 106.341C47.2015 106.341 47.0275 106.286 46.9909 106.185C46.9725 106.148 46.9725 106.112 46.9817 106.084C47.0092 106.029 47.0824 105.993 47.2106 105.947C47.3572 105.892 47.5495 105.819 47.7601 105.654C48.3828 105.168 48.3462 104.94 48.3187 104.784C48.3187 104.766 48.3095 104.756 48.3004 104.747C48.2637 104.729 48.1722 104.775 48.0623 104.83L48.0165 104.857C47.8791 104.93 47.7418 104.94 47.641 104.894C47.5861 104.866 47.5495 104.811 47.5311 104.747C47.5128 104.674 47.5952 104.601 47.696 104.509C47.7784 104.436 47.87 104.353 47.9249 104.262C48.2363 103.758 48.3004 103.172 48.0531 102.696C47.87 102.348 47.6136 102.018 46.8535 101.936C46.8352 101.936 46.826 101.936 46.8077 101.936C46.8077 101.936 46.7894 101.936 46.7802 101.936C46.6887 101.936 46.5788 101.945 46.4689 101.973C45.6264 102.128 45.0586 102.696 44.6832 103.31C44.674 103.319 44.674 103.328 44.6648 103.337C44.1429 104.106 44.0147 105.278 43.9872 105.507V105.516C43.8224 106.588 43.4652 108.172 41.2216 110.965C40.9652 111.286 40.7546 111.744 40.892 112.256C41.1209 113.154 41.9817 113.227 41.9817 113.319C41.9725 113.447 41.7894 113.456 41.478 113.429C41.1575 113.401 41.0476 113.3 41.0476 113.3C41.0476 113.3 40.9652 113.502 41.4872 113.886C41.8901 114.179 42.348 114.161 42.3572 114.289C42.3755 114.445 39.8663 115.022 39.7106 112.504C39.7106 112.449 39.7015 112.385 39.7015 112.33C37.0092 114.793 36.2125 114.921 36.0202 114.665C35.9286 114.537 36.1941 114.564 36.707 113.978C37.2381 113.383 37.2473 113.108 37.2473 113.108C37.2473 113.108 36.1941 113.676 34.9762 113.566C33.7308 113.456 32.6868 112.577 32.7692 112.238C32.8425 111.945 33.5751 112.449 34.4725 112.302C35.2967 112.174 35.37 111.844 35.37 111.844C35.37 111.844 35.2143 111.844 34.9396 111.56C34.6648 111.277 34.2711 111.048 34.4908 110.81C34.6191 110.672 35.2418 110.956 35.8553 110.956C36.6337 110.956 37.1282 110.782 37.1282 110.782C37.1282 110.782 36.8077 110.663 36.478 110.342C36.1392 110.022 36.0751 109.683 36.1758 109.601C36.2308 109.555 36.3681 109.821 36.7985 109.811C37.3022 109.802 37.3663 109.683 37.3663 109.683C37.3663 109.683 37.1465 109.491 37.055 109.299C36.9542 109.106 36.6612 108.538 36.8443 108.319C36.9084 108.245 37.4762 108.96 38.3278 109.042C39.7839 109.17 41.3865 108.016 41.3865 108.016C41.3865 108.016 40.5989 108.987 38.9231 110.425C37.8517 111.35 36.4963 112.101 36.5788 112.275C36.6703 112.485 37.7326 112.247 39.5641 110.709C40.1502 110.214 40.5257 109.894 41.3224 108.914C42.7418 107.174 43.0531 105.26 42.7784 103.731C42.6685 103.136 42.5037 102.586 42.3205 102.128C41.533 100.425 40.6813 99.6007 39.2711 99.0513C38.0165 98.5659 37.0458 99.0055 36.4597 99.2711C36.1575 99.4084 35.9652 99.5 35.8828 99.381C35.6264 99.0147 36.1392 98.5201 36.6062 98.0806C37.1923 97.522 37.5861 97.3022 37.6868 97.2473C37.5861 97.1923 37.2015 97.0092 36.8352 96.9908C36.652 96.9817 36.4322 97.0092 36.2399 97.0366C35.9377 97.0824 35.7088 97.119 35.6813 96.9725C35.6172 96.6795 36.8169 96.1484 37.4762 95.9377C38.1355 95.7179 38.6667 95.6996 38.7674 95.6905C38.7491 95.544 38.6484 94.4451 38.7674 92.8333C38.8315 91.9817 38.9872 91.3956 39.1062 91.0476C39.2528 90.6172 39.4359 90.315 39.5916 90.2234C39.6557 90.1868 39.7106 90.1868 39.7656 90.2143C39.8755 90.2784 39.8755 90.4982 39.8663 90.8278C39.8663 91.0293 39.8572 91.2857 39.8846 91.5513C39.9579 92.3571 40.2235 92.8059 40.37 92.9066C40.3974 92.9249 40.4158 92.9249 40.4341 92.9249C40.489 92.8974 40.5073 92.7967 40.5348 92.6502C40.5623 92.4579 40.6081 92.1923 40.7637 91.8626C41.0293 91.3132 41.533 90.663 41.7161 90.7088C41.7619 90.7179 41.7802 90.7729 41.7711 90.8645C41.7528 91.1209 41.7161 91.3498 41.6795 91.5879C41.5971 92.0824 41.5055 92.6319 41.5513 93.6667C41.6245 95.1868 42.3297 95.3883 42.4213 95.4066C42.467 95.3242 42.815 94.7289 43.3004 94.207C43.4011 94.0971 43.5018 93.978 43.6026 93.8773C43.9139 93.5293 44.1612 93.2546 44.3352 93.2546C44.3443 93.2546 44.3443 93.2546 44.3535 93.2546C44.3993 93.2546 44.4451 93.2912 44.4725 93.337C44.5366 93.4377 44.4359 93.6758 44.2711 94.0879C44.0421 94.6374 43.7033 95.4707 43.5568 96.5055C43.2729 98.4744 43.5568 100.37 43.5659 100.388L43.5843 100.526L43.5385 100.397C43.5385 100.397 43.3645 99.9304 42.6777 98.9139C42.3663 98.456 42.1191 98.1905 41.8901 97.9341C41.5879 97.6044 41.3132 97.3022 40.9194 96.6429C40.4707 95.8828 40.3608 95.315 40.2876 94.9487C40.2235 94.6282 40.196 94.4725 40.0128 94.4542C39.9945 94.4542 39.9762 94.4634 39.9579 94.4908C39.8022 94.7381 39.8846 96.1117 40.3059 96.9267C40.5348 97.3663 40.8004 97.7143 41.1117 98.1172C41.4322 98.5293 41.7894 98.9963 42.2198 99.6923C43.0073 100.974 43.4011 101.918 43.5934 102.485C43.6392 102.623 43.6758 102.751 43.7033 102.852C43.804 102.668 43.9597 102.44 43.9963 102.394C45.3883 100.855 46.5971 100.755 47.4304 100.956H47.4396C48.044 101.084 48.5843 101.432 48.9597 101.963C49.3626 102.595 49.555 103.374 49.4359 104.07ZM49.1337 111.789C49.1337 111.799 49.1246 111.808 49.1246 111.835C48.8224 112.916 48.1539 113.658 47.2381 113.932C46.9542 114.015 46.6887 114.06 46.4414 114.06C45.8278 114.06 45.3059 113.822 44.7564 113.474C44.7198 113.465 44.4084 113.419 44.0971 113.593C43.9414 113.685 43.8224 113.795 43.7399 113.877C43.6667 113.951 43.6209 113.996 43.5751 113.987C43.5568 113.978 43.5385 113.96 43.5293 113.932C43.4835 113.813 43.4835 113.502 43.685 113.136C43.804 112.916 43.9506 112.769 43.9872 112.733C43.9231 112.586 43.5293 111.606 44.0421 110.526C44.381 109.793 45.2784 109.399 45.9561 109.683C46.6429 109.967 46.8535 110.489 46.826 110.855C46.8077 111.158 46.6978 111.396 46.5513 111.496C46.478 111.542 46.4048 111.56 46.3315 111.533C46.2491 111.505 46.2399 111.405 46.2308 111.277C46.2216 111.075 46.2033 110.791 45.8279 110.59C45.6355 110.489 45.4158 110.471 45.2235 110.553C45.0769 110.608 44.8846 110.745 44.7839 111.057C44.6374 111.478 44.6557 111.872 44.8297 112.201C45.0403 112.614 45.489 112.916 46.0934 113.062C46.9725 113.273 47.8974 112.614 48.1905 111.57C48.2821 111.258 48.3279 110.883 48.2088 110.498C47.9799 109.72 47.4396 109.015 46.1667 108.392C45.7271 108.181 44.8205 107.778 44.4725 107.623C44.6648 107.064 44.6923 106.881 44.7564 106.689C44.8755 106.496 45.2051 106.194 45.5165 106.121C45.8828 106.029 46.3132 106.222 46.304 106.286C46.2949 106.35 45.8095 106.469 45.5348 107.101C45.6447 107.147 46.5513 107.394 47.3297 107.897C48.6392 108.74 48.9963 109.647 49.1062 110.04C49.3077 110.7 49.2802 111.304 49.1337 111.789ZM36.4597 91.0476C35.6722 90.315 35.0311 90.1227 35.0311 90.1227V88.7491C35.4066 88.9322 36.2766 89.3901 36.7802 89.8114C37.2747 90.2234 37.6502 90.6264 37.9524 90.9652L37.7418 92.3571C37.3846 91.9725 36.9176 91.478 36.4597 91.0476ZM35.4524 93.5568C35.2234 91.9817 35.3242 91.2399 35.3242 91.2399C35.6722 91.359 36.2766 91.9542 36.478 92.174C36.478 92.174 36.4322 92.3846 36.5879 93.3553C36.6978 94.0879 36.9176 94.7564 37 95.0403L35.9011 95.5531C35.7912 95.196 35.5806 94.3993 35.4524 93.5568ZM36.2949 103.007C36.4231 104.051 37.293 105.049 38.5293 104.912C39.0604 104.857 39.4267 104.61 39.6832 104.344L39.6007 104.28L39.6191 104.262C39.4542 104.106 38.8773 103.566 38.4103 102.971C37.9524 102.385 37.7235 102.064 37.6868 102.009L37.5495 101.826C37.5586 101.817 37.7143 101.707 38.1722 101.725C38.6758 101.744 39.1612 102.137 39.2985 102.256C39.2985 102.256 39.5275 102.513 40.2876 103.3C41.185 104.234 41.826 104.674 41.9267 104.747C41.9267 105.013 41.8535 105.544 41.7528 105.91C41.3407 105.69 40.8004 105.242 40.544 105.022C40.5073 104.995 40.4799 104.967 40.4524 104.949C40.1319 105.342 39.6374 105.745 38.9139 105.938C38.7399 105.984 38.5659 106.002 38.3828 106.002C36.7802 105.956 35.7088 104.775 35.4524 103.603C35.3517 103.163 35.3883 102.614 35.4066 102.238C35.4249 101.899 35.4341 101.615 35.3608 101.396C35.2784 101.148 35.1593 100.993 35.0861 100.883C35.0128 100.782 34.9579 100.709 35.0128 100.654C35.0952 100.553 35.3791 100.617 35.6355 100.791C35.8004 100.901 35.8736 101.029 35.9011 101.093C36.0568 100.864 36.7985 99.848 38.0806 99.8022C38.5202 99.7839 38.9048 99.8846 39.207 100.077C39.4542 100.233 39.6282 100.452 39.6832 100.672C39.7381 100.855 39.7381 100.993 39.6099 101.057C39.5458 101.084 39.4084 101.029 39.2253 100.938C38.9597 100.81 38.5293 100.663 38.0348 100.718C37.641 100.764 37.0641 101.038 36.6887 101.551C36.359 101.945 36.2308 102.458 36.2949 103.007ZM26.8718 114.39C25.2876 114.665 22.2839 114.234 22.2839 114.234L20.7363 109.216C20.7363 109.216 22.348 110.736 23.1905 111.405C24.0421 112.073 24.8297 112.44 26.0293 112.44C27.2289 112.44 28.044 112.137 28.9231 111.194C29.8022 110.251 30.1319 109.033 30.3608 107.604C30.5165 106.57 30.4432 103.712 30.4432 103.044L30.663 87.5037C30.663 87.5037 30.7729 84.152 30.5348 83.3095C30.2967 82.467 29.793 81.8535 29.4817 81.533C28.804 80.8278 27.3755 80.5989 27.3755 80.5989C26.9634 80.5348 26.8718 80.3242 26.9084 80.1227C26.9542 79.8297 27.2106 79.7747 27.2106 79.7747L37.3572 79.793C37.3572 79.793 37.6136 79.8205 37.6502 80.1136C37.6777 80.315 37.5952 80.5165 37.174 80.5897C37.174 80.5897 35.7454 80.8187 35.0678 81.5238C34.7564 81.8443 34.2528 82.4579 34.0147 83.3004C33.7766 84.1429 33.8865 87.4945 33.8865 87.4945V103.071C33.8865 103.071 33.9231 106.075 33.5385 107.659C33.2637 108.767 32.641 110.929 30.9744 112.43C29.4542 113.804 28.2912 114.143 26.8718 114.39ZM19.6007 111.643C19.0513 112.815 18.1264 113.841 17.9524 113.676C17.8059 113.538 17.989 113.419 18.0806 113.071C18.1722 112.714 18.1996 112.641 18.1996 112.641C18.1996 112.641 17.9432 112.998 17.0641 113.548C16.185 114.097 16.0201 114.143 15.8828 113.923C15.7912 113.777 16.011 113.63 16.2216 113.264C16.4231 112.907 16.3681 112.925 16.3681 112.925C16.3681 112.925 15.6172 112.852 15.0037 112.586C14.3901 112.311 13.7399 111.679 13.7582 111.551C13.7857 111.377 14.033 111.286 14.5 111.057C14.9945 110.81 15.3333 110.489 15.3333 110.489C15.3333 110.489 15.0037 110.407 14.8205 110.324C14.5275 110.187 14.2253 110.04 14.4176 109.857C14.5824 109.701 15.37 110.233 16.5788 109.097C17.6502 108.09 17.6502 106.606 17.6502 106.606C17.6502 106.606 18.1722 108.337 17.4853 109.711C16.6337 111.405 15.0495 111.414 15.2234 111.771C15.4341 112.211 17.3755 111.817 18.218 109.784C18.9139 108.09 18.1813 105.929 17.6502 104.656C17.4945 104.289 17.293 103.795 17.1648 103.41C17.6502 103.63 18.044 103.74 18.4377 103.786V103.777C18.4377 103.777 18.4377 103.777 18.4377 103.786C18.4469 103.786 18.5018 103.896 18.5018 103.896C18.9689 104.647 19.7015 104.912 20.0861 105.059C20.4524 105.196 20.8462 105.269 21.2491 105.269C21.5879 105.269 21.9451 105.214 22.2656 105.095C22.4762 105.013 22.6777 104.903 22.8333 104.738C23.3004 104.234 23.4194 102.678 23.63 102.559C23.7308 102.504 23.9689 102.888 24.0604 103.172C24.152 103.465 24.1062 103.749 24.2802 103.822C24.4084 103.868 24.4817 103.731 24.7473 103.419C25.1227 102.98 25.0678 102.806 25.2601 102.87C25.4524 102.943 25.2509 103.905 25.1593 104.427C25.0678 104.949 24.8114 105.718 24.8114 105.718C24.8114 105.718 25.4341 105.306 26.0202 105.049C27.6502 104.317 28.2912 104.546 28.3004 104.738C28.3095 104.94 27.9249 104.976 27.5037 105.471C27.1923 105.837 27.2747 105.929 27.2747 105.929C27.2747 105.929 27.522 105.938 28.1996 105.736C28.685 105.599 29.1062 105.37 29.2436 105.571C29.381 105.773 28.7491 106.625 27.7784 107.302C26.7985 107.98 26.011 108.227 26.011 108.227C26.011 108.227 26.1941 108.429 26.6795 108.511C27.1557 108.593 27.3571 108.52 27.4029 108.667C27.4579 108.859 26.9267 109.015 26.011 109.115C24.7198 109.253 24.0513 108.685 24.0513 108.685C24.0513 108.685 24.2161 109.152 24.0238 109.628C23.8315 110.104 23.7857 110.553 23.5934 110.526C23.4011 110.498 23.63 110.049 23.2729 109.592C22.8791 109.106 22.4396 109.005 21.7711 108.493C21.1209 107.989 21.1026 107.604 21.1026 107.604C21.1026 107.604 22.2289 108.026 24.0879 107.733C25.8645 107.449 26.4139 106.918 26.2857 106.716C26.1667 106.533 25.8736 106.771 25.0311 106.954C24.0513 107.174 22.7234 107.119 21.2491 106.872C20.7271 106.78 20.0311 106.542 19.3901 106.121C19.6374 106.615 20.0495 107.504 20.141 108.136C20.2967 109.244 20.1593 110.471 19.6007 111.643ZM18.456 95.6905C18.5293 95.2051 18.804 94.6923 18.978 94.4725C19.6191 94.3535 20.0403 94.7106 20.0952 94.7656C19.7381 95.4432 19.5183 96.1941 19.3169 96.9542C19.0788 96.8535 18.7399 96.5238 18.456 95.6905ZM18.6117 100.791C18.2821 100.764 17.4304 100.187 17.3846 100.049C17.3755 99.7473 17.4579 99.0879 17.5769 98.7033C17.9982 99.4451 18.7033 99.7564 18.7033 99.7564C18.5751 100.242 18.6117 100.791 18.6117 100.791ZM15.141 94.2527C15.2234 94.0238 15.2967 93.8498 15.3608 93.7033C15.4982 93.3919 15.5806 93.1996 15.6172 92.7601C15.6538 92.2564 15.4982 91.8626 15.3974 91.7619C15.5256 91.7802 15.9194 91.9451 16.0751 92.2747C16.2033 92.5494 16.3956 93.2546 16.3681 93.3736C16.359 93.4011 16.3773 93.4103 16.3864 93.4194C16.4139 93.4377 16.4322 93.4194 16.5238 93.3553C16.7985 93.1538 17.6227 92.5311 19.0788 92.522H19.0971C21.7802 92.522 22.9524 95.0037 22.9707 95.0311L22.9799 95.0403H22.9982C23.0165 95.0403 23.3645 95.141 24.0788 94.8388C24.3535 94.7198 24.5275 94.5733 24.6923 94.4267C24.9579 94.1886 25.196 93.9872 25.8553 93.9689C26.5147 93.9414 27.0092 94.3169 27.0916 94.5824C27.1099 94.6465 27.1191 94.7289 27.0366 94.7839C26.9359 94.8571 26.9176 94.848 26.8626 94.8205C26.7711 94.7747 26.6245 94.7015 26.13 94.7839C25.718 94.848 25.5256 95.2234 25.3242 95.6264C25.1044 96.0568 24.8755 96.5055 24.3626 96.6429C23.8956 96.7711 23.337 96.4506 23.2363 96.2766C23.2088 96.2308 23.163 96.1758 23.1081 96.185C23.0531 96.1941 23.044 96.2674 23.0348 96.2857C23.0348 96.2857 23.0165 96.6978 22.7692 97.4121C22.5311 98.0714 21.4506 99.6465 19.326 99.0696C18.0256 98.7216 17.5128 97.4945 17.5678 96.7436C17.5861 96.4963 17.6685 96.3315 17.7784 96.3223C17.87 96.3132 17.9524 96.3773 17.9799 96.4506C18.0806 96.7344 18.1813 97.0092 18.3278 97.2564C18.5385 97.5952 18.9322 97.989 19.3993 98.0897C20.4524 98.3187 21.1026 97.7784 21.2308 97.6685C21.6337 97.293 21.8535 96.6703 21.8169 96.0018C21.7711 95.1502 21.3132 94.6007 20.9469 94.2894C20.4707 93.8956 19.8571 93.6667 19.2619 93.6575C19.2436 93.6575 19.2344 93.6575 19.2161 93.6575C18.4377 93.6575 17.6502 93.9689 17.0366 94.5183C16.2399 95.2143 15.7821 96.2491 15.6905 97.5128C15.6081 98.5934 16.0568 99.793 16.8443 100.654C17.4579 101.322 18.2271 101.698 18.9872 101.698C19.0055 101.698 19.0147 101.698 19.033 101.698C21.0568 101.698 22.3571 100.452 23.7399 99.1337C25.0311 97.8974 26.3681 96.6245 28.4652 96.0385C28.6209 95.9927 29.3443 95.9286 29.4908 95.9194L29.4542 97.0641C28.2821 97.2839 26.6429 98.0348 26.7253 98.8498C26.8077 99.6557 27.3205 100.086 27.5678 100.297C27.6227 100.342 27.6777 100.388 27.6868 100.397C27.6868 100.407 27.6593 100.425 27.5861 100.452C27.3571 100.535 26.8443 100.599 26.4414 100.407C25.9011 100.159 25.37 99.2711 25.3608 99.2619L25.3425 99.2253L25.315 99.2527C25.2967 99.2711 23.6941 100.947 22.8242 101.579C22.2564 101.991 20.7637 103.09 18.9963 103.007C17.7784 102.952 16.6429 102.394 15.8095 101.441C14.9396 100.434 14.4634 99.0513 14.4817 97.5494C14.5183 96.185 14.6648 95.5623 15.141 94.2527ZM19.0421 79.8205C19.0513 79.8205 20.3059 79.7106 21.4963 80.1868C22.0183 80.3974 22.3938 80.663 22.7234 80.9011L22.7326 80.9103C23.218 81.2582 23.6117 81.533 24.1612 81.359C24.793 81.1667 24.9121 80.6722 24.9945 80.3516C25.0128 80.2784 25.0495 80.1319 25.0769 80.1136C25.1044 80.1044 25.2143 80.1502 25.315 80.2967C25.4341 80.4707 25.7454 81.1392 24.9121 82.3297C24.4542 82.989 23.7125 83.1264 23.6758 83.1355C23.6484 83.1447 23.6209 83.163 23.6026 83.1905C23.5843 83.2179 23.5843 83.2546 23.5934 83.2821C23.6392 83.4469 23.6484 83.5751 23.6575 83.6941C23.685 84.1062 23.6484 84.5 23.3736 85.1777C22.9524 86.1941 22.1007 86.8352 20.9835 86.9634C19.8938 87.0916 19.0147 86.478 18.7033 85.8095C18.4194 85.1868 18.4011 84.4634 18.6575 83.8223C18.7216 83.6575 18.8315 83.5293 18.9231 83.511C18.9689 83.5018 18.9963 83.511 19.033 83.5385C19.1245 83.6117 19.1337 83.804 19.1429 84.0421C19.152 84.2894 19.1612 84.5916 19.2711 84.9121C19.4359 85.4066 19.9854 85.8828 20.6996 85.8095C21.7711 85.7088 22.4304 84.9487 22.4487 83.7766C22.4762 82.5403 21.6795 81.0751 19.381 81.0201C19.3535 81.0201 19.3169 81.0201 19.2894 81.0201C18.4194 81.0201 17.6227 81.359 16.9817 81.9908C16.2399 82.7326 15.7637 83.8681 15.7454 84.9487C15.7088 87.0549 16.8077 88.2821 17.7234 88.9414C18.6575 89.6007 20.1136 89.6465 21.9359 89.0696C22.5586 88.8681 23.2271 88.5934 23.8773 88.3187H23.8865C24.4359 88.0897 25.0037 87.8516 25.544 87.6685C25.8645 87.5586 26.2033 87.467 26.5513 87.4029L26.6062 87.3938L26.5696 87.348C26.4231 87.1648 26.2491 86.9176 26.0202 86.5971C25.5531 85.9469 25.4158 84.7289 25.5714 84.4725C25.6355 84.3626 25.718 84.3443 25.7454 84.3443C25.7729 84.3443 25.7912 84.3535 25.7912 84.3535C25.7912 84.3626 25.7912 84.4267 25.7912 84.4359C25.7821 84.5 25.7912 84.7747 25.9194 84.9212C26.0843 85.1136 26.3132 85.1502 26.4048 85.1044C26.4414 85.0861 26.4597 85.0586 26.478 85.0311C26.5055 84.9304 26.6703 84.3993 26.9634 83.9872C27.2015 83.6392 27.9432 83.0989 28.3736 83.0989C28.3828 83.0989 28.4011 83.0989 28.4103 83.0989C28.5293 83.1081 28.6026 83.163 28.6575 83.2546C28.7125 83.3736 28.5293 83.5659 28.4744 83.63C28.0898 84.033 27.6502 84.6099 27.6136 85.5989C27.5952 86.0568 27.7326 86.4414 28.0073 86.7344C28.5293 87.293 29.4176 87.3571 29.5916 87.3571V88.3645C29.5641 88.3645 29.5366 88.3645 29.5092 88.3645C28.6209 88.3645 27.9249 89.4359 27.6777 90.5348C27.4854 91.4231 27.6502 92.6868 27.7326 93.0623C27.8059 93.4103 27.7418 93.4835 27.7234 93.5018C27.7143 93.511 27.696 93.5201 27.6685 93.511C27.4854 93.4744 27.1374 93.0806 26.7619 92.467C26.478 92.0183 26.5604 91.4505 26.6062 91.1575C26.6337 90.9835 26.6429 90.9194 26.5788 90.8736L26.5696 90.8645C26.533 90.837 26.478 90.8004 26.4048 90.8004H26.3956C26.3132 90.8004 26.2216 90.8553 26.1209 90.9652C26.0385 91.0568 25.9927 91.1209 25.9652 91.1667C25.9194 91.2308 25.9194 91.2308 25.8004 91.185C25.7912 91.185 25.7912 91.1758 25.7821 91.1575C25.7088 90.9377 25.9469 90.1593 26.2674 89.619C26.5238 89.1795 26.7894 88.8681 27.1648 88.5659L27.2747 88.4744L27.1374 88.5018C25.8553 88.7949 24.5733 89.3077 23.7766 89.8388C22.7601 90.5165 21.9451 91.3315 21.3407 92.2473C21.2308 92.1832 21.13 92.1282 20.8645 92.0092C20.6996 91.9359 20.4524 91.8535 20.2692 91.8352C20.5256 91.4963 20.9469 91.0385 21.1209 90.8462L21.1392 90.8278C21.1667 90.7912 21.1575 90.7363 21.13 90.6996C21.1026 90.663 21.0476 90.6447 21.0018 90.663C20.956 90.6813 19.8114 91.1209 17.7967 90.3608C16.1575 89.7473 14.4542 87.9799 14.5458 84.8388C14.6282 81.6337 16.8718 80.0128 19.0421 79.8205ZM12 117H51.9542V77H12V117Z" fill="white"/>
<path d="M59.793 106.147C59.1611 107.072 58.5568 107.942 57.3938 107.942C56.6978 107.942 55.956 107.53 55.956 106.395C55.956 105.406 56.4597 104.792 57.4212 104.609C57.4395 104.609 57.4579 104.591 57.4579 104.563V104.481C57.4579 104.472 57.4487 104.453 57.4395 104.444C57.4304 104.435 57.4212 104.435 57.4029 104.435C57.2106 104.444 56.8809 104.444 56.6886 104.444C56.359 104.444 56.1209 104.435 55.8278 104.407C55.8187 104.407 55.8003 104.407 55.7912 104.426C55.782 104.435 55.782 104.453 55.782 104.462C55.7912 104.536 55.7912 104.6 55.7912 104.682C55.7912 104.911 55.7454 105.131 55.6996 105.369C55.6447 105.662 55.5806 106.001 55.5806 106.422C55.5806 107.878 56.5604 108.885 57.9707 108.885C59.4542 108.885 60.1593 107.842 60.8461 106.843C61.5055 105.873 62.1282 104.966 63.3828 104.966C64.5732 104.966 65.1044 105.836 65.1044 106.706C65.1044 107.704 64.5549 108.721 63.5018 108.721C63.4102 108.721 63.3187 108.711 63.2179 108.702L63.1721 108.693C63.163 108.693 63.1447 108.693 63.1355 108.702C63.1263 108.711 63.1172 108.721 63.1172 108.739V108.803C63.1172 108.821 63.1264 108.84 63.1447 108.84C63.4743 108.986 63.8773 109.005 63.9872 109.005C64.1612 109.005 64.3168 108.986 64.4633 108.968C64.6099 108.95 64.7472 108.94 64.8937 108.94C65.0036 108.94 65.1685 108.94 65.2234 108.95C65.2417 108.95 65.2509 108.95 65.26 108.94C65.2692 108.931 65.2784 108.913 65.2692 108.904C65.2601 108.831 65.26 108.794 65.26 108.711C65.26 108.428 65.315 108.19 65.3699 107.942C65.434 107.64 65.5073 107.31 65.5073 106.825C65.5073 105.195 64.3992 104.059 62.8058 104.059C61.2399 104.05 60.5073 105.113 59.793 106.147Z" fill="white"/>
<path d="M60.6723 88.2444C63.4195 88.2444 65.132 89.6088 65.132 91.8066C65.132 93.977 63.4378 95.2773 60.5898 95.2773C58.4653 95.2773 55.9836 94.3707 55.9836 91.8066C55.9836 90.1674 57.2107 88.2444 60.6723 88.2444ZM55.6082 91.7059C55.6082 94.7737 58.1631 96.596 60.6356 96.596C63.044 96.596 65.5257 94.8011 65.5257 91.8066C65.5257 89.0777 63.3554 86.9348 60.5898 86.9348C57.7968 86.944 55.6082 89.0319 55.6082 91.7059Z" fill="white"/>
<path d="M58.5018 81.5954C60.0219 81.5954 60.7271 82.3738 60.7271 84.0404V84.654H56.1025C56.0018 84.2602 55.9743 84.0038 55.9743 83.7107C55.9835 82.4287 56.9725 81.5954 58.5018 81.5954ZM65.3608 78.8939C65.086 79.6906 63.4377 80.6064 62.2381 81.284C61.5512 81.6686 61.0018 81.98 60.7912 82.1998C60.3516 81.0459 59.4267 80.3591 58.3278 80.3591C56.6611 80.3591 55.5806 81.6412 55.5806 83.6283C55.5806 83.7657 55.5897 83.9946 55.5897 84.2327C55.5989 84.5075 55.608 84.828 55.608 85.0477C55.608 85.643 55.608 85.8902 55.5806 86.3573C55.5806 86.3664 55.5806 86.3847 55.5897 86.3939C55.5989 86.4031 55.608 86.4122 55.6264 86.4122H55.6905C55.7088 86.4122 55.7271 86.3939 55.7362 86.3756C55.8095 85.9086 55.9927 85.7529 56.9267 85.7529H64.1886C65.2692 85.7529 65.2966 85.9269 65.3791 86.4031C65.3791 86.4214 65.3974 86.4397 65.4249 86.4397H65.489C65.4981 86.4397 65.5164 86.4305 65.5164 86.4305C65.5256 86.4214 65.5347 86.4122 65.5256 86.3939C65.5164 86.1192 65.4981 85.7346 65.4981 85.2034C65.4981 84.6448 65.5164 84.1869 65.5256 84.0129C65.5256 84.0038 65.5256 83.9855 65.5164 83.9763C65.5073 83.9672 65.4981 83.9672 65.489 83.9672H65.4157C65.3974 83.9672 65.3791 83.9855 65.3699 84.0038C65.2967 84.4708 65.2692 84.654 64.1794 84.654H61.1025V83.8206C61.1025 83.6741 61.0842 83.4818 61.0567 83.262C61.2857 83.0239 61.8076 82.7401 62.1282 82.5752C62.1923 82.5386 62.2564 82.5111 62.3022 82.4836C65.3058 80.8811 65.489 80.6979 65.5439 79.251C65.5439 79.0862 65.5439 79.0313 65.5256 78.9031C65.5256 78.8847 65.5073 78.8664 65.4798 78.8664H65.3974C65.3882 78.8664 65.3699 78.8756 65.3608 78.8939Z" fill="white"/>
<path d="M55.6448 96.2778C55.6356 96.2778 55.6173 96.2778 55.6082 96.287C55.599 96.2961 55.5898 96.3053 55.5898 96.3236C55.6082 97.2302 55.6631 100.261 55.5898 103.347C55.5898 103.366 55.599 103.384 55.6265 103.393C55.8737 103.457 56.0843 103.512 56.2858 103.576C56.5331 103.65 56.7712 103.714 57.0276 103.769C57.0367 103.769 57.055 103.769 57.0642 103.76C57.0734 103.75 57.0825 103.741 57.0825 103.723V103.659C57.0825 103.64 57.0734 103.622 57.055 103.622C56.2217 103.228 56.2126 102.606 56.2126 100.527H64.1887C65.2693 100.527 65.2968 100.701 65.3792 101.168C65.3792 101.186 65.3975 101.205 65.425 101.205H65.4891C65.4983 101.205 65.5166 101.195 65.5166 101.195C65.5257 101.186 65.5257 101.177 65.5257 101.159C65.5166 100.884 65.4983 100.509 65.4983 99.9866C65.4983 99.4372 65.5166 98.9793 65.5257 98.8145C65.5257 98.8053 65.5257 98.7961 65.5166 98.787C65.5074 98.7778 65.4983 98.7778 65.48 98.7778H65.4158C65.3975 98.7778 65.3792 98.7961 65.3701 98.8145C65.2968 99.2815 65.2693 99.4555 64.1796 99.4555H56.2034C56.2034 97.0745 56.295 96.7632 56.6613 96.7632C56.7254 96.7632 56.8078 96.7723 56.8536 96.7907C56.8627 96.7907 56.8811 96.7907 56.8902 96.7815C56.8994 96.7723 56.9085 96.7632 56.9085 96.7449V96.6624C56.9085 96.6441 56.8902 96.6258 56.8719 96.6167C56.6613 96.5434 56.0111 96.3877 55.6448 96.2778Z" fill="white"/>
<path d="M55.5898 109.794C55.599 110.059 55.6173 110.581 55.6173 111.03C55.6173 111.506 55.6082 112.037 55.5898 112.321C55.5898 112.33 55.5898 112.348 55.599 112.358C55.6082 112.367 55.6173 112.367 55.6356 112.367H55.6997C55.718 112.367 55.7364 112.348 55.7455 112.33C55.8188 111.863 55.8646 111.552 56.8902 111.552H62.7876C63.8957 111.552 65.0953 112.083 65.0953 112.944C65.0953 113.099 65.0862 113.246 65.0587 113.392C64.9122 113.988 64.4909 114.363 64.1979 114.583C64.1521 114.62 64.1155 114.647 64.0697 114.674C63.7034 114.922 63.3829 115.032 63.3737 115.041C63.3463 115.05 63.3279 115.077 63.3371 115.114C63.3463 115.141 63.3737 115.16 63.4012 115.16L64.9488 114.958C64.9671 114.958 64.9854 114.949 64.9946 114.931C65.3517 114.372 65.4616 113.676 65.48 113.548C65.5166 113.328 65.5257 113.145 65.5257 113.035C65.5257 112.953 65.5257 112.898 65.5166 112.898C65.5166 111.469 64.3627 110.508 62.632 110.508H56.8811C55.892 110.508 55.8371 110.27 55.7455 109.803L55.7364 109.775C55.7364 109.757 55.718 109.739 55.6906 109.739H55.6265C55.6173 109.739 55.599 109.748 55.5898 109.748C55.5898 109.766 55.5898 109.784 55.5898 109.794Z" fill="white"/>
<path d="M69.7289 115.187V78.8047H75.9194V108.988H89.3443V115.187H69.7289Z" fill="white"/>
<path d="M105.242 102.504C102.275 102.907 100.114 103.557 98.749 104.437C97.3846 105.316 96.7069 106.515 96.7069 108.017C96.7069 108.905 96.9542 109.592 97.4395 110.087C97.9249 110.572 98.6117 110.819 99.5091 110.819C100.48 110.819 101.441 110.59 102.385 110.142C103.328 109.684 104.28 108.997 105.242 108.072V102.504ZM105.919 115.197L105.388 112.916C104.207 113.777 102.971 114.418 101.67 114.849C100.37 115.279 99.0238 115.49 97.6135 115.49C95.4432 115.49 93.7399 114.876 92.4945 113.64C91.2582 112.413 90.6355 110.709 90.6355 108.539C90.6355 105.691 91.826 103.438 94.2161 101.799C96.6062 100.151 100.342 99.0153 105.434 98.3834V96.3413C105.434 95.3889 105.114 94.6472 104.472 94.1343C103.831 93.6124 102.925 93.356 101.734 93.356C100.553 93.356 99.4816 93.6032 98.511 94.1069C97.5494 94.6105 96.7161 95.3523 96.0201 96.3413L91.8443 93.6948C92.934 92.0098 94.3077 90.7461 95.9743 89.8944C97.641 89.0428 99.5915 88.6215 101.826 88.6215C104.839 88.6215 107.192 89.2992 108.877 90.6636C110.562 92.0281 111.405 93.9237 111.405 96.3505V111.68C111.405 112.083 111.441 112.578 111.505 113.145C111.57 113.722 111.67 114.409 111.798 115.197H105.919Z" fill="white"/>
<path d="M120.425 108.264C121.231 109.061 122.009 109.629 122.742 109.977C123.483 110.325 124.244 110.499 125.04 110.499C126.808 110.499 128.172 109.775 129.134 108.319C130.095 106.872 130.581 104.812 130.581 102.138C130.581 99.4823 130.095 97.4127 129.125 95.9201C128.154 94.4274 126.808 93.6856 125.095 93.6856C124.317 93.6856 123.557 93.8596 122.824 94.2076C122.082 94.5556 121.286 95.1142 120.434 95.8743V108.264H120.425ZM114.106 115.197C114.207 113.823 114.28 112.623 114.326 111.598C114.372 110.581 114.399 109.748 114.399 109.116V78.8047H120.425V91.5977C121.35 90.5446 122.311 89.7845 123.319 89.3175C124.326 88.8505 125.48 88.6124 126.799 88.6124C129.729 88.6124 132.128 89.8578 133.978 92.3578C135.837 94.8486 136.762 98.1179 136.762 102.147C136.762 106.167 135.819 109.427 133.932 111.927C132.046 114.427 129.601 115.682 126.606 115.682C125.214 115.682 123.951 115.426 122.824 114.904C121.698 114.382 120.599 113.548 119.527 112.404L118.868 115.197H114.106Z" fill="white"/>
<path d="M137.422 110.451L141.597 107.173C142.586 108.455 143.566 109.398 144.537 110.003C145.508 110.607 146.524 110.918 147.577 110.918C148.694 110.918 149.583 110.662 150.224 110.14C150.874 109.618 151.194 108.913 151.194 108.025C151.194 106.715 149.83 105.552 147.092 104.554C146.799 104.444 146.579 104.352 146.432 104.288C143.172 103.061 141.002 101.871 139.903 100.717C138.813 99.563 138.264 98.0795 138.264 96.248C138.264 94.0136 139.097 92.1821 140.755 90.7535C142.412 89.3249 144.574 88.6106 147.229 88.6106C149.015 88.6106 150.617 88.9311 152.055 89.5813C153.493 90.2315 154.812 91.2297 156.03 92.5941L152.138 95.9733C151.295 95.085 150.453 94.4256 149.619 93.9952C148.786 93.5648 147.934 93.3542 147.055 93.3542C146.02 93.3542 145.205 93.5832 144.61 94.0502C144.015 94.5081 143.722 95.1399 143.722 95.9366C143.722 96.9073 145.086 97.9055 147.824 98.922C148.557 99.1967 149.125 99.4165 149.546 99.5813C152.321 100.653 154.207 101.779 155.205 102.97C156.213 104.16 156.716 105.753 156.716 107.741C156.716 110.158 155.883 112.09 154.226 113.565C152.568 115.03 150.361 115.763 147.605 115.763C145.453 115.763 143.557 115.341 141.918 114.49C140.306 113.62 138.804 112.283 137.422 110.451Z" fill="white"/>
<path d="M24.5971 11.7399L23.5256 11.0806C23.6722 10.4029 24.359 7.60073 26.0714 5.75092C27.8297 3.85531 29.9359 3.2326 31.7949 3.21429C32.8022 3.20513 33.7363 3.36081 34.5055 3.5348C34.5971 3.55311 34.6795 3.57143 34.7711 3.58974C35.5037 3.75458 36.2637 3.9011 36.8132 3.77289C37.1062 3.69963 37.3535 3.58059 37.5366 3.48901C37.6557 3.43407 37.7747 3.36996 37.8022 3.38828C37.8022 3.38828 37.8114 3.39744 37.8114 3.40659C37.8388 3.52564 37.729 3.9011 37.3901 4.36813C37.1703 4.66117 36.9139 4.82601 36.7216 4.95421C36.5476 5.0641 36.4286 5.13736 36.4286 5.25641C36.4286 5.31136 36.4835 5.42125 36.5934 5.6044C36.9231 6.19963 37.6099 7.4359 37.5275 9.16667C37.3993 11.8407 36.1264 12.9853 35.2839 13.7454L35.1832 13.837H35.174C34.6154 14.4872 34.6795 15.0824 34.8443 15.467C35.0916 16.0531 35.6319 16.5293 36.337 16.7766C36.7399 16.9231 37.1703 16.9689 37.4909 17.0055C37.729 17.033 37.9579 17.0604 37.9854 17.1154C38.0586 17.2711 37.8388 17.5275 37.3627 17.8388C37.0147 18.0678 36.6301 18.1136 36.6209 18.1136C36.6117 18.1136 36.6026 18.1227 36.6026 18.1319C36.6026 18.141 36.6026 18.1593 36.6117 18.1593C36.6209 18.1685 37.5733 18.9927 37.674 20.119C37.7747 21.2637 37.6007 21.8956 37.0238 22.4451C36.5659 22.8846 35.8974 22.9396 35.641 22.8755C35.5861 22.8663 35.5678 22.848 35.5678 22.8388C35.5311 22.6923 35.7509 22.5458 35.9982 22.3718C36.0531 22.3352 36.1172 22.2894 36.1722 22.2527C36.5018 22.0147 36.685 21.63 36.5751 21.4103C36.5385 21.3462 36.4835 21.3278 36.4103 21.337C36.3553 21.3462 36.2912 21.3645 36.2271 21.3828C36.0898 21.4194 35.9524 21.4652 35.8883 21.3828C35.815 21.3004 35.8425 21.2271 35.9066 21.0897C35.9615 20.9799 36.0348 20.8333 36.044 20.6319C36.0806 20.2015 36.0257 19.0568 35.4029 18.9286C35.3755 18.9194 35.3572 18.9286 35.3388 18.9469C35.2839 18.9927 35.2747 19.1392 35.2747 19.359C35.2747 19.652 35.2656 20.0458 35.1007 20.3022C34.8443 20.7051 34.4322 21.0073 34.2399 21.0165C34.1941 21.0165 34.1667 21.0073 34.1484 20.9799C34.1209 20.9432 34.1392 20.8516 34.1667 20.7143C34.2308 20.3846 34.359 19.7711 34.1758 18.6264C34.1117 18.2234 33.8736 17.793 33.6447 17.3718C33.4249 16.9689 33.2143 16.5842 33.1594 16.2546C33.0769 15.641 33.1502 15.3846 33.489 15.1282C33.6905 14.9817 33.7271 14.8352 33.7271 14.7436C33.7271 14.652 33.6722 14.478 33.5165 14.4139C33.5073 14.4139 33.5073 14.4139 33.4982 14.4048C33.4982 14.4048 33.4982 14.4048 33.489 14.4048C33.4066 14.3864 33.2601 14.3681 33.1136 14.3773C32.4634 14.3864 30.9524 14.4048 29.881 12.9487C29.011 11.7674 28.9469 10.6593 29.1209 9.35898V9.34982C29.1209 9.3315 29.0202 8.837 28.6081 8.4707C28.4066 8.2967 28.2143 8.19597 28.0678 8.12271C27.9854 8.07692 27.8938 8.04029 27.8938 8.01282C27.8938 8.01282 27.8938 7.99451 27.9213 7.97619C28.0311 7.8663 28.3974 7.71978 28.9011 7.79304C29.2857 7.84799 29.5513 8.00366 29.5513 8.00366C29.5604 8.01282 29.5788 8.00366 29.5879 7.99451C29.5971 7.98535 30.5861 6.82234 32.2344 6.95055C33.2143 7.02381 34.1575 7.98535 34.185 9.03846C34.2125 10.0916 33.718 10.6319 33.2967 10.7784C32.9487 10.8974 32.6374 10.8883 32.4451 10.7509C32.3535 10.6868 32.3077 10.6044 32.2985 10.5128C32.2894 10.4304 32.3718 10.3846 32.5183 10.3114C32.7564 10.1923 33.1136 10.0092 33.1594 9.34982C33.1777 9.01099 33.0678 8.67216 32.848 8.43407C32.6923 8.26923 32.4176 8.07692 31.978 8.09524C31.4011 8.12271 30.9341 8.35165 30.6136 8.75458C30.2106 9.27656 30.0733 10.0824 30.2289 11.0165C30.4579 12.3718 31.7583 13.3059 33.2051 13.1593C34.0568 13.0678 34.8443 12.6007 35.4396 11.8223C36.0073 11.0897 36.337 10.1465 36.3462 9.23993C36.3736 6.97802 35.0641 4.64286 32.0696 4.53297C29.2033 4.42308 27.4267 6.20879 26.6117 7.26191C26.1081 7.92125 25.5769 9.17582 25.1832 10.2015C25.3572 10.174 25.9158 10.0916 26.4011 10.3388C26.9048 10.5861 27.5 11.1905 27.3993 11.456C27.3718 11.5293 27.2161 11.4927 27.0055 11.4286C26.7125 11.3553 26.3004 11.3736 25.8333 11.4377C25.0183 11.511 24.6887 11.6575 24.5971 11.7399ZM37.4359 27.0696C37.1795 28.5897 36.3187 29.2308 35.5861 29.3315C35.5311 29.3407 35.467 29.3407 35.4121 29.3407C35.2015 29.3407 35.0275 29.2857 34.9909 29.185C34.9725 29.1483 34.9725 29.1117 34.9817 29.0842C35.0092 29.0293 35.0824 28.9927 35.2106 28.9469C35.3572 28.8919 35.5495 28.8187 35.7601 28.6538C36.3828 28.1685 36.3462 27.9396 36.3187 27.7839C36.3187 27.7656 36.3095 27.7564 36.3004 27.7473C36.2637 27.7289 36.1722 27.7747 36.0623 27.8297L36.0165 27.8571C35.8791 27.9304 35.7418 27.9396 35.641 27.8938C35.5861 27.8663 35.5495 27.8114 35.5311 27.7473C35.5128 27.674 35.5952 27.6007 35.696 27.5092C35.7784 27.4359 35.87 27.3535 35.9249 27.2619C36.2363 26.7582 36.3004 26.1722 36.0531 25.696C35.87 25.348 35.6136 25.0183 34.8535 24.9359C34.8352 24.9359 34.826 24.9359 34.8077 24.9359C34.8077 24.9359 34.7894 24.9359 34.7802 24.9359C34.6887 24.9359 34.5788 24.9451 34.4689 24.9725C33.6264 25.1282 33.0586 25.696 32.6832 26.3095C32.674 26.3187 32.674 26.3278 32.6648 26.337C32.1429 27.1062 32.0147 28.2784 31.9872 28.5073V28.5165C31.8224 29.5879 31.4652 31.1722 29.2216 33.9652C28.9652 34.2857 28.7546 34.7436 28.892 35.2564C29.1209 36.1538 29.9817 36.2271 29.9817 36.3187C29.9725 36.4469 29.7894 36.456 29.478 36.4286C29.1575 36.4011 29.0476 36.3004 29.0476 36.3004C29.0476 36.3004 28.9652 36.5018 29.4872 36.8864C29.8901 37.1795 30.348 37.1612 30.3572 37.2894C30.3755 37.4451 27.8663 38.022 27.7106 35.5037C27.7106 35.4487 27.7015 35.3846 27.7015 35.3297C25.0092 37.793 24.2125 37.9212 24.0202 37.6648C23.9286 37.5366 24.1941 37.5641 24.707 36.978C25.2381 36.3828 25.2473 36.1081 25.2473 36.1081C25.2473 36.1081 24.1941 36.6758 22.9762 36.5659C21.7308 36.456 20.6868 35.5769 20.7692 35.2381C20.8425 34.9451 21.5751 35.4487 22.4725 35.3022C23.2967 35.174 23.37 34.8443 23.37 34.8443C23.37 34.8443 23.2143 34.8443 22.9396 34.5604C22.6648 34.2766 22.2711 34.0476 22.4908 33.8095C22.6191 33.6722 23.2418 33.956 23.8553 33.956C24.6337 33.956 25.1282 33.7821 25.1282 33.7821C25.1282 33.7821 24.8077 33.663 24.478 33.3425C24.1392 33.022 24.0751 32.6832 24.1758 32.6007C24.2308 32.5549 24.3681 32.8205 24.7985 32.8114C25.3022 32.8022 25.3663 32.6832 25.3663 32.6832C25.3663 32.6832 25.1465 32.4908 25.055 32.2985C24.9542 32.1062 24.6612 31.5385 24.8443 31.3187C24.9084 31.2454 25.4762 31.9597 26.3278 32.0421C27.7839 32.1703 29.3865 31.0165 29.3865 31.0165C29.3865 31.0165 28.5989 31.9872 26.9231 33.4249C25.8517 34.3498 24.4963 35.1007 24.5788 35.2747C24.6703 35.4853 25.7326 35.2473 27.5641 33.7088C28.1502 33.2143 28.5257 32.8938 29.3224 31.9139C30.7418 30.174 31.0531 28.2601 30.7784 26.7308C30.6685 26.1355 30.5037 25.5861 30.3205 25.1282C29.533 23.4249 28.6813 22.6007 27.2711 22.0513C26.0165 21.5659 25.0458 22.0055 24.4597 22.2711C24.1575 22.4084 23.9652 22.5 23.8828 22.381C23.6264 22.0147 24.1392 21.5201 24.6062 21.0806C25.1923 20.522 25.5861 20.3022 25.6868 20.2473C25.5861 20.1923 25.2015 20.0092 24.8352 19.9908C24.652 19.9817 24.4322 20.0092 24.2399 20.0366C23.9377 20.0824 23.7088 20.119 23.6813 19.9725C23.6172 19.6795 24.8169 19.1484 25.4762 18.9377C26.1355 18.7179 26.6667 18.6996 26.7674 18.6905C26.7491 18.544 26.6484 17.4451 26.7674 15.8333C26.8315 14.9817 26.9872 14.3956 27.1062 14.0476C27.2528 13.6172 27.4359 13.315 27.5916 13.2234C27.6557 13.1868 27.7106 13.1868 27.7656 13.2143C27.8755 13.2784 27.8755 13.4982 27.8663 13.8278C27.8663 14.0293 27.8572 14.2857 27.8846 14.5513C27.9579 15.3571 28.2235 15.8059 28.37 15.9066C28.3974 15.9249 28.4158 15.9249 28.4341 15.9249C28.489 15.8974 28.5073 15.7967 28.5348 15.6502C28.5623 15.4579 28.6081 15.1923 28.7637 14.8626C29.0293 14.3132 29.533 13.663 29.7161 13.7088C29.7619 13.7179 29.7802 13.7729 29.7711 13.8645C29.7528 14.1209 29.7161 14.3498 29.6795 14.5879C29.5971 15.0824 29.5055 15.6319 29.5513 16.6667C29.6245 18.1868 30.3297 18.3883 30.4213 18.4066C30.467 18.3242 30.815 17.7289 31.3004 17.207C31.4011 17.0971 31.5018 16.978 31.6026 16.8773C31.9139 16.5293 32.1612 16.2546 32.3352 16.2546C32.3443 16.2546 32.3443 16.2546 32.3535 16.2546C32.3993 16.2546 32.4451 16.2912 32.4725 16.337C32.5366 16.4377 32.4359 16.6758 32.2711 17.0879C32.0421 17.6374 31.7033 18.4707 31.5568 19.5055C31.2729 21.4744 31.5568 23.37 31.5659 23.3883L31.5843 23.5256L31.5385 23.3974C31.5385 23.3974 31.3645 22.9304 30.6777 21.9139C30.3663 21.456 30.1191 21.1905 29.8901 20.9341C29.5879 20.6044 29.3132 20.3022 28.9194 19.6429C28.4707 18.8828 28.3608 18.315 28.2876 17.9487C28.2235 17.6282 28.196 17.4725 28.0128 17.4542C27.9945 17.4542 27.9762 17.4634 27.9579 17.4908C27.8022 17.7381 27.8846 19.1117 28.3059 19.9267C28.5348 20.3663 28.8004 20.7143 29.1117 21.1172C29.4322 21.5293 29.7894 21.9963 30.2198 22.6923C31.0073 23.9744 31.4011 24.9176 31.5934 25.4853C31.6392 25.6227 31.6758 25.7509 31.7033 25.8516C31.804 25.6685 31.9597 25.4396 31.9963 25.3938C33.3883 23.8553 34.5971 23.7546 35.4304 23.956H35.4396C36.044 24.0842 36.5843 24.4322 36.9597 24.9634C37.3626 25.5952 37.555 26.3736 37.4359 27.0696ZM37.1337 34.7894C37.1337 34.7985 37.1246 34.8077 37.1246 34.8352C36.8224 35.9158 36.1539 36.6575 35.2381 36.9322C34.9542 37.0147 34.6887 37.0604 34.4414 37.0604C33.8278 37.0604 33.3059 36.8223 32.7564 36.4744C32.7198 36.4652 32.4084 36.4194 32.0971 36.5934C31.9414 36.685 31.8224 36.7949 31.7399 36.8773C31.6667 36.9506 31.6209 36.9963 31.5751 36.9872C31.5568 36.978 31.5385 36.9597 31.5293 36.9322C31.4835 36.8132 31.4835 36.5018 31.685 36.1355C31.804 35.9158 31.9506 35.7692 31.9872 35.7326C31.9231 35.5861 31.5293 34.6062 32.0421 33.5256C32.381 32.793 33.2784 32.3993 33.9561 32.6832C34.6429 32.967 34.8535 33.489 34.826 33.8553C34.8077 34.1575 34.6978 34.3956 34.5513 34.4963C34.478 34.5421 34.4048 34.5604 34.3315 34.533C34.2491 34.5055 34.2399 34.4048 34.2308 34.2766C34.2216 34.0751 34.2033 33.7912 33.8279 33.5897C33.6355 33.489 33.4158 33.4707 33.2235 33.5531C33.0769 33.6081 32.8846 33.7454 32.7839 34.0568C32.6374 34.478 32.6557 34.8718 32.8297 35.2015C33.0403 35.6136 33.489 35.9158 34.0934 36.0623C34.9725 36.2729 35.8974 35.6136 36.1905 34.5696C36.2821 34.2582 36.3279 33.8828 36.2088 33.4982C35.9799 32.7198 35.4396 32.0147 34.1667 31.3919C33.7271 31.1813 32.8205 30.7784 32.4725 30.6227C32.6648 30.0641 32.6923 29.881 32.7564 29.6886C32.8755 29.4963 33.2051 29.1941 33.5165 29.1209C33.8828 29.0293 34.3132 29.2216 34.304 29.2857C34.2949 29.3498 33.8095 29.4689 33.5348 30.1007C33.6447 30.1465 34.5513 30.3938 35.3297 30.8974C36.6392 31.7399 36.9963 32.6465 37.1062 33.0403C37.3077 33.6996 37.2802 34.304 37.1337 34.7894ZM24.4597 14.0476C23.6722 13.315 23.0311 13.1227 23.0311 13.1227V11.7491C23.4066 11.9322 24.2766 12.3901 24.7802 12.8114C25.2747 13.2234 25.6502 13.6264 25.9524 13.9652L25.7418 15.3571C25.3846 14.9725 24.9176 14.478 24.4597 14.0476ZM23.4524 16.5568C23.2234 14.9817 23.3242 14.2399 23.3242 14.2399C23.6722 14.359 24.2766 14.9542 24.478 15.174C24.478 15.174 24.4322 15.3846 24.5879 16.3553C24.6978 17.0879 24.9176 17.7564 25 18.0403L23.9011 18.5531C23.7912 18.196 23.5806 17.3993 23.4524 16.5568ZM24.2949 26.0073C24.4231 27.0513 25.293 28.0494 26.5293 27.9121C27.0604 27.8571 27.4267 27.6099 27.6832 27.3443L27.6007 27.2802L27.6191 27.2619C27.4542 27.1062 26.8773 26.5659 26.4103 25.9707C25.9524 25.3846 25.7235 25.0641 25.6868 25.0092L25.5495 24.826C25.5586 24.8169 25.7143 24.707 26.1722 24.7253C26.6758 24.7436 27.1612 25.1374 27.2985 25.2564C27.2985 25.2564 27.5275 25.5128 28.2876 26.3004C29.185 27.2344 29.826 27.674 29.9267 27.7473C29.9267 28.0128 29.8535 28.544 29.7528 28.9103C29.3407 28.6905 28.8004 28.2418 28.544 28.022C28.5073 27.9945 28.4799 27.967 28.4524 27.9487C28.1319 28.3425 27.6374 28.7454 26.9139 28.9377C26.7399 28.9835 26.5659 29.0018 26.3828 29.0018C24.7802 28.956 23.7088 27.7747 23.4524 26.6026C23.3517 26.163 23.3883 25.6136 23.4066 25.2381C23.4249 24.8993 23.4341 24.6154 23.3608 24.3956C23.2784 24.1484 23.1593 23.9927 23.0861 23.8828C23.0128 23.7821 22.9579 23.7088 23.0128 23.6538C23.0952 23.5531 23.3791 23.6172 23.6355 23.7912C23.8004 23.9011 23.8736 24.0293 23.9011 24.0934C24.0568 23.8645 24.7985 22.848 26.0806 22.8022C26.5202 22.7839 26.9048 22.8846 27.207 23.0769C27.4542 23.2326 27.6282 23.4524 27.6832 23.6722C27.7381 23.8553 27.7381 23.9927 27.6099 24.0568C27.5458 24.0842 27.4084 24.0293 27.2253 23.9377C26.9597 23.8095 26.5293 23.663 26.0348 23.7179C25.641 23.7637 25.0641 24.0385 24.6887 24.5513C24.359 24.9451 24.2308 25.4579 24.2949 26.0073ZM14.8718 37.3901C13.2876 37.6648 10.2839 37.2344 10.2839 37.2344L8.73627 32.2161C8.73627 32.2161 10.348 33.7363 11.1905 34.4048C12.0421 35.0733 12.8297 35.4396 14.0293 35.4396C15.2289 35.4396 16.044 35.1374 16.9231 34.1941C17.8022 33.2509 18.1319 32.033 18.3608 30.6044C18.5165 29.5696 18.4432 26.7125 18.4432 26.044L18.663 10.5037C18.663 10.5037 18.7729 7.15201 18.5348 6.30952C18.2967 5.46703 17.793 4.85348 17.4817 4.53297C16.804 3.82784 15.3755 3.5989 15.3755 3.5989C14.9634 3.5348 14.8718 3.32418 14.9084 3.12271C14.9542 2.82967 15.2106 2.77473 15.2106 2.77473L25.3572 2.79304C25.3572 2.79304 25.6136 2.82051 25.6502 3.11355C25.6777 3.31502 25.5952 3.51648 25.174 3.58974C25.174 3.58974 23.7454 3.81868 23.0678 4.52381C22.7564 4.84432 22.2528 5.45788 22.0147 6.30037C21.7766 7.14286 21.8865 10.4945 21.8865 10.4945V26.0714C21.8865 26.0714 21.9231 29.0751 21.5385 30.6593C21.2637 31.7674 20.641 33.9286 18.9744 35.4304C17.4542 36.804 16.2912 37.1429 14.8718 37.3901ZM7.60074 34.6429C7.05128 35.815 6.12638 36.8407 5.95238 36.6758C5.80586 36.5385 5.98901 36.4194 6.08059 36.0714C6.17216 35.7143 6.19964 35.641 6.19964 35.641C6.19964 35.641 5.94323 35.9982 5.0641 36.5476C4.18498 37.0971 4.02015 37.1429 3.88279 36.9231C3.79121 36.7766 4.01099 36.63 4.22161 36.2637C4.42308 35.9066 4.36813 35.9249 4.36813 35.9249C4.36813 35.9249 3.61722 35.8517 3.00366 35.5861C2.39011 35.3114 1.73993 34.6795 1.75824 34.5513C1.78571 34.3773 2.03297 34.2857 2.5 34.0568C2.99451 33.8095 3.33333 33.489 3.33333 33.489C3.33333 33.489 3.00366 33.4066 2.82051 33.3242C2.52747 33.1868 2.22528 33.0403 2.41758 32.8571C2.58242 32.7015 3.36996 33.2326 4.57876 32.0971C5.65018 31.0897 5.65019 29.6062 5.65019 29.6062C5.65019 29.6062 6.17216 31.337 5.48535 32.7106C4.6337 34.4048 3.04945 34.4139 3.22344 34.7711C3.43407 35.2106 5.37546 34.8168 6.21795 32.7839C6.91392 31.0897 6.18132 28.9286 5.65019 27.6557C5.49451 27.2894 5.29304 26.7949 5.16484 26.4103C5.65019 26.63 6.04396 26.7399 6.43773 26.7857V26.7766C6.43773 26.7766 6.43773 26.7766 6.43773 26.7857C6.44689 26.7857 6.50183 26.8956 6.50183 26.8956C6.96887 27.6465 7.70147 27.9121 8.08608 28.0586C8.45238 28.196 8.84616 28.2692 9.24909 28.2692C9.58792 28.2692 9.94506 28.2143 10.2656 28.0952C10.4762 28.0128 10.6777 27.9029 10.8333 27.7381C11.3004 27.2344 11.4194 25.6777 11.63 25.5586C11.7308 25.5037 11.9689 25.8883 12.0604 26.1722C12.152 26.4652 12.1062 26.7491 12.2802 26.8223C12.4084 26.8681 12.4817 26.7308 12.7473 26.4194C13.1227 25.9799 13.0678 25.8059 13.2601 25.87C13.4524 25.9432 13.2509 26.9048 13.1593 27.4267C13.0678 27.9487 12.8114 28.718 12.8114 28.718C12.8114 28.718 13.4341 28.3059 14.0202 28.0494C15.6502 27.3168 16.2912 27.5458 16.3004 27.7381C16.3095 27.9396 15.9249 27.9762 15.5037 28.4707C15.1923 28.837 15.2747 28.9286 15.2747 28.9286C15.2747 28.9286 15.522 28.9377 16.1996 28.7363C16.685 28.5989 17.1062 28.37 17.2436 28.5714C17.381 28.7729 16.7491 29.6245 15.7784 30.3022C14.7985 30.9799 14.011 31.2271 14.011 31.2271C14.011 31.2271 14.1941 31.4286 14.6795 31.511C15.1557 31.5934 15.3571 31.5201 15.4029 31.6667C15.4579 31.859 14.9267 32.0147 14.011 32.1154C12.7198 32.2527 12.0513 31.685 12.0513 31.685C12.0513 31.685 12.2161 32.152 12.0238 32.6282C11.8315 33.1044 11.7857 33.5531 11.5934 33.5256C11.4011 33.4982 11.63 33.0494 11.2729 32.5916C10.8791 32.1062 10.4396 32.0055 9.77107 31.4927C9.12088 30.989 9.10257 30.6044 9.10257 30.6044C9.10257 30.6044 10.2289 31.0256 12.0879 30.7326C13.8645 30.4487 14.4139 29.9176 14.2857 29.7161C14.1667 29.533 13.8736 29.7711 13.0311 29.9542C12.0513 30.174 10.7234 30.119 9.24909 29.8718C8.72711 29.7802 8.03114 29.5421 7.39011 29.1209C7.63736 29.6154 8.04945 30.5037 8.14103 31.1355C8.29671 32.2436 8.15934 33.4707 7.60074 34.6429ZM6.45605 18.6905C6.52931 18.2051 6.80403 17.6923 6.97802 17.4725C7.61905 17.3535 8.0403 17.7106 8.09524 17.7656C7.7381 18.4432 7.51832 19.1941 7.31685 19.9542C7.07876 19.8535 6.73993 19.5238 6.45605 18.6905ZM6.61172 23.7912C6.28205 23.7637 5.4304 23.1868 5.38462 23.0494C5.37546 22.7473 5.45788 22.0879 5.57692 21.7033C5.99817 22.4451 6.7033 22.7564 6.7033 22.7564C6.57509 23.2418 6.61172 23.7912 6.61172 23.7912ZM3.14103 17.2527C3.22344 17.0238 3.2967 16.8498 3.36081 16.7033C3.49817 16.3919 3.58059 16.1996 3.61722 15.7601C3.65385 15.2564 3.49817 14.8626 3.39744 14.7619C3.52564 14.7802 3.91941 14.9451 4.07509 15.2747C4.2033 15.5494 4.39561 16.2546 4.36813 16.3736C4.35898 16.4011 4.37729 16.4103 4.38645 16.4194C4.41392 16.4377 4.43224 16.4194 4.52381 16.3553C4.79854 16.1538 5.62271 15.5311 7.07876 15.522H7.09707C9.78022 15.522 10.9524 18.0037 10.9707 18.0311L10.9799 18.0403H10.9982C11.0165 18.0403 11.3645 18.141 12.0788 17.8388C12.3535 17.7198 12.5275 17.5733 12.6923 17.4267C12.9579 17.1886 13.196 16.9872 13.8553 16.9689C14.5147 16.9414 15.0092 17.3169 15.0916 17.5824C15.1099 17.6465 15.1191 17.7289 15.0366 17.7839C14.9359 17.8571 14.9176 17.848 14.8626 17.8205C14.7711 17.7747 14.6245 17.7015 14.13 17.7839C13.718 17.848 13.5256 18.2234 13.3242 18.6264C13.1044 19.0568 12.8755 19.5055 12.3626 19.6429C11.8956 19.7711 11.337 19.4506 11.2363 19.2766C11.2088 19.2308 11.163 19.1758 11.1081 19.185C11.0531 19.1941 11.044 19.2674 11.0348 19.2857C11.0348 19.2857 11.0165 19.6978 10.7692 20.4121C10.5311 21.0714 9.45055 22.6465 7.32601 22.0696C6.02564 21.7216 5.51282 20.4945 5.56777 19.7436C5.58608 19.4963 5.6685 19.3315 5.77839 19.3223C5.86997 19.3132 5.95238 19.3773 5.97986 19.4506C6.08059 19.7344 6.18132 20.0092 6.32784 20.2564C6.53846 20.5952 6.93224 20.989 7.39927 21.0897C8.45238 21.3187 9.10257 20.7784 9.23077 20.6685C9.6337 20.293 9.85348 19.6703 9.81685 19.0018C9.77107 18.1502 9.31319 17.6007 8.94689 17.2894C8.4707 16.8956 7.85715 16.6667 7.26191 16.6575C7.24359 16.6575 7.23444 16.6575 7.21612 16.6575C6.43773 16.6575 5.65018 16.9689 5.03663 17.5183C4.23993 18.2143 3.78205 19.2491 3.69048 20.5128C3.60806 21.5934 4.05678 22.793 4.84432 23.6538C5.45788 24.3223 6.22711 24.6978 6.98718 24.6978C7.0055 24.6978 7.01465 24.6978 7.03297 24.6978C9.05678 24.6978 10.3571 23.4524 11.7399 22.1337C13.0311 20.8974 14.3681 19.6245 16.4652 19.0385C16.6209 18.9927 17.3443 18.9286 17.4908 18.9194L17.4542 20.0641C16.2821 20.2839 14.6429 21.0348 14.7253 21.8498C14.8077 22.6557 15.3205 23.0861 15.5678 23.2967C15.6227 23.3425 15.6777 23.3883 15.6868 23.3974C15.6868 23.4066 15.6593 23.4249 15.5861 23.4524C15.3571 23.5348 14.8443 23.5989 14.4414 23.4066C13.9011 23.1593 13.37 22.2711 13.3608 22.2619L13.3425 22.2253L13.315 22.2527C13.2967 22.2711 11.6941 23.9469 10.8242 24.5788C10.2564 24.9908 8.76374 26.0897 6.99634 26.0073C5.77839 25.9524 4.64286 25.3938 3.80953 24.4414C2.93956 23.4341 2.46337 22.0513 2.48169 20.5494C2.51832 19.185 2.66484 18.5623 3.14103 17.2527ZM7.04213 2.82051C7.05128 2.82051 8.30586 2.71062 9.49634 3.18681C10.0183 3.39744 10.3938 3.663 10.7234 3.9011L10.7326 3.91026C11.218 4.25824 11.6117 4.53297 12.1612 4.35897C12.793 4.16667 12.9121 3.67216 12.9945 3.35165C13.0128 3.27839 13.0495 3.13187 13.0769 3.11355C13.1044 3.1044 13.2143 3.15018 13.315 3.2967C13.4341 3.4707 13.7454 4.13919 12.9121 5.32967C12.4542 5.98901 11.7125 6.12637 11.6758 6.13553C11.6484 6.14469 11.6209 6.163 11.6026 6.19048C11.5843 6.21795 11.5843 6.25458 11.5934 6.28205C11.6392 6.44689 11.6484 6.57509 11.6575 6.69414C11.685 7.10623 11.6484 7.5 11.3736 8.17766C10.9524 9.19414 10.1007 9.83517 8.98352 9.96337C7.89378 10.0916 7.01465 9.47802 6.7033 8.80952C6.41942 8.18681 6.4011 7.46337 6.65751 6.82234C6.72161 6.65751 6.8315 6.5293 6.92308 6.51099C6.96887 6.50183 6.99634 6.51099 7.03297 6.53846C7.12455 6.61172 7.1337 6.80403 7.14286 7.04212C7.15202 7.28938 7.16117 7.59158 7.27106 7.91209C7.4359 8.40659 7.98535 8.88278 8.69964 8.80952C9.77107 8.70879 10.4304 7.94872 10.4487 6.77656C10.4762 5.54029 9.67949 4.07509 7.38096 4.02015C7.35348 4.02015 7.31685 4.02015 7.28938 4.02015C6.41942 4.02015 5.62271 4.35897 4.98169 4.99084C4.23993 5.7326 3.76374 6.86813 3.74542 7.94872C3.70879 10.0549 4.80769 11.2821 5.72344 11.9414C6.65751 12.6007 8.11356 12.6465 9.9359 12.0696C10.5586 11.8681 11.2271 11.5934 11.8773 11.3187H11.8865C12.4359 11.0897 13.0037 10.8516 13.544 10.6685C13.8645 10.5586 14.2033 10.467 14.5513 10.4029L14.6062 10.3938L14.5696 10.348C14.4231 10.1648 14.2491 9.91758 14.0202 9.59707C13.5531 8.94689 13.4158 7.72894 13.5714 7.47253C13.6355 7.36264 13.718 7.34432 13.7454 7.34432C13.7729 7.34432 13.7912 7.35348 13.7912 7.35348C13.7912 7.36264 13.7912 7.42674 13.7912 7.4359C13.7821 7.5 13.7912 7.77473 13.9194 7.92125C14.0843 8.11355 14.3132 8.15018 14.4048 8.1044C14.4414 8.08608 14.4597 8.05861 14.478 8.03114C14.5055 7.9304 14.6703 7.39927 14.9634 6.98718C15.2015 6.63919 15.9432 6.0989 16.3736 6.0989C16.3828 6.0989 16.4011 6.0989 16.4103 6.0989C16.5293 6.10806 16.6026 6.163 16.6575 6.25458C16.7125 6.37363 16.5293 6.56593 16.4744 6.63004C16.0898 7.03297 15.6502 7.60989 15.6136 8.5989C15.5952 9.05678 15.7326 9.44139 16.0073 9.73443C16.5293 10.293 17.4176 10.3571 17.5916 10.3571V11.3645C17.5641 11.3645 17.5366 11.3645 17.5092 11.3645C16.6209 11.3645 15.9249 12.4359 15.6777 13.5348C15.4854 14.4231 15.6502 15.6868 15.7326 16.0623C15.8059 16.4103 15.7418 16.4835 15.7234 16.5018C15.7143 16.511 15.696 16.5201 15.6685 16.511C15.4854 16.4744 15.1374 16.0806 14.7619 15.467C14.478 15.0183 14.5604 14.4505 14.6062 14.1575C14.6337 13.9835 14.6429 13.9194 14.5788 13.8736L14.5696 13.8645C14.533 13.837 14.478 13.8004 14.4048 13.8004H14.3956C14.3132 13.8004 14.2216 13.8553 14.1209 13.9652C14.0385 14.0568 13.9927 14.1209 13.9652 14.1667C13.9194 14.2308 13.9194 14.2308 13.8004 14.185C13.7912 14.185 13.7912 14.1758 13.7821 14.1575C13.7088 13.9377 13.9469 13.1593 14.2674 12.619C14.5238 12.1795 14.7894 11.8681 15.1648 11.5659L15.2747 11.4744L15.1374 11.5018C13.8553 11.7949 12.5733 12.3077 11.7766 12.8388C10.7601 13.5165 9.94506 14.3315 9.34066 15.2473C9.23077 15.1832 9.13004 15.1282 8.86447 15.0092C8.69964 14.9359 8.45238 14.8535 8.26923 14.8352C8.52564 14.4963 8.94689 14.0385 9.12088 13.8462L9.1392 13.8278C9.16667 13.7912 9.15751 13.7363 9.13004 13.6996C9.10257 13.663 9.04762 13.6447 9.00183 13.663C8.95605 13.6813 7.81136 14.1209 5.79671 13.3608C4.15751 12.7473 2.45421 10.9799 2.54579 7.83883C2.62821 4.6337 4.8718 3.01282 7.04213 2.82051ZM0 40H39.9542V0H0V40Z" fill="#990000"/>
<path d="M47.793 29.1474C47.1611 30.0723 46.5568 30.9423 45.3938 30.9423C44.6978 30.9423 43.956 30.5302 43.956 29.3946C43.956 28.4056 44.4597 27.7921 45.4212 27.6089C45.4395 27.6089 45.4579 27.5906 45.4579 27.5631V27.4807C45.4579 27.4716 45.4487 27.4532 45.4395 27.4441C45.4304 27.4349 45.4212 27.4349 45.4029 27.4349C45.2106 27.4441 44.8809 27.4441 44.6886 27.4441C44.359 27.4441 44.1209 27.4349 43.8278 27.4075C43.8187 27.4075 43.8003 27.4075 43.7912 27.4258C43.782 27.4349 43.782 27.4532 43.782 27.4624C43.7912 27.5357 43.7912 27.5998 43.7912 27.6822C43.7912 27.9111 43.7454 28.1309 43.6996 28.369C43.6447 28.662 43.5806 29.0009 43.5806 29.4221C43.5806 30.8782 44.5604 31.8855 45.9707 31.8855C47.4542 31.8855 48.1593 30.8415 48.8461 29.8434C49.5055 28.8727 50.1282 27.9661 51.3828 27.9661C52.5732 27.9661 53.1044 28.836 53.1044 29.706C53.1044 30.7042 52.5549 31.7206 51.5018 31.7206C51.4102 31.7206 51.3187 31.7115 51.2179 31.7023L51.1721 31.6932C51.163 31.6932 51.1447 31.6932 51.1355 31.7023C51.1263 31.7115 51.1172 31.7206 51.1172 31.739V31.8031C51.1172 31.8214 51.1264 31.8397 51.1447 31.8397C51.4743 31.9862 51.8773 32.0045 51.9872 32.0045C52.1612 32.0045 52.3168 31.9862 52.4633 31.9679C52.6099 31.9496 52.7472 31.9404 52.8937 31.9404C53.0036 31.9404 53.1685 31.9404 53.2234 31.9496C53.2417 31.9496 53.2509 31.9496 53.26 31.9404C53.2692 31.9313 53.2784 31.913 53.2692 31.9038C53.2601 31.8305 53.26 31.7939 53.26 31.7115C53.26 31.4276 53.315 31.1895 53.3699 30.9423C53.434 30.6401 53.5073 30.3104 53.5073 29.825C53.5073 28.195 52.3992 27.0595 50.8058 27.0595C49.2399 27.0503 48.5073 28.1126 47.793 29.1474Z" fill="#990000"/>
<path d="M48.6723 11.2444C51.4195 11.2444 53.132 12.6088 53.132 14.8066C53.132 16.977 51.4378 18.2773 48.5898 18.2773C46.4653 18.2773 43.9836 17.3707 43.9836 14.8066C43.9836 13.1674 45.2107 11.2444 48.6723 11.2444ZM43.6082 14.7059C43.6082 17.7737 46.1631 19.596 48.6356 19.596C51.044 19.596 53.5257 17.8011 53.5257 14.8066C53.5257 12.0777 51.3554 9.93484 48.5898 9.93484C45.7968 9.944 43.6082 12.0319 43.6082 14.7059Z" fill="#990000"/>
<path d="M46.5018 4.59536C48.0219 4.59536 48.7271 5.37375 48.7271 7.04042V7.65397H44.1025C44.0018 7.2602 43.9743 7.00379 43.9743 6.71075C43.9835 5.4287 44.9725 4.59536 46.5018 4.59536ZM53.3608 1.8939C53.086 2.6906 51.4377 3.60635 50.2381 4.28401C49.5512 4.66862 49.0018 4.97998 48.7912 5.19976C48.3516 4.04591 47.4267 3.3591 46.3278 3.3591C44.6611 3.3591 43.5806 4.64115 43.5806 6.62833C43.5806 6.76569 43.5897 6.99463 43.5897 7.23273C43.5989 7.50745 43.608 7.82797 43.608 8.04775C43.608 8.64298 43.608 8.89024 43.5806 9.35727C43.5806 9.36643 43.5806 9.38474 43.5897 9.3939C43.5989 9.40306 43.608 9.41221 43.6264 9.41221H43.6905C43.7088 9.41221 43.7271 9.3939 43.7362 9.37558C43.8095 8.90855 43.9927 8.75287 44.9267 8.75287H52.1886C53.2692 8.75287 53.2966 8.92687 53.3791 9.40306C53.3791 9.42137 53.3974 9.43969 53.4249 9.43969H53.489C53.4981 9.43969 53.5164 9.43053 53.5164 9.43053C53.5256 9.42137 53.5347 9.41221 53.5256 9.3939C53.5164 9.11917 53.4981 8.73456 53.4981 8.20342C53.4981 7.64481 53.5164 7.18694 53.5256 7.01295C53.5256 7.00379 53.5256 6.98547 53.5164 6.97632C53.5073 6.96716 53.4981 6.96716 53.489 6.96716H53.4157C53.3974 6.96716 53.3791 6.98547 53.3699 7.00379C53.2967 7.47082 53.2692 7.65397 52.1794 7.65397H49.1025V6.82064C49.1025 6.67412 49.0842 6.48181 49.0567 6.26203C49.2857 6.02394 49.8076 5.74005 50.1282 5.57522C50.1923 5.53859 50.2564 5.51111 50.3022 5.48364C53.3058 3.88108 53.489 3.69793 53.5439 2.25104C53.5439 2.0862 53.5439 2.03126 53.5256 1.90305C53.5256 1.88474 53.5073 1.86642 53.4798 1.86642H53.3974C53.3882 1.86642 53.3699 1.87558 53.3608 1.8939Z" fill="#990000"/>
<path d="M43.6448 19.2778C43.6356 19.2778 43.6173 19.2778 43.6082 19.287C43.599 19.2961 43.5898 19.3053 43.5898 19.3236C43.6082 20.2302 43.6631 23.2613 43.5898 26.3474C43.5898 26.3657 43.599 26.3841 43.6265 26.3932C43.8737 26.4573 44.0843 26.5123 44.2858 26.5764C44.5331 26.6496 44.7712 26.7137 45.0276 26.7687C45.0367 26.7687 45.055 26.7687 45.0642 26.7595C45.0734 26.7504 45.0825 26.7412 45.0825 26.7229V26.6588C45.0825 26.6405 45.0734 26.6222 45.055 26.6222C44.2217 26.2284 44.2126 25.6057 44.2126 23.5269H52.1887C53.2693 23.5269 53.2968 23.7009 53.3792 24.1679C53.3792 24.1863 53.3975 24.2046 53.425 24.2046H53.4891C53.4983 24.2046 53.5166 24.1954 53.5166 24.1954C53.5257 24.1863 53.5257 24.1771 53.5257 24.1588C53.5166 23.8841 53.4983 23.5086 53.4983 22.9866C53.4983 22.4372 53.5166 21.9793 53.5257 21.8145C53.5257 21.8053 53.5257 21.7961 53.5166 21.787C53.5074 21.7778 53.4983 21.7778 53.48 21.7778H53.4158C53.3975 21.7778 53.3792 21.7961 53.3701 21.8145C53.2968 22.2815 53.2693 22.4555 52.1796 22.4555H44.2034C44.2034 20.0745 44.295 19.7632 44.6613 19.7632C44.7254 19.7632 44.8078 19.7723 44.8536 19.7907C44.8627 19.7907 44.8811 19.7907 44.8902 19.7815C44.8994 19.7723 44.9085 19.7632 44.9085 19.7449V19.6624C44.9085 19.6441 44.8902 19.6258 44.8719 19.6167C44.6613 19.5434 44.0111 19.3877 43.6448 19.2778Z" fill="#990000"/>
<path d="M43.5898 32.7935C43.599 33.0591 43.6173 33.581 43.6173 34.0298C43.6173 34.506 43.6082 35.0371 43.5898 35.321C43.5898 35.3301 43.5898 35.3484 43.599 35.3576C43.6082 35.3668 43.6173 35.3668 43.6356 35.3668H43.6997C43.718 35.3668 43.7364 35.3484 43.7455 35.3301C43.8188 34.8631 43.8646 34.5517 44.8902 34.5517H50.7876C51.8957 34.5517 53.0953 35.0829 53.0953 35.9437C53.0953 36.0994 53.0862 36.2459 53.0587 36.3924C52.9122 36.9876 52.4909 37.3631 52.1979 37.5829C52.1521 37.6195 52.1155 37.647 52.0697 37.6745C51.7034 37.9217 51.3829 38.0316 51.3737 38.0408C51.3463 38.0499 51.3279 38.0774 51.3371 38.114C51.3463 38.1415 51.3737 38.1598 51.4012 38.1598L52.9488 37.9583C52.9671 37.9583 52.9854 37.9492 52.9946 37.9309C53.3517 37.3723 53.4616 36.6763 53.48 36.5481C53.5166 36.3283 53.5257 36.1452 53.5257 36.0353C53.5257 35.9528 53.5257 35.8979 53.5166 35.8979C53.5166 34.4693 52.3627 33.5078 50.632 33.5078H44.8811C43.892 33.5078 43.8371 33.2697 43.7455 32.8027L43.7364 32.7752C43.7364 32.7569 43.718 32.7386 43.6906 32.7386H43.6265C43.6173 32.7386 43.599 32.7477 43.5898 32.7477C43.5898 32.766 43.5898 32.7843 43.5898 32.7935Z" fill="#990000"/>
<path d="M57.7289 38.1875V1.80469H63.9194V31.9878H77.3443V38.1875H57.7289Z" fill="black"/>
<path d="M93.2417 25.5043C90.2747 25.9072 88.1135 26.5574 86.749 27.4365C85.3846 28.3157 84.7069 29.5153 84.7069 31.0171C84.7069 31.9054 84.9542 32.5922 85.4395 33.0867C85.9249 33.5721 86.6117 33.8193 87.5091 33.8193C88.4798 33.8193 89.4414 33.5904 90.3846 33.1417C91.3278 32.6838 92.2802 31.997 93.2417 31.0721V25.5043ZM93.9194 38.1966L93.3882 35.9164C92.2069 36.7772 90.9707 37.4182 89.6703 37.8486C88.3699 38.279 87.0238 38.4897 85.6135 38.4897C83.4432 38.4897 81.7399 37.8761 80.4945 36.6398C79.2582 35.4127 78.6355 33.7094 78.6355 31.5391C78.6355 28.6911 79.826 26.4384 82.2161 24.7992C84.6062 23.1508 88.3424 22.0153 93.434 21.3834V19.3413C93.434 18.3889 93.1135 17.6472 92.4725 17.1343C91.8315 16.6124 90.9249 16.356 89.7344 16.356C88.5531 16.356 87.4816 16.6032 86.511 17.1069C85.5494 17.6105 84.7161 18.3523 84.0201 19.3413L79.8443 16.6948C80.934 15.0098 82.3077 13.7461 83.9743 12.8944C85.641 12.0428 87.5915 11.6215 89.826 11.6215C92.8388 11.6215 95.1923 12.2992 96.8772 13.6636C98.5622 15.0281 99.4047 16.9237 99.4047 19.3505V34.6801C99.4047 35.0831 99.4413 35.5776 99.5055 36.1453C99.5696 36.7223 99.6703 37.4091 99.7985 38.1966H93.9194Z" fill="black"/>
<path d="M108.425 31.2644C109.231 32.0611 110.009 32.6289 110.742 32.9768C111.483 33.3248 112.244 33.4988 113.04 33.4988C114.808 33.4988 116.172 32.7754 117.134 31.3193C118.095 29.8725 118.581 27.812 118.581 25.138C118.581 22.4823 118.095 20.4127 117.125 18.9201C116.154 17.4274 114.808 16.6856 113.095 16.6856C112.317 16.6856 111.557 16.8596 110.824 17.2076C110.082 17.5556 109.286 18.1142 108.434 18.8743V31.2644H108.425ZM102.106 38.1966C102.207 36.823 102.28 35.6234 102.326 34.5977C102.372 33.5812 102.399 32.7479 102.399 32.116V1.80469H108.425V14.5977C109.35 13.5446 110.311 12.7845 111.319 12.3175C112.326 11.8505 113.48 11.6124 114.799 11.6124C117.729 11.6124 120.128 12.8578 121.978 15.3578C123.837 17.8486 124.762 21.1179 124.762 25.1472C124.762 29.1673 123.819 32.4274 121.932 34.9274C120.046 37.4274 117.601 38.682 114.606 38.682C113.214 38.682 111.951 38.4256 110.824 37.9036C109.698 37.3816 108.599 36.5483 107.527 35.4036L106.868 38.1966H102.106Z" fill="black"/>
<path d="M125.422 33.4513L129.597 30.1729C130.586 31.455 131.566 32.3982 132.537 33.0026C133.508 33.607 134.524 33.9183 135.577 33.9183C136.694 33.9183 137.583 33.6619 138.224 33.1399C138.874 32.618 139.194 31.9128 139.194 31.0245C139.194 29.715 137.83 28.552 135.092 27.5539C134.799 27.444 134.579 27.3524 134.432 27.2883C131.172 26.0612 129.002 24.8707 127.903 23.7169C126.813 22.563 126.264 21.0795 126.264 19.248C126.264 17.0136 127.097 15.1821 128.755 13.7535C130.412 12.3249 132.574 11.6106 135.229 11.6106C137.015 11.6106 138.617 11.9311 140.055 12.5813C141.493 13.2315 142.812 14.2297 144.03 15.5941L140.138 18.9733C139.295 18.085 138.453 17.4256 137.619 16.9952C136.786 16.5648 135.934 16.3542 135.055 16.3542C134.02 16.3542 133.205 16.5832 132.61 17.0502C132.015 17.5081 131.722 18.1399 131.722 18.9366C131.722 19.9073 133.086 20.9055 135.824 21.922C136.557 22.1967 137.125 22.4165 137.546 22.5813C140.321 23.6528 142.207 24.7791 143.205 25.9696C144.213 27.1601 144.716 28.7535 144.716 30.7407C144.716 33.1582 143.883 35.0905 142.226 36.5648C140.568 38.03 138.361 38.7626 135.605 38.7626C133.453 38.7626 131.557 38.3414 129.918 37.4897C128.306 36.6198 126.804 35.2828 125.422 33.4513Z" fill="black"/>
</svg>
