<svg width="179" height="132" viewBox="0 0 179 132" fill="none" xmlns="http://www.w3.org/2000/svg">
<rect y="64" width="179" height="68" fill="black"/>
<g clip-path="url(#clip0)">
<path d="M20.3788 103.626C18.5344 103.626 17.6825 104.785 16.8657 105.9C16.1367 106.895 15.4516 107.829 14.1079 107.829C13.3174 107.829 12.4655 107.396 12.4655 106.168C12.4655 105.113 13.0452 104.456 14.1518 104.257C14.1869 104.249 14.2045 104.223 14.2045 104.197V104.11C14.2045 104.093 14.1957 104.076 14.1869 104.067C14.1694 104.059 14.1518 104.05 14.1342 104.05C13.9059 104.067 13.537 104.067 13.3086 104.067C12.931 104.067 12.6587 104.059 12.3162 104.024C12.2986 104.024 12.2723 104.033 12.2635 104.041C12.2459 104.059 12.2459 104.076 12.2459 104.093C12.2635 104.171 12.2635 104.24 12.2635 104.327C12.2635 104.569 12.2108 104.811 12.1581 105.062C12.0966 105.382 12.0176 105.745 12.0176 106.203C12.0176 107.777 13.1593 108.875 14.7929 108.875C16.5144 108.875 17.3312 107.751 18.1216 106.661C18.8769 105.624 19.5883 104.638 21.0375 104.638C22.3988 104.638 23.0136 105.572 23.0136 106.497C23.0136 107.569 22.3812 108.65 21.178 108.65C21.0726 108.65 20.976 108.641 20.853 108.624L20.8003 108.615C20.7828 108.615 20.7652 108.615 20.7476 108.633C20.7301 108.641 20.7213 108.659 20.7213 108.685V108.754C20.7213 108.78 20.7389 108.806 20.7652 108.814C21.1517 108.979 21.6171 108.987 21.7489 108.987C21.9421 108.987 22.1265 108.97 22.3022 108.953C22.4691 108.935 22.6272 108.918 22.794 108.918C22.9258 108.918 23.1014 108.918 23.1717 108.935C23.198 108.935 23.2156 108.935 23.2332 108.918C23.2507 108.901 23.2507 108.883 23.2507 108.858C23.2332 108.78 23.2332 108.736 23.2332 108.659C23.2332 108.356 23.2947 108.105 23.3561 107.829C23.4352 107.509 23.523 107.145 23.523 106.627C23.523 104.854 22.2319 103.626 20.3788 103.626Z" fill="white"/>
<path d="M12.4918 90.1288C12.4918 88.3649 13.9058 86.307 17.8932 86.307C21.0637 86.307 23.0311 87.7683 23.0311 90.1288C23.0311 92.4548 21.0725 93.8469 17.7965 93.8469C15.3549 93.8469 12.4918 92.8785 12.4918 90.1288ZM17.8492 95.3083C20.6334 95.3083 23.5229 93.3714 23.5229 90.1288C23.5229 87.1803 21.011 84.8629 17.8053 84.8629C14.5645 84.8629 12.0263 87.1284 12.0263 90.0078C12.0175 93.3281 14.9861 95.3083 17.8492 95.3083Z" fill="white"/>
<path d="M17.9726 81.5685V82.2084H12.6765C12.5624 81.7933 12.536 81.5253 12.536 81.214C12.536 79.8478 13.669 78.9572 15.4255 78.9572C16.5146 78.9572 17.9726 79.2339 17.9726 81.5685ZM23.5057 81.4907C23.4969 81.4821 23.4793 81.4734 23.453 81.4734H23.374C23.3388 81.4734 23.3125 81.4994 23.3037 81.5253C23.2159 82.0182 23.1895 82.2084 21.9511 82.2084H18.438V81.3351C18.438 81.1708 18.4205 80.9719 18.3853 80.7384C18.6488 80.4877 19.2461 80.185 19.6061 80.0121L19.6413 79.9948C19.7028 79.9602 19.7555 79.9343 19.7994 79.917C23.2686 78.179 23.4706 77.9888 23.5408 76.4323C23.5408 76.2508 23.5408 76.1902 23.5233 76.0605C23.5233 76.0259 23.4881 76 23.453 76H23.3564C23.33 76 23.3037 76.0173 23.2949 76.0432C22.9787 76.8906 21.0904 77.8764 19.7115 78.594H19.7028C18.9299 79.0004 18.3151 79.3204 18.0604 79.5538C17.5422 78.326 16.4795 77.591 15.2148 77.591C13.2826 77.591 12.0354 78.9745 12.0354 81.1189C12.0354 81.2659 12.0442 81.5166 12.053 81.776V81.7847C12.0617 82.0787 12.0705 82.4159 12.0705 82.6494C12.0705 83.2892 12.0705 83.5573 12.0354 84.0588C12.0354 84.0761 12.0442 84.0934 12.053 84.102C12.0617 84.1107 12.0793 84.1193 12.1057 84.1193H12.1847C12.2198 84.1193 12.2462 84.0934 12.255 84.0674C12.334 83.5832 12.5448 83.4189 13.6075 83.4189H21.9687C23.1983 83.4189 23.2334 83.6005 23.3213 84.102C23.33 84.1366 23.3564 84.1539 23.3915 84.1539H23.4706C23.4881 84.1539 23.5057 84.1453 23.5233 84.1366C23.5408 84.1193 23.5408 84.102 23.5408 84.0934C23.5233 83.7907 23.5057 83.3757 23.5057 82.8223C23.5057 82.2343 23.5233 81.7328 23.5408 81.5512C23.5233 81.5253 23.5145 81.508 23.5057 81.4907Z" fill="white"/>
<path d="M12.0527 102.434C12.3425 102.503 12.5972 102.572 12.8168 102.624C13.1066 102.702 13.3789 102.779 13.6687 102.831C13.6775 102.831 13.6775 102.831 13.6863 102.831C13.7039 102.831 13.7126 102.823 13.7302 102.814C13.7478 102.805 13.7566 102.779 13.7566 102.762V102.693C13.7566 102.667 13.739 102.65 13.7214 102.632C12.7641 102.209 12.7641 101.543 12.7641 99.3293H21.9597C23.198 99.3293 23.2332 99.5109 23.3122 100.004C23.321 100.038 23.3473 100.056 23.3825 100.056H23.4615C23.4791 100.056 23.4966 100.047 23.5142 100.038C23.523 100.03 23.5318 100.012 23.5318 99.9951C23.5142 99.7011 23.4966 99.2861 23.4966 98.7327C23.4966 98.1361 23.5142 97.6519 23.5318 97.4703C23.5318 97.453 23.523 97.4357 23.5142 97.427C23.5054 97.4184 23.4879 97.4097 23.4615 97.4097H23.3825C23.3473 97.4097 23.321 97.4357 23.3122 97.4616C23.2244 97.9545 23.198 98.1361 21.9597 98.1361H12.7553C12.7553 96.8045 12.7904 96.13 12.8607 95.7409C12.9398 95.3432 13.0715 95.2567 13.2647 95.2567C13.335 95.2567 13.4316 95.274 13.4843 95.2826C13.5019 95.2913 13.5282 95.2826 13.5458 95.274C13.5633 95.2653 13.5721 95.2394 13.5721 95.2221V95.1356C13.5721 95.1011 13.5458 95.0751 13.5194 95.0751C13.2735 95.0319 12.527 94.8676 12.1054 94.7465C12.0878 94.7379 12.0615 94.7465 12.0439 94.7552C12.0088 94.7638 12 94.7811 12 94.7984C12.0176 95.4988 12.079 99.1391 12 102.373C12 102.399 12.0176 102.425 12.0527 102.434Z" fill="white"/>
<path d="M20.1592 110.691H13.5194C12.3864 110.691 12.3337 110.44 12.2196 109.948L12.2108 109.922C12.202 109.896 12.1757 109.87 12.1405 109.87H12.0703C12.0527 109.87 12.0351 109.878 12.0176 109.887C12.0088 109.896 12 109.913 12 109.93C12.0176 110.216 12.0263 110.778 12.0263 111.262C12.0263 111.772 12.0088 112.351 12 112.654C12 112.671 12.0088 112.689 12.0176 112.697C12.0263 112.706 12.0439 112.714 12.0703 112.714H12.1493C12.1844 112.714 12.2108 112.689 12.2196 112.663C12.3074 112.17 12.3601 111.841 13.5282 111.841H20.3436C21.6171 111.841 22.996 112.412 22.996 113.32C22.996 113.493 22.9785 113.648 22.9521 113.804C22.7852 114.444 22.3022 114.842 21.9597 115.084C21.9157 115.11 21.8718 115.144 21.8103 115.179C21.3888 115.447 21.0111 115.568 21.0023 115.568C20.9584 115.585 20.9409 115.62 20.9496 115.663C20.9584 115.698 20.9936 115.724 21.0375 115.724H21.0462L22.8379 115.507C22.8643 115.507 22.8906 115.49 22.9082 115.473C23.3122 114.893 23.4439 114.176 23.4703 113.986V113.977C23.5142 113.735 23.5142 113.536 23.5142 113.415C23.5142 113.32 23.5054 113.268 23.5054 113.259C23.5054 111.729 22.1617 110.691 20.1592 110.691Z" fill="white"/>
<path d="M28.5994 115.473V76.2337H55.1585V82.6151H36.5917V91.8325H50.6353V98.2138H36.5917V115.473H28.5994Z" fill="white"/>
<path d="M59.0405 101.318C59.0405 104.318 59.5235 106.567 60.4808 108.054C61.4382 109.541 62.8698 110.285 64.7756 110.285C66.699 110.285 68.1306 109.55 69.088 108.071C70.0365 106.592 70.5108 104.344 70.5108 101.327C70.5108 98.3261 70.0365 96.0953 69.0967 94.6339C68.157 93.1726 66.7166 92.4463 64.7756 92.4463C62.8522 92.4463 61.4206 93.1813 60.4633 94.6599C59.5147 96.1298 59.0405 98.3521 59.0405 101.318ZM51.8035 101.318C51.8035 96.7178 52.9452 93.1208 55.2375 90.5267C57.5298 87.9327 60.7004 86.6443 64.7756 86.6443C68.842 86.6443 72.0214 87.9413 74.3137 90.5267C76.606 93.1208 77.7478 96.7178 77.7478 101.318C77.7478 105.918 76.5972 109.515 74.3049 112.109C72.0038 114.703 68.8333 116 64.7844 116C60.7355 116 57.565 114.703 55.2639 112.1C52.954 109.498 51.8035 105.909 51.8035 101.318Z" fill="white"/>
<path d="M79.9259 115.473V87.1979H86.7589V91.8845C87.7338 90.1638 88.858 88.8668 90.1227 87.9934C91.3874 87.1201 92.7663 86.6878 94.277 86.6878C94.5404 86.6878 94.7337 86.6964 94.8566 86.7051C94.9796 86.7137 95.0938 86.7397 95.2079 86.7742V93.7349H94.8654C93.2669 93.7349 91.7914 94.124 90.4564 94.8936C89.1215 95.6631 88.0324 96.7526 87.2068 98.1621V115.473H79.9259Z" fill="white"/>
<path d="M115.531 112.178C113.704 113.571 112.062 114.548 110.604 115.127C109.146 115.706 107.644 116 106.099 116C103.288 116 101.18 115.239 99.7662 113.718C98.3522 112.196 97.6495 109.922 97.6495 106.878V87.1978H104.825V105.538C104.825 107.362 105.097 108.668 105.633 109.455C106.169 110.233 107.056 110.631 108.303 110.631C109.339 110.631 110.402 110.371 111.491 109.852C112.58 109.334 113.748 108.529 114.995 107.44V87.2065H122.118V115.481H115.531V112.178Z" fill="white"/>
<path d="M125.632 115.473V87.1977H132.245V90.4921C133.448 89.1951 134.757 88.2267 136.171 87.5955C137.585 86.9642 139.131 86.6443 140.808 86.6443C142.6 86.6443 144.102 86.9902 145.314 87.6733C146.526 88.3564 147.509 89.4199 148.265 90.8639C149.846 89.3853 151.409 88.3131 152.955 87.6473C154.501 86.9815 156.196 86.6443 158.04 86.6443C160.543 86.6443 162.519 87.2842 163.977 88.5639C165.426 89.8436 166.155 91.6076 166.155 93.8298V115.464H158.98V96.0001C158.98 94.7723 158.69 93.8211 158.119 93.1553C157.548 92.4895 156.731 92.1523 155.677 92.1523C154.562 92.1523 153.482 92.3944 152.41 92.8873C151.348 93.3802 150.311 94.1065 149.319 95.0749V115.473H142.31V96.7351C142.31 95.1528 142.055 93.9941 141.546 93.2591C141.037 92.5241 140.246 92.1523 139.175 92.1523C138.007 92.1523 136.865 92.4117 135.741 92.9305C134.616 93.4493 133.624 94.1843 132.763 95.1268V115.473H125.632Z" fill="white"/>
</g>
<g clip-path="url(#clip1)">
<path d="M8.37877 27.6263C6.53439 27.6263 5.68246 28.7849 4.86566 29.9004C4.1367 30.8947 3.45164 31.8286 2.10788 31.8286C1.31743 31.8286 0.465499 31.3962 0.465499 30.1684C0.465499 29.1135 1.04516 28.4563 2.15179 28.2575C2.18692 28.2488 2.20449 28.2229 2.20449 28.1969V28.1105C2.20449 28.0932 2.1957 28.0759 2.18692 28.0672C2.16936 28.0586 2.15179 28.0499 2.13422 28.0499C1.90587 28.0672 1.537 28.0672 1.30864 28.0672C0.930986 28.0672 0.65872 28.0586 0.316192 28.024C0.298627 28.024 0.272278 28.0326 0.263496 28.0413C0.24593 28.0586 0.24593 28.0759 0.24593 28.0932C0.263496 28.171 0.263496 28.2402 0.263496 28.3266C0.263496 28.5688 0.210799 28.8109 0.158102 29.0616C0.096623 29.3815 0.0175781 29.7447 0.0175781 30.203C0.0175781 31.7767 1.15934 32.8748 2.79293 32.8748C4.51435 32.8748 5.33115 31.7508 6.1216 30.6613C6.87692 29.6237 7.58832 28.6379 9.03748 28.6379C10.3988 28.6379 11.0136 29.5718 11.0136 30.497C11.0136 31.5692 10.3812 32.65 9.178 32.65C9.07261 32.65 8.976 32.6414 8.85304 32.6241L8.80034 32.6154C8.78278 32.6154 8.76521 32.6154 8.74765 32.6327C8.73008 32.6414 8.7213 32.6587 8.7213 32.6846V32.7538C8.7213 32.7797 8.73886 32.8057 8.76521 32.8143C9.15166 32.9786 9.61714 32.9873 9.74888 32.9873C9.9421 32.9873 10.1265 32.97 10.3022 32.9527C10.4691 32.9354 10.6272 32.9181 10.794 32.9181C10.9258 32.9181 11.1014 32.9181 11.1717 32.9354C11.198 32.9354 11.2156 32.9354 11.2332 32.9181C11.2507 32.9008 11.2507 32.8835 11.2507 32.8576C11.2332 32.7797 11.2332 32.7365 11.2332 32.6587C11.2332 32.356 11.2947 32.1053 11.3561 31.8286C11.4352 31.5087 11.523 31.1455 11.523 30.6267C11.523 28.8541 10.2319 27.6263 8.37877 27.6263Z" fill="#990000"/>
<path d="M0.491751 14.1288C0.491751 12.3649 1.90578 10.307 5.89315 10.307C9.06373 10.307 11.0311 11.7683 11.0311 14.1288C11.0311 16.4548 9.07251 17.8469 5.79654 17.8469C3.35493 17.8469 0.491751 16.8785 0.491751 14.1288ZM5.84924 19.3083C8.63338 19.3083 11.5229 17.3714 11.5229 14.1288C11.5229 11.1803 9.01103 8.86295 5.80532 8.86295C2.56448 8.86295 0.0262646 11.1284 0.0262646 14.0078C0.0174818 17.3281 2.98606 19.3083 5.84924 19.3083Z" fill="#990000"/>
<path d="M5.97255 5.56853V6.20839H0.676542C0.562366 5.79334 0.536018 5.52529 0.536018 5.21401C0.536018 3.84782 1.669 2.9572 3.42555 2.9572C4.51461 2.9572 5.97255 3.2339 5.97255 5.56853ZM11.5057 5.4907C11.4969 5.48206 11.4793 5.47341 11.453 5.47341H11.374C11.3388 5.47341 11.3125 5.49935 11.3037 5.52529C11.2159 6.01816 11.1895 6.20839 9.95115 6.20839H6.43804V5.33506C6.43804 5.17077 6.42047 4.9719 6.38534 4.73843C6.64882 4.48768 7.24605 4.18504 7.60615 4.01211L7.64128 3.99481C7.70276 3.96022 7.75545 3.93428 7.79937 3.91699C11.2686 2.17899 11.4706 1.98876 11.5408 0.432339C11.5408 0.250757 11.5408 0.190229 11.5233 0.0605275C11.5233 0.0259403 11.4881 0 11.453 0H11.3564C11.33 0 11.3037 0.0172936 11.2949 0.0432339C10.9787 0.890618 9.09043 1.87635 7.71154 2.59403H7.70276C6.92987 3.00043 6.31508 3.32036 6.06038 3.55383C5.5422 2.32598 4.47948 1.59101 3.21476 1.59101C1.28255 1.59101 0.0354004 2.97449 0.0354004 5.11889C0.0354004 5.26589 0.0441832 5.51664 0.0529659 5.77605V5.7847C0.0617487 6.07869 0.0705315 6.41591 0.0705315 6.64937C0.0705315 7.28923 0.0705315 7.55728 0.0354004 8.0588C0.0354004 8.07609 0.0441832 8.09338 0.0529659 8.10203C0.0617487 8.11068 0.0793142 8.11933 0.105663 8.11933H0.184707C0.219839 8.11933 0.246187 8.09338 0.25497 8.06744C0.334014 7.58323 0.544801 7.41894 1.60752 7.41894H9.96871C11.1983 7.41894 11.2334 7.60052 11.3213 8.10203C11.33 8.13662 11.3564 8.15391 11.3915 8.15391H11.4706C11.4881 8.15391 11.5057 8.14527 11.5233 8.13662C11.5408 8.11932 11.5408 8.10203 11.5408 8.09338C11.5233 7.79075 11.5057 7.3757 11.5057 6.82231C11.5057 6.23433 11.5233 5.73281 11.5408 5.55123C11.5233 5.52529 11.5145 5.508 11.5057 5.4907Z" fill="#990000"/>
<path d="M0.0526966 26.4335C0.342528 26.5027 0.597228 26.5719 0.816797 26.6238C1.10663 26.7016 1.37889 26.7794 1.66873 26.8313C1.67751 26.8313 1.67751 26.8313 1.68629 26.8313C1.70386 26.8313 1.71264 26.8226 1.73021 26.814C1.74777 26.8053 1.75655 26.7794 1.75655 26.7621V26.6929C1.75655 26.667 1.73899 26.6497 1.72142 26.6324C0.764101 26.2087 0.764101 25.5429 0.764101 23.3293H9.95966C11.198 23.3293 11.2332 23.5109 11.3122 24.0038C11.321 24.0384 11.3473 24.0557 11.3825 24.0557H11.4615C11.4791 24.0557 11.4966 24.047 11.5142 24.0384C11.523 24.0297 11.5318 24.0124 11.5318 23.9951C11.5142 23.7011 11.4966 23.2861 11.4966 22.7327C11.4966 22.1361 11.5142 21.6519 11.5318 21.4703C11.5318 21.453 11.523 21.4357 11.5142 21.427C11.5054 21.4184 11.4879 21.4097 11.4615 21.4097H11.3825C11.3473 21.4097 11.321 21.4357 11.3122 21.4616C11.2244 21.9545 11.198 22.1361 9.95966 22.1361H0.755318C0.755318 20.8045 0.790449 20.13 0.860711 19.7409C0.939756 19.3432 1.0715 19.2567 1.26472 19.2567C1.33498 19.2567 1.43159 19.274 1.48429 19.2826C1.50185 19.2913 1.5282 19.2826 1.54577 19.274C1.56333 19.2653 1.57212 19.2394 1.57212 19.2221V19.1356C1.57212 19.1011 1.54577 19.0751 1.51942 19.0751C1.2735 19.0319 0.526966 18.8676 0.105393 18.7465C0.0878277 18.7379 0.0614794 18.7465 0.0439138 18.7552C0.00878277 18.7638 0 18.7811 0 18.7984C0.0175655 19.4988 0.0790449 23.1391 0 26.373C0 26.3989 0.0175655 26.4249 0.0526966 26.4335Z" fill="#990000"/>
<path d="M8.15919 34.6911H1.51942C0.386442 34.6911 0.333745 34.4404 0.219569 33.9475L0.210786 33.9216C0.202004 33.8956 0.175655 33.8697 0.140524 33.8697H0.0702621C0.0526966 33.8697 0.0351311 33.8783 0.0175655 33.887C0.00878277 33.8956 0 33.9129 0 33.9302C0.0175655 34.2156 0.0263483 34.7776 0.0263483 35.2618C0.0263483 35.772 0.00878277 36.3513 0 36.654C0 36.6712 0.00878277 36.6885 0.0175655 36.6972C0.0263483 36.7058 0.0439138 36.7145 0.0702621 36.7145H0.149307C0.184438 36.7145 0.210786 36.6885 0.219569 36.6626C0.307397 36.1697 0.360093 35.8412 1.5282 35.8412H8.34363C9.61713 35.8412 10.996 36.4118 10.996 37.3198C10.996 37.4927 10.9785 37.6483 10.9521 37.804C10.7852 38.4438 10.3022 38.8416 9.95966 39.0837C9.91574 39.1096 9.87183 39.1442 9.81035 39.1788C9.38878 39.4469 9.01112 39.5679 9.00234 39.5679C8.95842 39.5852 8.94086 39.6198 8.94964 39.663C8.95842 39.6976 8.99355 39.7236 9.03747 39.7236H9.04625L10.8379 39.5074C10.8643 39.5074 10.8906 39.4901 10.9082 39.4728C11.3122 38.8935 11.4439 38.1758 11.4703 37.9856V37.9769C11.5142 37.7348 11.5142 37.5359 11.5142 37.4149C11.5142 37.3198 11.5054 37.2679 11.5054 37.2592C11.5054 35.7287 10.1617 34.6911 8.15919 34.6911Z" fill="#990000"/>
<path d="M16.5994 39.4728V0.233734H43.1585V6.61506H24.5917V15.8325H38.6353V22.2138H24.5917V39.4728H16.5994Z" fill="black"/>
<path d="M47.0405 25.3179C47.0405 28.3183 47.5235 30.5665 48.4808 32.0537C49.4382 33.541 50.8698 34.2846 52.7756 34.2846C54.699 34.2846 56.1306 33.5496 57.088 32.071C58.0365 30.5924 58.5108 28.3443 58.5108 25.3266C58.5108 22.3261 58.0365 20.0953 57.0967 18.6339C56.157 17.1726 54.7166 16.4463 52.7756 16.4463C50.8522 16.4463 49.4206 17.1813 48.4633 18.6599C47.5147 20.1298 47.0405 22.3521 47.0405 25.3179ZM39.8035 25.3179C39.8035 20.7178 40.9452 17.1208 43.2375 14.5267C45.5298 11.9327 48.7004 10.6443 52.7756 10.6443C56.842 10.6443 60.0214 11.9413 62.3137 14.5267C64.606 17.1208 65.7478 20.7178 65.7478 25.3179C65.7478 29.918 64.5972 33.5151 62.3049 36.1091C60.0038 38.7031 56.8333 40.0001 52.7844 40.0001C48.7355 40.0001 45.565 38.7031 43.2639 36.1004C40.954 33.4978 39.8035 29.9093 39.8035 25.3179Z" fill="black"/>
<path d="M67.9259 39.4729V11.1979H74.7589V15.8845C75.7338 14.1638 76.858 12.8668 78.1227 11.9934C79.3874 11.1201 80.7663 10.6878 82.277 10.6878C82.5404 10.6878 82.7337 10.6964 82.8566 10.7051C82.9796 10.7137 83.0938 10.7397 83.2079 10.7742V17.7349H82.8654C81.2669 17.7349 79.7914 18.124 78.4564 18.8936C77.1215 19.6631 76.0324 20.7526 75.2068 22.1621V39.4729H67.9259Z" fill="black"/>
<path d="M103.531 36.1784C101.704 37.5705 100.062 38.5476 98.6041 39.1269C97.1462 39.7063 95.6443 40.0003 94.0986 40.0003C91.2881 40.0003 89.1802 39.2394 87.7662 37.7175C86.3522 36.1957 85.6495 33.9216 85.6495 30.8779V11.1978H92.8251V29.5377C92.8251 31.3621 93.0973 32.6678 93.6331 33.4547C94.1688 34.2329 95.0559 34.6306 96.303 34.6306C97.3394 34.6306 98.4021 34.3712 99.4912 33.8524C100.58 33.3336 101.748 32.5295 102.995 31.44V11.2065H110.118V39.4815H103.531V36.1784Z" fill="black"/>
<path d="M113.632 39.4727V11.1977H120.245V14.4921C121.448 13.1951 122.757 12.2267 124.171 11.5955C125.585 10.9642 127.131 10.6443 128.808 10.6443C130.6 10.6443 132.102 10.9902 133.314 11.6733C134.526 12.3564 135.509 13.4199 136.265 14.8639C137.846 13.3853 139.409 12.3131 140.955 11.6473C142.501 10.9815 144.196 10.6443 146.04 10.6443C148.543 10.6443 150.519 11.2842 151.977 12.5639C153.426 13.8436 154.155 15.6076 154.155 17.8298V39.464H146.98V20.0001C146.98 18.7723 146.69 17.8211 146.119 17.1553C145.548 16.4895 144.731 16.1523 143.677 16.1523C142.562 16.1523 141.482 16.3944 140.41 16.8873C139.348 17.3802 138.311 18.1065 137.319 19.0749V39.4727H130.31V20.7351C130.31 19.1528 130.055 17.9941 129.546 17.2591C129.037 16.5241 128.246 16.1523 127.175 16.1523C126.007 16.1523 124.865 16.4117 123.741 16.9305C122.616 17.4493 121.624 18.1843 120.763 19.1268V39.4727H113.632Z" fill="black"/>
</g>
<defs>
<clipPath id="clip0">
<rect width="154.146" height="40" fill="white" transform="translate(12 76)"/>
</clipPath>
<clipPath id="clip1">
<rect width="154.146" height="40" fill="white"/>
</clipPath>
</defs>
</svg>
