<svg width="246" height="132" viewBox="0 0 246 132" fill="none" xmlns="http://www.w3.org/2000/svg">
<path d="M194.363 10H135.169V65.7647H194.363V10Z" fill="black"/>
<path d="M221.79 10H197.311V65.7647H221.79V10Z" fill="black"/>
<path d="M221.79 68.7104H174.946V96.6623H221.79V68.7104Z" fill="black"/>
<path d="M172.026 68.7104H135.141V96.6623H172.026V68.7104Z" fill="black"/>
<path d="M179.119 118.196C176.894 116.667 174.807 115.25 174.807 112.444C174.807 110.777 175.781 109.027 178.535 109.027C180.899 109.027 182.374 110.249 182.819 112.527C182.819 112.583 182.874 112.611 182.93 112.611H183.125C183.152 112.611 183.18 112.611 183.208 112.583C183.236 112.555 183.236 112.527 183.236 112.5C183.208 112.027 183.208 111.249 183.208 110.777C183.208 109.888 183.236 109.332 183.291 108.721C183.291 108.693 183.291 108.665 183.264 108.638C183.236 108.61 183.208 108.61 183.18 108.61C183.013 108.638 182.846 108.638 182.652 108.638C182.095 108.638 181.567 108.526 181.01 108.415C180.287 108.276 179.481 108.137 178.479 108.137C174.974 108.137 172.554 110.499 172.554 113.861C172.554 117.418 175.058 119.113 177.478 120.752C179.814 122.336 181.984 123.808 181.984 126.809C181.984 129.643 179.898 130.921 177.812 130.921C175.419 130.921 172.971 129.615 172.971 127.087C172.971 126.865 172.999 126.642 173.027 126.42V126.337C173.027 126.309 173.027 126.281 172.999 126.253C172.971 126.226 172.944 126.226 172.916 126.226H172.749C172.693 126.226 172.665 126.253 172.638 126.281C172.276 127.087 172.248 128.032 172.248 128.309C172.248 128.726 172.276 129.087 172.332 129.449C172.36 129.81 172.415 130.115 172.415 130.477C172.415 130.755 172.415 131.116 172.387 131.282C172.387 131.31 172.387 131.366 172.415 131.394C172.443 131.421 172.471 131.421 172.526 131.421C172.693 131.394 172.805 131.394 172.971 131.394C173.639 131.394 174.223 131.533 174.807 131.644C175.531 131.81 176.337 131.977 177.478 131.977C181.4 131.977 184.126 129.31 184.126 125.503C184.182 121.641 181.622 119.891 179.119 118.196Z" fill="black"/>
<path d="M214.029 108.166C206.686 108.166 202.29 114.306 202.29 120.224C202.29 126.004 206.574 131.95 213.779 131.95C220.316 131.95 225.462 126.754 225.462 120.113C225.434 113.417 220.427 108.166 214.029 108.166ZM222.291 120.308C222.291 126.893 219.036 131.005 213.751 131.005C208.549 131.005 205.434 126.948 205.434 120.141C205.434 115.056 207.603 109.11 213.751 109.11C217.701 109.083 222.291 112.028 222.291 120.308Z" fill="black"/>
<path d="M154.334 131.504C152.443 130.865 150.217 126.92 148.604 124.058C147.714 122.474 147.018 121.224 146.49 120.668C149.299 119.612 150.996 117.417 150.996 114.75C150.996 110.749 147.908 108.193 143.152 108.193C142.818 108.193 142.289 108.193 141.677 108.22C141.01 108.248 140.259 108.248 139.73 108.248C138.284 108.248 137.7 108.248 136.587 108.193C136.559 108.193 136.531 108.193 136.504 108.22C136.476 108.248 136.476 108.276 136.476 108.304V108.47C136.476 108.526 136.504 108.582 136.559 108.582C137.672 108.748 138.034 109.193 138.034 111.416V128.754C138.034 131.338 137.616 131.393 136.476 131.588C136.42 131.588 136.392 131.643 136.392 131.699V131.865C136.392 131.893 136.392 131.921 136.42 131.949C136.448 131.977 136.476 131.977 136.504 131.977C137.171 131.949 138.089 131.921 139.341 131.921C140.676 131.921 141.789 131.977 142.178 131.977C142.206 131.977 142.234 131.977 142.262 131.949C142.289 131.921 142.289 131.893 142.289 131.865V131.699C142.289 131.643 142.262 131.588 142.206 131.588C141.093 131.421 140.648 131.338 140.648 128.754V121.418H142.623C142.957 121.418 143.374 121.39 143.847 121.307C144.404 121.863 145.043 123.058 145.461 123.836C145.544 123.974 145.627 124.113 145.683 124.225C149.522 131.393 149.967 131.838 153.416 131.977C153.806 131.977 153.945 131.977 154.251 131.949C154.306 131.949 154.362 131.893 154.362 131.838V131.643C154.39 131.56 154.362 131.504 154.334 131.504ZM148.02 115.167C148.02 117.445 147.408 120.474 142.178 120.474H140.704V109.443C141.65 109.193 142.262 109.137 142.957 109.137C146.017 109.137 148.02 111.499 148.02 115.167Z" fill="black"/>
<path d="M245.045 131.478C243.153 130.839 240.956 126.921 239.342 124.06C238.452 122.448 237.701 121.17 237.2 120.642C239.926 119.586 241.568 117.391 241.568 114.779C241.568 110.806 238.508 108.222 233.751 108.222C233.417 108.222 232.889 108.222 232.305 108.25C231.637 108.278 230.886 108.278 230.357 108.278C228.939 108.278 228.327 108.278 227.214 108.222C227.186 108.222 227.159 108.222 227.131 108.25C227.103 108.278 227.103 108.305 227.103 108.333V108.5C227.103 108.555 227.131 108.611 227.186 108.611C228.299 108.778 228.661 109.222 228.661 111.445V128.755C228.661 131.339 228.243 131.395 227.131 131.589C227.075 131.589 227.047 131.645 227.047 131.7V131.867C227.047 131.895 227.047 131.923 227.075 131.95C227.103 131.978 227.131 131.978 227.159 131.978C227.826 131.95 228.744 131.923 229.996 131.923C231.331 131.923 232.416 131.978 232.833 131.978C232.861 131.978 232.889 131.978 232.917 131.95C232.944 131.923 232.944 131.895 232.944 131.867V131.7C232.944 131.645 232.917 131.589 232.861 131.589C231.748 131.423 231.331 131.339 231.331 128.755V121.42H233.306C233.668 121.42 234.141 121.392 234.669 121.309C235.225 121.864 235.865 123.031 236.282 123.837C236.366 124.004 236.449 124.143 236.505 124.254C240.344 131.423 240.761 131.839 244.21 131.978C244.6 131.978 244.739 131.978 245.045 131.95C245.1 131.95 245.156 131.895 245.156 131.839V131.645C245.128 131.534 245.1 131.506 245.045 131.478ZM238.591 115.196C238.591 117.474 237.979 120.503 232.75 120.503H231.303V109.472C232.221 109.222 232.861 109.167 233.556 109.167C236.588 109.194 238.591 111.556 238.591 115.196Z" fill="black"/>
<path d="M170.774 108.137C169.244 108.165 161.205 108.304 153.889 108.137C153.861 108.137 153.778 108.165 153.778 108.221C153.639 108.804 153.472 109.332 153.333 109.805C153.166 110.416 152.999 110.972 152.888 111.555C152.888 111.583 152.888 111.611 152.915 111.638C152.943 111.666 152.971 111.666 152.999 111.666H153.166C153.221 111.666 153.249 111.638 153.277 111.611C154.223 109.61 155.725 109.61 160.704 109.61V128.671C160.704 131.255 160.287 131.31 159.174 131.505C159.119 131.505 159.091 131.56 159.091 131.616V131.783C159.091 131.81 159.091 131.838 159.119 131.866C159.146 131.894 159.174 131.894 159.202 131.894C159.925 131.866 160.815 131.838 162.012 131.838C163.291 131.838 164.404 131.894 164.821 131.894C164.849 131.894 164.877 131.894 164.904 131.866C164.932 131.838 164.932 131.81 164.932 131.783V131.616C164.932 131.56 164.904 131.505 164.849 131.505C163.736 131.338 163.319 131.255 163.319 128.671V109.61C169.021 109.61 169.772 109.832 169.772 110.694C169.772 110.86 169.745 111.027 169.717 111.138C169.717 111.166 169.717 111.194 169.745 111.222C169.772 111.249 169.8 111.277 169.828 111.277H170.023C170.078 111.277 170.134 111.249 170.134 111.194C170.217 110.694 170.607 109.138 170.885 108.249C170.885 108.221 170.885 108.165 170.857 108.137C170.857 108.165 170.802 108.137 170.774 108.137Z" fill="black"/>
<path d="M202.958 108.193C202.931 108.165 202.903 108.137 202.875 108.137C201.317 108.165 193.25 108.304 186.018 108.137C185.962 108.137 185.935 108.165 185.907 108.221C185.768 108.804 185.601 109.332 185.462 109.805C185.295 110.416 185.128 110.972 185.017 111.555C185.017 111.583 185.017 111.611 185.044 111.638C185.072 111.666 185.1 111.666 185.128 111.666H185.295C185.35 111.666 185.378 111.638 185.406 111.611C186.352 109.61 187.854 109.61 192.833 109.61V128.671C192.833 131.255 192.416 131.31 191.303 131.505C191.247 131.505 191.22 131.56 191.22 131.616V131.783C191.22 131.81 191.22 131.838 191.248 131.866C191.275 131.894 191.303 131.894 191.331 131.894C192.054 131.866 192.944 131.838 194.14 131.838C195.42 131.838 196.533 131.894 196.95 131.894C196.978 131.894 197.006 131.894 197.033 131.866C197.061 131.838 197.061 131.81 197.061 131.783V131.616C197.061 131.56 197.033 131.505 196.978 131.505C195.865 131.338 195.448 131.255 195.448 128.671V109.61C201.15 109.61 201.901 109.832 201.901 110.694C201.901 110.86 201.873 111.027 201.846 111.138C201.846 111.166 201.846 111.194 201.873 111.222C201.901 111.249 201.929 111.277 201.957 111.277H202.152C202.207 111.277 202.263 111.249 202.263 111.194C202.346 110.694 202.708 109.138 203.014 108.249C202.986 108.276 202.986 108.249 202.958 108.193Z" fill="black"/>
<path d="M135.308 131.532C134.501 131.421 134.167 131.282 133.833 130.671L125.321 108.137C125.294 108.082 125.266 108.054 125.21 108.054H124.876C124.821 108.054 124.793 108.082 124.765 108.137L117.533 127.226C116.142 130.921 115.613 131.199 114.083 131.56C114.028 131.56 114 131.616 114 131.671V131.838C114 131.866 114 131.894 114.028 131.921C114.056 131.949 114.083 131.949 114.111 131.949L114.445 131.921C114.946 131.894 115.391 131.866 116.281 131.866C117.672 131.866 118.812 131.921 119.257 131.921C119.285 131.921 119.313 131.921 119.341 131.894C119.369 131.866 119.369 131.838 119.369 131.81V131.643C119.369 131.588 119.313 131.532 119.257 131.532C118.339 131.421 117.894 131.004 117.894 130.226C117.894 129.643 118.173 128.837 118.423 128.087L120.314 123.002C121.399 122.975 122.484 122.975 123.625 122.975H128.075L130.857 130.338C130.885 130.393 130.885 130.477 130.885 130.504C130.885 130.893 130.746 131.449 129.577 131.505C129.522 131.505 129.466 131.56 129.466 131.616V131.782C129.466 131.81 129.466 131.838 129.494 131.866C129.522 131.894 129.55 131.894 129.577 131.894C130.523 131.838 131.469 131.838 132.415 131.838C133.722 131.838 134.807 131.894 135.196 131.894C135.224 131.894 135.252 131.894 135.28 131.866C135.308 131.838 135.308 131.81 135.308 131.782V131.616C135.391 131.588 135.363 131.56 135.308 131.532ZM127.686 121.835H123.652C122.679 121.835 121.733 121.835 120.759 121.808L124.153 112.666L124.181 112.583L127.686 121.835Z" fill="black"/>
<path d="M22.555 118.193C20.3123 116.69 18.1986 115.263 18.1986 112.461C18.1986 110.805 19.1781 109.047 21.9363 109.047C24.3078 109.047 25.8029 110.27 26.2669 112.563C26.2669 112.613 26.3184 112.664 26.37 112.664H26.5504C26.5762 112.664 26.602 112.664 26.6278 112.639C26.6535 112.613 26.6535 112.588 26.6535 112.563C26.6278 112.104 26.6278 111.314 26.6278 110.856C26.6278 110.066 26.6536 109.506 26.7309 108.792C26.7309 108.767 26.7309 108.716 26.7051 108.69C26.6793 108.665 26.6536 108.665 26.602 108.665C26.4216 108.69 26.2669 108.69 26.0865 108.69C25.5451 108.69 25.0038 108.588 24.4367 108.487C23.7149 108.359 22.9158 108.206 21.8848 108.206C18.379 108.206 15.9044 110.55 15.9044 113.913C15.9044 117.454 18.4306 119.135 20.8537 120.791C23.1994 122.37 25.3905 123.848 25.3905 126.854C25.3905 129.682 23.2767 130.956 21.1888 130.956C18.7657 130.956 16.3426 129.631 16.3426 127.134C16.3426 126.93 16.3684 126.701 16.3942 126.472V126.37C16.3942 126.345 16.3942 126.294 16.3684 126.294C16.3426 126.268 16.3169 126.268 16.2911 126.268H16.188C16.1364 126.268 16.1106 126.294 16.0849 126.345C15.724 127.134 15.6982 128.077 15.6982 128.357C15.6982 128.765 15.7498 129.147 15.7755 129.503C15.8271 129.86 15.8529 130.166 15.8529 130.522C15.8529 130.803 15.8529 131.159 15.8271 131.312C15.8271 131.338 15.8271 131.389 15.8529 131.414C15.8786 131.44 15.9044 131.44 15.956 131.44C16.1364 131.414 16.2138 131.414 16.42 131.414C17.116 131.414 17.6831 131.541 18.2759 131.669C18.9977 131.822 19.8226 132 20.9825 132C24.9265 132 27.6846 129.351 27.6846 125.529C27.6589 121.632 25.0554 119.899 22.555 118.193Z" fill="#990000"/>
<path d="M66.7633 120.307C66.7633 126.879 63.4638 130.955 58.1537 130.955C52.8951 130.955 49.7761 126.905 49.7761 120.103C49.7761 115.033 51.9671 109.098 58.1537 109.098C62.1492 109.098 66.7633 112.027 66.7633 120.307ZM58.4372 108.181C51.0134 108.181 46.6055 114.295 46.6055 120.205C46.6055 125.962 50.936 131.898 58.1795 131.898C64.7785 131.898 69.9597 126.727 69.9597 120.103C69.9339 113.429 64.8816 108.181 58.4372 108.181Z" fill="#990000"/>
<path d="M83.8536 115.186C83.8536 117.454 83.235 120.485 77.9764 120.485H76.5071V109.48C77.4351 109.225 78.0537 109.174 78.7755 109.174C81.843 109.2 83.8536 111.544 83.8536 115.186ZM90.3495 131.49C88.442 130.854 86.2251 126.93 84.6012 124.077C83.6732 122.447 82.9514 121.148 82.4101 120.638C85.1683 119.568 86.818 117.403 86.818 114.779C86.818 110.805 83.7247 108.232 78.9301 108.232C78.595 108.232 78.0537 108.257 77.4608 108.257C76.7906 108.283 76.0431 108.283 75.5018 108.283C74.0582 108.283 73.4654 108.283 72.3569 108.206C72.3312 108.206 72.3054 108.206 72.2796 108.232C72.2538 108.257 72.2538 108.283 72.2538 108.308V108.461C72.2538 108.512 72.3054 108.563 72.3569 108.563C73.4654 108.741 73.852 109.174 73.852 111.391V128.714C73.852 131.287 73.4396 131.363 72.3054 131.541C72.2538 131.541 72.2023 131.592 72.2023 131.643V131.796C72.2023 131.822 72.2023 131.847 72.2281 131.873C72.2538 131.898 72.2796 131.898 72.3054 131.898C72.9756 131.873 73.9036 131.822 75.1667 131.822C76.5071 131.822 77.6155 131.873 78.0279 131.898C78.0537 131.898 78.0795 131.898 78.1053 131.873C78.1311 131.847 78.1311 131.822 78.1311 131.796V131.643C78.1311 131.592 78.0795 131.541 78.0279 131.541C76.8937 131.363 76.4813 131.287 76.4813 128.714V121.402H78.4662C78.827 121.402 79.291 121.351 79.8066 121.275C80.3737 121.81 81.0439 123.058 81.4563 123.822C81.5337 123.975 81.611 124.128 81.6883 124.23C85.5549 131.389 85.9673 131.822 89.4473 131.949C89.8339 131.949 89.9886 131.949 90.2722 131.924C90.3237 131.924 90.3753 131.873 90.3753 131.822V131.618C90.4268 131.567 90.401 131.516 90.3495 131.49Z" fill="#990000"/>
<path d="M46.8375 108.18C46.8117 108.155 46.7859 108.129 46.7344 108.129C45.1878 108.155 37.0421 108.282 29.7472 108.129C29.6956 108.129 29.644 108.155 29.644 108.206C29.4894 108.792 29.3605 109.301 29.2058 109.785C29.0254 110.397 28.8707 110.957 28.7418 111.543C28.7418 111.569 28.7418 111.62 28.7676 111.645C28.7934 111.671 28.8192 111.696 28.845 111.696H28.9996C29.0512 111.696 29.077 111.671 29.1027 111.62C30.0565 109.632 31.5773 109.607 36.5781 109.607V128.662C36.5781 131.235 36.1657 131.312 35.0315 131.49C34.9799 131.49 34.9284 131.541 34.9284 131.592V131.745C34.9284 131.77 34.9284 131.796 34.9542 131.821C34.9799 131.847 35.0057 131.847 35.0315 131.847C35.6759 131.821 36.6039 131.77 37.867 131.77C39.2074 131.77 40.2901 131.821 40.7025 131.847C40.7283 131.847 40.7541 131.847 40.7798 131.821C40.8056 131.796 40.8056 131.77 40.8056 131.745V131.592C40.8056 131.541 40.7541 131.49 40.7025 131.49C39.5941 131.312 39.1559 131.235 39.1559 128.662V109.607C44.9042 109.607 45.6775 109.836 45.6775 110.702C45.6775 110.855 45.6517 111.059 45.626 111.161C45.626 111.186 45.626 111.237 45.6517 111.263C45.6775 111.288 45.7033 111.314 45.7291 111.314H45.9353C45.9869 111.314 46.0384 111.263 46.0384 111.212C46.1415 110.702 46.5024 109.148 46.7859 108.282C46.8633 108.257 46.8633 108.206 46.8375 108.18Z" fill="#990000"/>
<path d="M12.9402 108.155C12.2958 108.181 11.0327 108.206 9.95003 108.206C8.79005 108.206 7.50119 108.181 6.83098 108.155C6.8052 108.155 6.77942 108.155 6.75365 108.181C6.72787 108.206 6.72787 108.232 6.72787 108.257V108.41C6.72787 108.461 6.77942 108.512 6.83098 108.512C7.96518 108.69 8.71272 108.817 8.71272 111.238V125.325C8.71272 127.975 7.42386 130.853 5.36167 130.853C4.97501 130.853 4.61413 130.828 4.27903 130.777C2.8355 130.42 1.9333 129.427 1.39197 128.713C1.31464 128.612 1.23731 128.51 1.18575 128.408C0.592878 127.516 0.309327 126.752 0.309327 126.726C0.28355 126.65 0.206218 126.624 0.128886 126.624C0.0515546 126.65 0 126.701 0 126.803L0.489768 130.497C0.489768 130.548 0.515546 130.599 0.5671 130.624C1.9333 131.49 3.60882 131.745 3.91815 131.77C4.45947 131.847 4.89768 131.872 5.15546 131.872C5.36167 131.872 5.49056 131.872 5.49056 131.872C8.94472 131.872 11.2647 129.096 11.2647 124.969V111.238C11.2647 108.868 11.8318 108.766 12.966 108.512L13.0175 108.486C13.0691 108.486 13.0949 108.435 13.0949 108.384V108.232C13.0949 108.206 13.0949 108.181 13.0691 108.155C12.9917 108.155 12.966 108.155 12.9402 108.155Z" fill="#990000"/>
<path d="M84.0082 48.5947C83.2349 49.1042 82.41 49.1806 82.3843 49.1806C82.3585 49.1806 82.3327 49.2061 82.3327 49.2315C82.3327 49.257 82.3327 49.2825 82.3585 49.308C82.3843 49.3334 84.4722 51.1167 84.6785 53.5368C84.9105 56.0079 84.5238 57.3835 83.2607 58.5554C82.2554 59.498 80.7861 59.6253 80.2448 59.498C80.1159 59.4725 80.0901 59.447 80.0901 59.4215C80.0128 59.1158 80.4768 58.7847 81.0439 58.4025C81.1727 58.3261 81.3016 58.2242 81.4305 58.1478C82.1523 57.6383 82.5389 56.7976 82.3069 56.3391C82.2296 56.1862 82.1007 56.1607 81.9461 56.1607C81.8172 56.1607 81.6883 56.2117 81.5336 56.2626C81.2501 56.3391 80.9408 56.441 80.7861 56.2626C80.6056 56.0843 80.683 55.9315 80.8376 55.6258C80.9665 55.371 81.1212 55.0653 81.147 54.6322C81.2243 53.6897 81.0954 51.2186 79.755 50.9384C79.7034 50.9384 79.6519 50.9384 79.6003 50.9638C79.4714 51.0657 79.4714 51.3714 79.4714 51.8555C79.4714 52.4923 79.4457 53.333 79.0848 53.8935C78.5177 54.7596 77.6155 55.422 77.203 55.422C77.0999 55.422 77.0484 55.3965 76.9968 55.3455C76.9453 55.2691 76.971 55.0653 77.0484 54.7596C77.203 54.0463 77.4608 52.7216 77.0742 50.2505C76.9453 49.3844 76.4039 48.4418 75.9142 47.5502C75.4244 46.684 74.9604 45.8433 74.8573 45.1301C74.6769 43.8053 74.8315 43.2449 75.5791 42.6844C76.0173 42.3533 76.0946 42.0476 76.0946 41.8438C76.0946 41.64 75.9915 41.2578 75.6306 41.1305C75.6049 41.1305 75.6049 41.1305 75.5791 41.105C75.3986 41.054 75.0893 41.0286 74.7542 41.0286C73.3364 41.054 70.0112 41.0795 67.6655 37.9206C65.7579 35.3731 65.629 32.9785 65.9899 30.1507V30.1253C65.9899 30.0743 65.7837 29.0298 64.8815 28.2146C64.4433 27.8325 64.0051 27.6032 63.6957 27.4504C63.5153 27.3485 63.3091 27.2721 63.3091 27.1956C63.3091 27.1956 63.3091 27.1447 63.3606 27.1192C63.5926 26.8899 64.3917 26.5588 65.5002 26.7116C66.325 26.839 66.9179 27.1702 66.9179 27.1702C66.9437 27.1956 66.9695 27.1702 66.9952 27.1447C67.021 27.1192 69.1863 24.5972 72.7951 24.8774C74.9604 25.0303 77.0226 27.1192 77.0742 29.3865C77.1257 31.6538 76.0688 32.8511 75.1409 33.1568C74.3933 33.4115 73.6973 33.3861 73.2849 33.1058C73.1045 32.9785 72.9756 32.8001 72.9756 32.5963C72.9756 32.418 73.1302 32.3161 73.4396 32.1633C73.9551 31.9085 74.7542 31.5009 74.8573 30.0743C74.9089 29.3355 74.6511 28.5968 74.1613 28.0873C73.8262 27.7306 73.2333 27.2975 72.2538 27.3485C70.9907 27.3994 69.9596 27.8835 69.2636 28.7751C68.3872 29.896 68.0779 31.6538 68.413 33.6663C68.9028 36.5959 71.764 38.6339 74.9089 38.3027C76.7648 38.1244 78.4919 37.0799 79.8065 35.3986C81.0439 33.8191 81.7656 31.7811 81.7914 29.8196C81.8429 24.9284 78.9817 19.8843 72.4342 19.6296C66.1704 19.4003 62.278 23.247 60.4994 25.5398C59.3909 26.9664 58.231 29.6922 57.3803 31.9085C57.767 31.8321 58.9785 31.6792 60.0611 32.2142C61.1696 32.7492 62.4584 34.0739 62.2264 34.6343C62.1749 34.7872 61.8398 34.7108 61.35 34.5834C60.7056 34.4051 59.8034 34.456 58.7981 34.6089C57.071 34.8381 56.375 35.1693 56.1688 35.3476L56.2719 35.0419C56.2203 35.2203 56.1688 35.3476 56.1688 35.3476L53.823 33.921C54.1581 32.469 55.6532 26.3804 59.3909 22.3809C63.2318 18.2794 67.8459 16.9292 71.9187 16.9037C74.1356 16.8783 76.172 17.2094 77.8475 17.5916C78.0537 17.6425 78.2341 17.668 78.4146 17.7189C80.0128 18.0756 81.6883 18.4068 82.874 18.1011C83.5185 17.9482 84.0598 17.6935 84.4722 17.4897C84.73 17.3623 84.9878 17.2349 85.0393 17.2604C85.0393 17.2604 85.0651 17.2859 85.0651 17.3113C85.1167 17.5661 84.8847 18.3813 84.1371 19.3748C83.6731 20.0117 83.0803 20.3683 82.6678 20.6486C82.2812 20.8778 82.0234 21.0562 82.0234 21.3109C82.0234 21.4383 82.1523 21.6676 82.3843 22.0752C83.106 23.3489 84.6011 26.0238 84.4207 29.7941C84.1371 35.5769 81.3532 38.048 79.4972 39.7039L79.2652 39.9077H79.2394C78.0021 41.3088 78.1568 42.608 78.5177 43.4232C79.059 44.6715 80.2448 45.716 81.7656 46.251C82.642 46.5567 83.5958 46.6586 84.2918 46.735C84.8073 46.7859 85.3229 46.8369 85.3744 46.9643C85.5549 47.3719 85.0651 47.9323 84.0082 48.5947ZM84.2402 68.5925C83.6731 71.8788 81.7914 73.2799 80.1932 73.4837C80.0643 73.5092 79.9354 73.5092 79.8323 73.5092C79.3683 73.5092 79.0074 73.3818 78.9043 73.178C78.8786 73.1016 78.8528 73.0252 78.8786 72.9488C78.9301 72.8214 79.1106 72.745 79.3683 72.6685C79.6777 72.5666 80.1159 72.3883 80.5799 72.0317C81.9461 70.9617 81.8687 70.5032 81.8172 70.1465C81.8172 70.0956 81.7914 70.0701 81.7656 70.0701C81.6883 70.0191 81.4821 70.121 81.2501 70.2484L81.147 70.2994C80.8376 70.4522 80.5541 70.4777 80.3221 70.3758C80.1932 70.2994 80.1159 70.1975 80.0901 70.0701C80.0643 69.9172 80.2448 69.7644 80.451 69.5606C80.6314 69.4077 80.8376 69.2294 80.9665 69.0256C81.6625 67.9557 81.7914 66.6564 81.2501 65.6374C80.8634 64.8732 80.2963 64.1599 78.6208 64.007C78.595 64.007 78.5435 64.007 78.5177 64.007H78.4661C78.2599 64.007 78.0279 64.0325 77.7701 64.0835C75.9142 64.4401 74.6769 65.6629 73.852 66.9621C73.852 66.9876 73.8262 67.0131 73.8262 67.0131C72.692 68.669 72.4085 71.2165 72.3311 71.7005V71.726C71.9702 74.0442 71.1969 77.4833 66.2735 83.5209C65.7064 84.2087 65.2682 85.2023 65.5517 86.3232C66.0673 88.2593 67.949 88.4376 67.9232 88.6414C67.8974 88.9216 67.5108 88.9216 66.8148 88.8707C66.1188 88.8197 65.861 88.5904 65.861 88.5904C65.861 88.5904 65.6806 89.0235 66.8406 89.8642C67.717 90.5011 68.7223 90.4756 68.7481 90.7558C68.7739 91.087 63.3091 92.3353 62.974 86.8836C62.974 86.7562 62.9482 86.6289 62.9482 86.5015C57.0452 91.8512 55.3181 92.106 54.8799 91.5455C54.6737 91.2653 55.2408 91.3417 56.375 90.068C57.535 88.7688 57.5607 88.1828 57.5607 88.1828C57.5607 88.1828 55.2666 89.4056 52.5857 89.1764C49.8533 88.9216 47.5592 87.0365 47.7654 86.2977C47.92 85.6608 49.544 86.7562 51.5031 86.4505C53.3075 86.1703 53.4622 85.457 53.4622 85.457C53.4622 85.457 53.1013 85.457 52.5084 84.8456C51.9155 84.2342 51.0391 83.7247 51.5289 83.2152C51.8124 82.9095 53.1786 83.5209 54.519 83.5464C56.2203 83.5464 57.303 83.1643 57.303 83.1643C57.303 83.1643 56.607 82.9095 55.8852 82.2217C55.1635 81.5084 55.0088 80.7951 55.215 80.6168C55.3439 80.5149 55.6275 81.0753 56.5812 81.0753C57.6896 81.0498 57.8185 80.7951 57.8185 80.7951C57.8185 80.7951 57.3545 80.362 57.1225 79.9544C56.9163 79.5213 56.2461 78.2985 56.6585 77.84C56.7874 77.6871 58.0505 79.2156 59.9065 79.3939C63.1029 79.6742 66.6086 77.1776 66.6086 77.1776C66.6086 77.1776 64.8815 79.2666 61.2211 82.4C58.8754 84.3871 55.911 86.0175 56.0914 86.3996C56.2977 86.8581 58.6176 86.3232 62.6389 83.0114C63.9277 81.9415 64.7526 81.2536 66.5055 79.1137C69.5987 75.3434 70.2947 71.2165 69.6761 67.9047C69.4183 66.6055 69.0832 65.4336 68.6708 64.4401C66.9437 60.7717 65.0877 58.963 61.9944 57.7911C59.2363 56.7467 57.1225 57.6892 55.8337 58.2752C55.1892 58.5809 54.751 58.7592 54.5706 58.5044C54.0035 57.7147 55.1377 56.6448 56.143 55.7022C57.4319 54.5049 58.2825 54.0208 58.5145 53.9189C58.2825 53.817 57.4576 53.4094 56.6585 53.3585C56.2461 53.333 55.7821 53.4094 55.3697 53.4604C54.7253 53.5623 54.2097 53.6387 54.1324 53.3075C54.0035 52.6707 56.6328 51.5243 58.0505 51.0657C59.494 50.6072 60.654 50.5308 60.8602 50.5308C60.8345 50.2251 60.6025 47.8304 60.8602 44.3403C60.9891 42.5061 61.35 41.2324 61.6078 40.4936C61.9429 39.551 62.3295 38.9141 62.6647 38.7103C62.7935 38.6339 62.9482 38.6339 63.0513 38.6849C63.2833 38.8122 63.2833 39.2963 63.2833 40.0096C63.2833 40.4426 63.2833 41.0031 63.3349 41.589C63.4895 43.3468 64.0566 44.3148 64.3917 44.5187C64.4433 44.5441 64.4948 44.5696 64.5206 44.5441C64.6495 44.4932 64.6753 44.2639 64.7268 43.9582C64.8042 43.5506 64.8815 42.9647 65.2424 42.2514C65.8095 41.054 66.9437 39.6529 67.3303 39.7548C67.4335 39.7803 67.4592 39.9077 67.4592 40.086C67.4335 40.6464 67.3303 41.1305 67.253 41.64C67.0726 42.7099 66.8664 43.9072 66.9952 46.1491C67.1499 49.4353 68.6965 49.8684 68.9028 49.9194C69.0059 49.741 69.7534 48.4673 70.8361 47.3209C71.068 47.0916 71.2743 46.8369 71.5063 46.6076C72.1765 45.8433 72.7178 45.2574 73.1044 45.2574H73.1302C73.2333 45.2574 73.3364 45.3339 73.388 45.4358C73.5169 45.6396 73.3107 46.1745 72.9498 47.0407C72.46 48.238 71.7125 50.0467 71.3774 52.2631C70.7587 56.5174 71.3774 60.6443 71.4032 60.6698L71.4547 60.9755L71.3516 60.6953C71.3516 60.6953 70.9907 59.6763 69.4699 57.4854C68.7997 56.4919 68.2583 55.906 67.7428 55.3455C67.0984 54.6322 66.4797 53.9699 65.629 52.5433C64.6495 50.9129 64.3917 49.6901 64.2371 48.8749C64.1082 48.1871 64.0308 47.8559 63.6442 47.8049C63.5926 47.8049 63.5669 47.8304 63.5153 47.8814C63.1802 48.4163 63.3606 51.3969 64.2886 53.1547C64.7784 54.0973 65.3713 54.8615 66.0415 55.7277C66.7375 56.6193 67.5108 57.6128 68.4645 59.1413C70.1916 61.9181 71.0423 63.9561 71.4547 65.1789C71.5578 65.4846 71.6351 65.7393 71.7125 65.9686C71.9187 65.561 72.2538 65.077 72.3569 64.9751C75.3986 61.6633 78.0537 61.4341 79.8839 61.8671H79.9097C81.2243 62.1474 82.41 62.9116 83.2349 64.058C84.0856 65.3827 84.498 67.064 84.2402 68.5925ZM83.57 85.2787C83.57 85.3042 83.5443 85.3296 83.5443 85.3806C82.874 87.7243 81.4305 89.3292 79.4199 89.9151C78.8012 90.0935 78.2084 90.1954 77.667 90.1954C76.3266 90.1954 75.1924 89.6859 73.9809 88.9216C73.9035 88.8961 73.2333 88.7942 72.5374 89.1764C72.1765 89.3802 71.9445 89.6094 71.764 89.7878C71.6094 89.9406 71.5063 90.0425 71.4032 90.017C71.3774 90.017 71.3258 89.9661 71.3 89.9151C71.1969 89.6604 71.1969 88.9726 71.6352 88.2083C71.8929 87.7243 72.2023 87.4186 72.3054 87.3422C72.1765 87.0365 71.3 84.922 72.4085 82.5783C73.156 80.9989 75.1151 80.1582 76.6102 80.7696C78.1052 81.381 78.5692 82.5274 78.5177 83.2916C78.4661 83.9285 78.2341 84.4635 77.9248 84.6928C77.7701 84.7947 77.5897 84.8201 77.4608 84.7692C77.2804 84.6927 77.2546 84.489 77.2546 84.2342C77.2288 83.8011 77.203 83.1897 76.3782 82.7312C75.9657 82.5019 75.476 82.4764 75.0635 82.6548C74.7542 82.7821 74.3418 83.0878 74.1098 83.7502C73.8004 84.6418 73.8262 85.508 74.2129 86.2213C74.6769 87.1129 75.6564 87.7752 76.971 88.0809C78.9043 88.5395 80.915 87.1129 81.5594 84.8456C81.7398 84.1578 81.8429 83.3681 81.5852 82.5274C81.0696 80.846 79.9096 79.3175 77.0999 77.9673C76.1462 77.5088 74.1613 76.6426 73.388 76.286C73.8262 75.0632 73.8778 74.6811 74.0067 74.248C74.2644 73.8404 74.9862 73.178 75.6822 72.9997C76.4813 72.8214 77.435 73.2035 77.4093 73.3564C77.3835 73.5092 76.3266 73.764 75.7337 75.1141C75.9657 75.216 77.9506 75.751 79.6519 76.8464C82.5132 78.6806 83.3123 80.6168 83.5443 81.4829C83.9567 82.9095 83.8794 84.2342 83.57 85.2787ZM55.8337 40.4172C54.1066 38.8377 52.7146 38.4301 52.7146 38.4301V35.4495C53.5395 35.8571 55.447 36.8507 56.5297 37.7423C57.6123 38.6339 58.4372 39.5001 59.1074 40.2388L58.6434 43.2449C57.8443 42.4042 56.839 41.3343 55.8337 40.4172ZM53.6426 45.8179C53.1528 42.4042 53.3591 40.8248 53.3591 40.8248C54.1324 41.0795 55.447 42.3787 55.8852 42.8373C55.8852 42.8373 55.7821 43.2958 56.1172 45.3848C56.3492 46.9642 56.839 48.4163 57.0194 49.0277L54.5964 50.1486C54.3644 49.3844 53.9004 47.6521 53.6426 45.8179ZM55.4728 66.2743C55.7563 68.5416 57.6639 70.6815 60.3447 70.4013C61.5047 70.2739 62.3295 69.7389 62.8966 69.153L62.742 68.9747C62.3811 68.6435 61.118 67.4716 60.0869 66.1724C59.0816 64.8987 58.5918 64.2108 58.4887 64.0835L58.2052 63.6759C58.231 63.6504 58.5661 63.4211 59.5714 63.4466C60.6798 63.4975 61.7367 64.3382 62.046 64.593C62.046 64.593 62.5615 65.1534 64.2113 66.8602C66.1704 68.8728 67.5881 69.8408 67.8201 69.9937C67.8201 70.5796 67.6654 71.7005 67.4335 72.4902C66.5312 72.0062 65.3455 71.0381 64.7784 70.5796C64.7011 70.5032 64.6237 70.4522 64.5722 70.4267C63.8504 71.2929 62.7935 72.1336 61.1953 72.5666C60.8345 72.6685 60.422 72.7195 60.0354 72.694C56.5297 72.5921 54.1839 70.0191 53.6168 67.4971C53.4106 66.5545 53.4879 65.3572 53.5137 64.542C53.5395 63.8287 53.591 63.1918 53.4106 62.7333C53.2302 62.1983 52.9724 61.8671 52.792 61.6379C52.6373 61.4086 52.5084 61.2812 52.6373 61.1538C52.8177 60.9246 53.4364 61.0774 54.0035 61.4595C54.3644 61.6888 54.519 61.969 54.5706 62.1219C54.9057 61.6124 56.5297 59.4215 59.3394 59.3196C60.2931 59.2942 61.1438 59.498 61.7882 59.9056C62.3295 60.2367 62.6904 60.7208 62.8451 61.2048C62.9482 61.5869 62.9482 61.8926 62.6904 62.02C62.5615 62.0964 62.2522 61.969 61.8398 61.7652C61.2469 61.485 60.3189 61.1793 59.2363 61.3067C58.3598 61.4086 57.1225 61.9945 56.2719 63.1154C55.6017 63.9816 55.3181 65.1025 55.4728 66.2743ZM43.7957 86.7053C40.4962 89.6604 37.9442 90.3992 34.8252 90.9087C31.371 91.4946 24.7721 90.5775 24.7721 90.5775L21.3695 79.7251C21.3695 79.7251 24.9009 83.0114 26.7569 84.4635C28.6129 85.9156 30.3399 86.7053 32.9692 86.7053C35.5985 86.7053 37.3771 86.0429 39.3104 84.0049C41.2437 81.9669 41.9655 79.343 42.4553 76.235C42.7904 73.9932 42.6357 67.8028 42.6357 66.3762L43.1255 32.7492C43.1255 32.7492 43.3575 25.4888 42.8419 23.6801C42.3264 21.8459 41.218 20.5212 40.5477 19.8334C39.0784 18.3049 35.9336 17.8208 35.9336 17.8208C35.0314 17.668 34.8252 17.2349 34.9025 16.8018C35.0056 16.165 35.5727 16.0631 35.5727 16.0631L57.7927 16.114C57.7927 16.114 58.3341 16.165 58.4372 16.8273C58.5145 17.2604 58.3083 17.6935 57.4061 17.8463C57.4061 17.8463 54.287 18.3558 52.792 19.8588C52.1217 20.5467 51.0133 21.8714 50.4978 23.7056C49.9822 25.5398 50.2142 32.7747 50.2142 32.7747V66.4781C50.2142 66.4781 50.2916 72.9742 49.4409 76.3879C48.8223 78.7571 47.4561 83.4445 43.7957 86.7053ZM18.9206 84.973C17.7091 87.495 15.6984 89.7368 15.3118 89.3802C15.0025 89.0745 15.3891 88.8197 15.5953 88.0809C15.8016 87.3167 15.8531 87.1638 15.8531 87.1638C15.8531 87.1638 15.3118 87.9281 13.3785 89.1254C11.4452 90.3227 11.1101 90.3992 10.775 89.9406C10.5688 89.6349 11.0585 89.3037 11.5225 88.514C11.9607 87.7498 11.8319 87.7752 11.8319 87.7752C11.8319 87.7752 10.1821 87.6224 8.84169 87.0365C7.50127 86.4505 6.08352 85.0749 6.1093 84.7947C6.16086 84.438 6.72796 84.2342 7.73327 83.7247C8.81592 83.1897 9.56346 82.5019 9.56346 82.5019C9.56346 82.5019 8.84169 82.3236 8.42926 82.1453C7.78482 81.8396 7.14039 81.5339 7.52705 81.1263C7.88793 80.7951 9.61501 81.9415 12.2701 79.4704C14.6158 77.2795 14.6158 74.0697 14.6158 74.0697C14.6158 74.0697 15.75 77.8145 14.2549 80.7951C12.399 84.4635 8.91902 84.489 9.30568 85.2532C9.76968 86.1958 14.0229 85.3551 15.8531 80.9479C17.374 77.2795 15.7758 72.6176 14.6158 69.8408C14.2807 69.0511 13.8425 67.9811 13.5589 67.1405C14.6158 67.6245 15.4922 67.8538 16.3429 67.9557C16.3429 67.9557 16.3429 67.9557 16.3429 67.9811C16.3687 67.9811 16.4975 68.2104 16.4975 68.2104C17.5286 69.8408 19.1268 70.4013 19.9775 70.7324C20.7766 71.0381 21.653 71.191 22.5294 71.191C23.277 71.191 24.0503 71.0891 24.7463 70.8089C25.2103 70.6305 25.6485 70.4013 25.9836 70.0446C27.0147 68.9492 27.2724 65.5865 27.7364 65.3317C27.9427 65.2044 28.4582 66.045 28.6644 66.6564C28.8706 67.2933 28.7675 67.9047 29.1542 68.0576C29.4377 68.1595 29.5924 67.8538 30.1853 67.1914C31.0102 66.2488 30.8813 65.8667 31.2937 66.0196C31.7061 66.1724 31.2679 68.2614 31.0617 69.3823C30.8555 70.5286 30.3142 72.1845 30.3142 72.1845C30.3142 72.1845 31.6804 71.2929 32.9692 70.7324C36.5523 69.153 37.9442 69.637 37.97 70.0701C37.9958 70.5032 37.1451 70.5796 36.2172 71.675C35.547 72.4647 35.7016 72.6685 35.7016 72.6685C35.7016 72.6685 36.2429 72.694 37.738 72.2609C38.7949 71.9552 39.7229 71.4712 40.0064 71.9043C40.3158 72.3374 38.9238 74.1971 36.7843 75.6491C34.6447 77.1012 32.9177 77.6616 32.9177 77.6616C32.9177 77.6616 33.3301 78.0947 34.387 78.273C35.4438 78.4514 35.8563 78.2985 35.9594 78.6042C36.0883 79.0118 34.9025 79.3685 32.9177 79.5723C30.0822 79.8525 28.6129 78.6297 28.6129 78.6297C28.6129 78.6297 28.9737 79.6487 28.5613 80.6677C28.1231 81.7122 28.02 82.6802 27.6076 82.6038C27.1951 82.5529 27.6849 81.5593 26.8858 80.5913C26.0351 79.5468 25.0556 79.3175 23.6121 78.1966C22.1943 77.1267 22.1428 76.2605 22.1428 76.2605C22.1428 76.2605 24.6174 77.1776 28.6644 76.5407C32.5568 75.9294 33.7683 74.783 33.4848 74.3499C33.227 73.9678 32.5826 74.4518 30.7524 74.8849C28.6129 75.3689 25.7 75.2415 22.4779 74.7066C21.3437 74.5282 19.797 73.9932 18.4051 73.0761C18.9464 74.1461 19.8486 76.0567 20.0548 77.4324C20.4415 79.7761 20.1321 82.4255 18.9206 84.973ZM16.4202 50.4543C16.5749 49.4099 17.1935 48.289 17.5544 47.8049C18.9722 47.5502 19.8744 48.3144 20.0033 48.4418C19.2299 49.9194 18.7402 51.5498 18.302 53.1802C17.7864 52.9764 17.0389 52.2376 16.4202 50.4543ZM16.7553 61.485C16.0336 61.4086 14.1776 60.1858 14.0745 59.8801C14.0745 59.2432 14.2291 57.8166 14.4869 56.9759C15.4149 58.5809 16.9358 59.2687 16.9358 59.2687C16.678 60.2877 16.7553 61.485 16.7553 61.485ZM9.15102 47.3464C9.33146 46.8369 9.48612 46.4802 9.64079 46.1745C9.95012 45.4867 10.1306 45.0791 10.1821 44.1365C10.2594 43.0411 9.92434 42.2004 9.71812 41.9711C10.0017 41.9966 10.8781 42.3787 11.2132 43.092C11.4968 43.678 11.9092 45.2065 11.8576 45.4612C11.8319 45.5122 11.8834 45.5377 11.8834 45.5631C11.935 45.5886 11.9865 45.5631 12.1927 45.4103C12.7856 44.9772 14.59 43.627 17.7864 43.6016H17.838C23.7152 43.6016 26.2929 48.9768 26.3187 49.0277L26.3445 49.0532H26.3702C26.396 49.0532 27.1693 49.2825 28.7418 48.6201C29.3604 48.3654 29.7213 48.0342 30.0822 47.7285C30.675 47.219 31.1906 46.7605 32.6083 46.735C34.0519 46.684 35.1345 47.4992 35.315 48.0597C35.3665 48.187 35.3665 48.3909 35.2118 48.4928C35.0056 48.6456 34.9541 48.6201 34.8252 48.5692C34.619 48.4673 34.2839 48.3144 33.227 48.4928C32.3248 48.6201 31.9124 49.4608 31.4741 50.327C30.9844 51.2695 30.4946 52.2376 29.3604 52.5178C28.3293 52.798 27.1178 52.0847 26.8858 51.7281C26.8342 51.6262 26.7311 51.4988 26.6022 51.5243C26.4991 51.5498 26.4476 51.7026 26.4476 51.7536C26.4476 51.7536 26.4218 52.6452 25.8547 54.1992C25.3392 55.6258 22.9676 59.0394 18.302 57.7911C15.4407 57.0269 14.3323 54.3775 14.4611 52.7471C14.5127 52.2121 14.6674 51.8555 14.9251 51.83C15.1313 51.8045 15.3118 51.9574 15.3633 52.1102C15.5696 52.7216 15.8016 53.333 16.1367 53.8425C16.6007 54.5558 17.4513 55.422 18.4824 55.6512C20.8024 56.1607 22.2201 54.9889 22.4779 54.7341C23.3543 53.9189 23.8441 52.5688 23.7667 51.1167C23.6636 49.257 22.6841 48.0852 21.8592 47.4228C20.8281 46.5821 19.4877 46.0726 18.1731 46.0471C18.1473 46.0471 18.0957 46.0471 18.07 46.0471C16.3687 46.0471 14.6416 46.735 13.3012 47.9068C11.5999 49.4099 10.6203 51.6517 10.4141 54.3775C10.2337 56.7212 11.2132 59.3196 12.9403 61.1793C14.2807 62.6314 15.9562 63.4211 17.6317 63.4466C17.6575 63.4466 17.6833 63.4466 17.7349 63.4466C22.1685 63.4466 25.0298 60.7462 28.0458 57.893C30.8813 55.2182 33.7941 52.4669 38.3825 51.1931C38.7176 51.0912 40.29 50.9638 40.6251 50.9384L40.5477 53.4094C37.97 53.8935 34.387 55.5239 34.5674 57.2816C34.7479 59.0139 35.8821 59.9565 36.4234 60.4151C36.5523 60.517 36.6812 60.6189 36.6812 60.6443C36.6812 60.6698 36.6296 60.6953 36.4492 60.7717C35.9594 60.95 34.8252 61.0774 33.9488 60.6698C32.763 60.1348 31.603 58.2242 31.5773 58.1987L31.5257 58.1223L31.4741 58.1987C31.4484 58.2242 27.9427 61.8671 26.0351 63.2428C24.7978 64.1344 21.5241 66.5036 17.6575 66.3253C14.9767 66.1979 12.5021 65.0006 10.6977 62.9371C8.79014 60.7717 7.75905 57.7657 7.78482 54.5049C7.78482 51.5243 8.11993 50.1741 9.15102 47.3464ZM17.7091 16.114C17.7349 16.114 20.4672 15.8847 23.0707 16.9037C24.205 17.3623 25.0298 17.9227 25.7516 18.4322H25.7774C26.86 19.171 27.6849 19.7824 28.8964 19.4003C30.2626 18.9927 30.5462 17.9227 30.7266 17.2094C30.7782 17.0311 30.8555 16.7254 30.907 16.6999C30.9586 16.6745 31.2164 16.7764 31.4226 17.1075C31.6804 17.4897 32.3506 18.9163 30.5462 21.5147C29.5408 22.9413 27.9169 23.247 27.8395 23.247C27.7622 23.247 27.7107 23.298 27.6591 23.3489C27.6333 23.3999 27.6076 23.4763 27.6333 23.5527C27.7364 23.9094 27.7364 24.1896 27.7622 24.4443C27.8395 25.336 27.7364 26.2021 27.1436 27.6542C26.2156 29.8705 24.3596 31.2207 21.9108 31.5264C19.5393 31.8066 17.606 30.4819 16.91 29.0298C16.2913 27.6797 16.2398 26.1257 16.8069 24.7246C16.9358 24.3679 17.1935 24.0877 17.3997 24.0367C17.5029 24.0113 17.5802 24.0367 17.6575 24.1132C17.8637 24.266 17.8637 24.6736 17.8895 25.2086C17.9153 25.7436 17.9411 26.4059 18.1731 27.0937C18.5339 28.1637 19.7455 29.1827 21.2921 29.0553C23.6636 28.8515 25.0814 27.1956 25.1329 24.6481C25.1845 21.9733 23.4574 18.8144 18.4051 18.687C18.3277 18.687 18.2762 18.687 18.1988 18.687C16.2913 18.687 14.5385 19.4258 13.1465 20.8014C11.5483 22.4318 10.5172 24.8774 10.4657 27.2211C10.3883 31.7811 12.7856 34.4305 14.7962 35.8571C16.8326 37.2837 20.029 37.3856 24.0245 36.1374C25.3907 35.7043 26.86 35.1184 28.2778 34.5324H28.3035C29.5151 34.0484 30.7524 33.5389 31.9381 33.1058C32.6341 32.8766 33.3817 32.6728 34.155 32.5454L34.2581 32.5199L34.1808 32.418C33.8714 32.0104 33.4848 31.4754 32.9692 30.7876C31.9381 29.361 31.6546 26.7371 31.9897 26.2021C32.1444 25.9728 32.299 25.9219 32.3764 25.9219C32.4279 25.9219 32.4795 25.9474 32.4795 25.9474C32.4795 25.9728 32.4795 26.1002 32.4795 26.1257C32.4795 26.2531 32.4795 26.8645 32.763 27.1702C33.1239 27.5778 33.6137 27.6542 33.8199 27.5523C33.8972 27.5013 33.9488 27.4504 33.9745 27.374C34.0519 27.1447 34.4128 26.0238 35.0314 25.1067C35.547 24.3424 37.1709 23.1706 38.1247 23.1706C38.1505 23.1706 38.1762 23.1706 38.202 23.1706C38.4598 23.1961 38.6402 23.298 38.7433 23.5018C38.8722 23.7565 38.4598 24.1896 38.3309 24.317C37.506 25.1831 36.5265 26.4569 36.4492 28.5713C36.4234 29.5648 36.7069 30.38 37.2998 31.0169C38.434 32.2142 40.3931 32.3671 40.7797 32.3671V34.5579C40.7282 34.5579 40.6509 34.5579 40.5993 34.5579C38.666 34.5579 37.1194 36.8761 36.6038 39.2453C36.1656 41.1814 36.5523 43.9072 36.7069 44.7225C36.8616 45.4612 36.7327 45.6396 36.6812 45.665C36.6554 45.6905 36.6296 45.6905 36.5523 45.6905C36.1398 45.6141 35.3923 44.7479 34.5674 43.4232C33.9488 42.4552 34.1292 41.2324 34.2323 40.57C34.2839 40.2134 34.3096 40.0605 34.1808 39.9586L34.155 39.9331C34.0776 39.8567 33.9488 39.7803 33.7941 39.7803C33.7941 39.7803 33.7941 39.7803 33.7683 39.7803C33.5879 39.7803 33.3817 39.9077 33.1497 40.1369C32.9692 40.3407 32.8661 40.4681 32.8146 40.57C32.7115 40.7229 32.7115 40.7229 32.4537 40.621C32.4537 40.621 32.4279 40.621 32.4021 40.57C32.2217 40.086 32.763 38.4046 33.459 37.2328C34.0003 36.2902 34.5932 35.6024 35.4181 34.9655L35.6501 34.7872L35.3407 34.8636C32.531 35.5005 29.7213 36.5959 27.9942 37.7678C25.7774 39.2453 23.973 41.0031 22.6583 42.9647C22.4263 42.8118 22.1943 42.7099 21.6272 42.4552C21.2663 42.3023 20.725 42.124 20.3126 42.0731C20.8539 41.3343 21.8077 40.3407 22.1943 39.9331L22.2201 39.9077C22.2717 39.8312 22.2717 39.7039 22.1943 39.6274C22.117 39.551 22.0139 39.5255 21.9108 39.551C21.8077 39.602 19.3073 40.5445 14.8994 38.9141C11.3163 37.5894 7.57861 33.7427 7.78482 26.9664C8.0426 20.0372 12.9403 16.5216 17.7091 16.114ZM2.26849 96.5641H89.7308V10H2.26849V96.5641Z" fill="#990000"/>
<path d="M90 0H135V97H90V0Z" fill="#EAE8E1"/>
</svg>
