<svg width="200" height="140" viewBox="0 0 200 140" fill="none" xmlns="http://www.w3.org/2000/svg">
<rect width="200" height="140" fill="white"/>
<path d="M169.027 79.5996H0.156738V139.6H169.027V79.5996Z" fill="#990000"/>
<path fill-rule="evenodd" clip-rule="evenodd" d="M48.2961 127.045H12.0596V91.4609H48.2961V127.045ZM33.3961 101.316L34.3709 101.904C34.4483 101.827 34.7422 101.688 35.4385 101.626C35.8717 101.579 36.2431 101.564 36.5061 101.626C36.6918 101.672 36.831 101.703 36.862 101.641C36.9548 101.409 36.4133 100.868 35.9646 100.651C35.5159 100.434 35.0053 100.496 34.8505 100.527C35.1909 99.6144 35.6706 98.5005 36.1348 97.9125C36.8774 96.9688 38.4866 95.3907 41.086 95.4835C43.8091 95.5763 45.0005 97.6495 44.9696 99.6608C44.9541 100.465 44.6601 101.301 44.1495 101.951C43.608 102.647 42.8962 103.065 42.1226 103.142C40.8229 103.281 39.6315 102.446 39.4304 101.239C39.2912 100.403 39.4149 99.6918 39.7863 99.2276C40.0803 98.8718 40.498 98.6552 41.0241 98.6397C41.4264 98.6242 41.6739 98.7944 41.8132 98.9491C41.9988 99.1657 42.1071 99.4752 42.0917 99.7691C42.0459 100.349 41.7289 100.508 41.5124 100.616L41.5037 100.62C41.3645 100.682 41.3026 100.728 41.3026 100.806C41.3026 100.899 41.349 100.96 41.4264 101.022C41.5966 101.131 41.8905 101.146 42.2 101.038C42.5868 100.914 43.02 100.434 43.0046 99.4906C42.9891 98.5623 42.1381 97.6959 41.2407 97.634C39.7852 97.514 38.9118 98.4853 38.8462 98.5582C38.8442 98.5605 38.8429 98.5619 38.8425 98.5623H38.8115C38.8115 98.5623 38.5639 98.4231 38.2236 98.3767C37.7748 98.3148 37.4345 98.454 37.3416 98.5469C37.3261 98.5623 37.3261 98.5778 37.3261 98.5778C37.3261 98.5933 37.4035 98.6397 37.4809 98.6706C37.6201 98.7325 37.7903 98.8253 37.976 98.9801C38.3473 99.3204 38.4402 99.7536 38.4402 99.7691V99.7846C38.2854 100.929 38.3473 101.92 39.1364 102.972C40.0999 104.241 41.4564 104.241 42.0555 104.24H42.0762C42.2155 104.24 42.3392 104.256 42.4166 104.271H42.4321C42.5868 104.333 42.6332 104.488 42.6332 104.565C42.6332 104.643 42.6023 104.766 42.4166 104.906C42.1071 105.138 42.0453 105.37 42.1226 105.911C42.169 106.205 42.3547 106.546 42.5558 106.901L42.5854 106.956C42.7778 107.31 42.9766 107.677 43.0355 108.015C43.1902 109.037 43.0819 109.578 43.02 109.872C43.0152 109.911 43.0089 109.945 43.0034 109.974C42.9913 110.039 42.9832 110.083 43.0046 110.104C43.02 110.12 43.0355 110.135 43.0819 110.135C43.2676 110.135 43.6389 109.856 43.871 109.501C44.0103 109.269 44.0257 108.928 44.0257 108.665C44.0257 108.464 44.0412 108.34 44.0876 108.294C44.1031 108.278 44.134 108.278 44.1495 108.278C44.7065 108.387 44.7529 109.408 44.722 109.795C44.7083 109.945 44.6583 110.059 44.6148 110.159C44.6091 110.172 44.6036 110.184 44.5982 110.197C44.5363 110.321 44.5054 110.383 44.5827 110.46C44.6368 110.528 44.7382 110.501 44.8455 110.472C44.861 110.468 44.8766 110.464 44.8922 110.46C44.954 110.444 45.016 110.429 45.0624 110.429C45.1243 110.413 45.1862 110.429 45.2171 110.491C45.31 110.676 45.1398 111.032 44.8458 111.233C44.8226 111.249 44.7955 111.268 44.7684 111.288C44.7413 111.307 44.7143 111.326 44.6911 111.342L44.6725 111.355C44.4631 111.504 44.2742 111.639 44.3042 111.759C44.3042 111.759 44.3197 111.775 44.3661 111.79C44.5982 111.852 45.2016 111.79 45.6194 111.404C46.1455 110.924 46.3002 110.367 46.2074 109.346C46.13 108.34 45.2635 107.598 45.2481 107.598V107.567C45.2481 107.567 45.2481 107.551 45.2635 107.551C45.2635 107.551 45.6039 107.505 45.9289 107.304C46.3621 107.025 46.5478 106.793 46.4859 106.654C46.4612 106.617 46.3281 106.6 46.1653 106.578C46.1241 106.573 46.0809 106.567 46.0372 106.561C45.7432 106.53 45.3564 106.484 44.985 106.36C44.3507 106.143 43.8555 105.726 43.6389 105.2C43.4842 104.844 43.4223 104.318 43.9329 103.745H43.9484L44.0412 103.668C44.8148 103.003 45.9753 101.982 46.0836 99.5989C46.1451 98.06 45.5331 96.965 45.2373 96.4357L45.2326 96.4273C45.1398 96.2571 45.0933 96.1643 45.0933 96.1178C45.0933 96.025 45.2016 95.9477 45.3564 95.8548C45.5266 95.7465 45.7587 95.5918 45.9598 95.3288C46.2692 94.9111 46.3776 94.5862 46.3466 94.4779L46.3311 94.4624C46.3206 94.4518 46.2666 94.4774 46.199 94.5094C46.1676 94.5243 46.1333 94.5405 46.099 94.5552L46.0763 94.5656C45.9085 94.642 45.6852 94.7436 45.4337 94.8028C44.9386 94.9265 44.2424 94.7873 43.577 94.6481L43.3449 94.6016C42.6487 94.4469 41.7977 94.3077 40.8848 94.3232C39.1983 94.3386 37.2952 94.8956 35.7015 96.582C34.1543 98.222 33.5354 100.713 33.3961 101.316ZM44.3352 117.546C44.985 117.453 45.7741 116.881 46.0062 115.535C46.1145 114.916 45.9443 114.219 45.542 113.693C45.2016 113.214 44.722 112.904 44.165 112.796H44.1495C43.3914 112.626 42.2928 112.719 41.0241 114.08C40.9931 114.111 40.8539 114.312 40.761 114.482C40.7512 114.453 40.7414 114.422 40.7311 114.39C40.7089 114.319 40.6844 114.242 40.6527 114.158C40.4825 113.647 40.1267 112.812 39.4149 111.667C39.0474 111.064 38.7358 110.671 38.4535 110.315L38.4092 110.259L38.3692 110.208C38.107 109.873 37.8735 109.575 37.682 109.207C37.3107 108.48 37.2333 107.257 37.3726 107.041C37.388 107.025 37.4035 107.01 37.419 107.01C37.5753 107.024 37.6011 107.143 37.6522 107.378C37.6568 107.398 37.6615 107.42 37.6665 107.443C37.7284 107.783 37.8213 108.278 38.239 108.959C38.5949 109.532 38.8425 109.81 39.121 110.104C39.1536 110.142 39.1871 110.18 39.2214 110.219C39.3987 110.421 39.5994 110.649 39.8327 110.986C40.4671 111.883 40.6218 112.301 40.6218 112.301L40.6682 112.409L40.6527 112.286C40.6527 112.285 40.6518 112.277 40.6501 112.264C40.6244 112.064 40.4203 110.477 40.6527 108.835C40.7877 107.951 41.0825 107.226 41.2837 106.731L41.3026 106.685C41.4573 106.329 41.5501 106.112 41.4882 106.02C41.4573 105.973 41.4264 105.942 41.3799 105.942H41.3645C41.2097 105.942 40.9777 106.19 40.6992 106.499C40.6527 106.546 40.6063 106.596 40.5599 106.646C40.5135 106.696 40.4671 106.747 40.4206 106.793C40.0517 107.175 39.7769 107.609 39.665 107.785C39.6409 107.824 39.6243 107.85 39.6161 107.861C39.5387 107.845 38.8889 107.66 38.827 106.314C38.7806 105.385 38.8579 104.89 38.9353 104.457C38.9817 104.256 39.0126 104.055 39.0281 103.823C39.0436 103.745 39.0281 103.699 38.9817 103.683C38.8115 103.637 38.3473 104.225 38.1152 104.705C37.9742 104.973 37.936 105.189 37.9069 105.354C37.9041 105.37 37.9014 105.386 37.8986 105.401L37.8949 105.417C37.8664 105.546 37.8503 105.619 37.8058 105.648C37.7903 105.648 37.7749 105.648 37.7439 105.633C37.6201 105.54 37.3726 105.138 37.3107 104.426C37.2952 104.178 37.2952 103.962 37.2952 103.776C37.2952 103.482 37.2952 103.297 37.2024 103.235C37.156 103.204 37.1095 103.204 37.0476 103.235C36.8929 103.312 36.7382 103.575 36.5989 103.962C36.4906 104.271 36.3514 104.797 36.2895 105.555C36.1812 106.979 36.274 107.969 36.2895 108.093C36.2121 108.093 35.7325 108.108 35.1291 108.309C34.5411 108.51 33.4426 108.975 33.5044 109.238C33.5354 109.377 33.752 109.346 34.015 109.3C34.1852 109.269 34.3864 109.238 34.5566 109.253C34.8815 109.269 35.2374 109.439 35.3302 109.485C35.2374 109.532 34.8815 109.733 34.3554 110.228L34.3255 110.257C33.9159 110.651 33.479 111.071 33.7056 111.388C33.7829 111.496 33.9686 111.419 34.2317 111.295L34.2532 111.286C34.7817 111.053 35.6552 110.667 36.7846 111.094C38.0688 111.589 38.8425 112.316 39.5542 113.833C39.7244 114.235 39.8636 114.73 39.9719 115.256C40.235 116.618 39.941 118.319 38.6568 119.867C37.9296 120.733 37.5892 121.027 37.0631 121.46C35.4076 122.822 34.4328 123.038 34.3554 122.853C34.3225 122.77 34.654 122.543 35.1185 122.224C35.5258 121.945 36.0352 121.596 36.4906 121.213C38.0224 119.928 38.7341 119.062 38.7341 119.062C38.7341 119.062 37.2797 120.099 35.9646 119.975C35.4226 119.931 35.0021 119.607 34.7829 119.438C34.6893 119.366 34.6324 119.322 34.6185 119.341C34.4483 119.526 34.7113 120.037 34.8041 120.207C34.8815 120.377 35.0826 120.547 35.0826 120.547C35.0826 120.547 35.0362 120.64 34.572 120.656C34.3209 120.656 34.1807 120.558 34.1005 120.502C34.0571 120.472 34.0313 120.454 34.015 120.47C33.9222 120.547 33.9841 120.841 34.2935 121.135C34.5875 121.414 34.8815 121.522 34.8815 121.522C34.8815 121.522 34.4328 121.677 33.7211 121.677C33.4603 121.677 33.1995 121.622 32.9831 121.577C32.7374 121.526 32.5491 121.487 32.4833 121.553C32.3242 121.712 32.5133 121.881 32.7218 122.067C32.7771 122.116 32.8337 122.166 32.8855 122.218C33.1331 122.466 33.2724 122.466 33.2724 122.466C33.2724 122.466 33.195 122.76 32.4523 122.868C32.0298 122.932 31.6483 122.844 31.3693 122.779C31.1068 122.718 30.9351 122.679 30.9051 122.806C30.8277 123.116 31.7715 123.905 32.901 123.997C33.9996 124.106 34.9589 123.595 34.9589 123.595C34.9589 123.595 34.9434 123.843 34.4637 124.369C34.2221 124.634 34.0434 124.758 33.9384 124.83C33.8418 124.897 33.8077 124.92 33.8448 124.972C34.0305 125.204 34.7422 125.096 37.1869 122.899C37.2024 122.945 37.2024 123.007 37.2024 123.054C37.3416 125.297 39.6161 124.786 39.6006 124.647C39.5937 124.599 39.5094 124.575 39.385 124.54C39.2314 124.497 39.0167 124.437 38.8115 124.291C38.3319 123.951 38.4092 123.765 38.4092 123.765C38.4092 123.765 38.5021 123.858 38.796 123.874C39.09 123.905 39.2602 123.889 39.2602 123.781C39.2602 123.762 39.2122 123.742 39.1367 123.712C38.9092 123.621 38.4326 123.429 38.27 122.837C38.1462 122.388 38.3319 121.971 38.5639 121.692C40.6063 119.217 40.9158 117.809 41.0705 116.85C41.072 116.839 41.0738 116.826 41.0758 116.811C41.1146 116.53 41.2484 115.562 41.6894 114.916C41.6894 114.9 41.7049 114.885 41.7049 114.885C42.0453 114.343 42.5713 113.833 43.3295 113.693C43.4223 113.678 43.5151 113.662 43.608 113.662H43.6853C44.3661 113.724 44.5982 114.018 44.7684 114.328C44.985 114.745 44.9231 115.272 44.6446 115.72C44.5827 115.798 44.5054 115.875 44.428 115.937L44.419 115.944C44.3302 116.018 44.2583 116.078 44.2733 116.138C44.2733 116.184 44.3197 116.231 44.3661 116.262C44.459 116.308 44.5827 116.293 44.7065 116.231L44.7529 116.215C44.8458 116.169 44.9386 116.122 44.9696 116.138C44.9696 116.138 44.985 116.153 44.985 116.169L44.9857 116.175C45.0012 116.314 45.0238 116.515 44.4744 116.942C44.3026 117.086 44.1307 117.149 44.008 117.195C43.9981 117.198 43.9885 117.202 43.9793 117.205L43.963 117.212C43.8633 117.255 43.7929 117.285 43.7782 117.329C43.7782 117.36 43.7782 117.391 43.7936 117.422C43.8401 117.515 43.9948 117.561 44.1805 117.561C44.2037 117.561 44.2307 117.557 44.2578 117.554C44.2849 117.55 44.312 117.546 44.3352 117.546ZM45.7277 122.435C45.7432 122.419 45.7432 122.404 45.7432 122.404C45.867 121.971 45.8979 121.429 45.7277 120.826C45.6349 120.47 45.31 119.681 44.1186 118.923C43.5583 118.57 42.9309 118.36 42.644 118.264C42.5664 118.239 42.5137 118.221 42.494 118.211C42.6762 117.801 42.9591 117.634 43.1018 117.55C43.153 117.52 43.1861 117.5 43.1902 117.484C43.2057 117.422 42.8189 117.252 42.4785 117.329C42.1845 117.391 41.8905 117.67 41.7822 117.84C41.757 117.909 41.737 117.978 41.7106 118.069C41.6721 118.202 41.6202 118.382 41.5192 118.675C41.8441 118.814 42.6642 119.17 43.0664 119.356C44.2269 119.913 44.7065 120.547 44.9231 121.228C45.0314 121.584 44.985 121.909 44.9077 122.187C44.6446 123.116 43.8091 123.703 43.0046 123.518C42.463 123.394 42.0607 123.131 41.8596 122.76C41.7049 122.466 41.6894 122.11 41.8132 121.739C41.906 121.46 42.0917 121.336 42.2155 121.29C42.3857 121.213 42.5868 121.228 42.757 121.321C43.0785 121.496 43.0963 121.727 43.1104 121.908C43.1112 121.919 43.112 121.929 43.1129 121.94C43.1147 121.953 43.1164 121.965 43.1179 121.978C43.1295 122.066 43.1377 122.129 43.2057 122.156C43.2676 122.187 43.3449 122.172 43.4068 122.125C43.5461 122.033 43.6389 121.816 43.6544 121.553C43.6853 121.228 43.4842 120.764 42.8653 120.516C42.2619 120.253 41.4418 120.609 41.1324 121.259C40.6682 122.218 41.0241 123.1 41.086 123.224C41.0395 123.255 40.9158 123.379 40.8075 123.58C40.6218 123.905 40.6218 124.183 40.6682 124.291C40.6837 124.322 40.6992 124.338 40.7146 124.338C40.7456 124.353 40.792 124.307 40.8539 124.245C40.8735 124.229 40.8952 124.211 40.9189 124.19C40.9883 124.13 41.0749 124.055 41.1788 123.997C41.4268 123.86 41.6748 123.881 41.748 123.888C41.757 123.889 41.7634 123.889 41.7668 123.889C42.2773 124.199 42.7415 124.415 43.2985 124.415C43.5306 124.415 43.7627 124.384 44.0257 124.307C44.8458 124.059 45.4492 123.394 45.7277 122.435ZM32.9474 103.142C32.9474 103.142 33.5354 103.312 34.2471 103.962C34.6494 104.333 35.0826 104.766 35.4076 105.122L35.5932 103.885C35.5701 103.86 35.5465 103.835 35.5224 103.81C35.2573 103.529 34.937 103.19 34.5256 102.863C34.0769 102.492 33.2878 102.09 32.9474 101.92V103.142ZM33.2105 104.117C33.2105 104.117 33.1331 104.782 33.3342 106.174C33.4426 106.932 33.6282 107.644 33.7211 107.969L34.7268 107.505C34.6494 107.257 34.4637 106.654 34.3554 106.004C34.2162 105.138 34.2626 104.952 34.2626 104.952C34.0769 104.751 33.5354 104.225 33.2105 104.117ZM36.1193 116.277C34.9898 116.401 34.2162 115.519 34.0924 114.591C34.0305 114.111 34.1543 113.647 34.4328 113.291C34.7732 112.842 35.2993 112.595 35.6551 112.549C36.1038 112.487 36.4906 112.61 36.7382 112.734C36.7521 112.741 36.7657 112.747 36.779 112.753C36.9282 112.821 37.0372 112.871 37.0941 112.842C37.2024 112.781 37.2024 112.657 37.156 112.502C37.0941 112.316 36.9393 112.115 36.7227 111.976C36.4442 111.806 36.0884 111.713 35.7015 111.729C34.5411 111.775 33.8603 112.672 33.7211 112.873C33.7056 112.812 33.6437 112.688 33.489 112.595C33.2569 112.44 33.0093 112.378 32.932 112.471C32.8883 112.515 32.9267 112.572 32.9829 112.656L32.9939 112.672C33.0029 112.686 33.0129 112.7 33.0237 112.716C33.0867 112.807 33.1754 112.936 33.2414 113.121C33.302 113.303 33.2885 113.558 33.2734 113.844L33.2724 113.864C33.2714 113.886 33.2703 113.908 33.2692 113.931C33.2534 114.268 33.2319 114.724 33.3188 115.086C33.5509 116.122 34.5256 117.174 35.98 117.221C36.1502 117.236 36.305 117.205 36.4597 117.174C37.1095 117.004 37.5582 116.648 37.8522 116.293C37.8586 116.299 37.8677 116.305 37.8783 116.313C37.8933 116.324 37.9114 116.336 37.9296 116.355L37.9696 116.387C38.215 116.583 38.6769 116.953 39.0281 117.144C39.121 116.819 39.1828 116.339 39.1828 116.107L39.1782 116.104C39.0719 116.033 38.4897 115.645 37.6975 114.823C37.0167 114.127 36.8001 113.895 36.8001 113.895C36.7941 113.89 36.7874 113.885 36.78 113.879C36.6332 113.768 36.206 113.445 35.7789 113.43C35.3766 113.415 35.2374 113.508 35.2219 113.523L35.3457 113.693C35.3673 113.715 35.4223 113.787 35.517 113.91C35.626 114.052 35.7875 114.263 36.011 114.544C36.4442 115.07 36.9548 115.55 37.1095 115.689L37.0941 115.705L37.1714 115.767C36.9393 116.014 36.5989 116.231 36.1193 116.277ZM21.3895 124.57C21.3895 124.57 24.1126 124.957 25.5516 124.709C26.8358 124.493 27.8879 124.199 29.2495 122.976C30.7503 121.646 31.3228 119.727 31.5704 118.737C31.9262 117.329 31.8953 114.653 31.8953 114.653V100.806C31.8953 100.806 31.8025 97.8352 32.0191 97.0771C32.2357 96.3344 32.6999 95.7775 32.9784 95.499C33.5818 94.8647 34.8815 94.6635 34.8815 94.6635C35.2683 94.6016 35.3457 94.4315 35.3147 94.2458C35.2838 93.9828 35.0517 93.9518 35.0517 93.9518L25.8456 93.9364C25.8456 93.9364 25.6135 93.9828 25.5671 94.2458C25.5516 94.416 25.6289 94.6016 26.0003 94.6635C26.0003 94.6635 27.2845 94.8801 27.9034 95.499C28.1819 95.7775 28.6461 96.319 28.8627 97.0771C29.0793 97.8197 28.9865 100.806 28.9865 100.806L28.7853 114.622C28.7853 114.725 28.7873 114.89 28.7897 115.096C28.8009 116.059 28.8227 117.923 28.708 118.675C28.5068 119.944 28.1974 121.027 27.4083 121.862C26.6037 122.713 25.861 122.976 24.778 122.976C23.6949 122.976 22.9831 122.651 22.2095 122.063C21.4359 121.46 19.9815 120.114 19.9815 120.114L21.3895 124.57ZM17.4595 124.075C17.5987 124.214 18.4497 123.301 18.9448 122.265C19.4554 121.228 19.5792 120.145 19.4554 119.186C19.3781 118.629 19.0067 117.824 18.7746 117.391C19.3471 117.762 19.9815 117.979 20.4611 118.056C21.8072 118.273 22.9986 118.335 23.896 118.134C24.1856 118.069 24.4029 117.999 24.567 117.947C24.8325 117.862 24.9586 117.822 25.0255 117.917C25.1338 118.087 24.6387 118.567 23.0296 118.814C21.3431 119.062 20.3219 118.691 20.3219 118.691C20.3219 118.691 20.3374 119.031 20.9253 119.48C21.162 119.656 21.3677 119.777 21.5518 119.885C21.8372 120.054 22.0706 120.191 22.2869 120.454C22.4728 120.685 22.4865 120.915 22.496 121.075C22.5032 121.195 22.508 121.277 22.5809 121.29C22.6925 121.3 22.7442 121.137 22.819 120.902C22.8582 120.778 22.9038 120.634 22.9677 120.485C23.1533 120.068 22.9986 119.65 22.9986 119.65C22.9986 119.65 23.602 120.16 24.778 120.037C25.6135 119.944 26.0931 119.805 26.0467 119.634C26.0276 119.558 25.9494 119.552 25.7901 119.541C25.6917 119.534 25.5623 119.525 25.3969 119.495C24.9636 119.418 24.7934 119.248 24.7934 119.248C24.7934 119.248 25.5206 119.031 26.4026 118.428C27.2845 117.84 27.857 117.082 27.7332 116.896C27.6388 116.754 27.3916 116.838 27.0875 116.94C26.9927 116.972 26.8924 117.006 26.7894 117.035C26.1705 117.205 25.9539 117.205 25.9539 117.205C25.9539 117.205 25.892 117.128 26.1705 116.803C26.3704 116.571 26.5621 116.451 26.6984 116.365C26.826 116.285 26.9052 116.236 26.8977 116.153C26.8822 115.983 26.3097 115.782 24.8244 116.432C24.2983 116.679 23.7258 117.035 23.7258 117.035C23.7258 117.035 23.9579 116.355 24.0353 115.89C24.0466 115.822 24.0604 115.745 24.0749 115.664C24.1595 115.189 24.2733 114.551 24.1281 114.498C24.0275 114.452 24.0026 114.493 23.9287 114.614C23.8776 114.697 23.8031 114.819 23.6639 114.978C23.6224 115.024 23.5856 115.067 23.5527 115.105C23.3895 115.293 23.3208 115.372 23.2307 115.333C23.1269 115.292 23.1067 115.167 23.0812 115.01C23.0688 114.932 23.055 114.848 23.0296 114.761C22.9522 114.498 22.7356 114.158 22.6428 114.204C22.5558 114.244 22.4862 114.527 22.4014 114.872C22.2901 115.324 22.1527 115.883 21.9155 116.138C21.7763 116.277 21.5906 116.385 21.405 116.447C21.111 116.556 20.7861 116.602 20.4766 116.602C20.1207 116.602 19.7649 116.54 19.4245 116.416C19.4103 116.411 19.3956 116.405 19.3806 116.399C19.0172 116.258 18.4015 116.019 17.9855 115.38C17.9855 115.38 17.9391 115.287 17.9236 115.287C17.5523 115.241 17.2119 115.148 16.7632 114.947C16.8715 115.287 17.0572 115.72 17.1964 116.045C17.6761 117.174 18.3414 119.093 17.707 120.609C16.9489 122.404 15.2005 122.76 14.9993 122.373C14.9364 122.259 15.0933 122.184 15.3552 122.06C15.8018 121.849 16.554 121.493 17.0417 120.547C17.6761 119.31 17.1964 117.778 17.1964 117.778C17.1964 117.778 17.1964 119.093 16.2217 119.99C15.4197 120.736 14.8239 120.681 14.5004 120.652C14.3808 120.641 14.2984 120.633 14.2567 120.671C14.0911 120.837 14.35 120.958 14.6063 121.079L14.628 121.089C14.7982 121.151 15.0922 121.228 15.0922 121.228C15.0922 121.228 14.7827 121.507 14.334 121.723C14.2658 121.755 14.2025 121.783 14.1443 121.81C13.833 121.951 13.6663 122.026 13.6532 122.156C13.6378 122.28 14.2257 122.837 14.7827 123.085C15.3397 123.332 16.0205 123.394 16.0205 123.394C16.0205 123.394 16.0824 123.363 15.8967 123.688C15.8283 123.808 15.7557 123.902 15.6959 123.98C15.5935 124.113 15.5287 124.198 15.5873 124.276C15.7266 124.477 15.8813 124.446 16.6704 123.951C17.4595 123.456 17.6916 123.146 17.6916 123.146C17.6916 123.146 17.6606 123.224 17.5832 123.533C17.55 123.644 17.5089 123.729 17.4755 123.798C17.4154 123.922 17.38 123.995 17.4595 124.075ZM18.3723 106.994C18.2176 107.195 17.9701 107.644 17.9082 108.077C18.1712 108.82 18.4807 109.114 18.6973 109.207C18.8675 108.526 19.0686 107.861 19.3935 107.257C19.39 107.255 19.3855 107.251 19.3801 107.247C19.2889 107.175 18.927 106.892 18.3723 106.994ZM16.9489 111.961C16.9953 112.084 17.7534 112.595 18.0629 112.626C18.0629 112.626 18.0165 112.131 18.1403 111.713C18.1403 111.713 17.5059 111.419 17.1191 110.769C17.0108 111.11 16.9489 111.698 16.9489 111.961ZM15.1077 106.329C15.0458 106.453 14.9839 106.607 14.9065 106.809C14.4733 107.969 14.334 108.526 14.3495 109.748C14.334 111.094 14.7673 112.316 15.5564 113.214C16.3145 114.065 17.3512 114.56 18.4497 114.606C20.0434 114.684 21.405 113.709 21.9155 113.338C22.6795 112.783 24.0671 111.374 24.1687 111.27L24.1745 111.264L24.2055 111.233L24.2209 111.264C24.2209 111.28 24.7006 112.069 25.1957 112.286C25.5671 112.456 26.0312 112.409 26.2324 112.332C26.2943 112.316 26.3252 112.286 26.3252 112.286C26.3252 112.277 26.3082 112.265 26.2853 112.248C26.2645 112.233 26.239 112.215 26.2169 112.193C25.9848 112.007 25.5206 111.62 25.4433 110.909C25.3659 110.181 26.8513 109.516 27.9189 109.315L27.9498 108.294C27.92 108.297 27.8669 108.303 27.8003 108.309C27.5559 108.334 27.1309 108.378 27.0215 108.402C25.1214 108.927 23.9154 110.054 22.7413 111.151L22.7356 111.156C21.4823 112.332 20.2909 113.446 18.4652 113.446H18.4342C17.738 113.446 17.0417 113.106 16.4847 112.518C15.7575 111.744 15.3552 110.676 15.4326 109.717C15.5099 108.588 15.9277 107.675 16.624 107.056C17.181 106.561 17.9082 106.283 18.6044 106.283H18.6509C19.1924 106.283 19.7494 106.484 20.1826 106.84C20.523 107.103 20.9253 107.598 20.9717 108.356C21.0027 108.959 20.8015 109.516 20.4302 109.841C20.3219 109.934 19.7339 110.413 18.7746 110.212C18.3414 110.12 17.9855 109.764 17.7999 109.47C17.6761 109.253 17.5832 109.006 17.4904 108.758C17.4595 108.696 17.3976 108.634 17.3047 108.65C17.2119 108.65 17.1345 108.804 17.1191 109.021C17.0727 109.702 17.5368 110.785 18.7127 111.094C20.6468 111.62 21.6216 110.212 21.8382 109.624C22.0703 108.99 22.0857 108.619 22.0857 108.619C22.0857 108.603 22.1012 108.541 22.1476 108.526C22.1941 108.51 22.225 108.557 22.2559 108.603C22.3488 108.758 22.8439 109.037 23.2771 108.928C23.7325 108.822 23.9347 108.433 24.1321 108.053L24.1436 108.031C24.3293 107.675 24.4995 107.35 24.8708 107.288C25.2892 107.216 25.4386 107.279 25.5195 107.312C25.5254 107.315 25.5309 107.317 25.5361 107.319C25.5825 107.35 25.598 107.35 25.6908 107.288C25.7682 107.226 25.7527 107.164 25.7373 107.103C25.6444 106.871 25.2112 106.546 24.6078 106.561C24.0043 106.592 23.8032 106.762 23.5556 106.979C23.4009 107.118 23.2462 107.242 22.9986 107.35C22.4138 107.607 22.092 107.548 22.0331 107.537C22.0282 107.536 22.0251 107.536 22.0239 107.536H22.0084V107.52C22.0076 107.52 22.004 107.513 21.9977 107.501C21.8799 107.284 20.8008 105.292 18.4961 105.292H18.4807C17.15 105.308 16.4073 105.849 16.1598 106.035L16.1444 106.047C16.0802 106.099 16.0648 106.111 16.036 106.097C16.0294 106.09 16.0256 106.087 16.0235 106.082C16.0205 106.076 16.0205 106.068 16.0205 106.051C16.0515 105.942 15.8813 105.323 15.7575 105.076C15.6182 104.782 15.2469 104.627 15.1386 104.612C15.2314 104.705 15.3707 105.045 15.3397 105.494C15.3092 105.876 15.2333 106.046 15.1121 106.319L15.1077 106.329ZM18.4577 93.9669C18.4531 93.9671 18.4504 93.9673 18.4497 93.9673C16.4692 94.1375 14.4423 95.5763 14.3804 98.3922C14.2876 101.192 15.8349 102.771 17.3202 103.312C19.1076 103.963 20.1387 103.606 20.2248 103.577L20.229 103.575C20.2755 103.56 20.3219 103.575 20.3528 103.606C20.3838 103.652 20.3838 103.699 20.3683 103.73L20.3528 103.745C20.3335 103.767 20.3106 103.792 20.2848 103.82C20.104 104.018 19.7823 104.37 19.5792 104.627C19.7494 104.643 19.966 104.72 20.1207 104.782C20.3536 104.884 20.4359 104.931 20.5349 104.988L20.554 104.998C21.111 104.194 21.8537 103.467 22.7665 102.863C23.4783 102.384 24.6542 101.935 25.8146 101.672L25.9384 101.641L25.8456 101.719C25.5052 101.982 25.2576 102.26 25.0255 102.647C24.747 103.142 24.5304 103.823 24.5923 104.024C24.5923 104.055 24.6078 104.055 24.6078 104.055C24.6701 104.081 24.6966 104.093 24.7166 104.086C24.7314 104.081 24.7428 104.065 24.7625 104.039C24.7689 104.03 24.7754 104.019 24.7822 104.008C24.8083 103.966 24.8405 103.915 24.9017 103.854C24.9946 103.761 25.0719 103.714 25.1493 103.714C25.1957 103.714 25.2576 103.745 25.2886 103.776L25.304 103.792C25.3587 103.833 25.353 103.886 25.3403 104.004C25.3386 104.02 25.3368 104.037 25.335 104.055C25.2886 104.333 25.2112 104.828 25.4742 105.231C25.8146 105.772 26.1241 106.128 26.2943 106.159C26.3046 106.169 26.3149 106.166 26.3252 106.162C26.3304 106.161 26.3355 106.159 26.3407 106.159C26.3562 106.143 26.418 106.081 26.3562 105.772C26.2943 105.447 26.1241 104.318 26.3097 103.529C26.5263 102.538 27.1607 101.595 27.9653 101.595H28.0427V100.697C27.8879 100.697 27.0834 100.636 26.6037 100.14C26.3562 99.8774 26.2324 99.537 26.2478 99.1348C26.2788 98.2684 26.6811 97.7423 27.0215 97.3865C27.0834 97.3246 27.2381 97.1544 27.1917 97.0461C27.1452 96.9533 27.0834 96.9224 26.9751 96.9069H26.9441C26.5573 96.9069 25.8765 97.3865 25.6599 97.6959C25.4159 98.0404 25.2784 98.4647 25.2351 98.5984C25.2317 98.6088 25.2289 98.6175 25.2267 98.6242C25.222 98.6289 25.2173 98.635 25.2122 98.6417C25.2004 98.657 25.1863 98.6753 25.1648 98.6861C25.0719 98.7325 24.8708 98.7016 24.7161 98.5314C24.5923 98.3922 24.5923 98.1446 24.5923 98.0982V98.0208H24.5459C24.5149 98.0208 24.453 98.0363 24.3911 98.1291C24.2519 98.3612 24.3602 99.4287 24.7934 100.017C24.9104 100.179 25.017 100.32 25.11 100.443C25.1769 100.531 25.2368 100.611 25.2886 100.682L25.3195 100.713L25.2731 100.728C24.9636 100.775 24.6542 100.868 24.3602 100.96C23.9261 101.114 23.4539 101.307 23.0011 101.491C22.9536 101.51 22.9063 101.529 22.8594 101.548C22.2714 101.796 21.6525 102.043 21.0955 102.214C19.4399 102.74 18.1248 102.693 17.2738 102.105C16.4383 101.533 15.448 100.434 15.479 98.5623C15.4945 97.6031 15.9122 96.5975 16.593 95.9322C17.1655 95.3597 17.8927 95.0658 18.6818 95.0658H18.7592C20.8479 95.1122 21.5597 96.4118 21.5442 97.5103C21.5133 98.5623 20.9253 99.2276 19.9505 99.3204C19.3007 99.3823 18.8056 98.9646 18.6509 98.5159C18.5588 98.2791 18.545 98.0424 18.5334 97.8436C18.5314 97.8086 18.5294 97.7748 18.5271 97.7423C18.5271 97.5257 18.5116 97.3556 18.4342 97.2937C18.3878 97.2627 18.3569 97.2473 18.3259 97.2627C18.2331 97.2782 18.1403 97.402 18.0784 97.5412C17.8463 98.1137 17.8618 98.748 18.1248 99.305C18.4188 99.8929 19.2079 100.434 20.1981 100.326C21.2038 100.202 21.9774 99.6453 22.3642 98.7325C22.6273 98.1446 22.6582 97.7888 22.6273 97.4174C22.6231 97.3881 22.62 97.3587 22.6169 97.3284C22.6084 97.247 22.5992 97.1589 22.5654 97.0461C22.5654 97.0307 22.5654 96.9997 22.5809 96.9688C22.6118 96.9378 22.6273 96.9224 22.6582 96.9224C22.6737 96.9224 23.3545 96.7986 23.7722 96.2107C24.5304 95.1431 24.2519 94.5552 24.1436 94.4005C24.0507 94.2613 23.9579 94.2149 23.927 94.2303C23.8989 94.2303 23.8708 94.3451 23.8543 94.4125C23.8526 94.4194 23.851 94.4258 23.8496 94.4315L23.8472 94.4408C23.7699 94.7345 23.6579 95.1604 23.0915 95.3288C22.5932 95.4798 22.257 95.2477 21.8242 94.9489L21.7918 94.9265C21.4978 94.7099 21.1574 94.4779 20.6777 94.2922C19.6411 93.8924 18.5619 93.9603 18.4577 93.9669Z" fill="white"/>
<path fill-rule="evenodd" clip-rule="evenodd" d="M157.053 123.008C154.778 122.234 152.133 117.608 150.199 114.22L150.068 113.992C149.03 112.178 148.193 110.716 147.584 110.151C150.895 108.898 152.86 106.33 152.86 103.22C152.86 98.5168 149.177 95.4844 143.484 95.4844C143.119 95.4844 142.552 95.4971 141.931 95.5109L141.735 95.5153C141.467 95.5206 141.184 95.5276 140.903 95.5347L140.902 95.5347C140.356 95.5483 139.817 95.5617 139.399 95.5617C137.681 95.5617 136.97 95.5617 135.639 95.4844C135.608 95.4844 135.577 95.4998 135.546 95.5153C135.515 95.5463 135.5 95.5772 135.5 95.6081V95.7938C135.5 95.8557 135.546 95.9021 135.608 95.9176C136.939 96.1187 137.387 96.6293 137.387 99.2594V119.697C137.387 122.74 136.878 122.822 135.537 123.038L135.531 123.039C135.469 123.054 135.422 123.101 135.422 123.163V123.348C135.422 123.379 135.438 123.41 135.469 123.441C135.5 123.472 135.531 123.488 135.562 123.472L135.681 123.467L135.682 123.467C136.461 123.437 137.525 123.395 138.966 123.395C140.575 123.395 141.89 123.441 142.37 123.472C142.4 123.472 142.431 123.457 142.462 123.441C142.493 123.41 142.509 123.379 142.509 123.348V123.163C142.509 123.101 142.462 123.054 142.4 123.039L142.394 123.038C141.053 122.822 140.544 122.74 140.544 119.697V111.033H142.927C143.36 111.033 143.901 110.987 144.536 110.894C145.223 111.52 146.001 112.975 146.482 113.876L146.501 113.911C146.553 114.001 146.598 114.087 146.64 114.166C146.684 114.25 146.724 114.327 146.764 114.39C151.359 122.853 151.87 123.364 156.016 123.519C156.496 123.519 156.651 123.519 157.006 123.488C157.068 123.488 157.115 123.426 157.115 123.364V123.132C157.146 123.085 157.099 123.039 157.053 123.008ZM149.317 103.715C149.317 107.985 147.089 109.981 142.308 109.981H140.559V96.9542C141.673 96.6602 142.416 96.5983 143.251 96.5983C146.934 96.6138 149.317 99.3986 149.317 103.715Z" fill="white"/>
<path d="M73.718 100.589C73.718 103.885 76.2245 105.571 78.8703 107.35L78.8712 107.351C81.8417 109.347 84.9045 111.404 84.9045 115.875C84.9045 120.346 81.6399 123.472 76.9672 123.472C75.6077 123.472 74.6403 123.26 73.797 123.076L73.7644 123.069L73.6215 123.039C72.9489 122.895 72.3179 122.76 71.5518 122.76C71.3352 122.76 71.2269 122.76 71.0103 122.791C70.9793 122.806 70.9329 122.791 70.902 122.76C70.871 122.729 70.8556 122.698 70.871 122.652C70.902 122.481 70.902 122.048 70.902 121.723C70.902 121.32 70.8587 120.946 70.814 120.558L70.8091 120.517C70.7627 120.083 70.7163 119.65 70.7163 119.171C70.7163 118.861 70.7473 117.747 71.1805 116.803C71.2114 116.757 71.2578 116.726 71.3043 116.726H71.4899C71.5209 116.726 71.5518 116.742 71.5828 116.772C71.5982 116.788 71.6137 116.834 71.6137 116.865L71.5982 116.989L71.5931 117.035C71.5639 117.297 71.5364 117.544 71.5364 117.778C71.5364 120.749 74.4452 122.296 77.3076 122.296C79.7832 122.296 82.2897 120.795 82.2897 117.453C82.2897 113.911 79.6598 112.162 76.8904 110.321C74.0125 108.403 71.0258 106.407 71.0258 102.245C71.0258 98.2996 73.9346 95.5303 78.0967 95.5303C79.2477 95.5303 80.1736 95.6992 80.9951 95.849L81.2414 95.8939C81.8742 96.0095 82.4697 96.1182 83.0788 96.1182C83.3109 96.1182 83.4811 96.1182 83.6977 96.0872C83.7286 96.0872 83.7751 96.0872 83.806 96.1182C83.8369 96.1491 83.8524 96.1955 83.8524 96.2265C83.7751 97.0619 83.7441 97.7117 83.7441 98.64C83.7441 99.1815 83.7441 100.11 83.7751 100.651C83.7751 100.682 83.7751 100.713 83.7441 100.744C83.7132 100.775 83.6822 100.791 83.6513 100.791H83.4347C83.3728 100.791 83.3264 100.744 83.3109 100.682C82.7693 97.9747 81.0055 96.5514 78.174 96.5514C74.8939 96.5514 73.718 98.64 73.718 100.589Z" fill="white"/>
<path fill-rule="evenodd" clip-rule="evenodd" d="M106.271 109.701C106.271 102.755 111.532 95.5605 120.32 95.5605C127.979 95.5605 133.983 101.718 133.983 109.593C133.983 117.375 127.84 123.471 120.011 123.471C111.408 123.471 106.271 116.478 106.271 109.701ZM120.011 122.357C126.308 122.357 130.223 117.545 130.223 109.81C130.223 100.078 124.73 96.6281 120.011 96.6126C112.662 96.6126 110.062 103.606 110.062 109.578C110.062 117.576 113.776 122.357 120.011 122.357Z" fill="white"/>
<path d="M107.184 95.5767C107.2 95.6076 107.215 95.654 107.2 95.685C106.875 96.7061 106.426 98.5317 106.333 99.1506C106.318 99.2125 106.271 99.2589 106.21 99.2589H105.977C105.947 99.2589 105.916 99.2434 105.885 99.2125C105.869 99.1815 105.854 99.1351 105.869 99.1042C105.9 98.9649 105.947 98.7483 105.947 98.5627C105.947 97.5415 105.034 97.2785 98.2103 97.2785V119.712C98.2103 122.757 98.7044 122.837 100.032 123.053L100.036 123.054C100.098 123.069 100.144 123.116 100.144 123.178V123.363C100.144 123.394 100.129 123.425 100.098 123.456C100.067 123.472 100.036 123.487 100.005 123.487C99.51 123.456 98.2258 123.41 96.6321 123.41C95.218 123.41 94.1748 123.451 93.3989 123.482L93.2591 123.487C93.2281 123.487 93.1972 123.487 93.1662 123.456C93.1353 123.425 93.1198 123.394 93.1198 123.363V123.178C93.1198 123.116 93.1662 123.069 93.2281 123.054L93.2324 123.053C94.5598 122.837 95.0539 122.757 95.0539 119.712V97.2785C89.097 97.2785 87.2867 97.294 86.1726 99.6457C86.1572 99.6921 86.1107 99.723 86.0643 99.723H85.8787C85.8477 99.723 85.8168 99.7075 85.7858 99.6766C85.7549 99.6457 85.7549 99.5992 85.7549 99.5683C85.8722 98.9819 86.0334 98.4175 86.2015 97.8288C86.233 97.7185 86.2647 97.6074 86.2964 97.4951C86.35 97.2968 86.4074 97.0947 86.4665 96.8863C86.578 96.4934 86.6958 96.0781 86.807 95.6231C86.8225 95.5612 86.8689 95.5303 86.9308 95.5303C95.5954 95.7159 105.235 95.5612 107.076 95.5303C107.122 95.5303 107.153 95.5457 107.184 95.5767Z" fill="white"/>
<path d="M68.4106 95.5146C67.6525 95.5456 66.1517 95.592 64.852 95.592C63.4904 95.592 61.9586 95.5611 61.154 95.5146C61.1231 95.5146 61.0921 95.5301 61.0612 95.5456C61.0302 95.5765 61.0148 95.6075 61.0148 95.6384V95.8241C61.0148 95.886 61.0612 95.9324 61.1231 95.9478L61.1482 95.9519C62.4802 96.1661 63.3511 96.3062 63.3511 99.1659V115.751C63.3511 118.876 61.8348 122.249 59.3592 122.249C58.9105 122.249 58.4773 122.218 58.0595 122.141C56.3421 121.723 55.2899 120.547 54.6401 119.712C54.5936 119.65 54.551 119.592 54.5084 119.534C54.4659 119.476 54.4234 119.418 54.3771 119.356C53.6653 118.335 53.3404 117.422 53.3404 117.391C53.3095 117.314 53.2321 117.267 53.1393 117.283C53.0464 117.298 53 117.391 53 117.469L53.5725 121.831C53.5725 121.893 53.6034 121.94 53.6498 121.971C55.2435 122.992 57.2395 123.301 57.6263 123.332C58.2607 123.425 58.7713 123.456 59.1116 123.456C59.3097 123.456 59.4384 123.446 59.4899 123.442C59.5028 123.441 59.5108 123.44 59.5139 123.44C63.6142 123.44 66.3683 120.176 66.3683 115.333V99.1659C66.3683 96.3843 67.0475 96.2421 68.3751 95.9643L68.3797 95.9633L68.4571 95.9478C68.519 95.9324 68.5654 95.886 68.5654 95.8241V95.6384C68.5654 95.6075 68.5499 95.5765 68.519 95.5456C68.488 95.5301 68.4571 95.5146 68.4106 95.5146Z" fill="white"/>
<path fill-rule="evenodd" clip-rule="evenodd" d="M11.8613 59.5842V24H47.9508V59.5842H11.8613ZM20.4396 26.8488C19.3229 26.3989 18.2062 26.4989 18.2062 26.4989C16.2773 26.6989 14.247 28.1482 14.247 31.1469C14.1454 33.9456 15.719 35.4949 17.191 36.0447C18.838 36.6302 19.8252 36.3633 20.0412 36.3048C20.0648 36.2985 20.0792 36.2946 20.0842 36.2946C20.135 36.2946 20.135 36.2946 20.1858 36.3445V36.4445C20.1259 36.5231 20.0269 36.6326 19.9163 36.7546C19.7457 36.9432 19.5476 37.1621 19.4244 37.3441C19.6274 37.3441 19.8304 37.4441 19.9827 37.494L20.3888 37.694C20.8964 36.8943 21.6578 36.1447 22.5714 35.5449C23.282 35.0452 24.4495 34.5953 25.6169 34.3455L25.7184 34.2954L25.6169 34.3954C25.2617 34.6953 25.0586 34.9452 24.8048 35.345C24.5002 35.7948 24.2972 36.4945 24.348 36.6943C24.4151 36.7274 24.4379 36.7386 24.4603 36.728C24.4717 36.7225 24.4831 36.7113 24.5002 36.6943C24.551 36.6444 24.6018 36.5945 24.6525 36.4945C24.754 36.3945 24.8048 36.3445 24.9063 36.3445C24.9571 36.3445 25.0079 36.3445 25.0586 36.3945C25.1602 36.4445 25.1094 36.4945 25.1094 36.6444C25.0586 36.8943 25.0079 37.394 25.2617 37.7939C25.6169 38.3436 25.9215 38.6935 26.0738 38.7435H26.1246C26.1246 38.7435 26.1753 38.6436 26.1246 38.3436C26.0738 37.9938 25.9215 36.8943 26.0738 36.0946C26.3276 35.0951 26.9367 34.1455 27.7488 34.1455H27.7996V33.2458C27.6473 33.2458 26.8351 33.1959 26.3784 32.6962C26.1246 32.4463 26.023 32.0964 26.023 31.6965C26.023 30.8469 26.4291 30.2972 26.7844 29.9474C26.8351 29.8973 26.9874 29.6975 26.9367 29.5975C26.8859 29.4976 26.8351 29.4476 26.7336 29.4476H26.6829C26.2768 29.4476 25.6169 29.9474 25.4139 30.2472C25.1822 30.5515 25.068 30.8848 25.0043 31.0707C24.9843 31.129 24.9692 31.1729 24.9571 31.1968C24.9571 31.1968 24.9571 31.2188 24.9423 31.2335C24.9348 31.2411 24.9235 31.2468 24.9063 31.2468C24.8048 31.2968 24.6018 31.2468 24.4495 31.0968C24.348 30.9469 24.348 30.697 24.348 30.6471V30.5471H24.2972C24.2972 30.5471 24.1957 30.5471 24.145 30.6471C23.9927 30.897 24.145 31.9465 24.551 32.5463C24.6343 32.6488 24.7091 32.7513 24.7788 32.8469C24.879 32.9844 24.9688 33.1075 25.0586 33.1959L24.9571 33.2458H24.9063C24.6018 33.2959 24.2972 33.3959 23.9927 33.4958L22.4699 34.0956C22.0972 34.2484 21.7245 34.3827 21.3635 34.5096C21.1345 34.5901 20.9101 34.6676 20.6934 34.7452C19.0691 35.295 17.7493 35.245 16.8865 34.6453C16.0743 34.0455 15.0591 32.946 15.1099 31.0968C15.1099 30.0973 15.5667 29.0978 16.2266 28.448C16.7849 27.8983 17.4955 27.5984 18.3077 27.5984H18.4092C20.4903 27.6484 21.2009 28.9478 21.2009 30.0474C21.2009 31.0968 20.5919 31.7466 19.6274 31.8466C19.0183 31.8965 18.5107 31.4967 18.3585 31.0469C18.257 30.7471 18.257 30.4471 18.257 30.2472C18.257 30.1688 18.257 30.0903 18.2509 30.0209C18.2413 29.9135 18.2171 29.8278 18.1554 29.7975C18.1263 29.7688 18.1139 29.7566 18.099 29.7513C18.088 29.7474 18.0756 29.7474 18.0539 29.7474C17.9524 29.7975 17.8509 29.8973 17.8001 30.0474C17.597 30.597 17.597 31.2468 17.8509 31.7965C18.1554 32.3962 18.9675 32.946 19.9319 32.8461C20.9471 32.6962 21.7086 32.1464 22.1146 31.2468C22.3684 30.6471 22.4191 30.2972 22.3684 29.9474C22.3684 29.8474 22.3684 29.7474 22.3176 29.5975V29.4976C22.3176 29.4476 22.3176 29.4476 22.3684 29.4476C22.4191 29.4476 23.079 29.3477 23.4851 28.7479C24.2465 27.6984 23.9419 27.0986 23.8404 26.9487C23.7389 26.8488 23.6881 26.7987 23.6374 26.7987C23.6374 26.7987 23.5866 26.9487 23.5866 26.9987C23.5358 27.2485 23.4343 27.6984 22.8252 27.8983C22.3842 28.0431 22.0377 27.8152 21.6032 27.5293L21.5563 27.4984C21.2517 27.2485 20.8964 27.0487 20.4396 26.8488ZM14.9069 38.8434C14.8561 38.9934 14.8054 39.1433 14.7038 39.3433C14.247 40.4927 14.1454 41.0924 13.9932 42.3419C13.9932 43.6414 14.3993 44.8907 15.2114 45.7904C15.9728 46.64 16.988 47.1398 18.1047 47.1897C19.6782 47.2897 21.0486 46.2902 21.5563 45.9403C22.3176 45.3905 23.7896 43.8912 23.7896 43.8912L23.8404 43.8412V43.8912C23.8404 43.8912 24.2972 44.6908 24.8048 44.8907C25.1602 45.0907 25.6169 44.9907 25.82 44.9407C25.9215 44.9407 25.9215 44.8907 25.9215 44.8907L25.82 44.7908C25.7986 44.7697 25.7737 44.7463 25.7465 44.7207C25.515 44.5032 25.104 44.1172 25.0586 43.4913C25.0079 42.7417 26.4799 42.092 27.5458 41.8921L27.5966 40.8926C27.4951 40.8926 26.8351 40.9425 26.6829 40.9924C24.808 41.4915 23.5908 42.6378 22.425 43.7357L22.4191 43.7412C21.1502 44.9407 19.9827 46.0403 18.1554 46.0403H18.1047C17.4448 46.0403 16.7342 45.6904 16.1758 45.0907C15.4144 44.3409 15.0591 43.2415 15.1099 42.2919C15.2114 41.1924 15.6175 40.2428 16.3281 39.6431C16.8865 39.1932 17.597 38.8934 18.3077 38.8934H18.3585C18.9168 38.8934 19.4752 39.0933 19.8812 39.4431C20.2365 39.693 20.6426 40.1929 20.6934 40.9425C20.7441 41.5422 20.5411 42.092 20.1858 42.4419C20.1577 42.4512 20.1157 42.4757 20.0599 42.5083C19.8135 42.6525 19.2971 42.9547 18.5107 42.7916C18.1047 42.6918 17.7493 42.3419 17.5463 42.042C17.4448 41.842 17.3433 41.5922 17.2418 41.3423C17.191 41.2924 17.1403 41.2423 17.0387 41.2423C16.9372 41.2924 16.8357 41.4423 16.8357 41.6422C16.7849 42.2919 17.2418 43.3914 18.4092 43.6913C20.3381 44.191 21.3025 42.7916 21.5055 42.1919C21.7593 41.5422 21.7593 41.1924 21.7593 41.1924C21.7593 41.1425 21.7593 41.0924 21.8101 41.0924C21.8608 41.0924 21.9116 41.1425 21.9116 41.1924C22.0131 41.3423 22.5207 41.5922 22.9268 41.4923C23.3835 41.3923 23.5866 40.9924 23.7896 40.5927C23.9419 40.2428 24.145 39.8929 24.5002 39.843C24.9571 39.793 25.0586 39.843 25.1602 39.8929C25.1763 39.8929 25.1873 39.8929 25.198 39.8914C25.2211 39.8879 25.2431 39.8771 25.3124 39.843C25.3477 39.8256 25.3646 39.8021 25.3716 39.7769C25.3847 39.7295 25.3632 39.6757 25.3632 39.6431C25.2617 39.3932 24.8556 39.0933 24.2465 39.0933C23.6811 39.0933 23.4656 39.2655 23.2346 39.4501L23.1805 39.4932C23.0828 39.5574 22.9851 39.6421 22.8605 39.7209C22.791 39.765 22.7131 39.8073 22.6222 39.843C22.0131 40.1428 21.6578 40.0428 21.6578 40.0428C21.6578 39.9929 20.5919 37.7939 18.1554 37.7939C16.8865 37.7939 16.1251 38.3436 15.8713 38.5436C15.8205 38.5935 15.7698 38.5935 15.7698 38.5935V38.5436C15.8205 38.3937 15.6175 37.7939 15.5159 37.5439C15.3637 37.2441 15.0084 37.0942 14.9069 37.0942C15.0084 37.1942 15.1606 37.5439 15.1099 37.9938C15.1099 38.3937 15.0084 38.5436 14.9069 38.8434ZM16.7342 44.5409C16.7849 44.6409 17.5463 45.1406 17.8509 45.1907C17.8509 45.1907 17.8367 45.0516 17.8383 44.8616C17.8397 44.6913 17.8536 44.48 17.9016 44.291C17.9016 44.291 17.2925 43.9912 16.8865 43.3414C16.7849 43.6913 16.7342 44.291 16.7342 44.5409ZM18.1554 39.5431C18.0031 39.743 17.7493 40.1929 17.6986 40.6426C17.9524 41.3923 18.257 41.6921 18.46 41.7422L18.524 41.5361C18.7067 40.9468 18.898 40.3298 19.1706 39.793C19.1198 39.743 18.7137 39.4431 18.1554 39.5431ZM17.2418 56.6355C17.394 56.7855 18.2062 55.8859 18.7137 54.8363C19.2214 53.7869 19.3737 52.6873 19.1706 51.6378C19.1271 51.1676 18.8239 50.5148 18.61 50.0543C18.5739 49.9763 18.5402 49.9038 18.5107 49.8386C19.0691 50.1884 19.7289 50.3883 20.1858 50.4883C21.5055 50.7382 22.7237 50.7881 23.5866 50.5883C23.8938 50.5278 24.1183 50.4592 24.2836 50.4087C24.528 50.334 24.6428 50.2988 24.7033 50.3883C24.8048 50.5382 24.348 51.0381 22.7237 51.288C21.0486 51.5878 20.0335 51.188 20.0335 51.188C20.0335 51.188 20.0335 51.5378 20.6426 51.9877C20.9078 52.2053 21.1346 52.3376 21.3354 52.4548C21.5957 52.6068 21.8125 52.7333 22.0131 52.9872C22.226 53.2267 22.2384 53.4663 22.2469 53.6306C22.2526 53.7406 22.2566 53.8168 22.3176 53.8368C22.4143 53.8606 22.465 53.7823 22.5134 53.6615C22.5667 53.5286 22.6174 53.3441 22.7237 53.1871C22.9268 52.7373 22.7745 52.3374 22.7745 52.3374C22.7745 52.3374 23.3835 52.8373 24.551 52.7373C25.3632 52.6373 25.8707 52.4874 25.82 52.3374C25.7914 52.2529 25.7306 52.2478 25.6013 52.2416C25.5011 52.2367 25.3597 52.2312 25.1602 52.1875C24.7033 52.1376 24.551 51.9376 24.551 51.9376C24.551 51.9376 25.3124 51.6877 26.1753 51.088C27.0382 50.4883 27.5966 49.7386 27.4951 49.5387C27.4178 49.4626 27.2885 49.4766 27.1202 49.5217C26.9564 49.5657 26.7559 49.6393 26.5306 49.6886C25.9215 49.8386 25.7184 49.8386 25.7184 49.8386C25.7184 49.8386 25.6677 49.7386 25.9215 49.4387C26.1061 49.205 26.2908 49.0927 26.4255 49.0107C26.5501 48.9349 26.6321 48.885 26.6321 48.7891C26.5814 48.5891 26.023 48.3892 24.551 49.0389C23.9927 49.2888 23.4343 49.6387 23.4343 49.6387C23.4343 49.6387 23.6374 48.939 23.7389 48.4891C23.8404 47.9894 23.9927 47.1398 23.8404 47.0897C23.7548 47.0616 23.7334 47.0967 23.6679 47.2037C23.6169 47.2872 23.5391 47.4144 23.3835 47.5896L23.3162 47.6731C23.1567 47.8718 23.0671 47.9835 22.9775 47.9395C22.8848 47.9091 22.8673 47.8047 22.845 47.6713C22.8306 47.5854 22.8142 47.4875 22.7745 47.3896C22.673 47.1398 22.4699 46.7899 22.3684 46.8398C22.2798 46.8834 22.2105 47.1746 22.1268 47.5262C22.0187 47.9803 21.8867 48.5355 21.6578 48.7891C21.5055 48.939 21.3532 49.0389 21.1502 49.0889C20.8456 49.1888 20.5411 49.2388 20.2365 49.2388C20.0023 49.2388 19.7679 49.1954 19.5337 49.1372C19.4127 49.1071 19.2916 49.073 19.1706 49.0389L19.1138 49.0151C18.7485 48.8624 18.1346 48.6058 17.7493 47.9894L17.6986 47.8894C17.3433 47.8395 16.988 47.7395 16.5311 47.5396C16.6834 47.8894 16.8357 48.2893 16.988 48.639C17.4448 49.7386 18.1047 51.6877 17.4955 53.1871C16.7342 54.9863 15.0084 55.3362 14.8054 54.9363C14.7475 54.8033 14.9168 54.7209 15.1908 54.5876C15.6379 54.37 16.3636 54.0167 16.8357 53.0872C17.4448 51.8877 16.988 50.3384 16.988 50.3384C16.988 50.3384 16.988 51.6378 16.0236 52.5374C15.2127 53.2994 14.616 53.2446 14.2916 53.215C14.1693 53.2037 14.0856 53.196 14.0439 53.2371C13.8409 53.387 14.1454 53.4869 14.3993 53.6368C14.6023 53.7368 14.9069 53.8368 14.9069 53.8368C14.9069 53.8368 14.6023 54.1367 14.1454 54.3365C14.0246 54.396 13.9172 54.4467 13.826 54.4924C13.6108 54.6005 13.4856 54.681 13.4856 54.7864C13.4856 54.8864 14.0439 55.436 14.6023 55.686C15.1606 55.9359 15.8205 55.9858 15.8205 55.9858C15.8205 55.9858 15.8713 55.9359 15.6682 56.2357C15.4652 56.5856 15.2621 56.6855 15.3637 56.8354C15.4652 57.0354 15.6175 56.9854 16.4296 56.4856C17.2418 55.9858 17.4448 55.686 17.4448 55.686C17.4448 55.686 17.4448 55.7126 17.4308 55.7797C17.4178 55.8424 17.3924 55.9407 17.3433 56.0858C17.3229 56.2061 17.2781 56.3021 17.2415 56.3806C17.1868 56.4979 17.1505 56.5757 17.2418 56.6355ZM21.1502 57.1354C21.1502 57.1354 23.8912 57.5352 25.3124 57.2853C26.5814 57.0354 27.6473 56.7355 29.0685 55.5861C30.5913 54.2366 31.1497 52.3374 31.4034 51.3379C31.7588 49.8885 31.708 47.2397 31.708 47.2397V33.3959C31.708 33.3959 31.6065 30.3972 31.8095 29.6475C32.0633 28.8978 32.5201 28.348 32.7739 28.0482C33.3831 27.3984 34.652 27.1986 34.652 27.1986C35.0073 27.1486 35.1088 26.9987 35.0581 26.7987C35.0073 26.4989 34.8043 26.4989 34.8043 26.4989H25.6169C25.6169 26.4989 25.3632 26.4989 25.4139 26.7488C25.3632 26.8987 25.4647 27.0986 25.82 27.1486C25.82 27.1486 27.089 27.3984 27.6981 27.9983C28.0026 28.2981 28.4595 28.8479 28.6625 29.5975C28.8655 30.3472 28.764 33.3458 28.764 33.3458L28.561 47.1897C28.561 47.2811 28.5621 47.4177 28.5636 47.5869C28.5717 48.5278 28.5885 50.4755 28.4595 51.2379C28.2564 52.5374 27.9518 53.5869 27.1397 54.4365C26.3276 55.2861 25.5662 55.536 24.5002 55.536C23.4343 55.536 22.7237 55.2362 21.9623 54.6365C21.2009 54.0367 19.7289 52.6873 19.7289 52.6873L21.1502 57.1354ZM35.8195 48.839C34.7028 48.939 33.8906 48.0894 33.7891 47.1398C33.7383 46.64 33.8906 46.1902 34.1952 45.9403C34.5505 45.4905 35.0581 45.2406 35.4134 45.1907C35.8524 45.1426 36.1975 45.2791 36.449 45.3785L36.4793 45.3905C36.5281 45.4065 36.5768 45.4276 36.6223 45.4473C36.7187 45.4891 36.8001 45.5244 36.8347 45.4905C36.9362 45.4406 36.9362 45.2905 36.8854 45.1406C36.8325 45.0365 36.7659 44.9325 36.6855 44.8354C36.6115 44.7462 36.5259 44.6628 36.4286 44.5909C36.1748 44.391 35.8195 44.3409 35.4134 44.3409C34.246 44.391 33.5861 45.2905 33.4338 45.4905C33.4196 45.4764 33.4053 45.4585 33.3887 45.4376C33.3464 45.3844 33.2894 45.3125 33.18 45.2406C32.9262 45.0907 32.7232 45.0406 32.6216 45.1406C32.5927 45.1692 32.5968 45.1978 32.6151 45.2356C32.6289 45.264 32.6506 45.2977 32.6724 45.3406C32.7232 45.4406 32.8755 45.5905 32.9262 45.7904C33.0012 45.938 32.9931 46.1129 32.9838 46.3152C32.9805 46.3867 32.977 46.4617 32.977 46.54C32.977 46.6085 32.9744 46.6874 32.9715 46.7731C32.9617 47.0629 32.9494 47.431 33.0277 47.7395C33.2308 48.7891 34.1952 49.8386 35.6672 49.8885C35.7379 49.8885 35.8085 49.8885 35.8792 49.8835C35.9608 49.8778 36.0424 49.8654 36.124 49.8386C36.7839 49.6387 37.1899 49.2888 37.4945 48.939C37.5453 48.939 37.5453 48.939 37.596 48.9889C37.8499 49.1888 38.3574 49.5886 38.7127 49.7886C38.8143 49.4387 38.865 48.9889 38.865 48.739C38.7635 48.6891 38.2051 48.2893 37.393 47.4396C36.6824 46.74 36.4793 46.49 36.4793 46.49C36.3778 46.3901 35.921 46.0403 35.4642 46.0403C35.0581 46.0403 34.9058 46.1403 34.9058 46.1403L35.0073 46.2902C35.0581 46.3401 35.2611 46.64 35.6672 47.1398C36.0369 47.5847 36.4399 47.9642 36.6609 48.1724C36.7129 48.2213 36.7548 48.2607 36.7839 48.2893L36.8854 48.3392C36.6316 48.5891 36.2763 48.7891 35.8195 48.839ZM32.977 36.6943C32.977 36.6943 32.8755 37.3441 33.0785 38.7435C33.18 39.4932 33.3323 40.1929 33.4846 40.5427L34.4998 40.0929C34.4832 40.0115 34.4505 39.8929 34.4104 39.7476C34.3275 39.4468 34.2129 39.0315 34.1444 38.5935C33.9922 37.7439 34.0429 37.5439 34.0429 37.5439C33.8399 37.3441 33.2816 36.7943 32.977 36.6943ZM32.6724 35.6948C32.6724 35.6948 33.2308 35.8447 33.9414 36.4945C34.3983 36.8943 34.8043 37.3441 35.1088 37.7439L35.3119 36.4945C35.2155 36.3995 35.1191 36.2946 35.0179 36.1844C34.7993 35.9465 34.5582 35.6841 34.246 35.4449C33.7891 35.0452 33.0277 34.6453 32.6724 34.4954V35.6948ZM43.6871 56.8354C44.55 56.5856 45.1083 55.9359 45.4129 54.9363C45.5652 54.5365 45.5652 53.9867 45.4129 53.337C45.3113 52.9872 44.9561 52.1875 43.7886 51.4379C43.2331 51.0862 42.6155 50.8873 42.3239 50.7933C42.2425 50.7671 42.1865 50.749 42.1643 50.7382C42.3552 50.287 42.661 50.1187 42.8008 50.0417C42.8469 50.0164 42.8749 50.0009 42.8749 49.9885C42.8749 49.9385 42.5197 49.7386 42.1643 49.8386C41.8597 49.8885 41.5552 50.1884 41.4537 50.3384C41.403 50.5382 41.3522 50.6882 41.1999 51.188C41.5045 51.3379 42.3166 51.6877 42.7227 51.8877C43.8394 52.4374 44.3469 53.0371 44.55 53.7368C44.6515 54.0867 44.6515 54.3866 44.55 54.6864C44.2962 55.636 43.4841 56.2357 42.6719 56.0358C42.1643 55.9359 41.7582 55.636 41.5552 55.2861C41.403 54.9863 41.3522 54.6365 41.5045 54.2866C41.606 53.9867 41.7582 53.8867 41.9105 53.8368C42.1136 53.7869 42.3166 53.7869 42.4689 53.8867C42.8242 54.0367 42.8242 54.2866 42.8242 54.4865C42.8242 54.5265 42.8242 54.5665 42.8274 54.6033C42.8323 54.6584 42.8445 54.7064 42.8749 54.7365C42.9257 54.7365 43.0272 54.7365 43.078 54.6864C43.2302 54.6365 43.3318 54.3866 43.3318 54.1367C43.3318 53.7869 43.1287 53.337 42.5197 53.0872C41.9105 52.8373 41.0984 53.1871 40.7938 53.8368C40.3638 54.7306 40.6534 55.5358 40.7312 55.7523L40.7431 55.7859C40.7431 55.8359 40.5908 55.9359 40.4893 56.1357C40.2863 56.4357 40.2863 56.7355 40.337 56.8354C40.337 56.8855 40.3878 56.8855 40.3878 56.8855C40.4385 56.8855 40.4893 56.8354 40.54 56.7855C40.5674 56.7585 40.6094 56.7172 40.6663 56.6691C40.7149 56.6278 40.7744 56.5817 40.8446 56.5356C41.1492 56.3856 41.403 56.4357 41.4537 56.4357C41.9613 56.7355 42.4181 56.9354 42.9764 56.9354C43.1795 56.9354 43.4333 56.9354 43.6871 56.8354ZM43.9916 50.0885C44.6515 50.0385 45.4129 49.4387 45.6667 48.0894C45.7682 47.4896 45.6159 46.7899 44.9561 46.4401C44.6007 45.9403 44.1439 45.6404 43.5856 45.5404C42.8242 45.3905 41.7582 45.4905 40.4893 46.8398C40.4893 46.8773 40.4039 46.9988 40.3184 47.1205C40.2897 47.1613 40.261 47.202 40.2355 47.2397C40.2101 47.1898 40.1974 47.1273 40.1848 47.0649C40.1721 47.0024 40.1594 46.9399 40.134 46.8899C39.9817 46.3901 39.6264 45.5404 38.9158 44.391C38.5097 43.7913 38.2051 43.3414 37.9006 42.9916C37.6468 42.6417 37.393 42.3419 37.1899 41.942C36.8347 41.2423 36.7332 39.9929 36.8854 39.793C36.8854 39.743 36.9362 39.743 36.9362 39.743C37.0884 39.793 37.1392 39.8929 37.1899 40.1929C37.2407 40.4927 37.3422 41.0425 37.7483 41.6921C38.0409 42.1859 38.2646 42.4426 38.4763 42.6853C38.5216 42.7373 38.5664 42.7887 38.6112 42.8417L38.613 42.8439C38.8154 43.093 39.0182 43.3427 39.3218 43.7412C39.9309 44.6409 40.0832 45.0406 40.0832 45.0406L40.134 45.1406V45.0406C40.134 45.0406 39.8802 43.3414 40.134 41.5922C40.2861 40.6932 40.5905 39.944 40.7935 39.4442L40.7938 39.4431C40.9461 39.0933 41.0476 38.8934 40.9969 38.7935C40.9969 38.7435 40.9461 38.6935 40.8953 38.6935C40.7756 38.6935 40.6245 38.848 40.4172 39.0599C40.361 39.1174 40.3005 39.1792 40.2355 39.2433C40.1849 39.3429 40.0839 39.4424 39.9828 39.542L39.9817 39.5431C39.5248 39.9929 39.2203 40.5427 39.1696 40.5927C39.1188 40.5927 38.4589 40.3927 38.4081 39.0433C38.3665 38.3037 38.4276 37.8342 38.4789 37.4408C38.4901 37.3557 38.5007 37.2742 38.5097 37.1942C38.5401 37.0743 38.5706 36.9545 38.59 36.824C38.6031 36.7367 38.6112 36.6445 38.6112 36.5444C38.6112 36.4445 38.6112 36.3945 38.5604 36.3945C38.4081 36.3445 37.9514 36.8943 37.6976 37.394C37.5951 37.5958 37.5616 37.7749 37.5352 37.9163C37.5223 37.985 37.5111 38.0447 37.4945 38.0938C37.4437 38.2437 37.4437 38.3436 37.393 38.3436H37.3422C37.1899 38.2437 36.9362 37.8439 36.8854 37.1442V36.4945C36.8854 36.1946 36.8854 35.9948 36.7839 35.9447C36.7332 35.8948 36.6824 35.8948 36.6316 35.9447C36.4793 36.0447 36.3271 36.2946 36.1748 36.6943C36.0732 36.9943 35.921 37.5439 35.8702 38.2937C35.7871 39.4811 35.8401 40.333 35.8621 40.6846C35.8669 40.7622 35.8702 40.8154 35.8702 40.8425C35.7687 40.8425 35.3119 40.8425 34.7028 41.0425C34.0937 41.1924 33.0277 41.6921 33.0785 41.942C33.1293 42.042 33.3323 42.042 33.5861 41.9921C33.6987 41.9644 33.8113 41.952 33.9152 41.9465C33.9987 41.942 34.0766 41.942 34.1444 41.942C34.449 41.9921 34.8043 42.142 34.9058 42.1919C34.8043 42.2419 34.449 42.4419 33.9414 42.9417L33.847 43.0339C33.4623 43.4092 33.0471 43.8142 33.2816 44.0911C33.3257 44.1781 33.4853 44.1136 33.6932 44.0297C33.7242 44.0171 33.7562 44.0042 33.7891 43.9912C34.2967 43.7412 35.2104 43.3414 36.3271 43.7913C37.596 44.291 38.3574 45.0406 39.0681 46.54C39.2203 46.9398 39.3726 47.3896 39.4741 47.9395C39.7279 49.2888 39.4233 50.988 38.1544 52.5374C37.4869 53.3353 37.1329 53.6484 36.6718 54.0563L36.5809 54.1367C34.9565 55.4861 33.9922 55.736 33.8906 55.536C33.8628 55.4537 34.2173 55.2057 34.7023 54.8665C35.1009 54.5878 35.5875 54.2474 36.0225 53.8867C37.5453 52.5874 38.2559 51.7377 38.2559 51.7377C38.2559 51.7377 36.8347 52.7373 35.5149 52.6373C34.8156 52.5455 34.3303 52.032 34.2166 51.9878C34.2065 51.9839 34.1993 51.9836 34.1952 51.9877C34.0429 52.1376 34.2967 52.6873 34.3983 52.8373C34.4998 53.0371 34.7028 53.1871 34.7028 53.1871C34.7028 53.1871 34.652 53.287 34.1952 53.287C33.8848 53.287 33.7524 53.141 33.6845 53.0945C33.6636 53.0802 33.6488 53.0753 33.6368 53.0872C33.5353 53.1371 33.5861 53.437 33.8906 53.7368C34.1952 54.0367 34.4998 54.1367 34.4998 54.1367C34.4998 54.1367 34.0429 54.2866 33.3323 54.2866C33.0515 54.2866 32.7708 54.2235 32.5481 54.1733C32.3279 54.1238 32.1646 54.087 32.1141 54.1367C31.9111 54.3365 32.2664 54.5365 32.5201 54.7864C32.7739 55.0363 32.9262 55.0363 32.9262 55.0363C32.9262 55.0363 32.8755 55.3362 32.1141 55.436C31.6821 55.5159 31.2932 55.4259 31.0161 55.3619C30.7723 55.3055 30.6151 55.2692 30.5913 55.3861C30.4898 55.686 31.4542 56.4856 32.5709 56.5856C33.6368 56.6855 34.6013 56.1858 34.6013 56.1858C34.6013 56.1858 34.5505 56.3856 34.0937 56.9354C33.6368 57.4352 33.3831 57.4352 33.4846 57.5352C33.6876 57.7351 34.3983 57.6351 36.8347 55.436V55.5861C36.9869 57.835 39.2203 57.3352 39.2203 57.1853C39.1696 57.0853 38.7635 57.0853 38.4081 56.8354C37.9514 56.5356 38.0021 56.3357 38.0021 56.3357C38.0021 56.3357 38.1036 56.4357 38.4081 56.4357C38.7127 56.4357 38.865 56.4357 38.865 56.3357C38.865 56.3085 38.8086 56.285 38.7224 56.2491C38.4919 56.1531 38.0484 55.9681 37.9006 55.3861C37.7991 54.9363 37.9514 54.5365 38.2051 54.2366C40.2355 51.7377 40.54 50.3384 40.6923 49.3888C40.6923 49.1888 40.8446 48.1393 41.3014 47.4396C41.6567 46.8899 42.1643 46.3901 42.9257 46.2401C43.0272 46.1902 43.1287 46.1902 43.2302 46.1902H43.3318C43.9916 46.2401 44.2454 46.54 44.3977 46.8398C44.6515 47.2897 44.6008 47.7894 44.2962 48.2393L44.0931 48.4392C43.9916 48.4891 43.9409 48.5891 43.9409 48.639C43.9409 48.739 43.9916 48.739 44.0424 48.7891C44.1439 48.7891 44.2454 48.7891 44.3977 48.739H44.4485C44.55 48.639 44.6007 48.639 44.6515 48.639V48.6891C44.6515 48.839 44.7023 49.0389 44.1439 49.4888C43.9409 49.6387 43.7886 49.6886 43.6364 49.7386C43.5348 49.7386 43.4333 49.7886 43.4333 49.8386V49.9385C43.4841 50.0385 43.6364 50.0885 43.8394 50.0885H43.9916ZM33.1293 33.8457L34.0937 34.4454C34.1952 34.3954 34.449 34.2455 35.0581 34.1455C35.5149 34.0956 35.8702 34.0956 36.124 34.1455C36.3271 34.1954 36.4286 34.1954 36.4793 34.1455C36.5809 33.8956 36.0225 33.3458 35.5657 33.146C35.1088 32.946 34.6013 32.996 34.449 33.046C34.8043 32.1464 35.2611 31.0469 35.718 30.4471C36.4286 29.4976 38.0529 27.8983 40.6415 27.9983C43.3318 28.0981 44.4992 30.1973 44.4992 32.1964C44.4992 32.996 44.1947 33.8457 43.6871 34.4954C43.1287 35.1951 42.4181 35.5948 41.6567 35.6948C40.337 35.8447 39.1696 34.9951 38.9665 33.7957C38.8143 32.996 38.9665 32.2463 39.3218 31.7965C39.5756 31.3967 40.0325 31.1968 40.54 31.1968C40.9461 31.1968 41.1999 31.3468 41.3522 31.4967C41.5552 31.6965 41.6567 31.9965 41.6567 32.2964C41.6567 32.8735 41.3276 33.0341 41.1219 33.1345L41.0984 33.146C41.0076 33.2056 40.9529 33.2296 40.9235 33.2605C40.9036 33.2814 40.8953 33.3054 40.8953 33.3458C40.9461 33.3959 40.9461 33.4958 41.0476 33.5458C41.1999 33.6458 41.5045 33.6458 41.809 33.5458C42.2151 33.3959 42.6212 32.946 42.6212 31.9965C42.5704 31.0968 41.7582 30.1973 40.8446 30.1473C39.3726 30.0474 38.4589 31.0968 38.4589 31.0968H38.4081C38.4081 31.0968 38.1544 30.9469 37.7991 30.897C37.3422 30.797 37.0377 30.9469 36.9362 31.0469V31.0968C36.9362 31.0968 36.9869 31.1469 37.0884 31.1968C37.2407 31.2468 37.393 31.3468 37.596 31.4967C37.9514 31.8466 38.0529 32.2964 38.0529 32.2964C37.9006 33.4458 38.0021 34.4454 38.7635 35.4949C39.7279 36.7943 41.0984 36.7943 41.7075 36.7943C41.8597 36.7943 42.012 36.8444 42.0628 36.8444C42.1338 36.8677 42.1827 36.9126 42.2147 36.9641C42.2513 37.0232 42.2658 37.0908 42.2658 37.1442C42.2658 37.2441 42.2658 37.3441 42.0628 37.494C41.7582 37.7439 41.6567 37.9438 41.7582 38.4935C41.809 38.7935 42.012 39.1433 42.2151 39.4932C42.4689 39.843 42.6719 40.2428 42.7227 40.5927C42.8712 41.5679 42.7783 42.1149 42.7264 42.4196L42.7227 42.4419V42.6918C42.7734 42.7417 42.7734 42.7417 42.8242 42.7417C42.9764 42.7417 43.3318 42.4419 43.5856 42.092C43.7379 41.842 43.7379 41.4923 43.7379 41.2423C43.7379 41.1241 43.7379 41.0409 43.7483 40.9823C43.7556 40.9418 43.7678 40.913 43.7886 40.8926H43.8394C44.3977 40.9924 44.4485 41.9921 44.3977 42.3918C44.3977 42.5417 44.3469 42.6918 44.2962 42.7916C44.2684 42.8463 44.2559 42.886 44.2585 42.9271C44.2606 42.9613 44.2732 42.9963 44.2962 43.0416C44.3469 43.0916 44.4992 43.0916 44.6008 43.0416C44.6515 42.9916 44.7023 42.9916 44.753 42.9916C44.8038 42.9916 44.8546 42.9916 44.9053 43.0416C45.0068 43.2415 44.8546 43.5913 44.55 43.7913C44.5247 43.8162 44.4993 43.8286 44.474 43.8411C44.4485 43.8536 44.4232 43.8662 44.3977 43.8912C44.1439 44.0411 43.9409 44.1411 43.9916 44.291C43.9916 44.291 43.9916 44.3074 44.0011 44.3213C44.0082 44.3318 44.0206 44.3409 44.0424 44.3409C44.2962 44.391 44.9053 44.3409 45.3113 43.9412C45.8697 43.4913 46.022 42.8916 45.9205 41.8921C45.819 40.8926 44.9561 40.1428 44.9561 40.1428V40.0929C44.9561 40.0929 45.3113 40.0428 45.6159 39.843C46.022 39.5431 46.225 39.3433 46.1743 39.1932C46.1235 39.1433 45.9205 39.0933 45.7174 39.0933C45.4129 39.0433 45.0068 39.0433 44.6515 38.8934C44.0424 38.6935 43.5348 38.2437 43.3318 37.7439C43.1795 37.394 43.1287 36.8943 43.6364 36.2946L43.7379 36.1946C44.4992 35.5449 45.6667 34.5453 45.7682 32.1464C45.819 30.6471 45.2098 29.5475 44.9053 28.9978C44.8038 28.8479 44.753 28.7479 44.753 28.6979C44.753 28.598 44.8546 28.498 45.0068 28.348C45.1591 28.2482 45.4129 28.0981 45.6159 27.8483C45.9205 27.4485 46.022 27.0986 46.022 26.9987C45.9713 26.9987 45.8697 27.0487 45.7682 27.0986C45.6159 27.1986 45.3621 27.2986 45.1083 27.3485C44.6515 27.4984 43.9409 27.3485 43.281 27.1986C43.1795 27.1986 43.1287 27.1486 43.0272 27.1486C42.3674 26.9987 41.5045 26.8488 40.5908 26.8488C38.9158 26.8488 36.9869 27.3984 35.4134 29.0978C33.922 30.7131 33.3071 33.1432 33.1393 33.8063L33.1293 33.8457Z" fill="#990000"/>
<path d="M64.4474 28.0978C65.7672 28.0978 67.2391 28.0978 68.0005 28.0479C68.0513 28.0479 68.1021 28.0978 68.1021 28.0978L68.1028 28.0985C68.1284 28.1238 68.1409 28.1361 68.147 28.1488C68.1528 28.161 68.1528 28.1735 68.1528 28.1978V28.3977C68.1528 28.4476 68.1021 28.4977 68.0513 28.4977H68.0005C66.6301 28.7476 65.9702 28.8975 65.9702 31.6963V47.889C65.9702 52.7369 63.2292 55.9855 59.1685 55.9855H58.7625C58.4579 55.9855 57.9503 55.9855 57.2905 55.8855C56.9351 55.8356 54.9048 55.5356 53.3312 54.5361C53.2805 54.4861 53.2297 54.4362 53.2297 54.3862L52.6714 50.0381C52.6714 49.9381 52.7222 49.8383 52.8237 49.8383C52.8815 49.8097 52.9229 49.8137 52.9572 49.8409C52.983 49.8615 53.0049 49.8951 53.0267 49.9381C53.0267 49.9381 53.3312 50.8877 54.0419 51.8873C54.0526 51.8979 54.0628 51.9092 54.0726 51.9208C54.0801 51.9297 54.0873 51.9388 54.0943 51.9482C54.1033 51.9602 54.1119 51.9725 54.1202 51.9851C54.132 52.0028 54.1434 52.0209 54.1546 52.0392L54.1798 52.0803C54.2143 52.1367 54.2498 52.192 54.2957 52.2372C54.9555 53.0868 55.9707 54.2863 57.6965 54.686C58.1026 54.7361 58.5087 54.786 58.9655 54.786C61.4019 54.786 62.9247 51.4375 62.9247 48.2889V31.6963C62.9247 28.8475 62.011 28.6975 60.6913 28.4977C60.6644 28.4977 60.6375 28.4836 60.6181 28.463C60.601 28.4447 60.5898 28.4211 60.5898 28.3977V28.1978C60.5898 28.1478 60.6405 28.0978 60.6405 28.0978C60.6913 28.0479 60.6913 28.0479 60.7421 28.0479C61.5542 28.0479 63.077 28.0978 64.4474 28.0978Z" fill="#990000"/>
<path fill-rule="evenodd" clip-rule="evenodd" d="M149.519 46.7896C151.397 50.188 154.036 54.8359 156.321 55.5857C156.349 55.5857 156.378 55.6018 156.426 55.6249C156.462 55.6425 156.509 55.6641 156.574 55.6857V55.9355C156.574 55.9855 156.524 56.0354 156.473 56.0354C156.067 56.0854 155.914 56.0854 155.458 56.0854C151.295 55.8855 150.788 55.3857 146.22 46.9395C146.188 46.847 146.138 46.7546 146.08 46.6504C146.056 46.6086 146.032 46.5649 146.007 46.5186C145.993 46.4932 145.98 46.4669 145.966 46.4397C145.906 46.3339 145.843 46.2205 145.777 46.1016C145.28 45.2102 144.613 44.014 143.986 43.441C143.326 43.541 142.768 43.5909 142.362 43.5909H139.976V52.2871C139.976 55.3358 140.484 55.4357 141.804 55.6356C141.814 55.6356 141.824 55.6377 141.834 55.6414L141.842 55.645C141.847 55.6471 141.851 55.6494 141.855 55.6521C141.863 55.6573 141.871 55.6637 141.877 55.6709C141.894 55.6891 141.905 55.7124 141.905 55.7356V55.9355C141.905 55.9855 141.854 56.0354 141.854 56.0354C141.828 56.0618 141.815 56.0742 141.802 56.0801C141.789 56.0854 141.777 56.0854 141.753 56.0854C141.245 56.0354 139.976 55.9855 138.352 55.9855C136.829 55.9855 135.763 56.0354 134.951 56.0854C134.9 56.0854 134.85 56.0354 134.85 56.0354C134.799 55.9855 134.799 55.9855 134.799 55.9355V55.7356C134.799 55.7075 134.815 55.6794 134.838 55.6603C134.856 55.6453 134.878 55.6356 134.9 55.6356C136.22 55.4357 136.728 55.3358 136.728 52.2871V31.8462C136.728 29.1974 136.271 28.6975 134.951 28.4977C134.92 28.4977 134.89 28.4794 134.87 28.4537C134.857 28.4371 134.85 28.4174 134.85 28.3977V28.1978C134.85 28.1788 134.857 28.1599 134.866 28.1438C134.881 28.1172 134.9 28.0978 134.9 28.0978C134.929 28.0691 134.942 28.0569 134.957 28.0518C134.968 28.0479 134.98 28.0479 135.002 28.0479C136.322 28.1478 137.032 28.1478 138.758 28.1478C139.071 28.1478 139.429 28.1366 139.806 28.1248L139.819 28.1244H139.823C140.237 28.1115 140.672 28.0978 141.093 28.0978C141.753 28.0479 142.413 28.0479 142.819 28.0479C148.504 28.0479 152.158 31.0966 152.158 35.7944C152.158 38.8931 150.229 41.4919 146.93 42.7413C147.495 43.251 148.277 44.6193 149.278 46.3689L149.519 46.7896ZM141.601 42.4915C146.372 42.4915 148.605 40.5424 148.605 36.2443C148.605 31.9462 146.22 29.1473 142.565 29.1473C141.753 29.1473 140.991 29.1974 139.875 29.4972V42.4915H141.601Z" fill="#990000"/>
<path d="M78.2985 39.8191L78.4061 39.8925L78.5072 39.9612C81.4205 41.9388 84.4452 43.9922 84.3448 48.4386C84.3448 52.8867 81.0963 56.0353 76.4265 56.0353C75.056 56.0353 74.0916 55.8353 73.2286 55.6355L73.109 55.6102C72.4432 55.4692 71.8124 55.3356 71.046 55.3356L70.9665 55.3357L70.9136 55.3359C70.8265 55.3368 70.7582 55.3394 70.689 55.3475C70.6273 55.3549 70.5648 55.3666 70.4877 55.3856C70.4577 55.3856 70.4454 55.3856 70.43 55.3754C70.4193 55.3682 70.407 55.3561 70.3862 55.3356C70.3354 55.3356 70.3354 55.2856 70.3354 55.2356C70.3861 55.0358 70.3862 54.5859 70.3862 54.286C70.3862 53.8862 70.3354 53.4865 70.2846 53.0865L70.2717 52.9729C70.2405 52.6991 70.2109 52.4396 70.1951 52.1588L70.1901 52.0592L70.1873 51.9841C70.1846 51.9042 70.1831 51.8221 70.1831 51.7372C70.1831 51.4374 70.2339 50.3378 70.64 49.3882C70.64 49.3882 70.6448 49.3834 70.6529 49.3768C70.6581 49.3727 70.6646 49.3678 70.672 49.3629C70.691 49.3506 70.7162 49.3383 70.7415 49.3383H70.9445C70.9952 49.3383 71.046 49.3383 71.046 49.3882C71.0753 49.4171 71.0876 49.4293 71.0929 49.4441L71.095 49.4515L71.0959 49.4585C71.0967 49.4663 71.0967 49.4757 71.0967 49.4882V49.5881C71.0967 49.8881 71.046 50.1379 71.046 50.3878C71.046 53.3364 73.9393 54.8857 76.7817 54.8857C79.2689 54.8857 81.7561 53.3865 81.7561 50.038C81.7561 46.5204 79.1624 44.7709 76.4471 42.9395L76.3757 42.8911L76.2667 42.8164C73.4572 40.8906 70.5384 38.8899 70.5384 34.7947C70.5384 30.8464 73.4316 28.0977 77.5939 28.0977C78.6221 28.0977 79.4929 28.2528 80.2755 28.3922L80.4058 28.4154L80.5887 28.4475C81.2993 28.5974 81.9084 28.6974 82.5682 28.6974C82.7713 28.6974 82.9743 28.6974 83.1774 28.6475C83.2064 28.6475 83.2189 28.6475 83.2337 28.6569C83.2448 28.6638 83.2572 28.676 83.2789 28.6974C83.2878 28.6974 83.2953 28.699 83.3014 28.7018C83.314 28.7076 83.321 28.7191 83.3248 28.7336C83.3297 28.7517 83.3297 28.7745 83.3297 28.7974L83.3113 29.0814C83.2874 29.4512 83.2648 29.7988 83.2491 30.1742C83.2362 30.4862 83.2281 30.8174 83.2281 31.1963C83.2281 31.7461 83.2281 32.6456 83.2789 33.1954C83.2789 33.2203 83.2662 33.2328 83.2535 33.2452C83.2499 33.2489 83.2462 33.2526 83.2429 33.2566C83.2406 33.2592 83.2385 33.262 83.2366 33.2649C83.2316 33.2728 83.2281 33.2825 83.2281 33.2954C83.199 33.3241 83.1866 33.3363 83.1717 33.3414C83.1683 33.3427 83.1649 33.3435 83.1611 33.3441C83.1558 33.3448 83.1499 33.3451 83.1428 33.3452L83.1266 33.3453H82.9236C82.8728 33.3453 82.8221 33.2954 82.8221 33.2454C82.2637 30.5466 80.4871 29.0972 77.6954 29.0972C74.4468 29.0972 73.2794 31.1963 73.2794 33.1454C73.2794 36.399 75.6993 38.0481 78.2985 39.8191Z" fill="#990000"/>
<path fill-rule="evenodd" clip-rule="evenodd" d="M119.723 28.0977C110.942 28.0977 105.714 35.2944 105.714 42.2415C105.714 48.9884 110.841 56.0353 119.419 56.0353C127.236 56.0353 133.327 49.938 133.327 42.1415C133.327 34.2949 127.337 28.0977 119.723 28.0977ZM129.57 42.3413C129.57 50.0879 125.662 54.8857 119.419 54.8857C113.226 54.8857 109.521 50.0879 109.521 42.0914C109.521 36.0941 112.109 29.1472 119.419 29.1472C124.089 29.1971 129.57 32.6456 129.57 42.3413Z" fill="#990000"/>
<path d="M106.628 28.1476V28.2476C106.323 29.2472 105.866 31.0963 105.866 31.696C105.866 31.723 105.852 31.75 105.83 31.7692C105.823 31.7758 105.814 31.7815 105.805 31.7859C105.793 31.7924 105.779 31.796 105.765 31.796H105.5C105.492 31.7959 105.483 31.7958 105.475 31.7953C105.468 31.7948 105.461 31.7941 105.454 31.793C105.441 31.7905 105.429 31.7863 105.421 31.7784C105.414 31.7711 105.41 31.7607 105.41 31.7461V31.6461C105.41 31.4961 105.46 31.2963 105.46 31.0963C105.46 30.0468 104.547 29.7969 97.745 29.7969V52.3369C97.745 55.3856 98.2526 55.4855 99.5723 55.6854C99.623 55.6854 99.6738 55.7355 99.6738 55.7854V55.9854C99.6738 56.0082 99.6631 56.031 99.6516 56.0491C99.6379 56.0706 99.623 56.0852 99.623 56.0852C99.5939 56.1139 99.5815 56.1261 99.5667 56.1313C99.5556 56.1353 99.5432 56.1353 99.5215 56.1353C99.0647 56.0853 97.745 56.0353 96.1714 56.0353C94.6995 56.0353 93.5828 56.0853 92.8214 56.1353C92.7998 56.1353 92.7782 56.1261 92.7605 56.1157C92.7366 56.1017 92.7198 56.0852 92.7198 56.0852C92.6691 56.0353 92.6691 56.0353 92.6691 55.9854V55.7854C92.6691 55.7355 92.7198 55.6854 92.7706 55.6854C94.0903 55.4855 94.598 55.3856 94.598 52.3369V29.8969C88.6592 29.8969 86.8826 29.8969 85.7659 32.2458C85.7659 32.2458 85.7625 32.2493 85.7566 32.2543L85.7491 32.2601C85.7444 32.2638 85.7388 32.2678 85.7325 32.2719C85.7137 32.2839 85.689 32.2958 85.6644 32.2958H85.4614C85.4106 32.2958 85.3599 32.2958 85.3599 32.2458C85.3481 32.2344 85.3386 32.2249 85.3318 32.2175L85.3226 32.2068C85.3164 32.1989 85.313 32.1921 85.3112 32.1842C85.3091 32.1747 85.3091 32.1633 85.3091 32.1459C85.4614 31.4462 85.6644 30.7465 85.8674 30.0468L85.8937 29.9532L85.9296 29.8284L85.9627 29.7152L86.0197 29.5227L86.0204 29.5199C86.0834 29.3086 86.1486 29.0889 86.2117 28.858C86.2692 28.6476 86.3248 28.428 86.375 28.1976C86.375 28.1624 86.4003 28.1271 86.433 28.1094C86.4391 28.1061 86.4454 28.1034 86.4519 28.1014C86.46 28.099 86.4683 28.0977 86.4766 28.0977C95.1055 28.2976 104.699 28.1476 106.526 28.0977C106.541 28.0977 106.556 28.0977 106.569 28.0989C106.587 28.1005 106.602 28.1041 106.613 28.1127C106.622 28.1201 106.628 28.1311 106.628 28.1476Z" fill="#990000"/>
</svg>
