<svg width="200" height="160" viewBox="0 0 200 160" fill="none" xmlns="http://www.w3.org/2000/svg">
<rect width="200" height="160" fill="white"/>
<path d="M47 13V148H154V13" fill="#9E1A1D"/>
<path d="M90.4239 108.362C94.1986 107.742 97.3194 106.886 101.332 103.403C105.761 99.5664 107.455 94.0767 108.168 91.2433C109.208 87.2293 109.089 79.585 109.089 79.585V39.9763C109.089 39.9763 108.792 31.4466 109.446 29.292C110.1 27.1374 111.437 25.5732 112.24 24.7763C114.053 22.9759 117.857 22.3856 117.857 22.3856C118.957 22.2085 119.195 21.7067 119.106 21.1755C118.987 20.4081 118.303 20.3491 118.303 20.3491L91.2858 20.29C91.2858 20.29 90.6022 20.4081 90.4833 21.1755C90.3942 21.6772 90.6319 22.2085 91.7317 22.3856C91.7317 22.3856 95.5361 22.9759 97.3492 24.7763C98.1814 25.6027 99.5189 27.167 100.143 29.292C100.797 31.4466 100.5 39.9763 100.5 39.9763L99.9053 79.4964C99.9053 81.2083 100.084 88.4689 99.6675 91.0957C99.073 94.726 98.1814 97.825 95.863 100.216C93.515 102.606 91.3453 103.374 88.165 103.374C84.9847 103.374 82.8744 102.459 80.6155 100.747C78.3567 99.0351 74.0767 95.1687 74.0767 95.1687L78.208 107.919C78.1783 107.949 86.2033 109.041 90.4239 108.362Z" fill="white"/>
<path d="M90.8699 111.697C98.1518 111.077 103.234 107.948 107.752 101.957C113.013 94.9618 113.013 86.4911 113.013 86.4911V73.8884V42.7504V31.9776C113.013 31.9776 112.835 29.9706 113.845 27.8455C114.826 25.75 117.025 24.6579 116.936 24.4513C116.877 24.3038 114.113 25.3368 112.389 27.5504C111.14 29.1442 111.259 31.3578 111.259 32.0071C111.259 32.6859 111.23 39.7694 111.23 40.6254V74.154V83.8348C111.23 83.8348 111.17 91.361 108.763 96.231C106.504 100.776 104.572 104.525 98.0924 108.066C94.2582 110.162 91.3455 110.487 87.6599 110.634C83.4393 110.782 79.6349 110.132 79.6349 110.398C79.6052 110.87 84.6877 112.228 90.8699 111.697Z" fill="white"/>
<path d="M148.858 114.146H52.1122V18.0762H148.858V114.146ZM149.779 16.2168H50.2397V116.006H150.731V16.2168H149.779Z" fill="white"/>
<path d="M73.3935 26.7242C73.3935 26.7242 74.9391 26.4881 75.8902 25.1894C78.0005 22.297 76.5144 20.7327 75.9794 20.8803C75.5038 20.9984 75.8902 22.6512 74.2257 23.1234C72.6207 23.5957 71.7885 22.0019 69.2919 21.0279C66.9438 20.1424 64.5066 20.349 64.5066 20.349C59.8996 20.7327 55.8871 24.0089 55.7088 29.5281C55.5602 33.7782 57.5813 38.0873 62.0396 39.6516C66.1116 41.0978 68.638 40.1534 68.638 40.1534L66.9141 42.2194C66.9141 42.2194 67.3896 42.3965 67.9841 42.8097C68.5488 43.1934 68.8163 43.4885 68.8163 43.4885C68.8163 43.4885 70.3619 41.4225 72.2344 39.7992C73.8394 38.412 75.1471 37.2314 77.4655 36.0508C79.6055 34.9293 82.3399 33.8372 82.5182 34.1029C82.6966 34.398 80.5269 35.431 79.546 37.1134C78.9516 38.1759 78.1788 40.0943 78.7435 40.2714C79.2785 40.4485 79.1002 40.2714 79.546 39.7992C79.9027 39.4155 80.0513 39.5631 80.1702 39.6516C80.2891 39.7402 79.7541 41.3044 80.5566 42.485C81.3888 43.6361 82.2805 44.6396 82.7263 44.3444C83.2613 43.9608 81.7157 42.8097 82.2805 40.2124C82.5777 38.8547 83.2613 37.5561 84.5394 36.2574C85.8769 34.8998 88.4924 33.8668 90.6919 33.6306C93.8424 33.2765 99.133 34.457 99.133 34.457L99.0438 32.1844C99.0438 32.1844 90.9891 31.1219 86.8874 30.325C85.0744 29.9708 83.2613 28.3475 83.1721 26.2225C83.0532 23.33 85.6391 22.2675 85.5202 21.7657C85.3121 20.9393 82.7263 22.238 81.9535 23.33C81.2996 24.304 81.0321 25.3075 81.0321 25.3075C81.0321 25.3075 80.6755 25.5141 80.3188 25.1009C79.9027 24.6287 80.408 24.3925 79.9027 24.3335C79.1002 24.2155 79.0705 26.8423 80.2594 28.4065C81.4185 29.9708 82.8452 31.1219 83.1424 31.2399C83.4396 31.358 79.7244 32.273 76.8116 33.8077C73.3935 35.5786 73.1855 36.1394 69.9457 37.1134C66.706 38.0873 63.9716 38.0283 62.1882 36.8182C60.1374 35.4605 58.3838 33.2469 58.4432 29.8232C58.5027 26.6652 60.9102 22.8578 65.1605 22.9463C69.6188 23.0349 70.8374 25.8388 70.8077 27.6687C70.778 29.351 69.916 30.9153 67.6571 31.1219C66.3791 31.2399 65.428 30.4431 65.1605 29.6462C64.7444 28.4656 65.101 27.4621 64.6552 27.0784C64.2688 26.7537 63.7932 27.1964 63.5852 27.6687C63.1394 28.7017 63.0205 30.0889 63.6744 31.417C64.2391 32.5976 65.9332 33.8668 68.2516 33.6011C70.5996 33.3355 72.2046 32.0664 72.9774 30.266C73.5421 28.9673 73.6016 28.259 73.5421 27.5211C73.5124 27.285 73.4827 27.0489 73.3935 26.7242Z" fill="#E9E5CA"/>
<path d="M97.3791 64.5028C97.2602 71.3502 94.7636 74.8034 94.7636 74.8034C94.7636 74.8034 94.5555 74.3607 94.08 73.9475C93.545 73.5048 93.0397 73.2687 93.0397 73.2687C93.0397 73.2687 95.5661 68.2217 95.0014 63.4993C94.4664 59.0721 92.0291 50.69 82.8152 51.2212C80.0214 51.3688 77.3761 52.8445 77.5247 54.4383C77.7327 56.3273 79.3675 57.0651 79.3377 57.2422C79.3377 57.4193 77.9408 57.7735 76.8708 57.3012C75.8305 56.829 74.7605 55.1762 74.7605 55.1762C74.7605 55.1762 70.5697 57.6849 70.5697 62.0236C70.5697 63.883 72.4422 68.5758 76.3952 68.1331C78.8622 67.838 79.4269 66.0966 79.3675 64.8275C79.308 63.5584 77.2572 61.4333 77.3761 60.9906C77.4355 60.784 78.2677 60.9315 78.8027 61.1677C79.3377 61.4038 79.6647 61.817 79.9916 61.6694C80.2294 61.5514 80.1402 61.2562 80.0511 60.5183C79.9322 59.4558 79.6052 59.3082 79.9619 59.1312C80.3186 58.9541 81.3886 60.4298 82.0127 61.2267C82.6369 62.0236 83.3502 63.3222 83.3502 63.3222C83.3502 63.3222 83.6177 61.935 84.0339 60.784C85.1633 57.5964 86.3522 56.9766 86.6494 57.2127C86.9466 57.4488 86.4711 58.0096 86.6197 59.2492C86.7089 60.1347 86.9466 60.1347 86.9466 60.1347C86.9466 60.1347 87.2736 59.81 87.8977 58.5999C88.3436 57.744 88.5814 56.888 89.0569 56.9471C89.5325 57.0061 89.8891 58.9541 89.5325 61.1382C89.1758 63.3518 88.4922 64.7684 88.4922 64.7684C88.4922 64.7684 89.0272 64.7684 89.7702 64.1782C90.543 63.6174 90.6916 63.2632 90.9294 63.3518C91.2564 63.4993 90.7808 64.4438 89.7108 65.8605C88.195 67.838 86.5008 68.0741 86.5008 68.0741C86.5008 68.0741 87.3627 68.4283 87.7789 69.2842C88.195 70.1696 88.7597 70.7894 88.4625 70.996C88.1652 71.2322 87.8383 70.3467 86.7386 70.2877C85.5497 70.2287 84.8066 70.7304 83.2016 71.0256C81.6264 71.3207 81.0616 70.8485 81.0616 70.8485C81.0616 70.8485 83.1719 69.7859 85.2227 66.8345C87.1844 64.0011 87.1844 62.5549 86.7089 62.4958C86.2927 62.4368 86.2333 63.1451 85.3714 64.5323C84.3905 66.1852 81.775 69.1661 79.3675 69.9335C77.3464 70.5828 76.633 70.7009 74.2255 70.0516C71.818 69.4023 71.075 67.897 70.6291 68.1331C70.0347 68.4283 69.9752 74.036 68.5189 77.017C67.6569 78.7879 66.0519 80.5588 63.8227 81.6508C61.5936 82.7429 58.9186 83.1856 58.7997 82.7429C58.7105 82.3592 59.1564 82.3887 59.6616 81.9755C60.1966 81.5623 60.3155 81.4737 60.3155 81.4737C60.3155 81.4737 59.4833 81.7099 57.4027 81.4737C55.2925 81.2376 54.9655 81.1196 54.9655 80.6178C54.9655 80.2932 55.5005 80.3227 56.2733 80.0275C57.0164 79.7324 56.8975 79.7029 56.8975 79.7029C56.8975 79.7029 55.6789 78.6994 54.9358 77.5483C54.163 76.3972 53.7469 74.6559 53.9252 74.4788C54.163 74.2427 54.698 74.4197 55.7383 74.6263C56.838 74.8625 57.7891 74.7739 57.7891 74.7739C57.7891 74.7739 57.3136 74.2427 57.0758 73.8885C56.7191 73.3277 56.3625 72.7374 56.8677 72.6784C57.3136 72.6489 58.0864 74.4197 61.4152 74.1541C64.328 73.918 65.9627 71.6749 65.9627 71.6749C65.9627 71.6749 64.9819 74.9215 62.3069 76.1611C59.0077 77.6959 56.303 75.8069 56.2139 76.5448C56.095 77.4597 59.8697 79.2306 63.4958 77.1646C66.5275 75.4527 67.6569 71.2912 68.073 68.7234C68.5486 65.89 68.3702 60.3117 68.3702 60.3117C68.3702 60.3117 66.3194 62.0826 62.8122 61.876C58.7997 61.6399 54.1333 57.862 54.1927 52.0476C54.2225 49.5684 54.5197 48.4173 55.4114 46.1152C55.9166 44.787 56.2139 44.6099 56.303 43.4589C56.3922 42.4849 56.0355 41.8356 55.8869 41.688C55.5897 41.4224 56.8677 41.747 57.2839 42.5734C57.5216 43.0457 57.908 44.3443 57.8486 44.5804C57.7891 44.8166 59.3644 42.9866 62.9311 42.9866C68.1325 42.9571 70.3616 47.5319 70.3616 47.5319C70.3616 47.5319 71.0155 47.709 72.3827 47.1777C73.7797 46.6169 73.7202 45.6725 75.7711 45.6134C77.4652 45.5544 78.6541 46.794 78.0597 47.1777C77.5544 47.5024 77.9111 46.9416 76.3061 47.1777C74.7605 47.4138 74.9091 50.0406 72.9772 50.5129C72.0558 50.749 70.9561 50.1587 70.7777 49.834C70.5697 49.5094 70.5102 49.8045 70.5102 49.8045C70.5102 49.8045 70.4805 50.5424 70.005 51.841C69.4402 53.3463 67.2111 55.855 63.4066 54.8515C59.7805 53.9366 59.5725 49.8931 60.4939 49.775C61.2666 49.6865 62.2772 54.6449 66.4977 52.5199C67.5083 52.0181 68.1622 50.5719 68.1027 49.2437C67.9541 46.6465 65.4872 45.1117 63.3175 45.0822C60.6722 45.0527 56.9569 46.9416 56.5705 51.9591C56.303 55.3533 59.0672 59.4558 62.8419 59.4263C70.1536 59.3378 72.3827 51.4573 80.7941 49.2437C86.5602 47.7385 90.0972 50.2472 90.0972 50.2472C90.0972 50.2472 90.87 50.3358 90.0675 49.1257C89.2352 47.9156 87.2141 44.1082 87.5114 41.1863C87.7491 38.9727 89.6514 36.4934 92.7722 36.6115C95.8336 36.7 97.3197 38.4414 97.2008 40.6255C97.0225 43.3998 94.08 43.9606 93.7827 43.2523C93.5747 42.721 95.0311 42.8096 95.1202 41.3929C95.2094 39.8581 94.1989 38.9727 92.8614 38.9727C90.87 38.9727 89.6514 40.1237 89.8891 42.4259C90.0377 44.1082 91.3158 45.702 92.475 46.676C93.6341 47.65 94.2583 48.2698 94.2583 48.2698C94.2583 48.2698 92.9505 49.1552 92.9505 50.3653C92.9505 51.4869 93.6044 52.6084 94.3772 53.9661C94.8527 54.7925 96.0119 57.0946 96.428 58.4228C97.0225 60.4593 97.4089 62.3778 97.3791 64.5028Z" fill="#E9E5CA"/>
<path d="M64.3875 46.9121C64.3875 46.9121 64.8928 47.0302 65.3981 47.4729C65.9033 47.8861 66.1114 48.2403 66.1114 48.2403C66.1114 48.2403 65.6656 49.0667 65.0711 50.0997C64.3578 51.4279 64.2686 51.6049 64.2686 51.6049C64.2686 51.6049 64.12 51.723 63.3472 51.2508C62.6339 50.8081 62.4556 50.3358 62.4556 50.3358C62.4556 50.3358 62.6636 49.6275 63.2283 48.683C64.0011 47.3843 64.3875 46.9121 64.3875 46.9121Z" fill="#E9E5CA"/>
<path d="M62.6341 55.9736C62.6341 55.9736 62.0397 55.9145 61.5641 55.6194C61.148 55.3537 60.5833 54.793 60.5833 54.793C60.5833 54.793 60.3752 55.4423 60.1969 56.2687C60.0483 56.8295 60.0186 57.1246 60.0186 57.1246C60.0186 57.1246 60.4049 57.5083 61.4155 57.8035C62.0397 58.0101 62.1883 57.892 62.1883 57.892C62.1883 57.892 62.1883 57.9215 62.3963 56.918C62.5152 56.1211 62.6341 55.9736 62.6341 55.9736Z" fill="#E9E5CA"/>
<path d="M59.6615 62.8799C59.6615 62.8799 60.4343 63.2636 60.9098 63.3226C61.3854 63.3816 61.9204 63.3816 61.9204 63.3816C61.9204 63.3816 62.0096 65.7133 62.6634 67.8679C63.5551 70.7308 64.3279 71.6162 64.3279 71.6162C64.3279 71.6162 64.0009 71.8818 63.3173 72.177C62.6337 72.4721 62.1879 72.4131 62.1879 72.4131C62.1879 72.4131 61.2665 70.6127 60.4937 68.3696C59.5426 65.5657 59.6615 62.8799 59.6615 62.8799Z" fill="#E9E5CA"/>
<path d="M67.4785 80.8541C67.4785 80.8541 69.143 79.2603 69.5888 78.1683C70.0643 77.0763 70.4805 76.0137 70.4805 76.0137C70.4805 76.0137 71.6396 76.9287 73.1257 76.3384C74.9388 75.63 75.236 74.538 75.4738 74.597C75.7116 74.6561 75.7116 76.0432 74.8793 77.1943C73.7202 78.8176 71.6693 78.7291 71.6693 78.7291C71.6693 78.7291 75.7116 80.7951 80.1105 80.5885C85.6685 80.3229 89.3541 77.1353 89.3541 77.1353C89.3541 77.1353 90.1566 77.2829 90.5132 78.0207C90.8699 78.7586 90.6024 79.1128 90.6024 79.1128C90.6024 79.1128 86.0549 82.2413 81.6857 82.7726C76.5438 83.4219 71.7288 81.2083 71.7288 81.2083C71.7288 81.2083 74.7605 84.5139 76.7518 86.8456C78.3271 88.705 79.4863 90.653 80.2888 93.3388C80.9427 95.4934 80.4671 98.7695 80.4671 98.7695L78.5649 97.2938C78.5649 97.2938 78.9216 95.7885 78.1191 93.2798C77.0788 90.0627 73.8985 87.0522 73.8985 87.0522C73.8985 87.0522 74.3146 88.6755 73.3635 90.3579C72.6205 91.7155 71.5505 92.0402 71.3721 91.9221C71.0155 91.686 72.0855 90.1808 71.3721 87.2883C70.8371 85.1042 70.213 83.5695 69.3213 82.5955C68.4296 81.5625 67.4785 80.8541 67.4785 80.8541Z" fill="#E9E5CA"/>
<path d="M76.3062 84.2188C76.3062 84.2188 77.287 85.1928 77.7625 85.665C78.2381 86.1372 78.8623 86.9932 78.8623 86.9932C78.8623 86.9932 81.8048 86.3143 84.45 87.0522C87.0656 87.8196 91.3456 89.5609 92.0292 93.634C92.5939 96.9691 90.2459 97.5299 89.4731 97.5004C88.7003 97.4709 87.125 97.0872 87.0656 95.2277C87.0062 93.693 88.7003 93.5749 88.73 93.0732C88.7598 92.6305 87.9573 92.1287 86.6495 93.0437C85.1039 94.1357 84.9256 96.0837 85.9064 97.6775C87.3034 100.009 90.5134 100.009 91.94 99.0942C93.7828 97.8841 94.7042 96.1132 94.4367 93.3093C94.2881 91.5974 93.0695 89.8561 91.9698 88.646C90.6917 87.2588 87.4223 85.6355 87.4223 85.6355C87.4223 85.6355 91.6428 83.4809 93.9909 86.0782C95.0609 87.2293 93.7828 88.8231 94.0206 89.0592C94.2584 89.2953 96.2498 88.705 96.1309 86.2848C96.0417 84.5434 94.4367 83.5104 94.4367 83.5104C94.4367 83.5104 95.4175 83.3333 96.5173 82.9201C97.7953 82.4479 98.5087 82.1232 98.5087 82.1232V79.7621C98.5087 79.7621 97.2603 80.2343 96.1012 80.618C94.9717 81.0017 94.1395 81.0607 94.1395 81.0607C94.1395 81.0607 95.8931 77.2828 93.1587 75.0397C89.3245 71.9112 86.2334 75.689 86.4712 76.1318C86.7089 76.604 89.3839 74.3019 91.3753 76.663C92.8912 78.4634 92.2373 79.8211 90.3053 81.0607C88.4328 82.2708 87.1845 83.0677 83.8259 83.9531C79.8728 85.0452 76.3062 84.2188 76.3062 84.2188Z" fill="#E9E5CA"/>
<path d="M75.3549 104.142L76.2763 106.651C76.2763 106.651 73.5419 111.137 66.4085 111.284C61.0288 111.402 56.0355 107.27 55.5302 101.84C55.1141 97.5305 56.2733 95.8777 56.2435 93.9297C56.2138 92.1588 56.0058 91.7751 55.6491 90.8012C55.3519 90.0043 56.8677 90.1223 57.7891 91.1848C58.5916 92.1293 58.651 93.5165 59.513 93.0738C60.3749 92.6311 62.9013 91.0373 64.1199 88.2334C65.3088 85.4295 63.3472 84.1013 64.2685 84.0423C65.3385 83.9833 67.3894 85.9608 67.0922 88.5876C66.8247 91.1258 65.4872 92.2179 65.4872 92.2179C65.4872 92.2179 66.2302 92.2769 67.3894 92.8967C68.5783 93.5165 70.6588 95.3759 70.5697 95.612C70.4805 95.8482 69.678 95.4054 69.2619 95.3464C68.8458 95.2874 68.608 95.3464 68.608 95.3464C68.608 95.3464 70.6291 97.0878 70.213 100.452C69.886 103.138 67.4785 104.496 65.7249 104.525C62.8122 104.555 61.8016 102.341 61.9205 101.072C61.9502 100.571 62.2474 100.334 62.5447 100.364C63.0202 100.423 63.6147 102.253 65.6655 102.017C67.0327 101.869 67.7758 100.689 67.7758 99.5965C67.7163 97.0287 65.9033 95.0218 62.931 95.2579C60.4344 95.435 57.908 97.2058 58.3835 101.515C58.7997 105.47 62.1285 108.658 66.9435 108.776C72.8285 108.923 75.3549 104.142 75.3549 104.142Z" fill="#E9E5CA"/>
<path d="M133.64 20.2903C135.691 20.4084 137.742 20.8806 139.317 21.2053C140.803 21.5299 142.23 21.766 143.24 21.5299C144.251 21.2938 145.024 20.7625 145.202 20.8216C145.38 20.9101 145.202 21.6775 144.429 22.681C143.656 23.6845 142.557 23.8616 142.557 24.2453C142.557 24.629 144.875 27.2558 144.667 31.3288C144.429 36.4053 141.695 38.4713 140.119 39.829C138.841 40.921 138.782 42.0426 139.079 42.869C139.525 44.1381 140.625 45.0236 141.784 45.5253C143.211 46.1451 144.905 46.1747 145.024 46.4403C145.202 46.883 144.37 47.3848 143.627 47.7684C142.854 48.1521 142.081 48.1521 142.081 48.1521C142.081 48.1521 143.864 49.864 143.864 52.0185C143.864 54.1731 143.389 55.3537 142.141 56.2687C140.892 57.1836 139.139 56.9475 139.109 56.7409C139.049 56.3572 139.733 56.0916 140.446 55.7079C141.16 55.3242 141.516 54.6749 141.368 54.2912C141.219 53.9075 140.298 54.4978 140.001 54.1141C139.703 53.7304 140.298 53.4943 140.446 52.6974C140.595 51.871 140.654 49.805 139.525 49.4803C139.139 49.3622 139.436 51.1036 138.723 51.9595C138.009 52.8154 136.85 53.4353 136.612 53.0516C136.434 52.7564 137.326 51.8119 137.088 48.6539C136.969 47.1782 135.542 45.3778 135.483 44.0791C135.423 42.928 135.602 42.4263 136.374 41.9836C137.058 41.5999 136.969 41.0981 136.642 40.862C136.404 40.6554 132.392 41.5409 129.806 38.2057C128.112 36.0806 127.993 34.0736 128.32 31.6534C128.32 31.6534 128.141 30.7385 127.339 30.0892C126.655 29.5284 125.942 29.3808 125.942 29.2332C125.912 29.0562 126.715 28.5839 127.933 28.761C128.676 28.8791 129.211 29.1447 129.211 29.1447C129.211 29.1447 131.084 26.9016 134.324 27.1672C136.315 27.3148 138.128 29.1152 138.188 31.0632C138.247 32.9521 137.326 33.9851 136.434 34.2802C135.245 34.6639 134.472 34.2507 134.443 33.749C134.413 33.1882 135.958 33.4538 136.107 31.6239C136.196 30.5319 135.394 29.3513 133.878 29.4103C131.262 29.4989 130.014 31.6239 130.549 34.6344C130.965 36.9366 133.283 38.7665 136.226 38.4713C139.674 38.1467 142.2 34.7525 142.259 31.4173C142.319 27.7575 140.119 23.1532 134.056 22.9466C128.201 22.74 124.813 26.3408 123.564 27.8756C122.316 29.4103 120.443 33.5129 120.443 33.5129C120.443 33.5129 121.781 33.1882 122.94 33.749C123.861 34.1622 125.11 35.2837 124.902 35.8445C124.753 36.2282 123.505 35.3723 121.87 35.6084C120.235 35.8445 119.522 36.3758 119.522 36.3758L117.441 35.2837C117.441 35.2837 118.69 28.9676 122.524 25.1307C124.545 23.0647 128.349 19.9952 133.64 20.2903Z" fill="#E9E5CA"/>
<path d="M131.708 62.3482C129.39 58.0096 127.339 55.0876 123.832 54.2022C119.938 53.2282 117.739 56.0026 117.233 55.4713C116.698 54.9106 117.501 53.9661 118.422 52.9921C119.671 51.6639 120.443 51.2507 120.443 51.2507C120.443 51.2507 119.492 50.8966 118.66 50.9261C117.739 50.9556 116.55 51.5459 116.431 51.1327C116.282 50.6604 118.363 49.5094 119.76 48.9191C121.157 48.3288 122.256 48.2107 122.256 48.2107C122.256 48.2107 121.781 46.1742 121.721 42.9866C121.662 39.7991 122.554 37.7921 123.178 38.0577C123.534 38.2053 123.386 39.1792 123.653 40.4484C124.01 42.2193 124.813 42.9571 125.021 42.8391C125.288 42.6915 125.021 41.9536 125.496 40.8321C126.031 39.4744 127.22 37.9691 127.25 38.8251C127.279 40.2713 126.893 41.1862 127.339 43.9606C127.785 46.9121 129.39 46.9711 129.39 46.9711C129.39 46.9711 129.984 45.7315 130.906 44.6099C131.827 43.4884 132.6 42.2783 133.016 42.78C133.343 43.1637 131.946 45.4364 131.768 48.683C131.559 52.3723 132.481 55.7665 132.481 55.7665C132.481 55.7665 132.065 54.9696 130.519 53.2282C128.974 51.4869 128.231 51.4278 126.626 49.4208C124.723 47.0301 125.229 45.5839 124.426 45.6134C123.951 45.6134 124.367 48.5649 125.437 50.0997C126.477 51.6049 127.725 52.3723 129.717 54.763C132.867 58.5999 134.71 63.5288 134.71 63.5288C134.71 63.5288 136.642 59.928 141.457 60.0461C145.024 60.1346 147.223 63.3517 147.015 66.0671C146.629 71.1731 142.408 71.6749 142.022 71.0256C141.754 70.5828 142.676 70.6419 143.627 69.7859C144.905 68.6349 144.816 68.1626 144.726 67.8085C144.667 67.5723 144.37 67.7789 143.983 68.0151C143.508 68.3102 143.032 68.2512 142.913 67.897C142.824 67.6609 143.448 67.3067 143.716 66.805C144.934 64.5618 143.508 62.1121 141.13 62.2302C139.495 62.3187 136.256 63.3813 136.196 66.923C136.137 70.4648 135.899 77.991 135.899 77.991C135.899 77.991 135.572 77.991 134.799 77.7254C134.086 77.4893 133.61 77.3122 133.61 77.3122C133.61 77.3122 134.621 67.8085 131.708 62.3482Z" fill="#E9E5CA"/>
<path d="M114.469 35.7266V38.1763C114.469 38.1763 115.42 38.3534 117.531 39.593C119.255 40.626 120.503 41.5409 120.503 41.5409L120.978 39.1798C120.978 39.1798 120.622 38.7371 118.095 37.2908C115.42 35.7856 114.469 35.7266 114.469 35.7266Z" fill="#E9E5CA"/>
<path d="M116.342 40.7139L118.571 41.8649C118.571 41.8649 118.334 43.016 118.423 44.8164C118.542 46.7939 118.66 47.7679 118.66 47.7679L116.669 48.978C116.669 48.978 116.283 47.3547 116.164 45.023C116.045 42.1601 116.342 40.7139 116.342 40.7139Z" fill="#E9E5CA"/>
<path d="M121.068 55.7076C121.068 55.7076 121.008 55.4715 120.117 55.8552C119.285 56.2094 119.017 56.5931 119.017 56.5931L119.463 57.6556C119.463 57.6556 119.998 57.1243 120.533 56.8882C121.157 56.6226 121.633 56.7111 121.633 56.7111L121.068 55.7076Z" fill="#E9E5CA"/>
<path d="M131.5 65.8611C131.5 65.8611 129.39 65.0642 126.774 62.8506C124.872 61.2273 125.08 61.4339 125.08 61.4339C125.08 61.4339 124.575 61.0207 123.326 61.1388C122.256 61.2273 122.197 61.67 122.197 61.67C122.197 61.67 123.356 62.8506 124.604 63.9722C126.001 65.2413 127.666 66.2448 127.666 66.2448C127.666 66.2448 126.536 68.9896 123.386 68.9896C121.127 68.9896 118.749 67.2483 118.749 64.2673C118.749 61.1092 121.721 59.663 123.416 59.663C125.377 59.663 126.328 61.0502 126.834 60.8141C127.666 60.4599 126.923 58.0397 123.742 57.8036C120.443 57.5675 118.363 60.1057 118.363 60.1057C118.363 60.1057 118.333 59.6925 117.828 59.3088C117.322 58.8956 116.698 58.689 116.52 58.8661C116.312 59.0432 116.906 59.4564 117.144 60.4894C117.382 61.5224 116.609 63.1753 116.787 65.0052C117.085 67.691 119.314 70.9671 122.851 70.9376C125.496 70.9081 126.507 70.1702 126.507 70.1702C126.507 70.1702 125.853 71.0557 126.715 71.8821C127.755 72.8561 129.211 72.2067 129.39 73.0627C129.538 73.8005 129.241 73.8301 128.617 74.0957C128.082 74.3318 127.339 73.9186 127.398 74.4203C127.458 74.804 128.171 74.9811 128.974 74.8926C129.836 74.7745 131.024 74.3908 131.024 72.6495C131.024 69.4324 127.428 69.7275 128.112 69.1077C129.182 68.1632 129.419 67.3073 129.419 67.3073C129.419 67.3073 129.895 67.6615 130.638 67.8976C131.411 68.1337 131.976 68.3403 131.976 68.3403L131.5 65.8611Z" fill="#E9E5CA"/>
<path d="M114.469 76.7516V78.9652C114.469 78.9652 117.65 79.2899 119.819 80.0278C121.186 80.5 124.783 81.9757 124.664 85.5175C124.545 88.8231 121.543 90.1218 120.265 90.0628C118.303 90.0037 117.174 89.0297 117.144 87.4064C117.115 86.3439 118.036 85.7241 118.868 85.6356C120.176 85.488 120.206 86.6686 120.741 86.3734C121.276 86.0783 121.216 84.4845 118.749 84.2484C117.471 84.1303 115.242 84.9567 115.242 87.4359C115.242 90.535 117.709 92.3354 120.562 92.2468C123.594 92.1583 126.596 89.4134 126.804 86.1373C126.863 85.1043 126.893 84.9862 126.893 84.9862C126.893 84.9862 127.28 85.1928 127.904 84.8387C128.558 84.4845 129.122 83.481 129.003 83.2744C128.855 83.0088 128.171 83.6876 127.369 83.0973C126.566 82.507 125.615 81.474 125.021 80.7066C124.426 79.9392 123.297 79.2899 123.297 79.2899C123.297 79.2899 128.112 79.4375 132.213 81.533C136.553 83.7466 137.712 88.2328 137.831 88.2624C137.92 88.2919 138.366 87.8787 138.544 86.2849C138.723 84.6911 138.247 83.7761 138.247 83.7761C138.247 83.7761 141.011 85.9012 142.289 88.1738C145.143 93.3389 143.211 96.615 143.211 96.615L143.716 99.9797C143.716 99.9797 146.48 97.648 145.915 91.9517C145.351 86.1078 139.644 82.1233 139.644 82.1233C139.644 82.1233 141.011 82.1823 142.557 81.1493C144.281 79.9983 144.281 77.1944 143.924 77.1649C143.538 77.1353 143.359 78.4635 141.962 79.2899C140.565 80.0868 138.99 80.1458 136.939 79.8802C134.888 79.5851 132.808 78.7882 128.676 77.8732C124.991 77.0468 121.989 76.6336 121.989 76.6336C121.989 76.6336 122.762 76.5155 123.208 75.2464C123.535 74.3314 123.148 73.4755 122.97 73.446C122.791 73.4165 122.791 74.3314 120.86 75.0103C117.56 76.2204 114.469 76.7516 114.469 76.7516Z" fill="#E9E5CA"/>
<path d="M133.819 84.366C133.819 84.366 133.878 84.2775 132.957 83.6577C132.154 83.1264 131.916 83.0674 131.916 83.0674C131.916 83.0674 130.817 86.1074 129.955 88.1144C129.182 89.8853 128.885 90.7707 127.458 91.7447C126.15 92.6301 125.615 91.9808 125.467 92.3055C125.318 92.6006 125.705 92.9843 126.537 93.0728C127.488 93.1614 127.934 93.0433 127.904 93.2499C127.845 93.6041 127.28 93.8107 127.547 94.0173C127.726 94.1649 127.963 94.1354 128.439 94.4305C129.093 94.8142 129.123 94.9618 129.123 94.9618C129.123 94.9618 130.341 92.9843 131.798 89.5901C133.105 86.6977 133.819 84.366 133.819 84.366Z" fill="#E9E5CA"/>
<path d="M137.445 104.672L138.039 102.311C138.039 102.311 137.593 102.636 136.196 102.547C134.71 102.459 133.343 101.19 133.165 99.5073C132.986 97.6774 134.056 96.1131 135.602 95.818C136.434 95.6704 137.237 95.6704 137.593 96.5853C138.218 98.2677 136.286 98.7694 136.315 98.976C136.345 99.2417 137.266 100.304 138.455 99.6254C140.15 98.7104 139.496 97.4413 139.941 98.2382C140.774 99.7139 138.842 104.613 138.544 105.882C138.247 107.152 137.891 108.45 138.842 109.955C140.06 111.903 142.884 111.844 143.092 111.402C143.3 110.988 142.795 111.107 142.26 110.634C141.725 110.162 141.546 109.808 141.725 109.778C141.933 109.719 141.933 110.133 143.062 110.133C144.4 110.103 144.994 109.424 144.905 108.657C144.875 108.214 143.419 109.926 142.408 106.945C141.576 104.525 142.616 99.4483 141.695 96.9395C141.13 95.3457 139.05 93.7224 136.494 93.6339C133.462 93.5453 130.965 96.3492 130.965 99.3597C130.965 102.075 133.462 104.495 135.602 104.702C137.266 104.82 137.445 104.672 137.445 104.672Z" fill="#E9E5CA"/>
<path d="M118.601 99.9499C118.601 99.9499 118.512 100.156 117.352 100.275C116.193 100.393 116.164 100.245 116.164 100.245C116.164 100.245 117.471 95.198 122.435 94.5487C127.636 93.8698 129.776 97.3526 129.776 97.3526C129.776 97.3526 129.568 97.8248 129.568 99.1234C129.568 99.8908 129.657 100.334 129.657 100.334C129.657 100.334 127.785 96.5557 123.059 96.7623C119.879 96.8803 118.601 99.9499 118.601 99.9499Z" fill="#E9E5CA"/>
<path d="M121.157 107.358L119.641 108.863C119.641 108.863 120.622 110.398 125.14 109.867C131.411 109.129 129.509 103.285 129.123 103.344C128.796 103.403 128.914 104.466 128.261 105.469C127.399 106.768 126.864 106.62 126.864 106.62C126.864 106.62 127.101 106.325 127.101 105.587C127.101 104.82 127.042 104.407 126.715 104.407C126.477 104.407 126.299 106.591 124.099 107.27C122.227 107.86 121.157 107.358 121.157 107.358Z" fill="#E9E5CA"/>
<path d="M124.753 98.3858C124.753 98.3858 125.169 98.2972 125.972 98.6809C126.685 99.0056 126.656 99.3007 126.656 99.3007C126.656 99.3007 124.694 101.75 120.771 105.735C114.143 112.464 111.884 112.523 111.468 111.992C111.289 111.756 111.794 111.815 112.805 110.723C113.816 109.631 113.845 109.129 113.845 109.129C113.845 109.129 111.794 110.192 109.417 110.015C106.979 109.837 104.899 108.273 105.048 107.653C105.196 107.122 106.653 108.008 108.406 107.742C110.011 107.476 110.16 106.886 110.16 106.886C110.16 106.886 109.833 106.886 109.298 106.384C108.763 105.882 107.96 105.469 108.406 105.027C108.644 104.79 109.892 105.263 111.081 105.263C112.597 105.233 113.578 104.909 113.578 104.909C113.578 104.909 112.954 104.702 112.3 104.112C111.646 103.521 111.497 102.931 111.676 102.754C111.794 102.665 112.062 103.138 112.894 103.108C113.875 103.079 113.994 102.872 113.994 102.872C113.994 102.872 113.578 102.518 113.37 102.164C113.162 101.809 112.567 100.776 112.954 100.393C113.073 100.275 114.202 101.544 115.866 101.662C118.72 101.869 121.841 99.7139 121.841 99.7139C121.841 99.7139 120.325 101.485 117.055 104.141C114.975 105.853 112.329 107.24 112.478 107.565C112.656 107.949 114.737 107.476 118.304 104.643C121.246 102.341 124.753 98.3858 124.753 98.3858Z" fill="#E9E5CA"/>
<path d="M55.0844 143.455C54.6386 143.248 54.6089 143.13 54.6089 142.274C54.6089 140.74 54.7575 139.5 54.7872 138.969C54.7872 138.644 54.8467 138.467 55.0547 138.467C55.2331 138.467 55.3519 138.585 55.3519 138.821C55.3519 139.087 55.3519 139.5 55.4708 139.943C55.9761 142.215 58.4133 143.012 60.5831 143.012C63.7931 143.012 65.4278 141.212 65.4278 138.88C65.4278 136.637 64.2092 135.604 61.3558 133.479L59.8994 132.387C56.3922 129.79 55.2628 127.901 55.2628 125.746C55.2628 122.086 58.1756 119.902 62.4258 119.902C63.7039 119.902 65.0117 120.079 65.7844 120.257C66.4086 120.404 66.6761 120.404 66.9139 120.404C67.1814 120.404 67.2408 120.434 67.2408 120.611C67.2408 120.758 67.0922 121.791 67.0922 123.887C67.0922 124.359 67.0625 124.595 66.8247 124.595C66.6167 124.595 66.5572 124.448 66.5275 124.182C66.4978 123.828 66.2303 122.972 66.0519 122.647C65.8439 122.293 64.7739 121.112 61.8611 121.112C59.5131 121.112 57.5514 122.293 57.5514 124.477C57.5514 126.455 58.5322 127.576 61.7422 129.731L62.6636 130.351C66.6167 133.007 67.9542 135.161 67.9542 137.847C67.9542 139.677 67.2706 141.655 64.9522 143.16C63.585 144.045 61.5639 144.252 59.8103 144.252C58.2944 144.311 56.4219 144.075 55.0844 143.455Z" fill="white"/>
<path d="M83.588 134.866C83.588 137.877 83.588 140.326 83.7367 141.595C83.8555 142.51 84.0042 143.101 84.985 143.248C85.4308 143.307 86.1739 143.396 86.4711 143.396C86.6792 143.396 86.7386 143.543 86.7386 143.661C86.7386 143.809 86.59 143.927 86.2333 143.927C84.4797 143.927 82.3992 143.809 82.2208 143.809C82.0722 143.809 79.843 143.927 78.8622 143.927C78.5055 143.927 78.3569 143.868 78.3569 143.661C78.3569 143.543 78.4164 143.455 78.6244 143.455C78.9217 143.455 79.2783 143.396 79.5755 143.307C80.2294 143.16 80.4375 142.54 80.5267 141.625C80.6753 140.356 80.6753 137.906 80.6753 134.896V121.85L75.9792 121.909C73.958 121.939 73.1853 122.175 72.7097 122.883C72.353 123.444 72.2936 123.65 72.2044 123.857C72.145 124.123 72.0261 124.152 71.8775 124.152C71.818 124.152 71.6694 124.093 71.6694 123.887C71.6694 123.562 72.3233 120.788 72.3828 120.522C72.4422 120.345 72.5908 119.932 72.7097 119.932C72.9178 119.932 73.2744 120.197 74.1364 120.286C75.0578 120.404 76.3061 120.433 76.6628 120.433H88.8786C89.9486 120.433 90.6917 120.374 91.1969 120.286C91.6725 120.227 91.9697 120.138 92.1183 120.138C92.2669 120.138 92.2669 120.315 92.2669 120.492C92.2669 121.437 92.148 123.68 92.148 124.034C92.148 124.3 91.9994 124.447 91.8508 124.447C91.7022 124.447 91.6428 124.329 91.5833 123.887L91.5536 123.562C91.4347 122.617 90.7511 121.909 87.66 121.85L83.6178 121.791V134.866H83.588Z" fill="white"/>
<path d="M108.049 143.012C110.962 143.012 116.817 141.477 116.817 132.475C116.817 125.008 112.24 121.112 107.128 121.112C101.719 121.112 97.8249 124.477 97.8249 131.236C97.8249 138.496 102.194 143.012 108.049 143.012ZM107.306 119.961C114.588 119.961 120.117 124.388 120.117 131.619C120.117 138.555 114.915 144.311 107.128 144.311C98.2708 144.311 94.4663 137.699 94.4663 132.091C94.4663 127.103 98.3599 119.961 107.306 119.961Z" fill="white"/>
<path d="M129.509 132.032C129.509 132.209 129.598 132.327 129.717 132.446C130.192 132.711 131.857 132.918 133.283 132.918C134.056 132.918 134.948 132.888 135.721 132.357C136.82 131.619 137.682 129.996 137.682 127.605C137.682 123.739 135.542 121.496 132.095 121.496C131.143 121.496 130.103 121.614 129.776 121.673C129.628 121.732 129.509 121.85 129.509 122.027V132.032ZM126.715 129.406C126.715 124.565 126.715 123.709 126.655 122.706C126.566 121.643 126.388 121.141 125.318 120.994C125.05 120.964 124.515 120.905 124.218 120.905C124.099 120.905 123.951 120.758 123.951 120.64C123.951 120.463 124.099 120.374 124.456 120.374C125.942 120.374 128.112 120.433 128.29 120.433C128.617 120.433 131.352 120.374 132.332 120.374C134.383 120.374 136.672 120.551 138.366 121.732C139.168 122.322 140.625 123.827 140.625 125.982C140.625 128.284 139.674 130.527 136.642 133.065C139.287 136.341 141.546 139.175 143.419 141.093C145.143 142.835 146.213 143.13 147.015 143.248C147.639 143.366 147.966 143.366 148.145 143.366C148.323 143.366 148.442 143.514 148.442 143.632C148.442 143.809 148.263 143.897 147.669 143.897H145.648C143.805 143.897 143.003 143.72 142.2 143.277C140.803 142.54 139.614 141.034 137.772 138.703C136.404 137.02 134.978 135.013 134.264 134.157C134.116 134.01 134.056 133.98 133.818 133.98L129.687 133.921C129.538 133.921 129.479 133.98 129.479 134.187V134.925C129.479 137.935 129.479 140.326 129.628 141.625C129.747 142.54 129.925 143.13 130.906 143.277C131.352 143.366 132.035 143.425 132.332 143.425C132.54 143.425 132.6 143.573 132.6 143.691C132.6 143.838 132.451 143.956 132.095 143.956C130.341 143.956 128.26 143.838 128.112 143.838C128.082 143.838 125.912 143.956 124.902 143.956C124.575 143.956 124.397 143.897 124.397 143.691C124.397 143.573 124.456 143.425 124.664 143.425C124.961 143.425 125.377 143.366 125.645 143.277C126.269 143.13 126.358 142.54 126.477 141.625C126.655 140.355 126.655 137.906 126.655 134.895V129.406H126.715Z" fill="white"/>
<rect x="28" y="149" width="200" height="2" transform="rotate(-45 28 149)" fill="black"/>
</svg>
