<svg width="256" height="64" viewBox="0 0 256 64" fill="none" xmlns="http://www.w3.org/2000/svg">
<path d="M117.329 28.5841C112.676 25.3481 108.29 22.3818 108.29 16.4493C108.29 12.9436 110.349 9.16836 116.076 9.16836C120.999 9.16836 124.131 11.7751 125.116 16.629C125.116 16.7189 125.205 16.8088 125.295 16.8088H125.652C125.742 16.8088 125.742 16.8088 125.831 16.7189C125.831 16.629 125.921 16.629 125.921 16.5391C125.831 15.5504 125.831 13.9324 125.831 12.9436C125.831 11.2358 125.921 10.0672 126.01 8.62903C126.01 8.53915 126.01 8.44926 125.921 8.44926C125.831 8.35937 125.831 8.35937 125.742 8.35937C125.384 8.44926 125.026 8.44926 124.668 8.44926C123.505 8.44926 122.431 8.26948 121.178 7.99982C119.656 7.73016 117.956 7.37061 115.897 7.37061C108.559 7.37061 103.458 12.3144 103.458 19.4156C103.458 26.8762 108.738 30.4717 113.75 33.9773C118.582 37.3032 123.236 40.4493 123.236 46.8313C123.236 52.8538 118.851 55.5504 114.466 55.5504C109.454 55.5504 104.352 52.7639 104.352 47.4605C104.352 47.0111 104.442 46.5616 104.442 46.0223V45.8425C104.442 45.7526 104.442 45.7526 104.352 45.6627C104.352 45.5729 104.263 45.5729 104.173 45.5729H103.816C103.726 45.5729 103.637 45.6627 103.637 45.6627C102.921 47.3706 102.831 49.3481 102.831 49.8875C102.831 50.7863 102.921 51.5054 103.01 52.3144C103.1 53.0335 103.189 53.7526 103.189 54.4717C103.189 55.0111 103.189 55.82 103.1 56.1796C103.1 56.2695 103.1 56.3594 103.189 56.3594C103.279 56.4493 103.279 56.4493 103.368 56.4493C103.726 56.3594 103.905 56.3594 104.352 56.3594C105.784 56.3594 106.948 56.629 108.201 56.8987C109.722 57.2582 111.423 57.6178 113.839 57.6178C122.073 57.6178 127.8 51.9549 127.8 43.9549C127.979 35.865 122.52 32.1796 117.329 28.5841Z" fill="#990000"/>
<path d="M190.179 7.37061C174.697 7.37061 165.479 20.3144 165.479 32.8088C165.479 44.9436 174.518 57.6178 189.642 57.6178C203.425 57.6178 214.164 46.6515 214.164 32.629C214.164 18.5167 203.604 7.37061 190.179 7.37061ZM207.542 32.9886C207.542 46.9212 200.651 55.5504 189.642 55.5504C178.724 55.5504 172.191 46.9212 172.191 32.5391C172.191 21.7526 176.755 9.25825 189.642 9.25825C197.876 9.34813 207.542 15.5504 207.542 32.9886Z" fill="#990000"/>
<path d="M254.706 56.8089C250.679 55.4606 246.025 47.101 242.714 40.9887C240.745 37.483 239.223 34.6965 238.149 33.7077C243.967 31.4606 247.367 26.7864 247.367 21.2134C247.367 12.7639 240.924 7.28076 230.9 7.28076C230.184 7.28076 229.021 7.28076 227.857 7.37065C226.425 7.37065 224.904 7.46054 223.74 7.46054C220.698 7.46054 219.445 7.46054 217.118 7.28076C217.028 7.28076 217.028 7.28076 216.939 7.37065C216.939 7.37065 216.849 7.46054 216.849 7.55042V7.90998C216.849 7.99986 216.939 8.08975 217.028 8.08975C219.355 8.4493 220.161 9.34818 220.161 14.1122V50.8763C220.161 56.3595 219.266 56.5392 216.939 56.8988C216.849 56.8988 216.76 56.9887 216.76 57.0786V57.4381C216.76 57.528 216.76 57.528 216.849 57.6179C216.849 57.6179 216.939 57.7078 217.028 57.7078C218.46 57.6179 220.34 57.528 223.024 57.528C225.888 57.528 228.126 57.6179 229.021 57.7078C229.11 57.7078 229.11 57.7078 229.2 57.6179C229.2 57.6179 229.289 57.528 229.289 57.4381V57.0786C229.289 56.9887 229.2 56.8988 229.11 56.8988C226.783 56.5392 225.888 56.3595 225.888 50.8763V35.2358H230.095C230.811 35.2358 231.795 35.146 232.959 34.9662C234.211 36.1347 235.554 38.7415 236.449 40.3594C236.628 40.719 236.807 40.9887 236.896 41.2583C244.951 56.4493 245.846 57.3482 253.185 57.7078C253.99 57.7078 254.259 57.7078 254.975 57.6179C255.064 57.6179 255.154 57.528 255.154 57.4381V56.9887C254.885 56.8988 254.796 56.8089 254.706 56.8089ZM241.103 22.0223C241.103 29.7527 237.165 33.2583 228.752 33.2583H225.709V9.8875C227.678 9.34818 229.021 9.25829 230.453 9.25829C236.896 9.25829 241.103 14.292 241.103 22.0223Z" fill="#990000"/>
<path d="M167.089 7.64027C167.089 7.55038 167.089 7.46049 167.089 7.46049C167.089 7.37061 167 7.37061 166.91 7.37061C163.689 7.46049 146.774 7.73016 131.559 7.37061C131.47 7.37061 131.38 7.46049 131.38 7.55038C131.112 8.80881 130.754 9.88746 130.485 10.8762C130.127 12.1347 129.769 13.3931 129.501 14.6515C129.501 14.7414 129.501 14.7414 129.59 14.8313C129.59 14.9212 129.68 14.9212 129.769 14.9212H130.127C130.217 14.9212 130.306 14.8313 130.306 14.8313C132.275 10.6066 135.408 10.6066 145.879 10.6066V50.9661C145.879 56.4493 144.984 56.6291 142.657 56.9886C142.567 56.9886 142.478 57.0785 142.478 57.1684V57.5279C142.478 57.6178 142.478 57.6178 142.567 57.7077C142.567 57.7077 142.657 57.7976 142.746 57.7976C144.089 57.7077 146.058 57.6178 148.653 57.6178C151.428 57.6178 153.754 57.7077 154.56 57.7976C154.649 57.7976 154.649 57.7976 154.739 57.7077C154.739 57.7077 154.828 57.6178 154.828 57.5279V57.1684C154.828 57.0785 154.739 56.9886 154.649 56.9886C152.322 56.6291 151.428 56.4493 151.428 50.9661V10.4268C163.42 10.4268 165.031 10.8762 165.031 12.7639C165.031 13.1234 164.941 13.483 164.941 13.7526C164.941 13.8425 164.941 13.9324 164.941 13.9324C164.941 14.0223 165.031 14.0223 165.12 14.0223H165.568C165.657 14.0223 165.747 13.9324 165.747 13.8425C165.747 12.7639 166.552 9.43802 167.089 7.64027Z" fill="#990000"/>
<path d="M98.9829 7.28076C97.6405 7.37065 95.0451 7.37065 92.7182 7.37065C90.3018 7.37065 87.6169 7.28076 86.185 7.28076C86.0955 7.28076 86.0955 7.28076 86.006 7.37065C86.006 7.37065 85.9165 7.46054 85.9165 7.55042V7.90998C85.9165 7.99986 86.006 8.08975 86.0955 8.08975C88.4224 8.4493 90.0333 8.71896 90.0333 13.8426V43.6853C90.0333 49.3482 87.3484 55.3707 83.0526 55.3707C82.2471 55.3707 81.5312 55.2808 80.8152 55.1909C77.7723 54.4718 75.9824 52.3145 74.819 50.7864C74.64 50.6066 74.5505 50.3369 74.3715 50.1572C73.1185 48.3594 72.5815 46.6516 72.5815 46.6516C72.4921 46.4718 72.4026 46.3819 72.2236 46.4718C72.0446 46.4718 71.9551 46.6516 71.9551 46.8313L72.9395 54.6515C72.9395 54.7414 73.029 54.8313 73.1185 54.9212C75.8929 56.719 79.4728 57.2583 80.0992 57.3482C81.2627 57.528 82.1576 57.528 82.6946 57.528C83.1421 57.528 83.4106 57.528 83.4106 57.528C90.5703 57.528 95.4031 51.6853 95.4031 42.9662V13.8426C95.4031 8.80885 96.5665 8.53919 98.9829 8.08975H99.0724C99.1619 8.08975 99.2514 7.99986 99.2514 7.90998V7.55042C99.2514 7.46054 99.2514 7.46054 99.1619 7.37065C99.1619 7.37065 99.0724 7.28076 98.9829 7.28076Z" fill="#990000"/>
<path d="M0 0V64H63.6318V0H0ZM11.187 4.49438C11.187 4.49438 13.1559 4.31461 15.1249 5.1236C15.9303 5.48315 16.5568 5.8427 17.0938 6.29214C17.8992 6.83146 18.5257 7.2809 19.3312 7.01124C20.4051 6.65169 20.5841 5.8427 20.6736 5.39326C20.6736 5.30337 20.7631 5.03371 20.7631 5.03371C20.8526 5.03371 20.9421 5.1236 21.1211 5.30337C21.3001 5.57303 21.8371 6.65169 20.4946 8.53933C19.7787 9.61798 18.6152 9.79775 18.5257 9.79775C18.4362 9.79775 18.4362 9.79775 18.4362 9.88764C18.4362 9.88764 18.4362 9.97753 18.4362 10.0674C18.5257 10.3371 18.5257 10.5169 18.5257 10.6966C18.6152 11.3258 18.5257 11.9551 18.0782 13.0337C17.3623 14.6517 16.0198 15.6405 14.2299 15.9101C12.5295 16.0899 11.0975 15.1011 10.5605 14.0225C10.1131 13.0337 10.1131 11.8652 10.4711 10.8764C10.5605 10.6067 10.7395 10.427 10.9185 10.3371C11.008 10.3371 11.008 10.3371 11.0975 10.427C11.2765 10.5169 11.2765 10.8764 11.2765 11.236C11.2765 11.5955 11.2765 12.1348 11.4555 12.6742C11.724 13.4831 12.619 14.2022 13.6929 14.1124C15.3933 13.9326 16.4673 12.764 16.4673 10.8764C16.4673 8.89888 15.2143 6.5618 11.545 6.47191C11.4555 6.47191 11.4555 6.47191 11.366 6.47191C9.93407 6.47191 8.68113 7.01124 7.69667 8C6.53322 9.16854 5.72776 10.9663 5.72776 12.764C5.63826 16.0899 7.42818 18.0674 8.86012 19.1461C10.3816 20.2247 12.7085 20.3146 15.5723 19.3258C16.5568 18.9663 17.6307 18.6067 18.7047 18.1573C19.5997 17.7978 20.4946 17.4382 21.3896 17.0787C21.9266 16.8989 22.4635 16.7191 23.0005 16.6292H23.09L23.269 16.5393C23.0005 16.2697 22.732 15.8202 22.374 15.3708C21.6581 14.2921 21.3896 12.4045 21.6581 11.9551C21.7476 11.7753 21.9266 11.7753 21.9266 11.7753H22.0161C22.0161 11.7753 22.0161 11.8652 22.0161 11.9551C22.0161 12.0449 22.0161 12.4944 22.195 12.764C22.4635 13.0337 22.8215 13.1236 23.0005 13.0337C23.09 13.0337 23.09 12.9438 23.09 12.9438C23.1795 12.764 23.3585 11.9551 23.8955 11.236C24.2535 10.6966 25.4169 9.79775 26.1329 9.79775C26.1329 9.79775 26.1329 9.79775 26.2224 9.79775C26.4014 9.79775 26.4909 9.88764 26.5804 10.0674C26.6699 10.2472 26.4014 10.6067 26.3119 10.6966C25.6854 11.3258 24.9694 12.3146 24.9694 13.8427C24.9694 14.5618 25.1484 15.191 25.5959 15.6404C26.4014 16.5393 27.8333 16.6292 28.1018 16.6292V18.2472H28.0123C26.5804 18.2472 25.5064 19.9551 25.0589 21.7528C24.7904 23.191 25.0589 25.1685 25.1484 25.7978C25.2379 26.3371 25.1484 26.5169 25.1484 26.5169C25.1484 26.5169 25.1484 26.5169 25.0589 26.5169C24.7904 26.427 24.2535 25.7978 23.627 24.809C23.1795 24.0899 23.269 23.191 23.3585 22.7416C23.3585 22.4719 23.448 22.382 23.269 22.2921C23.1795 22.2022 23.09 22.2022 23.0005 22.2022C22.8215 22.2022 22.732 22.2921 22.553 22.4719C22.4635 22.6517 22.374 22.7416 22.2845 22.8315C22.195 22.9213 22.1951 22.9213 22.0161 22.8315C21.9266 22.4719 22.2845 21.2135 22.8215 20.4045C23.269 19.6854 23.627 19.236 24.2535 18.6966L24.4325 18.5169L24.2535 18.6067C22.1951 19.0562 20.1366 19.8652 18.8837 20.764C17.2728 21.8427 15.9303 23.191 15.0354 24.6292C14.8564 24.5393 14.6774 24.4494 14.3194 24.2697C14.0509 24.1798 13.6929 24 13.3349 24C13.6929 23.4607 14.4089 22.7416 14.6774 22.382C14.6774 22.2921 14.6774 22.2022 14.6774 22.2022C14.5879 22.1124 14.5879 22.1124 14.4984 22.1124C14.4089 22.1124 12.619 22.8315 9.3971 21.6629C6.80171 20.6742 4.02733 17.8876 4.20632 12.8539C4.20632 7.46067 7.78617 4.85393 11.187 4.49438ZM5.01179 27.5955C5.19078 27.236 5.28027 26.9663 5.36977 26.6966C5.54876 26.1573 5.72776 25.8876 5.72776 25.1685C5.81725 24.3596 5.54876 23.7303 5.36977 23.5506C5.54876 23.5506 6.17524 23.8202 6.44372 24.3596C6.62272 24.809 6.9807 25.8876 6.8912 26.1573V26.2472C6.8912 26.2472 6.9807 26.2472 7.0702 26.1573C7.51768 25.7978 8.86012 24.809 11.0975 24.809C15.3933 24.809 17.2728 28.764 17.2728 28.8539C17.2728 28.8539 17.8992 29.0337 18.9732 28.4944C19.4207 28.3146 19.6892 28.0449 19.9576 27.8652C20.4051 27.5056 20.7631 27.1461 21.8371 27.1461C22.911 27.1461 23.627 27.6854 23.806 28.1348C23.806 28.2247 23.8955 28.4045 23.7165 28.4944C23.5375 28.5843 23.5375 28.5843 23.448 28.5843C23.269 28.4944 23.09 28.4045 22.2845 28.4944C21.6581 28.5843 21.3001 29.2135 21.0316 29.8427C20.6736 30.5618 20.3156 31.2809 19.5102 31.4607C18.7942 31.6404 17.8992 31.191 17.7202 30.9214C17.7202 30.8315 17.6307 30.7416 17.5413 30.7416C17.4518 30.7416 17.4518 30.8315 17.4518 30.9214C17.4518 30.9214 17.4518 31.5506 17.0043 32.7191C16.6463 33.7978 14.9459 36.3146 11.545 35.4157C9.48659 34.8764 8.68113 32.8989 8.77063 31.7303C8.77063 31.3708 8.94962 31.1011 9.12861 31.0112C9.3076 31.0112 9.3971 31.1011 9.48659 31.191C9.66559 31.6405 9.84458 32.0899 10.0236 32.4494C10.3816 32.9888 11.008 33.618 11.724 33.7978C13.4244 34.1573 14.4089 33.2584 14.6774 33.1685C15.3038 32.5393 15.6618 31.5506 15.5723 30.4719C15.4828 29.1236 14.7669 28.2247 14.1404 27.7753C13.4244 27.1461 12.44 26.7865 11.4555 26.7865H11.366C10.1131 26.7865 8.86012 27.3258 7.87566 28.1348C6.62272 29.2135 5.90675 30.9213 5.72776 32.8989C5.63826 34.6067 6.26473 36.5843 7.60717 37.9326C8.59163 39.0112 9.84458 39.6404 11.008 39.6404H11.0975C14.3194 39.6404 16.3778 37.6629 18.6152 35.5056C20.6736 33.5281 22.8215 31.4607 26.1329 30.5618C26.4014 30.4719 27.5648 30.382 27.7438 30.382L27.6543 32.1798C25.7749 32.5393 23.1795 33.7079 23.269 35.0562C23.3585 36.3146 24.2535 37.0337 24.6114 37.3933C24.7009 37.4831 24.7904 37.573 24.7904 37.573C24.7904 37.573 24.7904 37.6629 24.6114 37.6629C24.2535 37.7528 23.448 37.9326 22.8215 37.573C21.9266 37.2135 21.1211 35.7753 21.1211 35.7753V35.6854L21.0316 35.7753C21.0316 35.7753 18.4362 38.4719 17.0938 39.4607C16.1988 40.0899 13.7824 41.8876 11.008 41.7079C9.03911 41.618 7.24919 40.7191 5.90675 39.191C4.47481 37.573 3.75884 35.3258 3.75884 32.9888C4.02733 30.7416 4.20632 29.6629 5.01179 27.5955ZM10.5605 38.1124C10.0236 38.0225 8.68113 37.1236 8.59163 36.9438C8.59163 36.4944 8.68113 35.4157 8.86012 34.7865C9.57609 35.9551 10.65 36.4944 10.65 36.4944C10.4711 37.2135 10.5605 38.1124 10.5605 38.1124ZM10.2921 29.9326C10.3816 29.1236 10.829 28.3146 11.0975 27.9551C12.082 27.7753 12.798 28.3146 12.8874 28.4045C12.3505 29.4831 11.9925 30.7416 11.6345 31.9101C11.2765 31.8202 10.7395 31.2809 10.2921 29.9326ZM12.082 55.4607C11.187 57.3483 9.75508 58.9663 9.48659 58.6966C9.21811 58.5169 9.57609 58.2472 9.66559 57.7079C9.84458 57.1685 9.84458 56.9888 9.84458 56.9888C9.84458 56.9888 9.48659 57.5281 8.05466 58.427C6.62272 59.3258 6.35423 59.4157 6.17524 59.0562C5.99624 58.7865 6.35423 58.6067 6.71221 57.9775C7.0702 57.4382 6.9807 57.5281 6.9807 57.5281C6.9807 57.5281 5.81725 57.4382 4.83279 56.9888C3.84834 56.5393 2.86388 55.5506 2.86388 55.3708C2.86388 55.1011 3.31136 54.9213 4.02733 54.5618C4.83279 54.2022 5.36977 53.6629 5.36977 53.6629C5.36977 53.6629 4.83279 53.4831 4.47481 53.3034C4.02733 53.0337 3.49035 52.8539 3.84834 52.5843C4.11682 52.3146 5.36977 53.2135 7.33869 51.3258C9.03911 49.7079 9.03911 47.3708 9.03911 47.3708C9.03911 47.3708 9.84458 50.1573 8.77063 52.3146C7.42818 55.0112 4.92229 55.0112 5.19078 55.6405C5.54876 56.3596 8.59163 55.7303 9.93408 52.4944C11.008 49.7978 9.84458 46.2921 9.03911 44.3146C8.77063 43.6854 8.50214 42.9663 8.23365 42.3371C9.03911 42.6966 9.66559 42.8764 10.2921 42.9663L10.3816 43.1461C11.0975 44.3146 12.261 44.764 12.8874 45.0337C13.5139 45.2135 14.1404 45.3933 14.7669 45.3933C15.3038 45.3933 15.8408 45.3034 16.3778 45.1236C16.7358 45.0337 17.0043 44.8539 17.2728 44.5843C17.9887 43.7753 18.1677 41.2584 18.5257 41.0787C18.7047 40.9888 19.0627 41.618 19.2417 42.0674C19.4207 42.5169 19.3312 42.9663 19.5997 43.0562C19.7787 43.1461 19.9576 42.8764 20.3156 42.427C20.9421 41.7079 20.8526 41.4382 21.1211 41.5281C21.3896 41.618 21.1211 43.1461 20.9421 44.0449C20.7631 44.8539 20.4051 46.1124 20.4051 46.1124C20.4051 46.1124 21.3896 45.4831 22.374 45.0337C24.9694 43.8652 25.9539 44.2247 26.0434 44.5843C26.0434 44.9438 25.4169 44.9438 24.7904 45.7528C24.343 46.2921 24.4325 46.4719 24.4325 46.4719C24.4325 46.4719 24.7904 46.4719 25.8644 46.2023C26.6699 46.0225 27.2963 45.6629 27.5648 45.9326C27.7438 46.2921 26.7594 47.6404 25.2379 48.7191C23.7165 49.7978 22.374 50.2472 22.374 50.2472C22.374 50.2472 22.6425 50.6067 23.448 50.6966C24.2535 50.8764 24.522 50.6966 24.6114 50.9663C24.7009 51.236 23.806 51.5056 22.374 51.6854C20.3156 51.8652 19.2417 50.9663 19.2417 50.9663C19.2417 50.9663 19.5102 51.6854 19.1522 52.4944C18.7942 53.0337 18.7942 53.7528 18.4362 53.6629C18.1677 53.573 18.5257 52.8539 17.8992 52.1348C17.2728 51.3258 16.5568 51.236 15.4828 50.3371C14.4089 49.5281 14.4089 48.8989 14.4089 48.8989C14.4089 48.8989 16.1988 49.618 19.1522 49.0787C22.0161 48.6292 22.8215 47.7303 22.6425 47.4607C22.4635 47.191 22.0161 47.5506 20.6736 47.8202C19.1522 48.1798 17.0043 48.0899 14.6774 47.6404C13.8719 47.4607 12.7085 47.1011 11.724 46.4719C12.082 47.2809 12.798 48.7191 12.8874 49.7079C13.2454 51.5955 12.9769 53.573 12.082 55.4607ZM23.7165 59.8652C21.2106 60.3146 16.3778 59.5955 16.3778 59.5955L13.8719 51.5955C13.8719 51.5955 16.4673 54.0225 17.8097 55.1011C19.1522 56.1798 20.4051 56.7191 22.2845 56.7191C24.164 56.7191 25.5064 56.2697 26.9383 54.7416C28.3703 53.2135 28.9073 51.3258 29.2652 48.9888C29.5337 47.3708 29.4442 42.7865 29.4442 41.7079L29.8022 16.809C29.8022 16.809 29.9812 11.4157 29.6232 10.0674C29.2652 8.7191 28.4598 7.73034 27.9228 7.19101C26.8489 6.11236 24.6114 5.66292 24.6114 5.66292C23.985 5.57303 23.806 5.21348 23.8955 4.94382C23.806 4.49438 24.2535 4.49438 24.2535 4.49438H40.4523C40.4523 4.49438 40.8103 4.49438 40.8997 5.03371C40.9892 5.39326 40.8103 5.66292 40.1838 5.75281C40.1838 5.75281 37.9464 6.11236 36.8724 7.2809C36.4249 7.82023 35.6195 8.80899 35.172 10.1573C34.814 11.5056 34.993 16.8989 34.993 16.8989V41.7978C34.993 41.7978 35.0825 46.5618 34.456 49.1685C34.0085 50.9663 33.0241 54.382 30.3392 56.809C27.8333 58.8764 25.9539 59.4157 23.7165 59.8652ZM38.6623 41.618C38.8413 43.3258 40.2733 44.8539 42.2422 44.6742C43.0477 44.5843 43.6741 44.2247 44.1216 43.7753L43.9426 43.6854C43.6741 43.4157 42.7792 42.6067 41.9737 41.618C41.2577 40.7191 40.8997 40.1798 40.8103 40.0899L40.6313 39.8202C40.6313 39.8202 40.8997 39.6404 41.6157 39.6404C42.4212 39.6404 43.2267 40.2697 43.4056 40.4494C43.4056 40.4494 43.7636 40.8989 45.0166 42.1573C46.4485 43.6854 47.433 44.4045 47.612 44.4944C47.612 44.9438 47.5225 45.7528 47.3435 46.382C46.717 46.0225 45.822 45.3034 45.3746 44.9438C45.2851 44.8539 45.2851 44.8539 45.1956 44.8539C44.6586 45.4832 43.9426 46.1124 42.7792 46.4719C42.5107 46.5618 42.2422 46.5618 41.9737 46.5618C39.3783 46.4719 37.6779 44.5843 37.3199 42.6966C37.1409 41.9775 37.2304 41.0787 37.2304 40.5393C37.2304 40 37.3199 39.5506 37.1409 39.191C37.0514 38.8315 36.7829 38.5618 36.6934 38.382C36.6039 38.2022 36.5144 38.1124 36.6039 38.0225C36.7829 37.8427 37.1409 37.9326 37.5884 38.2022C37.8569 38.382 37.9464 38.5618 38.0359 38.6517C38.3044 38.2921 39.4678 36.6742 41.5262 36.5843C42.2422 36.5843 42.8687 36.6742 43.3161 37.0337C43.6741 37.3034 43.9426 37.6629 44.1216 38.0225C44.2111 38.2921 44.2111 38.5618 44.0321 38.6517C43.9426 38.7416 43.6741 38.5618 43.4056 38.4719C42.9582 38.2921 42.3317 38.0225 41.5262 38.1124C40.8998 38.2023 40.0048 38.6517 39.3783 39.4607C38.8413 39.9101 38.5728 40.7191 38.6623 41.618ZM37.4094 26.5169C37.0514 24 37.2304 22.8315 37.2304 22.8315C37.7674 23.0112 38.7518 24 39.1098 24.3596C39.1098 24.3596 39.0203 24.7191 39.2888 26.2472C39.4678 27.4157 39.8258 28.4944 39.9153 28.9438L38.1254 29.7528C37.8569 29.1236 37.5884 27.8652 37.4094 26.5169ZM38.9308 22.4719C37.6779 21.3034 36.6934 21.0337 36.6934 21.0337V18.8764C37.3199 19.1461 38.6623 19.8652 39.4678 20.5843C40.2733 21.2135 40.8103 21.9326 41.3472 22.4719L40.9892 24.7191C40.4523 24 39.7363 23.191 38.9308 22.4719ZM59.157 55.6405C59.157 55.7303 59.157 55.7303 59.157 55.6405C58.62 57.4382 57.6355 58.6067 56.1141 59.0562C55.6666 59.236 55.2191 59.236 54.8612 59.236C53.8767 59.236 53.0712 58.8764 52.1763 58.3371C52.0868 58.3371 51.6393 58.2472 51.1023 58.5169C50.8338 58.6966 50.6548 58.8764 50.5653 58.9663C50.4758 59.0562 50.3863 59.1461 50.2968 59.1461C50.2968 59.1461 50.2074 59.1461 50.2074 59.0562C50.1179 58.8764 50.1179 58.3371 50.4758 57.7978C50.6548 57.4382 50.9233 57.2584 50.9233 57.1685C50.8338 56.8989 50.2074 55.3708 51.0128 53.6629C51.5498 52.4944 52.9817 51.8652 54.0557 52.3146C55.1296 52.764 55.4876 53.573 55.4876 54.2022C55.4876 54.6517 55.3086 55.1011 55.0401 55.191C54.9506 55.2809 54.7717 55.2809 54.6822 55.2809C54.5927 55.191 54.5927 55.0112 54.5927 54.8315C54.5927 54.4719 54.5927 54.0225 53.9662 53.7528C53.6977 53.573 53.3397 53.573 52.9817 53.6629C52.7132 53.7528 52.4448 53.9326 52.2658 54.4719C51.9973 55.1011 52.0868 55.7303 52.3553 56.2697C52.7132 56.8989 53.4292 57.4382 54.3242 57.618C55.7561 57.9775 57.1881 56.8989 57.6355 55.191C57.8145 54.6517 57.8145 54.1124 57.6355 53.4831C57.2775 52.2247 56.3826 51.1461 54.4137 50.1573C53.6977 49.7978 52.2658 49.1685 51.7288 48.8989C51.9973 48 52.0868 47.7303 52.1763 47.3708C52.3553 47.1011 52.8922 46.5618 53.4292 46.4719C54.0557 46.2921 54.6822 46.6517 54.6822 46.7416C54.6822 46.8315 53.8767 47.0112 53.4292 48.0899C53.6082 48.1798 55.0401 48.5393 56.2931 49.3483C58.3515 50.6966 58.978 52.1348 59.157 52.764C59.4255 53.9326 59.4255 54.9214 59.157 55.6405ZM59.6045 43.3258C59.157 45.7528 57.8145 46.8315 56.6511 46.9213C56.5616 46.9213 56.4721 46.9213 56.3826 46.9213C56.0246 46.9213 55.7561 46.8315 55.6666 46.6517C55.6666 46.5618 55.6666 46.5618 55.6666 46.4719C55.6666 46.382 55.8456 46.2921 56.0246 46.2921C56.2931 46.2022 56.5616 46.1124 56.9196 45.8427C57.904 45.0337 57.8145 44.6742 57.8145 44.4045V44.3146C57.725 44.3146 57.6355 44.3146 57.4565 44.4944H57.367C57.0986 44.5843 56.9196 44.5843 56.7406 44.5843C56.6511 44.4944 56.5616 44.4944 56.5616 44.3146C56.5616 44.2247 56.6511 44.0449 56.8301 43.9551C56.9196 43.8652 57.0986 43.6854 57.1881 43.5955C57.725 42.7865 57.8145 41.8876 57.367 41.0787C57.0986 40.5393 56.6511 40 55.4876 39.9101H55.3981C55.3981 39.9101 55.3981 39.9101 55.3086 39.9101C55.1296 39.9101 54.9506 39.9101 54.7717 40C53.4292 40.2697 52.5343 41.1685 51.9078 42.1573C51.1023 43.4157 50.8338 45.3034 50.8338 45.6629C50.5653 47.3708 50.0284 49.8876 46.4485 54.382C46.001 54.9213 45.7325 55.6404 45.9115 56.4494C46.2695 57.8876 47.612 57.9775 47.612 58.1573C47.612 58.3371 47.3435 58.3371 46.8065 58.3371C46.2695 58.3371 46.0905 58.1573 46.0905 58.1573C46.0905 58.1573 46.001 58.5169 46.8065 59.0562C47.433 59.5056 48.1489 59.5056 48.2384 59.6854C48.2384 59.9551 44.3006 60.8539 44.0321 56.809C44.0321 56.7191 44.0321 56.6292 44.0321 56.5393C39.7363 60.4944 38.4834 60.6742 38.1254 60.3146C37.9464 60.1348 38.3939 60.1348 39.1993 59.236C40.0048 58.2472 40.0943 57.8876 40.0943 57.8876C40.0943 57.8876 38.3939 58.7865 36.5144 58.6067C34.5455 58.427 32.8451 56.9888 33.0241 56.4494C33.1136 56 34.277 56.809 35.709 56.5393C37.0514 56.3596 37.1409 55.8202 37.1409 55.8202C37.1409 55.8202 36.8724 55.8202 36.4249 55.3708C35.9775 54.9213 35.351 54.5618 35.709 54.2022C35.888 54.0225 36.8724 54.4719 37.8569 54.4719C39.1098 54.4719 39.9153 54.2022 39.9153 54.2022C39.9153 54.2022 39.3783 54.0225 38.8413 53.4831C38.3044 52.9438 38.2149 52.4045 38.3939 52.3146C38.4834 52.2247 38.6623 52.6742 39.3783 52.6742C40.1838 52.6742 40.2733 52.4944 40.2733 52.4944C40.2733 52.4944 39.9153 52.2247 39.7363 51.8652C39.5573 51.5955 39.1098 50.6067 39.3783 50.3371C39.4678 50.2472 40.3628 51.3258 41.7052 51.5056C44.0321 51.6854 46.538 49.8876 46.538 49.8876C46.538 49.8876 45.2851 51.4157 42.6002 53.7528C40.8997 55.191 38.7518 56.4494 38.8413 56.7191C39.0203 57.0787 40.7208 56.6292 43.5846 54.2022C44.4796 53.3933 45.1061 52.8539 46.359 51.3258C48.5964 48.5393 49.1334 45.4832 48.6859 43.0562C48.5069 42.0674 48.2384 41.2584 47.9699 40.5393C46.717 37.8427 45.3746 36.4944 43.1372 35.5955C41.1682 34.7865 39.5573 35.5056 38.6623 35.9551C38.2149 36.1348 37.8569 36.3146 37.7674 36.1348C37.3199 35.5955 38.2149 34.7865 38.9308 34.0674C39.8258 33.1685 40.4523 32.809 40.6313 32.7191C40.4523 32.6292 39.8258 32.3596 39.2888 32.2697C39.0203 32.2697 38.6623 32.2697 38.3044 32.3596C37.8569 32.4494 37.4989 32.4494 37.4094 32.2697C37.3199 31.8202 39.1993 30.9213 40.2733 30.6517C41.3472 30.2921 42.1527 30.2921 42.3317 30.2921C42.3317 30.0225 42.1527 28.3146 42.3317 25.7079C42.4212 24.3596 42.6897 23.3708 42.8687 22.8315C43.1372 22.1124 43.4056 21.6629 43.6741 21.4831C43.7636 21.3933 43.8531 21.3933 43.9426 21.4831C44.1216 21.573 44.1216 21.9326 44.1216 22.4719C44.1216 22.8315 44.1216 23.191 44.1216 23.6404C44.2111 24.8989 44.6586 25.618 44.9271 25.7978H45.0166C45.1061 25.7978 45.1061 25.618 45.1956 25.3483C45.2851 25.0787 45.2851 24.6292 45.5536 24.0899C46.001 23.191 46.8065 22.2022 47.075 22.2921C47.1645 22.2921 47.1645 22.382 47.1645 22.5618C47.1645 23.0112 47.075 23.3708 46.9855 23.7303C46.896 24.5393 46.717 25.4382 46.8065 27.0562C46.896 29.4831 48.0594 29.8427 48.1489 29.8427C48.2384 29.7528 48.7754 28.764 49.5809 27.9551C49.7599 27.7753 49.9389 27.5955 50.0284 27.4157C50.5653 26.8764 50.9233 26.427 51.1918 26.427C51.2813 26.427 51.3708 26.5169 51.3708 26.6067C51.4603 26.7865 51.2813 27.1461 51.0128 27.7753C50.6548 28.6742 50.1179 30.0225 49.8494 31.6405C49.4019 34.7865 49.8494 37.8427 49.8494 37.8427V38.0225L49.7599 37.8427C49.7599 37.8427 49.4914 37.1236 48.4174 35.5056C47.8805 34.7865 47.5225 34.3371 47.1645 33.8876C46.717 33.3483 46.2695 32.8989 45.643 31.8202C44.9271 30.6517 44.7481 29.6629 44.6586 29.1236C44.5691 28.5843 44.4796 28.4045 44.2111 28.3146C44.2111 28.3146 44.1216 28.3146 44.1216 28.4045C43.8531 28.764 44.0321 31.0112 44.6586 32.2697C45.0166 32.9888 45.4641 33.5281 45.9115 34.1573C46.4485 34.7865 46.9855 35.5955 47.7015 36.6742C48.9544 38.7416 49.5809 40.2697 49.8494 41.1685C49.9389 41.3483 49.9389 41.618 50.0284 41.7978C50.2074 41.5281 50.4758 41.1685 50.4758 41.0787C52.7132 38.6517 54.5927 38.4719 55.9351 38.7416C56.9196 38.9213 57.725 39.4607 58.3515 40.3596C59.5149 40.9888 59.7834 42.2472 59.6045 43.3258ZM39.1993 18.7865L37.4989 17.7079C37.7674 16.6292 38.8413 12.1348 41.5262 9.16854C44.3006 6.11236 47.7015 5.1236 50.6548 5.1236C52.2658 5.1236 53.7872 5.39326 54.9506 5.66292C55.1296 5.66292 55.2191 5.75281 55.3981 5.75281C56.5616 6.02247 57.8145 6.29213 58.62 6.02247C59.0675 5.93258 59.515 5.75281 59.7834 5.57303C59.9624 5.48315 60.1414 5.39326 60.2309 5.39326C60.2309 5.57303 60.0519 6.20225 59.515 6.92135C59.157 7.37079 58.7095 7.64045 58.441 7.82022C58.1725 8.08989 57.9935 8.26966 57.9935 8.44944C57.9935 8.53933 58.083 8.7191 58.262 8.98876C58.799 9.97753 59.8729 11.9551 59.7834 14.6517C59.6045 18.9663 57.546 20.764 56.2036 21.9326L56.0246 22.1124C55.1296 23.191 55.2191 24.0899 55.4876 24.7191C55.8456 25.618 56.7406 26.427 57.8145 26.7865C58.441 27.0562 59.157 27.0562 59.6939 27.1461C60.0519 27.1461 60.4099 27.236 60.4994 27.3258C60.5889 27.5955 60.2309 27.9551 59.515 28.4944C58.978 28.8539 58.3515 28.9438 58.3515 28.9438C58.3515 28.9438 58.3515 28.9438 58.3515 29.0337C58.3515 29.0337 59.8729 30.382 60.0519 32.1798C60.2309 33.9775 59.9624 35.0562 58.978 35.8652C58.262 36.5843 57.1881 36.6742 56.7406 36.5843C56.6511 36.5843 56.6511 36.4944 56.6511 36.4944C56.5616 36.2247 56.9196 36.0449 57.367 35.7753C57.4565 35.6854 57.546 35.6854 57.6355 35.5955C58.1725 35.236 58.441 34.6067 58.262 34.2472C58.1725 34.1573 58.083 34.1573 57.9935 34.1573C57.904 34.1573 57.8145 34.1573 57.725 34.2472C57.546 34.3371 57.2775 34.3371 57.1881 34.2472C57.0986 34.0674 57.0986 33.9775 57.1881 33.7978C57.2775 33.618 57.367 33.3483 57.367 33.0787C57.4565 32.3596 57.367 30.5618 56.3826 30.382H56.2931C56.2036 30.4719 56.2036 30.6517 56.2036 31.0112C56.2036 31.4607 56.2036 32.0899 55.9351 32.5393C55.4876 33.1685 54.8612 33.7079 54.5927 33.7079C54.5032 33.7079 54.5032 33.7079 54.4137 33.618C54.4137 33.5281 54.4137 33.4382 54.4137 33.1685C54.5032 32.6292 54.6822 31.6405 54.4137 29.8427C54.3242 29.2135 53.9662 28.4944 53.5187 27.8652C53.1607 27.236 52.8027 26.6067 52.7132 26.0674C52.5343 25.0787 52.7132 24.7191 53.2502 24.2697C53.6082 24 53.6082 23.8202 53.6082 23.6404C53.6082 23.4607 53.5187 23.191 53.2502 23.1011C53.1607 23.1011 52.8922 23.0112 52.6237 23.0112C51.5498 23.0112 49.1334 23.0112 47.433 20.6742C46.0905 18.7865 45.9115 16.9888 46.18 14.9213C46.18 14.9213 46.001 14.1124 45.3746 13.4831C45.0166 13.2135 44.7481 13.0337 44.4796 12.9438C44.3006 12.8539 44.2111 12.764 44.2111 12.764C44.2111 12.764 44.2111 12.764 44.2111 12.6742C44.3901 12.4944 44.9271 12.2247 45.7325 12.4045C46.359 12.4944 46.8065 12.764 46.8065 12.764C46.8065 12.764 46.8065 12.764 46.896 12.764C46.896 12.764 48.5069 10.8764 51.1023 11.0562C52.7132 11.1461 54.1452 12.764 54.2347 14.382C54.2347 16.0899 53.5187 16.8989 52.8027 17.1685C52.2658 17.3483 51.7288 17.3483 51.4603 17.1685C51.2813 17.0787 51.2813 16.8989 51.1918 16.809C51.1918 16.6292 51.2813 16.6292 51.5498 16.4494C51.9078 16.2697 52.5343 16 52.5343 14.9213C52.5343 14.382 52.3553 13.8427 51.9973 13.4831C51.7288 13.2135 51.2813 12.9438 50.5653 12.9438C49.6704 12.9438 48.8649 13.3034 48.4174 14.0225C47.791 14.8315 47.5225 16.1798 47.791 17.618C48.1489 19.7753 50.2074 21.3034 52.5343 21.0337C53.8767 20.8539 55.1296 20.1348 56.1141 18.8764C57.0091 17.7079 57.546 16.1798 57.546 14.7416C57.546 11.1461 55.4876 7.37079 50.7443 7.19101C46.18 7.01124 43.3161 9.88764 42.0632 11.5955C41.2577 12.6742 40.4523 14.6517 39.8258 16.2697C40.0943 16.1798 40.9892 16.0899 41.7947 16.4494C42.6002 16.809 43.5846 17.7978 43.4056 18.2472C43.3161 18.3371 43.1372 18.3371 42.7792 18.2472C42.3317 18.1573 41.7052 18.1573 40.8997 18.2472C39.8258 18.427 39.3783 18.6966 39.1993 18.7865Z" fill="#990000"/>
</svg>
