<svg width="200" height="160" viewBox="0 0 200 160" fill="none" xmlns="http://www.w3.org/2000/svg">
<rect width="200" height="160" fill="white"/>
<path d="M147.803 74.4894C146.83 75.1427 145.793 75.2407 145.76 75.2407C145.728 75.2407 145.696 75.2734 145.696 75.3061C145.696 75.3387 145.696 75.3714 145.728 75.4041C145.76 75.4367 148.386 77.7234 148.646 80.8267C148.938 83.9953 148.451 85.7593 146.863 87.2619C145.598 88.4706 143.75 88.6339 143.07 88.4706C142.907 88.4379 142.875 88.4052 142.875 88.3726C142.778 87.9806 143.361 87.5559 144.075 87.0659C144.237 86.9679 144.399 86.8373 144.561 86.7393C145.469 86.0859 145.955 85.0079 145.663 84.42C145.566 84.224 145.404 84.1913 145.209 84.1913C145.047 84.1913 144.885 84.2566 144.691 84.322C144.334 84.42 143.945 84.5506 143.75 84.322C143.523 84.0933 143.621 83.8973 143.815 83.5053C143.977 83.1786 144.172 82.7866 144.204 82.2313C144.302 81.0227 144.139 77.854 142.454 77.4947C142.389 77.4947 142.324 77.4947 142.259 77.5274C142.097 77.658 142.097 78.05 142.097 78.6707C142.097 79.4873 142.065 80.5653 141.611 81.284C140.897 82.3946 139.763 83.244 139.244 83.244C139.114 83.244 139.05 83.2113 138.985 83.146C138.92 83.048 138.952 82.7866 139.05 82.3946C139.244 81.48 139.568 79.7813 139.082 76.6127C138.92 75.5021 138.239 74.2934 137.623 73.1501C137.007 72.0394 136.424 70.9614 136.294 70.0468C136.067 68.3481 136.261 67.6295 137.202 66.9108C137.753 66.4862 137.85 66.0942 137.85 65.8328C137.85 65.5715 137.72 65.0815 137.266 64.9182C137.234 64.9182 137.234 64.9182 137.202 64.8855C136.975 64.8202 136.586 64.7875 136.164 64.7875C134.381 64.8202 130.199 64.8529 127.249 60.8022C124.85 57.5356 124.688 54.465 125.141 50.839V50.8064C125.141 50.741 124.882 49.4017 123.747 48.3564C123.196 47.8664 122.645 47.5724 122.256 47.3764C122.029 47.2457 121.77 47.1477 121.77 47.0497C121.77 47.0497 121.77 46.9844 121.835 46.9517C122.126 46.6577 123.131 46.2331 124.525 46.4291C125.563 46.5924 126.309 47.0171 126.309 47.0171C126.341 47.0497 126.373 47.0171 126.406 46.9844C126.438 46.9517 129.162 43.7178 133.7 44.0771C136.424 44.2731 139.017 46.9517 139.082 49.859C139.147 52.7663 137.818 54.3016 136.65 54.6936C135.71 55.0203 134.835 54.9876 134.316 54.6283C134.089 54.465 133.927 54.2363 133.927 53.975C133.927 53.7463 134.122 53.6157 134.511 53.4197C135.159 53.093 136.164 52.5703 136.294 50.741C136.359 49.7937 136.034 48.8464 135.419 48.1931C134.997 47.7357 134.251 47.1804 133.019 47.2457C131.431 47.3111 130.134 47.9317 129.259 49.075C128.156 50.5124 127.767 52.7663 128.189 55.347C128.805 59.1036 132.403 61.7169 136.359 61.2922C138.693 61.0636 140.865 59.7243 142.518 57.5683C144.075 55.543 144.982 52.9297 145.015 50.4144C145.08 44.1424 141.481 37.6745 133.246 37.3479C125.368 37.0539 120.473 41.9865 118.236 44.9264C116.842 46.7557 115.383 50.251 114.313 53.093C114.8 52.995 116.323 52.799 117.685 53.485C119.079 54.171 120.7 55.8696 120.408 56.5883C120.343 56.7843 119.922 56.6863 119.306 56.523C118.495 56.2943 117.361 56.3596 116.096 56.5556C113.924 56.8496 113.049 57.2743 112.79 57.5029L112.919 57.111C112.854 57.3396 112.79 57.5029 112.79 57.5029L109.839 55.6736C110.261 53.8117 112.141 46.0044 116.842 40.8758C121.673 35.6165 127.476 33.8852 132.598 33.8526C135.386 33.8199 137.947 34.2446 140.055 34.7345C140.314 34.7999 140.541 34.8325 140.768 34.8979C142.778 35.3552 144.885 35.7799 146.376 35.3879C147.187 35.1919 147.868 34.8652 148.386 34.6039C148.711 34.4406 149.035 34.2772 149.1 34.3099C149.1 34.3099 149.132 34.3426 149.132 34.3752C149.197 34.7019 148.905 35.7472 147.965 37.0212C147.381 37.8378 146.636 38.2952 146.117 38.6545C145.631 38.9485 145.307 39.1772 145.307 39.5038C145.307 39.6672 145.469 39.9612 145.76 40.4838C146.668 42.1171 148.548 45.5471 148.322 50.3817C147.965 57.7969 144.464 60.9656 142.129 63.0889L141.838 63.3502H141.805C140.249 65.1469 140.444 66.8128 140.897 67.8582C141.578 69.4588 143.07 70.7981 144.982 71.4841C146.085 71.8761 147.284 72.0068 148.159 72.1048C148.808 72.1701 149.456 72.2354 149.521 72.3988C149.716 72.9214 149.1 73.6401 147.803 74.4894ZM148.062 100.132C147.349 104.346 144.982 106.143 142.972 106.404C142.81 106.437 142.648 106.437 142.518 106.437C141.935 106.437 141.481 106.274 141.351 106.012C141.319 105.914 141.286 105.816 141.319 105.718C141.384 105.555 141.611 105.457 141.935 105.359C142.324 105.228 142.875 105 143.459 104.542C145.177 103.17 145.08 102.582 145.015 102.125C145.015 102.06 144.982 102.027 144.95 102.027C144.853 101.962 144.593 102.092 144.301 102.256L144.172 102.321C143.783 102.517 143.426 102.55 143.134 102.419C142.972 102.321 142.875 102.19 142.843 102.027C142.81 101.831 143.037 101.635 143.296 101.374C143.523 101.178 143.783 100.949 143.945 100.688C144.82 99.3158 144.982 97.6498 144.301 96.3431C143.815 95.3632 143.102 94.4485 140.995 94.2525C140.962 94.2525 140.897 94.2525 140.865 94.2525H140.8C140.541 94.2525 140.249 94.2852 139.925 94.3505C137.591 94.8078 136.034 96.3758 134.997 98.0418C134.997 98.0745 134.965 98.1071 134.965 98.1071C133.538 100.23 133.182 103.497 133.084 104.118V104.15C132.63 107.123 131.658 111.533 125.466 119.275C124.752 120.157 124.201 121.431 124.558 122.868C125.206 125.351 127.573 125.579 127.541 125.841C127.508 126.2 127.022 126.2 126.146 126.135C125.271 126.069 124.947 125.775 124.947 125.775C124.947 125.775 124.72 126.331 126.179 127.409C127.281 128.225 128.546 128.193 128.578 128.552C128.61 128.977 121.737 130.577 121.316 123.587C121.316 123.423 121.284 123.26 121.284 123.097C113.859 129.957 111.687 130.283 111.136 129.565C110.877 129.205 111.59 129.303 113.017 127.67C114.475 126.004 114.508 125.253 114.508 125.253C114.508 125.253 111.622 126.821 108.251 126.527C104.814 126.2 101.929 123.783 102.188 122.835C102.383 122.019 104.425 123.423 106.889 123.031C109.159 122.672 109.353 121.758 109.353 121.758C109.353 121.758 108.899 121.757 108.154 120.974C107.408 120.19 106.306 119.536 106.922 118.883C107.278 118.491 108.996 119.275 110.682 119.308C112.822 119.308 114.184 118.818 114.184 118.818C114.184 118.818 113.308 118.491 112.401 117.609C111.493 116.694 111.298 115.78 111.558 115.551C111.72 115.42 112.076 116.139 113.276 116.139C114.67 116.106 114.832 115.78 114.832 115.78C114.832 115.78 114.248 115.224 113.957 114.702C113.697 114.146 112.854 112.578 113.373 111.99C113.535 111.794 115.124 113.754 117.458 113.983C121.478 114.342 125.887 111.141 125.887 111.141C125.887 111.141 123.715 113.82 119.111 117.838C116.161 120.386 112.433 122.476 112.66 122.966C112.919 123.554 115.837 122.868 120.894 118.622C122.515 117.25 123.553 116.368 125.757 113.624C129.648 108.789 130.523 103.497 129.745 99.2504C129.421 97.5845 128.999 96.0818 128.481 94.8078C126.309 90.1039 123.974 87.7846 120.084 86.2819C116.615 84.9426 113.957 86.1513 112.336 86.9026C111.525 87.2946 110.974 87.5232 110.747 87.1966C110.034 86.1839 111.46 84.8119 112.725 83.6033C114.346 82.068 115.416 81.4473 115.707 81.3167C115.416 81.186 114.378 80.6633 113.373 80.598C112.854 80.5653 112.271 80.6633 111.752 80.7287C110.942 80.8593 110.293 80.9573 110.196 80.5327C110.034 79.716 113.341 78.246 115.124 77.658C116.939 77.07 118.398 76.972 118.658 76.972C118.625 76.5801 118.333 73.5094 118.658 69.0341C118.82 66.6822 119.274 65.0489 119.598 64.1015C120.019 62.8929 120.505 62.0762 120.927 61.8149C121.089 61.7169 121.284 61.7169 121.413 61.7822C121.705 61.9456 121.705 62.5662 121.705 63.4809C121.705 64.0362 121.705 64.7549 121.77 65.5062C121.964 67.7602 122.678 69.0015 123.099 69.2628C123.164 69.2955 123.229 69.3281 123.261 69.2955C123.423 69.2301 123.456 68.9361 123.52 68.5441C123.618 68.0215 123.715 67.2702 124.169 66.3555C124.882 64.8202 126.309 63.0235 126.795 63.1542C126.925 63.1869 126.957 63.3502 126.957 63.5789C126.925 64.2975 126.795 64.9182 126.698 65.5715C126.471 66.9435 126.211 68.4788 126.373 71.3534C126.568 75.5674 128.513 76.1227 128.772 76.1881C128.902 75.9594 129.842 74.3261 131.204 72.8561C131.496 72.5621 131.755 72.2354 132.047 71.9414C132.89 70.9614 133.571 70.2101 134.057 70.2101H134.089C134.219 70.2101 134.349 70.3081 134.413 70.4388C134.576 70.7001 134.316 71.3861 133.862 72.4968C133.246 74.0321 132.306 76.3514 131.885 79.1933C131.107 84.6486 131.885 89.9406 131.917 89.9732L131.982 90.3652L131.852 90.0059C131.852 90.0059 131.398 88.6992 129.486 85.8899C128.643 84.616 127.962 83.8646 127.314 83.146C126.503 82.2313 125.725 81.382 124.655 79.5527C123.423 77.462 123.099 75.8941 122.905 74.8487C122.742 73.9667 122.645 73.5421 122.159 73.4767C122.094 73.4767 122.062 73.5094 121.997 73.5747C121.575 74.2607 121.802 78.0827 122.969 80.3367C123.585 81.5453 124.331 82.5253 125.174 83.636C126.049 84.7793 127.022 86.0533 128.221 88.0132C130.393 91.5739 131.463 94.1872 131.982 95.7551C132.112 96.1471 132.209 96.4738 132.306 96.7678C132.566 96.2451 132.987 95.6245 133.117 95.4938C136.942 91.2472 140.281 90.9532 142.583 91.5085H142.616C144.269 91.8679 145.76 92.8479 146.798 94.3178C147.9 96.0165 148.386 98.1725 148.062 100.132ZM147.252 121.529C147.252 121.562 147.219 121.594 147.219 121.66C146.376 124.665 144.561 126.723 142.032 127.474C141.254 127.703 140.508 127.833 139.828 127.833C138.142 127.833 136.715 127.18 135.192 126.2C135.094 126.167 134.251 126.037 133.376 126.527C132.922 126.788 132.63 127.082 132.403 127.311C132.209 127.507 132.079 127.637 131.95 127.605C131.917 127.605 131.852 127.539 131.82 127.474C131.69 127.147 131.69 126.265 132.241 125.285C132.566 124.665 132.955 124.273 133.084 124.175C132.922 123.783 131.82 121.072 133.214 118.066C134.154 116.041 136.618 114.963 138.498 115.747C140.379 116.531 140.962 118.001 140.897 118.981C140.833 119.798 140.541 120.484 140.152 120.778C139.957 120.908 139.73 120.941 139.568 120.876C139.341 120.778 139.309 120.516 139.309 120.19C139.276 119.634 139.244 118.85 138.207 118.262C137.688 117.968 137.072 117.936 136.553 118.164C136.164 118.328 135.645 118.72 135.354 119.569C134.965 120.712 134.997 121.823 135.483 122.737C136.067 123.881 137.299 124.73 138.952 125.122C141.384 125.71 143.912 123.881 144.723 120.974C144.95 120.092 145.08 119.079 144.755 118.001C144.107 115.845 142.648 113.885 139.114 112.154C137.915 111.566 135.419 110.455 134.446 109.998C134.997 108.43 135.062 107.94 135.224 107.384C135.548 106.862 136.456 106.012 137.331 105.784C138.336 105.555 139.536 106.045 139.503 106.241C139.471 106.437 138.142 106.764 137.396 108.495C137.688 108.626 140.184 109.312 142.324 110.716C145.922 113.068 146.927 115.551 147.219 116.662C147.738 118.491 147.641 120.19 147.252 121.529ZM112.336 64.0035C110.164 61.9782 108.413 61.4556 108.413 61.4556V57.6336C109.45 58.1563 111.849 59.4303 113.211 60.5736C114.573 61.7169 115.61 62.8275 116.453 63.7749L115.869 67.6295C114.897 66.5515 113.6 65.1795 112.336 64.0035ZM109.58 70.9288C108.964 66.5515 109.223 64.5262 109.223 64.5262C110.196 64.8529 111.849 66.5188 112.401 67.1068C112.401 67.1068 112.271 67.6948 112.692 70.3735C112.984 72.3988 113.6 74.2607 113.827 75.0447L110.78 76.4821C110.488 75.5021 109.937 73.2808 109.58 70.9288ZM111.914 97.1598C112.271 100.067 114.67 102.811 118.042 102.452C119.5 102.288 120.538 101.602 121.251 100.851L121.057 100.622C120.603 100.198 119.014 98.6951 117.717 97.0291C116.453 95.3958 115.837 94.5138 115.707 94.3505L115.351 93.8278C115.383 93.7952 115.805 93.5012 117.069 93.5338C118.463 93.5992 119.792 94.6772 120.181 95.0038C120.181 95.0038 120.83 95.7225 122.905 97.9111C125.368 100.492 127.151 101.733 127.443 101.929C127.443 102.68 127.249 104.118 126.957 105.13C125.822 104.51 124.331 103.268 123.618 102.68C123.52 102.582 123.423 102.517 123.358 102.484C122.451 103.595 121.121 104.673 119.111 105.228C118.658 105.359 118.139 105.424 117.653 105.392C113.243 105.261 110.293 101.962 109.58 98.7278C109.321 97.5191 109.418 95.9838 109.45 94.9385C109.483 94.0238 109.548 93.2072 109.321 92.6192C109.094 91.9332 108.77 91.5085 108.543 91.2145C108.348 90.9205 108.186 90.7572 108.348 90.5939C108.575 90.2999 109.353 90.4959 110.066 90.9859C110.52 91.2799 110.715 91.6392 110.78 91.8352C111.201 91.1819 113.243 88.3726 116.777 88.2419C117.977 88.2092 119.047 88.4706 119.857 88.9932C120.538 89.4179 120.992 90.0386 121.186 90.6592C121.316 91.1492 121.316 91.5412 120.992 91.7045C120.83 91.8025 120.441 91.6392 119.922 91.3779C119.176 91.0185 118.009 90.6265 116.648 90.7899C115.545 90.9205 113.989 91.6719 112.919 93.1092C112.076 94.2198 111.72 95.6572 111.914 97.1598ZM97.2281 123.358C93.0784 127.147 89.8688 128.095 85.9461 128.748C81.6018 129.499 73.3024 128.323 73.3024 128.323L69.023 114.408C69.023 114.408 73.4645 118.622 75.7987 120.484C78.1329 122.345 80.305 123.358 83.6118 123.358C86.9187 123.358 89.1556 122.509 91.5871 119.896C94.0186 117.282 94.9263 113.918 95.5423 109.932C95.9637 107.058 95.7692 99.1198 95.7692 97.2905L96.3852 54.171C96.3852 54.171 96.677 44.8611 96.0286 42.5418C95.3802 40.1898 93.9861 38.4912 93.1432 37.6092C91.2953 35.6492 87.3401 35.0285 87.3401 35.0285C86.2054 34.8325 85.9461 34.2772 86.0433 33.7219C86.173 32.9052 86.8862 32.7746 86.8862 32.7746L114.832 32.8399C114.832 32.8399 115.513 32.9052 115.642 33.7546C115.74 34.3099 115.48 34.8652 114.346 35.0612C114.346 35.0612 110.423 35.7145 108.543 37.6418C107.7 38.5238 106.306 40.2225 105.657 42.5745C105.009 44.9264 105.301 54.2036 105.301 54.2036V97.4211C105.301 97.4211 105.398 105.751 104.328 110.128C103.55 113.166 101.799 119.177 97.2281 123.358ZM65.9431 121.137C64.4194 124.371 61.8907 127.245 61.4044 126.788C61.0153 126.396 61.5016 126.069 61.761 125.122C62.0203 124.142 62.0852 123.946 62.0852 123.946C62.0852 123.946 61.4044 124.926 58.9729 126.461C56.5414 127.997 56.12 128.095 55.6985 127.507C55.4391 127.115 56.0551 126.69 56.6387 125.677C57.1898 124.697 57.0277 124.73 57.0277 124.73C57.0277 124.73 54.9528 124.534 53.267 123.783C51.5812 123.031 49.7981 121.268 49.8305 120.908C49.8954 120.451 50.6086 120.19 51.873 119.536C53.2346 118.85 54.1748 117.968 54.1748 117.968C54.1748 117.968 53.267 117.74 52.7483 117.511C51.9378 117.119 51.1273 116.727 51.6136 116.204C52.0675 115.78 54.2396 117.25 57.5788 114.081C60.529 111.272 60.529 107.156 60.529 107.156C60.529 107.156 61.9555 111.958 60.0752 115.78C57.7409 120.484 53.3643 120.516 53.8506 121.496C54.4341 122.705 59.7834 121.627 62.0852 115.976C63.9979 111.272 61.9879 105.294 60.529 101.733C60.1076 100.72 59.5564 99.3484 59.1998 98.2705C60.529 98.8911 61.6313 99.1851 62.7011 99.3158C62.7011 99.3158 62.7011 99.3158 62.7011 99.3484C62.7336 99.3484 62.8957 99.6424 62.8957 99.6424C64.1925 101.733 66.2025 102.452 67.2723 102.876C68.2773 103.268 69.3796 103.464 70.4819 103.464C71.422 103.464 72.3946 103.334 73.27 102.974C73.8535 102.746 74.4047 102.452 74.8261 101.994C76.1229 100.59 76.4471 96.2778 77.0307 95.9511C77.29 95.7878 77.9384 96.8658 78.1978 97.6498C78.4571 98.4665 78.3274 99.2504 78.8137 99.4464C79.1704 99.5771 79.3649 99.1851 80.1105 98.3358C81.148 97.1271 80.9859 96.6371 81.5046 96.8331C82.0233 97.0291 81.4721 99.7078 81.2128 101.145C80.9534 102.615 80.2726 104.738 80.2726 104.738C80.2726 104.738 81.9909 103.595 83.6118 102.876C88.1182 100.851 89.8688 101.472 89.9013 102.027C89.9337 102.582 88.8638 102.68 87.6967 104.085C86.8538 105.098 87.0483 105.359 87.0483 105.359C87.0483 105.359 87.7291 105.392 89.6095 104.836C90.9387 104.444 92.1058 103.824 92.4624 104.379C92.8515 104.934 91.1008 107.319 88.41 109.181C85.7191 111.043 83.547 111.762 83.547 111.762C83.547 111.762 84.0657 112.317 85.3949 112.546C86.7241 112.774 87.2429 112.578 87.3725 112.97C87.5346 113.493 86.0433 113.95 83.547 114.212C79.9808 114.571 78.1329 113.003 78.1329 113.003C78.1329 113.003 78.5868 114.31 78.0681 115.616C77.5169 116.956 77.3873 118.197 76.8686 118.099C76.3498 118.034 76.9658 116.76 75.9608 115.518C74.891 114.179 73.659 113.885 71.8435 112.448C70.0604 111.076 69.9956 109.965 69.9956 109.965C69.9956 109.965 73.1079 111.141 78.1978 110.324C83.0931 109.54 84.6169 108.07 84.2602 107.515C83.936 107.025 83.1256 107.646 80.8238 108.201C78.1329 108.822 74.4695 108.658 70.417 107.972C68.9906 107.744 67.0454 107.058 65.2947 105.882C65.9755 107.254 67.1102 109.704 67.3696 111.468C67.8235 114.473 67.4668 117.87 65.9431 121.137ZM62.766 76.874C62.9605 75.5347 63.7386 74.0974 64.1925 73.4767C65.9755 73.1501 67.1102 74.1301 67.2723 74.2934C66.2997 76.188 65.6838 78.2787 65.1326 80.3693C64.5167 80.108 63.5765 79.1607 62.766 76.874ZM63.2199 91.0185C62.3121 90.9205 59.9779 89.3526 59.8482 88.9606C59.8482 88.1439 60.0427 86.3146 60.3669 85.2366C61.534 87.2946 63.4468 88.1766 63.4468 88.1766C63.1226 89.4832 63.2199 91.0185 63.2199 91.0185ZM53.6561 72.8888C53.883 72.2354 54.0775 71.7781 54.272 71.3861C54.6611 70.5041 54.888 69.9815 54.9528 68.7728C55.0501 67.3682 54.6286 66.2902 54.3693 65.9962C54.7259 66.0288 55.8282 66.5188 56.2496 67.4335C56.6062 68.1848 57.125 70.1448 57.0601 70.4715C57.0277 70.5368 57.0925 70.5695 57.0925 70.6021C57.1574 70.6348 57.2222 70.6021 57.4816 70.4061C58.2272 69.8508 60.4966 68.1195 64.5167 68.0868H64.5815C71.9732 68.0868 75.2151 74.9794 75.2476 75.0447L75.28 75.0774H75.3124C75.3448 75.0774 76.3174 75.3714 78.295 74.5221C79.0731 74.1954 79.527 73.7708 79.9808 73.3788C80.7265 72.7254 81.3749 72.1374 83.158 72.1048C84.9735 72.0394 86.3351 73.0848 86.562 73.8034C86.6269 73.9667 86.6269 74.2281 86.4324 74.3587C86.173 74.5547 86.1082 74.5221 85.9461 74.4567C85.6867 74.3261 85.2653 74.1301 83.936 74.3587C82.8014 74.5221 82.2826 75.6001 81.7315 76.7107C81.1155 77.9194 80.4996 79.1607 79.0731 79.52C77.7763 79.8793 76.2526 78.9647 75.9608 78.5074C75.896 78.3767 75.7663 78.2134 75.6042 78.246C75.4745 78.2787 75.4097 78.4747 75.4097 78.54C75.4097 78.54 75.3772 79.6833 74.664 81.676C74.0156 83.5053 71.033 87.8826 65.165 86.2819C61.5665 85.3019 60.1724 81.9047 60.3345 79.814C60.3994 79.128 60.5939 78.6707 60.9181 78.638C61.1774 78.6054 61.4044 78.8014 61.4692 78.9974C61.7286 79.7813 62.0203 80.5653 62.4418 81.2187C63.0253 82.1333 64.0952 83.244 65.392 83.538C68.3098 84.1913 70.0928 82.6886 70.417 82.362C71.5193 81.3167 72.1353 79.5853 72.038 77.7234C71.9083 75.3387 70.6764 73.8361 69.639 72.9868C68.3422 71.9088 66.6564 71.2554 65.0029 71.2228C64.9705 71.2228 64.9057 71.2228 64.8733 71.2228C62.7336 71.2228 60.5615 72.1048 58.8756 73.6074C56.7359 75.5347 55.504 78.4094 55.2446 81.9047C55.0177 84.9099 56.2496 88.2419 58.4218 90.6265C60.1076 92.4885 62.2149 93.5012 64.3221 93.5338C64.3546 93.5338 64.387 93.5338 64.4518 93.5338C70.028 93.5338 73.6266 90.0712 77.4197 86.4126C80.9859 82.9826 84.6493 79.4547 90.42 77.8214C90.8414 77.6907 92.819 77.5274 93.2405 77.4947L93.1432 80.6633C89.9013 81.284 85.3949 83.3746 85.6219 85.6286C85.8488 87.8499 87.2753 89.0586 87.9561 89.6466C88.1182 89.7772 88.2803 89.9079 88.2803 89.9406C88.2803 89.9732 88.2154 90.0059 87.9885 90.1039C87.3725 90.3326 85.9461 90.4959 84.8438 89.9732C83.3525 89.2872 81.8936 86.8373 81.8612 86.8046L81.7963 86.7066L81.7315 86.8046C81.6991 86.8373 77.29 91.5085 74.891 93.2725C73.3348 94.4158 69.2175 97.4538 64.3546 97.2251C60.9829 97.0618 57.8706 95.5265 55.6012 92.8805C53.2022 90.1039 51.9054 86.2493 51.9378 82.068C51.9054 78.246 52.3268 76.5147 53.6561 72.8888ZM64.387 32.8399C64.4194 32.8399 67.8559 32.5459 71.1303 33.8526C72.5567 34.4406 73.5942 35.1592 74.5019 35.8125H74.5343C75.896 36.7599 76.9334 37.5438 78.4571 37.0539C80.1754 36.5312 80.532 35.1592 80.7589 34.2446C80.8238 34.0159 80.921 33.6239 80.9859 33.5912C81.0507 33.5586 81.3749 33.6892 81.6342 34.1139C81.9584 34.6039 82.8014 36.4332 80.532 39.7652C79.2676 41.5945 77.2252 41.9865 77.1279 41.9865C77.0307 41.9865 76.9658 42.0518 76.901 42.1171C76.8686 42.1825 76.8361 42.2805 76.8686 42.3785C76.9982 42.8358 76.9982 43.1951 77.0307 43.5218C77.1279 44.6651 76.9982 45.7758 76.2526 47.6377C75.0855 50.4797 72.7513 52.211 69.6714 52.603C66.6888 52.9623 64.2573 51.2637 63.382 49.4017C62.6039 47.6704 62.5391 45.6778 63.2523 43.8811C63.4144 43.4238 63.7386 43.0644 63.9979 42.9991C64.1276 42.9665 64.2249 42.9991 64.3221 43.0971C64.5815 43.2931 64.5815 43.8158 64.6139 44.5018C64.6463 45.1878 64.6787 46.0371 64.9705 46.9191C65.4244 48.2911 66.9481 49.5977 68.8933 49.4344C71.8435 49.1404 73.659 47.0497 73.7238 43.7831C73.7887 40.3531 71.6166 36.3025 65.2623 36.1392C65.165 36.1392 65.1002 36.1392 65.0029 36.1392C62.6039 36.1392 60.3994 37.0865 58.6487 38.8505C56.6062 40.9085 55.277 44.0771 55.2446 47.0497C55.1474 52.897 58.1624 56.2943 60.6911 58.1236C63.2523 59.9529 67.2723 60.0836 72.2974 58.4829C74.0156 57.9276 75.8635 57.1763 77.6466 56.425H77.679C79.2028 55.8043 80.7589 55.151 82.2502 54.5956C83.1256 54.3016 84.0657 54.0403 85.0383 53.877L85.168 53.8443L85.0707 53.7137C84.6817 53.191 84.1954 52.505 83.547 51.623C82.2502 49.7937 81.8936 46.4291 82.3151 45.7431C82.5096 45.4491 82.7041 45.3838 82.8014 45.3838C82.8662 45.3838 82.931 45.4164 82.931 45.4164C82.931 45.4491 82.931 45.6124 82.931 45.6451C82.931 45.8084 82.931 46.5924 83.2877 46.9844C83.7415 47.5071 84.3575 47.6051 84.6169 47.4744C84.7141 47.4091 84.779 47.3437 84.8114 47.2457C84.9086 46.9517 85.3625 45.5144 86.1406 44.3384C86.789 43.3584 88.8314 41.8558 90.0309 41.8558C90.0634 41.8558 90.0958 41.8558 90.1282 41.8558C90.4524 41.8885 90.6793 42.0191 90.809 42.2805C90.9711 42.6071 90.4524 43.1624 90.2903 43.3258C89.2529 44.4364 88.0209 46.0697 87.9237 48.781C87.8912 50.055 88.2479 51.1004 88.9935 51.917C90.42 53.4523 92.8839 53.6483 93.3702 53.6483V56.4576C93.3053 56.4576 93.2081 56.4576 93.1432 56.4576C90.7118 56.4576 88.7666 59.4303 88.1182 62.4682C87.5671 64.9509 88.0533 68.4461 88.2479 69.4915C88.4424 70.4388 88.2803 70.6674 88.2154 70.7001C88.183 70.7328 88.1506 70.7328 88.0533 70.7328C87.5346 70.6348 86.5945 69.5241 85.557 67.8255C84.779 66.5842 85.0059 65.0162 85.1356 64.1669C85.2004 63.7095 85.2328 63.5135 85.0707 63.3829L85.0383 63.3502C84.9411 63.2522 84.779 63.1542 84.5844 63.1542C84.5844 63.1542 84.5844 63.1542 84.552 63.1542C84.3251 63.1542 84.0657 63.3175 83.7739 63.6115C83.547 63.8729 83.4173 64.0362 83.3525 64.1669C83.2228 64.3629 83.2228 64.3629 82.8986 64.2322C82.8986 64.2322 82.8662 64.2322 82.8338 64.1669C82.6068 63.5462 83.2877 61.3902 84.163 59.8876C84.8438 58.6789 85.5894 57.7969 86.6269 56.9803L86.9187 56.7516L86.5296 56.8496C82.9959 57.6663 79.4621 59.0709 77.29 60.5736C74.5019 62.4682 72.2325 64.7222 70.5791 67.2375C70.2874 67.0415 69.9956 66.9108 69.2823 66.5842C68.8285 66.3882 68.1477 66.1595 67.6289 66.0942C68.3098 65.1469 69.5093 63.8729 69.9956 63.3502L70.028 63.3175C70.0928 63.2195 70.0928 63.0562 69.9956 62.9582C69.8983 62.8602 69.7686 62.8275 69.639 62.8602C69.5093 62.9255 66.3646 64.1342 60.8208 62.0436C56.3145 60.3449 51.6136 55.4123 51.873 46.7231C52.2296 37.8705 58.3893 33.3626 64.387 32.8399ZM45 136H155V25H45V136Z" fill="#990000"/>
<rect x="28" y="149" width="200" height="2" transform="rotate(-45 28 149)" fill="black"/>
</svg>
