<svg width="647" height="449" viewBox="0 0 647 449" fill="none" xmlns="http://www.w3.org/2000/svg">
<rect width="647" height="449" fill="white"/>
<path fill-rule="evenodd" clip-rule="evenodd" d="M329.299 385.436C329.232 385.369 329.165 385.302 329.031 385.302C325 385.369 303.769 385.705 284.756 385.302C284.621 385.302 284.487 385.369 284.487 385.503C284.427 385.734 284.368 385.961 284.31 386.183L284.31 386.183C283.982 387.446 283.688 388.578 283.345 389.661C282.875 391.27 282.472 392.746 282.136 394.288C282.136 394.355 282.136 394.489 282.203 394.556L282.203 394.556C282.27 394.623 282.337 394.69 282.404 394.69H282.807C282.942 394.69 283.009 394.623 283.076 394.489C285.562 389.259 289.526 389.192 302.56 389.192V439.35C302.56 446.123 301.485 446.324 298.529 446.793C298.394 446.793 298.26 446.927 298.26 447.061V447.464C298.26 447.531 298.26 447.598 298.327 447.665C298.394 447.732 298.462 447.732 298.529 447.732C298.812 447.721 299.117 447.707 299.443 447.693L299.443 447.693C301.05 447.623 303.183 447.531 305.919 447.531C309.413 447.531 312.234 447.665 313.309 447.732C313.377 447.732 313.444 447.732 313.511 447.665C313.578 447.598 313.578 447.531 313.578 447.464V447.061C313.578 446.927 313.444 446.793 313.309 446.793C310.42 446.324 309.278 446.123 309.278 439.35V389.192C324.261 389.192 326.276 389.795 326.276 392.075C326.276 392.477 326.209 393.014 326.142 393.282C326.142 393.349 326.142 393.483 326.209 393.55C326.276 393.617 326.343 393.684 326.41 393.684H326.948C327.082 393.684 327.217 393.55 327.217 393.416C327.485 392.075 328.426 387.984 329.165 385.705C329.367 385.638 329.367 385.503 329.299 385.436ZM381.233 417.355C381.233 434.656 372.634 445.385 358.794 445.385C345.088 445.385 336.958 434.723 336.958 416.819C336.958 403.474 342.669 387.85 358.794 387.85C369.207 387.85 381.233 395.562 381.233 417.355ZM359.533 385.436C340.183 385.436 328.695 401.53 328.695 417.087C328.695 432.242 339.982 447.866 358.861 447.866C376.06 447.866 389.564 434.253 389.564 416.819C389.497 399.25 376.329 385.436 359.533 385.436ZM266.011 411.79C260.166 407.833 254.657 404.078 254.657 396.702C254.657 392.343 257.21 387.716 264.399 387.716C270.58 387.716 274.477 390.935 275.686 396.97C275.686 397.104 275.82 397.238 275.955 397.238H276.425C276.492 397.238 276.559 397.238 276.627 397.171C276.694 397.104 276.694 397.037 276.694 396.97C276.627 395.763 276.627 393.684 276.627 392.477C276.627 390.399 276.694 388.923 276.895 387.046C276.895 386.979 276.895 386.845 276.828 386.777C276.761 386.71 276.694 386.71 276.559 386.71C276.089 386.777 275.686 386.777 275.216 386.777C273.866 386.777 272.517 386.532 271.108 386.276L270.916 386.241L270.591 386.183C268.795 385.861 266.798 385.503 264.264 385.503C255.127 385.503 248.678 391.673 248.678 400.524C248.678 409.73 255.1 414.16 261.342 418.467L261.577 418.629C267.691 422.787 273.402 426.676 273.402 434.589C273.402 442.032 267.892 445.385 262.45 445.385C256.135 445.385 249.82 441.898 249.82 435.326C249.82 434.79 249.887 434.187 249.954 433.583L249.954 433.583V433.315C249.954 433.248 249.954 433.114 249.887 433.114C249.82 433.047 249.753 433.047 249.685 433.047H249.417C249.282 433.047 249.215 433.114 249.148 433.248C248.207 435.326 248.14 437.808 248.14 438.545C248.14 439.293 248.205 440.008 248.268 440.691V440.691V440.691V440.691L248.268 440.691L248.268 440.693C248.295 440.989 248.321 441.279 248.342 441.563C248.476 442.502 248.543 443.306 248.543 444.245C248.543 444.983 248.543 445.921 248.476 446.324C248.476 446.391 248.476 446.525 248.543 446.592C248.61 446.659 248.678 446.659 248.812 446.659C249.282 446.592 249.484 446.592 250.021 446.592C251.773 446.592 253.211 446.905 254.699 447.228L254.859 447.263L254.94 447.28C256.802 447.678 258.933 448.134 261.913 448.134C272.192 448.134 279.381 441.16 279.381 431.102C279.315 420.958 272.681 416.386 266.232 411.942L266.011 411.79ZM410.459 417.825C424.164 417.825 425.777 409.845 425.777 403.877C425.777 394.288 420.536 388.119 412.541 388.052C410.66 388.052 409.048 388.186 406.629 388.856V417.825H410.459ZM427.855 427.51C432.075 434.999 437.786 445.134 442.707 446.793C442.842 446.86 442.909 446.994 442.775 447.128V447.665C442.775 447.799 442.64 447.933 442.506 447.933C441.767 448 441.364 448 440.356 448C431.286 447.665 430.211 446.525 420.133 427.682C419.932 427.414 419.73 427.012 419.529 426.61L419.529 426.609L419.49 426.537C418.412 424.519 416.689 421.295 415.229 419.903C413.885 420.105 412.676 420.239 411.735 420.239H406.562V439.484C406.562 446.257 407.637 446.458 410.593 446.927C410.727 446.927 410.862 447.061 410.862 447.195V447.598C410.862 447.665 410.862 447.732 410.795 447.799C410.727 447.866 410.66 447.866 410.593 447.866C409.518 447.799 406.629 447.665 403.135 447.665C400.448 447.665 398.343 447.754 396.71 447.824L396.709 447.824C396.342 447.839 395.999 447.854 395.678 447.866C395.611 447.866 395.544 447.866 395.476 447.799C395.409 447.732 395.409 447.665 395.409 447.598V447.195C395.409 447.061 395.544 446.927 395.678 446.927C398.634 446.458 399.709 446.257 399.709 439.484V393.885C399.709 388.052 398.701 386.912 395.812 386.442C395.678 386.442 395.544 386.308 395.544 386.174V385.772C395.544 385.705 395.544 385.638 395.611 385.57C395.678 385.503 395.745 385.503 395.812 385.503C398.701 385.705 400.246 385.705 404.008 385.705H404.009H404.01C405.421 385.705 407.369 385.705 409.115 385.638C409.997 385.638 410.835 385.616 411.555 385.597C412.096 385.583 412.57 385.57 412.944 385.57C425.441 385.57 433.503 392.343 433.503 402.804C433.503 409.711 429.203 415.411 422.014 418.227C423.337 419.484 425.072 422.567 427.277 426.483L427.277 426.484L427.455 426.799L427.725 427.28L427.855 427.51ZM233.158 385.503C235.98 385.503 239.272 385.436 240.951 385.369H241.287C241.355 385.436 241.355 385.503 241.355 385.57V385.973C241.355 386.107 241.287 386.241 241.153 386.241L241.019 386.308C240.987 386.315 240.956 386.322 240.925 386.329C238.031 386.985 236.584 387.313 236.584 393.483V429.626C236.584 440.49 230.538 447.799 221.535 447.799H220.662C219.99 447.799 218.848 447.732 217.437 447.531C216.63 447.464 212.263 446.793 208.703 444.513C208.568 444.446 208.501 444.312 208.501 444.178L207.225 434.455C207.225 434.186 207.359 434.052 207.561 433.985C207.762 433.985 207.964 434.052 208.031 434.253C208.031 434.32 208.77 436.332 210.315 438.679C210.449 438.947 210.651 439.216 210.853 439.484C212.263 441.361 214.615 443.977 218.377 444.915C219.251 445.05 220.191 445.117 221.199 445.117C226.574 445.117 229.933 437.539 229.933 430.565V393.483C229.933 387.113 227.985 386.777 225.029 386.308C224.894 386.308 224.76 386.174 224.76 386.04V385.637C224.76 385.57 224.76 385.503 224.827 385.436C224.894 385.369 224.961 385.369 225.029 385.369C226.775 385.436 230.135 385.503 233.158 385.503Z" fill="white"/>
<path fill-rule="evenodd" clip-rule="evenodd" d="M329.299 1.1341C329.232 1.06704 329.165 1 329.031 1C325 1.06706 303.769 1.40234 284.756 1C284.621 1 284.487 1.06705 284.487 1.20116C284.427 1.43215 284.368 1.65863 284.31 1.88104L284.31 1.88122C283.982 3.14378 283.688 4.27547 283.345 5.35868C282.875 6.96803 282.472 8.44327 282.136 9.98557C282.136 10.0526 282.136 10.1867 282.203 10.2538L282.203 10.2538C282.27 10.3209 282.337 10.3879 282.404 10.3879H282.807C282.942 10.3879 283.009 10.3208 283.076 10.1867C285.562 4.95632 289.526 4.88927 302.56 4.88927V55.0476C302.56 61.8203 301.485 62.0214 298.529 62.4908C298.394 62.4908 298.26 62.6249 298.26 62.7591V63.1614C298.26 63.2285 298.26 63.2955 298.327 63.3626C298.394 63.4296 298.462 63.4296 298.529 63.4296C298.812 63.4183 299.117 63.4051 299.443 63.3909L299.443 63.3909C301.05 63.3211 303.183 63.2285 305.919 63.2285C309.413 63.2285 312.234 63.3626 313.309 63.4296C313.377 63.4296 313.444 63.4296 313.511 63.3626C313.578 63.2955 313.578 63.2285 313.578 63.1614V62.7591C313.578 62.6249 313.444 62.4908 313.309 62.4908C310.42 62.0214 309.278 61.8203 309.278 55.0476V4.88927C324.261 4.88927 326.276 5.49277 326.276 7.77269C326.276 8.17503 326.209 8.7115 326.142 8.97972C326.142 9.04678 326.142 9.18089 326.209 9.24795C326.276 9.315 326.343 9.38207 326.41 9.38207H326.948C327.082 9.38207 327.217 9.24794 327.217 9.11382C327.485 7.77269 328.426 3.68225 329.165 1.40232C329.367 1.33527 329.367 1.20116 329.299 1.1341ZM381.233 33.0528C381.233 50.3534 372.634 61.0824 358.794 61.0824C345.088 61.0824 336.958 50.4204 336.958 32.5163C336.958 19.172 342.669 3.54783 358.794 3.54783C369.207 3.54783 381.233 11.2593 381.233 33.0528ZM359.533 1.13379C340.183 1.13379 328.695 17.2274 328.695 32.7845C328.695 47.9393 339.982 63.5635 358.861 63.5635C376.06 63.5635 389.564 49.951 389.564 32.5163C389.497 14.9475 376.329 1.13379 359.533 1.13379ZM266.011 27.4874C260.166 23.531 254.657 19.7759 254.657 12.3996C254.657 8.04096 257.21 3.41403 264.399 3.41403C270.58 3.41403 274.477 6.63276 275.686 12.6679C275.686 12.802 275.82 12.9361 275.955 12.9361H276.425C276.492 12.9361 276.559 12.9361 276.627 12.869C276.694 12.802 276.694 12.7349 276.694 12.6679C276.627 11.4608 276.627 9.38208 276.627 8.17506C276.627 6.0963 276.694 4.62105 276.895 2.74347C276.895 2.67641 276.895 2.5423 276.828 2.47524C276.761 2.40819 276.694 2.40818 276.559 2.40818C276.089 2.47524 275.686 2.47524 275.216 2.47524C273.866 2.47524 272.517 2.22987 271.108 1.97381L270.916 1.9388L270.591 1.88076C268.795 1.55885 266.798 1.20117 264.264 1.20117C255.127 1.20117 248.678 7.37038 248.678 16.2219C248.678 25.4273 255.1 29.8581 261.342 34.1651L261.577 34.3271C267.691 38.4847 273.402 42.374 273.402 50.2866C273.402 57.7299 267.892 61.0827 262.45 61.0827C256.135 61.0827 249.82 57.5958 249.82 51.0242C249.82 50.4878 249.887 49.8843 249.954 49.2809L249.954 49.2808V49.0125C249.954 48.9455 249.954 48.8114 249.887 48.8114C249.82 48.7443 249.753 48.7443 249.685 48.7443H249.417C249.282 48.7443 249.215 48.8114 249.148 48.9455C248.207 51.0243 248.14 53.5053 248.14 54.243C248.14 54.9908 248.205 55.706 248.268 56.3886V56.3887V56.3887V56.3888L248.268 56.389L248.268 56.3908C248.295 56.6868 248.321 56.9767 248.342 57.2605C248.476 58.1993 248.543 59.004 248.543 59.9428C248.543 60.6804 248.543 61.6192 248.476 62.0215C248.476 62.0886 248.476 62.2227 248.543 62.2898C248.61 62.3568 248.678 62.3568 248.812 62.3568C249.282 62.2898 249.484 62.2898 250.021 62.2898C251.773 62.2898 253.211 62.6023 254.699 62.9256L254.859 62.9603L254.94 62.9777C256.802 63.376 258.933 63.8321 261.913 63.8321C272.192 63.8321 279.381 56.8582 279.381 46.7997C279.315 36.656 272.681 32.084 266.232 27.6398L266.011 27.4874ZM410.459 33.5225C424.164 33.5225 425.777 25.5427 425.777 19.5747C425.777 9.98558 420.536 3.81637 412.541 3.74931C410.66 3.74931 409.048 3.88344 406.629 4.554V33.5225H410.459ZM427.855 43.2075C432.075 50.697 437.786 60.8315 442.707 62.4909C442.842 62.558 442.909 62.6921 442.775 62.8262V63.3627C442.775 63.4968 442.64 63.6309 442.506 63.6309C441.767 63.6979 441.364 63.6979 440.356 63.6979C431.286 63.3627 430.211 62.2227 420.133 43.3798C419.932 43.1117 419.73 42.7096 419.529 42.3074L419.529 42.3069L419.49 42.2344C418.412 40.2171 416.689 36.9926 415.229 35.6012C413.885 35.8024 412.676 35.9365 411.735 35.9365H406.562V55.1817C406.562 61.9545 407.637 62.1556 410.593 62.625C410.727 62.625 410.862 62.7591 410.862 62.8932V63.2956C410.862 63.3627 410.862 63.4297 410.795 63.4968C410.727 63.5638 410.66 63.5638 410.593 63.5638C409.518 63.4968 406.629 63.3627 403.135 63.3627C400.448 63.3627 398.343 63.452 396.71 63.5213L396.709 63.5214C396.342 63.5369 395.999 63.5515 395.678 63.5638C395.611 63.5638 395.544 63.5638 395.476 63.4968C395.409 63.4297 395.409 63.3627 395.409 63.2956V62.8932C395.409 62.7591 395.544 62.625 395.678 62.625C398.634 62.1556 399.709 61.9545 399.709 55.1817V9.58325C399.709 3.74932 398.701 2.60936 395.812 2.13996C395.678 2.13996 395.544 2.00585 395.544 1.87174V1.46939C395.544 1.40234 395.544 1.33529 395.611 1.26823C395.678 1.20118 395.745 1.20117 395.812 1.20117C398.701 1.40233 400.246 1.40233 404.008 1.40233H404.009H404.01C405.421 1.40233 407.369 1.40233 409.115 1.33529C409.997 1.33529 410.835 1.31344 411.555 1.29468C412.096 1.28058 412.57 1.26823 412.944 1.26823C425.441 1.26823 433.503 8.04094 433.503 18.5018C433.503 25.4086 429.203 31.1084 422.014 33.9248C423.337 35.1818 425.072 38.2651 427.277 42.1808L427.277 42.1813L427.455 42.497L427.725 42.9774L427.855 43.2075ZM233.158 1.20102C235.98 1.20102 239.272 1.13395 240.951 1.06689H241.287C241.355 1.13395 241.355 1.20102 241.355 1.26808V1.67042C241.355 1.80453 241.287 1.93864 241.153 1.93864L241.019 2.0057C240.987 2.0128 240.956 2.01985 240.925 2.02687C238.031 2.68262 236.584 3.01049 236.584 9.18075V45.3243C236.584 56.1874 230.538 63.4966 221.535 63.4966H220.662C219.99 63.4966 218.848 63.4296 217.437 63.2284C216.63 63.1613 212.263 62.4908 208.703 60.2108C208.568 60.1438 208.501 60.0097 208.501 59.8756L207.225 50.1523C207.225 49.8841 207.359 49.75 207.561 49.6829C207.762 49.6829 207.964 49.75 208.031 49.9512C208.031 50.0182 208.77 52.0299 210.315 54.3769C210.449 54.6451 210.651 54.9134 210.853 55.1816C212.263 57.0592 214.615 59.6744 218.377 60.6132C219.251 60.7473 220.191 60.8143 221.199 60.8143C226.574 60.8143 229.933 53.237 229.933 46.2631V9.18075C229.933 2.81037 227.985 2.4751 225.029 2.0057C224.894 2.0057 224.76 1.87157 224.76 1.73746V1.33514C224.76 1.26808 224.76 1.20101 224.827 1.13396C224.894 1.0669 224.961 1.06689 225.029 1.06689C226.775 1.13395 230.135 1.20102 233.158 1.20102Z" fill="white"/>
<path fill-rule="evenodd" clip-rule="evenodd" d="M415.687 167.234C415.752 167.234 417.842 167.039 419.801 165.735C422.478 164.041 423.718 162.607 423.261 161.564C423.131 161.238 421.825 161.108 420.519 160.978L420.449 160.97C418.692 160.775 416.311 160.511 414.12 159.739C410.267 158.371 407.264 155.699 405.892 152.505C404.978 150.42 404.586 147.096 407.721 143.512H407.786L408.374 142.99L408.406 142.961C413.107 138.725 420.129 132.398 420.845 117.638C421.302 107.993 417.515 101.15 415.687 97.8914C415.099 96.8486 414.773 96.2621 414.773 95.9362C414.773 95.2845 415.426 94.8283 416.405 94.2418C416.517 94.1647 416.635 94.0854 416.757 94.0032C417.769 93.3205 419.078 92.4374 420.127 90.9832C422.021 88.4415 422.608 86.356 422.478 85.7043C422.478 85.6391 422.412 85.5739 422.412 85.5739C422.282 85.5088 421.629 85.8346 420.976 86.1605C419.931 86.6819 418.56 87.3336 416.927 87.7246C413.924 88.5067 409.68 87.6594 405.631 86.747C405.376 86.6744 405.122 86.622 404.856 86.5672C404.644 86.5238 404.426 86.4789 404.195 86.4212C399.95 85.4436 394.792 84.5964 389.177 84.6615C378.86 84.7267 367.172 88.1808 357.442 98.6735C347.975 108.905 344.187 124.481 343.338 128.196L349.28 131.846C349.803 131.39 351.566 130.542 355.941 129.956C358.487 129.565 360.773 129.435 362.405 129.891C363.646 130.217 364.495 130.412 364.625 130.021C365.213 128.587 361.948 125.198 359.14 123.83C356.398 122.461 353.329 122.852 352.349 123.048C354.504 117.378 357.442 110.404 360.25 106.755C364.756 100.889 374.615 91.0484 390.482 91.6349C407.068 92.2866 414.316 105.191 414.185 117.704C414.12 122.722 412.291 127.936 409.157 131.976C405.827 136.278 401.452 138.95 396.751 139.406C388.785 140.253 381.537 135.039 380.296 127.545C379.447 122.396 380.231 117.899 382.451 115.032C384.214 112.751 386.826 111.512 390.025 111.382C392.507 111.252 394.008 112.36 394.857 113.272C396.098 114.575 396.751 116.465 396.62 118.355C396.359 122.005 394.335 123.048 393.029 123.699C392.245 124.09 391.854 124.351 391.854 124.807C391.854 125.329 392.18 125.785 392.637 126.111C393.682 126.828 395.445 126.893 397.339 126.241C399.689 125.459 402.366 122.396 402.236 116.596C402.105 110.795 396.881 105.451 391.397 105.06C382.497 104.362 377.063 110.459 376.721 110.842C376.712 110.853 376.707 110.859 376.705 110.861C376.64 110.926 376.574 110.991 376.509 110.926C376.509 110.926 375.007 110.079 372.918 109.753C370.11 109.362 368.086 110.209 367.498 110.795C367.368 110.861 367.368 110.991 367.368 110.991C367.368 111.134 367.646 111.277 367.975 111.445C368.096 111.507 368.224 111.572 368.347 111.643C369.131 112.034 370.241 112.62 371.351 113.598C373.636 115.683 374.158 118.355 374.158 118.486V118.551C373.244 125.785 373.571 131.911 378.403 138.428C384.345 146.509 392.768 146.444 396.359 146.379C397.208 146.379 397.992 146.444 398.449 146.575C398.514 146.64 398.514 146.64 398.579 146.64C399.493 146.966 399.755 147.943 399.755 148.465C399.755 148.986 399.559 149.768 398.449 150.615C396.555 152.049 396.163 153.483 396.62 156.872C396.881 158.697 398.057 160.847 399.297 163.063C399.371 163.199 399.446 163.336 399.521 163.473C400.698 165.631 401.929 167.888 402.236 169.971C403.215 176.293 402.562 179.682 402.171 181.507C401.975 182.289 401.909 182.81 402.04 183.006C402.17 183.136 402.301 183.201 402.562 183.201C403.607 183.201 405.892 181.507 407.329 179.291C408.243 177.857 408.308 175.706 408.308 174.077C408.308 172.839 408.308 172.057 408.635 171.796C408.765 171.731 408.896 171.731 409.027 171.731C412.422 172.448 412.749 178.769 412.553 181.181C412.487 182.289 412.096 183.071 411.769 183.723C411.377 184.505 411.181 184.896 411.638 185.352C412.002 185.775 412.703 185.581 413.376 185.395C413.429 185.38 413.48 185.366 413.532 185.352C413.589 185.333 413.645 185.314 413.7 185.295C414.019 185.186 414.298 185.091 414.577 185.091C414.969 185.091 415.295 185.156 415.491 185.547C416.079 186.72 415.099 188.871 413.271 190.175C413.108 190.272 412.944 190.386 412.781 190.5C412.618 190.614 412.455 190.728 412.291 190.826C410.855 191.804 409.68 192.651 409.875 193.433C409.875 193.498 409.941 193.563 410.267 193.629C411.638 193.954 415.36 193.629 417.907 191.217C421.106 188.219 422.086 184.7 421.498 178.378C420.993 172.389 416.026 167.924 415.644 167.581C415.631 167.569 415.624 167.562 415.622 167.56C415.556 167.495 415.556 167.43 415.556 167.364C415.556 167.299 415.622 167.234 415.687 167.234ZM349.542 131.064C349.411 131.52 349.28 131.846 349.28 131.846L349.542 131.064ZM410.137 229.408C414.185 228.887 418.952 225.302 420.388 216.895C421.041 212.985 419.996 208.683 417.842 205.294C415.752 202.362 412.749 200.406 409.418 199.69H409.353C404.717 198.582 397.992 199.168 390.287 207.641C390.025 207.901 389.177 209.139 388.654 210.182C388.563 209.91 388.472 209.624 388.375 209.317C388.262 208.963 388.141 208.581 388.001 208.162C386.956 205.034 384.802 199.82 380.427 192.716C378.011 188.806 376.052 186.264 374.289 183.983L374.257 183.942C372.572 181.743 371.082 179.797 369.849 177.401C367.498 172.904 367.041 165.279 367.89 163.91C368.021 163.78 368.086 163.715 368.216 163.715C369.196 163.845 369.392 164.692 369.718 166.452C370.11 168.538 370.763 171.666 373.244 175.837C375.308 179.332 376.832 181.034 378.391 182.774C378.46 182.851 378.529 182.928 378.599 183.006L378.636 183.046C379.93 184.468 381.292 185.962 382.973 188.48C386.826 194.085 387.74 196.692 387.74 196.692L388.001 197.409L387.871 196.627C387.805 196.561 386.238 186.004 387.805 175.12C388.643 169.524 390.499 164.943 391.74 161.88L391.788 161.76C392.703 159.544 393.225 158.175 392.898 157.654C392.768 157.393 392.507 157.198 392.245 157.198H392.18C391.201 157.198 389.829 158.697 388.132 160.652C387.838 160.945 387.56 161.255 387.283 161.564C387.005 161.874 386.728 162.183 386.434 162.477C383.692 165.409 381.798 168.668 381.537 169.124C381.014 168.994 377.097 167.886 376.705 159.479C376.381 153.791 376.892 150.732 377.346 148.012L377.358 147.943C377.407 147.617 377.46 147.296 377.513 146.974C377.672 146.009 377.831 145.043 377.88 143.968C377.88 143.512 377.815 143.186 377.554 143.121C376.574 142.86 373.701 146.444 372.265 149.507C371.451 151.131 371.207 152.497 371.025 153.513C371.002 153.638 370.98 153.759 370.959 153.874C370.947 153.945 370.936 154.014 370.925 154.081C370.814 154.758 370.733 155.254 370.436 155.373C370.371 155.438 370.241 155.373 370.11 155.308C369.261 154.786 367.825 152.31 367.433 147.813C367.302 146.314 367.302 144.881 367.302 143.773V143.772C367.302 141.947 367.302 140.709 366.715 140.383C366.453 140.253 366.062 140.253 365.735 140.449C364.886 140.97 363.907 142.599 363.058 145.011C362.405 146.901 361.491 150.159 361.164 154.851C360.537 163.432 361.055 169.424 361.154 170.572C361.158 170.619 361.162 170.658 361.164 170.688C360.642 170.688 357.704 170.884 354.047 172.057C350.456 173.23 343.796 176.163 344.122 177.792C344.318 178.639 345.624 178.444 347.256 178.183C347.428 178.162 347.603 178.138 347.781 178.115C348.684 177.995 349.648 177.868 350.521 177.922C352.352 178.04 354.236 178.905 355.014 179.261C355.097 179.299 355.166 179.331 355.222 179.356C354.635 179.617 352.48 180.855 349.215 183.918C346.669 186.329 343.796 189.067 345.232 191.087C345.689 191.739 346.799 191.282 348.432 190.5C351.696 189.001 357.051 186.59 364.037 189.262C371.873 192.26 376.574 196.887 380.949 206.272C381.994 208.814 382.843 211.812 383.496 215.135C385.063 223.608 383.3 234.165 375.464 243.811C371.024 249.285 368.935 251.045 365.67 253.782C355.484 262.254 349.607 263.623 349.085 262.45C348.836 261.919 350.938 260.446 353.861 258.397C356.321 256.673 359.364 254.541 362.079 252.218C371.351 244.202 375.725 238.858 375.725 238.858C375.725 238.858 366.845 245.245 358.748 244.528C355.505 244.213 352.977 242.255 351.613 241.198C351 240.723 350.622 240.431 350.521 240.552C349.576 241.613 350.874 244.272 351.517 245.591C351.585 245.731 351.646 245.855 351.696 245.962C352.284 247.004 353.459 248.112 353.459 248.112C353.459 248.112 353.133 248.764 350.325 248.829C348.752 248.829 347.898 248.221 347.404 247.869C347.14 247.68 346.978 247.565 346.864 247.656C346.342 248.112 346.734 249.937 348.562 251.762C350.39 253.521 352.153 254.173 352.153 254.173C352.153 254.173 349.411 255.151 345.101 255.151C343.539 255.121 341.963 254.773 340.646 254.483C339.102 254.143 337.915 253.881 337.527 254.303C336.566 255.313 337.682 256.323 338.932 257.454C339.295 257.783 339.67 258.122 340.008 258.474C341.51 260.039 342.424 260.039 342.424 260.039C342.424 260.039 342.033 261.863 337.462 262.58C334.903 262.984 332.57 262.434 330.856 262.03C329.246 261.651 328.184 261.4 327.994 262.189C327.471 264.079 333.283 268.902 340.204 269.554C346.995 270.14 352.806 267.012 352.806 267.012C352.806 267.012 352.741 268.511 349.803 271.835C348.3 273.539 347.19 274.299 346.548 274.738C345.963 275.138 345.767 275.273 346.016 275.615C347.126 277.048 351.501 276.397 366.453 262.711C366.453 262.874 366.47 263.036 366.486 263.199C366.502 263.362 366.519 263.525 366.519 263.688C367.368 277.635 381.21 274.442 381.145 273.594C381.115 273.265 380.562 273.101 379.759 272.862C378.811 272.58 377.514 272.195 376.313 271.313C373.375 269.163 373.832 268.055 373.832 268.055C373.832 268.055 374.485 268.641 376.248 268.772C378.011 268.902 378.99 268.902 379.056 268.185C379.073 268.049 378.761 267.917 378.267 267.709C376.869 267.119 374.013 265.915 373.048 262.254C372.33 259.387 373.44 256.845 374.877 255.086C387.348 239.64 389.307 230.842 390.221 224.911V224.846C390.238 224.741 390.258 224.598 390.283 224.422C390.554 222.519 391.379 216.731 394.008 212.854C394.008 212.854 394.074 212.789 394.074 212.724C396.163 209.4 399.297 206.272 403.999 205.36C404.652 205.229 405.239 205.164 405.762 205.164H405.892H406.154C410.398 205.555 411.834 207.38 412.814 209.335C414.185 211.942 413.859 215.266 412.096 218.003C411.769 218.524 411.247 218.98 410.79 219.371C410.73 219.431 410.671 219.489 410.614 219.545C410.17 219.982 409.818 220.328 409.875 220.675C409.941 221.001 410.137 221.261 410.463 221.457C411.051 221.718 411.769 221.652 412.553 221.261L412.814 221.131C413.401 220.805 413.924 220.545 414.12 220.675C414.185 220.675 414.25 220.74 414.25 220.87L414.253 220.89C414.384 221.8 414.552 222.975 411.116 225.693C409.941 226.606 408.831 227.062 408.047 227.322C407.394 227.518 406.937 227.713 406.807 228.039C406.741 228.235 406.807 228.43 406.872 228.626C407.133 229.147 408.047 229.473 409.222 229.473C409.484 229.473 409.81 229.473 410.137 229.408ZM418.666 259.668C418.679 259.636 418.69 259.609 418.69 259.582C419.474 256.91 419.67 253.521 418.625 249.872C418.037 247.656 416.013 242.703 408.765 238.011C405.229 235.711 401.21 234.377 399.556 233.828C399.194 233.708 398.946 233.626 398.84 233.579C399.936 231.06 401.656 230.031 402.533 229.507C402.858 229.313 403.067 229.188 403.085 229.082C403.15 228.691 400.734 227.713 398.71 228.17C396.947 228.626 395.118 230.32 394.466 231.363C394.376 231.666 394.302 231.959 394.218 232.29C393.994 233.167 393.705 234.304 392.898 236.577C393.627 236.916 394.781 237.436 396.068 238.016C398.238 238.994 400.784 240.142 402.301 240.878C409.418 244.332 412.357 248.243 413.663 252.544C414.316 254.695 414.054 256.715 413.597 258.474C411.965 264.275 406.872 267.924 401.975 266.751C398.644 265.969 396.163 264.275 394.988 261.994C394.008 260.169 393.943 257.953 394.727 255.672C395.314 253.978 396.359 253.196 397.143 252.87C398.187 252.414 399.428 252.479 400.473 253.065C402.535 254.223 402.626 255.762 402.69 256.867L402.693 256.91C402.693 257.562 402.758 258.083 403.215 258.279C403.542 258.409 403.999 258.344 404.391 258.083C405.174 257.497 405.762 256.128 405.892 254.499C406.023 252.544 404.848 249.611 401.06 248.047C397.273 246.483 392.311 248.634 390.417 252.674C387.609 258.67 389.829 264.079 390.156 264.861C389.895 265.057 389.111 265.839 388.458 267.077C387.348 269.032 387.348 270.792 387.609 271.444C387.675 271.574 387.805 271.704 387.871 271.704C388.132 271.77 388.393 271.509 388.785 271.118L388.785 271.118C389.242 270.662 389.829 270.075 390.744 269.554C392.507 268.576 394.204 268.837 394.4 268.902C397.469 270.857 400.342 272.161 403.738 272.161C405.109 272.161 406.611 271.9 408.178 271.444C413.271 269.945 416.927 265.839 418.625 259.843C418.625 259.767 418.648 259.713 418.666 259.668ZM340.531 139.732C340.531 139.732 344.057 140.774 348.432 144.815C350.791 146.989 353.151 149.499 355.095 151.567C355.249 151.73 355.4 151.891 355.549 152.049L356.724 144.359C355.027 142.469 352.937 140.253 350.195 137.972C347.452 135.691 342.62 133.149 340.531 132.107V139.732ZM342.163 145.858C342.163 145.858 341.641 149.898 342.881 158.631C343.534 163.324 344.71 167.755 345.297 169.711L351.435 166.843C351.368 166.614 351.285 166.339 351.188 166.023C350.629 164.184 349.651 160.972 349.15 157.524C348.301 152.179 348.562 151.006 348.562 151.006C347.452 149.833 344.122 146.509 342.163 145.858ZM359.858 221.522C353.068 222.239 348.236 216.765 347.517 210.964C347.126 207.966 347.844 205.099 349.542 202.883C351.696 200.015 354.831 198.517 357.051 198.256C359.793 197.93 362.144 198.712 363.646 199.429C364.69 199.95 365.474 200.276 365.8 200.081C366.453 199.755 366.453 198.973 366.192 197.995C365.8 196.757 364.886 195.519 363.515 194.671C361.883 193.629 359.728 193.107 357.312 193.172C350.195 193.433 346.081 199.038 345.232 200.341C345.101 199.95 344.71 199.233 343.796 198.647C342.359 197.669 340.792 197.278 340.335 197.865C340.058 198.141 340.251 198.418 340.555 198.853C340.609 198.931 340.667 199.014 340.727 199.103C341.184 199.69 341.837 200.537 342.294 201.905C342.699 202.945 342.642 204.343 342.579 205.917C342.571 206.119 342.562 206.325 342.555 206.533C342.547 206.783 342.537 207.047 342.527 207.323C342.453 209.344 342.356 211.97 342.816 214.093C344.253 220.545 350.195 227.127 359.075 227.388C360.054 227.453 361.099 227.322 362.013 227.062C366.062 225.954 368.739 223.803 370.567 221.587C370.698 221.652 370.894 221.783 371.089 221.978L371.241 222.102C372.729 223.318 375.607 225.67 377.815 226.866C378.403 224.846 378.794 221.978 378.794 220.479C378.207 220.088 374.615 217.612 369.653 212.463C365.474 208.097 364.168 206.663 364.168 206.663C363.384 206.011 360.707 203.861 357.9 203.73C355.353 203.665 354.504 204.252 354.439 204.317L355.157 205.36C355.229 205.449 355.375 205.648 355.603 205.957C356.201 206.769 357.361 208.343 359.205 210.704C361.817 214.027 365.017 217.025 365.931 217.873L366.323 218.329C364.886 219.828 362.797 221.196 359.858 221.522ZM295.215 273.985C303.116 272.682 309.58 270.792 317.938 263.232C327.21 254.89 330.671 242.898 332.238 236.837C334.393 228.104 334.197 211.486 334.197 211.486V125.264C334.197 125.264 333.609 106.755 334.915 102.062C336.221 97.37 339.029 93.9811 340.727 92.2215C344.514 88.3763 352.415 87.0729 352.415 87.0729C354.7 86.6819 355.222 85.5739 355.027 84.466C354.765 82.7716 353.394 82.6412 353.394 82.6412L297.109 82.5109C297.109 82.5109 295.672 82.7716 295.411 84.4008C295.215 85.5088 295.737 86.6167 298.023 87.0077C298.023 87.0077 305.989 88.246 309.711 92.1563C311.409 93.9159 314.216 97.3048 315.522 101.997C316.828 106.624 316.24 125.198 316.24 125.198L315 211.225C315 211.88 315.013 212.929 315.028 214.241C315.101 220.237 315.239 231.741 314.543 236.446C313.302 244.397 311.474 251.11 306.577 256.324C301.679 261.538 297.174 263.232 290.514 263.232C283.854 263.232 279.479 261.212 274.777 257.497C270.076 253.782 261.13 245.375 261.13 245.375L269.749 273.138C269.749 273.138 286.465 275.484 295.215 273.985ZM245.786 270.075C246.765 270.987 251.858 265.252 254.927 258.8C257.996 252.283 258.78 245.505 257.8 239.51C257.278 235.99 254.993 231.102 253.621 228.365C257.147 230.711 261.065 232.08 263.938 232.536C272.1 233.905 279.479 234.231 284.898 232.992C286.617 232.582 287.923 232.153 288.92 231.826C290.61 231.271 291.409 231.009 291.82 231.624C292.538 232.732 289.469 235.664 279.609 237.229C269.358 238.858 263.089 236.512 263.089 236.512C263.089 236.512 263.22 238.727 266.811 241.465C268.297 242.63 269.588 243.418 270.743 244.123C272.43 245.153 273.824 246.004 275.104 247.591C276.265 249.011 276.352 250.453 276.412 251.449C276.457 252.19 276.486 252.684 276.932 252.739C277.638 252.871 277.986 251.783 278.48 250.239C278.717 249.499 278.988 248.653 279.348 247.786C280.393 245.179 279.479 242.573 279.479 242.573C279.479 242.573 283.201 245.701 290.383 244.984C295.411 244.463 298.415 243.55 298.088 242.507C297.925 242.019 297.457 241.988 296.478 241.923C295.887 241.883 295.112 241.832 294.105 241.66C291.428 241.204 290.383 240.096 290.383 240.096C290.383 240.096 294.758 238.662 300.178 234.948C305.597 231.233 309.123 226.475 308.34 225.367C307.795 224.527 306.311 225.036 304.457 225.673C303.867 225.875 303.24 226.091 302.594 226.28C298.806 227.388 297.435 227.322 297.435 227.322C297.435 227.322 297.043 226.801 298.741 224.781C299.946 223.345 301.099 222.593 301.928 222.053C302.717 221.538 303.213 221.215 303.181 220.675C303.116 219.567 299.59 218.329 290.514 222.369C287.249 223.803 283.788 226.084 283.788 226.084C283.788 226.084 285.159 221.848 285.682 218.915C285.73 218.649 285.784 218.36 285.841 218.057C286.392 215.096 287.217 210.667 286.269 210.313C285.659 210.084 285.517 210.323 285.088 211.041C284.782 211.552 284.331 212.307 283.462 213.311C283.129 213.685 282.851 214.016 282.612 214.3C281.771 215.3 281.409 215.729 280.85 215.526C280.216 215.273 280.102 214.528 279.958 213.592C279.88 213.083 279.793 212.516 279.609 211.942C279.087 210.378 277.781 208.227 277.259 208.553C276.765 208.827 276.363 210.504 275.87 212.566C275.189 215.41 274.333 218.985 272.818 220.61C271.97 221.522 270.86 222.109 269.684 222.565C267.921 223.282 265.962 223.542 264.069 223.542C261.849 223.542 259.629 223.151 257.604 222.369C257.509 222.332 257.411 222.294 257.309 222.254C255.095 221.39 251.286 219.904 248.789 215.917C248.789 215.917 248.463 215.331 248.398 215.331V215.266C246.243 215.005 244.023 214.418 241.346 213.18C242.064 215.331 243.174 218.068 244.023 220.088C246.961 227.192 251.009 239.118 247.157 248.503C242.521 259.778 231.747 261.929 230.572 259.517C230.211 258.797 231.179 258.333 232.78 257.566C235.527 256.25 240.139 254.041 243.109 248.112C246.896 240.487 244.023 230.907 244.023 230.907C244.023 230.907 244.023 239.118 238.081 244.723C233.158 249.35 229.495 249.02 227.526 248.842C226.805 248.777 226.311 248.732 226.066 248.959C225.087 250.002 226.719 250.784 228.352 251.566C229.396 252.023 231.225 252.479 231.225 252.479C231.225 252.479 229.331 254.238 226.589 255.607C226.123 255.845 225.694 256.058 225.303 256.251C223.56 257.114 222.582 257.599 222.475 258.344C222.41 259.061 226.001 262.58 229.396 264.079C232.792 265.578 236.971 265.969 236.971 265.969C236.971 265.969 237.297 265.904 236.187 267.859C235.77 268.575 235.346 269.144 234.994 269.615C234.354 270.472 233.956 271.004 234.294 271.509C235.142 272.682 235.991 272.486 240.889 269.423C245.786 266.36 247.157 264.405 247.157 264.405C247.157 264.405 247.026 264.796 246.504 266.751C246.313 267.442 246.061 267.967 245.857 268.394C245.501 269.135 245.288 269.579 245.786 270.075ZM251.467 163.715C250.552 164.953 248.985 167.821 248.593 170.493C250.161 175.055 252.054 176.945 253.36 177.466C254.47 173.295 255.711 169.124 257.67 165.344C257.343 165.018 255.058 163.063 251.467 163.715ZM242.652 194.606C242.913 195.388 247.614 198.517 249.442 198.712C249.442 198.712 249.246 195.649 249.899 193.042C249.899 193.042 246.047 191.282 243.696 187.177C243.043 189.327 242.652 192.977 242.652 194.606ZM231.421 159.544C231.029 160.326 230.637 161.238 230.18 162.542C227.568 169.776 226.719 173.23 226.719 180.855C226.654 189.197 229.266 196.887 234.098 202.427C238.668 207.706 244.937 210.769 251.728 211.095C261.489 211.549 269.759 205.531 272.917 203.232L272.949 203.209C277.579 199.836 285.927 191.138 286.673 190.36C286.706 190.326 286.724 190.308 286.727 190.305L286.857 190.109L286.988 190.305C286.994 190.311 287.026 190.36 287.081 190.446C287.61 191.264 290.276 195.387 292.995 196.627C295.215 197.669 298.088 197.343 299.329 196.887C299.786 196.692 299.916 196.627 299.916 196.561C299.916 196.496 299.59 196.236 299.264 195.975L299.263 195.975L299.217 195.935C297.829 194.748 295.014 192.341 294.562 187.959C294.105 183.462 303.181 179.291 309.711 178.053L309.907 171.731C309.058 171.796 305.075 172.122 304.226 172.383C292.616 175.638 285.241 182.664 278.067 189.5L278.042 189.523C270.402 196.822 263.155 203.73 251.924 203.73H251.662C247.418 203.665 243.174 201.645 239.778 197.93C235.404 193.172 232.922 186.525 233.379 180.529C233.902 173.556 236.383 167.821 240.693 163.976C244.088 160.978 248.463 159.218 252.772 159.218H253.034C256.364 159.283 259.759 160.587 262.371 162.737C264.46 164.432 266.942 167.43 267.203 172.187C267.399 175.902 266.158 179.356 263.938 181.442C263.285 182.093 259.694 185.091 253.817 183.788C251.205 183.201 249.051 180.985 247.875 179.161C247.026 177.857 246.439 176.293 245.916 174.729C245.786 174.338 245.329 173.947 244.806 174.012C244.153 174.077 243.762 174.99 243.631 176.358C243.304 180.529 246.112 187.307 253.36 189.262C265.179 192.456 271.186 183.723 272.492 180.073C273.928 176.097 273.994 173.816 273.994 173.816C273.994 173.686 274.124 173.295 274.386 173.23C274.712 173.165 274.973 173.491 275.104 173.751C275.691 174.664 278.76 176.488 281.372 175.772C284.208 175.064 285.453 172.642 286.678 170.261L286.727 170.167L286.776 170.068C287.868 167.887 288.915 165.795 291.167 165.474C293.844 165.018 294.693 165.409 295.215 165.67L295.235 165.678C295.547 165.803 295.683 165.857 296.195 165.474C296.586 165.214 296.586 164.692 296.456 164.367C295.999 162.933 293.256 160.847 289.6 160.978C286.054 161.042 284.736 162.186 283.258 163.47L283.201 163.519C283.128 163.581 283.056 163.644 282.983 163.706C282.138 164.434 281.248 165.2 279.805 165.8C276.093 167.379 274.139 166.978 273.838 166.915C273.816 166.911 273.802 166.908 273.798 166.908H273.733L273.667 166.843C273.667 166.842 273.665 166.839 273.663 166.834C273.457 166.412 266.909 152.961 252.185 152.961H252.054C244.064 153.026 239.508 156.39 237.946 157.544L237.885 157.589C237.363 157.98 237.232 158.045 237.101 157.98C237.101 157.957 237.085 157.934 237.067 157.908C237.034 157.861 236.994 157.804 237.036 157.719C237.167 157.067 236.122 153.157 235.404 151.658C234.555 149.833 232.335 148.856 231.616 148.79C232.139 149.377 232.988 151.528 232.792 154.33C232.661 156.741 232.204 157.784 231.421 159.544ZM251.893 82.639C251.872 82.6404 251.861 82.6412 251.858 82.6412C239.778 83.684 227.372 92.6777 226.719 110.404C226.197 127.74 235.665 137.581 244.741 140.97C255.907 145.141 262.24 142.73 262.502 142.599C262.763 142.534 263.024 142.599 263.22 142.795C263.416 142.99 263.416 143.316 263.285 143.512L263.22 143.577C263.163 143.637 263.102 143.702 263.037 143.771C261.965 144.91 259.745 147.27 258.453 149.051C259.498 149.182 260.869 149.638 261.783 150.029L261.971 150.114C263.272 150.704 263.834 150.959 264.395 151.332C267.725 146.314 272.296 141.817 277.912 138.037C282.286 135.039 289.404 132.237 296.521 130.608L297.305 130.412L296.717 130.868C294.627 132.498 293.126 134.257 291.754 136.669C289.991 139.666 288.62 143.968 289.077 145.206C289.143 145.336 289.208 145.336 289.208 145.336C289.581 145.485 289.741 145.549 289.858 145.504C289.946 145.469 290.01 145.374 290.122 145.206C290.253 144.945 290.514 144.62 290.971 144.098C291.558 143.512 292.081 143.186 292.538 143.186H292.603C292.995 143.186 293.321 143.381 293.517 143.577L293.583 143.642C293.901 143.896 293.847 144.274 293.723 145.139L293.713 145.206C293.452 146.901 292.995 150.029 294.562 152.505C296.652 155.894 298.545 158.11 299.59 158.306C299.786 158.306 299.851 158.306 299.916 158.24C300.047 158.175 300.373 157.719 299.982 155.829C299.59 153.744 298.61 146.77 299.721 141.817C301.026 135.756 304.944 129.826 309.841 129.826H310.299V124.221C309.319 124.221 304.357 123.83 301.484 120.767C299.982 119.137 299.263 117.052 299.329 114.51C299.525 109.101 302.006 105.842 304.095 103.627C304.422 103.301 305.467 102.193 305.14 101.541C304.879 101.02 304.422 100.759 303.769 100.694H303.573C301.157 100.694 297.043 103.692 295.737 105.647C294.238 107.892 293.336 110.614 293.09 111.359C293.079 111.392 293.069 111.422 293.06 111.447C292.995 111.643 292.864 111.773 292.669 111.903C292.146 112.164 290.906 111.968 289.991 110.926C289.273 110.144 289.273 108.58 289.273 108.254V107.797C289.273 107.797 289.143 107.732 289.012 107.732C288.816 107.732 288.424 107.863 288.032 108.449C287.184 109.818 287.902 116.531 290.514 120.18C291.155 121.044 291.717 121.813 292.216 122.496C292.734 123.205 293.184 123.82 293.583 124.351L293.779 124.612L293.517 124.677C291.558 125.003 289.665 125.524 287.902 126.111C285.539 126.982 283.096 127.975 280.667 128.961C280.008 129.229 279.35 129.496 278.695 129.76H278.63C275.038 131.259 271.317 132.758 267.856 133.866C257.735 137.06 249.638 136.799 244.48 133.149C239.387 129.5 233.314 122.722 233.51 111.056C233.641 105.06 236.252 98.8038 240.301 94.6328C243.827 91.1135 248.267 89.2236 253.099 89.2236H253.621C266.419 89.5494 270.794 97.6307 270.664 104.474C270.533 110.991 266.942 115.227 260.934 115.748C257.017 116.074 253.948 113.467 253.034 110.73C252.463 109.021 252.385 107.374 252.321 106.027C252.319 105.987 252.317 105.947 252.315 105.908C252.31 105.792 252.305 105.679 252.3 105.569C252.246 104.368 252.206 103.463 251.728 103.105C251.532 102.91 251.336 102.844 251.075 102.91C250.552 103.04 249.899 103.757 249.573 104.669C248.136 108.254 248.267 112.229 249.834 115.683C251.597 119.398 256.494 122.787 262.502 122.07C268.705 121.288 273.406 117.834 275.757 112.164C277.259 108.449 277.52 106.233 277.324 103.952C277.309 103.808 277.298 103.66 277.286 103.507C277.246 102.973 277.201 102.381 276.997 101.671C276.932 101.476 276.997 101.28 277.063 101.15C277.193 101.02 277.324 100.889 277.52 100.889C277.716 100.889 281.829 100.107 284.376 96.4576C288.947 89.8101 287.249 86.1605 286.596 85.1829C286.074 84.3357 285.421 84.075 285.29 84.1402C285.18 84.195 285.024 84.7578 284.899 85.2066C284.876 85.291 284.854 85.3714 284.833 85.4436C284.376 87.2684 283.658 90.0056 280.197 91.0484C277.243 91.9893 275.196 90.5754 272.602 88.7827C272.501 88.713 272.399 88.6426 272.296 88.5718H272.231C270.402 87.2684 268.313 85.8346 265.44 84.6615C259.087 82.1504 252.431 82.6025 251.893 82.639ZM434.296 288.453H212.746V67H434.296V288.453ZM325.382 318.041C325.513 318.041 325.578 318.107 325.644 318.172C325.709 318.237 325.709 318.367 325.513 318.432C324.795 320.648 323.881 324.624 323.619 325.927C323.619 326.057 323.489 326.188 323.358 326.188H322.836C322.771 326.188 322.705 326.123 322.64 326.058C322.575 325.992 322.575 325.862 322.575 325.797C322.64 325.536 322.705 325.015 322.705 324.624C322.705 322.408 320.746 321.821 306.185 321.821V370.57C306.185 377.152 307.295 377.348 310.103 377.804C310.234 377.804 310.364 377.934 310.364 378.064V378.456C310.364 378.521 310.364 378.586 310.299 378.651C310.234 378.716 310.168 378.716 310.103 378.716C309.058 378.651 306.316 378.521 302.92 378.521C300.261 378.521 298.188 378.611 296.626 378.679C296.309 378.692 296.013 378.705 295.738 378.716C295.673 378.716 295.607 378.716 295.542 378.651C295.477 378.586 295.477 378.521 295.477 378.456V378.064C295.477 377.934 295.607 377.804 295.738 377.804C298.611 377.348 299.656 377.152 299.656 370.57V321.821C286.988 321.821 283.136 321.887 280.72 326.97C280.654 327.1 280.589 327.165 280.459 327.165H280.067C280.001 327.165 279.936 327.1 279.871 327.035C279.806 326.97 279.806 326.84 279.806 326.774C280.132 325.275 280.524 323.842 280.981 322.278C281.314 321.225 281.6 320.125 281.919 318.898L281.921 318.888C281.977 318.675 282.033 318.458 282.091 318.237C282.091 318.107 282.222 318.041 282.352 318.041C300.831 318.432 321.465 318.107 325.382 318.041ZM354.309 376.435C367.76 376.435 376.118 366.008 376.118 349.193C376.118 328.013 364.43 320.518 354.309 320.518C338.638 320.518 333.088 335.703 333.088 348.672C333.088 366.073 340.989 376.435 354.309 376.435ZM325.057 348.933C325.057 333.813 336.222 318.172 355.028 318.172C371.352 318.172 384.15 331.597 384.215 348.672C384.215 365.617 371.09 378.847 354.375 378.847C336.026 378.847 325.057 363.662 325.057 348.933ZM253.099 329.121C253.099 336.29 258.453 339.94 264.134 343.785L264.349 343.933C270.616 348.252 277.064 352.696 277.128 362.554C277.128 372.33 270.141 379.108 260.151 379.108C257.255 379.108 255.184 378.665 253.374 378.277L253.295 378.26L253.14 378.227C251.694 377.913 250.296 377.609 248.594 377.609C248.071 377.609 247.875 377.609 247.418 377.674C247.288 377.674 247.222 377.674 247.157 377.609C247.092 377.544 247.092 377.413 247.092 377.348C247.157 376.957 247.157 376.045 247.157 375.328C247.157 374.415 247.092 373.633 246.961 372.721C246.941 372.444 246.916 372.162 246.889 371.874C246.829 371.21 246.765 370.515 246.765 369.788C246.765 369.071 246.831 366.66 247.745 364.64C247.81 364.509 247.875 364.444 248.006 364.444H248.267C248.332 364.444 248.398 364.444 248.463 364.509C248.528 364.509 248.528 364.64 248.528 364.705V364.965C248.463 365.552 248.398 366.139 248.398 366.66C248.398 373.047 254.536 376.436 260.673 376.436C265.962 376.436 271.317 373.177 271.317 365.943C271.317 358.253 265.767 354.473 259.825 350.432L259.596 350.275C253.529 346.089 247.288 341.783 247.288 332.836C247.288 324.233 253.556 318.237 262.436 318.237C264.899 318.237 266.839 318.585 268.585 318.898L268.585 318.898L268.901 318.954L269.088 318.988C270.457 319.237 271.768 319.476 273.08 319.476C273.537 319.476 273.929 319.476 274.386 319.41C274.516 319.41 274.582 319.41 274.647 319.476C274.712 319.541 274.712 319.671 274.712 319.736C274.516 321.561 274.451 322.995 274.451 325.015C274.451 326.188 274.451 328.209 274.516 329.382C274.516 329.447 274.516 329.512 274.451 329.577C274.386 329.642 274.32 329.642 274.255 329.642H273.798C273.667 329.642 273.537 329.512 273.537 329.382C272.362 323.516 268.574 320.388 262.567 320.388C255.58 320.388 253.099 324.885 253.099 329.121ZM419.409 336.094C419.409 341.895 417.842 349.65 404.521 349.65H400.799V321.496C403.15 320.844 404.717 320.714 406.545 320.714C414.316 320.779 419.409 326.775 419.409 336.094ZM435.863 377.804C431.081 376.192 425.53 366.342 421.428 359.063L421.302 358.839L421.089 358.462L420.867 358.066C418.724 354.26 417.037 351.263 415.752 350.041C422.739 347.304 426.918 341.764 426.918 335.052C426.918 324.885 419.082 318.303 406.937 318.303C406.573 318.303 406.113 318.314 405.588 318.328L405.587 318.328C404.887 318.346 404.072 318.368 403.215 318.368C401.518 318.433 399.625 318.433 398.254 318.433H398.253C394.596 318.433 393.094 318.433 390.286 318.237C390.221 318.237 390.156 318.237 390.091 318.303C390.025 318.368 390.025 318.433 390.025 318.498V318.889C390.025 319.019 390.156 319.15 390.286 319.15C393.094 319.606 394.074 320.714 394.074 326.384V370.701C394.074 377.283 393.029 377.478 390.156 377.935C390.025 377.935 389.895 378.065 389.895 378.195V378.586C389.895 378.652 389.895 378.717 389.96 378.782C390.025 378.847 390.091 378.847 390.156 378.847C390.36 378.839 390.574 378.83 390.797 378.821C390.912 378.816 391.03 378.811 391.15 378.806L391.16 378.806L391.161 378.806H391.162H391.163C392.749 378.738 394.794 378.652 397.404 378.652C400.799 378.652 403.607 378.782 404.652 378.847C404.717 378.847 404.782 378.847 404.848 378.782C404.913 378.717 404.913 378.652 404.913 378.586V378.195C404.913 378.065 404.782 377.935 404.652 377.935C401.779 377.478 400.734 377.283 400.734 370.701V351.996H405.762C406.676 351.996 407.851 351.866 409.157 351.67C410.576 353.023 412.251 356.156 413.298 358.117L413.336 358.188C413.532 358.579 413.728 358.97 413.924 359.23C423.718 377.544 424.763 378.652 433.578 378.977C434.557 378.977 434.949 378.977 435.667 378.912C435.798 378.912 435.929 378.782 435.929 378.652V378.13C436.059 378 435.994 377.869 435.863 377.804ZM239.779 318.107C238.146 318.172 234.947 318.237 232.204 318.237C229.266 318.237 226.001 318.172 224.304 318.107C224.238 318.107 224.173 318.107 224.108 318.172C224.042 318.237 224.042 318.302 224.042 318.367V318.758C224.042 318.889 224.173 319.019 224.304 319.019C227.177 319.475 229.07 319.801 229.07 325.992V362.032C229.07 368.81 225.805 376.175 220.582 376.175C219.602 376.175 218.688 376.109 217.839 375.979C214.183 375.067 211.897 372.525 210.526 370.7C210.33 370.439 210.134 370.179 210.004 369.918C208.502 367.637 207.784 365.682 207.784 365.617C207.718 365.421 207.522 365.356 207.326 365.356C207.131 365.421 207 365.552 207 365.812L208.241 375.262C208.241 375.392 208.306 375.523 208.437 375.588C211.897 377.804 216.141 378.456 216.925 378.521C218.296 378.716 219.406 378.781 220.059 378.781H220.908C229.658 378.781 235.535 371.678 235.535 361.12V325.992C235.535 319.996 236.941 319.677 239.753 319.04L239.844 319.019L239.975 318.954C240.105 318.954 240.171 318.823 240.171 318.693V318.302C240.171 318.237 240.171 318.172 240.105 318.107H239.779Z" fill="#990000"/>
</svg>
