<svg width="300" height="163" viewBox="0 0 300 163" fill="none" xmlns="http://www.w3.org/2000/svg">
<path d="M10.308 134.06H12.142L13.654 141.34C13.6913 141.545 13.7193 141.769 13.738 142.012H13.78C13.7893 141.816 13.8267 141.592 13.892 141.34L15.642 134.06H17.462L19.212 141.34C19.2773 141.592 19.3147 141.816 19.324 142.012H19.366C19.3847 141.769 19.4127 141.545 19.45 141.34L20.962 134.06H22.796L20.43 144H18.33L16.664 136.72C16.6173 136.496 16.5893 136.3 16.58 136.132H16.524C16.5147 136.3 16.4867 136.496 16.44 136.72L14.774 144H12.674L10.308 134.06ZM24.0077 133.85H25.6877V138.288C26.1077 137.317 26.859 136.832 27.9417 136.832C28.6977 136.832 29.2717 137.07 29.6637 137.546C30.0557 138.022 30.2517 138.722 30.2517 139.646V144H28.5717V139.786C28.5717 139.254 28.4597 138.853 28.2357 138.582C28.021 138.311 27.699 138.176 27.2697 138.176C26.7657 138.176 26.3737 138.363 26.0937 138.736C25.823 139.1 25.6877 139.618 25.6877 140.29V144H24.0077V133.85ZM32.0248 137H33.7048V144H32.0248V137ZM31.9408 134.088H33.7608V135.838H31.9408V134.088ZM34.689 137H35.949V135.236L37.629 134.564V137H39.337V138.218H37.629V141.564C37.629 141.937 37.713 142.217 37.881 142.404C38.049 142.581 38.3057 142.67 38.651 142.67C38.8097 142.67 39.0383 142.642 39.337 142.586V144C38.9263 144.084 38.5437 144.126 38.189 144.126C37.3863 144.126 36.8123 143.93 36.467 143.538C36.1217 143.146 35.949 142.577 35.949 141.83V138.218H34.689V137ZM46.4793 140.92H41.5653C41.5746 141.508 41.7473 141.979 42.0833 142.334C42.4286 142.679 42.8766 142.852 43.4273 142.852C43.8286 142.852 44.174 142.754 44.4633 142.558C44.7526 142.362 44.9766 142.073 45.1353 141.69L46.4233 142.278C46.162 142.885 45.7653 143.351 45.2333 143.678C44.7106 144.005 44.09 144.168 43.3713 144.168C42.298 144.168 41.458 143.855 40.8513 143.23C40.2446 142.595 39.9413 141.709 39.9413 140.57C39.9413 139.413 40.2353 138.503 40.8233 137.84C41.4206 137.168 42.242 136.832 43.2873 136.832C44.3046 136.832 45.0886 137.121 45.6393 137.7C46.1993 138.269 46.4793 139.086 46.4793 140.15V140.92ZM44.8273 139.702C44.8273 139.133 44.692 138.699 44.4213 138.4C44.1506 138.101 43.7633 137.952 43.2593 137.952C42.7273 137.952 42.3166 138.115 42.0273 138.442C41.738 138.769 41.584 139.226 41.5653 139.814H44.8273V139.702ZM53.7419 144.168C52.9392 144.168 52.2532 144.005 51.6839 143.678C51.1239 143.351 50.7319 142.88 50.5079 142.264L51.7679 141.704C51.9266 142.096 52.1739 142.399 52.5099 142.614C52.8552 142.829 53.2752 142.936 53.7699 142.936C54.1899 142.936 54.5119 142.857 54.7359 142.698C54.9692 142.539 55.0859 142.329 55.0859 142.068C55.0859 141.825 55.0066 141.643 54.8479 141.522C54.6986 141.401 54.4419 141.312 54.0779 141.256L52.8319 141.032C52.1786 140.911 51.6792 140.682 51.3339 140.346C50.9979 140.001 50.8299 139.548 50.8299 138.988C50.8299 138.344 51.0866 137.826 51.5999 137.434C52.1132 137.033 52.8086 136.832 53.6859 136.832C54.4326 136.832 55.0672 136.977 55.5899 137.266C56.1219 137.546 56.4719 137.938 56.6399 138.442L55.4779 139.072C55.3006 138.745 55.0532 138.493 54.7359 138.316C54.4279 138.139 54.0499 138.05 53.6019 138.05C53.2099 138.05 52.9066 138.125 52.6919 138.274C52.4772 138.414 52.3699 138.619 52.3699 138.89C52.3699 139.123 52.4446 139.301 52.5939 139.422C52.7526 139.543 52.9906 139.632 53.3079 139.688L54.6799 139.94C55.3426 140.061 55.8279 140.29 56.1359 140.626C56.4532 140.953 56.6119 141.396 56.6119 141.956C56.6119 142.628 56.3552 143.165 55.8419 143.566C55.3379 143.967 54.6379 144.168 53.7419 144.168ZM57.9959 137H59.5919V138.218C59.8066 137.77 60.1053 137.429 60.4879 137.196C60.8799 136.953 61.3279 136.832 61.8319 136.832C62.3919 136.832 62.8819 136.986 63.3019 137.294C63.7313 137.593 64.0626 138.017 64.2959 138.568C64.5293 139.119 64.6459 139.758 64.6459 140.486C64.6459 141.223 64.5246 141.872 64.2819 142.432C64.0393 142.992 63.6986 143.421 63.2599 143.72C62.8213 144.019 62.3173 144.168 61.7479 144.168C61.2719 144.168 60.8566 144.065 60.5019 143.86C60.1473 143.645 59.8719 143.356 59.6759 142.992V146.73H57.9959V137ZM61.2579 142.88C61.7619 142.88 62.1586 142.67 62.4479 142.25C62.7466 141.821 62.8959 141.233 62.8959 140.486C62.8959 139.739 62.7513 139.161 62.4619 138.75C62.1819 138.33 61.7853 138.12 61.2719 138.12C60.7586 138.12 60.3573 138.316 60.0679 138.708C59.7786 139.091 59.6339 139.632 59.6339 140.332V140.682C59.6339 141.354 59.7786 141.891 60.0679 142.292C60.3666 142.684 60.7633 142.88 61.2579 142.88ZM67.8338 144.168C67.1151 144.168 66.5364 143.981 66.0978 143.608C65.6591 143.225 65.4398 142.721 65.4398 142.096C65.4398 141.76 65.5098 141.457 65.6498 141.186C65.7991 140.915 66.0138 140.691 66.2938 140.514C66.5458 140.365 66.8491 140.243 67.2038 140.15C67.5584 140.047 68.0158 139.959 68.5758 139.884L70.0598 139.702V139.52C70.0598 138.997 69.9524 138.619 69.7378 138.386C69.5324 138.143 69.2058 138.022 68.7578 138.022C68.3471 138.022 68.0204 138.129 67.7778 138.344C67.5444 138.549 67.4138 138.853 67.3858 139.254H65.6638C65.7198 138.507 66.0231 137.919 66.5738 137.49C67.1244 137.051 67.8524 136.832 68.7578 136.832C69.7938 136.832 70.5498 137.065 71.0258 137.532C71.5111 137.989 71.7538 138.727 71.7538 139.744V141.83C71.7538 142.782 71.8238 143.505 71.9638 144H70.2838C70.2184 143.617 70.1811 143.216 70.1718 142.796C70.0038 143.225 69.7098 143.561 69.2898 143.804C68.8791 144.047 68.3938 144.168 67.8338 144.168ZM68.3658 142.978C68.8884 142.978 69.3084 142.81 69.6258 142.474C69.9431 142.129 70.1018 141.681 70.1018 141.13V140.682L68.5198 140.92C68.0531 140.995 67.7124 141.121 67.4978 141.298C67.2831 141.475 67.1758 141.713 67.1758 142.012C67.1758 142.311 67.2784 142.549 67.4838 142.726C67.6984 142.894 67.9924 142.978 68.3658 142.978ZM76.3287 144.168C75.6381 144.168 75.0314 144.019 74.5087 143.72C73.9954 143.412 73.5987 142.983 73.3187 142.432C73.0387 141.881 72.8987 141.237 72.8987 140.5C72.8987 139.361 73.2067 138.465 73.8227 137.812C74.4387 137.159 75.2787 136.832 76.3427 136.832C77.2107 136.832 77.9154 137.056 78.4567 137.504C78.9981 137.943 79.3201 138.559 79.4227 139.352L77.7847 139.618C77.7287 139.142 77.5701 138.778 77.3087 138.526C77.0567 138.274 76.7207 138.148 76.3007 138.148C75.7781 138.148 75.3674 138.353 75.0687 138.764C74.7701 139.175 74.6207 139.739 74.6207 140.458C74.6207 141.214 74.7701 141.802 75.0687 142.222C75.3674 142.633 75.7874 142.838 76.3287 142.838C76.7487 142.838 77.0847 142.712 77.3367 142.46C77.5981 142.208 77.7661 141.835 77.8407 141.34L79.4227 141.662C79.3014 142.437 78.9607 143.048 78.4007 143.496C77.8501 143.944 77.1594 144.168 76.3287 144.168ZM86.7583 140.92H81.8443C81.8536 141.508 82.0263 141.979 82.3623 142.334C82.7076 142.679 83.1556 142.852 83.7063 142.852C84.1076 142.852 84.4529 142.754 84.7423 142.558C85.0316 142.362 85.2556 142.073 85.4143 141.69L86.7023 142.278C86.4409 142.885 86.0443 143.351 85.5123 143.678C84.9896 144.005 84.3689 144.168 83.6503 144.168C82.5769 144.168 81.7369 143.855 81.1303 143.23C80.5236 142.595 80.2203 141.709 80.2203 140.57C80.2203 139.413 80.5143 138.503 81.1023 137.84C81.6996 137.168 82.5209 136.832 83.5663 136.832C84.5836 136.832 85.3676 137.121 85.9183 137.7C86.4783 138.269 86.7583 139.086 86.7583 140.15V140.92ZM85.1063 139.702C85.1063 139.133 84.9709 138.699 84.7003 138.4C84.4296 138.101 84.0423 137.952 83.5383 137.952C83.0063 137.952 82.5956 138.115 82.3063 138.442C82.0169 138.769 81.8629 139.226 81.8443 139.814H85.1063V139.702ZM91.4729 137H93.1529V144H91.4729V137ZM91.3889 134.088H93.2089V135.838H91.3889V134.088ZM97.651 144.168C96.8484 144.168 96.1624 144.005 95.593 143.678C95.033 143.351 94.641 142.88 94.417 142.264L95.677 141.704C95.8357 142.096 96.083 142.399 96.419 142.614C96.7644 142.829 97.1844 142.936 97.679 142.936C98.099 142.936 98.421 142.857 98.645 142.698C98.8784 142.539 98.995 142.329 98.995 142.068C98.995 141.825 98.9157 141.643 98.757 141.522C98.6077 141.401 98.351 141.312 97.987 141.256L96.741 141.032C96.0877 140.911 95.5884 140.682 95.243 140.346C94.907 140.001 94.739 139.548 94.739 138.988C94.739 138.344 94.9957 137.826 95.509 137.434C96.0224 137.033 96.7177 136.832 97.595 136.832C98.3417 136.832 98.9764 136.977 99.499 137.266C100.031 137.546 100.381 137.938 100.549 138.442L99.387 139.072C99.2097 138.745 98.9624 138.493 98.645 138.316C98.337 138.139 97.959 138.05 97.511 138.05C97.119 138.05 96.8157 138.125 96.601 138.274C96.3864 138.414 96.279 138.619 96.279 138.89C96.279 139.123 96.3537 139.301 96.503 139.422C96.6617 139.543 96.8997 139.632 97.217 139.688L98.589 139.94C99.2517 140.061 99.737 140.29 100.045 140.626C100.362 140.953 100.521 141.396 100.521 141.956C100.521 142.628 100.264 143.165 99.751 143.566C99.247 143.967 98.547 144.168 97.651 144.168ZM106.65 136.804C106.491 136.991 106.258 137.135 105.95 137.238C105.642 137.341 105.329 137.392 105.012 137.392H104.564V135.838H104.844C105.376 135.829 105.819 135.693 106.174 135.432C106.538 135.171 106.794 134.783 106.944 134.27H108.372V144H106.65V136.804ZM109.728 145.638L113.676 133.36H115.174L111.226 145.638H109.728ZM120.935 141.676V144H119.255V141.676H114.733V140.514L119.031 134.27H120.935V140.388H122.461V141.676H120.935ZM119.297 137.182C119.297 136.603 119.306 136.174 119.325 135.894H119.297C119.185 136.183 118.975 136.561 118.667 137.028L117.127 139.324C116.977 139.548 116.837 139.753 116.707 139.94C116.576 140.117 116.45 140.267 116.329 140.388H119.297V137.182ZM126.104 137H127.364V135.236L129.044 134.564V137H130.752V138.218H129.044V141.564C129.044 141.937 129.128 142.217 129.296 142.404C129.464 142.581 129.72 142.67 130.066 142.67C130.224 142.67 130.453 142.642 130.752 142.586V144C130.341 144.084 129.958 144.126 129.604 144.126C128.801 144.126 128.227 143.93 127.882 143.538C127.536 143.146 127.364 142.577 127.364 141.83V138.218H126.104V137ZM132.082 133.85H133.762V138.288C134.182 137.317 134.934 136.832 136.016 136.832C136.772 136.832 137.346 137.07 137.738 137.546C138.13 138.022 138.326 138.722 138.326 139.646V144H136.646V139.786C136.646 139.254 136.534 138.853 136.31 138.582C136.096 138.311 135.774 138.176 135.344 138.176C134.84 138.176 134.448 138.363 134.168 138.736C133.898 139.1 133.762 139.618 133.762 140.29V144H132.082V133.85ZM146.049 140.92H141.135C141.145 141.508 141.317 141.979 141.653 142.334C141.999 142.679 142.447 142.852 142.997 142.852C143.399 142.852 143.744 142.754 144.033 142.558C144.323 142.362 144.547 142.073 144.705 141.69L145.993 142.278C145.732 142.885 145.335 143.351 144.803 143.678C144.281 144.005 143.66 144.168 142.941 144.168C141.868 144.168 141.028 143.855 140.421 143.23C139.815 142.595 139.511 141.709 139.511 140.57C139.511 139.413 139.805 138.503 140.393 137.84C140.991 137.168 141.812 136.832 142.857 136.832C143.875 136.832 144.659 137.121 145.209 137.7C145.769 138.269 146.049 139.086 146.049 140.15V140.92ZM144.397 139.702C144.397 139.133 144.262 138.699 143.991 138.4C143.721 138.101 143.333 137.952 142.829 137.952C142.297 137.952 141.887 138.115 141.597 138.442C141.308 138.769 141.154 139.226 141.135 139.814H144.397V139.702ZM150.834 133.85H152.514V138.288C152.934 137.317 153.685 136.832 154.768 136.832C155.524 136.832 156.098 137.07 156.49 137.546C156.882 138.022 157.078 138.722 157.078 139.646V144H155.398V139.786C155.398 139.254 155.286 138.853 155.062 138.582C154.847 138.311 154.525 138.176 154.096 138.176C153.592 138.176 153.2 138.363 152.92 138.736C152.649 139.1 152.514 139.618 152.514 140.29V144H150.834V133.85ZM164.801 140.92H159.887C159.897 141.508 160.069 141.979 160.405 142.334C160.751 142.679 161.199 142.852 161.749 142.852C162.151 142.852 162.496 142.754 162.785 142.558C163.075 142.362 163.299 142.073 163.457 141.69L164.745 142.278C164.484 142.885 164.087 143.351 163.555 143.678C163.033 144.005 162.412 144.168 161.693 144.168C160.62 144.168 159.78 143.855 159.173 143.23C158.567 142.595 158.263 141.709 158.263 140.57C158.263 139.413 158.557 138.503 159.145 137.84C159.743 137.168 160.564 136.832 161.609 136.832C162.627 136.832 163.411 137.121 163.961 137.7C164.521 138.269 164.801 139.086 164.801 140.15V140.92ZM163.149 139.702C163.149 139.133 163.014 138.699 162.743 138.4C162.473 138.101 162.085 137.952 161.581 137.952C161.049 137.952 160.639 138.115 160.349 138.442C160.06 138.769 159.906 139.226 159.887 139.814H163.149V139.702ZM166.241 137H167.921V144H166.241V137ZM166.157 134.088H167.977V135.838H166.157V134.088ZM175.695 137.056C175.229 137.056 174.897 137.205 174.701 137.504C175.196 137.943 175.443 138.503 175.443 139.184C175.443 139.651 175.327 140.066 175.093 140.43C174.86 140.785 174.524 141.065 174.085 141.27C173.656 141.475 173.147 141.578 172.559 141.578C172.018 141.578 171.551 141.494 171.159 141.326C170.926 141.447 170.809 141.625 170.809 141.858C170.809 142.287 171.164 142.502 171.873 142.502H173.707C174.519 142.502 175.135 142.675 175.555 143.02C175.975 143.365 176.185 143.865 176.185 144.518C176.185 145.255 175.868 145.834 175.233 146.254C174.608 146.683 173.679 146.898 172.447 146.898C171.309 146.898 170.473 146.73 169.941 146.394C169.419 146.067 169.157 145.633 169.157 145.092C169.157 144.784 169.255 144.509 169.451 144.266C169.657 144.023 169.946 143.841 170.319 143.72C169.731 143.477 169.437 143.057 169.437 142.46C169.437 142.105 169.531 141.807 169.717 141.564C169.913 141.312 170.189 141.116 170.543 140.976C170.273 140.761 170.063 140.5 169.913 140.192C169.764 139.884 169.689 139.548 169.689 139.184C169.689 138.484 169.946 137.919 170.459 137.49C170.982 137.051 171.682 136.832 172.559 136.832C173.119 136.832 173.614 136.925 174.043 137.112C174.155 136.711 174.365 136.398 174.673 136.174C174.991 135.941 175.392 135.824 175.877 135.824C175.999 135.824 176.129 135.838 176.269 135.866V137.126C176.064 137.079 175.873 137.056 175.695 137.056ZM172.559 140.556C172.942 140.556 173.25 140.43 173.483 140.178C173.726 139.926 173.847 139.599 173.847 139.198C173.847 138.797 173.731 138.475 173.497 138.232C173.264 137.98 172.951 137.854 172.559 137.854C172.167 137.854 171.855 137.98 171.621 138.232C171.388 138.475 171.271 138.792 171.271 139.184C171.271 139.585 171.388 139.917 171.621 140.178C171.855 140.43 172.167 140.556 172.559 140.556ZM171.635 143.944C171.486 143.944 171.29 143.935 171.047 143.916C170.721 144.121 170.557 144.411 170.557 144.784C170.557 145.465 171.225 145.806 172.559 145.806C173.959 145.806 174.659 145.47 174.659 144.798C174.659 144.229 174.258 143.944 173.455 143.944H171.635ZM177.413 133.85H179.093V138.288C179.513 137.317 180.265 136.832 181.347 136.832C182.103 136.832 182.677 137.07 183.069 137.546C183.461 138.022 183.657 138.722 183.657 139.646V144H181.977V139.786C181.977 139.254 181.865 138.853 181.641 138.582C181.427 138.311 181.105 138.176 180.675 138.176C180.171 138.176 179.779 138.363 179.499 138.736C179.229 139.1 179.093 139.618 179.093 140.29V144H177.413V133.85ZM184.328 137H185.588V135.236L187.268 134.564V137H188.976V138.218H187.268V141.564C187.268 141.937 187.352 142.217 187.52 142.404C187.688 142.581 187.944 142.67 188.29 142.67C188.448 142.67 188.677 142.642 188.976 142.586V144C188.565 144.084 188.182 144.126 187.828 144.126C187.025 144.126 186.451 143.93 186.106 143.538C185.76 143.146 185.588 142.577 185.588 141.83V138.218H184.328V137ZM196.353 144.168C195.681 144.168 195.084 144.023 194.561 143.734C194.048 143.445 193.646 143.025 193.357 142.474C193.068 141.914 192.923 141.251 192.923 140.486C192.923 139.721 193.068 139.063 193.357 138.512C193.646 137.961 194.048 137.546 194.561 137.266C195.084 136.977 195.681 136.832 196.353 136.832C197.025 136.832 197.618 136.977 198.131 137.266C198.654 137.546 199.06 137.961 199.349 138.512C199.638 139.063 199.783 139.721 199.783 140.486C199.783 141.251 199.638 141.914 199.349 142.474C199.06 143.025 198.654 143.445 198.131 143.734C197.618 144.023 197.025 144.168 196.353 144.168ZM196.353 142.894C196.894 142.894 197.314 142.693 197.613 142.292C197.912 141.881 198.061 141.279 198.061 140.486C198.061 139.702 197.912 139.109 197.613 138.708C197.324 138.307 196.904 138.106 196.353 138.106C195.802 138.106 195.378 138.307 195.079 138.708C194.78 139.109 194.631 139.702 194.631 140.486C194.631 141.27 194.78 141.867 195.079 142.278C195.378 142.689 195.802 142.894 196.353 142.894ZM204.844 138.218H203.15V144H201.47V138.218H200.266V137H201.47V136.104C201.47 135.376 201.68 134.807 202.1 134.396C202.52 133.976 203.103 133.766 203.85 133.766C204.186 133.766 204.517 133.803 204.844 133.878V135.18C204.564 135.133 204.326 135.11 204.13 135.11C203.794 135.11 203.546 135.203 203.388 135.39C203.229 135.567 203.15 135.843 203.15 136.216V137H204.844V138.218ZM208.303 137H209.563V135.236L211.243 134.564V137H212.951V138.218H211.243V141.564C211.243 141.937 211.327 142.217 211.495 142.404C211.663 142.581 211.919 142.67 212.265 142.67C212.423 142.67 212.652 142.642 212.951 142.586V144C212.54 144.084 212.157 144.126 211.803 144.126C211 144.126 210.426 143.93 210.081 143.538C209.735 143.146 209.563 142.577 209.563 141.83V138.218H208.303V137ZM214.281 133.85H215.961V138.288C216.381 137.317 217.133 136.832 218.215 136.832C218.971 136.832 219.545 137.07 219.937 137.546C220.329 138.022 220.525 138.722 220.525 139.646V144H218.845V139.786C218.845 139.254 218.733 138.853 218.509 138.582C218.295 138.311 217.973 138.176 217.543 138.176C217.039 138.176 216.647 138.363 216.367 138.736C216.097 139.1 215.961 139.618 215.961 140.29V144H214.281V133.85ZM228.249 140.92H223.335C223.344 141.508 223.517 141.979 223.853 142.334C224.198 142.679 224.646 142.852 225.197 142.852C225.598 142.852 225.943 142.754 226.233 142.558C226.522 142.362 226.746 142.073 226.905 141.69L228.193 142.278C227.931 142.885 227.535 143.351 227.003 143.678C226.48 144.005 225.859 144.168 225.141 144.168C224.067 144.168 223.227 143.855 222.621 143.23C222.014 142.595 221.711 141.709 221.711 140.57C221.711 139.413 222.005 138.503 222.593 137.84C223.19 137.168 224.011 136.832 225.057 136.832C226.074 136.832 226.858 137.121 227.409 137.7C227.969 138.269 228.249 139.086 228.249 140.15V140.92ZM226.597 139.702C226.597 139.133 226.461 138.699 226.191 138.4C225.92 138.101 225.533 137.952 225.029 137.952C224.497 137.952 224.086 138.115 223.797 138.442C223.507 138.769 223.353 139.226 223.335 139.814H226.597V139.702ZM236.477 141.2C236.477 142.236 236.197 142.992 235.637 143.468C235.086 143.935 234.344 144.168 233.411 144.168C232.832 144.168 232.398 144.131 232.109 144.056V142.502C232.398 142.549 232.753 142.572 233.173 142.572C233.649 142.572 234.018 142.451 234.279 142.208C234.54 141.965 234.671 141.541 234.671 140.934V134.06H236.477V141.2ZM241.592 144.238C240.453 144.238 239.524 143.986 238.806 143.482C238.096 142.978 237.634 142.301 237.42 141.452L238.96 140.78C239.146 141.387 239.459 141.877 239.898 142.25C240.336 142.614 240.92 142.796 241.648 142.796C242.208 142.796 242.674 142.679 243.048 142.446C243.43 142.203 243.622 141.839 243.622 141.354C243.622 140.897 243.486 140.561 243.216 140.346C242.954 140.122 242.53 139.949 241.942 139.828L240.556 139.534C238.82 139.179 237.952 138.227 237.952 136.678C237.952 136.109 238.096 135.609 238.386 135.18C238.684 134.751 239.109 134.419 239.66 134.186C240.21 133.943 240.854 133.822 241.592 133.822C242.572 133.822 243.398 134.027 244.07 134.438C244.751 134.839 245.199 135.441 245.414 136.244L243.972 137C243.813 136.421 243.524 135.978 243.104 135.67C242.693 135.353 242.161 135.194 241.508 135.194C240.966 135.194 240.528 135.315 240.192 135.558C239.865 135.791 239.702 136.118 239.702 136.538C239.702 136.939 239.818 137.257 240.052 137.49C240.294 137.714 240.691 137.887 241.242 138.008L242.684 138.316C243.57 138.503 244.247 138.82 244.714 139.268C245.18 139.707 245.414 140.346 245.414 141.186C245.414 141.765 245.269 142.287 244.98 142.754C244.69 143.211 244.256 143.575 243.678 143.846C243.108 144.107 242.413 144.238 241.592 144.238ZM253.345 135.53H250.335V144H248.529V135.53H245.519V134.06H253.345V135.53ZM257.813 144.238C256.871 144.238 256.045 144.028 255.335 143.608C254.626 143.179 254.075 142.572 253.683 141.788C253.301 140.995 253.109 140.075 253.109 139.03C253.109 137.966 253.301 137.042 253.683 136.258C254.075 135.474 254.621 134.872 255.321 134.452C256.031 134.032 256.861 133.822 257.813 133.822C258.765 133.822 259.591 134.032 260.291 134.452C261.001 134.872 261.547 135.474 261.929 136.258C262.321 137.042 262.517 137.966 262.517 139.03C262.517 140.085 262.321 141.004 261.929 141.788C261.547 142.572 261.001 143.179 260.291 143.608C259.582 144.028 258.756 144.238 257.813 144.238ZM257.813 142.782C258.709 142.782 259.405 142.451 259.899 141.788C260.394 141.125 260.641 140.206 260.641 139.03C260.641 137.854 260.394 136.935 259.899 136.272C259.405 135.609 258.709 135.278 257.813 135.278C256.927 135.278 256.231 135.609 255.727 136.272C255.233 136.935 254.985 137.854 254.985 139.03C254.985 140.187 255.233 141.102 255.727 141.774C256.231 142.446 256.927 142.782 257.813 142.782ZM267.558 140.01H265.808V144H264.002V134.06H268.006C269.21 134.06 270.083 134.335 270.624 134.886C271.175 135.427 271.45 136.146 271.45 137.042C271.45 137.677 271.277 138.241 270.932 138.736C270.587 139.231 270.064 139.576 269.364 139.772L271.73 144H269.742L267.558 140.01ZM265.808 138.666H267.698C268.342 138.666 268.813 138.521 269.112 138.232C269.411 137.943 269.56 137.546 269.56 137.042C269.56 135.969 268.939 135.432 267.698 135.432H265.808V138.666ZM12.716 153V154.232C13.136 153.299 13.8267 152.832 14.788 152.832C15.7773 152.832 16.44 153.303 16.776 154.246C17.252 153.303 17.98 152.832 18.96 152.832C19.632 152.832 20.1547 153.061 20.528 153.518C20.9107 153.966 21.102 154.601 21.102 155.422V160H19.422V155.688C19.422 154.68 19.0393 154.176 18.274 154.176C17.8447 154.176 17.5133 154.325 17.28 154.624C17.056 154.923 16.944 155.352 16.944 155.912V160H15.264V155.646C15.264 155.161 15.166 154.797 14.97 154.554C14.7833 154.302 14.5033 154.176 14.13 154.176C13.71 154.176 13.3833 154.335 13.15 154.652C12.9167 154.96 12.8 155.394 12.8 155.954V160H11.12V153H12.716ZM24.6629 160.168C23.9443 160.168 23.3656 159.981 22.9269 159.608C22.4883 159.225 22.2689 158.721 22.2689 158.096C22.2689 157.76 22.3389 157.457 22.4789 157.186C22.6283 156.915 22.8429 156.691 23.1229 156.514C23.3749 156.365 23.6783 156.243 24.0329 156.15C24.3876 156.047 24.8449 155.959 25.4049 155.884L26.8889 155.702V155.52C26.8889 154.997 26.7816 154.619 26.5669 154.386C26.3616 154.143 26.0349 154.022 25.5869 154.022C25.1763 154.022 24.8496 154.129 24.6069 154.344C24.3736 154.549 24.2429 154.853 24.2149 155.254H22.4929C22.5489 154.507 22.8523 153.919 23.4029 153.49C23.9536 153.051 24.6816 152.832 25.5869 152.832C26.6229 152.832 27.3789 153.065 27.8549 153.532C28.3403 153.989 28.5829 154.727 28.5829 155.744V157.83C28.5829 158.782 28.6529 159.505 28.7929 160H27.1129C27.0476 159.617 27.0103 159.216 27.0009 158.796C26.8329 159.225 26.5389 159.561 26.1189 159.804C25.7083 160.047 25.2229 160.168 24.6629 160.168ZM25.1949 158.978C25.7176 158.978 26.1376 158.81 26.4549 158.474C26.7723 158.129 26.9309 157.681 26.9309 157.13V156.682L25.3489 156.92C24.8823 156.995 24.5416 157.121 24.3269 157.298C24.1123 157.475 24.0049 157.713 24.0049 158.012C24.0049 158.311 24.1076 158.549 24.3129 158.726C24.5276 158.894 24.8216 158.978 25.1949 158.978ZM31.9385 154.694C32.1252 154.115 32.4052 153.663 32.7785 153.336C33.1519 153 33.6139 152.832 34.1645 152.832C34.2485 152.832 34.3139 152.837 34.3605 152.846V154.456L34.1365 154.442C33.5205 154.442 33.0352 154.61 32.6805 154.946C32.4285 155.189 32.2605 155.487 32.1765 155.842C32.0925 156.187 32.0505 156.593 32.0505 157.06V160H30.3705V153H31.9385V154.694ZM38.2496 156.836L37.2136 157.914V160H35.5336V149.85H37.2136V156.108L39.9436 153H41.9876L39.4256 155.744L42.0996 160H40.1536L38.2496 156.836ZM48.53 161.96C47.7553 161.055 47.1486 160.037 46.71 158.908C46.2806 157.779 46.066 156.612 46.066 155.408C46.066 154.195 46.2806 153.047 46.71 151.964C47.1486 150.881 47.76 149.911 48.544 149.052L49.776 149.612C49.048 150.555 48.516 151.488 48.18 152.412C47.8533 153.336 47.69 154.344 47.69 155.436C47.69 156.528 47.858 157.555 48.194 158.516C48.53 159.468 49.0573 160.42 49.776 161.372L48.53 161.96ZM52.092 154.694C52.2787 154.115 52.5587 153.663 52.932 153.336C53.3053 153 53.7673 152.832 54.318 152.832C54.402 152.832 54.4673 152.837 54.514 152.846V154.456L54.29 154.442C53.674 154.442 53.1887 154.61 52.834 154.946C52.582 155.189 52.414 155.487 52.33 155.842C52.246 156.187 52.204 156.593 52.204 157.06V160H50.524V153H52.092V154.694ZM61.4987 156.92H56.5847C56.594 157.508 56.7667 157.979 57.1027 158.334C57.448 158.679 57.896 158.852 58.4467 158.852C58.848 158.852 59.1933 158.754 59.4827 158.558C59.772 158.362 59.996 158.073 60.1547 157.69L61.4427 158.278C61.1813 158.885 60.7847 159.351 60.2527 159.678C59.73 160.005 59.1093 160.168 58.3907 160.168C57.3173 160.168 56.4773 159.855 55.8707 159.23C55.264 158.595 54.9607 157.709 54.9607 156.57C54.9607 155.413 55.2547 154.503 55.8427 153.84C56.44 153.168 57.2613 152.832 58.3067 152.832C59.324 152.832 60.108 153.121 60.6587 153.7C61.2187 154.269 61.4987 155.086 61.4987 156.15V156.92ZM59.8467 155.702C59.8467 155.133 59.7113 154.699 59.4407 154.4C59.17 154.101 58.7827 153.952 58.2787 153.952C57.7467 153.952 57.336 154.115 57.0467 154.442C56.7573 154.769 56.6033 155.226 56.5847 155.814H59.8467V155.702ZM65.2336 160.168C64.6736 160.168 64.1789 160.019 63.7496 159.72C63.3203 159.412 62.9889 158.983 62.7556 158.432C62.5223 157.872 62.4056 157.233 62.4056 156.514C62.4056 155.786 62.5269 155.147 62.7696 154.596C63.0216 154.036 63.3716 153.602 63.8196 153.294C64.2676 152.986 64.7809 152.832 65.3596 152.832C66.3209 152.832 66.9929 153.219 67.3756 153.994V149.85H69.0556V160H67.4736V158.74C67.2776 159.188 66.9836 159.538 66.5916 159.79C66.2089 160.042 65.7563 160.168 65.2336 160.168ZM65.8076 158.88C66.3023 158.88 66.6943 158.689 66.9836 158.306C67.2729 157.914 67.4176 157.391 67.4176 156.738V156.29C67.4176 155.609 67.2729 155.077 66.9836 154.694C66.6943 154.311 66.2976 154.12 65.7936 154.12C65.2803 154.12 64.8789 154.33 64.5896 154.75C64.3003 155.161 64.1556 155.739 64.1556 156.486C64.1556 157.233 64.3003 157.821 64.5896 158.25C64.8883 158.67 65.2943 158.88 65.8076 158.88ZM78.1912 160.168C77.6872 160.168 77.2438 160.051 76.8612 159.818C76.4785 159.585 76.1938 159.267 76.0072 158.866L75.8392 160H74.4252V149.85H76.1052V154.092C76.2918 153.709 76.5718 153.406 76.9452 153.182C77.3185 152.949 77.7572 152.832 78.2612 152.832C78.8212 152.832 79.3112 152.986 79.7312 153.294C80.1605 153.602 80.4918 154.036 80.7252 154.596C80.9585 155.147 81.0752 155.781 81.0752 156.5C81.0752 157.228 80.9538 157.872 80.7112 158.432C80.4778 158.983 80.1418 159.412 79.7032 159.72C79.2738 160.019 78.7698 160.168 78.1912 160.168ZM77.6592 158.88C78.1818 158.88 78.5878 158.67 78.8772 158.25C79.1758 157.83 79.3252 157.247 79.3252 156.5C79.3252 155.763 79.1805 155.184 78.8912 154.764C78.6018 154.335 78.1912 154.12 77.6592 154.12C77.1645 154.12 76.7725 154.316 76.4832 154.708C76.2032 155.091 76.0632 155.613 76.0632 156.276V156.752C76.0632 157.405 76.2032 157.923 76.4832 158.306C76.7632 158.689 77.1552 158.88 77.6592 158.88ZM85.339 160.168C84.667 160.168 84.0697 160.023 83.547 159.734C83.0337 159.445 82.6324 159.025 82.343 158.474C82.0537 157.914 81.909 157.251 81.909 156.486C81.909 155.721 82.0537 155.063 82.343 154.512C82.6324 153.961 83.0337 153.546 83.547 153.266C84.0697 152.977 84.667 152.832 85.339 152.832C86.011 152.832 86.6037 152.977 87.117 153.266C87.6397 153.546 88.0457 153.961 88.335 154.512C88.6244 155.063 88.769 155.721 88.769 156.486C88.769 157.251 88.6244 157.914 88.335 158.474C88.0457 159.025 87.6397 159.445 87.117 159.734C86.6037 160.023 86.011 160.168 85.339 160.168ZM85.339 158.894C85.8804 158.894 86.3004 158.693 86.599 158.292C86.8977 157.881 87.047 157.279 87.047 156.486C87.047 155.702 86.8977 155.109 86.599 154.708C86.3097 154.307 85.8897 154.106 85.339 154.106C84.7884 154.106 84.3637 154.307 84.065 154.708C83.7664 155.109 83.617 155.702 83.617 156.486C83.617 157.27 83.7664 157.867 84.065 158.278C84.3637 158.689 84.7884 158.894 85.339 158.894ZM91.4006 156.374L89.0346 153H90.9526L92.0306 154.708C92.2359 155.044 92.3619 155.282 92.4086 155.422H92.4226C92.4786 155.254 92.5999 155.016 92.7866 154.708L93.8226 153H95.6986L93.3746 156.402L95.9086 160H93.9906L92.7446 158.11C92.5299 157.793 92.4039 157.55 92.3666 157.382H92.3386C92.2919 157.55 92.1613 157.793 91.9466 158.11L90.7006 160H88.8666L91.4006 156.374ZM95.5986 161.372C96.3173 160.42 96.8446 159.468 97.1806 158.516C97.5166 157.555 97.6846 156.528 97.6846 155.436C97.6846 154.344 97.5166 153.336 97.1806 152.412C96.854 151.488 96.3266 150.555 95.5986 149.612L96.8306 149.052C97.6146 149.911 98.2213 150.881 98.6506 151.964C99.0893 153.047 99.3086 154.195 99.3086 155.408C99.3086 156.612 99.0893 157.779 98.6506 158.908C98.2213 160.037 97.6193 161.055 96.8446 161.96L95.5986 161.372Z" fill="#DE3330"/>
<path d="M101.843 21.8836C98.3189 19.4061 94.9983 17.135 94.9983 12.5929C94.9983 9.9089 96.5569 7.01846 100.894 7.01846C104.621 7.01846 106.993 9.01424 107.738 12.7305C107.738 12.7994 107.806 12.8682 107.874 12.8682H108.145C108.213 12.8682 108.213 12.8682 108.281 12.7994C108.281 12.7305 108.348 12.7305 108.348 12.6617C108.281 11.9047 108.281 10.6659 108.281 9.90891C108.281 8.60132 108.348 7.70666 108.416 6.60553C108.416 6.53671 108.416 6.46789 108.348 6.46789C108.281 6.39907 108.281 6.39907 108.213 6.39907C107.942 6.46789 107.671 6.46789 107.4 6.46789C106.519 6.46789 105.705 6.33025 104.757 6.12379C103.605 5.91733 102.317 5.64205 100.758 5.64205C95.2016 5.64205 91.3389 9.42716 91.3389 14.864C91.3389 20.576 95.3372 23.3288 99.1321 26.0128C102.791 28.5592 106.315 30.9679 106.315 35.8541C106.315 40.4651 102.995 42.5297 99.6742 42.5297C95.8793 42.5297 92.0166 40.3963 92.0166 36.3359C92.0166 35.9918 92.0843 35.6477 92.0843 35.2348V35.0971C92.0843 35.0283 92.0843 35.0283 92.0166 34.9595C92.0166 34.8907 91.9488 34.8907 91.881 34.8907H91.61C91.5422 34.8907 91.4744 34.9595 91.4744 34.9595C90.9323 36.2671 90.8645 37.7811 90.8645 38.194C90.8645 38.8822 90.9323 39.4328 91.0001 40.0522C91.0678 40.6027 91.1356 41.1533 91.1356 41.7039C91.1356 42.1168 91.1356 42.7362 91.0678 43.0114C91.0678 43.0803 91.0678 43.1491 91.1356 43.1491C91.2034 43.2179 91.2034 43.2179 91.2711 43.2179C91.5422 43.1491 91.6777 43.1491 92.0166 43.1491C93.1008 43.1491 93.9818 43.3555 94.9305 43.562C96.0826 43.8373 97.3701 44.1126 99.1999 44.1126C105.434 44.1126 109.771 39.7769 109.771 33.6519C109.907 27.4581 105.773 24.6364 101.843 21.8836Z" fill="#990000"/>
<path d="M157.004 5.64205C145.281 5.64205 138.301 15.5522 138.301 25.1182C138.301 34.4089 145.145 44.1126 156.598 44.1126C167.034 44.1126 175.166 35.7165 175.166 24.9805C175.166 14.1758 167.169 5.64205 157.004 5.64205ZM170.151 25.2558C170.151 35.923 164.933 42.5297 156.598 42.5297C148.33 42.5297 143.383 35.923 143.383 24.9117C143.383 16.6533 146.839 7.08728 156.598 7.08728C162.832 7.1561 170.151 11.9047 170.151 25.2558Z" fill="#990000"/>
<path d="M205.865 43.4937C202.815 42.4614 199.291 36.0611 196.784 31.3813C195.293 28.6973 194.141 26.5639 193.328 25.8069C197.733 24.0864 200.308 20.5077 200.308 16.2409C200.308 9.77176 195.429 5.57373 187.839 5.57373C187.297 5.57373 186.416 5.57373 185.535 5.64255C184.45 5.64255 183.298 5.71137 182.417 5.71137C180.113 5.71137 179.164 5.71137 177.403 5.57373C177.335 5.57373 177.335 5.57373 177.267 5.64255C177.267 5.64255 177.199 5.71137 177.199 5.78019V6.05547C177.199 6.12429 177.267 6.19311 177.335 6.19311C179.097 6.46839 179.707 7.1566 179.707 10.8041V38.9515C179.707 43.1496 179.029 43.2872 177.267 43.5625C177.199 43.5625 177.131 43.6313 177.131 43.7001V43.9754C177.131 44.0442 177.131 44.0442 177.199 44.113C177.199 44.113 177.267 44.1819 177.335 44.1819C178.419 44.113 179.842 44.0442 181.875 44.0442C184.044 44.0442 185.738 44.113 186.416 44.1819C186.483 44.1819 186.483 44.1819 186.551 44.113C186.551 44.113 186.619 44.0442 186.619 43.9754V43.7001C186.619 43.6313 186.551 43.5625 186.483 43.5625C184.721 43.2872 184.044 43.1496 184.044 38.9515V26.9768H187.229C187.771 26.9768 188.516 26.908 189.397 26.7704C190.346 27.665 191.363 29.6608 192.04 30.8996C192.176 31.1748 192.311 31.3813 192.379 31.5878C198.478 43.2184 199.156 43.9066 204.713 44.1819C205.322 44.1819 205.526 44.1819 206.068 44.113C206.136 44.113 206.203 44.0442 206.203 43.9754V43.6313C206 43.5625 205.932 43.4937 205.865 43.4937ZM195.564 16.8602C195.564 22.7788 192.582 25.4628 186.212 25.4628H183.908V7.56952C185.399 7.1566 186.416 7.08777 187.5 7.08777C192.379 7.08777 195.564 10.9417 195.564 16.8602Z" fill="#990000"/>
<path d="M139.521 5.84851C139.521 5.77969 139.521 5.71087 139.521 5.71087C139.521 5.64205 139.453 5.64205 139.386 5.64205C136.946 5.71087 124.138 5.91733 112.618 5.64205C112.55 5.64205 112.482 5.71087 112.482 5.77969C112.279 6.74317 112.008 7.56902 111.804 8.32604C111.533 9.28952 111.262 10.253 111.059 11.2165C111.059 11.2853 111.059 11.2853 111.127 11.3541C111.127 11.423 111.195 11.423 111.262 11.423H111.533C111.601 11.423 111.669 11.3541 111.669 11.3541C113.16 8.11958 115.532 8.11958 123.46 8.11958V39.0199C123.46 43.2179 122.783 43.3555 121.021 43.6308C120.953 43.6308 120.885 43.6996 120.885 43.7685V44.0437C120.885 44.1126 120.885 44.1126 120.953 44.1814C120.953 44.1814 121.021 44.2502 121.088 44.2502C122.105 44.1814 123.596 44.1126 125.561 44.1126C127.662 44.1126 129.424 44.1814 130.034 44.2502C130.101 44.2502 130.101 44.2502 130.169 44.1814C130.169 44.1814 130.237 44.1126 130.237 44.0437V43.7685C130.237 43.6996 130.169 43.6308 130.101 43.6308C128.34 43.3555 127.662 43.2179 127.662 39.0199V7.98194C136.743 7.98194 137.962 8.32604 137.962 9.77127C137.962 10.0465 137.895 10.3218 137.895 10.5283C137.895 10.5971 137.895 10.6659 137.895 10.6659C137.895 10.7347 137.962 10.7347 138.03 10.7347H138.369C138.437 10.7347 138.505 10.6659 138.505 10.5971C138.505 9.77127 139.114 7.22492 139.521 5.84851Z" fill="#990000"/>
<path d="M87.9503 5.57373C86.9338 5.64255 84.9685 5.64255 83.2066 5.64255C81.3769 5.64255 79.3439 5.57373 78.2596 5.57373C78.1918 5.57373 78.1918 5.57373 78.1241 5.64255C78.1241 5.64255 78.0563 5.71137 78.0563 5.78019V6.05547C78.0563 6.12429 78.1241 6.19311 78.1918 6.19311C79.9538 6.46839 81.1736 6.67485 81.1736 10.5976V33.4459C81.1736 37.7816 79.1406 42.3926 75.8878 42.3926C75.2779 42.3926 74.7357 42.3237 74.1936 42.2549C71.8895 41.7043 70.5342 40.0527 69.6532 38.8827C69.5177 38.7451 69.4499 38.5386 69.3144 38.401C68.3656 37.0246 67.959 35.717 67.959 35.717C67.8913 35.5794 67.8235 35.5105 67.688 35.5793C67.5524 35.5793 67.4847 35.717 67.4847 35.8546L68.2301 41.842C68.2301 41.9108 68.2979 41.9796 68.3656 42.0485C70.4664 43.4249 73.1771 43.8378 73.6515 43.9066C74.5324 44.0442 75.2101 44.0442 75.6167 44.0442C75.9555 44.0442 76.1588 44.0442 76.1588 44.0442C81.5802 44.0442 85.2396 39.5709 85.2396 32.8954V10.5976C85.2396 6.74367 86.1206 6.53721 87.9503 6.19311H88.018C88.0858 6.19311 88.1536 6.12429 88.1536 6.05547V5.78019C88.1536 5.71137 88.1536 5.71137 88.0858 5.64255C88.0858 5.64255 88.018 5.57373 87.9503 5.57373Z" fill="#990000"/>
<path d="M13 0V49H61.1822V0H13ZM21.4709 3.44101C21.4709 3.44101 22.9617 3.30337 24.4526 3.92275C25.0625 4.19803 25.5369 4.47331 25.9435 4.81742C26.5534 5.23034 27.0277 5.57444 27.6376 5.36798C28.4508 5.0927 28.5864 4.47331 28.6541 4.12921C28.6541 4.06039 28.7219 3.85393 28.7219 3.85393C28.7897 3.85393 28.8574 3.92275 28.993 4.06039C29.1285 4.26685 29.5351 5.0927 28.5186 6.53792C27.9765 7.36376 27.0955 7.5014 27.0277 7.5014C26.96 7.5014 26.96 7.5014 26.96 7.57022C26.96 7.57022 26.96 7.63904 26.96 7.70787C27.0277 7.91433 27.0277 8.05197 27.0277 8.18961C27.0955 8.67135 27.0277 9.15309 26.6889 9.97893C26.1468 11.2177 25.1303 11.9747 23.7749 12.1812C22.4874 12.3188 21.4031 11.5618 20.9965 10.736C20.6577 9.97893 20.6577 9.08427 20.9287 8.32725C20.9965 8.12079 21.132 7.98315 21.2676 7.91433C21.3353 7.91433 21.3353 7.91433 21.4031 7.98315C21.5386 8.05197 21.5386 8.32725 21.5386 8.60253C21.5386 8.87781 21.5386 9.29073 21.6742 9.70365C21.8775 10.323 22.5551 10.8736 23.3683 10.8048C24.6559 10.6671 25.4691 9.77247 25.4691 8.32725C25.4691 6.8132 24.5204 5.02388 21.7419 4.95506C21.6742 4.95506 21.6742 4.95506 21.6064 4.95506C20.5221 4.95506 19.5734 5.36798 18.828 6.125C17.947 7.01966 17.3371 8.39607 17.3371 9.77247C17.2693 12.3188 18.6246 13.8329 19.7089 14.6587C20.861 15.4846 22.6229 15.5534 24.7914 14.7963C25.5369 14.5211 26.3501 14.2458 27.1633 13.9017C27.8409 13.6264 28.5186 13.3511 29.1963 13.0758C29.6029 12.9382 30.0095 12.8006 30.4161 12.7317H30.4838L30.6194 12.6629C30.4161 12.4565 30.2128 12.1124 29.9417 11.7683C29.3996 10.9424 29.1963 9.49719 29.3996 9.15309C29.4673 9.01545 29.6029 9.01545 29.6029 9.01545H29.6706C29.6706 9.01545 29.6706 9.08427 29.6706 9.15309C29.6706 9.22191 29.6706 9.56601 29.8062 9.77247C30.0095 9.97893 30.2806 10.0478 30.4161 9.97893C30.4839 9.97893 30.4838 9.91011 30.4838 9.91011C30.5516 9.77247 30.6872 9.15309 31.0938 8.60253C31.3648 8.18961 32.2458 7.5014 32.7879 7.5014C32.7879 7.5014 32.7879 7.5014 32.8557 7.5014C32.9912 7.5014 33.059 7.57022 33.1268 7.70787C33.1945 7.84551 32.9912 8.12079 32.9235 8.18961C32.4491 8.67135 31.907 9.42837 31.907 10.5983C31.907 11.1489 32.0425 11.6306 32.3813 11.9747C32.9912 12.6629 34.0755 12.7317 34.2788 12.7317V13.9705H34.211C33.1268 13.9705 32.3136 15.2781 31.9747 16.6545C31.7714 17.7556 31.9747 19.2697 32.0425 19.7514C32.1103 20.1643 32.0425 20.302 32.0425 20.302C32.0425 20.302 32.0425 20.302 31.9747 20.302C31.7714 20.2331 31.3648 19.7514 30.8904 18.9944C30.5516 18.4438 30.6194 17.7556 30.6871 17.4115C30.6871 17.2051 30.7549 17.1362 30.6194 17.0674C30.5516 16.9986 30.4839 16.9986 30.4161 16.9986C30.2806 16.9986 30.2128 17.0674 30.0772 17.2051C30.0095 17.3427 29.9417 17.4115 29.8739 17.4803C29.8062 17.5492 29.8062 17.5492 29.6706 17.4803C29.6029 17.2051 29.8739 16.2416 30.2805 15.6222C30.6194 15.0716 30.8905 14.7275 31.3648 14.3146L31.5004 14.177L31.3648 14.2458C29.8062 14.5899 28.2475 15.2093 27.2988 15.8975C26.079 16.7233 25.0625 17.7556 24.3848 18.8567C24.2493 18.7879 24.1138 18.7191 23.8427 18.5815C23.6394 18.5126 23.3683 18.375 23.0973 18.375C23.3683 17.9621 23.9105 17.4115 24.1138 17.1362C24.1138 17.0674 24.1138 16.9986 24.1138 16.9986C24.046 16.9298 24.046 16.9298 23.9782 16.9298C23.9105 16.9298 22.5551 17.4803 20.1155 16.5857C18.1503 15.8287 16.0495 13.6952 16.185 9.84129C16.185 5.71208 18.8957 3.71629 21.4709 3.44101ZM16.7949 21.1278C16.9305 20.8525 16.9982 20.6461 17.066 20.4396C17.2015 20.0267 17.3371 19.8202 17.3371 19.2697C17.4048 18.6503 17.2015 18.1685 17.066 18.0309C17.2015 18.0309 17.6759 18.2374 17.8792 18.6503C18.0147 18.9944 18.2858 19.8202 18.218 20.0267V20.0955C18.218 20.0955 18.2858 20.0955 18.3536 20.0267C18.6924 19.7514 19.7089 18.9944 21.4031 18.9944C24.6559 18.9944 26.079 22.0225 26.079 22.0913C26.079 22.0913 26.5534 22.2289 27.3666 21.816C27.7054 21.6784 27.9087 21.4719 28.112 21.3343C28.4508 21.059 28.7219 20.7837 29.5351 20.7837C30.3483 20.7837 30.8905 21.1966 31.026 21.5407C31.026 21.6096 31.0938 21.7472 30.9582 21.816C30.8227 21.8848 30.8227 21.8848 30.7549 21.8848C30.6194 21.816 30.4838 21.7472 29.8739 21.816C29.3996 21.8848 29.1285 22.3666 28.9252 22.8483C28.6541 23.3989 28.3831 23.9494 27.7732 24.0871C27.231 24.2247 26.5534 23.8806 26.4178 23.6742C26.4178 23.6053 26.3501 23.5365 26.2823 23.5365C26.2145 23.5365 26.2145 23.6053 26.2145 23.6742C26.2145 23.6742 26.2145 24.1559 25.8757 25.0506C25.6046 25.8764 24.3171 27.8034 21.7419 27.1152C20.1833 26.7022 19.5734 25.1882 19.6412 24.2935C19.6412 24.0183 19.7767 23.8118 19.9122 23.743C20.0478 23.743 20.1155 23.8118 20.1833 23.8806C20.3188 24.2247 20.4544 24.5688 20.5899 24.8441C20.861 25.257 21.3353 25.7388 21.8775 25.8764C23.165 26.1517 23.9105 25.4635 24.1138 25.3947C24.5881 24.9129 24.8592 24.1559 24.7914 23.3301C24.7237 22.2978 24.1815 21.6096 23.7072 21.2654C23.165 20.7837 22.4196 20.5084 21.6742 20.5084H21.6064C20.6577 20.5084 19.7089 20.9213 18.9635 21.5407C18.0147 22.3666 17.4726 23.6742 17.3371 25.1882C17.2693 26.4958 17.7437 28.0098 18.7602 29.0421C19.5056 29.868 20.4544 30.3497 21.3353 30.3497H21.4031C23.8427 30.3497 25.4013 28.8357 27.0955 27.184C28.6541 25.6699 30.2806 24.0871 32.7879 23.3989C32.9912 23.3301 33.8722 23.2612 34.0077 23.2612L33.94 24.6376C32.5169 24.9129 30.5516 25.8076 30.6194 26.8399C30.6871 27.8034 31.3648 28.3539 31.6359 28.6292C31.7037 28.698 31.7714 28.7669 31.7714 28.7669C31.7714 28.7669 31.7714 28.8357 31.6359 28.8357C31.3648 28.9045 30.7549 29.0421 30.2805 28.7669C29.6029 28.4916 28.993 27.3904 28.993 27.3904V27.3216L28.9252 27.3904C28.9252 27.3904 26.96 29.4551 25.9435 30.2121C25.2658 30.6938 23.4361 32.0702 21.3353 31.9326C19.8445 31.8638 18.4891 31.1756 17.4726 30.0056C16.3883 28.7669 15.8462 27.0463 15.8462 25.257C16.0495 23.5365 16.185 22.7107 16.7949 21.1278ZM20.9965 29.1798C20.5899 29.111 19.5734 28.4228 19.5056 28.2851C19.5056 27.941 19.5734 27.1152 19.7089 26.6334C20.2511 27.5281 21.0643 27.941 21.0643 27.941C20.9287 28.4916 20.9965 29.1798 20.9965 29.1798ZM20.7932 22.9171C20.861 22.2978 21.1998 21.6784 21.4031 21.4031C22.1485 21.2654 22.6907 21.6784 22.7584 21.7472C22.3518 22.573 22.0808 23.5365 21.8097 24.4312C21.5386 24.3624 21.132 23.9494 20.7932 22.9171ZM22.1485 42.4621C21.4709 43.9073 20.3866 45.1461 20.1833 44.9396C19.98 44.802 20.2511 44.5955 20.3188 44.1826C20.4544 43.7697 20.4544 43.632 20.4544 43.632C20.4544 43.632 20.1833 44.0449 19.099 44.7331C18.0147 45.4213 17.8114 45.4902 17.6759 45.2149C17.5404 45.0084 17.8114 44.8708 18.0825 44.389C18.3536 43.9761 18.2858 44.0449 18.2858 44.0449C18.2858 44.0449 17.4048 43.9761 16.6594 43.632C15.914 43.2879 15.1685 42.5309 15.1685 42.3933C15.1685 42.1868 15.5074 42.0492 16.0495 41.7739C16.6594 41.4986 17.066 41.0857 17.066 41.0857C17.066 41.0857 16.6594 40.948 16.3883 40.8104C16.0495 40.6039 15.6429 40.4663 15.914 40.2598C16.1173 40.0534 17.066 40.7416 18.5569 39.2963C19.8445 38.0576 19.8445 36.2683 19.8445 36.2683C19.8445 36.2683 20.4544 38.4017 19.6412 40.0534C18.6246 42.118 16.7272 42.118 16.9305 42.5997C17.2015 43.1503 19.5056 42.6685 20.5221 40.191C21.3353 38.1264 20.4544 35.4424 19.8445 33.9284C19.6412 33.4466 19.4379 32.8961 19.2346 32.4143C19.8445 32.6896 20.3188 32.8272 20.7932 32.8961L20.861 33.0337C21.4031 33.9284 22.2841 34.2725 22.7584 34.4789C23.2328 34.6166 23.7072 34.7542 24.1815 34.7542C24.5881 34.7542 24.9947 34.6854 25.4013 34.5478C25.6724 34.4789 25.8757 34.3413 26.079 34.1348C26.6211 33.5154 26.7567 31.5885 27.0277 31.4508C27.1633 31.382 27.4343 31.8638 27.5699 32.2079C27.7054 32.552 27.6376 32.8961 27.8409 32.9649C27.9765 33.0337 28.112 32.8272 28.3831 32.4831C28.8574 31.9326 28.7897 31.7261 28.993 31.7949C29.1963 31.8638 28.993 33.0337 28.8574 33.7219C28.7219 34.3413 28.4508 35.3048 28.4508 35.3048C28.4508 35.3048 29.1963 34.823 29.9417 34.4789C31.907 33.5843 32.6524 33.8596 32.7202 34.1348C32.7202 34.4101 32.2458 34.4101 31.7714 35.0295C31.4326 35.4424 31.5004 35.5801 31.5004 35.5801C31.5004 35.5801 31.7714 35.5801 32.5846 35.3736C33.1945 35.236 33.6689 34.9607 33.8722 35.1671C34.0077 35.4424 33.2623 36.4747 32.1103 37.3006C30.9582 38.1264 29.9417 38.4705 29.9417 38.4705C29.9417 38.4705 30.145 38.7458 30.7549 38.8146C31.3648 38.9522 31.5681 38.8146 31.6359 39.0211C31.7037 39.2275 31.026 39.434 29.9417 39.5716C28.3831 39.7093 27.5699 39.0211 27.5699 39.0211C27.5699 39.0211 27.7732 39.5716 27.5021 40.191C27.231 40.6039 27.231 41.1545 26.96 41.0857C26.7567 41.0169 27.0277 40.4663 26.5534 39.9157C26.079 39.2963 25.5369 39.2275 24.7237 38.5393C23.9105 37.9199 23.9105 37.4382 23.9105 37.4382C23.9105 37.4382 25.2658 37.9888 27.5021 37.5758C29.6706 37.2317 30.2805 36.5435 30.145 36.3371C30.0095 36.1306 29.6706 36.4059 28.6541 36.6124C27.5021 36.8876 25.8757 36.8188 24.1138 36.4747C23.5039 36.3371 22.6229 36.0618 21.8775 35.5801C22.1485 36.1994 22.6907 37.3006 22.7584 38.0576C23.0295 39.5028 22.8262 41.0169 22.1485 42.4621ZM30.9582 45.8343C29.0607 46.1784 25.4013 45.6278 25.4013 45.6278L23.5039 39.5028C23.5039 39.5028 25.4691 41.361 26.4856 42.1868C27.5021 43.0126 28.4508 43.4256 29.8739 43.4256C31.2971 43.4256 32.3136 43.0815 33.3978 41.9115C34.4821 40.7416 34.8887 39.2963 35.1598 37.507C35.3631 36.2683 35.2953 32.7584 35.2953 31.9326L35.5664 12.8694C35.5664 12.8694 35.7019 8.74017 35.4308 7.70787C35.1598 6.67556 34.5499 5.91854 34.1433 5.50562C33.3301 4.67978 31.6359 4.33567 31.6359 4.33567C31.1615 4.26685 31.026 3.99157 31.0938 3.78511C31.026 3.44101 31.3648 3.44101 31.3648 3.44101H43.6306C43.6306 3.44101 43.9017 3.44101 43.9695 3.85393C44.0372 4.12921 43.9017 4.33567 43.4273 4.40449C43.4273 4.40449 41.7331 4.67978 40.9199 5.57444C40.5811 5.98736 39.9712 6.74438 39.6324 7.77669C39.3613 8.80899 39.4968 12.9382 39.4968 12.9382V32.0014C39.4968 32.0014 39.5646 35.6489 39.0902 37.6447C38.7514 39.0211 38.006 41.6362 35.973 43.4944C34.0755 45.0772 32.6524 45.4902 30.9582 45.8343ZM42.2753 31.8638C42.4108 33.1713 43.4951 34.3413 44.986 34.2037C45.5959 34.1348 46.0702 33.8596 46.4091 33.5154L46.2735 33.4466C46.0702 33.2402 45.3926 32.6208 44.7827 31.8638C44.2405 31.1756 43.9695 30.7626 43.9017 30.6938L43.7662 30.4874C43.7662 30.4874 43.9695 30.3497 44.5116 30.3497C45.1215 30.3497 45.7314 30.8315 45.8669 30.9691C45.8669 30.9691 46.138 31.3132 47.0867 32.2767C48.171 33.4466 48.9164 33.9972 49.052 34.066C49.052 34.4101 48.9842 35.0295 48.8487 35.5112C48.3743 35.236 47.6966 34.6854 47.3578 34.4101C47.29 34.3413 47.29 34.3413 47.2223 34.3413C46.8157 34.823 46.2735 35.3048 45.3926 35.5801C45.1893 35.6489 44.986 35.6489 44.7827 35.6489C42.8174 35.5801 41.5298 34.1348 41.2588 32.6896C41.1232 32.139 41.191 31.4508 41.191 31.0379C41.191 30.625 41.2588 30.2809 41.1232 30.0056C41.0555 29.7303 40.8522 29.5239 40.7844 29.3862C40.7166 29.2486 40.6489 29.1798 40.7166 29.111C40.8522 28.9733 41.1232 29.0421 41.4621 29.2486C41.6654 29.3862 41.7331 29.5239 41.8009 29.5927C42.0042 29.3174 42.8852 28.0787 44.4438 28.0098C44.986 28.0098 45.4603 28.0787 45.7992 28.3539C46.0702 28.5604 46.2735 28.8357 46.4091 29.111C46.4768 29.3174 46.4768 29.5239 46.3413 29.5927C46.2735 29.6615 46.0702 29.5239 45.8669 29.4551C45.5281 29.3174 45.0537 29.111 44.4438 29.1798C43.9695 29.2486 43.2918 29.5927 42.8174 30.2121C42.4108 30.5562 42.2075 31.1756 42.2753 31.8638ZM41.3265 20.302C41.0555 18.375 41.191 17.4803 41.191 17.4803C41.5976 17.618 42.3431 18.375 42.6141 18.6503C42.6141 18.6503 42.5464 18.9256 42.7497 20.0955C42.8852 20.9902 43.1562 21.816 43.224 22.1601L41.8687 22.7795C41.6654 22.2978 41.4621 21.3343 41.3265 20.302ZM42.4786 17.2051C41.5298 16.3104 40.7844 16.1039 40.7844 16.1039V14.4522C41.2588 14.6587 42.2753 15.2093 42.8852 15.7598C43.4951 16.2416 43.9017 16.7921 44.3083 17.2051L44.0372 18.9256C43.6306 18.375 43.0885 17.7556 42.4786 17.2051ZM57.7939 42.5997C57.7939 42.6685 57.7939 42.6685 57.7939 42.5997C57.3873 43.9761 56.6419 44.8708 55.4898 45.2149C55.151 45.3525 54.8121 45.3525 54.5411 45.3525C53.7956 45.3525 53.1857 45.0772 52.5081 44.6643C52.4403 44.6643 52.1015 44.5955 51.6949 44.802C51.4916 44.9396 51.356 45.0772 51.2883 45.1461C51.2205 45.2149 51.1527 45.2837 51.085 45.2837C51.085 45.2837 51.0172 45.2837 51.0172 45.2149C50.9494 45.0772 50.9494 44.6643 51.2205 44.2514C51.356 43.9761 51.5593 43.8385 51.5593 43.7697C51.4916 43.5632 51.0172 42.3933 51.6271 41.0857C52.0337 40.191 53.118 39.7093 53.9312 40.0534C54.7444 40.3975 55.0154 41.0169 55.0154 41.4986C55.0154 41.8427 54.8799 42.1868 54.6766 42.2556C54.6088 42.3244 54.4733 42.3244 54.4055 42.3244C54.3378 42.2556 54.3378 42.118 54.3378 41.9803C54.3378 41.7051 54.3378 41.361 53.8634 41.1545C53.6601 41.0169 53.389 41.0169 53.118 41.0857C52.9147 41.1545 52.7114 41.2921 52.5758 41.7051C52.3725 42.1868 52.4403 42.6685 52.6436 43.0815C52.9147 43.5632 53.4568 43.9761 54.1345 44.1138C55.2188 44.389 56.303 43.5632 56.6419 42.2556C56.7774 41.8427 56.7774 41.4298 56.6419 40.948C56.3708 39.9846 55.6931 39.1587 54.2022 38.4017C53.6601 38.1264 52.5758 37.6447 52.1692 37.4382C52.3725 36.75 52.4403 36.5435 52.5081 36.2683C52.6436 36.0618 53.0502 35.6489 53.4568 35.5801C53.9312 35.4424 54.4055 35.7177 54.4055 35.7865C54.4055 35.8553 53.7956 35.993 53.4568 36.8188C53.5923 36.8876 54.6766 37.1629 55.6254 37.7823C57.184 38.8146 57.6584 39.9157 57.7939 40.3975C57.9972 41.2921 57.9972 42.0492 57.7939 42.5997ZM58.1327 33.1713C57.7939 35.0295 56.7774 35.8553 55.8964 35.9242C55.8287 35.9242 55.7609 35.9242 55.6931 35.9242C55.4221 35.9242 55.2188 35.8553 55.151 35.7177C55.151 35.6489 55.151 35.6489 55.151 35.5801C55.151 35.5112 55.2865 35.4424 55.4221 35.4424C55.6254 35.3736 55.8287 35.3048 56.0997 35.0983C56.8452 34.4789 56.7774 34.2037 56.7774 33.9972V33.9284C56.7096 33.9284 56.6419 33.9284 56.5063 34.066H56.4386C56.2353 34.1348 56.0997 34.1348 55.9642 34.1348C55.8964 34.066 55.8287 34.066 55.8287 33.9284C55.8287 33.8596 55.8964 33.7219 56.032 33.6531C56.0997 33.5843 56.2353 33.4466 56.303 33.3778C56.7096 32.7584 56.7774 32.0702 56.4386 31.4508C56.2353 31.0379 55.8964 30.625 55.0154 30.5562H54.9477C54.9477 30.5562 54.9477 30.5562 54.8799 30.5562C54.7444 30.5562 54.6089 30.5562 54.4733 30.625C53.4568 30.8315 52.7791 31.5197 52.3048 32.2767C51.6949 33.2402 51.4916 34.6854 51.4916 34.9607C51.2883 36.2683 50.8817 38.1952 48.171 41.6362C47.8322 42.0492 47.6289 42.5997 47.7644 43.2191C48.0355 44.3202 49.052 44.389 49.052 44.5267C49.052 44.6643 48.8487 44.6643 48.4421 44.6643C48.0355 44.6643 47.8999 44.5267 47.8999 44.5267C47.8999 44.5267 47.8322 44.802 48.4421 45.2149C48.9164 45.559 49.4586 45.559 49.5263 45.6966C49.5263 45.9031 46.5446 46.5913 46.3413 43.4944C46.3413 43.4256 46.3413 43.3567 46.3413 43.2879C43.0885 46.316 42.1397 46.4537 41.8687 46.1784C41.7331 46.0407 42.072 46.0407 42.6819 45.3525C43.2918 44.5955 43.3596 44.3202 43.3596 44.3202C43.3596 44.3202 42.072 45.0084 40.6489 44.8708C39.158 44.7331 37.8704 43.632 38.006 43.2191C38.0737 42.875 38.9547 43.4944 40.039 43.2879C41.0555 43.1503 41.1232 42.7374 41.1232 42.7374C41.1232 42.7374 40.9199 42.7374 40.5811 42.3933C40.2423 42.0492 39.7679 41.7739 40.039 41.4986C40.1745 41.361 40.9199 41.7051 41.6654 41.7051C42.6141 41.7051 43.224 41.4986 43.224 41.4986C43.224 41.4986 42.8174 41.361 42.4108 40.948C42.0042 40.5351 41.9364 40.1222 42.072 40.0534C42.1397 39.9846 42.2753 40.3287 42.8174 40.3287C43.4273 40.3287 43.4951 40.191 43.4951 40.191C43.4951 40.191 43.224 39.9846 43.0885 39.7093C42.953 39.5028 42.6141 38.7458 42.8174 38.5393C42.8852 38.4705 43.5629 39.2963 44.5794 39.434C46.3413 39.5716 48.2388 38.1952 48.2388 38.1952C48.2388 38.1952 47.29 39.3652 45.257 41.1545C43.9695 42.2556 42.3431 43.2191 42.4108 43.4256C42.5464 43.7008 43.8339 43.3567 46.0025 41.4986C46.6801 40.8792 47.1545 40.4663 48.1032 39.2963C49.7974 37.1629 50.204 34.823 49.8652 32.9649C49.7296 32.2079 49.5263 31.5885 49.323 31.0379C48.3743 28.9733 47.3578 27.941 45.6636 27.2528C44.1728 26.6334 42.953 27.184 42.2753 27.5281C41.9364 27.6657 41.6654 27.8034 41.5976 27.6657C41.2588 27.2528 41.9364 26.6334 42.4786 26.0829C43.1563 25.3947 43.6306 25.1194 43.7662 25.0506C43.6306 24.9817 43.1563 24.7753 42.7497 24.7065C42.5464 24.7065 42.2753 24.7065 42.0042 24.7753C41.6654 24.8441 41.3943 24.8441 41.3265 24.7065C41.2588 24.3624 42.6819 23.6742 43.4951 23.4677C44.3083 23.1924 44.9182 23.1924 45.0537 23.1924C45.0537 22.986 44.9182 21.6784 45.0537 19.6826C45.1215 18.6503 45.3248 17.8933 45.4603 17.4803C45.6636 16.9298 45.8669 16.5857 46.0702 16.448C46.138 16.3792 46.2058 16.3792 46.2735 16.448C46.4091 16.5169 46.4091 16.7921 46.4091 17.2051C46.4091 17.4803 46.4091 17.7556 46.4091 18.0997C46.4768 19.0632 46.8157 19.6138 47.019 19.7514H47.0867C47.1545 19.7514 47.1545 19.6138 47.2223 19.4073C47.29 19.2008 47.29 18.8567 47.4933 18.4438C47.8322 17.7556 48.4421 16.9986 48.6454 17.0674C48.7131 17.0674 48.7131 17.1362 48.7131 17.2739C48.7131 17.618 48.6454 17.8933 48.5776 18.1685C48.5098 18.7879 48.3743 19.4761 48.4421 20.7149C48.5098 22.573 49.3908 22.8483 49.4586 22.8483C49.5263 22.7795 49.9329 22.0225 50.5428 21.4031C50.6784 21.2654 50.8139 21.1278 50.8817 20.9902C51.2883 20.5772 51.5593 20.2331 51.7626 20.2331C51.8304 20.2331 51.8982 20.302 51.8982 20.3708C51.9659 20.5084 51.8304 20.7837 51.6271 21.2654C51.356 21.9537 50.9494 22.986 50.7461 24.2247C50.4073 26.6334 50.7461 28.9733 50.7461 28.9733V29.111L50.6784 28.9733C50.6784 28.9733 50.4751 28.4228 49.6619 27.184C49.2553 26.6334 48.9842 26.2893 48.7131 25.9452C48.3743 25.5323 48.0355 25.1882 47.5611 24.3624C47.019 23.4677 46.8834 22.7107 46.8157 22.2978C46.7479 21.8848 46.6801 21.7472 46.4768 21.6784C46.4768 21.6784 46.4091 21.6784 46.4091 21.7472C46.2058 22.0225 46.3413 23.743 46.8157 24.7065C47.0867 25.257 47.4256 25.6699 47.7644 26.1517C48.171 26.6334 48.5776 27.2528 49.1197 28.0787C50.0685 29.6615 50.5428 30.8315 50.7461 31.5197C50.8139 31.6573 50.8139 31.8638 50.8817 32.0014C51.0172 31.7949 51.2205 31.5197 51.2205 31.4508C52.9147 29.5927 54.3378 29.4551 55.3543 29.6615C56.0997 29.7992 56.7096 30.2121 57.184 30.9003C58.065 31.382 58.2683 32.3455 58.1327 33.1713ZM42.6819 14.3834L41.3943 13.5576C41.5976 12.7317 42.4108 9.29073 44.4438 7.01966C46.5446 4.67978 49.1197 3.92275 51.356 3.92275C52.5758 3.92275 53.7279 4.12921 54.6089 4.33567C54.7444 4.33567 54.8122 4.40449 54.9477 4.40449C55.8287 4.61096 56.7774 4.81742 57.3873 4.61096C57.7261 4.54213 58.065 4.40449 58.2683 4.26685C58.4038 4.19803 58.5393 4.12921 58.6071 4.12921C58.6071 4.26685 58.4716 4.7486 58.065 5.29916C57.7939 5.64326 57.4551 5.84972 57.2518 5.98736C57.0485 6.19382 56.9129 6.33146 56.9129 6.4691C56.9129 6.53792 56.9807 6.67556 57.1162 6.88202C57.5228 7.63905 58.336 9.15309 58.2683 11.2177C58.1327 14.5211 56.5741 15.8975 55.5576 16.7921L55.4221 16.9298C54.7444 17.7556 54.8121 18.4438 55.0154 18.9256C55.2865 19.6138 55.9642 20.2331 56.7774 20.5084C57.2518 20.7149 57.7939 20.7149 58.2005 20.7837C58.4716 20.7837 58.7426 20.8525 58.8104 20.9213C58.8782 21.1278 58.6071 21.4031 58.065 21.816C57.6584 22.0913 57.184 22.1601 57.184 22.1601C57.184 22.1601 57.184 22.1601 57.184 22.2289C57.184 22.2289 58.336 23.2612 58.4716 24.6376C58.6071 26.014 58.4038 26.8399 57.6584 27.4593C57.1162 28.0098 56.303 28.0787 55.9642 28.0098C55.8964 28.0098 55.8964 27.941 55.8964 27.941C55.8287 27.7346 56.0997 27.5969 56.4386 27.3904C56.5063 27.3216 56.5741 27.3216 56.6419 27.2528C57.0485 26.9775 57.2518 26.4958 57.1162 26.2205C57.0485 26.1517 56.9807 26.1517 56.9129 26.1517C56.8452 26.1517 56.7774 26.1517 56.7096 26.2205C56.5741 26.2893 56.3708 26.2893 56.303 26.2205C56.2353 26.0829 56.2353 26.014 56.303 25.8764C56.3708 25.7388 56.4386 25.5323 56.4386 25.3258C56.5063 24.7753 56.4386 23.3989 55.6931 23.2612H55.6254C55.5576 23.3301 55.5576 23.4677 55.5576 23.743C55.5576 24.0871 55.5576 24.5688 55.3543 24.9129C55.0154 25.3947 54.5411 25.8076 54.3378 25.8076C54.27 25.8076 54.27 25.8076 54.2022 25.7388C54.2022 25.6699 54.2022 25.6011 54.2022 25.3947C54.27 24.9817 54.4055 24.2247 54.2022 22.8483C54.1345 22.3666 53.8634 21.816 53.5246 21.3343C53.2535 20.8525 52.9824 20.3708 52.9147 19.9579C52.7791 19.2008 52.9147 18.9256 53.3213 18.5815C53.5923 18.375 53.5924 18.2374 53.5924 18.0997C53.5924 17.9621 53.5246 17.7556 53.3213 17.6868C53.2535 17.6868 53.0502 17.618 52.8469 17.618C52.0337 17.618 50.204 17.618 48.9164 15.8287C47.8999 14.3834 47.7644 13.007 47.9677 11.4242C47.9677 11.4242 47.8322 10.8048 47.3578 10.323C47.0867 10.1166 46.8834 9.97893 46.6801 9.91011C46.5446 9.84129 46.4768 9.77247 46.4768 9.77247C46.4768 9.77247 46.4768 9.77247 46.4768 9.70365C46.6124 9.56601 47.019 9.35955 47.6289 9.49719C48.1032 9.56601 48.4421 9.77247 48.4421 9.77247C48.4421 9.77247 48.4421 9.77247 48.5098 9.77247C48.5098 9.77247 49.7296 8.32725 51.6949 8.46489C52.9147 8.53371 53.9989 9.77247 54.0667 11.0112C54.0667 12.3188 53.5246 12.9382 52.9824 13.1447C52.5758 13.2823 52.1692 13.2823 51.9659 13.1447C51.8304 13.0758 51.8304 12.9382 51.7626 12.8694C51.7626 12.7317 51.8304 12.7317 52.0337 12.5941C52.3048 12.4565 52.7791 12.25 52.7791 11.4242C52.7791 11.0112 52.6436 10.5983 52.3725 10.323C52.1692 10.1166 51.8304 9.91011 51.2883 9.91011C50.6106 9.91011 50.0007 10.1854 49.6619 10.736C49.1875 11.3553 48.9842 12.3876 49.1875 13.4888C49.4586 15.1405 51.0172 16.3104 52.7791 16.1039C53.7956 15.9663 54.7444 15.4157 55.4898 14.4522C56.1675 13.5576 56.5741 12.3876 56.5741 11.2865C56.5741 8.53371 55.0155 5.64326 51.4238 5.50562C47.9677 5.36798 45.7992 7.57022 44.8504 8.87781C44.2405 9.70365 43.6306 11.2177 43.1563 12.4565C43.3596 12.3876 44.0372 12.3188 44.6471 12.5941C45.257 12.8694 46.0025 13.6264 45.8669 13.9705C45.7992 14.0393 45.6636 14.0393 45.3926 13.9705C45.0537 13.9017 44.5794 13.9017 43.9695 13.9705C43.1563 14.1081 42.8174 14.3146 42.6819 14.3834Z" fill="#990000"/>
<path d="M280 61L0 61M0 49L280 49" stroke="#DE3330"/>
<path d="M45.4026 61H13V91.8613H45.4026V61Z" fill="black"/>
<path d="M61.4151 61H47.7354V91.8613H61.4151V61Z" fill="black"/>
<path d="M35.2534 94.1982H61.4361V110H35.2534V94.1982Z" fill="black"/>
<path d="M32.9207 94.1982H13V110H32.9207V94.1982Z" fill="black"/>
<path d="M166.377 73.6797C166.377 78.2036 169.718 80.5186 173.269 82.9614L173.273 82.9644C177.201 85.6816 181.254 88.4854 181.275 94.5796C181.275 100.675 176.947 104.923 170.769 104.923C168.94 104.923 167.659 104.647 166.524 104.392L166.423 104.369C165.514 104.165 164.636 103.967 163.582 103.967C163.267 103.967 163.141 103.967 162.847 104.01L162.678 104.031L162.72 103.861C162.763 103.627 162.763 103.033 162.763 102.587C162.763 102.013 162.699 101.482 162.636 100.93C162.573 100.356 162.51 99.7617 162.51 99.1035C162.51 98.6572 162.552 97.1494 163.12 95.875L163.141 95.811H163.603L163.582 96.0874C163.54 96.4697 163.498 96.8306 163.498 97.1919C163.498 101.27 167.385 103.415 171.231 103.415C174.551 103.415 177.913 101.355 177.913 96.7456C177.913 91.8818 174.404 89.4819 170.706 86.9541L170.69 86.9438C166.85 84.314 162.91 81.6157 162.91 75.9521C162.91 70.5786 166.755 66.8188 172.261 66.8188C173.858 66.8188 175.139 67.0737 176.274 67.2861C176.626 67.3521 176.971 67.418 177.313 67.4741C177.464 67.499 177.615 67.522 177.765 67.5425C177.889 67.5591 178.013 67.5737 178.137 67.5859C178.392 67.6113 178.647 67.626 178.901 67.626C179.216 67.626 179.447 67.626 179.741 67.5835L179.888 67.5625L179.867 67.7109C179.783 68.688 179.72 69.5801 179.72 71.0244C179.72 71.7681 179.72 73.0425 179.762 73.7856V73.9131H179.237L179.216 73.8071C178.502 70.0898 176.127 68.1147 172.345 68.1147C167.953 68.1147 166.377 70.9819 166.377 73.6797Z" fill="black"/>
<path fill-rule="evenodd" clip-rule="evenodd" d="M228.682 66.8403C217.061 66.8403 210.106 76.6528 210.106 86.147C210.106 95.3862 216.893 104.944 228.282 104.944C238.642 104.944 246.753 96.6182 246.753 85.9985C246.753 75.251 238.81 66.8403 228.682 66.8403ZM241.878 86.2959C241.878 96.9155 236.667 103.521 228.282 103.521C219.982 103.521 215.044 96.958 215.044 85.9985C215.044 80.1787 216.473 75.4634 219.183 72.3413C221.495 69.686 224.731 68.2207 228.282 68.2207C234.544 68.1997 241.878 72.936 241.878 86.2959Z" fill="black"/>
<path fill-rule="evenodd" clip-rule="evenodd" d="M124.653 92.1387L124.846 92.4863C127.544 97.3267 130.871 103.297 133.869 104.307L133.953 104.328V104.838L133.848 104.859C133.365 104.902 133.154 104.902 132.524 104.902C127.061 104.689 126.367 104.01 120.294 92.4976C120.258 92.4233 120.213 92.3418 120.164 92.251L120.159 92.2422C120.097 92.1279 120.027 92.0005 119.958 91.8604C119.286 90.5859 118.277 88.6748 117.373 87.7827C116.617 87.8887 115.945 87.9526 115.419 87.9526H112.204V99.8252C112.204 104.031 112.94 104.158 114.705 104.435L114.81 104.456V104.944H114.684C114.032 104.902 112.309 104.838 110.166 104.838C108.17 104.838 106.699 104.902 105.648 104.944H105.522V104.456L105.627 104.435L105.649 104.431C107.398 104.136 108.128 104.013 108.128 99.8252V71.98C108.128 68.582 107.665 67.6685 105.732 67.3711L105.627 67.3501V66.8613H105.753C107.518 66.9678 108.464 66.9678 110.733 66.9678C111.287 66.9678 111.996 66.9492 112.716 66.9307C113.089 66.9209 113.464 66.9111 113.822 66.9038C114.726 66.8828 115.608 66.8613 116.134 66.8613C123.656 66.8613 128.532 70.9819 128.532 77.354C128.532 81.644 125.842 85.1914 121.345 86.8481C122.162 87.6738 123.316 89.7422 124.653 92.1387ZM114.6 86.6357C122.984 86.6357 123.951 81.729 123.951 78.0337C123.951 72.1289 120.778 68.3057 115.86 68.3057C114.726 68.3057 113.738 68.3906 112.225 68.7944V86.6357H114.6Z" fill="black"/>
<path fill-rule="evenodd" clip-rule="evenodd" d="M277.916 104.328C274.893 103.275 271.582 97.3315 268.883 92.4883L268.817 92.3701L268.715 92.1875C267.292 89.6387 266.15 87.5947 265.35 86.8267C269.721 85.1489 272.326 81.644 272.326 77.4175C272.326 71.0454 267.472 66.9463 259.949 66.9463C259.489 66.9463 258.77 66.9629 257.977 66.9814L257.638 66.9888C257.28 66.9961 256.904 67.0059 256.532 67.0156L256.492 67.0171L255.517 67.0405C255.166 67.0479 254.837 67.0527 254.549 67.0527C252.279 67.0527 251.334 67.0527 249.569 66.9463H249.443V67.4351L249.548 67.4561C251.46 67.7534 251.943 68.667 251.943 72.0439V99.8467C251.943 104.031 251.208 104.158 249.443 104.435L249.338 104.456V104.944H249.464C250.514 104.902 251.964 104.838 253.982 104.838C256.125 104.838 257.848 104.902 258.499 104.944H258.625V104.456L258.52 104.435C256.755 104.158 256.02 104.031 256.02 99.8467V88.0161H259.214C259.802 88.0161 260.538 87.9526 261.42 87.8252C262.324 88.7173 263.332 90.6284 264.005 91.9028C264.131 92.1577 264.257 92.3916 264.362 92.5615C270.435 104.031 271.107 104.732 276.571 104.944L276.967 104.943L277.17 104.94C277.41 104.934 277.597 104.918 277.874 104.88L277.979 104.859V104.35L277.916 104.328ZM267.745 78.0972C267.745 81.7715 266.779 86.6782 258.415 86.6782H256.041V68.8794C257.554 68.4756 258.583 68.3906 259.655 68.3906C264.572 68.3906 267.745 72.1924 267.745 78.0972Z" fill="black"/>
<path d="M133.154 66.8188H133.26C144.775 67.0952 157.593 66.8828 160.031 66.7979H160.199L160.157 66.9678C159.715 68.3906 159.127 70.897 158.98 71.7041L158.959 71.8105H158.392L158.434 71.6616C158.45 71.5947 158.47 71.5049 158.488 71.4048C158.516 71.2505 158.539 71.0728 158.539 70.9185C158.539 69.4741 157.32 69.1128 148.158 69.1128V99.8257C148.158 104.012 148.887 104.136 150.614 104.43L150.638 104.435L150.743 104.456V104.944H150.617C149.965 104.902 148.221 104.838 146.141 104.838C144.208 104.838 142.737 104.902 141.665 104.944H141.539V104.456L141.644 104.435C143.388 104.158 144.124 104.031 144.124 99.8257V69.1343C136.159 69.1343 133.743 69.1343 132.23 72.3838L132.188 72.4478H131.705L131.726 72.2988C131.915 71.3433 132.167 70.4297 132.44 69.4741C132.603 68.9185 132.767 68.3418 132.93 67.7134C132.998 67.4531 133.066 67.1841 133.133 66.9038L133.154 66.8188Z" fill="black"/>
<path d="M211.135 66.8613H210.967C208.509 66.9038 195.712 67.1162 184.196 66.8613H184.091L184.07 66.9463C183.839 67.9023 183.608 68.7095 183.377 69.4951C183.104 70.4507 182.851 71.3643 182.662 72.3198L182.641 72.4688H183.125L183.167 72.4048C184.68 69.1768 187.096 69.1553 195.06 69.1553V99.8467C195.06 104.033 194.331 104.157 192.605 104.451L192.581 104.456L192.475 104.477V104.965H192.602L192.793 104.958C193.846 104.916 195.257 104.859 197.077 104.859C199.158 104.859 200.902 104.923 201.553 104.965H201.679V104.477L201.574 104.456C199.83 104.18 199.095 104.052 199.095 99.8467V69.1343C208.257 69.1343 209.475 69.4951 209.475 70.9395C209.475 71.1943 209.412 71.5127 209.37 71.6826L209.328 71.8315H209.896L209.917 71.7251C210.064 70.918 210.652 68.4121 211.093 66.9888L211.135 66.8613Z" fill="black"/>
<path fill-rule="evenodd" clip-rule="evenodd" d="M101.298 103.012C101.845 104.052 102.37 104.286 103.694 104.456L103.862 104.414V104.902H103.736C103.084 104.859 101.361 104.796 99.323 104.796C97.8101 104.796 96.3391 104.838 94.8051 104.902H94.679V104.414H94.7841C96.213 104.329 96.9064 103.776 96.9064 102.735C96.9064 102.679 96.897 102.612 96.8845 102.542L96.8644 102.438L92.4306 90.5439H85.3071C83.4789 90.5439 81.7348 90.5439 79.9907 90.5864L76.9647 98.8062C76.5234 100.017 76.1031 101.27 76.1031 102.247C76.1031 103.521 76.8176 104.222 78.3306 104.392L78.4357 104.414V104.902H78.3096C77.6371 104.859 75.809 104.796 73.5815 104.796C72.1526 104.796 71.4382 104.838 70.6397 104.881L69.9883 104.902V104.435L70.0723 104.414C72.678 103.797 73.4344 103.139 75.5778 97.4253L87.0932 66.543H87.7656L87.7866 66.6279L101.298 103.012ZM85.244 88.8447H91.7161L86.0845 73.7432L80.579 88.8022C82.155 88.8447 83.647 88.8447 85.244 88.8447Z" fill="black"/>
<path d="M0 37H10M0 1H10M0 25.1644H10M0 13.3288H10" stroke="#DE3330"/>
</svg>
