<svg width="200" height="160" viewBox="0 0 200 160" fill="none" xmlns="http://www.w3.org/2000/svg">
<rect width="200" height="160" fill="white"/>
<path d="M75.7355 132.772C73.2816 131.108 70.9688 129.529 70.9688 126.426C70.9688 124.593 72.0406 122.647 75.0586 122.647C77.6534 122.647 79.2893 124.001 79.797 126.539C79.797 126.596 79.8534 126.652 79.9098 126.652H80.1073C80.1355 126.652 80.1637 126.652 80.1919 126.624C80.2201 126.596 80.2201 126.567 80.2201 126.539C80.1919 126.032 80.1919 125.157 80.1919 124.65C80.1919 123.775 80.2201 123.155 80.3047 122.365C80.3047 122.337 80.3047 122.281 80.2765 122.253C80.2483 122.224 80.2201 122.224 80.1637 122.224C79.9662 122.253 79.797 122.253 79.5996 122.253C79.0073 122.253 78.415 122.14 77.7944 122.027C77.0047 121.886 76.1303 121.717 75.0021 121.717C71.1662 121.717 68.4586 124.311 68.4586 128.034C68.4586 131.954 71.2227 133.815 73.8739 135.648C76.4406 137.397 78.838 139.032 78.838 142.36C78.838 145.491 76.5252 146.901 74.2406 146.901C71.5893 146.901 68.938 145.434 68.938 142.67C68.938 142.445 68.9662 142.191 68.9944 141.937V141.824C68.9944 141.796 68.9944 141.74 68.9662 141.74C68.938 141.712 68.9098 141.712 68.8816 141.712H68.7688C68.7124 141.712 68.6842 141.74 68.656 141.796C68.2611 142.67 68.2329 143.714 68.2329 144.024C68.2329 144.475 68.2893 144.898 68.3175 145.293C68.3739 145.688 68.4021 146.026 68.4021 146.421C68.4021 146.731 68.4021 147.126 68.3739 147.295C68.3739 147.324 68.3739 147.38 68.4021 147.408C68.4303 147.436 68.4586 147.436 68.515 147.436C68.7124 147.408 68.797 147.408 69.0227 147.408C69.7842 147.408 70.4047 147.549 71.0534 147.69C71.8432 147.859 72.7457 148.057 74.015 148.057C78.3303 148.057 81.3483 145.124 81.3483 140.894C81.3201 136.579 78.4714 134.661 75.7355 132.772Z" fill="#FB4848"/>
<path d="M124.108 135.111C124.108 142.387 120.497 146.9 114.687 146.9C108.933 146.9 105.521 142.416 105.521 134.886C105.521 129.274 107.918 122.703 114.687 122.703C119.059 122.703 124.108 125.946 124.108 135.111ZM114.997 121.688C106.874 121.688 102.051 128.456 102.051 134.999C102.051 141.372 106.79 147.943 114.715 147.943C121.936 147.943 127.605 142.218 127.605 134.886C127.577 127.497 122.049 121.688 114.997 121.688Z" fill="#FB4848"/>
<path d="M142.807 129.444C142.807 131.954 142.13 135.31 136.377 135.31H134.769V123.127C135.784 122.845 136.461 122.788 137.251 122.788C140.607 122.817 142.807 125.411 142.807 129.444ZM149.915 147.493C147.828 146.788 145.402 142.445 143.625 139.286C142.61 137.481 141.82 136.043 141.228 135.479C144.246 134.295 146.051 131.897 146.051 128.993C146.051 124.593 142.666 121.745 137.42 121.745C137.053 121.745 136.461 121.773 135.812 121.773C135.079 121.801 134.261 121.801 133.669 121.801C132.089 121.801 131.441 121.801 130.228 121.717C130.2 121.717 130.171 121.717 130.143 121.745C130.115 121.773 130.115 121.801 130.115 121.83V121.999C130.115 122.055 130.171 122.112 130.228 122.112C131.441 122.309 131.864 122.788 131.864 125.242V144.419C131.864 147.267 131.412 147.352 130.171 147.549C130.115 147.549 130.059 147.606 130.059 147.662V147.831C130.059 147.859 130.059 147.888 130.087 147.916C130.115 147.944 130.143 147.944 130.171 147.944C130.905 147.916 131.92 147.859 133.302 147.859C134.769 147.859 135.982 147.916 136.433 147.944C136.461 147.944 136.489 147.944 136.518 147.916C136.546 147.888 136.546 147.859 136.546 147.831V147.662C136.546 147.606 136.489 147.549 136.433 147.549C135.192 147.352 134.741 147.267 134.741 144.419V136.325H136.912C137.307 136.325 137.815 136.269 138.379 136.184C139 136.776 139.733 138.158 140.184 139.004C140.269 139.173 140.353 139.343 140.438 139.455C144.669 147.38 145.12 147.859 148.928 148C149.351 148 149.52 148 149.83 147.972C149.887 147.972 149.943 147.916 149.943 147.859V147.634C150 147.577 149.971 147.521 149.915 147.493Z" fill="#FB4848"/>
<path d="M102.305 121.688C102.277 121.66 102.248 121.632 102.192 121.632C100.5 121.66 91.5869 121.801 83.6049 121.632C83.5485 121.632 83.4921 121.66 83.4921 121.716C83.3228 122.365 83.1818 122.929 83.0126 123.465C82.8151 124.142 82.6459 124.762 82.5049 125.411C82.5049 125.439 82.5049 125.495 82.5331 125.524C82.5613 125.552 82.5895 125.58 82.6177 125.58H82.7869C82.8433 125.58 82.8715 125.552 82.8998 125.495C83.9433 123.296 85.6075 123.268 91.0792 123.268V144.362C91.0792 147.21 90.628 147.295 89.3869 147.492C89.3305 147.492 89.2741 147.549 89.2741 147.605V147.775C89.2741 147.803 89.2741 147.831 89.3023 147.859C89.3305 147.887 89.3587 147.887 89.3869 147.887C90.0921 147.859 91.1075 147.803 92.4895 147.803C93.9562 147.803 95.1408 147.859 95.5921 147.887C95.6203 147.887 95.6485 147.887 95.6767 147.859C95.7049 147.831 95.7049 147.803 95.7049 147.775V147.605C95.7049 147.549 95.6485 147.492 95.5921 147.492C94.3792 147.295 93.8998 147.21 93.8998 144.362V123.268C100.19 123.268 101.036 123.521 101.036 124.48C101.036 124.649 101.007 124.875 100.979 124.988C100.979 125.016 100.979 125.072 101.007 125.101C101.036 125.129 101.064 125.157 101.092 125.157H101.318C101.374 125.157 101.431 125.101 101.431 125.044C101.543 124.48 101.938 122.76 102.248 121.801C102.333 121.773 102.333 121.716 102.305 121.688Z" fill="#FB4848"/>
<path d="M65.2151 121.66C64.51 121.688 63.1279 121.717 61.9433 121.717C60.6741 121.717 59.2638 121.688 58.5305 121.66C58.5023 121.66 58.4741 121.66 58.4459 121.688C58.4177 121.717 58.4177 121.745 58.4177 121.773V121.942C58.4177 121.999 58.4741 122.055 58.5305 122.055C59.7715 122.252 60.5895 122.393 60.5895 125.073V140.668C60.5895 143.601 59.1792 146.788 56.9228 146.788C56.4997 146.788 56.1049 146.759 55.7382 146.703C54.1587 146.308 53.1715 145.208 52.5792 144.419C52.4946 144.306 52.41 144.193 52.3536 144.08C51.7049 143.093 51.3946 142.247 51.3946 142.219C51.3664 142.134 51.2818 142.106 51.1972 142.106C51.1126 142.134 51.0562 142.191 51.0562 142.304L51.592 146.393C51.592 146.449 51.6203 146.506 51.6767 146.534C53.1715 147.493 55.0049 147.775 55.3433 147.803C55.9356 147.887 56.4151 147.916 56.6972 147.916C56.9228 147.916 57.0638 147.916 57.0638 147.916C60.8433 147.916 63.3818 144.842 63.3818 140.273V125.073C63.3818 122.45 64.0023 122.337 65.2433 122.055L65.2997 122.027C65.3562 122.027 65.3844 121.97 65.3844 121.914V121.745C65.3844 121.717 65.3844 121.688 65.3562 121.66C65.2715 121.66 65.2433 121.66 65.2151 121.66Z" fill="#FB4848"/>
<path d="M142.977 55.7251C142.13 56.2891 141.228 56.3737 141.2 56.3737C141.171 56.3737 141.143 56.4019 141.143 56.4301C141.143 56.4583 141.143 56.4865 141.171 56.5147C141.2 56.5429 143.484 58.517 143.71 61.1962C143.964 63.9317 143.541 65.4546 142.159 66.7518C141.059 67.7953 139.451 67.9363 138.859 67.7953C138.718 67.7671 138.689 67.7389 138.689 67.7107C138.605 67.3723 139.112 67.0056 139.733 66.5826C139.874 66.498 140.015 66.3852 140.156 66.3006C140.946 65.7366 141.369 64.8059 141.115 64.2983C141.03 64.1291 140.889 64.1009 140.72 64.1009C140.579 64.1009 140.438 64.1573 140.269 64.2137C139.959 64.2983 139.62 64.4111 139.451 64.2137C139.253 64.0163 139.338 63.8471 139.507 63.5087C139.648 63.2267 139.818 62.8882 139.846 62.4088C139.93 61.3654 139.789 58.6298 138.323 58.3196C138.266 58.3196 138.21 58.3196 138.153 58.3478C138.012 58.4606 138.012 58.799 138.012 59.3349C138.012 60.0399 137.984 60.9705 137.589 61.591C136.969 62.5498 135.982 63.2831 135.53 63.2831C135.418 63.2831 135.361 63.2549 135.305 63.1985C135.248 63.1138 135.277 62.8882 135.361 62.5498C135.53 61.7602 135.812 60.2937 135.389 57.5582C135.248 56.5993 134.656 55.5559 134.12 54.5688C133.584 53.61 133.077 52.6793 132.964 51.8897C132.766 50.4232 132.936 49.8028 133.753 49.1824C134.233 48.8158 134.318 48.4773 134.318 48.2517C134.318 48.0261 134.205 47.6031 133.81 47.4621C133.782 47.4621 133.782 47.4621 133.753 47.4339C133.556 47.3775 133.218 47.3493 132.851 47.3493C131.3 47.3775 127.661 47.4057 125.095 43.9087C123.007 41.0886 122.866 38.4376 123.261 35.3073V35.2791C123.261 35.2227 123.036 34.0664 122.048 33.164C121.569 32.741 121.089 32.4872 120.751 32.3179C120.553 32.2051 120.328 32.1205 120.328 32.0359C120.328 32.0359 120.328 31.9795 120.384 31.9513C120.638 31.6975 121.512 31.3309 122.725 31.5001C123.628 31.6411 124.277 32.0077 124.277 32.0077C124.305 32.0359 124.333 32.0077 124.361 31.9795C124.389 31.9513 126.759 29.1594 130.707 29.4696C133.077 29.6388 135.333 31.9513 135.389 34.4612C135.446 36.9712 134.289 38.2966 133.274 38.6351C132.456 38.9171 131.694 38.8889 131.243 38.5786C131.046 38.4376 130.905 38.2402 130.905 38.0146C130.905 37.8172 131.074 37.7044 131.412 37.5352C131.977 37.2532 132.851 36.802 132.964 35.2227C133.02 34.4048 132.738 33.587 132.202 33.023C131.836 32.6282 131.187 32.1487 130.115 32.2051C128.733 32.2615 127.605 32.7974 126.843 33.7844C125.884 35.0253 125.546 36.9712 125.912 39.1991C126.448 42.4422 129.579 44.6983 133.02 44.3317C135.051 44.1343 136.941 42.9781 138.379 41.1168C139.733 39.3683 140.523 37.1122 140.551 34.9407C140.607 29.526 137.477 23.9421 130.312 23.6601C123.459 23.4063 119.2 27.6647 117.253 30.2028C116.041 31.7821 114.771 34.7997 113.841 37.2532C114.264 37.1686 115.589 36.9994 116.774 37.5916C117.987 38.1838 119.397 39.6503 119.143 40.2707C119.087 40.4399 118.72 40.3553 118.184 40.2143C117.479 40.0169 116.492 40.0733 115.392 40.2425C113.502 40.4963 112.741 40.863 112.515 41.0604L112.628 40.722C112.571 40.9194 112.515 41.0604 112.515 41.0604L109.948 39.4811C110.315 37.8736 111.951 31.1335 116.041 26.7059C120.243 22.1654 125.292 20.6708 129.748 20.6426C132.174 20.6144 134.402 20.981 136.236 21.404C136.461 21.4604 136.659 21.4886 136.856 21.545C138.605 21.9398 140.438 22.3065 141.736 21.968C142.441 21.7988 143.033 21.5168 143.484 21.2912C143.766 21.1502 144.048 21.0092 144.105 21.0374C144.105 21.0374 144.133 21.0656 144.133 21.0938C144.189 21.3758 143.936 22.2783 143.118 23.3781C142.61 24.0831 141.961 24.478 141.51 24.7882C141.087 25.042 140.805 25.2394 140.805 25.5214C140.805 25.6624 140.946 25.9162 141.2 26.3675C141.989 27.7775 143.625 30.7387 143.428 34.9125C143.118 41.3142 140.071 44.0497 138.041 45.8828L137.787 46.1084H137.759C136.405 47.6595 136.574 49.0978 136.969 50.0002C137.561 51.3821 138.859 52.5383 140.523 53.1306C141.482 53.469 142.525 53.5818 143.287 53.6664C143.851 53.7228 144.415 53.7792 144.471 53.9202C144.669 54.3714 144.133 54.9919 142.977 55.7251ZM143.23 77.8632C142.61 81.5011 140.551 83.0522 138.802 83.2778C138.661 83.306 138.52 83.306 138.407 83.306C137.9 83.306 137.505 83.165 137.392 82.9394C137.364 82.8548 137.336 82.7702 137.364 82.6856C137.42 82.5446 137.618 82.46 137.9 82.3754C138.238 82.2626 138.718 82.0652 139.225 81.6704C140.72 80.4859 140.636 79.9783 140.579 79.5835C140.579 79.5271 140.551 79.4988 140.523 79.4988C140.438 79.4424 140.212 79.5553 139.959 79.6963L139.846 79.7527C139.507 79.9219 139.197 79.9501 138.943 79.8373C138.802 79.7527 138.718 79.6399 138.689 79.4988C138.661 79.3296 138.859 79.1604 139.084 78.9348C139.282 78.7656 139.507 78.5682 139.648 78.3426C140.41 77.1581 140.551 75.7199 139.959 74.5918C139.536 73.7458 138.915 72.9561 137.082 72.7869C137.053 72.7869 136.997 72.7869 136.969 72.7869H136.912C136.687 72.7869 136.433 72.8151 136.151 72.8715C134.12 73.2663 132.766 74.62 131.864 76.0583C131.864 76.0865 131.836 76.1147 131.836 76.1147C130.594 77.9478 130.284 80.7679 130.2 81.3037V81.3319C129.805 83.8983 128.959 87.7055 123.571 94.3892C122.951 95.1506 122.471 96.2505 122.782 97.4913C123.346 99.6346 125.405 99.832 125.377 100.058C125.348 100.368 124.925 100.368 124.164 100.311C123.402 100.255 123.12 100.001 123.12 100.001C123.12 100.001 122.923 100.481 124.192 101.411C125.151 102.116 126.251 102.088 126.279 102.398C126.307 102.765 120.328 104.147 119.961 98.1118C119.961 97.9707 119.933 97.8297 119.933 97.6887C113.474 103.611 111.584 103.893 111.105 103.273C110.879 102.962 111.5 103.047 112.741 101.637C114.01 100.199 114.038 99.55 114.038 99.55C114.038 99.55 111.528 100.904 108.594 100.65C105.605 100.368 103.094 98.281 103.32 97.4631C103.489 96.7581 105.266 97.9707 107.41 97.6323C109.384 97.3221 109.553 96.5325 109.553 96.5325C109.553 96.5325 109.159 96.5325 108.51 95.8556C107.861 95.1788 106.902 94.6148 107.438 94.0508C107.748 93.7123 109.243 94.3892 110.71 94.4174C112.571 94.4174 113.756 93.9944 113.756 93.9944C113.756 93.9944 112.994 93.7123 112.205 92.9509C111.415 92.1613 111.246 91.3716 111.471 91.1742C111.612 91.0614 111.923 91.6818 112.966 91.6818C114.179 91.6536 114.32 91.3716 114.32 91.3716C114.32 91.3716 113.812 90.8922 113.559 90.441C113.333 89.9616 112.6 88.6079 113.051 88.1003C113.192 87.9311 114.574 89.6231 116.605 89.8205C120.102 90.1308 123.938 87.367 123.938 87.367C123.938 87.367 122.048 89.6796 118.043 93.1483C115.477 95.348 112.233 97.1529 112.43 97.5759C112.656 98.0836 115.194 97.4913 119.594 93.8251C121.005 92.6407 121.907 91.8792 123.825 89.5103C127.21 85.3365 127.971 80.7679 127.295 77.1017C127.012 75.6635 126.646 74.3662 126.195 73.2663C124.305 69.2053 122.274 67.203 118.889 65.9058C115.871 64.7495 113.559 65.793 112.148 66.4416C111.443 66.78 110.964 66.9774 110.766 66.6954C110.146 65.8212 111.387 64.6367 112.487 63.5933C113.897 62.2678 114.828 61.732 115.082 61.6192C114.828 61.5064 113.925 61.0551 113.051 60.9987C112.6 60.9705 112.092 61.0551 111.641 61.1116C110.936 61.2244 110.371 61.309 110.287 60.9423C110.146 60.2373 113.023 58.9682 114.574 58.4606C116.153 57.953 117.423 57.8684 117.648 57.8684C117.62 57.53 117.366 54.879 117.648 51.0155C117.789 48.985 118.184 47.5749 118.466 46.757C118.833 45.7136 119.256 45.0086 119.623 44.783C119.764 44.6983 119.933 44.6983 120.046 44.7548C120.3 44.8958 120.3 45.4316 120.3 46.2212C120.3 46.7006 120.3 47.3211 120.356 47.9697C120.525 49.9156 121.146 50.9873 121.512 51.2129C121.569 51.2411 121.625 51.2693 121.653 51.2411C121.795 51.1847 121.823 50.9309 121.879 50.5924C121.964 50.1412 122.048 49.4926 122.443 48.7029C123.064 47.3775 124.305 45.8264 124.728 45.9392C124.841 45.9674 124.869 46.1084 124.869 46.3058C124.841 46.9263 124.728 47.4621 124.643 48.0261C124.446 49.2106 124.22 50.536 124.361 53.0178C124.53 56.6557 126.223 57.1352 126.448 57.1916C126.561 56.9941 127.379 55.5841 128.564 54.315C128.818 54.0612 129.043 53.7792 129.297 53.5254C130.03 52.6793 130.623 52.0307 131.046 52.0307H131.074C131.187 52.0307 131.3 52.1153 131.356 52.2281C131.497 52.4537 131.271 53.046 130.877 54.0048C130.341 55.3303 129.523 57.3326 129.156 59.7861C128.479 64.4957 129.156 69.0643 129.184 69.0925L129.241 69.431L129.128 69.1207C129.128 69.1207 128.733 67.9927 127.069 65.5674C126.336 64.4675 125.743 63.8189 125.179 63.1985C124.474 62.4088 123.797 61.6756 122.866 60.0963C121.795 58.2914 121.512 56.9377 121.343 56.0353C121.202 55.2739 121.118 54.9072 120.695 54.8508C120.638 54.8508 120.61 54.879 120.553 54.9354C120.187 55.5277 120.384 58.8272 121.4 60.7731C121.936 61.8166 122.584 62.6626 123.318 63.6215C124.079 64.6085 124.925 65.7084 125.969 67.4005C127.859 70.4744 128.789 72.7305 129.241 74.0842C129.353 74.4226 129.438 74.7046 129.523 74.9584C129.748 74.5072 130.115 73.9714 130.228 73.8586C133.556 70.1924 136.461 69.9386 138.464 70.418H138.492C139.93 70.7282 141.228 71.5743 142.13 72.8433C143.061 74.3098 143.512 76.1711 143.23 77.8632ZM142.497 96.3351C142.497 96.3633 142.469 96.3915 142.469 96.4479C141.736 99.0424 140.156 100.819 137.956 101.468C137.279 101.665 136.63 101.778 136.038 101.778C134.571 101.778 133.33 101.214 132.005 100.368C131.92 100.34 131.187 100.227 130.425 100.65C130.03 100.875 129.777 101.129 129.579 101.327C129.41 101.496 129.297 101.609 129.184 101.581C129.156 101.581 129.1 101.524 129.071 101.468C128.959 101.186 128.959 100.424 129.438 99.5782C129.72 99.0424 130.059 98.704 130.171 98.6194C130.03 98.281 129.071 95.9402 130.284 93.3457C131.102 91.5972 133.246 90.6666 134.882 91.3434C136.518 92.0203 137.025 93.2893 136.969 94.1354C136.912 94.8404 136.659 95.4326 136.32 95.6864C136.151 95.7992 135.953 95.8274 135.812 95.771C135.615 95.6864 135.587 95.4608 135.587 95.1788C135.559 94.6994 135.53 94.0226 134.628 93.5149C134.177 93.2611 133.641 93.2329 133.189 93.4303C132.851 93.5713 132.4 93.9098 132.146 94.643C131.807 95.63 131.836 96.5889 132.259 97.3785C132.766 98.3656 133.838 99.0988 135.277 99.4372C137.392 99.9448 139.592 98.3656 140.297 95.8556C140.494 95.0942 140.607 94.22 140.325 93.2893C139.761 91.428 138.492 89.7359 135.418 88.2413C134.374 87.7337 132.202 86.7748 131.356 86.38C131.836 85.0263 131.892 84.6033 132.033 84.1239C132.315 83.6727 133.105 82.9394 133.866 82.742C134.741 82.5446 135.784 82.9676 135.756 83.1368C135.728 83.306 134.571 83.5881 133.923 85.0827C134.177 85.1955 136.348 85.7878 138.21 87.0004C141.341 89.0309 142.215 91.1742 142.469 92.1331C142.92 93.7123 142.836 95.1788 142.497 96.3351ZM112.148 46.6724C110.259 44.924 108.736 44.4727 108.736 44.4727V41.1732C109.638 41.6244 111.725 42.7243 112.91 43.7113C114.094 44.6983 114.997 45.6572 115.73 46.475L115.223 49.8028C114.348 48.8722 113.248 47.6877 112.148 46.6724ZM109.751 52.6511C109.215 48.8722 109.441 47.1237 109.441 47.1237C110.287 47.4057 111.725 48.8439 112.205 49.3516C112.205 49.3516 112.092 49.8592 112.459 52.1717C112.712 53.9202 113.248 55.5277 113.446 56.2045L110.794 57.4454C110.541 56.5993 110.033 54.6816 109.751 52.6511ZM111.753 75.2968C112.064 77.8068 114.151 80.1757 117.084 79.8655C118.353 79.7245 119.256 79.1322 119.877 78.4836L119.707 78.2862C119.312 77.9196 117.93 76.6223 116.802 75.184C115.702 73.774 115.166 73.0125 115.053 72.8715L114.743 72.4203C114.771 72.3921 115.138 72.1383 116.238 72.1665C117.451 72.2229 118.607 73.1535 118.946 73.4356C118.946 73.4356 119.51 74.056 121.315 75.9455C123.459 78.1734 125.01 79.245 125.264 79.4142C125.264 80.0629 125.094 81.3037 124.841 82.178C123.853 81.6422 122.556 80.5705 121.936 80.0629C121.851 79.9783 121.766 79.9219 121.71 79.8937C120.92 80.8525 119.764 81.7832 118.015 82.2626C117.62 82.3754 117.169 82.4318 116.746 82.4036C112.91 82.2908 110.343 79.4424 109.723 76.6505C109.497 75.6071 109.582 74.2816 109.61 73.3792C109.638 72.5895 109.694 71.8845 109.497 71.3769C109.3 70.7846 109.018 70.418 108.82 70.1642C108.651 69.9104 108.51 69.7694 108.651 69.6284C108.848 69.3746 109.525 69.5438 110.146 69.9668C110.541 70.2206 110.71 70.5308 110.766 70.7C111.133 70.136 112.91 67.7107 115.984 67.5979C117.028 67.5697 117.959 67.7953 118.664 68.2465C119.256 68.6131 119.651 69.1489 119.82 69.6848C119.933 70.1078 119.933 70.4462 119.651 70.5872C119.51 70.6718 119.171 70.5308 118.72 70.3052C118.071 69.995 117.056 69.6566 115.871 69.7976C114.912 69.9104 113.559 70.559 112.628 71.7999C111.895 72.7587 111.584 73.9996 111.753 75.2968ZM98.9766 97.9144C95.3663 101.186 92.574 102.004 89.1612 102.568C85.3817 103.216 78.1612 102.201 78.1612 102.201L74.4381 90.1872C74.4381 90.1872 78.3022 93.8251 80.333 95.4326C82.3637 97.0401 84.2535 97.9144 87.1304 97.9144C90.0073 97.9144 91.9535 97.1811 94.0689 94.925C96.1842 92.6689 96.974 89.7642 97.5099 86.3236C97.8765 83.8419 97.7073 76.9889 97.7073 75.4096L98.2432 38.1838C98.2432 38.1838 98.4971 30.1464 97.933 28.1441C97.3689 26.1136 96.156 24.6472 95.4227 23.8857C93.815 22.1936 90.374 21.6578 90.374 21.6578C89.3868 21.4886 89.1612 21.0092 89.2458 20.5298C89.3586 19.8247 89.9791 19.7119 89.9791 19.7119L114.292 19.7683C114.292 19.7683 114.884 19.8247 114.997 20.558C115.082 21.0374 114.856 21.5168 113.869 21.686C113.869 21.686 110.456 22.2501 108.82 23.9139C108.087 24.6754 106.874 26.1418 106.31 28.1723C105.746 30.2028 106 38.212 106 38.212V75.5225C106 75.5225 106.084 82.7138 105.153 86.4928C104.477 89.1155 102.982 94.3046 98.9766 97.9144ZM71.7586 95.9967C70.433 98.7886 68.233 101.27 67.8099 100.875C67.4714 100.537 67.8945 100.255 68.1201 99.4372C68.3458 98.5912 68.4022 98.422 68.4022 98.422C68.4022 98.422 67.8099 99.268 65.6945 100.593C63.5791 101.919 63.2124 102.004 62.8458 101.496C62.6201 101.158 63.156 100.791 63.6637 99.9166C64.1432 99.0706 64.0022 99.0988 64.0022 99.0988C64.0022 99.0988 62.1971 98.9296 60.7304 98.281C59.2637 97.6323 57.7124 96.1095 57.7407 95.7992C57.7971 95.4044 58.4176 95.1788 59.5176 94.6148C60.7022 94.0226 61.5201 93.2611 61.5201 93.2611C61.5201 93.2611 60.7304 93.0637 60.2791 92.8663C59.574 92.5279 58.8689 92.1895 59.2919 91.7383C59.6868 91.3716 61.5765 92.6407 64.4817 89.9052C67.0483 87.4798 67.0483 83.9265 67.0483 83.9265C67.0483 83.9265 68.2894 88.0721 66.6535 91.3716C64.6227 95.4326 60.815 95.4608 61.2381 96.3069C61.7458 97.3503 66.3996 96.4197 68.4022 91.5408C70.0663 87.4798 68.3176 82.319 67.0483 79.245C66.6817 78.3708 66.2022 77.1863 65.8919 76.2557C67.0483 76.7915 68.0073 77.0453 68.9381 77.1581C68.9381 77.1581 68.9381 77.1581 68.9381 77.1863C68.9663 77.1863 69.1073 77.4401 69.1073 77.4401C70.2355 79.245 71.9842 79.8655 72.915 80.2321C73.7894 80.5705 74.7483 80.7397 75.7073 80.7397C76.5253 80.7397 77.3714 80.6269 78.133 80.3167C78.6406 80.1193 79.1201 79.8655 79.4868 79.4706C80.615 78.258 80.8971 74.5354 81.4048 74.2534C81.6304 74.1124 82.1945 75.043 82.4201 75.7199C82.6458 76.4249 82.533 77.1017 82.956 77.2709C83.2663 77.3837 83.4355 77.0453 84.0842 76.3121C84.9868 75.2686 84.8458 74.8456 85.2971 75.0148C85.7483 75.184 85.2689 77.4966 85.0432 78.7374C84.8176 80.0065 84.2253 81.8396 84.2253 81.8396C84.2253 81.8396 85.7201 80.8525 87.1304 80.2321C91.0509 78.4836 92.574 79.0194 92.6022 79.4988C92.6304 79.9783 91.6996 80.0629 90.6842 81.2755C89.9509 82.1498 90.1201 82.3754 90.1201 82.3754C90.1201 82.3754 90.7124 82.4036 92.3483 81.9242C93.5048 81.5857 94.5201 81.0499 94.8304 81.5294C95.1689 82.0088 93.6458 84.0675 91.3048 85.6749C88.9637 87.2824 87.074 87.9029 87.074 87.9029C87.074 87.9029 87.5253 88.3823 88.6817 88.5797C89.8381 88.7771 90.2894 88.6079 90.4022 88.9463C90.5432 89.3975 89.2458 89.7924 87.074 90.018C83.9714 90.3282 82.3637 88.9745 82.3637 88.9745C82.3637 88.9745 82.7586 90.1026 82.3073 91.2306C81.8278 92.3869 81.715 93.4585 81.2637 93.3739C80.8124 93.3175 81.3483 92.2177 80.474 91.146C79.5432 89.9898 78.4714 89.736 76.8919 88.4951C75.3407 87.3106 75.2842 86.3518 75.2842 86.3518C75.2842 86.3518 77.9919 87.367 82.4201 86.662C86.6791 85.9852 88.0048 84.7161 87.6945 84.2367C87.4124 83.8137 86.7073 84.3495 84.7048 84.8289C82.3637 85.3647 79.1765 85.2237 75.6509 84.6315C74.4099 84.4341 72.7176 83.8419 71.1945 82.8266C71.7868 84.0111 72.774 86.1262 72.9996 87.649C73.4227 90.2436 73.0842 93.1765 71.7586 95.9967ZM69.0227 57.7838C69.1919 56.6275 69.8689 55.3867 70.2637 54.8508C71.815 54.5688 72.8022 55.4149 72.9432 55.5559C72.0971 57.1916 71.5612 58.9964 71.0817 60.8013C70.5176 60.5757 69.6996 59.7579 69.0227 57.7838ZM69.3894 69.995C68.5996 69.9104 66.5689 68.5567 66.456 68.2183C66.456 67.5133 66.6253 65.934 66.9073 65.0033C67.9227 66.78 69.5868 67.5415 69.5868 67.5415C69.3048 68.6695 69.3894 69.995 69.3894 69.995ZM61.0689 54.3432C61.2663 53.7792 61.4355 53.3844 61.6048 53.046C61.9432 52.2845 62.1407 51.8333 62.1971 50.7898C62.2817 49.5772 61.915 48.6465 61.6894 48.3927C61.9996 48.4209 62.9586 48.8439 63.3253 49.6336C63.6355 50.2822 64.0868 51.9743 64.0304 52.2563C64.0022 52.3127 64.0586 52.3409 64.0586 52.3691C64.115 52.3973 64.1714 52.3691 64.3971 52.1999C65.0458 51.7205 67.0201 50.2258 70.5176 50.1976H70.574C77.0048 50.1976 79.8253 56.1481 79.8535 56.2045L79.8817 56.2327H79.9099C79.9381 56.2327 80.7842 56.4865 82.5048 55.7533C83.1817 55.4713 83.5765 55.1047 83.9714 54.7662C84.6201 54.2022 85.1842 53.6946 86.7355 53.6664C88.315 53.61 89.4996 54.5124 89.6971 55.1329C89.7535 55.2739 89.7535 55.4995 89.5842 55.6123C89.3586 55.7815 89.3022 55.7533 89.1612 55.6969C88.9355 55.5841 88.5689 55.4149 87.4124 55.6123C86.4253 55.7533 85.974 56.6839 85.4945 57.6428C84.9586 58.6862 84.4227 59.7579 83.1817 60.0681C82.0535 60.3783 80.7278 59.5887 80.474 59.1939C80.4176 59.0811 80.3048 58.94 80.1637 58.9682C80.0509 58.9964 79.9945 59.1657 79.9945 59.2221C79.9945 59.2221 79.9663 60.2091 79.3458 61.9294C78.7817 63.5087 76.1868 67.2877 71.0817 65.9058C67.9509 65.0597 66.7381 62.1268 66.8791 60.3219C66.9355 59.7297 67.1048 59.3349 67.3868 59.3067C67.6124 59.2785 67.8099 59.4477 67.8663 59.6169C68.0919 60.2937 68.3458 60.9705 68.7124 61.5346C69.2201 62.3242 70.1509 63.2831 71.2791 63.5369C73.8176 64.1009 75.3689 62.8036 75.6509 62.5216C76.6099 61.6192 77.1458 60.1245 77.0612 58.517C76.9483 56.4583 75.8765 55.1611 74.974 54.4278C73.8458 53.4972 72.3791 52.9332 70.9406 52.9049C70.9124 52.9049 70.856 52.9049 70.8278 52.9049C68.9663 52.9049 67.0765 53.6664 65.6099 54.9636C63.7483 56.6275 62.6765 59.1093 62.4509 62.1268C62.2535 64.7213 63.3253 67.5979 65.215 69.6566C66.6817 71.264 68.515 72.1383 70.3483 72.1665C70.3765 72.1665 70.4048 72.1665 70.4612 72.1665C75.3124 72.1665 78.4432 69.1771 81.7432 66.0186C84.8458 63.0574 88.033 60.0117 93.0535 58.6016C93.4201 58.4888 95.1407 58.3478 95.5073 58.3196L95.4227 61.0551C92.6022 61.591 88.6817 63.3959 88.8791 65.3418C89.0765 67.2595 90.3176 68.3029 90.9099 68.8105C91.0509 68.9233 91.1919 69.0361 91.1919 69.0643C91.1919 69.0925 91.1355 69.1207 90.9381 69.2053C90.4022 69.4028 89.1612 69.5438 88.2022 69.0925C86.9048 68.5003 85.6355 66.3852 85.6073 66.357L85.5509 66.2724L85.4945 66.357C85.4663 66.3852 81.6304 70.418 79.5432 71.9409C78.1894 72.9279 74.6073 75.5507 70.3765 75.3532C67.4432 75.2122 64.7355 73.8868 62.7612 71.6025C60.674 69.2053 59.5458 65.8776 59.574 62.2678C59.574 58.9682 59.9407 57.4736 61.0689 54.3432ZM70.433 19.7683C70.4612 19.7683 73.4509 19.5145 76.2996 20.6426C77.5406 21.1502 78.4432 21.7706 79.233 22.3347H79.2612C80.4458 23.1525 81.3483 23.8293 82.674 23.4063C84.1689 22.9551 84.4791 21.7706 84.6765 20.981C84.733 20.7836 84.8176 20.4452 84.874 20.417C84.9304 20.3888 85.2124 20.5016 85.4381 20.8682C85.7201 21.2912 86.4535 22.8705 84.4791 25.747C83.3791 27.3263 81.6022 27.6647 81.5176 27.6647C81.433 27.6647 81.3765 27.7211 81.3201 27.7775C81.2919 27.8339 81.2637 27.9185 81.2919 28.0031C81.4048 28.398 81.4048 28.7082 81.433 28.9902C81.5176 29.9772 81.4048 30.9361 80.756 32.5436C79.7407 34.9971 77.7099 36.4917 75.0304 36.8302C72.4355 37.1404 70.3201 35.6739 69.5586 34.0664C68.8817 32.5718 68.8253 30.8515 69.4458 29.3004C69.5868 28.9056 69.8689 28.5954 70.0945 28.539C70.2073 28.5108 70.2919 28.539 70.3765 28.6236C70.6022 28.7928 70.6022 29.244 70.6304 29.8362C70.6586 30.4285 70.6868 31.1617 70.9406 31.9231C71.3355 33.1076 72.6612 34.2356 74.3535 34.0946C76.9483 33.869 78.4996 32.0359 78.556 29.2158C78.6124 26.2546 76.7227 22.7577 71.1945 22.6167C71.1099 22.6167 71.0535 22.6167 70.9689 22.6167C68.8817 22.6167 66.9637 23.4345 65.4407 24.9574C63.6919 26.7623 62.5637 29.4696 62.5073 32.0641C62.4227 37.1122 65.0458 40.0451 67.2458 41.6244C69.474 43.2037 72.9714 43.3165 77.3432 41.9346C78.8381 41.4552 80.4458 40.8066 81.9971 40.1579H82.0253C83.3509 39.6221 84.7048 39.0581 86.0022 38.5786C86.7637 38.3248 87.5817 38.0992 88.4278 37.9582L88.5407 37.93L88.456 37.8172C88.1176 37.366 87.6945 36.7738 87.1304 36.0123C86.0022 34.433 85.6919 31.5283 86.0586 30.9361C86.2278 30.6823 86.3971 30.6259 86.4817 30.6259C86.5381 30.6259 86.5945 30.6541 86.5945 30.6541C86.5945 30.6823 86.5945 30.8233 86.5945 30.8515C86.5945 30.9925 86.5945 31.6693 86.9048 32.0077C87.2996 32.459 87.8355 32.5436 88.0612 32.4307C88.1458 32.3743 88.2022 32.3179 88.2304 32.2333C88.315 31.9795 88.7099 30.7387 89.3868 29.7234C89.9509 28.8774 91.7278 27.5801 92.7714 27.5801C92.7996 27.5801 92.8278 27.5801 92.856 27.5801C93.1381 27.6083 93.3355 27.7211 93.4483 27.9467C93.5894 28.2287 93.1381 28.7082 92.9971 28.8492C92.0945 29.808 91.0227 31.2181 90.9381 33.5588C90.9099 34.6587 91.2201 35.5611 91.8689 36.2661C93.1099 37.5916 95.2535 37.7608 95.6765 37.7608V40.1861C95.6201 40.1861 95.5355 40.1861 95.4791 40.1861C93.3637 40.1861 91.6714 42.7525 91.1073 45.3752C90.6278 47.5185 91.0509 50.536 91.2201 51.4385C91.3894 52.2563 91.2483 52.4537 91.1919 52.4819C91.1637 52.5101 91.1355 52.5101 91.0509 52.5101C90.5996 52.4255 89.7817 51.4667 88.8791 50.0002C88.2022 48.9286 88.3996 47.5749 88.5124 46.8417C88.5689 46.4468 88.5971 46.2776 88.456 46.1648L88.4278 46.1366C88.3432 46.052 88.2022 45.9674 88.033 45.9674C88.033 45.9674 88.033 45.9674 88.0048 45.9674C87.8073 45.9674 87.5817 46.1084 87.3278 46.3622C87.1304 46.5878 87.0176 46.7288 86.9612 46.8417C86.8483 47.0109 86.8483 47.0109 86.5663 46.8981C86.5663 46.8981 86.5381 46.8981 86.5099 46.8417C86.3124 46.3058 86.9048 44.4445 87.6663 43.1473C88.2586 42.1038 88.9073 41.3424 89.8099 40.6374L90.0637 40.4399L89.7253 40.5245C86.6509 41.2296 83.5765 42.4422 81.6868 43.7395C79.2612 45.3752 77.2868 47.3211 75.8483 49.4926C75.5945 49.3234 75.3407 49.2106 74.7201 48.9286C74.3253 48.7593 73.733 48.5619 73.2817 48.5055C73.874 47.6877 74.9176 46.5878 75.3407 46.1366L75.3689 46.1084C75.4253 46.0238 75.4253 45.8828 75.3407 45.7982C75.256 45.7136 75.1432 45.6854 75.0304 45.7136C74.9176 45.77 72.1817 46.8134 67.3586 45.0086C63.4381 43.5421 59.3483 39.2837 59.574 31.7821C59.856 24.1113 65.215 20.2196 70.433 19.7683ZM53.5381 108.828H149.238V13H53.5381V108.828Z" fill="#EB5757"/>
<rect x="28" y="149" width="200" height="2" transform="rotate(-45 28 149)" fill="black"/>
</svg>
