<svg width="213" height="109" viewBox="0 0 213 109" fill="none" xmlns="http://www.w3.org/2000/svg">
<rect x="213" width="109" height="213" transform="rotate(90 213 0)" fill="#EAE8E1"/>
<path d="M20.4229 36.6191C19.8838 36.2493 19.3756 35.8983 19.3756 35.2088C19.3756 34.8014 19.6111 34.3689 20.2742 34.3689C20.8444 34.3689 21.2038 34.6698 21.3154 35.2339C21.3154 35.2464 21.3278 35.259 21.3402 35.259H21.3835C21.3897 35.259 21.3959 35.259 21.4021 35.2527C21.4083 35.2464 21.4083 35.2402 21.4083 35.2339C21.4021 35.1211 21.4021 34.9268 21.4021 34.814C21.4021 34.6197 21.4083 34.4818 21.4269 34.3063C21.4269 34.3 21.4269 34.2875 21.4207 34.2812C21.4145 34.2749 21.4083 34.2749 21.3959 34.2749C21.3525 34.2812 21.3154 34.2812 21.272 34.2812C21.1418 34.2812 21.0117 34.2561 20.8753 34.2311C20.7018 34.1997 20.5097 34.1621 20.2618 34.1621C19.4189 34.1621 18.824 34.7388 18.824 35.5661C18.824 36.4373 19.4313 36.851 20.0139 37.2584C20.5779 37.647 21.1046 38.0106 21.1046 38.7502C21.1046 39.4459 20.5965 39.7593 20.0945 39.7593C19.5119 39.7593 18.9293 39.4334 18.9293 38.8191C18.9293 38.769 18.9355 38.7126 18.9417 38.6562V38.6311C18.9417 38.6248 18.9417 38.6123 18.9355 38.6123C18.9294 38.606 18.9232 38.606 18.917 38.606H18.8922C18.8798 38.606 18.8736 38.6123 18.8674 38.6248C18.7806 38.8191 18.7744 39.051 18.7744 39.12C18.7744 39.2203 18.7868 39.3143 18.793 39.402C18.8054 39.4898 18.8116 39.565 18.8116 39.6527C18.8116 39.7217 18.8116 39.8094 18.8054 39.847C18.8054 39.8533 18.8054 39.8658 18.8116 39.8721C18.8178 39.8784 18.824 39.8784 18.8364 39.8784C18.8798 39.8721 18.8984 39.8721 18.9479 39.8721C19.1153 39.8721 19.2516 39.9035 19.3942 39.9348C19.5677 39.9724 19.766 40.0163 20.0449 40.0163C20.9931 40.0163 21.6562 39.3644 21.6562 38.4242C21.65 37.4653 21.0241 37.039 20.4229 36.6191Z" fill="#990000"/>
<path d="M31.0515 37.1397C31.0515 38.7568 30.2582 39.7597 28.9815 39.7597C27.7173 39.7597 26.9674 38.7631 26.9674 37.0896C26.9674 35.8423 27.4941 34.3819 28.9815 34.3819C29.9421 34.3819 31.0515 35.1027 31.0515 37.1397ZM29.0497 34.1562C27.2648 34.1562 26.2051 35.6605 26.2051 37.1147C26.2051 38.5312 27.2462 39.9916 28.9877 39.9916C30.5743 39.9916 31.82 38.7192 31.82 37.0896C31.8138 35.4474 30.5991 34.1562 29.0497 34.1562Z" fill="#990000"/>
<path d="M35.1601 35.8795C35.1601 36.4373 35.0114 37.1832 33.7471 37.1832H33.3939V34.4755C33.617 34.4128 33.7657 34.4003 33.9392 34.4003C34.6767 34.4066 35.1601 34.9832 35.1601 35.8795ZM36.7219 39.8909C36.2633 39.7342 35.7303 38.769 35.3399 38.067C35.1167 37.6658 34.9432 37.3462 34.8131 37.2208C35.4762 36.9576 35.8728 36.4248 35.8728 35.7792C35.8728 34.8014 35.1291 34.1684 33.9764 34.1684C33.8959 34.1684 33.7657 34.1746 33.6232 34.1746C33.462 34.1809 33.2823 34.1809 33.1522 34.1809C32.8051 34.1809 32.6626 34.1809 32.3961 34.1621C32.3899 34.1621 32.3837 34.1621 32.3775 34.1684C32.3713 34.1746 32.3713 34.1809 32.3713 34.1872V34.2248C32.3713 34.2373 32.3837 34.2499 32.3961 34.2499C32.6626 34.2937 32.7555 34.4003 32.7555 34.9456V39.2077C32.7555 39.8408 32.6564 39.8596 32.3837 39.9034C32.3713 39.9034 32.3589 39.916 32.3589 39.9285V39.9661C32.3589 39.9724 32.3589 39.9787 32.3651 39.9849C32.3713 39.9912 32.3775 39.9912 32.3837 39.9912C32.5448 39.9849 32.7679 39.9724 33.0716 39.9724C33.3939 39.9724 33.6603 39.9849 33.7595 39.9912C33.7657 39.9912 33.7719 39.9912 33.7781 39.9849C33.7843 39.9787 33.7843 39.9724 33.7843 39.9661V39.9285C33.7843 39.916 33.7719 39.9034 33.7595 39.9034C33.4868 39.8596 33.3877 39.8408 33.3877 39.2077V37.4088H33.8649C33.9516 37.4088 34.0632 37.3963 34.1871 37.3775C34.3235 37.5091 34.4846 37.8163 34.5838 38.0043C34.6024 38.0419 34.621 38.0795 34.6395 38.1046C35.5692 39.8658 35.6683 39.9724 36.505 40.0037C36.5979 40.0037 36.6351 40.0037 36.7033 39.9975C36.7157 39.9975 36.7281 39.9849 36.7281 39.9724V39.9223C36.7405 39.9097 36.7343 39.8972 36.7219 39.8909Z" fill="#990000"/>
<path d="M26.2608 34.1561C26.2546 34.1498 26.2484 34.1436 26.236 34.1436C25.8641 34.1498 23.9057 34.1812 22.1519 34.1436C22.1395 34.1436 22.1271 34.1498 22.1271 34.1624C22.0899 34.3065 22.0589 34.4319 22.0217 34.551C21.9783 34.7014 21.9411 34.8393 21.9102 34.9834C21.9102 34.9897 21.9102 35.0022 21.9164 35.0085C21.9226 35.0148 21.9287 35.0211 21.9349 35.0211H21.9721C21.9845 35.0211 21.9907 35.0148 21.9969 35.0022C22.2262 34.5134 22.5919 34.5071 23.7942 34.5071V39.1954C23.7942 39.8285 23.695 39.8473 23.4223 39.8912C23.4099 39.8912 23.3975 39.9037 23.3975 39.9162V39.9538C23.3975 39.9601 23.3975 39.9664 23.4037 39.9726C23.4099 39.9789 23.4161 39.9789 23.4223 39.9789C23.5773 39.9726 23.8004 39.9601 24.1041 39.9601C24.4263 39.9601 24.6866 39.9726 24.7858 39.9789C24.792 39.9789 24.7982 39.9789 24.8044 39.9726C24.8106 39.9664 24.8106 39.9601 24.8106 39.9538V39.9162C24.8106 39.9037 24.7982 39.8912 24.7858 39.8912C24.5193 39.8473 24.4139 39.8285 24.4139 39.1954V34.5071C25.796 34.5071 25.9819 34.5635 25.9819 34.7766C25.9819 34.8142 25.9757 34.8644 25.9695 34.8894C25.9695 34.8957 25.9695 34.9082 25.9757 34.9145C25.9819 34.9208 25.9881 34.927 25.9943 34.927H26.0438C26.0562 34.927 26.0686 34.9145 26.0686 34.902C26.0934 34.7766 26.1802 34.3943 26.2484 34.1812C26.267 34.1749 26.267 34.1624 26.2608 34.1561Z" fill="#990000"/>
<path d="M18.1111 34.1494C17.9562 34.1557 17.6525 34.162 17.3922 34.162C17.1133 34.162 16.8035 34.1557 16.6423 34.1494C16.6361 34.1494 16.6299 34.1494 16.6237 34.1557C16.6175 34.162 16.6175 34.1682 16.6175 34.1745V34.2121C16.6175 34.2246 16.6299 34.2372 16.6423 34.2372C16.915 34.281 17.0947 34.3124 17.0947 34.9078V38.3739C17.0947 39.0258 16.7849 39.7341 16.2891 39.7341C16.1961 39.7341 16.1093 39.7278 16.0288 39.7153C15.6817 39.6275 15.4648 39.3831 15.3347 39.2076C15.3161 39.1825 15.2975 39.1574 15.2851 39.1323C15.1425 38.913 15.0744 38.7249 15.0744 38.7187C15.0682 38.6999 15.0496 38.6936 15.031 38.6936C15.0124 38.6999 15 38.7124 15 38.7375L15.1178 39.6463C15.1178 39.6588 15.1239 39.6714 15.1363 39.6776C15.4648 39.8908 15.8676 39.9534 15.942 39.9597C16.0722 39.9785 16.1775 39.9848 16.2395 39.9848C16.2891 39.9848 16.3201 39.9848 16.3201 39.9848C17.1505 39.9848 17.7083 39.3016 17.7083 38.2862V34.9078C17.7083 34.3249 17.8446 34.2998 18.1173 34.2372L18.1297 34.2309C18.1421 34.2309 18.1483 34.2184 18.1483 34.2058V34.1682C18.1483 34.162 18.1483 34.1557 18.1421 34.1494C18.1235 34.1494 18.1173 34.1494 18.1111 34.1494Z" fill="#990000"/>
<path d="M35.1975 19.4958C35.0116 19.6211 34.8132 19.6399 34.807 19.6399C34.8008 19.6399 34.7947 19.6462 34.7947 19.6525C34.7947 19.6587 34.7947 19.665 34.8008 19.6713C34.807 19.6775 35.309 20.1163 35.3586 20.7117C35.4144 21.3197 35.3214 21.6582 35.0178 21.9465C34.7761 22.1784 34.4228 22.2097 34.2927 22.1784C34.2617 22.1721 34.2555 22.1659 34.2555 22.1596C34.2369 22.0844 34.3484 22.0029 34.4848 21.9089C34.5158 21.8901 34.5468 21.865 34.5777 21.8462C34.7513 21.7209 34.8442 21.514 34.7885 21.4012C34.7699 21.3636 34.7389 21.3573 34.7017 21.3573C34.6707 21.3573 34.6397 21.3699 34.6025 21.3824C34.5344 21.4012 34.46 21.4263 34.4228 21.3824C34.3794 21.3385 34.398 21.3009 34.4352 21.2257C34.4662 21.163 34.5034 21.0878 34.5096 20.9813C34.5282 20.7493 34.4972 20.1414 34.1749 20.0724C34.1625 20.0724 34.1501 20.0724 34.1377 20.0787C34.1067 20.1038 34.1067 20.179 34.1067 20.2981C34.1067 20.4548 34.1005 20.6616 34.0138 20.7995C33.8774 21.0126 33.6605 21.1756 33.5614 21.1756C33.5366 21.1756 33.5242 21.1693 33.5118 21.1568C33.4994 21.1379 33.5056 21.0878 33.5242 21.0126C33.5614 20.8371 33.6233 20.5112 33.5304 19.9032C33.4994 19.6901 33.3692 19.4582 33.2515 19.2388C33.1337 19.0257 33.0222 18.8188 32.9974 18.6433C32.954 18.3174 32.9912 18.1795 33.1709 18.0416C33.2763 17.9602 33.2949 17.8849 33.2949 17.8348C33.2949 17.7847 33.2701 17.6906 33.1833 17.6593C33.1771 17.6593 33.1771 17.6593 33.1709 17.653C33.1275 17.6405 33.0532 17.6342 32.9726 17.6342C32.6317 17.6405 31.8323 17.6468 31.2683 16.8695C30.8097 16.2428 30.7787 15.6536 30.8655 14.9579V14.9516C30.8655 14.9391 30.8159 14.6821 30.599 14.4815C30.4936 14.3875 30.3883 14.3311 30.3139 14.2935C30.2705 14.2684 30.2209 14.2496 30.2209 14.2308C30.2209 14.2308 30.2209 14.2183 30.2333 14.212C30.2891 14.1556 30.4812 14.0741 30.7477 14.1117C30.946 14.143 31.0886 14.2245 31.0886 14.2245C31.0948 14.2308 31.101 14.2245 31.1072 14.2183C31.1134 14.212 31.634 13.5915 32.5016 13.6604C33.0222 13.698 33.518 14.212 33.5304 14.7698C33.5428 15.3277 33.2887 15.6223 33.0656 15.6975C32.8858 15.7601 32.7185 15.7539 32.6194 15.6849C32.576 15.6536 32.545 15.6097 32.545 15.5596C32.545 15.5157 32.5822 15.4906 32.6565 15.453C32.7805 15.3903 32.9726 15.2901 32.9974 14.9391C33.0098 14.7573 32.9478 14.5755 32.8301 14.4502C32.7495 14.3624 32.607 14.2559 32.3715 14.2684C32.0678 14.2809 31.8199 14.4 31.6525 14.6194C31.4418 14.8952 31.3675 15.3277 31.448 15.8228C31.5658 16.5436 32.2537 17.045 33.0098 16.9636C33.456 16.9197 33.8712 16.6627 34.1873 16.249C34.4848 15.8604 34.6583 15.359 34.6645 14.8764C34.6769 13.673 33.989 12.4319 32.4148 12.3692C30.9089 12.3128 29.973 13.2593 29.5454 13.8234C29.2789 14.1744 29 14.845 28.7955 15.3903C28.8885 15.3715 29.1798 15.3339 29.4401 15.4656C29.7066 15.5972 30.0164 15.9231 29.9606 16.061C29.9483 16.0986 29.8677 16.0798 29.7499 16.0485C29.595 16.0046 29.3781 16.0171 29.1364 16.0547C28.7212 16.1111 28.5538 16.1926 28.5043 16.2365L28.529 16.1613C28.5166 16.2052 28.5043 16.2365 28.5043 16.2365L27.9403 15.8855C28.0209 15.5282 28.3803 14.0302 29.2789 13.0462C30.2023 12.037 31.3117 11.7049 32.2909 11.6986C32.8239 11.6923 33.3135 11.7738 33.7163 11.8678C33.7659 11.8804 33.8093 11.8866 33.8526 11.8992C34.2369 11.9869 34.6397 12.0684 34.9248 11.9932C35.0797 11.9556 35.2099 11.8929 35.309 11.8427C35.371 11.8114 35.433 11.7801 35.4454 11.7863C35.4454 11.7863 35.4516 11.7926 35.4516 11.7989C35.464 11.8615 35.4082 12.0621 35.2285 12.3066C35.1169 12.4633 34.9744 12.551 34.8752 12.62C34.7823 12.6764 34.7203 12.7202 34.7203 12.7829C34.7203 12.8143 34.7513 12.8707 34.807 12.971C34.9806 13.2843 35.34 13.9425 35.2966 14.8701C35.2285 16.2929 34.5591 16.9009 34.1129 17.3083L34.0572 17.3584H34.051C33.7535 17.7032 33.7907 18.0228 33.8774 18.2234C34.0076 18.5305 34.2927 18.7875 34.6583 18.9191C34.869 18.9943 35.0983 19.0194 35.2657 19.0382C35.3896 19.0508 35.5136 19.0633 35.5259 19.0946C35.5693 19.1949 35.4516 19.3328 35.1975 19.4958ZM35.2533 24.416C35.1169 25.2246 34.6645 25.5693 34.2803 25.6195C34.2493 25.6257 34.2183 25.6257 34.1935 25.6257C34.0819 25.6257 33.9952 25.5944 33.9704 25.5442C33.9642 25.5254 33.958 25.5066 33.9642 25.4878C33.9766 25.4565 34.02 25.4377 34.0819 25.4189C34.1563 25.3938 34.2617 25.3499 34.3732 25.2622C34.7017 24.9989 34.6831 24.8861 34.6707 24.7984C34.6707 24.7858 34.6645 24.7796 34.6583 24.7796C34.6397 24.767 34.5901 24.7921 34.5344 24.8234L34.5096 24.836C34.4352 24.8736 34.367 24.8798 34.3112 24.8548C34.2803 24.836 34.2617 24.8109 34.2555 24.7796C34.2493 24.742 34.2927 24.7043 34.3422 24.6542C34.3856 24.6166 34.4352 24.5727 34.4662 24.5226C34.6335 24.2593 34.6645 23.9397 34.5344 23.689C34.4414 23.5009 34.3051 23.3254 33.9022 23.2878C33.896 23.2878 33.8836 23.2878 33.8774 23.2878H33.865C33.8155 23.2878 33.7597 23.2941 33.6977 23.3066C33.2515 23.3944 32.954 23.6952 32.7557 24.0149C32.7557 24.0212 32.7495 24.0274 32.7495 24.0274C32.4768 24.4348 32.4086 25.0616 32.39 25.1807V25.187C32.3033 25.7573 32.1174 26.6035 30.9336 28.089C30.7973 28.2582 30.6919 28.5027 30.7601 28.7784C30.8841 29.2548 31.3365 29.2987 31.3303 29.3488C31.3241 29.4178 31.2311 29.4178 31.0638 29.4052C30.8965 29.3927 30.8345 29.3363 30.8345 29.3363C30.8345 29.3363 30.7911 29.4428 31.07 29.6497C31.2807 29.8064 31.5224 29.8001 31.5286 29.869C31.5348 29.9505 30.2209 30.2577 30.1404 28.9163C30.1404 28.885 30.1342 28.8537 30.1342 28.8223C28.715 30.1386 28.2997 30.2012 28.1944 30.0633C28.1448 29.9944 28.2811 30.0132 28.5538 29.6998C28.8327 29.3802 28.8389 29.236 28.8389 29.236C28.8389 29.236 28.2873 29.5368 27.6428 29.4804C26.9859 29.4178 26.4343 28.9539 26.4839 28.7722C26.5211 28.6155 26.9115 28.885 27.3825 28.8098C27.8163 28.7408 27.8535 28.5653 27.8535 28.5653C27.8535 28.5653 27.7668 28.5653 27.6242 28.4149C27.4817 28.2645 27.271 28.1391 27.3887 28.0138C27.4569 27.9386 27.7853 28.089 28.1076 28.0952C28.5166 28.0952 28.7769 28.0012 28.7769 28.0012C28.7769 28.0012 28.6096 27.9386 28.4361 27.7693C28.2626 27.5938 28.2254 27.4183 28.2749 27.3744C28.3059 27.3494 28.3741 27.4873 28.6034 27.4873C28.8699 27.481 28.9009 27.4183 28.9009 27.4183C28.9009 27.4183 28.7893 27.3118 28.7336 27.2115C28.684 27.1049 28.5228 26.8041 28.622 26.6912C28.653 26.6536 28.9567 27.0297 29.4029 27.0736C30.1714 27.1425 31.0142 26.5283 31.0142 26.5283C31.0142 26.5283 30.599 27.0423 29.7189 27.8132C29.155 28.3021 28.4423 28.7032 28.4857 28.7972C28.5352 28.9101 29.093 28.7784 30.0598 27.9636C30.3697 27.7004 30.568 27.5311 30.9894 27.0046C31.7331 26.077 31.9004 25.0616 31.7517 24.2468C31.6897 23.9271 31.6092 23.6388 31.51 23.3944C31.0948 22.4918 30.6486 22.0468 29.9049 21.7585C29.2417 21.5015 28.7336 21.7334 28.4237 21.8776C28.2687 21.9528 28.1634 21.9966 28.12 21.934C27.9837 21.7397 28.2564 21.4764 28.4981 21.2445C28.8079 20.9499 29.0124 20.8308 29.0682 20.8058C29.0124 20.7807 28.8141 20.6804 28.622 20.6679C28.5228 20.6616 28.4113 20.6804 28.3121 20.6929C28.1572 20.718 28.0332 20.7368 28.0147 20.6553C27.9837 20.4986 28.6158 20.2166 28.9567 20.1038C29.3037 19.9909 29.5826 19.9721 29.6322 19.9721C29.626 19.8969 29.5702 19.3077 29.6322 18.449C29.6632 17.9978 29.7499 17.6844 29.8119 17.5026C29.8925 17.2707 29.9854 17.114 30.066 17.0639C30.097 17.045 30.1342 17.045 30.159 17.0576C30.2147 17.0889 30.2147 17.208 30.2147 17.3835C30.2147 17.4901 30.2147 17.628 30.2271 17.7721C30.2643 18.2046 30.4007 18.4428 30.4812 18.4929C30.4936 18.4992 30.506 18.5055 30.5122 18.4992C30.5432 18.4867 30.5494 18.4302 30.5618 18.355C30.5804 18.2547 30.599 18.1106 30.6858 17.9351C30.8221 17.6405 31.0948 17.2958 31.1877 17.3208C31.2125 17.3271 31.2187 17.3584 31.2187 17.4023C31.2125 17.5402 31.1877 17.6593 31.1692 17.7847C31.1258 18.0479 31.0762 18.3425 31.1072 18.8941C31.1444 19.7026 31.5162 19.8092 31.5658 19.8217C31.5906 19.7778 31.7703 19.4644 32.0306 19.1824C32.0864 19.126 32.136 19.0633 32.1917 19.0069C32.3529 18.8188 32.483 18.6747 32.576 18.6747H32.5822C32.607 18.6747 32.6317 18.6935 32.6441 18.7186C32.6751 18.7687 32.6255 18.9003 32.5388 19.1134C32.421 19.408 32.2413 19.853 32.1607 20.3983C32.012 21.4451 32.1607 22.4605 32.1669 22.4667L32.1793 22.5419L32.1545 22.473C32.1545 22.473 32.0678 22.2223 31.7021 21.6832C31.541 21.4388 31.4108 21.2946 31.2869 21.1568C31.132 20.9813 30.9832 20.8183 30.7787 20.4673C30.5432 20.0661 30.4812 19.7653 30.444 19.5647C30.4131 19.3955 30.3945 19.314 30.3015 19.3015C30.2891 19.3015 30.2829 19.3077 30.2705 19.3203C30.19 19.4519 30.2333 20.1852 30.4564 20.6177C30.5742 20.8496 30.7167 21.0377 30.8779 21.2508C31.0452 21.4701 31.2311 21.7146 31.4604 22.0907C31.8757 22.7739 32.0802 23.2753 32.1793 23.5761C32.2041 23.6514 32.2227 23.714 32.2413 23.7704C32.2909 23.6702 32.3715 23.5511 32.3962 23.526C33.1275 22.7112 33.7659 22.6548 34.2059 22.7613H34.2121C34.5282 22.8303 34.8132 23.0183 35.0116 23.3004C35.2161 23.6263 35.3152 24.04 35.2533 24.416ZM35.0921 28.5215C35.0921 28.5277 35.0859 28.534 35.0859 28.5465C34.9248 29.1232 34.5777 29.518 34.0943 29.6622C33.9456 29.7061 33.8031 29.7312 33.6729 29.7312C33.3506 29.7312 33.078 29.6058 32.7867 29.4178C32.7681 29.4115 32.607 29.3864 32.4396 29.4804C32.3529 29.5306 32.2971 29.587 32.2537 29.6309C32.2165 29.6685 32.1917 29.6935 32.1669 29.6873C32.1607 29.6873 32.1483 29.6747 32.1421 29.6622C32.1174 29.5995 32.1174 29.4303 32.2227 29.2423C32.2847 29.1232 32.3591 29.048 32.3838 29.0292C32.3529 28.9539 32.1421 28.4337 32.4086 27.8571C32.5884 27.4685 33.0594 27.2616 33.4188 27.4121C33.7783 27.5625 33.8898 27.8445 33.8774 28.0326C33.865 28.1893 33.8093 28.3209 33.7349 28.3773C33.6977 28.4024 33.6543 28.4086 33.6233 28.3961C33.58 28.3773 33.5738 28.3272 33.5738 28.2645C33.5676 28.1579 33.5614 28.0075 33.363 27.8947C33.2639 27.8383 33.1461 27.832 33.047 27.8759C32.9726 27.9072 32.8734 27.9824 32.8177 28.1454C32.7433 28.3648 32.7495 28.5779 32.8425 28.7534C32.954 28.9727 33.1895 29.1357 33.5056 29.2109C33.9704 29.3237 34.4538 28.9727 34.6087 28.4149C34.6521 28.2457 34.6769 28.0514 34.6149 27.8445C34.491 27.4309 34.2121 27.0548 33.5366 26.7226C33.3073 26.6098 32.8301 26.3967 32.6441 26.3089C32.7495 26.0081 32.7619 25.914 32.7929 25.8075C32.8549 25.7072 33.0284 25.5442 33.1957 25.5004C33.3878 25.4565 33.6171 25.5505 33.6109 25.5881C33.6047 25.6257 33.3506 25.6884 33.2081 26.0206C33.2639 26.0457 33.7411 26.1773 34.1501 26.4468C34.838 26.8981 35.0302 27.3744 35.0859 27.5876C35.1851 27.9386 35.1665 28.2645 35.0921 28.5215ZM28.4237 17.4838C28.0085 17.0952 27.6738 16.9949 27.6738 16.9949V16.2616C27.8721 16.3619 28.3307 16.6063 28.591 16.8257C28.8513 17.045 29.0496 17.2582 29.2108 17.4399L29.0992 18.1795C28.9071 17.9727 28.6654 17.7094 28.4237 17.4838ZM27.8969 18.8126C27.7792 17.9727 27.8287 17.5841 27.8287 17.5841C28.0147 17.6468 28.3307 17.9664 28.4361 18.0792C28.4361 18.0792 28.4113 18.1921 28.4919 18.706C28.5476 19.0946 28.6654 19.4519 28.7088 19.6023L28.1262 19.8781C28.0704 19.6901 27.9589 19.2639 27.8969 18.8126ZM28.3369 23.8457C28.4051 24.4035 28.8637 24.93 29.5082 24.861C29.7871 24.8297 29.9854 24.6981 30.1218 24.5539L30.0846 24.51C29.9978 24.4286 29.6942 24.1402 29.4463 23.8206C29.2046 23.5072 29.0868 23.338 29.062 23.3066L28.9938 23.2063C29 23.2001 29.0806 23.1437 29.3223 23.1499C29.5888 23.1625 29.8429 23.3693 29.9173 23.432C29.9173 23.432 30.0412 23.5699 30.4379 23.9898C30.9089 24.485 31.2497 24.7232 31.3055 24.7608C31.3055 24.9049 31.2683 25.1807 31.2125 25.375C30.9956 25.2559 30.7105 25.0177 30.5742 24.9049C30.5556 24.8861 30.537 24.8736 30.5246 24.8673C30.3511 25.0804 30.097 25.2873 29.7128 25.3938C29.626 25.4189 29.5268 25.4314 29.4339 25.4251C28.591 25.4001 28.027 24.767 27.8907 24.1465C27.8411 23.9146 27.8597 23.62 27.8659 23.4194C27.8721 23.2439 27.8845 23.0872 27.8411 22.9744C27.7977 22.8428 27.7358 22.7613 27.6924 22.7049C27.6552 22.6485 27.6242 22.6172 27.6552 22.5858C27.6986 22.5294 27.8473 22.567 27.9837 22.661C28.0704 22.7174 28.1076 22.7864 28.12 22.824C28.2006 22.6986 28.591 22.1596 29.2665 22.1345C29.4958 22.1283 29.7004 22.1784 29.8553 22.2787C29.9854 22.3602 30.0722 22.4793 30.1094 22.5984C30.1342 22.6924 30.1342 22.7676 30.0722 22.7989C30.0412 22.8177 29.9668 22.7864 29.8677 22.7362C29.7251 22.6673 29.502 22.5921 29.2417 22.6234C29.031 22.6485 28.7336 22.7927 28.529 23.0684C28.3679 23.2815 28.2997 23.5573 28.3369 23.8457ZM25.5295 28.8725C24.7362 29.5995 24.1227 29.7813 23.3728 29.9067C22.5423 30.0508 20.9558 29.8252 20.9558 29.8252L20.1377 27.1551C20.1377 27.1551 20.9868 27.9636 21.433 28.3209C21.8792 28.6782 22.2944 28.8725 22.9266 28.8725C23.5587 28.8725 23.9863 28.7095 24.4511 28.2081C24.9159 27.7066 25.0895 27.0611 25.2072 26.2964C25.2878 25.7448 25.2506 24.2217 25.2506 23.8707L25.3683 15.5972C25.3683 15.5972 25.4241 13.8108 25.3002 13.3658C25.1762 12.9145 24.9097 12.5886 24.7486 12.4194C24.3954 12.0433 23.6393 11.9242 23.6393 11.9242C23.4224 11.8866 23.3728 11.7801 23.3914 11.6735C23.4162 11.5168 23.5525 11.4917 23.5525 11.4917L28.8947 11.5043C28.8947 11.5043 29.0248 11.5168 29.0496 11.6798C29.0682 11.7863 29.0186 11.8929 28.8017 11.9305C28.8017 11.9305 28.0518 12.0559 27.6924 12.4257C27.5313 12.5949 27.2648 12.9208 27.1408 13.3721C27.0169 13.8234 27.0726 15.6034 27.0726 15.6034V23.8958C27.0726 23.8958 27.0912 25.4941 26.8867 26.334C26.738 26.9169 26.4095 28.0702 25.5295 28.8725ZM19.549 28.4462C19.2577 29.0668 18.7743 29.6183 18.6813 29.5306C18.6069 29.4554 18.6999 29.3927 18.7495 29.2109C18.7991 29.0229 18.8115 28.9853 18.8115 28.9853C18.8115 28.9853 18.6813 29.1733 18.2165 29.4679C17.7517 29.7625 17.6711 29.7813 17.5906 29.6685C17.541 29.5933 17.6587 29.5118 17.7703 29.3175C17.8756 29.1294 17.8447 29.1357 17.8447 29.1357C17.8447 29.1357 17.448 29.0981 17.1258 28.9539C16.8035 28.8098 16.4626 28.4713 16.4688 28.4024C16.4812 28.3146 16.6176 28.2645 16.8593 28.1391C17.1196 28.0075 17.2993 27.8383 17.2993 27.8383C17.2993 27.8383 17.1258 27.7944 17.0266 27.7505C16.8717 27.6753 16.7167 27.6001 16.8097 27.4998C16.8965 27.4183 17.3117 27.7004 17.95 27.0924C18.514 26.5534 18.514 25.7636 18.514 25.7636C18.514 25.7636 18.7867 26.685 18.4272 27.4183C17.981 28.3209 17.1443 28.3272 17.2373 28.5152C17.3489 28.7471 18.3714 28.5403 18.8115 27.4559C19.1771 26.5534 18.7929 25.4063 18.514 24.7231C18.4334 24.5288 18.3281 24.2656 18.2599 24.0588C18.514 24.1778 18.7247 24.2343 18.9292 24.2593C18.9292 24.2593 18.9292 24.2593 18.9292 24.2656C18.9354 24.2656 18.9664 24.322 18.9664 24.322C19.2143 24.7232 19.5985 24.861 19.803 24.9425C19.9952 25.0177 20.2059 25.0553 20.4166 25.0553C20.5963 25.0553 20.7822 25.0303 20.9496 24.9613C21.0611 24.9175 21.1665 24.861 21.2471 24.7733C21.4949 24.5038 21.5569 23.6764 21.6685 23.6137C21.7181 23.5824 21.842 23.7892 21.8916 23.9397C21.9412 24.0964 21.9164 24.2468 22.0093 24.2844C22.0775 24.3095 22.1147 24.2343 22.2572 24.0713C22.4556 23.8394 22.4246 23.7454 22.5237 23.783C22.6229 23.8206 22.5175 24.3345 22.4679 24.6103C22.4184 24.8924 22.2882 25.2998 22.2882 25.2998C22.2882 25.2998 22.6167 25.0804 22.9266 24.9425C23.788 24.5539 24.1227 24.673 24.1289 24.7796C24.1351 24.8861 23.9305 24.9049 23.7074 25.1744C23.5463 25.3687 23.5835 25.4189 23.5835 25.4189C23.5835 25.4189 23.7136 25.4251 24.0731 25.3186C24.3272 25.2434 24.5503 25.1243 24.6185 25.2308C24.6928 25.3374 24.3582 25.795 23.8438 26.1522C23.3294 26.5095 22.9142 26.6474 22.9142 26.6474C22.9142 26.6474 23.0133 26.7539 23.2674 26.7978C23.5215 26.8417 23.6207 26.8041 23.6455 26.8793C23.6764 26.9796 23.3914 27.0673 22.9142 27.1175C22.2324 27.1864 21.8792 26.8856 21.8792 26.8856C21.8792 26.8856 21.966 27.1363 21.8668 27.387C21.7614 27.644 21.7366 27.8821 21.6375 27.8633C21.5383 27.8508 21.6561 27.6064 21.464 27.3682C21.2594 27.1112 21.0239 27.0548 20.6769 26.779C20.336 26.5158 20.3236 26.3026 20.3236 26.3026C20.3236 26.3026 20.9186 26.5283 21.8916 26.3716C22.8274 26.2212 23.1187 25.9391 23.0505 25.8326C22.9885 25.7385 22.8336 25.8576 22.3936 25.9642C21.8792 26.0833 21.1789 26.0519 20.4042 25.9203C20.1315 25.8764 19.7597 25.7448 19.425 25.5192C19.5552 25.7824 19.7721 26.2525 19.8216 26.591C19.9146 27.1676 19.8402 27.8195 19.549 28.4462ZM18.9478 19.9533C18.985 19.6963 19.1337 19.4206 19.2205 19.3015C19.5613 19.2388 19.7783 19.4268 19.8092 19.4582C19.6233 19.8217 19.5056 20.2228 19.4002 20.624C19.2763 20.5738 19.0965 20.3921 18.9478 19.9533ZM19.0284 22.6673C18.8548 22.6485 18.4086 22.3476 18.3838 22.2724C18.3838 22.1157 18.421 21.7647 18.483 21.5579C18.7061 21.9528 19.0718 22.122 19.0718 22.122C19.0098 22.3727 19.0284 22.6673 19.0284 22.6673ZM17.2001 19.1887C17.2435 19.0633 17.2807 18.9755 17.3179 18.9003C17.3922 18.7311 17.4356 18.6308 17.448 18.3989C17.4666 18.1294 17.386 17.9225 17.3365 17.8661C17.4046 17.8724 17.6154 17.9664 17.6959 18.1419C17.7641 18.2861 17.8633 18.6622 17.8509 18.7248C17.8447 18.7374 17.8571 18.7436 17.8571 18.7499C17.8694 18.7562 17.8818 18.7499 17.9314 18.7123C18.074 18.6057 18.5078 18.2735 19.2763 18.2673H19.2887C20.7017 18.2673 21.3214 19.5898 21.3276 19.6023L21.3338 19.6086H21.34C21.3462 19.6086 21.5321 19.665 21.9102 19.502C22.0589 19.4394 22.1457 19.3579 22.2324 19.2827C22.375 19.1573 22.4989 19.0445 22.8398 19.0382C23.1869 19.0257 23.4471 19.2263 23.4905 19.3641C23.5029 19.3955 23.5029 19.4456 23.4657 19.4707C23.4162 19.5083 23.4038 19.502 23.3728 19.4895C23.3232 19.4644 23.2426 19.4268 22.9885 19.4707C22.7716 19.502 22.6725 19.7089 22.5671 19.922C22.4494 20.1539 22.3316 20.3921 22.0589 20.461C21.811 20.53 21.5197 20.3545 21.464 20.2667C21.4516 20.2416 21.4268 20.2103 21.3958 20.2166C21.371 20.2228 21.3586 20.2604 21.3586 20.273C21.3586 20.273 21.3524 20.4924 21.2161 20.8747C21.0921 21.2257 20.522 22.0656 19.4002 21.7585C18.7123 21.5704 18.4458 20.9186 18.4768 20.5174C18.4892 20.3858 18.5264 20.2981 18.5884 20.2918C18.6379 20.2855 18.6813 20.3231 18.6937 20.3607C18.7433 20.5112 18.7991 20.6616 18.8796 20.7869C18.9912 20.9624 19.1957 21.1756 19.4436 21.232C20.0014 21.3573 20.3422 21.069 20.4042 21.0063C20.6149 20.8058 20.7327 20.4736 20.7141 20.1163C20.6893 19.6587 20.4538 19.3704 20.2555 19.2075C20.0076 19.0006 19.6853 18.8753 19.3692 18.869C19.363 18.869 19.3506 18.869 19.3444 18.869C18.9354 18.869 18.5202 19.0382 18.1979 19.3265C17.7889 19.6963 17.5534 20.2479 17.5038 20.9186C17.4604 21.4952 17.6959 22.1345 18.1111 22.5921C18.4334 22.9494 18.8362 23.1437 19.2391 23.1499C19.2453 23.1499 19.2515 23.1499 19.2639 23.1499C20.3298 23.1499 21.0177 22.4855 21.7428 21.7835C22.4246 21.1254 23.1249 20.4485 24.228 20.1351C24.3086 20.11 24.6866 20.0787 24.7672 20.0724L24.7486 20.6804C24.1289 20.7995 23.2674 21.2006 23.3108 21.6331C23.3542 22.0593 23.6269 22.2912 23.757 22.404C23.788 22.4291 23.819 22.4542 23.819 22.4605C23.819 22.4667 23.8066 22.473 23.7632 22.4918C23.6455 22.5357 23.3728 22.567 23.1621 22.4667C22.877 22.3351 22.5981 21.865 22.5919 21.8587L22.5795 21.8399L22.5671 21.8587C22.5609 21.865 21.7181 22.7613 21.2594 23.0998C20.962 23.3192 20.1749 23.9021 19.2453 23.8582C18.6007 23.8268 18.0058 23.5323 17.572 23.0246C17.1134 22.4918 16.8655 21.7522 16.8717 20.9499C16.8717 20.2166 16.9522 19.8844 17.2001 19.1887ZM19.2577 11.5043C19.2639 11.5043 19.9208 11.4479 20.5467 11.6986C20.8194 11.8114 21.0177 11.9493 21.1913 12.0747H21.1975C21.4578 12.2564 21.6561 12.4068 21.9474 12.3128C22.2758 12.2125 22.344 11.9493 22.3874 11.7738C22.3998 11.7299 22.4184 11.6547 22.4308 11.6484C22.4432 11.6422 22.5051 11.6672 22.5547 11.7487C22.6167 11.8427 22.7778 12.1937 22.344 12.8331C22.1023 13.1841 21.7119 13.2593 21.6933 13.2593C21.6747 13.2593 21.6623 13.2718 21.6499 13.2843C21.6437 13.2969 21.6375 13.3157 21.6437 13.3345C21.6685 13.4222 21.6685 13.4912 21.6747 13.5539C21.6933 13.7732 21.6685 13.9863 21.5259 14.3436C21.3028 14.8889 20.8566 15.2211 20.2679 15.2963C19.6977 15.3653 19.2329 15.0393 19.0656 14.6821C18.9168 14.3499 18.9044 13.9675 19.0408 13.6228C19.0718 13.5351 19.1337 13.4661 19.1833 13.4536C19.2081 13.4473 19.2267 13.4536 19.2453 13.4724C19.2949 13.51 19.2949 13.6103 19.3011 13.7419C19.3073 13.8735 19.3135 14.0365 19.3692 14.2057C19.456 14.469 19.7473 14.7197 20.1191 14.6883C20.6893 14.6382 21.0301 14.2308 21.0425 13.604C21.0549 12.9459 20.6397 12.1687 19.425 12.1373C19.4064 12.1373 19.394 12.1373 19.3754 12.1373C18.9168 12.1373 18.4954 12.3191 18.1607 12.6576C17.7765 13.0587 17.5286 13.6604 17.5162 14.2371C17.4976 15.359 18.074 16.0109 18.5574 16.3619C19.047 16.7129 19.8154 16.7379 20.776 16.4308C21.1045 16.3242 21.4578 16.1801 21.7986 16.0359H21.8048C22.0961 15.9168 22.3936 15.7915 22.6787 15.6849C22.846 15.6285 23.0257 15.5784 23.2116 15.547L23.2364 15.5408L23.2178 15.5157C23.1435 15.4154 23.0505 15.2838 22.9266 15.1146C22.6787 14.7636 22.6105 14.118 22.6911 13.9863C22.7282 13.9299 22.7654 13.9174 22.784 13.9174C22.7964 13.9174 22.8088 13.9237 22.8088 13.9237C22.8088 13.9299 22.8088 13.9613 22.8088 13.9675C22.8088 13.9989 22.8088 14.1493 22.877 14.2245C22.9637 14.3248 23.0815 14.3436 23.1311 14.3185C23.1497 14.306 23.1621 14.2935 23.1683 14.2747C23.1869 14.2183 23.2736 13.9425 23.4224 13.7168C23.5463 13.5288 23.9367 13.2405 24.166 13.2405C24.1722 13.2405 24.1784 13.2405 24.1846 13.2405C24.2466 13.2467 24.29 13.2718 24.3148 13.322C24.3458 13.3846 24.2466 13.4912 24.2156 13.5225C24.0173 13.7356 23.7818 14.049 23.7632 14.5693C23.757 14.8137 23.8252 15.0143 23.9677 15.171C24.2404 15.4656 24.7114 15.5032 24.8044 15.5032V16.0422C24.792 16.0422 24.7734 16.0422 24.761 16.0422C24.2962 16.0422 23.9243 16.6126 23.8004 17.1955C23.695 17.6718 23.788 18.3425 23.8252 18.5431C23.8624 18.7248 23.8314 18.7687 23.819 18.775C23.8128 18.7812 23.8066 18.7812 23.788 18.7812C23.6888 18.7624 23.5091 18.5493 23.3108 18.2234C23.1621 17.9852 23.2054 17.6844 23.2302 17.5214C23.2426 17.4337 23.2488 17.396 23.2178 17.371L23.2116 17.3647C23.193 17.3459 23.1621 17.3271 23.1249 17.3271C23.1249 17.3271 23.1249 17.3271 23.1187 17.3271C23.0753 17.3271 23.0257 17.3584 22.9699 17.4149C22.9266 17.465 22.9018 17.4963 22.8894 17.5214C22.8646 17.559 22.8646 17.559 22.8026 17.5339C22.8026 17.5339 22.7964 17.5339 22.7902 17.5214C22.7468 17.4023 22.877 16.9886 23.0443 16.7003C23.1745 16.4684 23.317 16.2992 23.5153 16.1425L23.5711 16.0986L23.4967 16.1174C22.8212 16.2741 22.1457 16.5436 21.7305 16.8319C21.1975 17.1955 20.7637 17.628 20.4476 18.1106C20.3918 18.073 20.336 18.0479 20.1997 17.9852C20.1129 17.9476 19.9828 17.9037 19.8836 17.8912C20.0138 17.7094 20.2431 17.465 20.336 17.3647L20.3422 17.3584C20.3546 17.3396 20.3546 17.3083 20.336 17.2895C20.3174 17.2707 20.2926 17.2644 20.2679 17.2707C20.2431 17.2832 19.6419 17.5151 18.5822 17.114C17.7207 16.7881 16.8221 15.8416 16.8717 14.1744C16.9336 12.4695 18.1111 11.6046 19.2577 11.5043ZM15.5454 31.2981H36.5733V10H15.5454V31.2981Z" fill="#990000"/>
<path d="M15.35 58.06H16.708L18.43 66.068C18.4673 66.264 18.4953 66.446 18.514 66.614H18.556C18.5653 66.502 18.6027 66.32 18.668 66.068L20.712 58.06H22.056L24.1 66.068C24.1653 66.32 24.2027 66.502 24.212 66.614H24.254C24.2727 66.446 24.3007 66.264 24.338 66.068L26.06 58.06H27.418L25.052 68H23.428L21.496 60.244C21.4493 60.0573 21.4213 59.9033 21.412 59.782H21.356C21.3467 59.9033 21.3187 60.0573 21.272 60.244L19.34 68H17.716L15.35 58.06ZM34.0061 64.85H29.0361C29.0454 65.5313 29.2368 66.082 29.6101 66.502C29.9928 66.9127 30.4968 67.118 31.1221 67.118C31.5701 67.118 31.9528 67.006 32.2701 66.782C32.5874 66.5487 32.8254 66.2173 32.9841 65.788L33.9641 66.222C33.7214 66.8567 33.3481 67.342 32.8441 67.678C32.3494 68.0047 31.7474 68.168 31.0381 68.168C30.0301 68.168 29.2461 67.86 28.6861 67.244C28.1261 66.6187 27.8461 65.732 27.8461 64.584C27.8461 63.408 28.1261 62.4887 28.6861 61.826C29.2461 61.1633 30.0254 60.832 31.0241 60.832C31.9761 60.832 32.7088 61.1027 33.2221 61.644C33.7448 62.1853 34.0061 62.974 34.0061 64.01V64.85ZM32.8021 63.73C32.8021 63.0953 32.6434 62.61 32.3261 62.274C32.0181 61.938 31.5748 61.77 30.9961 61.77C30.3894 61.77 29.9134 61.9567 29.5681 62.33C29.2321 62.7033 29.0548 63.2213 29.0361 63.884H32.8021V63.73ZM39.1043 68.168C38.5816 68.168 38.1243 68.0467 37.7323 67.804C37.3496 67.552 37.0649 67.216 36.8783 66.796L36.6683 68H35.7583V57.85H36.9483V62.218C37.1443 61.8073 37.4336 61.476 37.8163 61.224C38.1989 60.9627 38.6516 60.832 39.1743 60.832C39.7343 60.832 40.2243 60.9907 40.6443 61.308C41.0736 61.616 41.4049 62.05 41.6383 62.61C41.8716 63.1607 41.9883 63.7907 41.9883 64.5C41.9883 65.2187 41.8669 65.858 41.6243 66.418C41.3909 66.9687 41.0549 67.398 40.6163 67.706C40.1869 68.014 39.6829 68.168 39.1043 68.168ZM38.7823 67.118C39.3889 67.118 39.8649 66.8847 40.2103 66.418C40.5556 65.942 40.7283 65.3027 40.7283 64.5C40.7283 63.6973 40.5603 63.0627 40.2243 62.596C39.8883 62.12 39.4123 61.882 38.7963 61.882C38.2083 61.882 37.7463 62.1013 37.4103 62.54C37.0836 62.9787 36.9203 63.5807 36.9203 64.346V64.71C36.9203 65.4473 37.0836 66.0353 37.4103 66.474C37.7463 66.9033 38.2036 67.118 38.7823 67.118ZM45.9777 68.168C45.1471 68.168 44.4657 67.9813 43.9337 67.608C43.4111 67.2347 43.0891 66.7027 42.9677 66.012L44.1717 65.802C44.2557 66.2407 44.4564 66.5813 44.7737 66.824C45.0911 67.0667 45.5064 67.188 46.0197 67.188C46.4771 67.188 46.8317 67.09 47.0837 66.894C47.3451 66.6887 47.4757 66.432 47.4757 66.124C47.4757 65.8253 47.3917 65.6013 47.2237 65.452C47.0557 65.3027 46.8037 65.2 46.4677 65.144L45.0957 64.892C44.4984 64.78 44.0364 64.5607 43.7097 64.234C43.3924 63.898 43.2337 63.464 43.2337 62.932C43.2337 62.316 43.4717 61.812 43.9477 61.42C44.4331 61.028 45.0817 60.832 45.8937 60.832C46.6777 60.832 47.3171 61 47.8117 61.336C48.3157 61.672 48.6004 62.134 48.6657 62.722L47.4897 62.988C47.4057 62.624 47.2237 62.3347 46.9437 62.12C46.6637 61.9053 46.2951 61.798 45.8377 61.798C45.3897 61.798 45.0351 61.8913 44.7737 62.078C44.5217 62.2647 44.3957 62.5307 44.3957 62.876C44.3957 63.156 44.4844 63.3753 44.6617 63.534C44.8484 63.6927 45.1191 63.8047 45.4737 63.87L46.8317 64.122C47.4571 64.2433 47.9144 64.4627 48.2037 64.78C48.5024 65.088 48.6517 65.5033 48.6517 66.026C48.6517 66.67 48.4137 67.188 47.9377 67.58C47.4711 67.972 46.8177 68.168 45.9777 68.168ZM50.3451 61H51.5351V68H50.3451V61ZM50.2611 58.2H51.6191V59.698H50.2611V58.2ZM52.7202 61H54.0222V59.166L55.2122 58.662V61H56.9622V61.98H55.2122V65.858C55.2122 66.2593 55.2915 66.5533 55.4502 66.74C55.6182 66.9173 55.8795 67.006 56.2342 67.006C56.4395 67.006 56.6822 66.9733 56.9622 66.908V68C56.6542 68.084 56.3088 68.126 55.9262 68.126C55.2168 68.126 54.7222 67.9347 54.4422 67.552C54.1622 67.1693 54.0222 66.6187 54.0222 65.9V61.98H52.7202V61ZM63.8873 64.85H58.9173C58.9267 65.5313 59.118 66.082 59.4913 66.502C59.874 66.9127 60.378 67.118 61.0033 67.118C61.4513 67.118 61.834 67.006 62.1513 66.782C62.4687 66.5487 62.7067 66.2173 62.8653 65.788L63.8453 66.222C63.6027 66.8567 63.2293 67.342 62.7253 67.678C62.2307 68.0047 61.6287 68.168 60.9193 68.168C59.9113 68.168 59.1273 67.86 58.5673 67.244C58.0073 66.6187 57.7273 65.732 57.7273 64.584C57.7273 63.408 58.0073 62.4887 58.5673 61.826C59.1273 61.1633 59.9067 60.832 60.9053 60.832C61.8573 60.832 62.59 61.1027 63.1033 61.644C63.626 62.1853 63.8873 62.974 63.8873 64.01V64.85ZM62.6833 63.73C62.6833 63.0953 62.5247 62.61 62.2073 62.274C61.8993 61.938 61.456 61.77 60.8773 61.77C60.2707 61.77 59.7947 61.9567 59.4493 62.33C59.1133 62.7033 58.936 63.2213 58.9173 63.884H62.6833V63.73Z" fill="#81807E"/>
</svg>
