<svg width="168" height="140" viewBox="0 0 168 140" fill="none" xmlns="http://www.w3.org/2000/svg">
<rect width="168" height="140" fill="#C4C4C4"/>
<rect width="168" height="140" fill="url(#paint0_linear)"/>
<path d="M93.865 35.8203C93.8165 35.99 93.7681 36.1111 93.7681 36.1111L93.865 35.8203Z" fill="white"/>
<path fill-rule="evenodd" clip-rule="evenodd" d="M125.298 94.3413H43.1313V12H125.298V94.3413ZM118.396 49.2693C118.421 49.2693 119.195 49.1966 119.922 48.7119C120.915 48.0819 121.375 47.5488 121.205 47.1611C121.157 47.0399 120.673 46.9914 120.188 46.943L120.163 46.9401C119.511 46.8677 118.628 46.7695 117.815 46.4826C116.386 45.9737 115.272 44.9802 114.764 43.7928C114.425 43.0173 114.28 41.7815 115.442 40.4487H115.466L115.684 40.2549L115.696 40.244C117.44 38.669 120.044 36.3166 120.309 30.8285C120.479 27.2421 119.074 24.6977 118.396 23.4861C118.178 23.0984 118.057 22.8803 118.057 22.7591C118.057 22.5168 118.299 22.3472 118.663 22.1291C118.704 22.1005 118.748 22.071 118.793 22.0404C119.168 21.7866 119.654 21.4582 120.043 20.9175C120.745 19.9724 120.963 19.197 120.915 18.9547C120.915 18.9304 120.891 18.9062 120.891 18.9062C120.842 18.882 120.6 19.0031 120.358 19.1243C119.97 19.3182 119.462 19.5605 118.856 19.7059C117.742 19.9967 116.168 19.6816 114.667 19.3424C114.572 19.3154 114.478 19.2959 114.379 19.2755C114.301 19.2594 114.22 19.2427 114.134 19.2212C112.56 18.8577 110.647 18.5427 108.564 18.567C104.738 18.5912 100.403 19.8755 96.7952 23.7769C93.2838 27.5814 91.8792 33.3729 91.5644 34.7541L93.7681 36.1111C93.9618 35.9415 94.6157 35.6265 96.2382 35.4084C97.1826 35.263 98.0302 35.2145 98.6356 35.3842C99.0957 35.5053 99.4106 35.578 99.459 35.4326C99.6769 34.8995 98.4661 33.6394 97.4248 33.1306C96.4077 32.6217 95.2695 32.7671 94.9063 32.8398C95.7054 30.7316 96.7952 28.1387 97.8365 26.7817C99.5074 24.6008 103.164 20.9417 109.049 21.1598C115.2 21.4021 117.888 26.2001 117.839 30.8527C117.815 32.7186 117.137 34.6572 115.975 36.1596C114.74 37.7589 113.117 38.7525 111.374 38.9221C108.419 39.2371 105.731 37.2985 105.271 34.5118C104.956 32.5975 105.247 30.9254 106.07 29.8592C106.724 29.0111 107.693 28.5507 108.879 28.5022C109.799 28.4537 110.356 28.8657 110.671 29.2049C111.131 29.6896 111.374 30.3923 111.325 31.0951C111.228 32.4521 110.478 32.8398 109.993 33.0821C109.703 33.2275 109.557 33.3244 109.557 33.494C109.557 33.6879 109.678 33.8575 109.848 33.9787C110.235 34.2452 110.889 34.2695 111.591 34.0272C112.463 33.7364 113.456 32.5975 113.408 30.4408C113.359 28.2841 111.422 26.2971 109.388 26.1517C106.087 25.8922 104.072 28.1592 103.945 28.3015C103.942 28.3054 103.94 28.3077 103.939 28.3083C103.915 28.3326 103.891 28.3568 103.866 28.3326C103.866 28.3326 103.309 28.0175 102.534 27.8964C101.493 27.751 100.742 28.066 100.525 28.2841C100.476 28.3083 100.476 28.3568 100.476 28.3568C100.476 28.4099 100.58 28.463 100.701 28.5256C100.746 28.5487 100.794 28.573 100.839 28.5991C101.13 28.7445 101.542 28.9626 101.953 29.3261C102.801 30.1015 102.995 31.095 102.995 31.1435V31.1677C102.656 33.8575 102.777 36.1354 104.569 38.5586C106.772 41.5634 109.896 41.5392 111.228 41.5149C111.543 41.5149 111.834 41.5392 112.003 41.5876C112.027 41.6119 112.027 41.6119 112.052 41.6119C112.391 41.733 112.487 42.0965 112.487 42.2904C112.487 42.4842 112.415 42.775 112.003 43.09C111.301 43.6231 111.156 44.1563 111.325 45.4163C111.422 46.0948 111.858 46.8945 112.318 47.7184C112.345 47.769 112.373 47.8198 112.401 47.8707C112.837 48.6733 113.294 49.5123 113.408 50.287C113.771 52.6376 113.529 53.8976 113.383 54.5761C113.311 54.8669 113.287 55.0608 113.335 55.1335C113.383 55.182 113.432 55.2062 113.529 55.2062C113.916 55.2062 114.764 54.5761 115.297 53.7522C115.636 53.2191 115.66 52.4195 115.66 51.8137C115.66 51.3532 115.66 51.0625 115.781 50.9655C115.829 50.9413 115.878 50.9413 115.926 50.9413C117.185 51.2079 117.307 53.5584 117.234 54.455C117.21 54.8669 117.064 55.1577 116.943 55.4C116.798 55.6908 116.725 55.8362 116.895 56.0059C117.03 56.1633 117.29 56.0911 117.539 56.0218C117.559 56.0164 117.578 56.0111 117.597 56.0059C117.618 55.9988 117.639 55.9917 117.659 55.9848C117.778 55.9443 117.881 55.9089 117.985 55.9089C118.13 55.9089 118.251 55.9332 118.324 56.0785C118.542 56.5147 118.178 57.3144 117.5 57.799C117.44 57.8354 117.379 57.8778 117.319 57.9202C117.258 57.9626 117.198 58.005 117.137 58.0414C116.604 58.4048 116.168 58.7199 116.241 59.0107C116.241 59.0349 116.265 59.0591 116.386 59.0834C116.895 59.2045 118.275 59.0834 119.22 58.1868C120.406 57.0721 120.77 55.7635 120.552 53.413C120.364 51.1857 118.522 49.5256 118.38 49.3981C118.376 49.3938 118.373 49.3912 118.372 49.3904C118.348 49.3662 118.348 49.342 118.348 49.3177C118.348 49.2935 118.372 49.2693 118.396 49.2693ZM116.338 72.3869C117.839 72.193 119.607 70.8602 120.14 67.7343C120.382 66.2803 119.995 64.681 119.195 63.4209C118.421 62.3305 117.307 61.6035 116.072 61.337H116.047C114.328 60.925 111.834 61.1431 108.976 64.2933C108.879 64.3902 108.564 64.8506 108.371 65.2384C108.337 65.1371 108.303 65.0307 108.267 64.9166C108.225 64.7849 108.18 64.643 108.129 64.4872C107.741 63.324 106.942 61.3854 105.319 58.7441C104.423 57.2902 103.697 56.3451 103.043 55.497L103.031 55.4816C102.406 54.664 101.854 53.9405 101.396 53.0495C100.525 51.3775 100.355 48.5423 100.67 48.0334C100.718 47.985 100.742 47.9607 100.791 47.9607C101.154 48.0092 101.227 48.3242 101.348 48.9785C101.493 49.7539 101.735 50.9171 102.656 52.4679C103.421 53.7675 103.986 54.4003 104.565 55.0475C104.59 55.0761 104.616 55.1048 104.641 55.1335L104.655 55.1487C105.135 55.6772 105.64 56.2329 106.264 57.169C107.693 59.253 108.032 60.2223 108.032 60.2223L108.129 60.4888L108.08 60.198C108.056 60.1738 107.475 56.2482 108.056 52.2014C108.367 50.1206 109.055 48.4175 109.515 47.2785L109.533 47.2338C109.872 46.4099 110.066 45.901 109.945 45.7071C109.896 45.6102 109.799 45.5375 109.703 45.5375H109.678C109.315 45.5375 108.807 46.0948 108.177 46.8218C108.068 46.9309 107.965 47.0459 107.862 47.161C107.759 47.2762 107.656 47.3913 107.547 47.5003C106.53 48.5908 105.828 49.8024 105.731 49.972C105.537 49.9235 104.084 49.5116 103.939 46.3856C103.819 44.2709 104.008 43.1333 104.177 42.1219L104.181 42.0965C104.199 41.9754 104.219 41.8557 104.239 41.7361C104.298 41.3771 104.357 41.0182 104.375 40.6183C104.375 40.4487 104.351 40.3276 104.254 40.3033C103.891 40.2064 102.825 41.5392 102.292 42.6781C101.991 43.2818 101.9 43.7896 101.832 44.1673C101.824 44.2141 101.816 44.2589 101.808 44.3017C101.804 44.328 101.799 44.3537 101.795 44.3788C101.754 44.6305 101.724 44.8149 101.614 44.859C101.59 44.8832 101.542 44.859 101.493 44.8348C101.178 44.6409 100.646 43.7201 100.5 42.048C100.452 41.4907 100.452 40.9576 100.452 40.5456C100.452 39.8671 100.452 39.4067 100.234 39.2856C100.137 39.2371 99.9918 39.2371 99.8707 39.3098C99.5559 39.5037 99.1926 40.1095 98.8778 41.0061C98.6356 41.7088 98.2966 42.9204 98.1755 44.6651C97.9428 47.8555 98.135 50.0836 98.1718 50.5106C98.1733 50.5279 98.1746 50.5422 98.1755 50.5536C97.9818 50.5536 96.892 50.6263 95.5359 51.0625C94.204 51.4986 91.7339 52.5891 91.855 53.1949C91.9277 53.5099 92.412 53.4372 93.0174 53.3403C93.0811 53.3323 93.1461 53.3237 93.2121 53.315C93.5469 53.2705 93.9045 53.2231 94.2282 53.2434C94.9073 53.2872 95.6061 53.6086 95.8947 53.7413C95.9251 53.7553 95.951 53.7672 95.9718 53.7765C95.7539 53.8734 94.9547 54.3338 93.7439 55.4727C92.7994 56.3693 91.7339 57.3871 92.2667 58.1383C92.4362 58.3806 92.8479 58.211 93.4533 57.9202C94.6641 57.3629 96.6499 56.4663 99.241 57.4598C102.147 58.5745 103.891 60.295 105.513 63.7844C105.901 64.7295 106.215 65.8442 106.458 67.08C107.039 70.2302 106.385 74.1558 103.479 77.7422C101.832 79.7777 101.057 80.432 99.8465 81.4498C96.0687 84.6 93.8892 85.1088 93.6955 84.6727C93.6034 84.4753 94.3827 83.9277 95.467 83.1657C96.3794 82.5246 97.5076 81.7318 98.5145 80.8682C101.953 77.8876 103.576 75.9006 103.576 75.9006C103.576 75.9006 100.282 78.2753 97.2795 78.0088C96.0767 77.8918 95.139 77.1636 94.6332 76.7708C94.4058 76.5943 94.2658 76.4855 94.2282 76.5306C93.8779 76.925 94.359 77.9136 94.5977 78.404C94.623 78.456 94.6455 78.5024 94.6641 78.5419C94.8821 78.9296 95.318 79.3416 95.318 79.3416C95.318 79.3416 95.1969 79.5839 94.1556 79.6081C93.572 79.6081 93.2555 79.3819 93.0723 79.251C92.9742 79.1809 92.9143 79.1381 92.8721 79.1719C92.6784 79.3416 92.8237 80.0201 93.5017 80.6986C94.1798 81.3528 94.8336 81.5952 94.8336 81.5952C94.8336 81.5952 93.8165 81.9586 92.2183 81.9586C91.6388 81.9475 91.0543 81.8183 90.566 81.7105C89.9932 81.5839 89.5529 81.4866 89.4091 81.6436C89.0527 82.0191 89.4665 82.3945 89.9301 82.8151C90.0649 82.9374 90.2039 83.0635 90.3294 83.1945C90.8863 83.7761 91.2254 83.7761 91.2254 83.7761C91.2254 83.7761 91.0801 84.4546 89.3849 84.7211C88.4359 84.8711 87.5705 84.6666 86.935 84.5165C86.3381 84.3754 85.9439 84.2823 85.8735 84.5757C85.6798 85.2785 87.8351 87.0717 90.402 87.314C92.9205 87.5321 95.0758 86.3689 95.0758 86.3689C95.0758 86.3689 95.0516 86.9263 93.9618 88.1621C93.4044 88.7959 92.9928 89.0783 92.7548 89.2416C92.5377 89.3905 92.4649 89.4405 92.5573 89.5676C92.969 90.1007 94.5915 89.8584 100.137 84.7696C100.137 84.8302 100.143 84.8907 100.149 84.9513C100.155 85.0119 100.161 85.0725 100.161 85.1331C100.476 90.3188 105.61 89.1314 105.586 88.8164C105.575 88.694 105.37 88.633 105.072 88.5441C104.72 88.4394 104.239 88.296 103.794 87.9682C102.704 87.1686 102.874 86.7566 102.874 86.7566C102.874 86.7566 103.116 86.9747 103.77 87.0232C104.423 87.0717 104.787 87.0717 104.811 86.8051C104.817 86.7545 104.701 86.7056 104.518 86.6281C104 86.4088 102.941 85.961 102.583 84.6C102.317 83.5337 102.728 82.5887 103.261 81.9344C107.886 76.1914 108.613 72.92 108.952 70.7149V70.6906C108.958 70.6516 108.966 70.5984 108.975 70.5329C109.075 69.8253 109.381 67.6734 110.356 66.2319C110.356 66.2319 110.381 66.2076 110.381 66.1834C111.156 64.9476 112.318 63.7844 114.062 63.4452C114.304 63.3967 114.522 63.3725 114.715 63.3725H114.861C116.435 63.5179 116.968 64.1964 117.331 64.9233C117.839 65.8926 117.718 67.1285 117.064 68.1462C116.943 68.3401 116.75 68.5097 116.58 68.6551C116.558 68.6772 116.536 68.6987 116.515 68.7196C116.35 68.8821 116.22 69.0109 116.241 69.1398C116.265 69.2609 116.338 69.3578 116.459 69.4305C116.677 69.5275 116.943 69.5032 117.234 69.3578L117.331 69.3094C117.549 69.1882 117.742 69.0913 117.815 69.1398C117.839 69.1398 117.864 69.164 117.864 69.2125L117.865 69.2197C117.913 69.558 117.975 69.9952 116.701 71.0056C116.265 71.3449 115.854 71.5145 115.563 71.6115C115.321 71.6841 115.151 71.7568 115.103 71.878C115.079 71.9507 115.103 72.0234 115.127 72.0961C115.224 72.29 115.563 72.4111 115.999 72.4111C116.096 72.4111 116.217 72.4111 116.338 72.3869ZM119.501 83.6383C119.506 83.6265 119.51 83.6165 119.51 83.6064C119.801 82.6129 119.874 81.3528 119.486 79.9958C119.268 79.1719 118.517 77.3303 115.829 75.5855C114.518 74.7306 113.027 74.2345 112.414 74.0304C112.28 73.9858 112.188 73.9551 112.148 73.9378C112.555 73.001 113.193 72.6186 113.518 72.4238C113.638 72.3515 113.716 72.3051 113.723 72.2657C113.747 72.1203 112.851 71.7568 112.1 71.9265C111.446 72.0961 110.768 72.7261 110.526 73.1138C110.493 73.2265 110.465 73.3356 110.434 73.4584C110.351 73.7845 110.244 74.2075 109.945 75.0524C110.215 75.1787 110.643 75.372 111.12 75.5875C111.925 75.9512 112.869 76.3779 113.432 76.6518C116.072 77.9361 117.161 79.39 117.646 80.9893C117.888 81.789 117.791 82.5402 117.621 83.1945C117.016 85.3512 115.127 86.7082 113.311 86.272C112.076 85.9812 111.156 85.3512 110.72 84.503C110.356 83.8245 110.332 83.0006 110.623 82.1525C110.841 81.5225 111.228 81.2317 111.519 81.1105C111.906 80.9409 112.366 80.9651 112.754 81.1832C113.519 81.6138 113.552 82.186 113.576 82.5969L113.577 82.6129C113.577 82.8552 113.601 83.0491 113.771 83.1218C113.892 83.1703 114.062 83.146 114.207 83.0491C114.497 82.831 114.715 82.3221 114.764 81.7163C114.812 80.9893 114.376 79.8989 112.972 79.3173C111.567 78.7357 109.727 79.5354 109.025 81.0378C107.983 83.2672 108.807 85.2785 108.928 85.5693C108.831 85.642 108.54 85.9327 108.298 86.3932C107.886 87.1201 107.886 87.7744 107.983 88.0167C108.007 88.0652 108.056 88.1136 108.08 88.1136C108.177 88.1379 108.274 88.0409 108.419 87.8956C108.589 87.7259 108.807 87.5078 109.146 87.314C109.799 86.9505 110.429 87.0474 110.502 87.0717C111.64 87.7986 112.705 88.2833 113.965 88.2833C114.473 88.2833 115.03 88.1863 115.611 88.0167C117.5 87.4594 118.856 85.9327 119.486 83.7034C119.486 83.675 119.494 83.6549 119.501 83.6383ZM90.5231 39.0432C90.5231 39.0432 91.8308 39.431 93.4533 40.9334C94.3285 41.7417 95.2036 42.675 95.9247 43.4438C95.9817 43.5047 96.0378 43.5645 96.0929 43.6231L96.5288 40.7637C95.8992 40.061 95.1242 39.2371 94.1071 38.389C93.09 37.5408 91.298 36.5958 90.5231 36.2081V39.0432ZM91.1285 41.3211C91.1285 41.3211 90.9348 42.8235 91.3949 46.0706C91.6371 47.8153 92.073 49.4631 92.2909 50.1901L94.5673 49.1239C94.5424 49.0387 94.5114 48.9363 94.4757 48.819C94.2681 48.1351 93.9057 46.941 93.7197 45.6587C93.4049 43.6716 93.5017 43.2354 93.5017 43.2354C93.09 42.7992 91.855 41.5634 91.1285 41.3211ZM97.6912 69.4548C95.1727 69.7213 93.3806 67.6858 93.1143 65.5291C92.969 64.4145 93.2353 63.3482 93.865 62.5243C94.6641 61.4581 95.8265 60.9008 96.6499 60.8038C97.667 60.6827 98.5388 60.9735 99.0957 61.24C99.4832 61.4339 99.7738 61.555 99.8949 61.4823C100.137 61.3612 100.137 61.0704 100.04 60.7069C99.8949 60.2465 99.5559 59.7861 99.0473 59.4711C98.4419 59.0834 97.6427 58.8895 96.7467 58.9137C94.1071 59.0107 92.5815 61.0946 92.2667 61.5793C92.2183 61.4339 92.073 61.1673 91.7339 60.9492C91.2012 60.5858 90.62 60.4404 90.4504 60.6585C90.3477 60.7612 90.4193 60.864 90.5321 61.026C90.5522 61.055 90.5737 61.0858 90.5957 61.1189C90.7653 61.337 91.0074 61.652 91.1769 62.1609C91.3271 62.5473 91.3062 63.067 91.2827 63.6525C91.2796 63.7277 91.2766 63.8041 91.2738 63.8813C91.2709 63.9744 91.2673 64.0727 91.2635 64.1751C91.236 64.9266 91.2002 65.9033 91.3707 66.6923C91.9034 69.0913 94.1071 71.5388 97.4006 71.6357C97.7638 71.6599 98.1513 71.6115 98.4903 71.5145C99.9918 71.1026 100.985 70.3029 101.663 69.479C101.711 69.5032 101.784 69.5517 101.856 69.6244L101.913 69.6703C102.464 70.1224 103.532 70.997 104.351 71.4418C104.569 70.6906 104.714 69.6244 104.714 69.0671C104.496 68.9217 103.164 68.0008 101.324 66.0865C99.7738 64.4629 99.2895 63.9298 99.2895 63.9298C98.9989 63.6875 98.006 62.8878 96.9647 62.8394C96.0202 62.8151 95.7054 63.0332 95.6812 63.0574L95.9476 63.4452C95.9743 63.4786 96.0286 63.5524 96.113 63.6673C96.3349 63.9693 96.7649 64.5545 97.449 65.4322C98.4177 66.6681 99.6043 67.7827 99.9433 68.0978L100.089 68.2674C99.5559 68.8247 98.7809 69.3336 97.6912 69.4548ZM73.7168 88.9618C76.647 88.4771 79.0445 87.7744 82.1442 84.9634C85.5829 81.8617 86.8664 77.403 87.4476 75.1494C88.2467 71.9022 88.1741 65.723 88.1741 65.723V33.6637C88.1741 33.6637 87.9561 26.7817 88.4405 25.037C88.9248 23.2922 89.9661 22.0322 90.5957 21.3779C92.0003 19.9482 94.9305 19.4635 94.9305 19.4635C95.7781 19.3182 95.9718 18.9062 95.8992 18.4943C95.8023 17.8642 95.2937 17.8158 95.2937 17.8158L74.4191 17.7673C74.4191 17.7673 73.8863 17.8642 73.7895 18.47C73.7168 18.882 73.9106 19.2939 74.7581 19.4393C74.7581 19.4393 77.7126 19.8997 79.0929 21.3537C79.7225 22.0079 80.7638 23.268 81.2482 25.0127C81.7325 26.7332 81.5145 33.6394 81.5145 33.6394L81.0544 65.6261C81.0544 65.8698 81.0591 66.2596 81.065 66.7475C81.0918 68.9768 81.1432 73.2545 80.8849 75.004C80.4248 77.9603 79.7467 80.4562 77.9305 82.3948C76.1143 84.3334 74.4433 84.9634 71.9732 84.9634C69.5031 84.9634 67.8806 84.2122 66.137 82.831C64.3935 81.4498 61.0758 78.3238 61.0758 78.3238L64.2724 88.6468C64.2724 88.6468 70.4718 89.5191 73.7168 88.9618ZM55.3849 87.5078C55.7482 87.8471 57.637 85.7146 58.7752 83.3156C59.9134 80.8924 60.204 78.3723 59.8408 76.1429C59.647 74.8343 58.7994 73.0169 58.2909 71.9992C59.5986 72.8715 61.0516 73.3804 62.1171 73.55C65.1442 74.0589 67.8806 74.1801 69.8906 73.7197C70.5281 73.5669 71.0125 73.4075 71.382 73.2859C72.009 73.0796 72.3052 72.9821 72.4576 73.2108C72.7239 73.6227 71.5858 74.7132 67.9291 75.2948C64.1271 75.9006 61.8023 75.0282 61.8023 75.0282C61.8023 75.0282 61.8507 75.8521 63.1826 76.8699C63.7336 77.303 64.2126 77.5962 64.6408 77.8583C65.2665 78.2413 65.7837 78.5578 66.2581 79.1477C66.6887 79.6758 66.721 80.2118 66.7433 80.5822C66.7599 80.8576 66.7709 81.0414 66.9362 81.062C67.198 81.1112 67.3272 80.7066 67.5104 80.1325C67.5983 79.8571 67.6987 79.5425 67.8322 79.2204C68.2197 78.2511 67.8806 77.2818 67.8806 77.2818C67.8806 77.2818 69.261 78.445 71.9248 78.1784C73.7895 77.9845 74.9034 77.6453 74.7823 77.2576C74.7219 77.0761 74.5483 77.0645 74.1851 77.0402C73.9662 77.0256 73.6785 77.0063 73.3051 76.9426C72.3123 76.7729 71.9248 76.361 71.9248 76.361C71.9248 76.361 73.5473 75.8279 75.5573 74.4466C77.5672 73.0654 78.8749 71.2964 78.5843 70.8845C78.3823 70.572 77.8318 70.7615 77.1444 70.9981C76.9257 71.0734 76.693 71.1535 76.4533 71.2237C75.0487 71.6357 74.5402 71.6115 74.5402 71.6115C74.5402 71.6115 74.3949 71.4176 75.0245 70.6664C75.4712 70.1325 75.8988 69.8531 76.2064 69.6521C76.4991 69.4608 76.683 69.3406 76.6712 69.1398C76.647 68.7278 75.3393 68.2674 71.9732 69.7698C70.7624 70.3029 69.4789 71.151 69.4789 71.151C69.4789 71.151 69.9875 69.5759 70.1812 68.4855C70.1992 68.3863 70.2191 68.2792 70.2401 68.1663C70.4446 67.0655 70.7506 65.4187 70.3992 65.2868C70.1729 65.2019 70.12 65.2906 69.9609 65.5576C69.8475 65.7478 69.6802 66.0285 69.3578 66.4015C69.2346 66.5409 69.1315 66.6637 69.0428 66.7694C68.7306 67.1412 68.5966 67.3009 68.3892 67.2254C68.154 67.1313 68.1117 66.8543 68.0585 66.5063C68.0296 66.3168 67.9974 66.1062 67.9291 65.8926C67.7353 65.3111 67.251 64.5114 67.0573 64.6325C66.8741 64.7344 66.7252 65.3581 66.5422 66.1246C66.2896 67.1821 65.9722 68.5114 65.4106 69.1155C65.0957 69.4548 64.6841 69.6729 64.2482 69.8425C63.5943 70.109 62.8678 70.206 62.1655 70.206C61.3422 70.206 60.5188 70.0606 59.7681 69.7698C59.7329 69.7559 59.6963 69.7416 59.6584 69.7268C58.8376 69.4058 57.4248 68.8533 56.4989 67.3708C56.4989 67.3708 56.3778 67.1527 56.3536 67.1527V67.1285C55.5544 67.0315 54.7311 66.8135 53.7382 66.353C54.0046 67.1527 54.4163 68.1705 54.7311 68.9217C55.8208 71.563 57.3222 75.9975 55.8935 79.4869C54.1741 83.6791 50.1784 84.4788 49.7425 83.5822C49.6087 83.3145 49.9676 83.142 50.5616 82.8567C51.5804 82.3673 53.2906 81.5458 54.392 79.3416C55.7966 76.5064 54.7311 72.9442 54.7311 72.9442C54.7311 72.9442 54.7311 75.9975 52.5274 78.0815C50.7018 79.8018 49.3432 79.6789 48.613 79.6129C48.3456 79.5887 48.1624 79.5721 48.0715 79.6566C47.7083 80.0443 48.3137 80.3351 48.9191 80.6259C49.3066 80.7955 49.9846 80.9651 49.9846 80.9651C49.9846 80.9651 49.2823 81.6194 48.2653 82.1283C48.0924 82.217 47.9334 82.2959 47.7886 82.3678C47.142 82.6887 46.7792 82.8689 46.7396 83.146C46.7154 83.4126 48.0473 84.7211 49.3066 85.2785C50.5658 85.8358 52.1157 85.9812 52.1157 85.9812C52.1157 85.9812 52.2368 85.957 51.8251 86.6839C51.6705 86.9503 51.513 87.1618 51.3826 87.3368C51.1451 87.6555 50.9978 87.8532 51.1228 88.0409C51.4376 88.4771 51.7524 88.4044 53.5687 87.2655C55.3849 86.1266 55.8935 85.3996 55.8935 85.3996C55.8935 85.3996 55.845 85.545 55.6513 86.272C55.5805 86.5287 55.4871 86.724 55.4112 86.8827C55.2794 87.1583 55.2005 87.3233 55.3849 87.5078ZM57.4917 47.9607C57.1527 48.4211 56.5715 49.4874 56.4262 50.4809C57.0074 52.1771 57.7097 52.8799 58.194 53.0737C58.6057 51.5229 59.0658 49.972 59.7923 48.5665C59.6712 48.4454 58.8237 47.7184 57.4917 47.9607ZM54.2225 59.4468C54.3194 59.7376 56.063 60.9008 56.741 60.9735C56.741 60.9735 56.6684 59.8346 56.9106 58.8653C56.9106 58.8653 55.4818 58.211 54.61 56.6844C54.3678 57.484 54.2225 58.841 54.2225 59.4468ZM50.0573 46.4099C49.912 46.7006 49.7667 47.0399 49.5972 47.5245C48.6285 50.2143 48.3137 51.4986 48.3137 54.3338C48.2895 57.4356 49.2581 60.295 51.0502 62.3547C52.7453 64.3175 55.0701 65.4564 57.5886 65.5776C61.2089 65.7467 64.2759 63.5088 65.4472 62.6541L65.459 62.6455C67.1764 61.3914 70.2728 58.1566 70.549 57.868C70.561 57.8555 70.5677 57.8485 70.5687 57.8475L70.6171 57.7748L70.6655 57.8475C70.6678 57.8498 70.6797 57.8682 70.7002 57.9C70.8963 58.2041 71.8849 59.7373 72.8935 60.198C73.7168 60.5858 74.7824 60.4646 75.2425 60.295C75.412 60.2223 75.4604 60.198 75.4604 60.1738C75.4604 60.1496 75.3393 60.0526 75.2182 59.9557L75.201 59.941C74.6861 59.4995 73.6423 58.6046 73.4747 56.9751C73.3051 55.3031 76.6712 53.7522 79.0929 53.2918L79.1655 50.9413C78.8507 50.9655 77.3735 51.0867 77.0587 51.1836C72.7531 52.3939 70.0179 55.0064 67.3569 57.5481L67.3479 57.5567C64.5145 60.2707 61.8265 62.8394 57.6613 62.8394H57.5644C55.9903 62.8151 54.4163 62.0639 53.157 60.6827C51.5345 58.9137 50.6143 56.442 50.7838 54.2127C50.9775 51.6198 51.8977 49.4874 53.496 48.0577C54.7553 46.943 56.3778 46.2887 57.9761 46.2887H58.0729C59.308 46.3129 60.5672 46.7976 61.5359 47.5972C62.3108 48.2273 63.2311 49.342 63.3279 51.1109C63.4006 52.4922 62.9405 53.7765 62.1171 54.5519C61.8749 54.7942 60.543 55.9089 58.3635 55.4243C57.3949 55.2062 56.5957 54.3823 56.1598 53.7038C55.845 53.2191 55.6271 52.6376 55.4333 52.056C55.3849 51.9106 55.2154 51.7652 55.0217 51.7894C54.7795 51.8137 54.6342 52.1529 54.5858 52.6618C54.4647 54.2127 55.506 56.7328 58.194 57.4598C62.5772 58.6472 64.8051 55.4 65.2895 54.043C65.8222 52.5649 65.8465 51.7167 65.8465 51.7167C65.8465 51.6683 65.8949 51.5229 65.9918 51.4986C66.1128 51.4744 66.2097 51.5956 66.2581 51.6925C66.4761 52.0318 67.6143 52.7103 68.5829 52.4437C69.6346 52.1806 70.0965 51.2802 70.5507 50.3948L70.5687 50.3597L70.5871 50.3228C70.992 49.5121 71.3805 48.7344 72.2154 48.615C73.2083 48.4454 73.5231 48.5908 73.7168 48.6877L73.7244 48.6907C73.84 48.7371 73.8904 48.7573 74.0801 48.615C74.2254 48.5181 74.2254 48.3242 74.1769 48.203C74.0074 47.6699 72.9903 46.8945 71.6342 46.943C70.3192 46.9669 69.8304 47.3924 69.2822 47.8696L69.261 47.888C69.2341 47.9111 69.2073 47.9342 69.1803 47.9575C68.8668 48.2282 68.5369 48.513 68.0017 48.7362C66.6251 49.3233 65.9005 49.1739 65.7885 49.1508C65.7804 49.1491 65.7755 49.1481 65.7738 49.1481H65.7496L65.7254 49.1239C65.7251 49.1233 65.7245 49.1222 65.7237 49.1205C65.6476 48.9638 63.2189 43.9624 57.7581 43.9624H57.7097C54.7464 43.9863 53.0566 45.2373 52.4773 45.6662L52.4547 45.6829C52.261 45.8283 52.2125 45.8525 52.1641 45.8283C52.1641 45.8198 52.1582 45.8113 52.1515 45.8017C52.1391 45.7841 52.1242 45.7628 52.1399 45.7314C52.1883 45.489 51.8009 44.0351 51.5345 43.4778C51.2197 42.7992 50.3963 42.4358 50.1299 42.4115C50.3237 42.6296 50.6385 43.4293 50.5658 44.4713C50.5174 45.3679 50.3479 45.7556 50.0573 46.4099ZM57.6499 17.8149C57.6423 17.8155 57.6379 17.8158 57.637 17.8158C53.157 18.2035 48.5559 21.5475 48.3137 28.1387C48.12 34.5845 51.6313 38.2436 54.9974 39.5037C59.1385 41.0545 61.4875 40.1579 61.5843 40.1095C61.6812 40.0852 61.7781 40.1095 61.8507 40.1822C61.9234 40.2549 61.9234 40.376 61.8749 40.4487L61.8507 40.4729C61.8298 40.4953 61.8071 40.5194 61.7829 40.5453C61.3856 40.9687 60.5622 41.8462 60.0829 42.5085C60.4704 42.5569 60.9789 42.7266 61.318 42.8719L61.3874 42.9035C61.8702 43.123 62.0784 43.2177 62.2866 43.3566C63.5217 41.4907 65.2168 39.8187 67.2994 38.4132C68.922 37.2985 71.5616 36.2565 74.2012 35.6507L74.4918 35.578L74.2738 35.7477C73.4989 36.3535 72.9419 37.0077 72.4333 37.9043C71.7795 39.019 71.271 40.6183 71.4405 41.0788C71.4647 41.1272 71.4889 41.1272 71.4889 41.1272C71.6272 41.1826 71.6866 41.2063 71.73 41.1894C71.7627 41.1767 71.7864 41.1411 71.8279 41.0788C71.8764 40.9818 71.9732 40.8607 72.1427 40.6668C72.3607 40.4487 72.5544 40.3276 72.7239 40.3276H72.7482C72.8935 40.3276 73.0145 40.4003 73.0872 40.4729L73.1114 40.4972C73.2295 40.5917 73.2094 40.7323 73.1634 41.0539L73.1598 41.0788C73.063 41.7088 72.8935 42.8719 73.4747 43.7928C74.2496 45.0529 74.9519 45.8768 75.3393 45.9494C75.412 45.9494 75.4362 45.9494 75.4604 45.9252C75.5088 45.901 75.6299 45.7314 75.4846 45.0286C75.3393 44.2532 74.9761 41.6603 75.3878 39.8187C75.8721 37.5651 77.3251 35.3599 79.1413 35.3599H79.3108V33.276C78.9476 33.276 77.1071 33.1306 76.0416 31.9916C75.4846 31.3858 75.2183 30.6104 75.2425 29.6653C75.3151 27.6541 76.2353 26.4424 77.0103 25.6186C77.1314 25.4974 77.5188 25.0854 77.3977 24.8431C77.3009 24.6493 77.1314 24.5523 76.8892 24.5281H76.8165C75.9205 24.5281 74.3949 25.6428 73.9106 26.3698C73.3545 27.2044 73.0201 28.2166 72.9286 28.4935C72.9244 28.506 72.9208 28.517 72.9177 28.5264C72.8935 28.5991 72.845 28.6476 72.7724 28.6961C72.5786 28.793 72.1185 28.7203 71.7795 28.3326C71.5131 28.0418 71.5131 27.4602 71.5131 27.339V27.1694C71.5131 27.1694 71.4647 27.1452 71.4163 27.1452C71.3436 27.1452 71.1983 27.1936 71.053 27.4117C70.7382 27.9206 71.0046 30.4165 71.9732 31.7736C72.2109 32.0946 72.4194 32.3807 72.6045 32.6346C72.7966 32.8981 72.9634 33.127 73.1114 33.3244L73.1841 33.4214L73.0872 33.4456C72.3607 33.5667 71.6584 33.7606 71.0046 33.9787C70.1283 34.3027 69.2221 34.6718 68.3212 35.0386C68.0769 35.1381 67.8329 35.2375 67.59 35.3357H67.5658C66.2339 35.893 64.8536 36.4504 63.5701 36.8623C59.8165 38.0497 56.8137 37.9528 54.9006 36.5958C53.0117 35.2388 50.7596 32.7186 50.8322 28.381C50.8806 26.1517 51.8493 23.8254 53.3507 22.2745C54.6584 20.966 56.3051 20.2632 58.0972 20.2632H58.2909C63.0373 20.3844 64.6598 23.3892 64.6114 25.9336C64.563 28.3568 63.2311 29.9319 61.0031 30.1258C59.5502 30.2469 58.412 29.2776 58.0729 28.2599C57.8613 27.6245 57.8323 27.012 57.8087 26.5111C57.808 26.4962 57.8073 26.4814 57.8066 26.4667C57.8045 26.4238 57.8027 26.3817 57.8008 26.3406C57.781 25.8941 57.766 25.5578 57.5886 25.4247C57.516 25.352 57.4433 25.3278 57.3464 25.352C57.1527 25.4005 56.9106 25.667 56.7895 26.0063C56.2567 27.339 56.3051 28.8172 56.8863 30.1015C57.5402 31.4828 59.3564 32.7428 61.5843 32.4763C63.8849 32.1855 65.6285 30.9012 66.5003 28.793C67.0573 27.4117 67.1541 26.5878 67.0815 25.7397C67.0761 25.6859 67.0719 25.6309 67.0676 25.5742C67.0525 25.3755 67.0358 25.1555 66.9604 24.8916C66.9362 24.8189 66.9604 24.7462 66.9846 24.6977C67.0331 24.6493 67.0815 24.6008 67.1541 24.6008C67.2268 24.6008 68.7524 24.31 69.6969 22.953C71.392 20.4813 70.7624 19.1243 70.5202 18.7608C70.3265 18.4458 70.0843 18.3489 70.0359 18.3731C69.9951 18.3935 69.9372 18.6027 69.891 18.7696C69.8823 18.801 69.8741 18.8309 69.8664 18.8577C69.6969 19.5362 69.4305 20.554 68.147 20.9417C67.0515 21.2916 66.2925 20.7659 65.3301 20.0993C65.2927 20.0734 65.2549 20.0472 65.2168 20.0209H65.1926C64.5145 19.5362 63.7396 19.0031 62.6741 18.567C60.318 17.6332 57.8495 17.8013 57.6499 17.8149Z" fill="white"/>
<path d="M84.9046 105.343C84.953 105.343 84.9773 105.367 85.0015 105.391C85.0257 105.415 85.0257 105.464 84.953 105.488C84.6867 106.312 84.3476 107.79 84.2508 108.275C84.2508 108.323 84.2023 108.372 84.1539 108.372H83.9602C83.9359 108.372 83.9117 108.348 83.8875 108.323C83.8633 108.299 83.8633 108.251 83.8633 108.226C83.8875 108.129 83.9117 107.936 83.9117 107.79C83.9117 106.966 83.1852 106.748 77.7849 106.748V124.874C77.7849 127.321 78.1966 127.394 79.2379 127.564C79.2864 127.564 79.3348 127.612 79.3348 127.661V127.806C79.3348 127.83 79.3348 127.855 79.3106 127.879C79.2864 127.903 79.2622 127.903 79.2379 127.903C78.8505 127.879 77.8334 127.83 76.5741 127.83C75.5881 127.83 74.8195 127.864 74.2404 127.889L74.0741 127.896L73.9103 127.903C73.8861 127.903 73.8619 127.903 73.8377 127.879C73.8134 127.855 73.8134 127.83 73.8134 127.806V127.661C73.8134 127.612 73.8619 127.564 73.9103 127.564C74.9758 127.394 75.3633 127.321 75.3633 124.874V106.748C70.6653 106.748 69.2365 106.772 68.3405 108.663C68.3163 108.711 68.2921 108.735 68.2436 108.735H68.0983C68.0741 108.735 68.0499 108.711 68.0257 108.687C68.0015 108.663 68.0015 108.614 68.0015 108.59C68.1225 108.033 68.2678 107.499 68.4374 106.918C68.5609 106.526 68.667 106.117 68.7853 105.661L68.849 105.415C68.849 105.367 68.8975 105.343 68.9459 105.343C75.7992 105.488 83.4516 105.367 84.9046 105.343Z" fill="white"/>
<path fill-rule="evenodd" clip-rule="evenodd" d="M84.7837 116.829C84.7837 111.207 88.9247 105.392 95.8991 105.392C101.953 105.392 106.7 110.383 106.724 116.732C106.724 123.033 101.856 127.952 95.6569 127.952C88.8521 127.952 84.7837 122.306 84.7837 116.829ZM95.6327 127.055C100.621 127.055 103.721 123.178 103.721 116.926C103.721 109.051 99.3863 106.264 95.6327 106.264C89.8207 106.264 87.7623 111.91 87.7623 116.732C87.7623 123.202 90.6925 127.055 95.6327 127.055Z" fill="white"/>
<path d="M58.097 109.463C58.097 112.128 60.0828 113.485 62.1896 114.915L62.2694 114.97C64.5937 116.576 66.9848 118.228 67.0087 121.894C67.0087 125.529 64.4176 128.049 60.7124 128.049C59.6383 128.049 58.8701 127.884 58.199 127.74L58.1697 127.734L58.1121 127.721C57.5758 127.605 57.0573 127.492 56.4261 127.492C56.2324 127.492 56.1597 127.492 55.9902 127.516C55.9418 127.516 55.9176 127.516 55.8933 127.492C55.8691 127.467 55.8691 127.419 55.8691 127.395C55.8933 127.249 55.8933 126.91 55.8933 126.644C55.8933 126.304 55.8691 126.013 55.8207 125.674C55.8134 125.571 55.8038 125.466 55.794 125.359C55.7716 125.113 55.748 124.854 55.748 124.584C55.748 124.317 55.7723 123.421 56.1113 122.669C56.1355 122.621 56.1597 122.597 56.2082 122.597H56.305C56.3292 122.597 56.3535 122.597 56.3777 122.621C56.4019 122.621 56.4019 122.669 56.4019 122.694V122.791C56.3777 123.009 56.3535 123.227 56.3535 123.421C56.3535 125.795 58.6298 127.055 60.9062 127.055C62.8677 127.055 64.8535 125.844 64.8535 123.154C64.8535 120.295 62.7951 118.889 60.5914 117.387L60.5067 117.328C58.2566 115.772 55.9418 114.171 55.9418 110.844C55.9418 107.645 58.2666 105.416 61.56 105.416C62.4733 105.416 63.1929 105.545 63.8405 105.662L63.9574 105.683L64.0268 105.695C64.5344 105.788 65.0209 105.876 65.5073 105.876C65.6768 105.876 65.8221 105.876 65.9916 105.852C66.0401 105.852 66.0643 105.852 66.0885 105.876C66.1127 105.901 66.1127 105.949 66.1127 105.973C66.0401 106.652 66.0159 107.185 66.0159 107.936C66.0159 108.372 66.0159 109.124 66.0401 109.56C66.0401 109.584 66.0401 109.608 66.0159 109.632C65.9916 109.657 65.9674 109.657 65.9432 109.657H65.7737C65.7253 109.657 65.6768 109.608 65.6768 109.56C65.2409 107.379 63.8364 106.216 61.6084 106.216C59.0173 106.216 58.097 107.888 58.097 109.463Z" fill="white"/>
<path fill-rule="evenodd" clip-rule="evenodd" d="M125.879 127.564C124.105 126.965 122.047 123.302 120.525 120.596L120.317 120.225C119.523 118.81 118.897 117.696 118.42 117.241C121.011 116.224 122.561 114.164 122.561 111.668C122.561 107.888 119.655 105.44 115.151 105.44C115.016 105.44 114.845 105.445 114.65 105.45L114.648 105.45C114.389 105.457 114.088 105.464 113.771 105.464C113.141 105.489 112.439 105.489 111.931 105.489C110.575 105.489 110.017 105.489 108.976 105.416C108.952 105.416 108.927 105.416 108.903 105.44C108.879 105.464 108.879 105.489 108.879 105.513V105.658C108.879 105.707 108.927 105.755 108.976 105.755C110.017 105.925 110.38 106.337 110.38 108.445V124.923C110.38 127.37 109.993 127.443 108.927 127.613C108.879 127.613 108.831 127.661 108.831 127.71V127.855C108.831 127.879 108.831 127.904 108.855 127.928C108.879 127.952 108.903 127.952 108.927 127.952C109.043 127.948 109.167 127.942 109.3 127.937C109.888 127.912 110.647 127.879 111.615 127.879C112.875 127.879 113.916 127.928 114.304 127.952C114.328 127.952 114.352 127.952 114.376 127.928C114.4 127.904 114.4 127.879 114.4 127.855V127.71C114.4 127.661 114.352 127.613 114.304 127.613C113.238 127.443 112.851 127.37 112.851 124.923V117.968H114.715C115.054 117.968 115.49 117.92 115.974 117.847C116.501 118.35 117.122 119.515 117.51 120.244L117.524 120.27C117.597 120.416 117.67 120.561 117.742 120.658C121.375 127.467 121.762 127.879 125.031 128.001C125.395 128.001 125.54 128.001 125.806 127.976C125.855 127.976 125.903 127.928 125.903 127.879V127.686C125.952 127.637 125.927 127.589 125.879 127.564ZM119.776 112.056C119.776 114.212 119.195 117.096 114.255 117.096H112.875V106.628C113.747 106.385 114.328 106.337 115.006 106.337C117.888 106.361 119.776 108.59 119.776 112.056Z" fill="white"/>
<path d="M53.1567 105.367C52.5513 105.391 51.3647 105.416 50.3476 105.416C49.2578 105.416 48.047 105.391 47.4174 105.367C47.3932 105.367 47.3689 105.367 47.3447 105.391C47.3205 105.416 47.3205 105.44 47.3205 105.464V105.61C47.3205 105.658 47.3689 105.706 47.4174 105.706C48.4829 105.876 49.1852 105.997 49.1852 108.299V121.7C49.1852 124.22 47.9744 126.958 46.037 126.958C45.6738 126.958 45.3348 126.934 45.0199 126.885C43.6638 126.546 42.8162 125.601 42.3077 124.923C42.235 124.826 42.1624 124.729 42.114 124.632C41.557 123.784 41.2906 123.057 41.2906 123.033C41.2664 122.96 41.1937 122.936 41.1211 122.936C41.0484 122.96 41 123.008 41 123.105L41.4601 126.619C41.4601 126.667 41.4843 126.716 41.5328 126.74C42.8162 127.564 44.3903 127.806 44.6809 127.831C45.1895 127.903 45.6011 127.927 45.8433 127.927H46.1581C49.4031 127.927 51.5826 125.286 51.5826 121.361V108.299C51.5826 106.07 52.1042 105.951 53.1473 105.714L53.1809 105.706L53.2293 105.682C53.2778 105.682 53.302 105.634 53.302 105.585V105.44C53.302 105.416 53.302 105.391 53.2778 105.367H53.1567Z" fill="white"/>
<defs>
<linearGradient id="paint0_linear" x1="168" y1="140" x2="114.831" y2="73.5936" gradientUnits="userSpaceOnUse">
<stop stop-color="#990000"/>
<stop offset="1" stop-color="#FB4848"/>
</linearGradient>
</defs>
</svg>
