<svg width="329" height="158" viewBox="0 0 329 158" fill="none" xmlns="http://www.w3.org/2000/svg">
<rect x="328.5" y="0.5" width="108" height="202" transform="rotate(90 328.5 0.5)" fill="white" stroke="#EAE8E1"/>
<rect x="0.5" y="0.5" width="108" height="157" fill="white" stroke="#EAE8E1"/>
<path d="M24.2461 36.4875C23.5273 35.9945 22.8498 35.5265 22.8498 34.6074C22.8498 34.0642 23.1637 33.4877 24.0478 33.4877C24.8079 33.4877 25.2871 33.8887 25.4358 34.6408C25.4358 34.6575 25.4523 34.6742 25.4689 34.6742H25.5267C25.5349 34.6742 25.5432 34.6742 25.5515 34.6659C25.5597 34.6575 25.5597 34.6491 25.5597 34.6408C25.5515 34.4904 25.5515 34.2313 25.5515 34.0809C25.5515 33.8219 25.5597 33.6381 25.5845 33.4041C25.5845 33.3957 25.5845 33.379 25.5763 33.3707C25.568 33.3623 25.5597 33.3623 25.5432 33.3623C25.4854 33.3707 25.4358 33.3707 25.378 33.3707C25.2045 33.3707 25.031 33.3373 24.8492 33.3038C24.6179 33.2621 24.3617 33.2119 24.0312 33.2119C22.9076 33.2119 22.1144 33.9807 22.1144 35.0837C22.1144 36.2451 22.9241 36.7966 23.7008 37.3398C24.4526 37.8578 25.1549 38.3425 25.1549 39.3285C25.1549 40.256 24.4774 40.6738 23.8082 40.6738C23.0315 40.6738 22.2549 40.2393 22.2549 39.4204C22.2549 39.3535 22.2632 39.2783 22.2714 39.2031V39.1697C22.2714 39.1614 22.2714 39.1447 22.2632 39.1447C22.2549 39.1363 22.2466 39.1363 22.2384 39.1363H22.2053C22.1888 39.1363 22.1805 39.1447 22.1723 39.1614C22.0566 39.4204 22.0483 39.7296 22.0483 39.8215C22.0483 39.9552 22.0649 40.0805 22.0731 40.1975C22.0897 40.3145 22.0979 40.4148 22.0979 40.5317C22.0979 40.6237 22.0979 40.7406 22.0897 40.7908C22.0897 40.7991 22.0897 40.8158 22.0979 40.8242C22.1062 40.8326 22.1144 40.8326 22.131 40.8326C22.1888 40.8242 22.2136 40.8242 22.2797 40.8242C22.5028 40.8242 22.6845 40.866 22.8746 40.9078C23.1059 40.9579 23.3703 41.0164 23.7421 41.0164C25.0062 41.0164 25.8902 40.1474 25.8902 38.894C25.882 37.6155 25.0475 37.0473 24.2461 36.4875Z" fill="#990000"/>
<path d="M38.4156 37.1815C38.4156 39.3374 37.358 40.6743 35.656 40.6743C33.9705 40.6743 32.9708 39.3457 32.9708 37.1147C32.9708 35.4519 33.6731 33.5049 35.656 33.5049C36.9366 33.5049 38.4156 34.4659 38.4156 37.1815ZM35.7469 33.2041C33.3674 33.2041 31.9546 35.2095 31.9546 37.1481C31.9546 39.0366 33.3426 40.9835 35.6643 40.9835C37.7794 40.9835 39.4401 39.2872 39.4401 37.1147C39.4318 34.9254 37.8124 33.2041 35.7469 33.2041Z" fill="#990000"/>
<path d="M43.8932 35.5014C43.8932 36.2451 43.6949 37.2395 42.0094 37.2395H41.5385V33.6297C41.8359 33.5462 42.0342 33.5294 42.2655 33.5294C43.2487 33.5378 43.8932 34.3065 43.8932 35.5014ZM45.9752 40.8493C45.3638 40.6404 44.6533 39.3535 44.1328 38.4177C43.8353 37.8829 43.604 37.4567 43.4305 37.2896C44.3145 36.9387 44.8433 36.2284 44.8433 35.3678C44.8433 34.0642 43.8519 33.2203 42.3151 33.2203C42.2077 33.2203 42.0342 33.2286 41.8442 33.2286C41.6293 33.237 41.3897 33.237 41.2162 33.237C40.7536 33.237 40.5635 33.237 40.2083 33.2119C40.2 33.2119 40.1917 33.2119 40.1835 33.2203C40.1752 33.2286 40.1752 33.237 40.1752 33.2453V33.2955C40.1752 33.3122 40.1917 33.3289 40.2083 33.3289C40.5635 33.3874 40.6875 33.5294 40.6875 34.2564V39.9385C40.6875 40.7824 40.5553 40.8075 40.1917 40.866C40.1752 40.866 40.1587 40.8827 40.1587 40.8994V40.9495C40.1587 40.9579 40.1587 40.9662 40.167 40.9746C40.1752 40.983 40.1835 40.983 40.1917 40.983C40.4066 40.9746 40.704 40.9579 41.1088 40.9579C41.5385 40.9579 41.8937 40.9746 42.0259 40.983C42.0342 40.983 42.0425 40.983 42.0507 40.9746C42.059 40.9662 42.059 40.9579 42.059 40.9495V40.8994C42.059 40.8827 42.0425 40.866 42.0259 40.866C41.6624 40.8075 41.5302 40.7824 41.5302 39.9385V37.5403H42.1664C42.2821 37.5403 42.4308 37.5236 42.596 37.4985C42.7778 37.674 42.9926 38.0834 43.1248 38.3341C43.1496 38.3843 43.1744 38.4344 43.1991 38.4678C44.4385 40.8158 44.5707 40.9579 45.686 40.9997C45.81 40.9997 45.8595 40.9997 45.9504 40.9913C45.967 40.9913 45.9835 40.9746 45.9835 40.9579V40.891C46 40.8743 45.9917 40.8576 45.9752 40.8493Z" fill="#990000"/>
<path d="M32.029 33.2042C32.0207 33.1959 32.0125 33.1875 31.996 33.1875C31.5002 33.1959 28.8894 33.2376 26.5512 33.1875C26.5347 33.1875 26.5182 33.1959 26.5182 33.2126C26.4686 33.4048 26.4273 33.5719 26.3777 33.7306C26.3199 33.9312 26.2703 34.115 26.229 34.3072C26.229 34.3156 26.229 34.3323 26.2373 34.3406C26.2455 34.349 26.2538 34.3573 26.2621 34.3573H26.3116C26.3281 34.3573 26.3364 34.349 26.3447 34.3323C26.6504 33.6805 27.1378 33.6721 28.7407 33.6721V39.9224C28.7407 40.7664 28.6085 40.7914 28.245 40.8499C28.2284 40.8499 28.2119 40.8666 28.2119 40.8833V40.9335C28.2119 40.9418 28.2119 40.9502 28.2202 40.9585C28.2284 40.9669 28.2367 40.9669 28.245 40.9669C28.4515 40.9585 28.7489 40.9418 29.1538 40.9418C29.5834 40.9418 29.9304 40.9585 30.0626 40.9669C30.0709 40.9669 30.0791 40.9669 30.0874 40.9585C30.0957 40.9502 30.0957 40.9418 30.0957 40.9335V40.8833C30.0957 40.8666 30.0791 40.8499 30.0626 40.8499C29.7074 40.7914 29.5669 40.7664 29.5669 39.9224V33.6721C31.4094 33.6721 31.6572 33.7473 31.6572 34.0314C31.6572 34.0816 31.649 34.1484 31.6407 34.1819C31.6407 34.1902 31.6407 34.2069 31.649 34.2153C31.6572 34.2236 31.6655 34.232 31.6737 34.232H31.7398C31.7564 34.232 31.7729 34.2153 31.7729 34.1986C31.8059 34.0314 31.9216 33.5217 32.0125 33.2376C32.0373 33.2293 32.0373 33.2126 32.029 33.2042Z" fill="#990000"/>
<path d="M21.1642 33.1953C20.9576 33.2037 20.5528 33.212 20.2058 33.212C19.834 33.212 19.4209 33.2037 19.2061 33.1953C19.1978 33.1953 19.1895 33.1953 19.1813 33.2037C19.173 33.212 19.173 33.2204 19.173 33.2287V33.2789C19.173 33.2956 19.1895 33.3123 19.2061 33.3123C19.5696 33.3708 19.8092 33.4126 19.8092 34.2064V38.8272C19.8092 39.6963 19.3961 40.6405 18.7351 40.6405C18.6112 40.6405 18.4955 40.6321 18.3881 40.6154C17.9254 40.4984 17.6363 40.1725 17.4628 39.9386C17.438 39.9052 17.4132 39.8717 17.3967 39.8383C17.2066 39.5458 17.1157 39.2952 17.1157 39.2868C17.1075 39.2617 17.0827 39.2534 17.0579 39.2534C17.0331 39.2617 17.0166 39.2785 17.0166 39.3119L17.1736 40.5235C17.1736 40.5402 17.1818 40.5569 17.1984 40.5653C17.6363 40.8494 18.1733 40.9329 18.2724 40.9413C18.4459 40.9664 18.5864 40.9747 18.669 40.9747C18.7351 40.9747 18.7764 40.9747 18.7764 40.9747C19.8836 40.9747 20.6271 40.0639 20.6271 38.7102V34.2064C20.6271 33.4293 20.8089 33.3959 21.1724 33.3123L21.189 33.3039C21.2055 33.3039 21.2138 33.2872 21.2138 33.2705V33.2204C21.2138 33.212 21.2138 33.2037 21.2055 33.1953C21.1807 33.1953 21.1724 33.1953 21.1642 33.1953Z" fill="#990000"/>
<path d="M43.9428 13.6593C43.6949 13.8264 43.4306 13.8515 43.4223 13.8515C43.414 13.8515 43.4058 13.8598 43.4058 13.8682C43.4058 13.8765 43.4058 13.8849 43.414 13.8933C43.4223 13.9016 44.0915 14.4865 44.1576 15.2803C44.232 16.0909 44.108 16.5421 43.7032 16.9265C43.381 17.2356 42.91 17.2774 42.7365 17.2356C42.6952 17.2273 42.687 17.2189 42.687 17.2106C42.6622 17.1103 42.8109 17.0017 42.9927 16.8763C43.034 16.8513 43.0753 16.8178 43.1166 16.7928C43.3479 16.6257 43.4719 16.3499 43.3975 16.1995C43.3727 16.1494 43.3314 16.141 43.2818 16.141C43.2405 16.141 43.1992 16.1577 43.1496 16.1744C43.0588 16.1995 42.9596 16.2329 42.91 16.1744C42.8522 16.1159 42.877 16.0658 42.9266 15.9655C42.9679 15.882 43.0174 15.7817 43.0257 15.6397C43.0505 15.3305 43.0092 14.52 42.5796 14.428C42.563 14.428 42.5465 14.428 42.53 14.4364C42.4887 14.4698 42.4887 14.5701 42.4887 14.7289C42.4887 14.9377 42.4804 15.2135 42.3647 15.3973C42.183 15.6814 41.8938 15.8987 41.7616 15.8987C41.7286 15.8987 41.712 15.8903 41.6955 15.8736C41.679 15.8485 41.6872 15.7817 41.712 15.6814C41.7616 15.4475 41.8442 15.013 41.7203 14.2024C41.679 13.9183 41.5055 13.6091 41.3485 13.3167C41.1915 13.0326 41.0428 12.7568 41.0098 12.5229C40.9519 12.0884 41.0015 11.9045 41.2411 11.7207C41.3815 11.6121 41.4063 11.5118 41.4063 11.445C41.4063 11.3781 41.3733 11.2528 41.2576 11.211C41.2494 11.211 41.2494 11.211 41.2411 11.2026C41.1833 11.1859 41.0841 11.1776 40.9767 11.1776C40.5223 11.1859 39.4565 11.1943 38.7046 10.1581C38.0932 9.32254 38.0519 8.53708 38.1676 7.60957V7.60121C38.1676 7.5845 38.1015 7.24191 37.8123 6.97451C37.6719 6.84918 37.5314 6.77397 37.4323 6.72384C37.3744 6.69041 37.3083 6.66534 37.3083 6.64028C37.3083 6.64028 37.3083 6.62356 37.3249 6.61521C37.3992 6.54 37.6553 6.43138 38.0106 6.48151C38.275 6.52329 38.465 6.63192 38.465 6.63192C38.4733 6.64028 38.4816 6.63192 38.4898 6.62356C38.4981 6.61521 39.1921 5.78797 40.3488 5.87988C41.0428 5.93002 41.7038 6.61521 41.7203 7.35889C41.7368 8.10257 41.3981 8.4953 41.1006 8.59557C40.861 8.67913 40.638 8.67078 40.5058 8.57886C40.4479 8.53708 40.4066 8.47859 40.4066 8.41174C40.4066 8.35325 40.4562 8.31983 40.5553 8.26969C40.7206 8.18613 40.9767 8.05243 41.0098 7.5845C41.0263 7.34218 40.9437 7.09985 40.7867 6.93273C40.6793 6.81575 40.4892 6.6737 40.1753 6.69041C39.7704 6.70712 39.44 6.86589 39.2169 7.15835C38.936 7.52601 38.8368 8.10257 38.9442 8.76269C39.1012 9.72363 40.0183 10.3921 41.0263 10.2835C41.6212 10.225 42.1747 9.88239 42.5961 9.3309C42.9927 8.81283 43.224 8.14435 43.2323 7.50094C43.2488 5.8966 42.3317 4.24211 40.2331 4.15855C38.2254 4.08335 36.9778 5.3451 36.4078 6.09714C36.0525 6.56507 35.6807 7.45916 35.408 8.18613C35.532 8.16106 35.9203 8.11093 36.2673 8.2864C36.6226 8.46188 37.0357 8.89639 36.9613 9.08022C36.9448 9.13035 36.8374 9.10529 36.6804 9.06351C36.4739 9.00501 36.1847 9.02173 35.8625 9.07186C35.3089 9.14707 35.0858 9.25569 35.0197 9.31419L35.0528 9.21391C35.0362 9.27241 35.0197 9.31419 35.0197 9.31419L34.2679 8.84625C34.3753 8.36996 34.8545 6.37289 36.0525 5.061C37.2835 3.71569 38.7625 3.27282 40.0679 3.26447C40.7784 3.25611 41.4311 3.36474 41.9682 3.49008C42.0343 3.50679 42.0921 3.51515 42.1499 3.53186C42.6622 3.64884 43.1992 3.75747 43.5793 3.6572C43.7858 3.60706 43.9593 3.5235 44.0915 3.45665C44.1741 3.41487 44.2568 3.37309 44.2733 3.38145C44.2733 3.38145 44.2816 3.38981 44.2816 3.39816C44.2981 3.48172 44.2237 3.74911 43.9841 4.075C43.8354 4.28389 43.6454 4.40088 43.5132 4.49279C43.3892 4.568 43.3066 4.62649 43.3066 4.71005C43.3066 4.75183 43.3479 4.82703 43.4223 4.96073C43.6536 5.37853 44.1328 6.2559 44.075 7.49258C43.9841 9.38939 43.0918 10.1999 42.4969 10.7431L42.4226 10.8099H42.4143C42.0177 11.2695 42.0673 11.6956 42.183 11.963C42.3565 12.3725 42.7365 12.7151 43.224 12.8905C43.5049 12.9908 43.8106 13.0242 44.0337 13.0493C44.1989 13.066 44.3642 13.0827 44.3807 13.1245C44.4385 13.2582 44.2816 13.442 43.9428 13.6593ZM44.0172 20.2187C43.8354 21.2966 43.2323 21.7562 42.72 21.8231C42.6787 21.8314 42.6374 21.8314 42.6043 21.8314C42.4556 21.8314 42.34 21.7896 42.3069 21.7228C42.2986 21.6977 42.2904 21.6727 42.2986 21.6476C42.3152 21.6058 42.373 21.5807 42.4556 21.5557C42.5548 21.5222 42.6952 21.4638 42.8439 21.3468C43.2818 20.9958 43.257 20.8454 43.2405 20.7284C43.2405 20.7117 43.2323 20.7034 43.224 20.7034C43.1992 20.6867 43.1331 20.7201 43.0588 20.7619L43.0257 20.7786C42.9266 20.8287 42.8357 20.8371 42.7613 20.8036C42.72 20.7786 42.6952 20.7451 42.687 20.7034C42.6787 20.6532 42.7365 20.6031 42.8026 20.5362C42.8605 20.4861 42.9266 20.4276 42.9679 20.3608C43.191 20.0098 43.2323 19.5837 43.0588 19.2494C42.9348 18.9987 42.7531 18.7648 42.216 18.7146C42.2078 18.7146 42.1912 18.7146 42.183 18.7146H42.1665C42.1004 18.7146 42.026 18.723 41.9434 18.7397C41.3485 18.8567 40.9519 19.2578 40.6875 19.6839C40.6875 19.6923 40.6793 19.7006 40.6793 19.7006C40.3157 20.2438 40.2249 21.0794 40.2001 21.2381V21.2465C40.0844 22.0069 39.8365 23.135 38.2585 25.1153C38.0767 25.3409 37.9363 25.6668 38.0271 26.0345C38.1924 26.6695 38.7955 26.728 38.7872 26.7949C38.779 26.8868 38.6551 26.8868 38.432 26.8701C38.2089 26.8534 38.1263 26.7782 38.1263 26.7782C38.1263 26.7782 38.0684 26.9202 38.4402 27.1959C38.7212 27.4048 39.0434 27.3965 39.0516 27.4884C39.0599 27.597 37.3083 28.0065 37.2009 26.2183C37.2009 26.1765 37.1927 26.1347 37.1927 26.093C35.3006 27.8477 34.7471 27.9313 34.6066 27.7474C34.5405 27.6555 34.7223 27.6806 35.0858 27.2628C35.4576 26.8366 35.4659 26.6445 35.4659 26.6445C35.4659 26.6445 34.7306 27.0455 33.8713 26.9703C32.9955 26.8868 32.2602 26.2684 32.3263 26.0261C32.3758 25.8172 32.8964 26.1765 33.5243 26.0763C34.1026 25.9843 34.1522 25.7504 34.1522 25.7504C34.1522 25.7504 34.0365 25.7504 33.8465 25.5498C33.6565 25.3493 33.3756 25.1822 33.5325 25.015C33.6234 24.9148 34.0613 25.1153 34.4909 25.1237C35.0362 25.1237 35.3833 24.9983 35.3833 24.9983C35.3833 24.9983 35.1602 24.9148 34.9288 24.6892C34.6975 24.4552 34.6479 24.2212 34.714 24.1627C34.7553 24.1293 34.8462 24.3131 35.1519 24.3131C35.5072 24.3048 35.5485 24.2212 35.5485 24.2212C35.5485 24.2212 35.3998 24.0792 35.3254 23.9455C35.2593 23.8034 35.0445 23.4023 35.1767 23.2519C35.218 23.2018 35.6229 23.7032 36.2177 23.7616C37.2422 23.8536 38.3659 23.0347 38.3659 23.0347C38.3659 23.0347 37.8123 23.7199 36.6391 24.7477C35.8872 25.3994 34.9371 25.9342 34.9949 26.0595C35.061 26.2099 35.8046 26.0345 37.0935 24.9482C37.5066 24.5972 37.771 24.3716 38.3328 23.6697C39.3243 22.433 39.5474 21.0794 39.3491 19.9931C39.2665 19.567 39.159 19.1826 39.0268 18.8567C38.4733 17.6534 37.8784 17.0602 36.887 16.6758C36.0029 16.3332 35.3254 16.6424 34.9123 16.8346C34.7058 16.9348 34.5653 16.9933 34.5075 16.9098C34.3257 16.6507 34.6892 16.2998 35.0115 15.9906C35.4246 15.5979 35.6972 15.4391 35.7716 15.4057C35.6972 15.3723 35.4328 15.2386 35.1767 15.2219C35.0445 15.2135 34.8958 15.2386 34.7636 15.2553C34.557 15.2887 34.3918 15.3138 34.367 15.2051C34.3257 14.9962 35.1684 14.6202 35.6229 14.4698C36.0855 14.3194 36.4573 14.2943 36.5234 14.2943C36.5152 14.1941 36.4408 13.4086 36.5234 12.2638C36.5647 11.6622 36.6804 11.2444 36.763 11.0021C36.8704 10.6929 36.9944 10.484 37.1018 10.4172C37.1431 10.3921 37.1927 10.3921 37.2257 10.4088C37.3001 10.4506 37.3001 10.6094 37.3001 10.8433C37.3001 10.9854 37.3001 11.1692 37.3166 11.3614C37.3662 11.938 37.5479 12.2555 37.6553 12.3223C37.6719 12.3307 37.6884 12.339 37.6966 12.3307C37.738 12.314 37.7462 12.2388 37.7627 12.1385C37.7875 12.0048 37.8123 11.8126 37.928 11.5787C38.1098 11.1859 38.4733 10.7263 38.5972 10.7598C38.6303 10.7681 38.6385 10.8099 38.6385 10.8684C38.6303 11.0522 38.5972 11.211 38.5724 11.3781C38.5146 11.7291 38.4485 12.1218 38.4898 12.8571C38.5394 13.935 39.0351 14.0771 39.1012 14.0938C39.1343 14.0353 39.3739 13.6175 39.7209 13.2415C39.7952 13.1663 39.8613 13.0827 39.9357 13.0075C40.1505 12.7568 40.324 12.5647 40.4479 12.5647H40.4562C40.4892 12.5647 40.5223 12.5897 40.5388 12.6231C40.5801 12.69 40.514 12.8655 40.3984 13.1496C40.2414 13.5423 40.0018 14.1356 39.8944 14.8625C39.6961 16.258 39.8944 17.6117 39.9026 17.62L39.9192 17.7203L39.8861 17.6284C39.8861 17.6284 39.7704 17.2941 39.283 16.5755C39.0682 16.2496 38.8947 16.0574 38.7294 15.8736C38.5229 15.6397 38.3246 15.4224 38.0519 14.9545C37.738 14.4197 37.6553 14.0186 37.6058 13.7512C37.5645 13.5256 37.5397 13.417 37.4157 13.4003C37.3992 13.4003 37.391 13.4086 37.3744 13.4253C37.267 13.6008 37.3249 14.5784 37.6223 15.155C37.7793 15.4642 37.9693 15.7149 38.1841 15.999C38.4072 16.2914 38.6551 16.6173 38.9608 17.1187C39.5143 18.0295 39.787 18.6979 39.9192 19.099C39.9522 19.1993 39.977 19.2829 40.0018 19.3581C40.0679 19.2244 40.1753 19.0656 40.2083 19.0322C41.1833 17.9459 42.0343 17.8707 42.6209 18.0127H42.6291C43.0505 18.1047 43.4306 18.3553 43.6949 18.7314C43.9676 19.1659 44.0998 19.7174 44.0172 20.2187ZM43.8023 25.6919C43.8023 25.7002 43.7941 25.7086 43.7941 25.7253C43.5793 26.494 43.1166 27.0205 42.4721 27.2127C42.2739 27.2712 42.0838 27.3046 41.9103 27.3046C41.4807 27.3046 41.1172 27.1375 40.7288 26.8868C40.7041 26.8784 40.4892 26.845 40.2662 26.9703C40.1505 27.0372 40.0761 27.1124 40.0183 27.1709C39.9687 27.221 39.9357 27.2544 39.9026 27.2461C39.8944 27.2461 39.8778 27.2294 39.8696 27.2127C39.8365 27.1291 39.8365 26.9035 39.977 26.6528C40.0596 26.494 40.1588 26.3938 40.1918 26.3687C40.1505 26.2684 39.8696 25.5749 40.2249 24.8061C40.4645 24.2881 41.0924 24.0123 41.5716 24.2129C42.0508 24.4134 42.1995 24.7894 42.183 25.0401C42.1665 25.249 42.0921 25.4245 41.9929 25.4997C41.9434 25.5331 41.8855 25.5415 41.8442 25.5248C41.7864 25.4997 41.7781 25.4328 41.7781 25.3493C41.7699 25.2072 41.7616 25.0067 41.4972 24.8563C41.365 24.7811 41.208 24.7727 41.0759 24.8312C40.9767 24.873 40.8445 24.9733 40.7702 25.1905C40.671 25.483 40.6793 25.7671 40.8032 26.001C40.9519 26.2935 41.2659 26.5108 41.6872 26.611C42.3069 26.7614 42.9514 26.2935 43.1579 25.5498C43.2157 25.3242 43.2488 25.0652 43.1662 24.7894C43.0009 24.2379 42.6291 23.7366 41.7286 23.2937C41.4229 23.1433 40.7867 22.8592 40.5388 22.7422C40.6793 22.3411 40.6958 22.2158 40.7371 22.0737C40.8197 21.94 41.0511 21.7228 41.2741 21.6643C41.5303 21.6058 41.836 21.7311 41.8277 21.7813C41.8194 21.8314 41.4807 21.915 41.2907 22.3578C41.365 22.3913 42.0012 22.5667 42.5465 22.9261C43.4636 23.5277 43.7197 24.1627 43.7941 24.4468C43.9263 24.9148 43.9015 25.3493 43.8023 25.6919ZM34.9123 10.977C34.3588 10.459 33.9126 10.3253 33.9126 10.3253V9.34761C34.177 9.4813 34.7884 9.80719 35.1354 10.0996C35.4824 10.3921 35.7468 10.6762 35.9616 10.9185L35.8129 11.9045C35.5568 11.6288 35.2345 11.2778 34.9123 10.977ZM34.21 12.7485C34.0531 11.6288 34.1192 11.1107 34.1192 11.1107C34.367 11.1943 34.7884 11.6204 34.9288 11.7708C34.9288 11.7708 34.8958 11.9212 35.0032 12.6064C35.0776 13.1245 35.2345 13.6008 35.2924 13.8013L34.5157 14.169C34.4414 13.9183 34.2927 13.3501 34.21 12.7485ZM34.7966 19.4583C34.8875 20.202 35.4989 20.9039 36.3582 20.812C36.73 20.7702 36.9944 20.5947 37.1761 20.4025L37.1266 20.3441C37.0109 20.2354 36.6061 19.8511 36.2756 19.4249C35.9533 19.0071 35.7964 18.7815 35.7633 18.7397L35.6724 18.606C35.6807 18.5977 35.7881 18.5225 36.1103 18.5308C36.4656 18.5475 36.8043 18.8233 36.9035 18.9068C36.9035 18.9068 37.0687 19.0907 37.5975 19.6505C38.2254 20.3106 38.6798 20.6282 38.7542 20.6783C38.7542 20.8705 38.7046 21.2381 38.6303 21.4972C38.3411 21.3384 37.961 21.0209 37.7793 20.8705C37.7545 20.8454 37.7297 20.8287 37.7132 20.8203C37.4818 21.1045 37.1431 21.3802 36.6308 21.5222C36.5152 21.5557 36.383 21.5724 36.259 21.564C35.1354 21.5306 34.3835 20.6867 34.2018 19.8594C34.1357 19.5502 34.1605 19.1575 34.1687 18.8901C34.177 18.6562 34.1935 18.4473 34.1357 18.2968C34.0778 18.1214 33.9952 18.0127 33.9374 17.9375C33.8878 17.8623 33.8465 17.8206 33.8878 17.7788C33.9457 17.7036 34.1439 17.7537 34.3257 17.879C34.4414 17.9543 34.4909 18.0462 34.5075 18.0963C34.6149 17.9292 35.1354 17.2106 36.036 17.1771C36.3417 17.1688 36.6143 17.2356 36.8209 17.3693C36.9944 17.478 37.11 17.6367 37.1596 17.7955C37.1927 17.9208 37.1927 18.0211 37.11 18.0629C37.0687 18.0879 36.9696 18.0462 36.8374 17.9793C36.6474 17.8874 36.3499 17.7871 36.0029 17.8289C35.722 17.8623 35.3254 18.0545 35.0528 18.4222C34.838 18.7063 34.7471 19.074 34.7966 19.4583ZM31.0539 26.1598C29.9964 27.1291 29.1784 27.3714 28.1787 27.5385C27.0716 27.7307 24.9565 27.4299 24.9565 27.4299L23.8659 23.8703C23.8659 23.8703 24.9978 24.9482 25.5927 25.4245C26.1875 25.9008 26.7411 26.1598 27.5838 26.1598C28.4266 26.1598 28.9966 25.9426 29.6163 25.2741C30.236 24.6056 30.4673 23.7449 30.6243 22.7255C30.7317 21.9902 30.6821 19.9597 30.6821 19.4918L30.8391 8.46188C30.8391 8.46188 30.9135 6.08043 30.7482 5.48715C30.583 4.88552 30.2277 4.45101 30.0129 4.2254C29.5419 3.72404 28.534 3.56528 28.534 3.56528C28.2448 3.51515 28.1787 3.37309 28.2035 3.23104C28.2365 3.02214 28.4183 2.98872 28.4183 2.98872L35.5402 3.00543C35.5402 3.00543 35.7137 3.02214 35.7468 3.2394C35.7716 3.38145 35.7055 3.5235 35.4163 3.57364C35.4163 3.57364 34.4166 3.74076 33.9374 4.23376C33.7226 4.45937 33.3673 4.89388 33.2021 5.49551C33.0368 6.09714 33.1112 8.47023 33.1112 8.47023V19.5252C33.1112 19.5252 33.136 21.6559 32.8633 22.7756C32.665 23.5527 32.2271 25.0902 31.0539 26.1598ZM23.081 25.5916C22.6927 26.4188 22.0482 27.1542 21.9243 27.0372C21.8251 26.9369 21.9491 26.8534 22.0152 26.611C22.0813 26.3604 22.0978 26.3102 22.0978 26.3102C22.0978 26.3102 21.9243 26.5609 21.3046 26.9536C20.685 27.3464 20.5776 27.3714 20.4701 27.221C20.4041 27.1207 20.561 27.0121 20.7098 26.7531C20.8502 26.5024 20.8089 26.5108 20.8089 26.5108C20.8089 26.5108 20.2801 26.4606 19.8505 26.2684C19.4209 26.0763 18.9664 25.625 18.9747 25.5331C18.9912 25.4161 19.173 25.3493 19.4952 25.1822C19.8422 25.0067 20.0818 24.7811 20.0818 24.7811C20.0818 24.7811 19.8505 24.7226 19.7183 24.6641C19.5117 24.5638 19.3052 24.4636 19.4291 24.3299C19.5448 24.2212 20.0984 24.5972 20.9494 23.7867C21.7012 23.0681 21.7012 22.0153 21.7012 22.0153C21.7012 22.0153 22.0647 23.2436 21.5855 24.2212C20.9907 25.4245 19.8753 25.4328 19.9992 25.6835C20.1479 25.9927 21.5112 25.7169 22.0978 24.2714C22.5852 23.0681 22.073 21.539 21.7012 20.6282C21.5938 20.3691 21.4533 20.0182 21.3625 19.7424C21.7012 19.9012 21.9821 19.9764 22.2548 20.0098C22.2548 20.0098 22.2548 20.0098 22.2548 20.0182C22.263 20.0182 22.3043 20.0934 22.3043 20.0934C22.6348 20.6282 23.1471 20.812 23.4197 20.9206C23.6758 21.0209 23.9568 21.071 24.2377 21.071C24.4773 21.071 24.7251 21.0376 24.9482 20.9457C25.0969 20.8872 25.2374 20.812 25.3448 20.695C25.6753 20.3357 25.7579 19.2327 25.9066 19.1492C25.9727 19.1074 26.138 19.3831 26.2041 19.5837C26.2702 19.7926 26.2371 19.9931 26.361 20.0432C26.4519 20.0767 26.5015 19.9764 26.6915 19.7591C26.9559 19.45 26.9146 19.3246 27.0468 19.3748C27.179 19.4249 27.0385 20.1101 26.9724 20.4778C26.9063 20.8538 26.7328 21.3969 26.7328 21.3969C26.7328 21.3969 27.1707 21.1045 27.5838 20.9206C28.7323 20.4025 29.1784 20.5613 29.1867 20.7034C29.1949 20.8454 28.9223 20.8705 28.6249 21.2298C28.41 21.4888 28.4596 21.5557 28.4596 21.5557C28.4596 21.5557 28.6331 21.564 29.1123 21.422C29.4511 21.3217 29.7485 21.1629 29.8394 21.305C29.9385 21.447 29.4924 22.057 28.8066 22.5333C28.1209 23.0096 27.5673 23.1934 27.5673 23.1934C27.5673 23.1934 27.6995 23.3355 28.0382 23.394C28.377 23.4525 28.5092 23.4023 28.5422 23.5026C28.5835 23.6363 28.2035 23.7533 27.5673 23.8201C26.6585 23.9121 26.1875 23.511 26.1875 23.511C26.1875 23.511 26.3032 23.8452 26.171 24.1794C26.0305 24.522 25.9975 24.8396 25.8653 24.8145C25.7331 24.7978 25.8901 24.4719 25.634 24.1544C25.3613 23.8118 25.0474 23.7366 24.5847 23.3689C24.1303 23.018 24.1137 22.7339 24.1137 22.7339C24.1137 22.7339 24.9069 23.0347 26.2041 22.8258C27.4516 22.6252 27.84 22.2492 27.7491 22.1072C27.6664 21.9818 27.4599 22.1406 26.8733 22.2826C26.1875 22.4414 25.2539 22.3996 24.2211 22.2241C23.8576 22.1657 23.3619 21.9902 22.9157 21.6894C23.0892 22.0403 23.3784 22.667 23.4445 23.1182C23.5684 23.887 23.4693 24.756 23.081 25.5916ZM22.2796 14.2693C22.3291 13.9267 22.5274 13.559 22.6431 13.4003C23.0975 13.3167 23.3867 13.5674 23.428 13.6091C23.1801 14.0938 23.0231 14.6286 22.8827 15.1634C22.7174 15.0965 22.4778 14.8542 22.2796 14.2693ZM22.387 17.8874C22.1556 17.8623 21.5607 17.4613 21.5277 17.361C21.5277 17.1521 21.5773 16.6841 21.6599 16.4084C21.9573 16.9348 22.4448 17.1604 22.4448 17.1604C22.3622 17.4947 22.387 17.8874 22.387 17.8874ZM19.9496 13.2498C20.0075 13.0827 20.057 12.9657 20.1066 12.8655C20.2058 12.6399 20.2636 12.5062 20.2801 12.197C20.3049 11.8377 20.1975 11.5619 20.1314 11.4867C20.2223 11.4951 20.5032 11.6204 20.6106 11.8544C20.7015 12.0466 20.8337 12.5479 20.8172 12.6315C20.8089 12.6482 20.8254 12.6566 20.8254 12.6649C20.8419 12.6733 20.8585 12.6649 20.9246 12.6148C21.1146 12.4727 21.6929 12.0299 22.7174 12.0215H22.734C24.6177 12.0215 25.4439 13.7846 25.4522 13.8013L25.4605 13.8097H25.4687C25.477 13.8097 25.7249 13.8849 26.2288 13.6676C26.4271 13.5841 26.5428 13.4755 26.6585 13.3752C26.8485 13.2081 27.0137 13.0577 27.4682 13.0493C27.9308 13.0326 28.2778 13.3 28.3357 13.4838C28.3522 13.5256 28.3522 13.5924 28.3026 13.6259C28.2365 13.676 28.22 13.6676 28.1787 13.6509C28.1126 13.6175 28.0052 13.5674 27.6664 13.6259C27.3773 13.6676 27.2451 13.9434 27.1046 14.2275C26.9476 14.5367 26.7907 14.8542 26.4271 14.9461C26.0966 15.038 25.7083 14.8041 25.634 14.6871C25.6174 14.6536 25.5844 14.6119 25.5431 14.6202C25.51 14.6286 25.4935 14.6787 25.4935 14.6954C25.4935 14.6954 25.4852 14.9879 25.3035 15.4976C25.1382 15.9655 24.3781 17.0852 22.8827 16.6758C21.9656 16.4251 21.6103 15.5561 21.6516 15.0213C21.6682 14.8458 21.7177 14.7288 21.8003 14.7205C21.8664 14.7121 21.9243 14.7623 21.9408 14.8124C22.0069 15.013 22.0813 15.2135 22.1887 15.3806C22.3374 15.6146 22.61 15.8987 22.9405 15.9739C23.6841 16.141 24.1385 15.7566 24.2211 15.6731C24.5021 15.4057 24.659 14.9628 24.6343 14.4865C24.6012 13.8765 24.2872 13.4922 24.0229 13.2749C23.6924 12.9992 23.2627 12.832 22.8414 12.8237C22.8331 12.8237 22.8166 12.8237 22.8083 12.8237C22.263 12.8237 21.7095 13.0493 21.2798 13.4337C20.7345 13.9267 20.4206 14.662 20.3545 15.5561C20.2966 16.3248 20.6106 17.1771 21.1642 17.7871C21.5938 18.2634 22.1308 18.5225 22.6679 18.5308C22.6761 18.5308 22.6844 18.5308 22.7009 18.5308C24.122 18.5308 25.0391 17.6451 26.0058 16.7092C26.9146 15.8318 27.8482 14.9294 29.3189 14.5116C29.4263 14.4782 29.9303 14.4364 30.0377 14.428L30.0129 15.2386C29.1867 15.3973 28.0382 15.9321 28.0961 16.5087C28.1539 17.0769 28.5174 17.386 28.6909 17.5365C28.7323 17.5699 28.7736 17.6033 28.7736 17.6117C28.7736 17.62 28.757 17.6284 28.6992 17.6534C28.5422 17.7119 28.1787 17.7537 27.8978 17.62C27.5177 17.4445 27.1459 16.8178 27.1377 16.8095L27.1211 16.7844L27.1046 16.8095C27.0964 16.8178 25.9727 18.0127 25.3613 18.464C24.9647 18.7564 23.9154 19.5335 22.6761 19.475C21.8169 19.4333 21.0237 19.0405 20.4454 18.3637C19.834 17.6534 19.5035 16.6674 19.5117 15.5979C19.5117 14.6202 19.6192 14.1774 19.9496 13.2498ZM22.6927 3.00543C22.7009 3.00543 23.5767 2.93023 24.4112 3.26447C24.7747 3.41487 25.0391 3.5987 25.2704 3.76582H25.2787C25.6257 4.00815 25.8901 4.20869 26.2784 4.08335C26.7163 3.94966 26.8072 3.59871 26.865 3.36474C26.8815 3.30625 26.9063 3.20597 26.9229 3.19762C26.9394 3.18926 27.022 3.22269 27.0881 3.33131C27.1707 3.45665 27.3855 3.92459 26.8072 4.7769C26.485 5.24483 25.9645 5.3451 25.9397 5.3451C25.9149 5.3451 25.8984 5.36181 25.8818 5.37853C25.8736 5.39524 25.8653 5.42031 25.8736 5.44537C25.9066 5.56236 25.9066 5.65427 25.9149 5.73783C25.9397 6.03029 25.9066 6.31439 25.7166 6.79068C25.4192 7.51765 24.8243 7.96052 24.0394 8.06079C23.2793 8.15271 22.6596 7.7182 22.4365 7.24191C22.2382 6.79904 22.2217 6.28933 22.4035 5.82975C22.4448 5.71276 22.5274 5.62085 22.5935 5.60414C22.6266 5.59578 22.6513 5.60414 22.6761 5.6292C22.7422 5.67934 22.7422 5.81304 22.7505 5.98851C22.7588 6.16399 22.767 6.38124 22.8414 6.60685C22.957 6.9578 23.3454 7.29204 23.8411 7.25026C24.6012 7.18341 25.0556 6.64028 25.0721 5.80468C25.0887 4.9273 24.5351 3.89116 22.9157 3.84938C22.8909 3.84938 22.8744 3.84938 22.8496 3.84938C22.2382 3.84938 21.6764 4.09171 21.2303 4.54293C20.718 5.07771 20.3875 5.87988 20.371 6.64863C20.3462 8.14435 21.1146 9.01337 21.759 9.4813C22.4117 9.94924 23.4362 9.98266 24.7169 9.57322C25.1548 9.43117 25.6257 9.23898 26.0801 9.04679H26.0884C26.4767 8.88803 26.8733 8.72091 27.2533 8.57886C27.4764 8.50366 27.716 8.43681 27.9639 8.39503L27.9969 8.38667L27.9721 8.35325C27.873 8.21955 27.7491 8.04408 27.5838 7.81847C27.2533 7.35053 27.1625 6.48987 27.2699 6.31439C27.3194 6.23919 27.369 6.22248 27.3938 6.22248C27.4103 6.22248 27.4268 6.23083 27.4268 6.23083C27.4268 6.23919 27.4268 6.28097 27.4268 6.28933C27.4268 6.33111 27.4268 6.53165 27.5177 6.63192C27.6334 6.76562 27.7904 6.79068 27.8565 6.75726C27.8813 6.74055 27.8978 6.72384 27.906 6.69877C27.9308 6.62356 28.0465 6.2559 28.2448 5.95509C28.41 5.70441 28.9306 5.32003 29.2362 5.32003C29.2445 5.32003 29.2528 5.32003 29.261 5.32003C29.3437 5.32839 29.4015 5.36181 29.4345 5.42866C29.4758 5.51222 29.3437 5.65427 29.3023 5.69605C29.038 5.98015 28.724 6.39795 28.6992 7.0915C28.6909 7.41738 28.7818 7.68477 28.9719 7.89367C29.3354 8.2864 29.9633 8.33654 30.0872 8.33654V9.05515C30.0707 9.05515 30.0459 9.05515 30.0294 9.05515C29.4098 9.05515 28.914 9.81554 28.7488 10.5926C28.6083 11.2277 28.7323 12.1218 28.7818 12.3892C28.8314 12.6315 28.7901 12.69 28.7736 12.6984C28.7653 12.7067 28.757 12.7067 28.7323 12.7067C28.6001 12.6816 28.3605 12.3975 28.0961 11.963C27.8978 11.6455 27.9556 11.2444 27.9887 11.0272C28.0052 10.9102 28.0135 10.86 27.9721 10.8266L27.9639 10.8183C27.9391 10.7932 27.8978 10.7681 27.8482 10.7681C27.8482 10.7681 27.8482 10.7681 27.84 10.7681C27.7821 10.7681 27.716 10.8099 27.6417 10.8851C27.5838 10.952 27.5508 10.9937 27.5343 11.0272C27.5012 11.0773 27.5012 11.0773 27.4186 11.0439C27.4186 11.0439 27.4103 11.0439 27.4021 11.0272C27.3442 10.8684 27.5177 10.3169 27.7408 9.93253C27.9143 9.62336 28.1043 9.39774 28.3687 9.18885L28.4431 9.13035L28.3439 9.15542C27.4434 9.36432 26.5428 9.72363 25.9892 10.108C25.2787 10.5926 24.7003 11.1692 24.279 11.8126C24.2046 11.7625 24.1303 11.7291 23.9485 11.6455C23.8328 11.5954 23.6593 11.5369 23.5271 11.5202C23.7006 11.2778 24.0063 10.952 24.1303 10.8183L24.1385 10.8099C24.1551 10.7848 24.1551 10.7431 24.1303 10.718C24.1055 10.6929 24.0724 10.6846 24.0394 10.6929C24.0063 10.7096 23.2049 11.0188 21.7921 10.484C20.6437 10.0495 19.4456 8.78776 19.5117 6.56507C19.5944 4.29225 21.1642 3.13913 22.6927 3.00543ZM17.7437 29.3936H45.777V1H17.7437V29.3936Z" fill="#990000"/>
<path d="M147.229 36.4875C146.511 35.9945 145.833 35.5265 145.833 34.6074C145.833 34.0642 146.147 33.4877 147.031 33.4877C147.791 33.4877 148.27 33.8887 148.419 34.6408C148.419 34.6575 148.436 34.6742 148.452 34.6742H148.51C148.518 34.6742 148.527 34.6742 148.535 34.6659C148.543 34.6575 148.543 34.6491 148.543 34.6408C148.535 34.4904 148.535 34.2313 148.535 34.0809C148.535 33.8219 148.543 33.6381 148.568 33.4041C148.568 33.3957 148.568 33.379 148.56 33.3707C148.551 33.3623 148.543 33.3623 148.527 33.3623C148.469 33.3707 148.419 33.3707 148.361 33.3707C148.188 33.3707 148.014 33.3373 147.833 33.3038C147.601 33.2621 147.345 33.2119 147.015 33.2119C145.891 33.2119 145.098 33.9807 145.098 35.0837C145.098 36.2451 145.908 36.7966 146.684 37.3398C147.436 37.8578 148.138 38.3425 148.138 39.3285C148.138 40.256 147.461 40.6738 146.792 40.6738C146.015 40.6738 145.238 40.2393 145.238 39.4204C145.238 39.3535 145.247 39.2783 145.255 39.2031V39.1697C145.255 39.1614 145.255 39.1447 145.247 39.1447C145.238 39.1363 145.23 39.1363 145.222 39.1363H145.189C145.172 39.1363 145.164 39.1447 145.156 39.1614C145.04 39.4204 145.032 39.7296 145.032 39.8215C145.032 39.9552 145.048 40.0805 145.057 40.1975C145.073 40.3145 145.081 40.4148 145.081 40.5317C145.081 40.6237 145.081 40.7406 145.073 40.7908C145.073 40.7991 145.073 40.8158 145.081 40.8242C145.09 40.8326 145.098 40.8326 145.114 40.8326C145.172 40.8242 145.197 40.8242 145.263 40.8242C145.486 40.8242 145.668 40.866 145.858 40.9078C146.089 40.9579 146.354 41.0164 146.725 41.0164C147.99 41.0164 148.874 40.1474 148.874 38.894C148.865 37.6155 148.031 37.0473 147.229 36.4875Z" fill="#990000"/>
<path d="M161.399 37.1815C161.399 39.3374 160.341 40.6743 158.639 40.6743C156.954 40.6743 155.954 39.3457 155.954 37.1147C155.954 35.4519 156.657 33.5049 158.639 33.5049C159.92 33.5049 161.399 34.4659 161.399 37.1815ZM158.73 33.2041C156.351 33.2041 154.938 35.2095 154.938 37.1481C154.938 39.0366 156.326 40.9835 158.648 40.9835C160.763 40.9835 162.423 39.2872 162.423 37.1147C162.415 34.9254 160.796 33.2041 158.73 33.2041Z" fill="#990000"/>
<path d="M166.877 35.5014C166.877 36.2451 166.678 37.2395 164.993 37.2395H164.522V33.6297C164.819 33.5462 165.018 33.5294 165.249 33.5294C166.232 33.5378 166.877 34.3065 166.877 35.5014ZM168.959 40.8493C168.347 40.6404 167.637 39.3535 167.116 38.4177C166.819 37.8829 166.587 37.4567 166.414 37.2896C167.298 36.9387 167.827 36.2284 167.827 35.3678C167.827 34.0642 166.835 33.2203 165.299 33.2203C165.191 33.2203 165.018 33.2286 164.828 33.2286C164.613 33.237 164.373 33.237 164.2 33.237C163.737 33.237 163.547 33.237 163.192 33.2119C163.183 33.2119 163.175 33.2119 163.167 33.2203C163.159 33.2286 163.159 33.237 163.159 33.2453V33.2955C163.159 33.3122 163.175 33.3289 163.192 33.3289C163.547 33.3874 163.671 33.5294 163.671 34.2564V39.9385C163.671 40.7824 163.539 40.8075 163.175 40.866C163.159 40.866 163.142 40.8827 163.142 40.8994V40.9495C163.142 40.9579 163.142 40.9662 163.15 40.9746C163.159 40.983 163.167 40.983 163.175 40.983C163.39 40.9746 163.687 40.9579 164.092 40.9579C164.522 40.9579 164.877 40.9746 165.009 40.983C165.018 40.983 165.026 40.983 165.034 40.9746C165.042 40.9662 165.042 40.9579 165.042 40.9495V40.8994C165.042 40.8827 165.026 40.866 165.009 40.866C164.646 40.8075 164.514 40.7824 164.514 39.9385V37.5403H165.15C165.265 37.5403 165.414 37.5236 165.579 37.4985C165.761 37.674 165.976 38.0834 166.108 38.3341C166.133 38.3843 166.158 38.4344 166.183 38.4678C167.422 40.8158 167.554 40.9579 168.669 40.9997C168.793 40.9997 168.843 40.9997 168.934 40.9913C168.95 40.9913 168.967 40.9746 168.967 40.9579V40.891C168.983 40.8743 168.975 40.8576 168.959 40.8493Z" fill="#990000"/>
<path d="M155.012 33.2042C155.004 33.1959 154.996 33.1875 154.979 33.1875C154.484 33.1959 151.873 33.2376 149.535 33.1875C149.518 33.1875 149.502 33.1959 149.502 33.2126C149.452 33.4048 149.411 33.5719 149.361 33.7306C149.303 33.9312 149.254 34.115 149.212 34.3072C149.212 34.3156 149.212 34.3323 149.221 34.3406C149.229 34.349 149.237 34.3573 149.245 34.3573H149.295C149.312 34.3573 149.32 34.349 149.328 34.3323C149.634 33.6805 150.121 33.6721 151.724 33.6721V39.9224C151.724 40.7664 151.592 40.7914 151.228 40.8499C151.212 40.8499 151.195 40.8666 151.195 40.8833V40.9335C151.195 40.9418 151.195 40.9502 151.204 40.9585C151.212 40.9669 151.22 40.9669 151.228 40.9669C151.435 40.9585 151.732 40.9418 152.137 40.9418C152.567 40.9418 152.914 40.9585 153.046 40.9669C153.054 40.9669 153.063 40.9669 153.071 40.9585C153.079 40.9502 153.079 40.9418 153.079 40.9335V40.8833C153.079 40.8666 153.063 40.8499 153.046 40.8499C152.691 40.7914 152.55 40.7664 152.55 39.9224V33.6721C154.393 33.6721 154.641 33.7473 154.641 34.0314C154.641 34.0816 154.632 34.1484 154.624 34.1819C154.624 34.1902 154.624 34.2069 154.632 34.2153C154.641 34.2236 154.649 34.232 154.657 34.232H154.723C154.74 34.232 154.756 34.2153 154.756 34.1986C154.789 34.0314 154.905 33.5217 154.996 33.2376C155.021 33.2293 155.021 33.2126 155.012 33.2042Z" fill="#990000"/>
<path d="M144.148 33.1953C143.941 33.2037 143.536 33.212 143.189 33.212C142.817 33.212 142.404 33.2037 142.189 33.1953C142.181 33.1953 142.173 33.1953 142.165 33.2037C142.156 33.212 142.156 33.2204 142.156 33.2287V33.2789C142.156 33.2956 142.173 33.3123 142.189 33.3123C142.553 33.3708 142.793 33.4126 142.793 34.2064V38.8272C142.793 39.6963 142.379 40.6405 141.719 40.6405C141.595 40.6405 141.479 40.6321 141.372 40.6154C140.909 40.4984 140.62 40.1725 140.446 39.9386C140.421 39.9052 140.397 39.8717 140.38 39.8383C140.19 39.5458 140.099 39.2952 140.099 39.2868C140.091 39.2617 140.066 39.2534 140.041 39.2534C140.017 39.2617 140 39.2785 140 39.3119L140.157 40.5235C140.157 40.5402 140.165 40.5569 140.182 40.5653C140.62 40.8494 141.157 40.9329 141.256 40.9413C141.429 40.9664 141.57 40.9747 141.652 40.9747C141.719 40.9747 141.76 40.9747 141.76 40.9747C142.867 40.9747 143.611 40.0639 143.611 38.7102V34.2064C143.611 33.4293 143.792 33.3959 144.156 33.3123L144.172 33.3039C144.189 33.3039 144.197 33.2872 144.197 33.2705V33.2204C144.197 33.212 144.197 33.2037 144.189 33.1953C144.164 33.1953 144.156 33.1953 144.148 33.1953Z" fill="#990000"/>
<path d="M166.926 13.6593C166.678 13.8264 166.414 13.8515 166.406 13.8515C166.397 13.8515 166.389 13.8598 166.389 13.8682C166.389 13.8765 166.389 13.8849 166.397 13.8933C166.406 13.9016 167.075 14.4865 167.141 15.2803C167.215 16.0909 167.091 16.5421 166.687 16.9265C166.364 17.2356 165.893 17.2774 165.72 17.2356C165.679 17.2273 165.67 17.2189 165.67 17.2106C165.646 17.1103 165.794 17.0017 165.976 16.8763C166.017 16.8513 166.059 16.8178 166.1 16.7928C166.331 16.6257 166.455 16.3499 166.381 16.1995C166.356 16.1494 166.315 16.141 166.265 16.141C166.224 16.141 166.183 16.1577 166.133 16.1744C166.042 16.1995 165.943 16.2329 165.893 16.1744C165.836 16.1159 165.86 16.0658 165.91 15.9655C165.951 15.882 166.001 15.7817 166.009 15.6397C166.034 15.3305 165.993 14.52 165.563 14.428C165.546 14.428 165.53 14.428 165.513 14.4364C165.472 14.4698 165.472 14.5701 165.472 14.7289C165.472 14.9377 165.464 15.2135 165.348 15.3973C165.166 15.6814 164.877 15.8987 164.745 15.8987C164.712 15.8987 164.695 15.8903 164.679 15.8736C164.662 15.8485 164.671 15.7817 164.695 15.6814C164.745 15.4475 164.828 15.013 164.704 14.2024C164.662 13.9183 164.489 13.6091 164.332 13.3167C164.175 13.0326 164.026 12.7568 163.993 12.5229C163.935 12.0884 163.985 11.9045 164.224 11.7207C164.365 11.6121 164.39 11.5118 164.39 11.445C164.39 11.3781 164.357 11.2528 164.241 11.211C164.233 11.211 164.233 11.211 164.224 11.2026C164.167 11.1859 164.068 11.1776 163.96 11.1776C163.506 11.1859 162.44 11.1943 161.688 10.1581C161.077 9.32254 161.035 8.53708 161.151 7.60957V7.60121C161.151 7.5845 161.085 7.24191 160.796 6.97451C160.655 6.84918 160.515 6.77397 160.416 6.72384C160.358 6.69041 160.292 6.66534 160.292 6.64028C160.292 6.64028 160.292 6.62356 160.308 6.61521C160.383 6.54 160.639 6.43138 160.994 6.48151C161.258 6.52329 161.448 6.63192 161.448 6.63192C161.457 6.64028 161.465 6.63192 161.473 6.62356C161.481 6.61521 162.175 5.78797 163.332 5.87988C164.026 5.93002 164.687 6.61521 164.704 7.35889C164.72 8.10257 164.381 8.4953 164.084 8.59557C163.844 8.67913 163.621 8.67078 163.489 8.57886C163.431 8.53708 163.39 8.47859 163.39 8.41174C163.39 8.35325 163.44 8.31983 163.539 8.26969C163.704 8.18613 163.96 8.05243 163.993 7.5845C164.01 7.34218 163.927 7.09985 163.77 6.93273C163.663 6.81575 163.473 6.6737 163.159 6.69041C162.754 6.70712 162.423 6.86589 162.2 7.15835C161.919 7.52601 161.82 8.10257 161.928 8.76269C162.085 9.72363 163.002 10.3921 164.01 10.2835C164.605 10.225 165.158 9.88239 165.579 9.3309C165.976 8.81283 166.207 8.14435 166.216 7.50094C166.232 5.8966 165.315 4.24211 163.217 4.15855C161.209 4.08335 159.961 5.3451 159.391 6.09714C159.036 6.56507 158.664 7.45916 158.391 8.18613C158.515 8.16106 158.904 8.11093 159.251 8.2864C159.606 8.46188 160.019 8.89639 159.945 9.08022C159.928 9.13035 159.821 9.10529 159.664 9.06351C159.457 9.00501 159.168 9.02173 158.846 9.07186C158.292 9.14707 158.069 9.25569 158.003 9.31419L158.036 9.21391C158.02 9.27241 158.003 9.31419 158.003 9.31419L157.251 8.84625C157.359 8.36996 157.838 6.37289 159.036 5.061C160.267 3.71569 161.746 3.27282 163.051 3.26447C163.762 3.25611 164.415 3.36474 164.952 3.49008C165.018 3.50679 165.075 3.51515 165.133 3.53186C165.646 3.64884 166.183 3.75747 166.563 3.6572C166.769 3.60706 166.943 3.5235 167.075 3.45665C167.158 3.41487 167.24 3.37309 167.257 3.38145C167.257 3.38145 167.265 3.38981 167.265 3.39816C167.281 3.48172 167.207 3.74911 166.968 4.075C166.819 4.28389 166.629 4.40088 166.497 4.49279C166.373 4.568 166.29 4.62649 166.29 4.71005C166.29 4.75183 166.331 4.82703 166.406 4.96073C166.637 5.37853 167.116 6.2559 167.058 7.49258C166.968 9.38939 166.075 10.1999 165.48 10.7431L165.406 10.8099H165.398C165.001 11.2695 165.051 11.6956 165.166 11.963C165.34 12.3725 165.72 12.7151 166.207 12.8905C166.488 12.9908 166.794 13.0242 167.017 13.0493C167.182 13.066 167.348 13.0827 167.364 13.1245C167.422 13.2582 167.265 13.442 166.926 13.6593ZM167.001 20.2187C166.819 21.2966 166.216 21.7562 165.703 21.8231C165.662 21.8314 165.621 21.8314 165.588 21.8314C165.439 21.8314 165.323 21.7896 165.29 21.7228C165.282 21.6977 165.274 21.6727 165.282 21.6476C165.299 21.6058 165.356 21.5807 165.439 21.5557C165.538 21.5222 165.679 21.4638 165.827 21.3468C166.265 20.9958 166.24 20.8454 166.224 20.7284C166.224 20.7117 166.216 20.7034 166.207 20.7034C166.183 20.6867 166.117 20.7201 166.042 20.7619L166.009 20.7786C165.91 20.8287 165.819 20.8371 165.745 20.8036C165.703 20.7786 165.679 20.7451 165.67 20.7034C165.662 20.6532 165.72 20.6031 165.786 20.5362C165.844 20.4861 165.91 20.4276 165.951 20.3608C166.174 20.0098 166.216 19.5837 166.042 19.2494C165.918 18.9987 165.736 18.7648 165.199 18.7146C165.191 18.7146 165.175 18.7146 165.166 18.7146H165.15C165.084 18.7146 165.009 18.723 164.927 18.7397C164.332 18.8567 163.935 19.2578 163.671 19.6839C163.671 19.6923 163.663 19.7006 163.663 19.7006C163.299 20.2438 163.208 21.0794 163.183 21.2381V21.2465C163.068 22.0069 162.82 23.135 161.242 25.1153C161.06 25.3409 160.92 25.6668 161.011 26.0345C161.176 26.6695 161.779 26.728 161.771 26.7949C161.762 26.8868 161.638 26.8868 161.415 26.8701C161.192 26.8534 161.11 26.7782 161.11 26.7782C161.11 26.7782 161.052 26.9202 161.424 27.1959C161.705 27.4048 162.027 27.3965 162.035 27.4884C162.043 27.597 160.292 28.0065 160.184 26.2183C160.184 26.1765 160.176 26.1347 160.176 26.093C158.284 27.8477 157.73 27.9313 157.59 27.7474C157.524 27.6555 157.706 27.6806 158.069 27.2628C158.441 26.8366 158.449 26.6445 158.449 26.6445C158.449 26.6445 157.714 27.0455 156.855 26.9703C155.979 26.8868 155.244 26.2684 155.31 26.0261C155.359 25.8172 155.88 26.1765 156.508 26.0763C157.086 25.9843 157.136 25.7504 157.136 25.7504C157.136 25.7504 157.02 25.7504 156.83 25.5498C156.64 25.3493 156.359 25.1822 156.516 25.015C156.607 24.9148 157.045 25.1153 157.474 25.1237C158.02 25.1237 158.367 24.9983 158.367 24.9983C158.367 24.9983 158.144 24.9148 157.912 24.6892C157.681 24.4552 157.631 24.2212 157.697 24.1627C157.739 24.1293 157.83 24.3131 158.135 24.3131C158.491 24.3048 158.532 24.2212 158.532 24.2212C158.532 24.2212 158.383 24.0792 158.309 23.9455C158.243 23.8034 158.028 23.4023 158.16 23.2519C158.201 23.2018 158.606 23.7032 159.201 23.7616C160.226 23.8536 161.349 23.0347 161.349 23.0347C161.349 23.0347 160.796 23.7199 159.622 24.7477C158.871 25.3994 157.921 25.9342 157.978 26.0595C158.044 26.2099 158.788 26.0345 160.077 24.9482C160.49 24.5972 160.754 24.3716 161.316 23.6697C162.308 22.433 162.531 21.0794 162.332 19.9931C162.25 19.567 162.142 19.1826 162.01 18.8567C161.457 17.6534 160.862 17.0602 159.87 16.6758C158.986 16.3332 158.309 16.6424 157.896 16.8346C157.689 16.9348 157.549 16.9933 157.491 16.9098C157.309 16.6507 157.673 16.2998 157.995 15.9906C158.408 15.5979 158.681 15.4391 158.755 15.4057C158.681 15.3723 158.416 15.2386 158.16 15.2219C158.028 15.2135 157.879 15.2386 157.747 15.2553C157.54 15.2887 157.375 15.3138 157.35 15.2051C157.309 14.9962 158.152 14.6202 158.606 14.4698C159.069 14.3194 159.441 14.2943 159.507 14.2943C159.499 14.1941 159.424 13.4086 159.507 12.2638C159.548 11.6622 159.664 11.2444 159.746 11.0021C159.854 10.6929 159.978 10.484 160.085 10.4172C160.126 10.3921 160.176 10.3921 160.209 10.4088C160.283 10.4506 160.283 10.6094 160.283 10.8433C160.283 10.9854 160.283 11.1692 160.3 11.3614C160.35 11.938 160.531 12.2555 160.639 12.3223C160.655 12.3307 160.672 12.339 160.68 12.3307C160.721 12.314 160.73 12.2388 160.746 12.1385C160.771 12.0048 160.796 11.8126 160.911 11.5787C161.093 11.1859 161.457 10.7263 161.581 10.7598C161.614 10.7681 161.622 10.8099 161.622 10.8684C161.614 11.0522 161.581 11.211 161.556 11.3781C161.498 11.7291 161.432 12.1218 161.473 12.8571C161.523 13.935 162.019 14.0771 162.085 14.0938C162.118 14.0353 162.357 13.6175 162.704 13.2415C162.779 13.1663 162.845 13.0827 162.919 13.0075C163.134 12.7568 163.307 12.5647 163.431 12.5647H163.44C163.473 12.5647 163.506 12.5897 163.522 12.6231C163.564 12.69 163.497 12.8655 163.382 13.1496C163.225 13.5423 162.985 14.1356 162.878 14.8625C162.679 16.258 162.878 17.6117 162.886 17.62L162.903 17.7203L162.87 17.6284C162.87 17.6284 162.754 17.2941 162.266 16.5755C162.052 16.2496 161.878 16.0574 161.713 15.8736C161.506 15.6397 161.308 15.4224 161.035 14.9545C160.721 14.4197 160.639 14.0186 160.589 13.7512C160.548 13.5256 160.523 13.417 160.399 13.4003C160.383 13.4003 160.374 13.4086 160.358 13.4253C160.25 13.6008 160.308 14.5784 160.606 15.155C160.763 15.4642 160.953 15.7149 161.168 15.999C161.391 16.2914 161.638 16.6173 161.944 17.1187C162.498 18.0295 162.77 18.6979 162.903 19.099C162.936 19.1993 162.96 19.2829 162.985 19.3581C163.051 19.2244 163.159 19.0656 163.192 19.0322C164.167 17.9459 165.018 17.8707 165.604 18.0127H165.613C166.034 18.1047 166.414 18.3553 166.678 18.7314C166.951 19.1659 167.083 19.7174 167.001 20.2187ZM166.786 25.6919C166.786 25.7002 166.777 25.7086 166.777 25.7253C166.563 26.494 166.1 27.0205 165.456 27.2127C165.257 27.2712 165.067 27.3046 164.894 27.3046C164.464 27.3046 164.101 27.1375 163.712 26.8868C163.687 26.8784 163.473 26.845 163.25 26.9703C163.134 27.0372 163.06 27.1124 163.002 27.1709C162.952 27.221 162.919 27.2544 162.886 27.2461C162.878 27.2461 162.861 27.2294 162.853 27.2127C162.82 27.1291 162.82 26.9035 162.96 26.6528C163.043 26.494 163.142 26.3938 163.175 26.3687C163.134 26.2684 162.853 25.5749 163.208 24.8061C163.448 24.2881 164.076 24.0123 164.555 24.2129C165.034 24.4134 165.183 24.7894 165.166 25.0401C165.15 25.249 165.075 25.4245 164.976 25.4997C164.927 25.5331 164.869 25.5415 164.828 25.5248C164.77 25.4997 164.762 25.4328 164.762 25.3493C164.753 25.2072 164.745 25.0067 164.481 24.8563C164.348 24.7811 164.191 24.7727 164.059 24.8312C163.96 24.873 163.828 24.9733 163.754 25.1905C163.654 25.483 163.663 25.7671 163.787 26.001C163.935 26.2935 164.249 26.5108 164.671 26.611C165.29 26.7614 165.935 26.2935 166.141 25.5498C166.199 25.3242 166.232 25.0652 166.15 24.7894C165.984 24.2379 165.613 23.7366 164.712 23.2937C164.406 23.1433 163.77 22.8592 163.522 22.7422C163.663 22.3411 163.679 22.2158 163.721 22.0737C163.803 21.94 164.034 21.7228 164.258 21.6643C164.514 21.6058 164.819 21.7311 164.811 21.7813C164.803 21.8314 164.464 21.915 164.274 22.3578C164.348 22.3913 164.985 22.5667 165.53 22.9261C166.447 23.5277 166.703 24.1627 166.777 24.4468C166.91 24.9148 166.885 25.3493 166.786 25.6919ZM157.896 10.977C157.342 10.459 156.896 10.3253 156.896 10.3253V9.34761C157.16 9.4813 157.772 9.80719 158.119 10.0996C158.466 10.3921 158.73 10.6762 158.945 10.9185L158.796 11.9045C158.54 11.6288 158.218 11.2778 157.896 10.977ZM157.193 12.7485C157.036 11.6288 157.103 11.1107 157.103 11.1107C157.35 11.1943 157.772 11.6204 157.912 11.7708C157.912 11.7708 157.879 11.9212 157.987 12.6064C158.061 13.1245 158.218 13.6008 158.276 13.8013L157.499 14.169C157.425 13.9183 157.276 13.3501 157.193 12.7485ZM157.78 19.4583C157.871 20.202 158.482 20.9039 159.342 20.812C159.713 20.7702 159.978 20.5947 160.16 20.4025L160.11 20.3441C159.994 20.2354 159.589 19.8511 159.259 19.4249C158.937 19.0071 158.78 18.7815 158.747 18.7397L158.656 18.606C158.664 18.5977 158.771 18.5225 159.094 18.5308C159.449 18.5475 159.788 18.8233 159.887 18.9068C159.887 18.9068 160.052 19.0907 160.581 19.6505C161.209 20.3106 161.663 20.6282 161.738 20.6783C161.738 20.8705 161.688 21.2381 161.614 21.4972C161.324 21.3384 160.944 21.0209 160.763 20.8705C160.738 20.8454 160.713 20.8287 160.697 20.8203C160.465 21.1045 160.126 21.3802 159.614 21.5222C159.499 21.5557 159.366 21.5724 159.242 21.564C158.119 21.5306 157.367 20.6867 157.185 19.8594C157.119 19.5502 157.144 19.1575 157.152 18.8901C157.16 18.6562 157.177 18.4473 157.119 18.2968C157.061 18.1214 156.979 18.0127 156.921 17.9375C156.871 17.8623 156.83 17.8206 156.871 17.7788C156.929 17.7036 157.127 17.7537 157.309 17.879C157.425 17.9543 157.474 18.0462 157.491 18.0963C157.598 17.9292 158.119 17.2106 159.019 17.1771C159.325 17.1688 159.598 17.2356 159.804 17.3693C159.978 17.478 160.093 17.6367 160.143 17.7955C160.176 17.9208 160.176 18.0211 160.093 18.0629C160.052 18.0879 159.953 18.0462 159.821 17.9793C159.631 17.8874 159.333 17.7871 158.986 17.8289C158.705 17.8623 158.309 18.0545 158.036 18.4222C157.821 18.7063 157.73 19.074 157.78 19.4583ZM154.037 26.1598C152.98 27.1291 152.162 27.3714 151.162 27.5385C150.055 27.7307 147.94 27.4299 147.94 27.4299L146.849 23.8703C146.849 23.8703 147.981 24.9482 148.576 25.4245C149.171 25.9008 149.724 26.1598 150.567 26.1598C151.41 26.1598 151.98 25.9426 152.6 25.2741C153.219 24.6056 153.451 23.7449 153.608 22.7255C153.715 21.9902 153.666 19.9597 153.666 19.4918L153.822 8.46188C153.822 8.46188 153.897 6.08043 153.732 5.48715C153.566 4.88552 153.211 4.45101 152.996 4.2254C152.525 3.72404 151.517 3.56528 151.517 3.56528C151.228 3.51515 151.162 3.37309 151.187 3.23104C151.22 3.02214 151.402 2.98872 151.402 2.98872L158.524 3.00543C158.524 3.00543 158.697 3.02214 158.73 3.2394C158.755 3.38145 158.689 3.5235 158.4 3.57364C158.4 3.57364 157.4 3.74076 156.921 4.23376C156.706 4.45937 156.351 4.89388 156.185 5.49551C156.02 6.09714 156.095 8.47023 156.095 8.47023V19.5252C156.095 19.5252 156.119 21.6559 155.847 22.7756C155.648 23.5527 155.211 25.0902 154.037 26.1598ZM146.064 25.5916C145.676 26.4188 145.032 27.1542 144.908 27.0372C144.809 26.9369 144.932 26.8534 144.999 26.611C145.065 26.3604 145.081 26.3102 145.081 26.3102C145.081 26.3102 144.908 26.5609 144.288 26.9536C143.668 27.3464 143.561 27.3714 143.454 27.221C143.387 27.1207 143.544 27.0121 143.693 26.7531C143.834 26.5024 143.792 26.5108 143.792 26.5108C143.792 26.5108 143.264 26.4606 142.834 26.2684C142.404 26.0763 141.95 25.625 141.958 25.5331C141.975 25.4161 142.156 25.3493 142.479 25.1822C142.826 25.0067 143.065 24.7811 143.065 24.7811C143.065 24.7811 142.834 24.7226 142.702 24.6641C142.495 24.5638 142.289 24.4636 142.413 24.3299C142.528 24.2212 143.082 24.5972 143.933 23.7867C144.685 23.0681 144.685 22.0153 144.685 22.0153C144.685 22.0153 145.048 23.2436 144.569 24.2212C143.974 25.4245 142.859 25.4328 142.983 25.6835C143.131 25.9927 144.495 25.7169 145.081 24.2714C145.569 23.0681 145.056 21.539 144.685 20.6282C144.577 20.3691 144.437 20.0182 144.346 19.7424C144.685 19.9012 144.966 19.9764 145.238 20.0098C145.238 20.0098 145.238 20.0098 145.238 20.0182C145.246 20.0182 145.288 20.0934 145.288 20.0934C145.618 20.6282 146.13 20.812 146.403 20.9206C146.659 21.0209 146.94 21.071 147.221 21.071C147.461 21.071 147.709 21.0376 147.932 20.9457C148.08 20.8872 148.221 20.812 148.328 20.695C148.659 20.3357 148.741 19.2327 148.89 19.1492C148.956 19.1074 149.121 19.3831 149.187 19.5837C149.254 19.7926 149.221 19.9931 149.344 20.0432C149.435 20.0767 149.485 19.9764 149.675 19.7591C149.939 19.45 149.898 19.3246 150.03 19.3748C150.162 19.4249 150.022 20.1101 149.956 20.4778C149.89 20.8538 149.716 21.3969 149.716 21.3969C149.716 21.3969 150.154 21.1045 150.567 20.9206C151.716 20.4025 152.162 20.5613 152.17 20.7034C152.178 20.8454 151.906 20.8705 151.608 21.2298C151.393 21.4888 151.443 21.5557 151.443 21.5557C151.443 21.5557 151.617 21.564 152.096 21.422C152.434 21.3217 152.732 21.1629 152.823 21.305C152.922 21.447 152.476 22.057 151.79 22.5333C151.104 23.0096 150.551 23.1934 150.551 23.1934C150.551 23.1934 150.683 23.3355 151.022 23.394C151.36 23.4525 151.493 23.4023 151.526 23.5026C151.567 23.6363 151.187 23.7533 150.551 23.8201C149.642 23.9121 149.171 23.511 149.171 23.511C149.171 23.511 149.287 23.8452 149.154 24.1794C149.014 24.522 148.981 24.8396 148.849 24.8145C148.717 24.7978 148.873 24.4719 148.617 24.1544C148.345 23.8118 148.031 23.7366 147.568 23.3689C147.114 23.018 147.097 22.7339 147.097 22.7339C147.097 22.7339 147.89 23.0347 149.187 22.8258C150.435 22.6252 150.823 22.2492 150.732 22.1072C150.65 21.9818 150.443 22.1406 149.857 22.2826C149.171 22.4414 148.237 22.3996 147.205 22.2241C146.841 22.1657 146.345 21.9902 145.899 21.6894C146.073 22.0403 146.362 22.667 146.428 23.1182C146.552 23.887 146.453 24.756 146.064 25.5916ZM145.263 14.2693C145.313 13.9267 145.511 13.559 145.626 13.4003C146.081 13.3167 146.37 13.5674 146.411 13.6091C146.164 14.0938 146.007 14.6286 145.866 15.1634C145.701 15.0965 145.461 14.8542 145.263 14.2693ZM145.37 17.8874C145.139 17.8623 144.544 17.4613 144.511 17.361C144.511 17.1521 144.561 16.6841 144.643 16.4084C144.941 16.9348 145.428 17.1604 145.428 17.1604C145.346 17.4947 145.37 17.8874 145.37 17.8874ZM142.933 13.2498C142.991 13.0827 143.04 12.9657 143.09 12.8655C143.189 12.6399 143.247 12.5062 143.264 12.197C143.288 11.8377 143.181 11.5619 143.115 11.4867C143.206 11.4951 143.487 11.6204 143.594 11.8544C143.685 12.0466 143.817 12.5479 143.801 12.6315C143.792 12.6482 143.809 12.6566 143.809 12.6649C143.825 12.6733 143.842 12.6649 143.908 12.6148C144.098 12.4727 144.676 12.0299 145.701 12.0215H145.717C147.601 12.0215 148.427 13.7846 148.436 13.8013L148.444 13.8097H148.452C148.46 13.8097 148.708 13.8849 149.212 13.6676C149.411 13.5841 149.526 13.4755 149.642 13.3752C149.832 13.2081 149.997 13.0577 150.452 13.0493C150.914 13.0326 151.261 13.3 151.319 13.4838C151.336 13.5256 151.336 13.5924 151.286 13.6259C151.22 13.676 151.203 13.6676 151.162 13.6509C151.096 13.6175 150.989 13.5674 150.65 13.6259C150.361 13.6676 150.228 13.9434 150.088 14.2275C149.931 14.5367 149.774 14.8542 149.411 14.9461C149.08 15.038 148.692 14.8041 148.617 14.6871C148.601 14.6536 148.568 14.6119 148.526 14.6202C148.493 14.6286 148.477 14.6787 148.477 14.6954C148.477 14.6954 148.469 14.9879 148.287 15.4976C148.122 15.9655 147.362 17.0852 145.866 16.6758C144.949 16.4251 144.594 15.5561 144.635 15.0213C144.652 14.8458 144.701 14.7288 144.784 14.7205C144.85 14.7121 144.908 14.7623 144.924 14.8124C144.99 15.013 145.065 15.2135 145.172 15.3806C145.321 15.6146 145.593 15.8987 145.924 15.9739C146.668 16.141 147.122 15.7566 147.205 15.6731C147.485 15.4057 147.642 14.9628 147.618 14.4865C147.585 13.8765 147.271 13.4922 147.006 13.2749C146.676 12.9992 146.246 12.832 145.825 12.8237C145.817 12.8237 145.8 12.8237 145.792 12.8237C145.246 12.8237 144.693 13.0493 144.263 13.4337C143.718 13.9267 143.404 14.662 143.338 15.5561C143.28 16.3248 143.594 17.1771 144.148 17.7871C144.577 18.2634 145.114 18.5225 145.651 18.5308C145.66 18.5308 145.668 18.5308 145.684 18.5308C147.105 18.5308 148.022 17.6451 148.989 16.7092C149.898 15.8318 150.832 14.9294 152.302 14.5116C152.41 14.4782 152.914 14.4364 153.021 14.428L152.996 15.2386C152.17 15.3973 151.022 15.9321 151.079 16.5087C151.137 17.0769 151.501 17.386 151.674 17.5365C151.716 17.5699 151.757 17.6033 151.757 17.6117C151.757 17.62 151.74 17.6284 151.683 17.6534C151.526 17.7119 151.162 17.7537 150.881 17.62C150.501 17.4445 150.129 16.8178 150.121 16.8095L150.105 16.7844L150.088 16.8095C150.08 16.8178 148.956 18.0127 148.345 18.464C147.948 18.7564 146.899 19.5335 145.66 19.475C144.8 19.4333 144.007 19.0405 143.429 18.3637C142.817 17.6534 142.487 16.6674 142.495 15.5979C142.495 14.6202 142.603 14.1774 142.933 13.2498ZM145.676 3.00543C145.684 3.00543 146.56 2.93023 147.395 3.26447C147.758 3.41487 148.022 3.5987 148.254 3.76582H148.262C148.609 4.00815 148.873 4.20869 149.262 4.08335C149.7 3.94966 149.791 3.59871 149.848 3.36474C149.865 3.30625 149.89 3.20597 149.906 3.19762C149.923 3.18926 150.005 3.22269 150.071 3.33131C150.154 3.45665 150.369 3.92459 149.791 4.7769C149.468 5.24483 148.948 5.3451 148.923 5.3451C148.898 5.3451 148.882 5.36181 148.865 5.37853C148.857 5.39524 148.849 5.42031 148.857 5.44537C148.89 5.56236 148.89 5.65427 148.898 5.73783C148.923 6.03029 148.89 6.31439 148.7 6.79068C148.403 7.51765 147.808 7.96052 147.023 8.06079C146.263 8.15271 145.643 7.7182 145.42 7.24191C145.222 6.79904 145.205 6.28933 145.387 5.82975C145.428 5.71276 145.511 5.62085 145.577 5.60414C145.61 5.59578 145.635 5.60414 145.66 5.6292C145.726 5.67934 145.726 5.81304 145.734 5.98851C145.742 6.16399 145.75 6.38124 145.825 6.60685C145.94 6.9578 146.329 7.29204 146.824 7.25026C147.585 7.18341 148.039 6.64028 148.056 5.80468C148.072 4.9273 147.519 3.89116 145.899 3.84938C145.874 3.84938 145.858 3.84938 145.833 3.84938C145.222 3.84938 144.66 4.09171 144.214 4.54293C143.701 5.07771 143.371 5.87988 143.354 6.64863C143.33 8.14435 144.098 9.01337 144.742 9.4813C145.395 9.94924 146.42 9.98266 147.7 9.57322C148.138 9.43117 148.609 9.23898 149.064 9.04679H149.072C149.46 8.88803 149.857 8.72091 150.237 8.57886C150.46 8.50366 150.699 8.43681 150.947 8.39503L150.98 8.38667L150.956 8.35325C150.856 8.21955 150.732 8.04408 150.567 7.81847C150.237 7.35053 150.146 6.48987 150.253 6.31439C150.303 6.23919 150.352 6.22248 150.377 6.22248C150.394 6.22248 150.41 6.23083 150.41 6.23083C150.41 6.23919 150.41 6.28097 150.41 6.28933C150.41 6.33111 150.41 6.53165 150.501 6.63192C150.617 6.76562 150.774 6.79068 150.84 6.75726C150.865 6.74055 150.881 6.72384 150.889 6.69877C150.914 6.62356 151.03 6.2559 151.228 5.95509C151.393 5.70441 151.914 5.32003 152.22 5.32003C152.228 5.32003 152.236 5.32003 152.244 5.32003C152.327 5.32839 152.385 5.36181 152.418 5.42866C152.459 5.51222 152.327 5.65427 152.286 5.69605C152.021 5.98015 151.707 6.39795 151.683 7.0915C151.674 7.41738 151.765 7.68477 151.955 7.89367C152.319 8.2864 152.947 8.33654 153.071 8.33654V9.05515C153.054 9.05515 153.029 9.05515 153.013 9.05515C152.393 9.05515 151.897 9.81554 151.732 10.5926C151.592 11.2277 151.716 12.1218 151.765 12.3892C151.815 12.6315 151.773 12.69 151.757 12.6984C151.749 12.7067 151.74 12.7067 151.716 12.7067C151.583 12.6816 151.344 12.3975 151.079 11.963C150.881 11.6455 150.939 11.2444 150.972 11.0272C150.989 10.9102 150.997 10.86 150.956 10.8266L150.947 10.8183C150.922 10.7932 150.881 10.7681 150.832 10.7681C150.832 10.7681 150.832 10.7681 150.823 10.7681C150.766 10.7681 150.699 10.8099 150.625 10.8851C150.567 10.952 150.534 10.9937 150.518 11.0272C150.485 11.0773 150.485 11.0773 150.402 11.0439C150.402 11.0439 150.394 11.0439 150.385 11.0272C150.328 10.8684 150.501 10.3169 150.724 9.93253C150.898 9.62336 151.088 9.39774 151.352 9.18885L151.426 9.13035L151.327 9.15542C150.427 9.36432 149.526 9.72363 148.973 10.108C148.262 10.5926 147.684 11.1692 147.262 11.8126C147.188 11.7625 147.114 11.7291 146.932 11.6455C146.816 11.5954 146.643 11.5369 146.511 11.5202C146.684 11.2778 146.99 10.952 147.114 10.8183L147.122 10.8099C147.138 10.7848 147.138 10.7431 147.114 10.718C147.089 10.6929 147.056 10.6846 147.023 10.6929C146.99 10.7096 146.188 11.0188 144.775 10.484C143.627 10.0495 142.429 8.78776 142.495 6.56507C142.578 4.29225 144.148 3.13913 145.676 3.00543ZM140.727 29.3936H168.76V1H140.727V29.3936Z" fill="#990000"/>
<path d="M23.496 78.862C24.1027 78.9647 24.5787 79.2307 24.924 79.66C25.2693 80.08 25.442 80.6167 25.442 81.27C25.442 81.7367 25.3347 82.1753 25.12 82.586C24.9147 82.9967 24.5647 83.3373 24.07 83.608C23.5847 83.8693 22.9453 84 22.152 84H18.4V74.06H21.858C23.0433 74.06 23.888 74.3213 24.392 74.844C24.9053 75.3667 25.162 75.9873 25.162 76.706C25.162 77.2007 25.0173 77.644 24.728 78.036C24.448 78.428 24.0373 78.7033 23.496 78.862ZM19.73 75.18V78.372H21.858C23.1833 78.372 23.846 77.8493 23.846 76.804C23.846 76.3373 23.6967 75.95 23.398 75.642C23.1087 75.334 22.5953 75.18 21.858 75.18H19.73ZM22.082 82.88C22.8007 82.88 23.3187 82.7167 23.636 82.39C23.9627 82.0633 24.126 81.648 24.126 81.144C24.126 80.6493 23.9673 80.2527 23.65 79.954C23.342 79.646 22.866 79.492 22.222 79.492H19.73V82.88H22.082ZM28.3008 78.596C28.4782 78.0733 28.7488 77.6487 29.1128 77.322C29.4862 76.9953 29.9248 76.832 30.4288 76.832C30.5408 76.832 30.6248 76.8367 30.6808 76.846V78.008H30.6248C29.9622 78.008 29.4488 78.19 29.0848 78.554C28.7862 78.8527 28.5948 79.198 28.5108 79.59C28.4268 79.982 28.3848 80.4533 28.3848 81.004V84H27.1948V77H28.3008V78.596ZM34.5097 84.168C33.8564 84.168 33.2824 84.0233 32.7877 83.734C32.2931 83.4353 31.9104 83.0107 31.6397 82.46C31.3784 81.9093 31.2477 81.256 31.2477 80.5C31.2477 79.744 31.3784 79.0907 31.6397 78.54C31.9104 77.9893 32.2931 77.5693 32.7877 77.28C33.2824 76.9813 33.8564 76.832 34.5097 76.832C35.1631 76.832 35.7371 76.9813 36.2317 77.28C36.7264 77.5693 37.1044 77.9893 37.3657 78.54C37.6364 79.0907 37.7717 79.744 37.7717 80.5C37.7717 81.256 37.6364 81.9093 37.3657 82.46C37.1044 83.0107 36.7264 83.4353 36.2317 83.734C35.7371 84.0233 35.1631 84.168 34.5097 84.168ZM34.5097 83.132C35.1444 83.132 35.6344 82.908 35.9797 82.46C36.3344 82.012 36.5117 81.3587 36.5117 80.5C36.5117 79.6413 36.3344 78.988 35.9797 78.54C35.6344 78.092 35.1444 77.868 34.5097 77.868C33.8751 77.868 33.3804 78.092 33.0257 78.54C32.6804 78.988 32.5077 79.6413 32.5077 80.5C32.5077 81.3587 32.6804 82.012 33.0257 82.46C33.3804 82.908 33.8751 83.132 34.5097 83.132ZM41.967 84.168C41.323 84.168 40.7584 84.0187 40.273 83.72C39.7877 83.4213 39.4097 82.9967 39.139 82.446C38.8777 81.886 38.747 81.2373 38.747 80.5C38.747 79.3613 39.0317 78.4653 39.601 77.812C40.1797 77.1587 40.9684 76.832 41.967 76.832C42.7884 76.832 43.451 77.056 43.955 77.504C44.459 77.952 44.7577 78.5773 44.851 79.38L43.633 79.52C43.5677 78.988 43.3857 78.582 43.087 78.302C42.7977 78.0127 42.415 77.868 41.939 77.868C41.3324 77.868 40.8564 78.1013 40.511 78.568C40.175 79.0253 40.007 79.6647 40.007 80.486C40.007 81.326 40.1797 81.9793 40.525 82.446C40.8704 82.9033 41.3557 83.132 41.981 83.132C42.457 83.132 42.8397 82.992 43.129 82.712C43.4184 82.432 43.6097 82.0167 43.703 81.466L44.837 81.648C44.7064 82.4507 44.389 83.0713 43.885 83.51C43.3904 83.9487 42.751 84.168 41.967 84.168ZM46.5362 73.85H47.7262V78.316C48.1462 77.3267 48.9115 76.832 50.0222 76.832C50.7782 76.832 51.3522 77.07 51.7442 77.546C52.1362 78.022 52.3322 78.722 52.3322 79.646V84H51.1422V79.73C51.1422 79.114 51.0115 78.6473 50.7502 78.33C50.4982 78.0127 50.1202 77.854 49.6162 77.854C49.0188 77.854 48.5522 78.0733 48.2162 78.512C47.8895 78.9413 47.7262 79.5527 47.7262 80.346V84H46.5362V73.85ZM56.546 84.168C55.706 84.168 55.0946 83.9347 54.712 83.468C54.3386 83.0013 54.152 82.334 54.152 81.466V77H55.342V81.326C55.342 81.914 55.4633 82.3667 55.706 82.684C55.958 82.992 56.3126 83.146 56.77 83.146C57.33 83.146 57.7826 82.9267 58.128 82.488C58.4733 82.0493 58.646 81.4753 58.646 80.766V77H59.836V84H58.716V82.684C58.5573 83.1133 58.2773 83.468 57.876 83.748C57.4746 84.028 57.0313 84.168 56.546 84.168ZM63.186 78.596C63.3633 78.0733 63.634 77.6487 63.998 77.322C64.3713 76.9953 64.81 76.832 65.314 76.832C65.426 76.832 65.51 76.8367 65.566 76.846V78.008H65.51C64.8473 78.008 64.334 78.19 63.97 78.554C63.6713 78.8527 63.48 79.198 63.396 79.59C63.312 79.982 63.27 80.4533 63.27 81.004V84H62.08V77H63.186V78.596ZM72.2929 80.85H67.3229C67.3322 81.5313 67.5236 82.082 67.8969 82.502C68.2796 82.9127 68.7836 83.118 69.4089 83.118C69.8569 83.118 70.2396 83.006 70.5569 82.782C70.8742 82.5487 71.1122 82.2173 71.2709 81.788L72.2509 82.222C72.0082 82.8567 71.6349 83.342 71.1309 83.678C70.6362 84.0047 70.0342 84.168 69.3249 84.168C68.3169 84.168 67.5329 83.86 66.9729 83.244C66.4129 82.6187 66.1329 81.732 66.1329 80.584C66.1329 79.408 66.4129 78.4887 66.9729 77.826C67.5329 77.1633 68.3122 76.832 69.3109 76.832C70.2629 76.832 70.9956 77.1027 71.5089 77.644C72.0316 78.1853 72.2929 78.974 72.2929 80.01V80.85ZM71.0889 79.73C71.0889 79.0953 70.9302 78.61 70.6129 78.274C70.3049 77.938 69.8616 77.77 69.2829 77.77C68.6762 77.77 68.2002 77.9567 67.8549 78.33C67.5189 78.7033 67.3416 79.2213 67.3229 79.884H71.0889V79.73Z" fill="#81807E"/>
<path d="M146.928 58.06C147.609 58.06 148.202 58.1813 148.706 58.424C149.219 58.6667 149.611 59.012 149.882 59.46C150.162 59.8987 150.302 60.412 150.302 61C150.302 61.588 150.162 62.106 149.882 62.554C149.611 62.9927 149.219 63.3333 148.706 63.576C148.202 63.8187 147.609 63.94 146.928 63.94H144.73V68H143.4V58.06H146.928ZM146.788 62.82C147.432 62.82 147.945 62.6567 148.328 62.33C148.711 61.994 148.902 61.5507 148.902 61C148.902 60.4493 148.711 60.0107 148.328 59.684C147.945 59.348 147.432 59.18 146.788 59.18H144.73V62.82H146.788ZM152.672 62.596C152.849 62.0733 153.12 61.6487 153.484 61.322C153.857 60.9953 154.296 60.832 154.8 60.832C154.912 60.832 154.996 60.8367 155.052 60.846V62.008H154.996C154.333 62.008 153.82 62.19 153.456 62.554C153.157 62.8527 152.966 63.198 152.882 63.59C152.798 63.982 152.756 64.4533 152.756 65.004V68H151.566V61H152.672V62.596ZM161.779 64.85H156.809C156.818 65.5313 157.009 66.082 157.383 66.502C157.765 66.9127 158.269 67.118 158.895 67.118C159.343 67.118 159.725 67.006 160.043 66.782C160.36 66.5487 160.598 66.2173 160.757 65.788L161.737 66.222C161.494 66.8567 161.121 67.342 160.617 67.678C160.122 68.0047 159.52 68.168 158.811 68.168C157.803 68.168 157.019 67.86 156.459 67.244C155.899 66.6187 155.619 65.732 155.619 64.584C155.619 63.408 155.899 62.4887 156.459 61.826C157.019 61.1633 157.798 60.832 158.797 60.832C159.749 60.832 160.481 61.1027 160.995 61.644C161.517 62.1853 161.779 62.974 161.779 64.01V64.85ZM160.575 63.73C160.575 63.0953 160.416 62.61 160.099 62.274C159.791 61.938 159.347 61.77 158.769 61.77C158.162 61.77 157.686 61.9567 157.341 62.33C157.005 62.7033 156.827 63.2213 156.809 63.884H160.575V63.73ZM165.841 68.168C165.01 68.168 164.329 67.9813 163.797 67.608C163.274 67.2347 162.952 66.7027 162.831 66.012L164.035 65.802C164.119 66.2407 164.32 66.5813 164.637 66.824C164.954 67.0667 165.37 67.188 165.883 67.188C166.34 67.188 166.695 67.09 166.947 66.894C167.208 66.6887 167.339 66.432 167.339 66.124C167.339 65.8253 167.255 65.6013 167.087 65.452C166.919 65.3027 166.667 65.2 166.331 65.144L164.959 64.892C164.362 64.78 163.9 64.5607 163.573 64.234C163.256 63.898 163.097 63.464 163.097 62.932C163.097 62.316 163.335 61.812 163.811 61.42C164.296 61.028 164.945 60.832 165.757 60.832C166.541 60.832 167.18 61 167.675 61.336C168.179 61.672 168.464 62.134 168.529 62.722L167.353 62.988C167.269 62.624 167.087 62.3347 166.807 62.12C166.527 61.9053 166.158 61.798 165.701 61.798C165.253 61.798 164.898 61.8913 164.637 62.078C164.385 62.2647 164.259 62.5307 164.259 62.876C164.259 63.156 164.348 63.3753 164.525 63.534C164.712 63.6927 164.982 63.8047 165.337 63.87L166.695 64.122C167.32 64.2433 167.778 64.4627 168.067 64.78C168.366 65.088 168.515 65.5033 168.515 66.026C168.515 66.67 168.277 67.188 167.801 67.58C167.334 67.972 166.681 68.168 165.841 68.168ZM175.738 64.85H170.768C170.778 65.5313 170.969 66.082 171.342 66.502C171.725 66.9127 172.229 67.118 172.854 67.118C173.302 67.118 173.685 67.006 174.002 66.782C174.32 66.5487 174.558 66.2173 174.716 65.788L175.696 66.222C175.454 66.8567 175.08 67.342 174.576 67.678C174.082 68.0047 173.48 68.168 172.77 68.168C171.762 68.168 170.978 67.86 170.418 67.244C169.858 66.6187 169.578 65.732 169.578 64.584C169.578 63.408 169.858 62.4887 170.418 61.826C170.978 61.1633 171.758 60.832 172.756 60.832C173.708 60.832 174.441 61.1027 174.954 61.644C175.477 62.1853 175.738 62.974 175.738 64.01V64.85ZM174.534 63.73C174.534 63.0953 174.376 62.61 174.058 62.274C173.75 61.938 173.307 61.77 172.728 61.77C172.122 61.77 171.646 61.9567 171.3 62.33C170.964 62.7033 170.787 63.2213 170.768 63.884H174.534V63.73ZM177.421 61H178.541V62.386C178.998 61.35 179.777 60.832 180.879 60.832C181.653 60.832 182.237 61.07 182.629 61.546C183.021 62.0127 183.217 62.7127 183.217 63.646V68H182.027V63.716C182.027 62.4747 181.513 61.854 180.487 61.854C179.908 61.854 179.451 62.078 179.115 62.526C178.779 62.9647 178.611 63.5713 178.611 64.346V68H177.421V61ZM184.061 61H185.363V59.166L186.553 58.662V61H188.303V61.98H186.553V65.858C186.553 66.2593 186.633 66.5533 186.791 66.74C186.959 66.9173 187.221 67.006 187.575 67.006C187.781 67.006 188.023 66.9733 188.303 66.908V68C187.995 68.084 187.65 68.126 187.267 68.126C186.558 68.126 186.063 67.9347 185.783 67.552C185.503 67.1693 185.363 66.6187 185.363 65.9V61.98H184.061V61ZM191.434 68.168C190.716 68.168 190.142 67.9813 189.712 67.608C189.283 67.2347 189.068 66.7353 189.068 66.11C189.068 65.7553 189.152 65.438 189.32 65.158C189.488 64.8687 189.731 64.6353 190.048 64.458C190.319 64.3273 190.636 64.2153 191 64.122C191.364 64.0287 191.831 63.9493 192.4 63.884L193.702 63.73V63.618C193.702 62.974 193.581 62.512 193.338 62.232C193.096 61.952 192.704 61.812 192.162 61.812C191.686 61.812 191.308 61.9333 191.028 62.176C190.748 62.4187 190.594 62.7593 190.566 63.198H189.292C189.339 62.4793 189.619 61.9053 190.132 61.476C190.655 61.0467 191.327 60.832 192.148 60.832C193.11 60.832 193.81 61.0653 194.248 61.532C194.687 61.9893 194.906 62.7267 194.906 63.744V65.634C194.906 66.698 194.986 67.4867 195.144 68H193.898C193.842 67.608 193.805 67.1833 193.786 66.726C193.628 67.174 193.338 67.5287 192.918 67.79C192.498 68.042 192.004 68.168 191.434 68.168ZM191.7 67.188C192.307 67.188 192.792 66.9873 193.156 66.586C193.53 66.1753 193.716 65.6293 193.716 64.948V64.598L191.812 64.878C191.299 64.9527 190.921 65.088 190.678 65.284C190.445 65.4707 190.328 65.7367 190.328 66.082C190.328 66.4273 190.45 66.698 190.692 66.894C190.935 67.09 191.271 67.188 191.7 67.188ZM195.915 61H197.217V59.166L198.407 58.662V61H200.157V61.98H198.407V65.858C198.407 66.2593 198.487 66.5533 198.645 66.74C198.813 66.9173 199.075 67.006 199.429 67.006C199.635 67.006 199.877 66.9733 200.157 66.908V68C199.849 68.084 199.504 68.126 199.121 68.126C198.412 68.126 197.917 67.9347 197.637 67.552C197.357 67.1693 197.217 66.6187 197.217 65.9V61.98H195.915V61ZM201.621 61H202.811V68H201.621V61ZM201.537 58.2H202.895V59.698H201.537V58.2ZM207.678 68.168C207.025 68.168 206.451 68.0233 205.956 67.734C205.461 67.4353 205.079 67.0107 204.808 66.46C204.547 65.9093 204.416 65.256 204.416 64.5C204.416 63.744 204.547 63.0907 204.808 62.54C205.079 61.9893 205.461 61.5693 205.956 61.28C206.451 60.9813 207.025 60.832 207.678 60.832C208.331 60.832 208.905 60.9813 209.4 61.28C209.895 61.5693 210.273 61.9893 210.534 62.54C210.805 63.0907 210.94 63.744 210.94 64.5C210.94 65.256 210.805 65.9093 210.534 66.46C210.273 67.0107 209.895 67.4353 209.4 67.734C208.905 68.0233 208.331 68.168 207.678 68.168ZM207.678 67.132C208.313 67.132 208.803 66.908 209.148 66.46C209.503 66.012 209.68 65.3587 209.68 64.5C209.68 63.6413 209.503 62.988 209.148 62.54C208.803 62.092 208.313 61.868 207.678 61.868C207.043 61.868 206.549 62.092 206.194 62.54C205.849 62.988 205.676 63.6413 205.676 64.5C205.676 65.3587 205.849 66.012 206.194 66.46C206.549 66.908 207.043 67.132 207.678 67.132ZM212.545 61H213.665V62.386C214.123 61.35 214.902 60.832 216.003 60.832C216.778 60.832 217.361 61.07 217.753 61.546C218.145 62.0127 218.341 62.7127 218.341 63.646V68H217.151V63.716C217.151 62.4747 216.638 61.854 215.611 61.854C215.033 61.854 214.575 62.078 214.239 62.526C213.903 62.9647 213.735 63.5713 213.735 64.346V68H212.545V61Z" fill="#81807E"/>
</svg>
