<svg width="351" height="201" viewBox="0 0 351 201" fill="none" xmlns="http://www.w3.org/2000/svg">
<path d="M242.772 177.003C239.215 174.6 235.863 172.319 235.863 167.838C235.863 165.19 237.417 162.379 241.791 162.379C245.552 162.379 247.923 164.335 248.659 168.001C248.659 168.082 248.741 168.164 248.823 168.164H249.109C249.15 168.164 249.191 168.164 249.232 168.123C249.273 168.082 249.273 168.042 249.273 168.001C249.232 167.268 249.232 166.005 249.232 165.272C249.232 164.009 249.273 163.113 249.395 161.972C249.395 161.931 249.395 161.85 249.354 161.809C249.313 161.768 249.273 161.768 249.191 161.768C248.905 161.809 248.659 161.809 248.373 161.809C247.515 161.809 246.656 161.646 245.757 161.483C244.612 161.28 243.345 161.035 241.709 161.035C236.149 161.035 232.224 164.783 232.224 170.16C232.224 175.822 236.231 178.511 240.074 181.158C243.794 183.684 247.269 186.047 247.269 190.853C247.269 195.375 243.917 197.412 240.605 197.412C236.762 197.412 232.919 195.294 232.919 191.302C232.919 190.976 232.96 190.609 233.001 190.242V190.079C233.001 190.039 233.001 189.957 232.96 189.957C232.919 189.917 232.879 189.917 232.838 189.917H232.674C232.592 189.917 232.551 189.957 232.511 190.039C231.938 191.302 231.897 192.809 231.897 193.257C231.897 193.909 231.979 194.52 232.02 195.09C232.102 195.66 232.143 196.149 232.143 196.719C232.143 197.167 232.143 197.738 232.102 197.982C232.102 198.023 232.102 198.104 232.143 198.145C232.184 198.186 232.224 198.186 232.306 198.186C232.592 198.145 232.715 198.145 233.042 198.145C234.146 198.145 235.045 198.349 235.986 198.552C237.13 198.797 238.439 199.082 240.278 199.082C246.533 199.082 250.908 194.846 250.908 188.735C250.867 182.503 246.738 179.733 242.772 177.003Z" fill="#990000"/>
<path d="M312.886 180.384C312.886 190.894 307.653 197.412 299.231 197.412C290.891 197.412 285.944 190.935 285.944 180.058C285.944 171.952 289.419 162.461 299.231 162.461C305.568 162.461 312.886 167.145 312.886 180.384ZM299.681 160.994C287.907 160.994 280.916 170.771 280.916 180.221C280.916 189.428 287.784 198.919 299.272 198.919C309.738 198.919 317.956 190.65 317.956 180.058C317.915 169.386 309.902 160.994 299.681 160.994Z" fill="#990000"/>
<path d="M339.991 172.197C339.991 175.822 339.01 180.67 330.67 180.67H328.34V163.072C329.812 162.665 330.793 162.583 331.937 162.583C336.802 162.624 339.991 166.372 339.991 172.197ZM350.294 198.268C347.268 197.249 343.752 190.976 341.177 186.414C339.705 183.806 338.56 181.729 337.702 180.914C342.076 179.203 344.693 175.741 344.693 171.545C344.693 165.19 339.787 161.076 332.183 161.076C331.651 161.076 330.793 161.117 329.852 161.117C328.789 161.157 327.604 161.157 326.745 161.157C324.456 161.157 323.516 161.157 321.758 161.035C321.717 161.035 321.676 161.035 321.635 161.076C321.594 161.117 321.594 161.157 321.594 161.198V161.443C321.594 161.524 321.676 161.605 321.758 161.605C323.516 161.891 324.129 162.583 324.129 166.127V193.828C324.129 197.942 323.475 198.064 321.676 198.349C321.594 198.349 321.512 198.431 321.512 198.512V198.757C321.512 198.797 321.512 198.838 321.553 198.879C321.594 198.919 321.635 198.919 321.676 198.919C322.739 198.879 324.211 198.797 326.214 198.797C328.34 198.797 330.098 198.879 330.752 198.919C330.793 198.919 330.834 198.919 330.874 198.879C330.915 198.838 330.915 198.797 330.915 198.757V198.512C330.915 198.431 330.834 198.349 330.752 198.349C328.953 198.064 328.299 197.942 328.299 193.828V182.136H331.447C332.019 182.136 332.755 182.055 333.573 181.933C334.472 182.788 335.535 184.784 336.189 186.006C336.312 186.251 336.434 186.495 336.557 186.658C342.69 198.105 343.344 198.797 348.863 199.001C349.476 199.001 349.721 199.001 350.171 198.96C350.253 198.96 350.335 198.879 350.335 198.797V198.471C350.416 198.39 350.375 198.308 350.294 198.268Z" fill="#990000"/>
<path d="M281.284 160.994C281.243 160.953 281.202 160.912 281.12 160.912C278.667 160.953 265.748 161.157 254.179 160.912C254.097 160.912 254.015 160.953 254.015 161.034C253.77 161.971 253.565 162.786 253.32 163.56C253.034 164.537 252.789 165.434 252.584 166.371C252.584 166.411 252.584 166.493 252.625 166.533C252.666 166.574 252.707 166.615 252.748 166.615H252.993C253.075 166.615 253.116 166.574 253.156 166.493C254.669 163.315 257.081 163.275 265.012 163.275V193.744C265.012 197.858 264.358 197.981 262.559 198.266C262.478 198.266 262.396 198.347 262.396 198.429V198.673C262.396 198.714 262.396 198.754 262.437 198.795C262.478 198.836 262.519 198.836 262.559 198.836C263.582 198.795 265.053 198.714 267.057 198.714C269.182 198.714 270.9 198.795 271.554 198.836C271.595 198.836 271.635 198.836 271.676 198.795C271.717 198.754 271.717 198.714 271.717 198.673V198.429C271.717 198.347 271.635 198.266 271.554 198.266C269.796 197.981 269.101 197.858 269.101 193.744V163.275C278.218 163.275 279.444 163.641 279.444 165.026C279.444 165.271 279.403 165.597 279.362 165.76C279.362 165.8 279.362 165.882 279.403 165.922C279.444 165.963 279.485 166.004 279.526 166.004H279.853C279.935 166.004 280.016 165.922 280.016 165.841C280.18 165.026 280.752 162.541 281.202 161.157C281.325 161.116 281.325 161.034 281.284 160.994Z" fill="#990000"/>
<path d="M227.523 160.954C226.501 160.994 224.498 161.035 222.781 161.035C220.941 161.035 218.897 160.994 217.834 160.954C217.793 160.954 217.752 160.954 217.711 160.994C217.67 161.035 217.67 161.076 217.67 161.117V161.361C217.67 161.442 217.752 161.524 217.834 161.524C219.633 161.809 220.818 162.013 220.818 165.883V188.409C220.818 192.646 218.774 197.249 215.504 197.249C214.89 197.249 214.318 197.208 213.787 197.127C211.497 196.556 210.066 194.968 209.208 193.827C209.085 193.664 208.962 193.501 208.881 193.338C207.94 191.913 207.491 190.691 207.491 190.65C207.45 190.528 207.327 190.487 207.204 190.487C207.082 190.528 207 190.609 207 190.772L207.777 196.679C207.777 196.76 207.818 196.842 207.899 196.882C210.066 198.267 212.724 198.675 213.214 198.715C214.073 198.838 214.768 198.878 215.177 198.878C215.504 198.878 215.708 198.878 215.708 198.878C221.186 198.878 224.866 194.438 224.866 187.839V165.883C224.866 162.094 225.765 161.931 227.564 161.524L227.646 161.483C227.728 161.483 227.768 161.402 227.768 161.32V161.076C227.768 161.035 227.768 160.994 227.728 160.954C227.605 160.954 227.564 160.954 227.523 160.954Z" fill="#990000"/>
<path d="M340.237 65.7142C339.011 66.5289 337.702 66.6511 337.661 66.6511C337.621 66.6511 337.58 66.6918 337.58 66.7325C337.58 66.7733 337.58 66.814 337.621 66.8548C337.661 66.8955 340.973 69.747 341.3 73.6168C341.668 77.5682 341.055 79.7679 339.051 81.6417C337.457 83.1489 335.127 83.3526 334.268 83.1489C334.064 83.1082 334.023 83.0674 334.023 83.0267C333.9 82.5379 334.636 82.0083 335.536 81.3973C335.74 81.2751 335.944 81.1121 336.149 80.9899C337.293 80.1752 337.907 78.831 337.539 78.0977C337.416 77.8533 337.212 77.8126 336.966 77.8126C336.762 77.8126 336.558 77.8941 336.312 77.9755C335.863 78.0977 335.372 78.2607 335.127 77.9755C334.841 77.6904 334.963 77.446 335.208 76.9571C335.413 76.5498 335.658 76.061 335.699 75.3685C335.822 73.8612 335.617 69.9099 333.491 69.4618C333.41 69.4618 333.328 69.4618 333.246 69.5026C333.042 69.6655 333.042 70.1543 333.042 70.9283C333.042 71.9467 333.001 73.2909 332.428 74.1871C331.529 75.5721 330.098 76.6312 329.444 76.6312C329.28 76.6312 329.199 76.5905 329.117 76.509C329.035 76.3868 329.076 76.061 329.199 75.5721C329.444 74.4315 329.853 72.3133 329.24 68.362C329.035 66.977 328.177 65.4697 327.4 64.044C326.623 62.659 325.887 61.3147 325.724 60.1741C325.437 58.0559 325.683 57.1597 326.868 56.2635C327.563 55.734 327.686 55.2452 327.686 54.9193C327.686 54.5934 327.523 53.9824 326.95 53.7787C326.909 53.7787 326.909 53.7787 326.868 53.7379C326.582 53.6565 326.092 53.6157 325.56 53.6157C323.312 53.6565 318.038 53.6972 314.317 48.646C311.292 44.5725 311.088 40.7433 311.66 36.2217V36.181C311.66 36.0995 311.333 34.4294 309.902 33.1258C309.207 32.5148 308.512 32.1482 308.021 31.9038C307.735 31.7408 307.408 31.6186 307.408 31.4964C307.408 31.4964 307.408 31.4149 307.49 31.3742C307.858 31.0076 309.125 30.478 310.883 30.7224C312.191 30.9261 313.132 31.4557 313.132 31.4557C313.173 31.4964 313.214 31.4557 313.254 31.4149C313.295 31.3742 316.729 27.3414 322.453 27.7895C325.887 28.0339 329.158 31.3742 329.24 34.9997C329.321 38.6251 327.645 40.5397 326.173 41.0285C324.988 41.4358 323.884 41.3951 323.23 40.947C322.944 40.7433 322.739 40.4582 322.739 40.1323C322.739 39.8472 322.985 39.6842 323.475 39.4398C324.293 39.0325 325.56 38.3807 325.724 36.0995C325.805 34.9182 325.397 33.7369 324.62 32.9221C324.088 32.3519 323.148 31.6593 321.595 31.7408C319.591 31.8223 317.956 32.5963 316.852 34.022C315.462 35.8144 314.972 38.6251 315.503 41.8432C316.28 46.5278 320.818 49.7866 325.805 49.257C328.749 48.9719 331.488 47.3017 333.573 44.6132C335.536 42.0876 336.68 38.8288 336.721 35.6922C336.803 27.871 332.265 19.8053 321.881 19.398C311.946 19.0314 305.773 25.1824 302.952 28.8486C301.194 31.1298 299.354 35.4885 298.005 39.0325C298.618 38.9103 300.54 38.6658 302.257 39.5213C304.015 40.3767 306.059 42.495 305.691 43.3911C305.609 43.6356 305.078 43.5134 304.301 43.3097C303.279 43.0245 301.848 43.106 300.254 43.3504C297.515 43.717 296.411 44.2466 296.084 44.5317L296.247 44.0429C296.165 44.3281 296.084 44.5317 296.084 44.5317L292.363 42.2506C292.895 39.9286 295.266 30.1929 301.194 23.7974C307.286 17.239 314.604 15.08 321.063 15.0393C324.579 14.9986 327.809 15.5281 330.466 16.1392C330.793 16.2206 331.079 16.2614 331.365 16.3428C333.9 16.9131 336.558 17.4427 338.438 16.9539C339.46 16.7094 340.319 16.3021 340.973 15.9762C341.382 15.7725 341.791 15.5689 341.872 15.6096C341.872 15.6096 341.913 15.6503 341.913 15.6911C341.995 16.0984 341.627 17.402 340.441 18.9906C339.706 20.009 338.765 20.5793 338.111 21.0274C337.498 21.394 337.089 21.6792 337.089 22.0865C337.089 22.2902 337.293 22.6568 337.661 23.3086C338.806 25.3454 341.177 29.6226 340.891 35.6514C340.441 44.8984 336.026 48.8497 333.083 51.4975L332.715 51.8234H332.674C330.711 54.0638 330.957 56.1413 331.529 57.4449C332.388 59.4409 334.268 61.1111 336.68 61.9665C338.07 62.4553 339.583 62.6183 340.687 62.7405C341.504 62.8219 342.322 62.9034 342.404 63.1071C342.69 63.7589 341.913 64.655 340.237 65.7142ZM340.605 97.6915C339.706 102.946 336.721 105.187 334.186 105.513C333.982 105.553 333.778 105.553 333.614 105.553C332.878 105.553 332.306 105.35 332.142 105.024C332.101 104.902 332.06 104.779 332.101 104.657C332.183 104.454 332.469 104.331 332.878 104.209C333.369 104.046 334.064 103.761 334.8 103.191C336.966 101.48 336.844 100.747 336.762 100.176C336.762 100.095 336.721 100.054 336.68 100.054C336.558 99.9726 336.231 100.136 335.863 100.339L335.699 100.421C335.208 100.665 334.759 100.706 334.391 100.543C334.186 100.421 334.064 100.258 334.023 100.054C333.982 99.8097 334.268 99.5653 334.595 99.2394C334.881 98.995 335.208 98.7098 335.413 98.384C336.517 96.6731 336.721 94.5956 335.863 92.9661C335.249 91.7441 334.35 90.6035 331.693 90.3591C331.652 90.3591 331.57 90.3591 331.529 90.3591H331.447C331.12 90.3591 330.752 90.3998 330.343 90.4813C327.4 91.0516 325.438 93.0069 324.129 95.0844C324.129 95.1251 324.088 95.1659 324.088 95.1659C322.29 97.8137 321.84 101.887 321.717 102.661V102.702C321.145 106.409 319.918 111.908 312.11 121.562C311.21 122.662 310.515 124.251 310.965 126.043C311.783 129.139 314.767 129.424 314.726 129.75C314.685 130.198 314.072 130.198 312.968 130.117C311.864 130.035 311.456 129.669 311.456 129.669C311.456 129.669 311.169 130.361 313.009 131.706C314.399 132.724 315.994 132.683 316.034 133.131C316.075 133.661 307.408 135.657 306.877 126.939C306.877 126.736 306.836 126.532 306.836 126.328C297.474 134.883 294.735 135.29 294.04 134.394C293.713 133.946 294.612 134.068 296.411 132.031C298.25 129.954 298.291 129.017 298.291 129.017C298.291 129.017 294.653 130.972 290.401 130.606C286.067 130.198 282.429 127.184 282.756 126.003C283.001 124.984 285.577 126.736 288.684 126.247C291.546 125.799 291.791 124.658 291.791 124.658C291.791 124.658 291.219 124.658 290.278 123.681C289.338 122.703 287.948 121.888 288.725 121.074C289.175 120.585 291.341 121.562 293.467 121.603C296.165 121.603 297.883 120.992 297.883 120.992C297.883 120.992 296.779 120.585 295.634 119.485C294.489 118.344 294.244 117.204 294.571 116.919C294.775 116.756 295.225 117.652 296.738 117.652C298.496 117.611 298.7 117.204 298.7 117.204C298.7 117.204 297.964 116.511 297.596 115.859C297.269 115.167 296.206 113.212 296.86 112.478C297.065 112.234 299.068 114.678 302.012 114.963C307.081 115.411 312.641 111.419 312.641 111.419C312.641 111.419 309.902 114.76 304.097 119.77C300.376 122.947 295.675 125.554 295.961 126.166C296.288 126.899 299.968 126.043 306.345 120.748C308.389 119.037 309.698 117.937 312.478 114.515C317.384 108.486 318.487 101.887 317.506 96.5916C317.097 94.5141 316.566 92.6403 315.912 91.0516C313.173 85.1857 310.229 82.2935 305.323 80.4196C300.949 78.7495 297.596 80.2567 295.552 81.1936C294.53 81.6824 293.835 81.9676 293.549 81.5602C292.65 80.2974 294.448 78.5865 296.043 77.0793C298.087 75.1648 299.436 74.3908 299.804 74.2279C299.436 74.0649 298.128 73.4131 296.86 73.3317C296.206 73.2909 295.47 73.4132 294.816 73.4946C293.794 73.6576 292.977 73.7798 292.854 73.2502C292.65 72.2318 296.82 70.3987 299.068 69.6655C301.358 68.9323 303.197 68.8101 303.524 68.8101C303.483 68.3212 303.116 64.4921 303.524 58.9113C303.729 55.9784 304.301 53.9416 304.71 52.7603C305.241 51.2531 305.855 50.2347 306.386 49.9088C306.591 49.7866 306.836 49.7866 306.999 49.8681C307.367 50.0718 307.367 50.8457 307.367 51.9863C307.367 52.6788 307.367 53.575 307.449 54.5119C307.694 57.3227 308.594 58.8706 309.125 59.1965C309.207 59.2372 309.289 59.278 309.33 59.2372C309.534 59.1558 309.575 58.7891 309.657 58.3003C309.779 57.6485 309.902 56.7116 310.474 55.571C311.374 53.6565 313.173 51.416 313.786 51.579C313.949 51.6197 313.99 51.8234 313.99 52.1085C313.949 53.0047 313.786 53.7787 313.663 54.5934C313.377 56.3043 313.05 58.2188 313.254 61.8036C313.5 67.0584 315.953 67.7509 316.28 67.8324C316.443 67.5472 317.629 65.5105 319.346 63.6774C319.714 63.3108 320.041 62.9034 320.409 62.5368C321.472 61.3147 322.33 60.3778 322.944 60.3778H322.985C323.148 60.3778 323.312 60.5 323.393 60.663C323.598 60.9889 323.271 61.8443 322.698 63.2293C321.922 65.1439 320.736 68.0361 320.205 71.5801C319.223 78.3829 320.205 84.982 320.245 85.0227L320.327 85.5116L320.164 85.0635C320.164 85.0635 319.591 83.4341 317.179 79.9308C316.116 78.3421 315.258 77.4052 314.44 76.509C313.418 75.3685 312.437 74.3093 311.088 72.0281C309.534 69.4211 309.125 67.4658 308.88 66.1623C308.676 65.0624 308.553 64.5328 307.94 64.4514C307.858 64.4514 307.817 64.4921 307.735 64.5736C307.204 65.429 307.49 70.1951 308.962 73.0058C309.739 74.513 310.679 75.7351 311.742 77.1201C312.846 78.5458 314.072 80.1345 315.585 82.5786C318.324 87.0188 319.673 90.2776 320.327 92.2329C320.491 92.7217 320.613 93.1291 320.736 93.4957C321.063 92.8439 321.595 92.07 321.758 91.907C326.582 86.6114 330.793 86.2448 333.696 86.9373H333.737C335.822 87.3854 337.702 88.6075 339.011 90.4406C340.36 92.5588 341.014 95.2473 340.605 97.6915ZM339.542 124.373C339.542 124.414 339.501 124.455 339.501 124.536C338.438 128.284 336.149 130.85 332.96 131.787C331.979 132.072 331.038 132.235 330.18 132.235C328.054 132.235 326.255 131.42 324.334 130.198C324.211 130.158 323.148 129.995 322.044 130.606C321.472 130.932 321.104 131.298 320.818 131.583C320.572 131.828 320.409 131.991 320.245 131.95C320.205 131.95 320.123 131.868 320.082 131.787C319.918 131.38 319.918 130.28 320.613 129.058C321.022 128.284 321.513 127.795 321.676 127.673C321.472 127.184 320.082 123.803 321.84 120.055C323.025 117.53 326.132 116.185 328.504 117.163C330.875 118.141 331.611 119.974 331.529 121.196C331.447 122.214 331.079 123.07 330.589 123.436C330.343 123.599 330.057 123.64 329.853 123.558C329.567 123.436 329.526 123.11 329.526 122.703C329.485 122.011 329.444 121.033 328.136 120.3C327.482 119.933 326.705 119.892 326.051 120.177C325.56 120.381 324.906 120.87 324.538 121.929C324.047 123.355 324.088 124.74 324.702 125.88C325.437 127.306 326.991 128.365 329.076 128.854C332.142 129.587 335.331 127.306 336.353 123.681C336.639 122.581 336.803 121.318 336.394 119.974C335.576 117.285 333.737 114.841 329.28 112.682C327.768 111.949 324.62 110.564 323.393 109.994C324.088 108.038 324.17 107.427 324.375 106.735C324.783 106.083 325.928 105.024 327.032 104.739C328.299 104.454 329.812 105.065 329.771 105.309C329.73 105.553 328.054 105.961 327.114 108.12C327.482 108.283 330.63 109.138 333.328 110.89C337.866 113.823 339.133 116.919 339.501 118.304C340.155 120.585 340.033 122.703 339.542 124.373ZM295.552 52.6381C292.813 50.1125 290.605 49.4607 290.605 49.4607V44.6947C291.914 45.3465 294.939 46.9351 296.656 48.3609C298.373 49.7866 299.681 51.1716 300.744 52.3529L300.008 57.1597C298.741 55.8155 297.147 54.1046 295.552 52.6381ZM292.077 61.274C291.3 55.8155 291.627 53.2899 291.627 53.2899C292.854 53.6972 294.939 55.7747 295.634 56.5079C295.634 56.5079 295.47 57.2412 296.002 60.5815C296.37 63.1071 297.147 65.429 297.433 66.4067L293.59 68.199C293.222 66.977 292.486 64.207 292.077 61.274ZM294.98 93.9845C295.43 97.61 298.455 101.032 302.707 100.584C304.546 100.38 305.855 99.5246 306.754 98.5876L306.509 98.3025C305.936 97.7729 303.933 95.8991 302.298 93.8216C300.703 91.7848 299.927 90.685 299.763 90.4813L299.313 89.8295C299.354 89.7888 299.886 89.4222 301.48 89.4629C303.238 89.5444 304.914 90.8886 305.405 91.296C305.405 91.296 306.223 92.1922 308.839 94.9214C311.946 98.1395 314.195 99.6875 314.563 99.9319C314.563 100.869 314.317 102.661 313.949 103.924C312.519 103.15 310.638 101.602 309.739 100.869C309.616 100.747 309.493 100.665 309.411 100.624C308.267 102.009 306.591 103.354 304.056 104.046C303.483 104.209 302.829 104.291 302.216 104.25C296.656 104.087 292.936 99.9726 292.036 95.9398C291.709 94.4326 291.832 92.5181 291.873 91.2145C291.914 90.0739 291.995 89.0555 291.709 88.3223C291.423 87.4669 291.014 86.9373 290.728 86.5707C290.483 86.2041 290.278 86.0004 290.483 85.7967C290.769 85.4301 291.75 85.6745 292.65 86.2855C293.222 86.6522 293.467 87.1003 293.549 87.3447C294.08 86.53 296.656 83.0267 301.112 82.8638C302.625 82.823 303.974 83.1489 304.996 83.8007C305.855 84.3302 306.427 85.1042 306.672 85.8782C306.836 86.4892 306.836 86.978 306.427 87.1817C306.223 87.3039 305.732 87.1003 305.078 86.7744C304.138 86.3263 302.666 85.8374 300.949 86.0411C299.559 86.2041 297.596 87.141 296.247 88.9333C295.184 90.3184 294.735 92.1107 294.98 93.9845ZM276.46 126.654C271.227 131.38 267.18 132.561 262.233 133.376C256.755 134.313 246.289 132.846 246.289 132.846L240.892 115.493C240.892 115.493 246.493 120.748 249.437 123.07C252.38 125.392 255.119 126.654 259.289 126.654C263.459 126.654 266.28 125.595 269.346 122.336C272.413 119.078 273.557 114.882 274.334 109.912C274.866 106.327 274.62 96.4287 274.62 94.1475L275.397 40.3767C275.397 40.3767 275.765 28.7671 274.947 25.8749C274.13 22.942 272.372 20.8237 271.309 19.7239C268.978 17.2797 263.991 16.5058 263.991 16.5058C262.56 16.2614 262.233 15.5689 262.355 14.8764C262.519 13.858 263.418 13.695 263.418 13.695L298.659 13.7765C298.659 13.7765 299.518 13.858 299.681 14.9171C299.804 15.6096 299.477 16.3021 298.046 16.5465C298.046 16.5465 293.099 17.3612 290.728 19.7646C289.665 20.8645 287.907 22.9827 287.09 25.9157C286.272 28.8486 286.64 40.4175 286.64 40.4175V94.3104C286.64 94.3104 286.762 104.698 285.413 110.157C284.432 113.945 282.265 121.44 276.46 126.654ZM237.008 123.884C235.087 127.917 231.898 131.502 231.285 130.932C230.794 130.443 231.407 130.035 231.734 128.854C232.061 127.632 232.143 127.388 232.143 127.388C232.143 127.388 231.285 128.61 228.218 130.524C225.152 132.439 224.621 132.561 224.089 131.828C223.762 131.339 224.539 130.809 225.275 129.547C225.97 128.325 225.765 128.365 225.765 128.365C225.765 128.365 223.149 128.121 221.023 127.184C218.897 126.247 216.649 124.047 216.689 123.599C216.771 123.029 217.671 122.703 219.265 121.888C220.982 121.033 222.168 119.933 222.168 119.933C222.168 119.933 221.023 119.648 220.369 119.363C219.347 118.874 218.325 118.385 218.938 117.733C219.51 117.204 222.25 119.037 226.46 115.085C230.181 111.582 230.181 106.45 230.181 106.45C230.181 106.45 231.98 112.438 229.608 117.204C226.665 123.07 221.146 123.11 221.759 124.332C222.495 125.84 229.24 124.495 232.143 117.448C234.555 111.582 232.021 104.128 230.181 99.6875C229.649 98.4247 228.954 96.7138 228.505 95.3695C230.181 96.1435 231.571 96.5101 232.92 96.6731C232.92 96.6731 232.92 96.6731 232.92 96.7138C232.961 96.7138 233.165 97.0804 233.165 97.0804C234.801 99.6875 237.335 100.584 238.684 101.113C239.952 101.602 241.342 101.846 242.732 101.846C243.917 101.846 245.144 101.684 246.248 101.235C246.984 100.95 247.679 100.584 248.21 100.013C249.845 98.2618 250.254 92.8847 250.99 92.4773C251.317 92.2737 252.135 93.6179 252.462 94.5956C252.789 95.614 252.625 96.5916 253.239 96.836C253.688 96.999 253.934 96.5101 254.874 95.451C256.182 93.9438 255.978 93.3328 256.632 93.5772C257.286 93.8216 256.591 97.1619 256.264 98.9543C255.937 100.787 255.078 103.435 255.078 103.435C255.078 103.435 257.245 102.009 259.289 101.113C264.972 98.5876 267.18 99.3616 267.221 100.054C267.261 100.747 265.912 100.869 264.44 102.62C263.378 103.883 263.623 104.209 263.623 104.209C263.623 104.209 264.481 104.25 266.853 103.557C268.529 103.069 270.001 102.295 270.45 102.987C270.941 103.68 268.733 106.653 265.34 108.975C261.947 111.297 259.208 112.193 259.208 112.193C259.208 112.193 259.862 112.886 261.538 113.171C263.214 113.456 263.868 113.212 264.032 113.7C264.236 114.352 262.355 114.923 259.208 115.248C254.71 115.697 252.38 113.741 252.38 113.741C252.38 113.741 252.952 115.371 252.298 117C251.603 118.67 251.44 120.218 250.786 120.096C250.132 120.014 250.908 118.426 249.641 116.878C248.292 115.208 246.738 114.841 244.449 113.049C242.2 111.338 242.119 109.953 242.119 109.953C242.119 109.953 246.043 111.419 252.462 110.401C258.635 109.423 260.557 107.59 260.107 106.898C259.698 106.287 258.676 107.061 255.773 107.753C252.38 108.527 247.76 108.323 242.65 107.468C240.851 107.183 238.398 106.327 236.191 104.861C237.049 106.572 238.48 109.627 238.807 111.827C239.42 115.574 238.93 119.811 237.008 123.884ZM233.043 68.6878C233.288 67.0177 234.269 65.2253 234.841 64.4514C237.09 64.044 238.521 65.2661 238.725 65.4697C237.499 67.8324 236.722 70.4395 236.027 73.0465C235.209 72.7206 234.024 71.5393 233.043 68.6878ZM233.574 86.3263C232.429 86.2041 229.486 84.2488 229.322 83.7599C229.322 82.7416 229.568 80.4604 229.976 79.1161C231.448 81.6824 233.86 82.7823 233.86 82.7823C233.451 84.4117 233.574 86.3263 233.574 86.3263ZM221.514 63.7181C221.8 62.9034 222.045 62.3331 222.29 61.8443C222.781 60.7444 223.067 60.0927 223.149 58.5855C223.272 56.8338 222.74 55.4896 222.413 55.1229C222.863 55.1637 224.253 55.7747 224.784 56.9153C225.234 57.8522 225.888 60.2963 225.806 60.7037C225.765 60.7852 225.847 60.8259 225.847 60.8666C225.929 60.9074 226.011 60.8666 226.338 60.6222C227.278 59.9297 230.14 57.7707 235.209 57.73H235.291C244.612 57.73 248.701 66.3252 248.742 66.4067L248.782 66.4474H248.823C248.864 66.4474 250.091 66.814 252.585 65.7549C253.566 65.3475 254.138 64.818 254.71 64.3292C255.651 63.5144 256.468 62.7812 258.717 62.7405C261.006 62.659 262.723 63.9625 263.01 64.8587C263.091 65.0624 263.091 65.3883 262.846 65.5512C262.519 65.7956 262.437 65.7549 262.233 65.6734C261.906 65.5105 261.374 65.2661 259.698 65.5512C258.267 65.7549 257.613 67.0992 256.918 68.4842C256.141 69.9914 255.365 71.5393 253.566 71.9874C251.93 72.4355 250.009 71.2949 249.641 70.7246C249.559 70.5617 249.396 70.358 249.191 70.3987C249.028 70.4395 248.946 70.6839 248.946 70.7654C248.946 70.7654 248.905 72.1911 248.006 74.6759C247.188 76.9571 243.427 82.4157 236.027 80.4196C231.489 79.1976 229.731 74.9611 229.935 72.354C230.017 71.4986 230.263 70.9283 230.671 70.8876C230.998 70.8468 231.285 71.0912 231.366 71.3356C231.693 72.3133 232.061 73.2909 232.593 74.1057C233.329 75.2462 234.678 76.6312 236.313 76.9979C239.993 77.8126 242.241 75.9388 242.65 75.5314C244.04 74.2279 244.817 72.0689 244.694 69.747C244.531 66.7733 242.977 64.8994 241.669 63.8403C240.034 62.4961 237.908 61.6814 235.823 61.6406C235.782 61.6406 235.7 61.6406 235.659 61.6406C232.961 61.6406 230.222 62.7405 228.096 64.6143C225.398 67.0177 223.844 70.6024 223.517 74.9611C223.231 78.7088 224.784 82.8638 227.523 85.8374C229.649 88.1594 232.307 89.4222 234.964 89.4629C235.005 89.4629 235.046 89.4629 235.128 89.4629C242.159 89.4629 246.697 85.145 251.481 80.5826C255.978 76.3054 260.598 71.9059 267.875 69.8692C268.406 69.7062 270.9 69.5025 271.431 69.4618L271.309 73.4131C267.221 74.1871 261.538 76.7942 261.824 79.6049C262.11 82.3749 263.909 83.8821 264.768 84.6154C264.972 84.7783 265.176 84.9413 265.176 84.982C265.176 85.0227 265.095 85.0635 264.808 85.1857C264.032 85.4708 262.233 85.6745 260.843 85.0227C258.962 84.1673 257.122 81.1121 257.082 81.0714L257 80.9492L256.918 81.0714C256.877 81.1121 251.317 86.9373 248.292 89.137C246.329 90.5628 241.137 94.3512 235.005 94.066C230.753 93.8623 226.828 91.9478 223.967 88.6482C220.941 85.1857 219.306 80.3789 219.347 75.1648C219.347 70.3987 219.878 68.2398 221.514 63.7181ZM235.087 13.7765C235.128 13.7765 239.461 13.4099 243.59 15.0393C245.389 15.7725 246.697 16.6687 247.842 17.4834H247.883C249.6 18.6648 250.908 19.6424 252.83 19.0314C254.997 18.3796 255.446 16.6687 255.732 15.5281C255.814 15.243 255.937 14.7542 256.019 14.7134C256.1 14.6727 256.509 14.8356 256.836 15.3652C257.245 15.9762 258.308 18.2574 255.446 22.4124C253.852 24.6936 251.276 25.1824 251.154 25.1824C251.031 25.1824 250.949 25.2639 250.867 25.3454C250.827 25.4268 250.786 25.549 250.827 25.6712C250.99 26.2415 250.99 26.6896 251.031 27.097C251.154 28.5227 250.99 29.9077 250.05 32.2296C248.578 35.7736 245.634 37.9326 241.751 38.4214C237.989 38.8695 234.923 36.7513 233.819 34.4294C232.838 32.2704 232.756 29.7855 233.656 27.5451C233.86 26.9748 234.269 26.5267 234.596 26.4452C234.76 26.4045 234.882 26.4452 235.005 26.5674C235.332 26.8118 235.332 27.4636 235.373 28.319C235.414 29.1745 235.455 30.2336 235.823 31.3335C236.395 33.0444 238.316 34.6738 240.769 34.4701C244.531 34.1442 246.779 31.4964 246.861 27.4229C246.943 23.1456 244.204 18.0945 236.191 17.8908C236.068 17.8908 235.986 17.8908 235.863 17.8908C232.838 17.8908 230.058 19.0721 227.85 21.2718C225.316 23.8789 223.68 27.7895 223.599 31.5371C223.476 38.8288 227.278 43.0653 230.467 45.3464C233.697 47.6276 238.766 47.7906 245.103 45.7945C247.27 45.102 249.6 44.1651 251.849 43.2282H251.889C253.811 42.4542 255.773 41.6395 257.654 40.947C258.758 40.5804 259.943 40.2545 261.17 40.0508L261.333 40.0101L261.211 39.8472C260.72 39.1954 260.107 38.34 259.289 37.2401C257.654 34.9589 257.204 30.7632 257.736 29.9077C257.981 29.5411 258.226 29.4596 258.349 29.4596C258.431 29.4596 258.512 29.5004 258.512 29.5004C258.512 29.5411 258.512 29.7448 258.512 29.7855C258.512 29.9892 258.512 30.9668 258.962 31.4557C259.535 32.1074 260.311 32.2296 260.638 32.0667C260.761 31.9852 260.843 31.9038 260.884 31.7816C261.006 31.4149 261.579 29.6226 262.56 28.1561C263.378 26.934 265.953 25.0602 267.466 25.0602C267.507 25.0602 267.548 25.0602 267.588 25.0602C267.997 25.1009 268.283 25.2639 268.447 25.5898C268.651 25.9971 267.997 26.6896 267.793 26.8933C266.485 28.2783 264.931 30.3151 264.808 33.6961C264.768 35.2848 265.217 36.5883 266.158 37.6067C267.956 39.5213 271.063 39.7657 271.677 39.7657V43.2689C271.595 43.2689 271.472 43.2689 271.391 43.2689C268.324 43.2689 265.871 46.9759 265.054 50.7643C264.359 53.8602 264.972 58.2188 265.217 59.5224C265.463 60.7037 265.258 60.9888 265.176 61.0296C265.135 61.0703 265.095 61.0703 264.972 61.0703C264.318 60.9481 263.132 59.5631 261.824 57.4449C260.843 55.8969 261.129 53.9416 261.293 52.8825C261.374 52.3122 261.415 52.0678 261.211 51.9049L261.17 51.8641C261.047 51.7419 260.843 51.6197 260.598 51.6197C260.598 51.6197 260.598 51.6197 260.557 51.6197C260.27 51.6197 259.943 51.8234 259.575 52.19C259.289 52.5159 259.126 52.7196 259.044 52.8825C258.88 53.1269 258.88 53.1269 258.472 52.964C258.472 52.964 258.431 52.964 258.39 52.8825C258.104 52.1085 258.962 49.42 260.066 47.5462C260.925 46.039 261.865 44.9391 263.173 43.9207L263.541 43.6356L263.05 43.7578C258.594 44.7762 254.138 46.5278 251.399 48.4016C247.883 50.7643 245.021 53.575 242.936 56.7116C242.568 56.4672 242.2 56.3043 241.301 55.8969C240.729 55.6525 239.87 55.3674 239.216 55.2859C240.074 54.1046 241.587 52.5159 242.2 51.8641L242.241 51.8234C242.323 51.7012 242.323 51.4975 242.2 51.3753C242.078 51.2531 241.914 51.2123 241.751 51.2531C241.587 51.3346 237.621 52.8418 230.63 50.2347C224.948 48.1165 219.02 41.9654 219.347 31.1298C219.756 20.0498 227.523 14.4283 235.087 13.7765ZM210.598 142.419H349.313V4H210.598V142.419Z" fill="#990000"/>
<path d="M0 0V201H158.551V0" fill="#9E1A1D"/>
<path d="M64.3446 141.984C69.9379 141.061 74.5623 139.787 80.5079 134.601C87.0701 128.889 89.5805 120.715 90.6375 116.496C92.179 110.52 92.0028 99.1384 92.0028 99.1384V40.1653C92.0028 40.1653 91.5624 27.4654 92.5313 24.2575C93.5002 21.0495 95.4821 18.7205 96.6712 17.534C99.3578 14.8534 104.995 13.9745 104.995 13.9745C106.625 13.7109 106.977 12.9638 106.845 12.1728C106.669 11.0303 105.656 10.9424 105.656 10.9424L65.6218 10.8545C65.6218 10.8545 64.6088 11.0303 64.4326 12.1728C64.3005 12.9199 64.6529 13.7109 66.2824 13.9745C66.2824 13.9745 71.9197 14.8534 74.6063 17.534C75.8395 18.7644 77.8214 21.0935 78.7462 24.2575C79.7151 27.4654 79.2747 40.1653 79.2747 40.1653L78.3939 99.0065C78.3939 101.555 78.6581 112.366 78.0416 116.277C77.1607 121.682 75.8395 126.296 72.4042 129.855C68.9249 133.415 65.7099 134.557 60.9974 134.557C56.2849 134.557 53.1579 133.195 49.8108 130.646C46.4636 128.098 40.1216 122.341 40.1216 122.341L46.2434 141.325C46.1993 141.369 58.0906 142.995 64.3446 141.984Z" fill="white"/>
<path d="M65.0054 146.949C75.7956 146.026 83.3268 141.368 90.0211 132.448C97.8165 122.033 97.8165 109.421 97.8165 109.421V90.657V44.2961V28.2566C97.8165 28.2566 97.5523 25.2684 99.0497 22.1044C100.503 18.9844 103.762 17.3585 103.63 17.0509C103.542 16.8312 99.4461 18.3692 96.8916 21.665C95.0419 24.038 95.2181 27.3338 95.2181 28.3005C95.2181 29.3112 95.174 39.8578 95.174 41.1322V91.0525V105.466C95.174 105.466 95.0859 116.672 91.5186 123.923C88.1714 130.69 85.3087 136.271 75.7076 141.544C70.0262 144.664 65.7101 145.148 60.2489 145.367C53.995 145.587 48.3576 144.62 48.3576 145.016C48.3136 145.719 55.8447 147.74 65.0054 146.949Z" fill="white"/>
<path d="M150.932 150.597H7.57542V7.55852H150.932V150.597ZM152.297 4.79004H4.80078V153.365H153.706V4.79004H152.297Z" fill="white"/>
<path d="M39.1093 20.4341C39.1093 20.4341 41.3994 20.0826 42.8088 18.149C45.9357 13.8426 43.7336 11.5135 42.9409 11.7333C42.2362 11.909 42.8088 14.3699 40.3424 15.073C37.9642 15.7761 36.731 13.4031 33.0315 11.953C29.5522 10.6347 25.9407 10.9423 25.9407 10.9423C19.1143 11.5135 13.1686 16.3913 12.9044 24.6088C12.6842 30.9366 15.679 37.3524 22.2853 39.6814C28.319 41.8347 32.0626 40.4285 32.0626 40.4285L29.5081 43.5045C29.5081 43.5045 30.2128 43.7682 31.0936 44.3834C31.9304 44.9547 32.3268 45.3941 32.3268 45.3941C32.3268 45.3941 34.617 42.318 37.3916 39.9011C39.7699 37.8358 41.7077 36.078 45.143 34.3203C48.314 32.6504 52.3658 31.0245 52.6301 31.42C52.8943 31.8595 49.6793 33.3975 48.2259 35.9023C47.3451 37.4842 46.2 40.3406 47.0368 40.6042C47.8295 40.8679 47.5653 40.6042 48.2259 39.9011C48.7544 39.3299 48.9746 39.5496 49.1508 39.6814C49.327 39.8133 48.5342 42.1423 49.7233 43.9C50.9565 45.6138 52.2778 47.1079 52.9384 46.6685C53.7311 46.0972 51.441 44.3834 52.2778 40.5164C52.7182 38.4949 53.7311 36.5614 55.6249 34.6279C57.6068 32.6065 61.4825 31.0685 64.7416 30.7169C69.41 30.1896 77.2495 31.9473 77.2495 31.9473L77.1174 28.5637C77.1174 28.5637 65.182 26.9817 59.1042 25.7952C56.4177 25.2679 53.7311 22.851 53.599 19.6871C53.4229 15.3806 57.2545 13.7986 57.0783 13.0516C56.77 11.8211 52.9384 13.7547 51.7933 15.3806C50.8244 16.8307 50.428 18.3248 50.428 18.3248C50.428 18.3248 49.8995 18.6324 49.371 18.0172C48.7544 17.3141 49.5031 16.9626 48.7544 16.8747C47.5653 16.6989 47.5212 20.6099 49.2829 22.9389C51.0005 25.2679 53.1146 26.9817 53.555 27.1575C53.9954 27.3333 48.4902 28.6955 44.1741 30.9806C39.1093 33.6172 38.801 34.4521 34.0004 35.9023C29.1998 37.3524 25.148 37.2645 22.5055 35.4628C19.4666 33.4414 16.8681 30.1457 16.9562 25.0482C17.0443 20.3462 20.6117 14.6775 26.9097 14.8093C33.5159 14.9411 35.3217 19.1158 35.2776 21.8403C35.2336 24.3451 33.9564 26.6741 30.6092 26.9817C28.7154 27.1575 27.306 25.971 26.9097 24.7845C26.2931 23.0268 26.8216 21.5327 26.161 20.9614C25.5884 20.478 24.8837 21.1372 24.5754 21.8403C23.9148 23.3783 23.7387 25.4437 24.7076 27.4211C25.5444 29.1789 28.0548 31.0685 31.49 30.673C34.9693 30.2775 37.3476 28.3879 38.4927 25.7073C39.3295 23.7738 39.4176 22.7192 39.3295 21.6206C39.2854 21.269 39.2414 20.9175 39.1093 20.4341Z" fill="#E9E5CA"/>
<path d="M74.651 76.6825C74.4748 86.8774 70.7753 92.0189 70.7753 92.0189C70.7753 92.0189 70.467 91.3597 69.7623 90.7445C68.9696 90.0854 68.2209 89.7338 68.2209 89.7338C68.2209 89.7338 71.9644 82.2194 71.1276 75.1884C70.3349 68.5968 66.7235 56.1167 53.0705 56.9077C48.9306 57.1274 45.0108 59.3246 45.2311 61.6976C45.5394 64.51 47.9617 65.6086 47.9176 65.8723C47.9176 66.1359 45.8476 66.6632 44.2621 65.9601C42.7207 65.257 41.1352 62.7962 41.1352 62.7962C41.1352 62.7962 34.9253 66.5314 34.9253 72.9912C34.9253 75.7596 37.6999 82.7467 43.5575 82.0876C47.2129 81.6481 48.0497 79.0554 47.9617 77.1658C47.8736 75.2763 44.8347 72.1123 45.0108 71.4531C45.0989 71.1455 46.3321 71.3652 47.1249 71.7168C47.9176 72.0683 48.4021 72.6836 48.8865 72.4638C49.2389 72.2881 49.1067 71.8486 48.9746 70.75C48.7984 69.1681 48.314 68.9483 48.8425 68.6847C49.371 68.421 50.9565 70.6182 51.8814 71.8047C52.8062 72.9912 53.8633 74.9247 53.8633 74.9247C53.8633 74.9247 54.2596 72.8593 54.8762 71.1455C56.5498 66.3996 58.3115 65.4768 58.7519 65.8283C59.1923 66.1799 58.4876 67.0148 58.7079 68.8604C58.84 70.1788 59.1923 70.1788 59.1923 70.1788C59.1923 70.1788 59.6768 69.6954 60.6017 67.8937C61.2623 66.6193 61.6146 65.3449 62.3193 65.4328C63.0239 65.5207 63.5524 68.421 63.0239 71.6729C62.4954 74.9687 61.4825 77.078 61.4825 77.078C61.4825 77.078 62.2752 77.078 63.3763 76.1991C64.5214 75.3641 64.7416 74.8368 65.0939 74.9687C65.5784 75.1884 64.8737 76.5946 63.2882 78.7039C61.0421 81.6481 58.5317 81.9997 58.5317 81.9997C58.5317 81.9997 59.8089 82.527 60.4255 83.8014C61.0421 85.1197 61.8789 86.0425 61.4384 86.3501C60.998 86.7017 60.5136 85.3834 58.884 85.2955C57.1223 85.2076 56.0213 85.9546 53.643 86.3941C51.3088 86.8335 50.472 86.1304 50.472 86.1304C50.472 86.1304 53.599 84.5484 56.6379 80.154C59.5446 75.9354 59.5446 73.7822 58.84 73.6943C58.2234 73.6064 58.1353 74.661 56.8581 76.7264C55.4047 79.1873 51.529 83.6256 47.9617 84.7681C44.9668 85.7349 43.9098 85.9107 40.3424 84.9439C36.775 83.9772 35.674 81.736 35.0134 82.0876C34.1325 82.527 34.0444 90.8763 31.8864 95.3147C30.6092 97.9513 28.2309 100.588 24.9278 102.214C21.6247 103.84 17.6609 104.499 17.4847 103.84C17.3526 103.269 18.0132 103.312 18.7619 102.697C19.5547 102.082 19.7309 101.95 19.7309 101.95C19.7309 101.95 18.4977 102.302 15.4148 101.95C12.2878 101.599 11.8033 101.423 11.8033 100.676C11.8033 100.192 12.5961 100.236 13.7412 99.797C14.8422 99.3575 14.6661 99.3136 14.6661 99.3136C14.6661 99.3136 12.8603 97.8195 11.7593 96.1057C10.6142 94.3919 9.99762 91.7992 10.2619 91.5355C10.6142 91.184 11.407 91.4476 12.9484 91.7552C14.578 92.1068 15.9873 91.9749 15.9873 91.9749C15.9873 91.9749 15.2826 91.184 14.9303 90.6566C14.4018 89.8217 13.8733 88.9428 14.622 88.8549C15.2826 88.811 16.4277 91.4476 21.3604 91.0521C25.6765 90.7006 28.0988 87.3608 28.0988 87.3608C28.0988 87.3608 26.6454 92.1947 22.6817 94.0403C17.793 96.3254 13.7852 93.513 13.6531 94.6116C13.4769 95.9738 19.0702 98.6105 24.4433 95.5344C28.9356 92.9856 30.6092 86.7896 31.2258 82.9664C31.9304 78.7478 31.6662 70.4424 31.6662 70.4424C31.6662 70.4424 28.6273 73.0791 23.4304 72.7715C17.4847 72.4199 10.5702 66.7951 10.6583 58.1381C10.7023 54.4468 11.1427 52.733 12.464 49.3054C13.2127 47.3279 13.6531 47.0643 13.7852 45.3504C13.9173 43.9003 13.3888 42.9335 13.1686 42.7138C12.7282 42.3183 14.622 42.8017 15.2386 44.0321C15.5909 44.7352 16.1635 46.6688 16.0754 47.0203C15.9873 47.3719 18.3215 44.6473 23.6065 44.6473C31.3139 44.6034 34.617 51.4147 34.617 51.4147C34.617 51.4147 35.5859 51.6784 37.6118 50.8874C39.6818 50.0524 39.5937 48.6462 42.6326 48.5584C45.143 48.4705 46.9046 50.3161 46.0238 50.8874C45.2751 51.3708 45.8036 50.5358 43.4253 50.8874C41.1352 51.2389 41.3554 55.1499 38.4927 55.853C37.1274 56.2046 35.4978 55.3257 35.2336 54.8423C34.9253 54.3589 34.8372 54.7984 34.8372 54.7984C34.8372 54.7984 34.7932 55.897 34.0885 57.8305C33.2517 60.0717 29.9486 63.8069 24.3112 62.3128C18.9381 60.9505 18.6298 54.9302 19.9951 54.7544C21.1402 54.6226 22.6376 62.0052 28.8916 58.8412C30.389 58.0942 31.3579 55.9409 31.2698 53.9635C31.0496 50.0964 27.3941 47.8113 24.1791 47.7674C20.2594 47.7234 14.7541 50.5358 14.1816 58.0063C13.7852 63.0598 17.8811 69.1681 23.4744 69.1241C34.3087 68.9923 37.6118 57.2592 50.0757 53.9635C58.6198 51.7223 63.8607 55.4575 63.8607 55.4575C63.8607 55.4575 65.0058 55.5894 63.8167 53.7877C62.5835 51.986 59.5887 46.3172 60.0291 41.9668C60.3814 38.671 63.2001 34.9797 67.8245 35.1555C72.3608 35.2873 74.5629 37.88 74.3867 41.1318C74.1225 45.2626 69.7623 46.0975 69.3219 45.0428C69.0136 44.2518 71.1717 44.3837 71.3038 42.2744C71.4359 39.9893 69.9385 38.671 67.9566 38.671C65.0058 38.671 63.2001 40.3848 63.5524 43.8124C63.7727 46.3172 65.6665 48.6902 67.3841 50.1403C69.1017 51.5905 70.0266 52.5133 70.0266 52.5133C70.0266 52.5133 68.0888 53.8316 68.0888 55.6333C68.0888 57.3032 69.0577 58.9731 70.2028 60.9945C70.9074 62.2249 72.6251 65.6525 73.2416 67.63C74.1225 70.6621 74.695 73.5185 74.651 76.6825Z" fill="#E9E5CA"/>
<path d="M25.7646 50.4912C25.7646 50.4912 26.5133 50.667 27.262 51.3262C28.0107 51.9414 28.319 52.4687 28.319 52.4687C28.319 52.4687 27.6584 53.6992 26.7776 55.2373C25.7205 57.2148 25.5884 57.4785 25.5884 57.4785C25.5884 57.4785 25.3682 57.6543 24.2231 56.9512C23.1661 56.292 22.9019 55.5889 22.9019 55.5889C22.9019 55.5889 23.2101 54.5342 24.0469 53.1279C25.192 51.1943 25.7646 50.4912 25.7646 50.4912Z" fill="#E9E5CA"/>
<path d="M23.1657 63.9823C23.1657 63.9823 22.2849 63.8945 21.5802 63.455C20.9636 63.0595 20.1268 62.2246 20.1268 62.2246C20.1268 62.2246 19.8185 63.1914 19.5543 64.4218C19.3341 65.2567 19.29 65.6961 19.29 65.6961C19.29 65.6961 19.8626 66.2674 21.36 66.7068C22.2849 67.0144 22.5051 66.8387 22.5051 66.8387C22.5051 66.8387 22.5051 66.8826 22.8133 65.3885C22.9895 64.2021 23.1657 63.9823 23.1657 63.9823Z" fill="#E9E5CA"/>
<path d="M18.7614 74.2656C18.7614 74.2656 19.9065 74.8369 20.6112 74.9248C21.3159 75.0127 22.1086 75.0127 22.1086 75.0127C22.1086 75.0127 22.2408 78.4843 23.2097 81.6922C24.5309 85.9548 25.676 87.2731 25.676 87.2731C25.676 87.2731 25.1916 87.6686 24.1786 88.1081C23.1656 88.5475 22.505 88.4596 22.505 88.4596C22.505 88.4596 21.1397 85.779 19.9946 82.4393C18.5853 78.2646 18.7614 74.2656 18.7614 74.2656Z" fill="#E9E5CA"/>
<path d="M30.3447 101.027C30.3447 101.027 32.8111 98.6545 33.4717 97.0286C34.1764 95.4027 34.7929 93.8207 34.7929 93.8207C34.7929 93.8207 36.5106 95.183 38.7127 94.3041C41.3992 93.2495 41.8396 91.6235 42.192 91.7114C42.5443 91.7993 42.5443 93.8647 41.3111 95.5785C39.5935 97.9954 36.5546 97.8635 36.5546 97.8635C36.5546 97.8635 42.5443 100.94 49.0625 100.632C57.2983 100.236 62.7595 95.4906 62.7595 95.4906C62.7595 95.4906 63.9486 95.7103 64.4771 96.8089C65.0056 97.9075 64.6092 98.4348 64.6092 98.4348C64.6092 98.4348 57.8708 103.093 51.3967 103.884C43.7775 104.851 36.6427 101.555 36.6427 101.555C36.6427 101.555 41.135 106.476 44.0858 109.948C46.42 112.716 48.1376 115.617 49.3267 119.616C50.2957 122.823 49.591 127.701 49.591 127.701L46.7723 125.504C46.7723 125.504 47.3008 123.263 46.1117 119.528C44.5702 114.738 39.8577 110.256 39.8577 110.256C39.8577 110.256 40.4743 112.672 39.065 115.177C37.964 117.199 36.3784 117.682 36.1142 117.506C35.5857 117.155 37.1712 114.914 36.1142 110.607C35.3214 107.355 34.3966 105.07 33.0753 103.62C31.7541 102.082 30.3447 101.027 30.3447 101.027Z" fill="#E9E5CA"/>
<path d="M43.4253 106.038C43.4253 106.038 44.8787 107.488 45.5833 108.191C46.288 108.894 47.2129 110.169 47.2129 110.169C47.2129 110.169 51.573 109.158 55.4927 110.257C59.3684 111.399 65.7104 113.992 66.7234 120.056C67.5602 125.022 64.0809 125.857 62.9358 125.813C61.7907 125.769 59.4565 125.198 59.3684 122.429C59.2803 120.144 61.7907 119.968 61.8348 119.221C61.8788 118.562 60.6897 117.815 58.7518 119.177C56.4617 120.803 56.1974 123.704 57.6508 126.077C59.7208 129.548 64.4773 129.548 66.5913 128.186C69.3219 126.384 70.6872 123.748 70.2908 119.573C70.0706 117.024 68.2649 114.431 66.6353 112.63C64.7415 110.564 59.8969 108.147 59.8969 108.147C59.8969 108.147 66.1509 104.939 69.6302 108.806C71.2157 110.52 69.3219 112.893 69.6742 113.245C70.0265 113.596 72.9773 112.717 72.8012 109.114C72.6691 106.521 70.2908 104.983 70.2908 104.983C70.2908 104.983 71.7442 104.72 73.3737 104.104C75.2675 103.401 76.3245 102.918 76.3245 102.918V99.4023C76.3245 99.4023 74.4748 100.105 72.7571 100.677C71.0835 101.248 69.8504 101.336 69.8504 101.336C69.8504 101.336 72.4488 95.7109 68.397 92.3711C62.7156 87.713 58.1353 93.3379 58.4876 93.9971C58.8399 94.7002 62.8037 91.2725 65.7545 94.7881C68.0006 97.4687 67.0317 99.4902 64.169 101.336C61.3944 103.138 59.5446 104.324 54.5679 105.642C48.7103 107.268 43.4253 106.038 43.4253 106.038Z" fill="#E9E5CA"/>
<path d="M42.016 135.7L43.3813 139.435C43.3813 139.435 39.3295 146.114 28.7594 146.334C20.7878 146.51 13.3888 140.358 12.6401 132.272C12.0235 125.856 13.7412 123.395 13.6971 120.495C13.6531 117.858 13.3448 117.287 12.8163 115.837C12.3759 114.65 14.622 114.826 15.9873 116.408C17.1764 117.814 17.2645 119.88 18.5417 119.22C19.8189 118.561 23.5625 116.188 25.3682 112.014C27.1299 107.839 24.2231 105.861 25.5884 105.773C27.1739 105.686 30.2128 108.63 29.7724 112.541C29.376 116.32 27.3941 117.946 27.3941 117.946C27.3941 117.946 28.4952 118.034 30.2128 118.957C31.9745 119.88 35.0574 122.648 34.9253 123C34.7932 123.351 33.604 122.692 32.9874 122.604C32.3709 122.516 32.0185 122.604 32.0185 122.604C32.0185 122.604 35.0134 125.197 34.3968 130.207C33.9123 134.206 30.3449 136.227 27.7465 136.271C23.4304 136.315 21.9329 133.019 22.1091 131.129C22.1531 130.382 22.5936 130.031 23.034 130.075C23.7387 130.163 24.6195 132.887 27.6584 132.536C29.6843 132.316 30.7853 130.558 30.7853 128.932C30.6973 125.109 28.0107 122.121 23.6065 122.472C19.907 122.736 16.1635 125.373 16.8681 131.789C17.4847 137.677 22.4174 142.423 29.5522 142.599C38.2725 142.819 42.016 135.7 42.016 135.7Z" fill="#E9E5CA"/>
<path d="M128.382 10.8547C131.421 11.0305 134.459 11.7336 136.794 12.2169C138.996 12.7003 141.11 13.0519 142.607 12.7003C144.105 12.3488 145.25 11.5578 145.514 11.6457C145.778 11.7775 145.514 12.92 144.369 14.4141C143.224 15.9082 141.594 16.1719 141.594 16.7432C141.594 17.3144 145.03 21.2254 144.721 27.2897C144.369 34.848 140.317 37.9241 137.983 39.9455C136.089 41.5714 136.001 43.2413 136.441 44.4717C137.102 46.3613 138.732 47.6796 140.449 48.4267C142.563 49.3495 145.074 49.3935 145.25 49.789C145.514 50.4481 144.281 51.1952 143.18 51.7664C142.035 52.3377 140.89 52.3377 140.89 52.3377C140.89 52.3377 143.532 54.8864 143.532 58.0943C143.532 61.3022 142.827 63.06 140.978 64.4223C139.128 65.7845 136.529 65.433 136.485 65.1254C136.397 64.5541 137.41 64.1586 138.467 63.5873C139.524 63.0161 140.053 62.0493 139.833 61.478C139.612 60.9067 138.247 61.7856 137.807 61.2144C137.366 60.6431 138.247 60.2915 138.467 59.105C138.687 57.8746 138.776 54.7985 137.102 54.3152C136.529 54.1394 136.97 56.7321 135.913 58.0065C134.856 59.2808 133.138 60.2036 132.786 59.6324C132.522 59.1929 133.843 57.7867 133.491 53.0847C133.314 50.8875 131.2 48.207 131.112 46.2734C131.024 44.5596 131.288 43.8126 132.434 43.1534C133.447 42.5822 133.314 41.8351 132.83 41.4836C132.478 41.176 126.532 42.4943 122.7 37.5286C120.19 34.3646 120.014 31.3765 120.498 27.7731C120.498 27.7731 120.234 26.4108 119.045 25.444C118.032 24.6091 116.975 24.3894 116.975 24.1697C116.931 23.906 118.12 23.2029 119.926 23.4666C121.027 23.6423 121.819 24.0378 121.819 24.0378C121.819 24.0378 124.594 20.6981 129.395 21.0936C132.345 21.3133 135.032 23.9939 135.12 26.8942C135.208 29.7066 133.843 31.2446 132.522 31.6841C130.76 32.2553 129.615 31.6401 129.571 30.8931C129.527 30.0582 131.817 30.4536 132.037 27.7291C132.169 26.1032 130.98 24.3454 128.734 24.4333C124.858 24.5652 123.009 27.7291 123.801 32.2114C124.418 35.639 127.853 38.3635 132.213 37.9241C137.322 37.4407 141.066 32.3872 141.154 27.4215C141.242 21.9725 137.983 15.1172 128.998 14.8096C120.322 14.502 115.301 19.8632 113.452 22.1483C111.602 24.4333 108.827 30.5415 108.827 30.5415C108.827 30.5415 110.809 30.0582 112.527 30.8931C113.892 31.5083 115.742 33.1782 115.433 34.0131C115.213 34.5844 113.363 33.31 110.941 33.6615C108.519 34.0131 107.462 34.8041 107.462 34.8041L104.379 33.1782C104.379 33.1782 106.229 23.7742 111.91 18.0615C114.905 14.9854 120.542 10.4152 128.382 10.8547Z" fill="#E9E5CA"/>
<path d="M125.519 73.4743C122.084 67.0146 119.045 62.6641 113.848 61.3458C108.079 59.8957 104.82 64.0264 104.071 63.2354C103.278 62.4005 104.467 60.9942 105.833 59.5441C107.682 57.5666 108.827 56.9514 108.827 56.9514C108.827 56.9514 107.418 56.4241 106.185 56.468C104.82 56.512 103.058 57.3908 102.882 56.7756C102.662 56.0725 105.744 54.3587 107.814 53.4798C109.884 52.6009 111.514 52.4252 111.514 52.4252C111.514 52.4252 110.809 49.393 110.721 44.6471C110.633 39.9011 111.954 36.9129 112.879 37.3084C113.408 37.5282 113.188 38.9783 113.584 40.8679C114.112 43.5045 115.302 44.6031 115.61 44.4274C116.006 44.2076 115.61 43.109 116.315 41.4392C117.107 39.4178 118.869 37.1766 118.913 38.451C118.957 40.6042 118.384 41.9665 119.045 46.0972C119.706 50.4916 122.084 50.5795 122.084 50.5795C122.084 50.5795 122.965 48.7339 124.33 47.064C125.695 45.3941 126.84 43.5924 127.457 44.3395C127.942 44.9107 125.872 48.2944 125.607 53.1283C125.299 58.6213 126.664 63.6748 126.664 63.6748C126.664 63.6748 126.048 62.4883 123.758 59.8956C121.467 57.303 120.366 57.2151 117.988 54.2269C115.169 50.6674 115.918 48.5142 114.729 48.5581C114.024 48.5581 114.641 52.9525 116.226 55.2376C117.768 57.4787 119.618 58.6213 122.568 62.1807C127.237 67.8935 129.967 75.2321 129.967 75.2321C129.967 75.2321 132.83 69.8709 139.965 70.0467C145.25 70.1785 148.509 74.9684 148.201 79.0113C147.628 86.6136 141.374 87.3606 140.802 86.3939C140.405 85.7347 141.771 85.8226 143.18 84.5482C145.074 82.8344 144.942 82.1313 144.81 81.604C144.721 81.2524 144.281 81.56 143.708 81.9116C143.004 82.351 142.299 82.2631 142.123 81.7358C141.991 81.3843 142.916 80.8569 143.312 80.1099C145.118 76.7701 143.004 73.1228 139.48 73.2986C137.058 73.4304 132.258 75.0124 132.17 80.2857C132.081 85.5589 131.729 96.7646 131.729 96.7646C131.729 96.7646 131.245 96.7646 130.1 96.3692C129.043 96.0176 128.338 95.7539 128.338 95.7539C128.338 95.7539 129.835 81.604 125.519 73.4743Z" fill="#E9E5CA"/>
<path d="M99.9751 33.8369V37.4844C99.9751 37.4844 101.384 37.748 104.511 39.5938C107.066 41.1318 108.916 42.4941 108.916 42.4941L109.62 38.9785C109.62 38.9785 109.092 38.3193 105.348 36.166C101.384 33.9248 99.9751 33.8369 99.9751 33.8369Z" fill="#E9E5CA"/>
<path d="M102.749 41.2627L106.052 42.9766C106.052 42.9766 105.7 44.6904 105.832 47.3711C106.008 50.3154 106.185 51.7656 106.185 51.7656L103.234 53.5674C103.234 53.5674 102.661 51.1504 102.485 47.6787C102.309 43.416 102.749 41.2627 102.749 41.2627Z" fill="#E9E5CA"/>
<path d="M109.753 63.5875C109.753 63.5875 109.665 63.2359 108.343 63.8073C107.11 64.3347 106.714 64.906 106.714 64.906L107.374 66.4883C107.374 66.4883 108.167 65.6972 108.96 65.3455C109.885 64.95 110.589 65.0818 110.589 65.0818L109.753 63.5875Z" fill="#E9E5CA"/>
<path d="M125.211 78.7044C125.211 78.7044 122.084 77.5179 118.208 74.2221C115.389 71.8052 115.698 72.1128 115.698 72.1128C115.698 72.1128 114.949 71.4975 113.099 71.6733C111.514 71.8052 111.426 72.4643 111.426 72.4643C111.426 72.4643 113.143 74.2221 114.993 75.8919C117.063 77.7815 119.529 79.2756 119.529 79.2756C119.529 79.2756 117.856 83.3624 113.187 83.3624C109.84 83.3624 106.317 80.7697 106.317 76.3314C106.317 71.6294 110.721 69.4761 113.231 69.4761C116.138 69.4761 117.547 71.5415 118.296 71.1899C119.529 70.6626 118.428 67.0592 113.716 66.7077C108.827 66.3561 105.744 70.1353 105.744 70.1353C105.744 70.1353 105.7 69.5201 104.951 68.9488C104.203 68.3336 103.278 68.026 103.014 68.2896C102.705 68.5533 103.586 69.1685 103.938 70.7066C104.291 72.2446 103.146 74.7055 103.41 77.43C103.85 81.4289 107.153 86.3067 112.394 86.2627C116.314 86.2188 117.812 85.1202 117.812 85.1202C117.812 85.1202 116.843 86.4385 118.12 87.6689C119.661 89.1191 121.819 88.1523 122.084 89.4267C122.304 90.5253 121.863 90.5692 120.939 90.9647C120.146 91.3163 119.045 90.701 119.133 91.4481C119.221 92.0194 120.278 92.283 121.467 92.1512C122.744 91.9754 124.506 91.4042 124.506 88.8115C124.506 84.0216 119.177 84.461 120.19 83.5382C121.775 82.132 122.128 80.8576 122.128 80.8576C122.128 80.8576 122.832 81.3849 123.933 81.7365C125.079 82.088 125.915 82.3956 125.915 82.3956L125.211 78.7044Z" fill="#E9E5CA"/>
<path d="M99.9751 94.9189V98.2147C99.9751 98.2147 104.688 98.6981 107.903 99.7967C109.929 100.5 115.258 102.697 115.081 107.97C114.905 112.892 110.457 114.826 108.563 114.738C105.656 114.65 103.983 113.2 103.939 110.783C103.895 109.201 105.26 108.278 106.493 108.146C108.431 107.926 108.475 109.684 109.268 109.245C110.061 108.805 109.973 106.432 106.317 106.081C104.423 105.905 101.12 107.135 101.12 110.827C101.12 115.441 104.776 118.121 109.004 117.99C113.496 117.858 117.944 113.771 118.252 108.893C118.341 107.355 118.385 107.179 118.385 107.179C118.385 107.179 118.957 107.487 119.882 106.96C120.851 106.432 121.688 104.938 121.512 104.631C121.291 104.235 120.278 105.246 119.089 104.367C117.9 103.488 116.491 101.95 115.61 100.807C114.729 99.6648 113.056 98.6981 113.056 98.6981C113.056 98.6981 120.19 98.9178 126.268 102.038C132.698 105.334 134.416 112.013 134.592 112.057C134.724 112.101 135.385 111.486 135.649 109.113C135.913 106.74 135.209 105.378 135.209 105.378C135.209 105.378 139.304 108.542 141.198 111.925C145.426 119.615 142.564 124.493 142.564 124.493L143.312 129.503C143.312 129.503 147.408 126.031 146.571 117.55C145.735 108.849 137.279 102.917 137.279 102.917C137.279 102.917 139.304 103.005 141.595 101.467C144.149 99.7527 144.149 95.578 143.621 95.5341C143.048 95.4901 142.784 97.4676 140.714 98.6981C138.644 99.8846 136.31 99.9725 133.271 99.577C130.232 99.1375 127.149 97.951 121.027 96.5888C115.566 95.3583 111.118 94.7431 111.118 94.7431C111.118 94.7431 112.263 94.5673 112.923 92.6777C113.408 91.3155 112.835 90.0411 112.571 89.9971C112.307 89.9532 112.307 91.3155 109.444 92.3262C104.555 94.1279 99.9751 94.9189 99.9751 94.9189Z" fill="#E9E5CA"/>
<path d="M128.647 106.257C128.647 106.257 128.735 106.125 127.369 105.202C126.18 104.411 125.828 104.323 125.828 104.323C125.828 104.323 124.198 108.849 122.921 111.837C121.776 114.474 121.336 115.792 119.222 117.242C117.284 118.561 116.491 117.594 116.271 118.077C116.051 118.517 116.623 119.088 117.856 119.22C119.266 119.352 119.926 119.176 119.882 119.484C119.794 120.011 118.957 120.318 119.354 120.626C119.618 120.846 119.97 120.802 120.675 121.241C121.644 121.813 121.688 122.032 121.688 122.032C121.688 122.032 123.494 119.088 125.652 114.035C127.59 109.728 128.647 106.257 128.647 106.257Z" fill="#E9E5CA"/>
<path d="M134.019 136.49L134.9 132.974C134.9 132.974 134.239 133.458 132.169 133.326C129.967 133.194 127.941 131.305 127.677 128.8C127.413 126.075 128.998 123.746 131.288 123.307C132.522 123.087 133.711 123.087 134.239 124.449C135.164 126.954 132.301 127.701 132.345 128.009C132.39 128.404 133.755 129.986 135.517 128.976C138.027 127.613 137.058 125.724 137.719 126.91C138.952 129.107 136.089 136.402 135.649 138.292C135.208 140.181 134.68 142.115 136.089 144.356C137.895 147.256 142.079 147.169 142.387 146.509C142.695 145.894 141.947 146.07 141.154 145.367C140.361 144.664 140.097 144.136 140.361 144.092C140.669 144.005 140.669 144.62 142.343 144.62C144.325 144.576 145.206 143.565 145.074 142.423C145.03 141.763 142.871 144.312 141.374 139.874C140.141 136.27 141.682 128.712 140.317 124.977C139.48 122.604 136.397 120.187 132.61 120.055C128.117 119.923 124.418 124.098 124.418 128.58C124.418 132.623 128.117 136.226 131.288 136.534C133.755 136.71 134.019 136.49 134.019 136.49Z" fill="#E9E5CA"/>
<path d="M106.097 129.46C106.097 129.46 105.965 129.768 104.247 129.943C102.529 130.119 102.485 129.899 102.485 129.899C102.485 129.899 104.423 122.385 111.778 121.418C119.486 120.407 122.657 125.593 122.657 125.593C122.657 125.593 122.348 126.296 122.348 128.229C122.348 129.372 122.48 130.031 122.48 130.031C122.48 130.031 119.706 124.406 112.703 124.714C107.991 124.89 106.097 129.46 106.097 129.46Z" fill="#E9E5CA"/>
<path d="M109.884 140.489L107.638 142.73C107.638 142.73 109.092 145.015 115.786 144.224C125.079 143.126 122.26 134.424 121.688 134.512C121.203 134.6 121.379 136.182 120.41 137.676C119.133 139.61 118.34 139.39 118.34 139.39C118.34 139.39 118.693 138.951 118.693 137.852C118.693 136.71 118.605 136.094 118.12 136.094C117.768 136.094 117.504 139.346 114.244 140.357C111.47 141.236 109.884 140.489 109.884 140.489Z" fill="#E9E5CA"/>
<path d="M115.213 127.129C115.213 127.129 115.83 126.998 117.019 127.569C118.076 128.052 118.032 128.492 118.032 128.492C118.032 128.492 115.125 132.139 109.312 138.071C99.4904 148.09 96.1432 148.178 95.5266 147.387C95.2623 147.036 96.0111 147.124 97.5085 145.498C99.0059 143.872 99.0499 143.125 99.0499 143.125C99.0499 143.125 96.0111 144.707 92.4877 144.443C88.8763 144.179 85.7933 141.85 86.0136 140.928C86.2338 140.137 88.3918 141.455 90.9903 141.059C93.3686 140.664 93.5888 139.785 93.5888 139.785C93.5888 139.785 93.1043 139.785 92.3115 139.038C91.5188 138.291 90.3297 137.676 90.9903 137.017C91.3426 136.665 93.1924 137.368 94.9541 137.368C97.2002 137.324 98.6536 136.841 98.6536 136.841C98.6536 136.841 97.7287 136.533 96.7598 135.654C95.7908 134.775 95.5706 133.897 95.8349 133.633C96.0111 133.501 96.4074 134.204 97.6406 134.16C99.094 134.116 99.2702 133.809 99.2702 133.809C99.2702 133.809 98.6536 133.281 98.3453 132.754C98.037 132.227 97.1561 130.689 97.7287 130.118C97.9049 129.942 99.5785 131.831 102.045 132.007C106.273 132.315 110.897 129.107 110.897 129.107C110.897 129.107 108.651 131.743 103.806 135.698C100.724 138.247 96.8038 140.312 97.024 140.796C97.2883 141.367 100.371 140.664 105.656 136.445C110.016 133.018 115.213 127.129 115.213 127.129Z" fill="#E9E5CA"/>
<path d="M11.9791 194.232C11.3185 193.924 11.2744 193.749 11.2744 192.474C11.2744 190.189 11.4946 188.344 11.5387 187.553C11.5387 187.069 11.6267 186.806 11.935 186.806C12.1993 186.806 12.3755 186.981 12.3755 187.333C12.3755 187.728 12.3755 188.344 12.5516 189.003C13.3003 192.386 16.9118 193.573 20.1268 193.573C24.8833 193.573 27.3056 190.892 27.3056 187.421C27.3056 184.081 25.4999 182.543 21.2719 179.379L19.1139 177.753C13.9169 173.886 12.2433 171.074 12.2433 167.866C12.2433 162.417 16.5594 159.165 22.8574 159.165C24.7512 159.165 26.6891 159.429 27.8341 159.692C28.759 159.912 29.1554 159.912 29.5077 159.912C29.9041 159.912 29.9922 159.956 29.9922 160.22C29.9922 160.439 29.772 161.977 29.772 165.097C29.772 165.801 29.7279 166.152 29.3756 166.152C29.0673 166.152 28.9792 165.932 28.9352 165.537C28.8911 165.01 28.4948 163.735 28.2305 163.252C27.9222 162.724 26.3367 160.967 22.0206 160.967C18.5413 160.967 15.6346 162.724 15.6346 165.976C15.6346 168.921 17.0879 170.59 21.8445 173.798L23.2097 174.721C29.0673 178.676 31.0492 181.884 31.0492 185.883C31.0492 188.607 30.0362 191.552 26.601 193.793C24.575 195.111 21.5802 195.419 18.9817 195.419C16.7356 195.506 13.961 195.155 11.9791 194.232Z" fill="white"/>
<path d="M54.2155 181.446C54.2155 185.928 54.2155 189.575 54.4357 191.465C54.6118 192.827 54.8321 193.706 56.2854 193.926C56.9461 194.014 58.0471 194.146 58.4875 194.146C58.7958 194.146 58.8839 194.365 58.8839 194.541C58.8839 194.761 58.6637 194.937 58.1352 194.937C55.5367 194.937 52.4538 194.761 52.1895 194.761C51.9693 194.761 48.6662 194.937 47.2128 194.937C46.6843 194.937 46.4641 194.849 46.4641 194.541C46.4641 194.365 46.5522 194.233 46.8605 194.233C47.3009 194.233 47.8294 194.146 48.2698 194.014C49.2387 193.794 49.547 192.871 49.6792 191.509C49.8994 189.619 49.8994 185.972 49.8994 181.49V162.066L42.9408 162.154C39.9459 162.198 38.8008 162.55 38.0962 163.604C37.5676 164.439 37.4796 164.747 37.3474 165.055C37.2594 165.45 37.0832 165.494 36.863 165.494C36.7749 165.494 36.5547 165.406 36.5547 165.098C36.5547 164.615 37.5236 160.484 37.6117 160.089C37.6998 159.825 37.92 159.21 38.0962 159.21C38.4044 159.21 38.9329 159.605 40.2102 159.737C41.5755 159.913 43.4252 159.957 43.9537 159.957H62.0549C63.6404 159.957 64.7415 159.869 65.4902 159.737C66.1948 159.649 66.6353 159.518 66.8555 159.518C67.0757 159.518 67.0757 159.781 67.0757 160.045C67.0757 161.451 66.8995 164.791 66.8995 165.318C66.8995 165.714 66.6793 165.933 66.4591 165.933C66.2389 165.933 66.1508 165.758 66.0627 165.098L66.0187 164.615C65.8425 163.209 64.8295 162.154 60.2492 162.066L54.2595 161.978V181.446H54.2155Z" fill="white"/>
<path d="M90.4616 193.573C94.7777 193.573 103.454 191.288 103.454 177.885C103.454 166.767 96.6715 160.967 89.0963 160.967C81.0807 160.967 75.3112 165.976 75.3112 176.04C75.3112 186.85 81.7853 193.573 90.4616 193.573ZM89.3605 159.253C100.151 159.253 108.343 165.845 108.343 176.611C108.343 186.938 100.635 195.507 89.0963 195.507C75.9718 195.507 70.3345 185.663 70.3345 177.314C70.3345 169.887 76.1039 159.253 89.3605 159.253Z" fill="white"/>
<path d="M122.26 177.226C122.26 177.49 122.392 177.666 122.569 177.841C123.273 178.237 125.74 178.544 127.854 178.544C128.999 178.544 130.32 178.5 131.465 177.709C133.095 176.611 134.372 174.194 134.372 170.634C134.372 164.878 131.201 161.538 126.092 161.538C124.683 161.538 123.141 161.714 122.657 161.802C122.436 161.89 122.26 162.065 122.26 162.329V177.226ZM118.12 173.315C118.12 166.108 118.12 164.834 118.032 163.34C117.9 161.758 117.636 161.011 116.05 160.791C115.654 160.747 114.861 160.659 114.421 160.659C114.245 160.659 114.024 160.439 114.024 160.264C114.024 160 114.245 159.868 114.773 159.868C116.975 159.868 120.19 159.956 120.455 159.956C120.939 159.956 124.991 159.868 126.444 159.868C129.483 159.868 132.874 160.132 135.385 161.89C136.574 162.768 138.732 165.01 138.732 168.218C138.732 171.645 137.323 174.985 132.83 178.764C136.75 183.642 140.097 187.861 142.872 190.717C145.426 193.31 147.012 193.749 148.201 193.925C149.126 194.101 149.61 194.101 149.874 194.101C150.139 194.101 150.315 194.32 150.315 194.496C150.315 194.76 150.051 194.892 149.17 194.892H146.175C143.444 194.892 142.255 194.628 141.066 193.969C138.996 192.87 137.234 190.629 134.504 187.157C132.478 184.653 130.364 181.664 129.307 180.39C129.087 180.17 128.999 180.126 128.646 180.126L122.524 180.039C122.304 180.039 122.216 180.126 122.216 180.434V181.533C122.216 186.015 122.216 189.574 122.436 191.508C122.613 192.87 122.877 193.749 124.33 193.969C124.991 194.101 126.004 194.188 126.444 194.188C126.753 194.188 126.841 194.408 126.841 194.584C126.841 194.804 126.62 194.979 126.092 194.979C123.493 194.979 120.41 194.804 120.19 194.804C120.146 194.804 116.931 194.979 115.434 194.979C114.949 194.979 114.685 194.892 114.685 194.584C114.685 194.408 114.773 194.188 115.081 194.188C115.522 194.188 116.138 194.101 116.535 193.969C117.46 193.749 117.592 192.87 117.768 191.508C118.032 189.618 118.032 185.971 118.032 181.489V173.315H118.12Z" fill="white"/>
</svg>
