<svg width="168" height="143" viewBox="0 0 168 143" fill="none" xmlns="http://www.w3.org/2000/svg">
<path d="M0 1H168V141H0V1Z" fill="black"/>
<path d="M93.865 36.8203C93.8165 36.99 93.7681 37.1111 93.7681 37.1111L93.865 36.8203Z" fill="#990000"/>
<path fill-rule="evenodd" clip-rule="evenodd" d="M125.298 95.3413H43.1313V13H125.298V95.3413ZM118.396 50.2693C118.421 50.2693 119.195 50.1966 119.922 49.7119C120.915 49.0819 121.375 48.5488 121.205 48.1611C121.157 48.0399 120.673 47.9914 120.188 47.943L120.163 47.9401C119.511 47.8677 118.628 47.7695 117.815 47.4826C116.386 46.9737 115.272 45.9802 114.764 44.7928C114.425 44.0173 114.28 42.7815 115.442 41.4487H115.466L115.684 41.2549L115.696 41.244C117.44 39.669 120.044 37.3166 120.309 31.8285C120.479 28.2421 119.074 25.6977 118.396 24.4861C118.178 24.0984 118.057 23.8803 118.057 23.7591C118.057 23.5168 118.299 23.3472 118.663 23.1291C118.704 23.1005 118.748 23.071 118.793 23.0404C119.168 22.7866 119.654 22.4582 120.043 21.9175C120.745 20.9724 120.963 20.197 120.915 19.9547C120.915 19.9304 120.891 19.9062 120.891 19.9062C120.842 19.882 120.6 20.0031 120.358 20.1243C119.97 20.3182 119.462 20.5605 118.856 20.7059C117.742 20.9967 116.168 20.6816 114.667 20.3424C114.572 20.3154 114.478 20.2959 114.379 20.2755C114.301 20.2594 114.22 20.2427 114.134 20.2212C112.56 19.8577 110.647 19.5427 108.564 19.567C104.738 19.5912 100.403 20.8755 96.7952 24.7769C93.2838 28.5814 91.8792 34.3729 91.5644 35.7541L93.7681 37.1111C93.9618 36.9415 94.6157 36.6265 96.2382 36.4084C97.1826 36.263 98.0302 36.2145 98.6356 36.3842C99.0957 36.5053 99.4106 36.578 99.459 36.4326C99.6769 35.8995 98.4661 34.6394 97.4248 34.1306C96.4077 33.6217 95.2695 33.7671 94.9063 33.8398C95.7054 31.7316 96.7952 29.1387 97.8365 27.7817C99.5074 25.6008 103.164 21.9417 109.049 22.1598C115.2 22.4021 117.888 27.2001 117.839 31.8527C117.815 33.7186 117.137 35.6572 115.975 37.1596C114.74 38.7589 113.117 39.7525 111.374 39.9221C108.419 40.2371 105.731 38.2985 105.271 35.5118C104.956 33.5975 105.247 31.9254 106.07 30.8592C106.724 30.0111 107.693 29.5507 108.879 29.5022C109.799 29.4537 110.356 29.8657 110.671 30.2049C111.131 30.6896 111.374 31.3923 111.325 32.0951C111.228 33.4521 110.478 33.8398 109.993 34.0821C109.703 34.2275 109.557 34.3244 109.557 34.494C109.557 34.6879 109.678 34.8575 109.848 34.9787C110.235 35.2452 110.889 35.2695 111.591 35.0272C112.463 34.7364 113.456 33.5975 113.408 31.4408C113.359 29.2841 111.422 27.2971 109.388 27.1517C106.087 26.8922 104.072 29.1592 103.945 29.3015C103.942 29.3054 103.94 29.3077 103.939 29.3083C103.915 29.3326 103.891 29.3568 103.866 29.3326C103.866 29.3326 103.309 29.0175 102.534 28.8964C101.493 28.751 100.742 29.066 100.525 29.2841C100.476 29.3083 100.476 29.3568 100.476 29.3568C100.476 29.4099 100.58 29.463 100.701 29.5256C100.746 29.5487 100.794 29.573 100.839 29.5991C101.13 29.7445 101.542 29.9626 101.953 30.3261C102.801 31.1015 102.995 32.095 102.995 32.1435V32.1677C102.656 34.8575 102.777 37.1354 104.569 39.5586C106.772 42.5634 109.896 42.5392 111.228 42.5149C111.543 42.5149 111.834 42.5392 112.003 42.5876C112.027 42.6119 112.027 42.6119 112.052 42.6119C112.391 42.733 112.487 43.0965 112.487 43.2904C112.487 43.4842 112.415 43.775 112.003 44.09C111.301 44.6231 111.156 45.1563 111.325 46.4163C111.422 47.0948 111.858 47.8945 112.318 48.7184C112.345 48.769 112.373 48.8198 112.401 48.8707C112.837 49.6733 113.294 50.5123 113.408 51.287C113.771 53.6376 113.529 54.8976 113.383 55.5761C113.311 55.8669 113.287 56.0608 113.335 56.1335C113.383 56.182 113.432 56.2062 113.529 56.2062C113.916 56.2062 114.764 55.5761 115.297 54.7522C115.636 54.2191 115.66 53.4195 115.66 52.8137C115.66 52.3532 115.66 52.0625 115.781 51.9655C115.829 51.9413 115.878 51.9413 115.926 51.9413C117.185 52.2079 117.307 54.5584 117.234 55.455C117.21 55.8669 117.064 56.1577 116.943 56.4C116.798 56.6908 116.725 56.8362 116.895 57.0059C117.03 57.1633 117.29 57.0911 117.539 57.0218C117.559 57.0164 117.578 57.0111 117.597 57.0059C117.618 56.9988 117.639 56.9917 117.659 56.9848C117.778 56.9443 117.881 56.9089 117.985 56.9089C118.13 56.9089 118.251 56.9332 118.324 57.0785C118.542 57.5147 118.178 58.3144 117.5 58.799C117.44 58.8354 117.379 58.8778 117.319 58.9202C117.258 58.9626 117.198 59.005 117.137 59.0414C116.604 59.4048 116.168 59.7199 116.241 60.0107C116.241 60.0349 116.265 60.0591 116.386 60.0834C116.895 60.2045 118.275 60.0834 119.22 59.1868C120.406 58.0721 120.77 56.7635 120.552 54.413C120.364 52.1857 118.522 50.5256 118.38 50.3981C118.376 50.3938 118.373 50.3912 118.372 50.3904C118.348 50.3662 118.348 50.342 118.348 50.3177C118.348 50.2935 118.372 50.2693 118.396 50.2693ZM116.338 73.3869C117.839 73.193 119.607 71.8602 120.14 68.7343C120.382 67.2803 119.995 65.681 119.195 64.4209C118.421 63.3305 117.307 62.6035 116.072 62.337H116.047C114.328 61.925 111.834 62.1431 108.976 65.2933C108.879 65.3902 108.564 65.8506 108.371 66.2384C108.337 66.1371 108.303 66.0307 108.267 65.9166C108.225 65.7849 108.18 65.643 108.129 65.4872C107.741 64.324 106.942 62.3854 105.319 59.7441C104.423 58.2902 103.697 57.3451 103.043 56.497L103.031 56.4816C102.406 55.664 101.854 54.9405 101.396 54.0495C100.525 52.3775 100.355 49.5423 100.67 49.0334C100.718 48.985 100.742 48.9607 100.791 48.9607C101.154 49.0092 101.227 49.3242 101.348 49.9785C101.493 50.7539 101.735 51.9171 102.656 53.4679C103.421 54.7675 103.986 55.4003 104.565 56.0475C104.59 56.0761 104.616 56.1048 104.641 56.1335L104.655 56.1487C105.135 56.6772 105.64 57.2329 106.264 58.169C107.693 60.253 108.032 61.2223 108.032 61.2223L108.129 61.4888L108.08 61.198C108.056 61.1738 107.475 57.2482 108.056 53.2014C108.367 51.1206 109.055 49.4175 109.515 48.2785L109.533 48.2338C109.872 47.4099 110.066 46.901 109.945 46.7071C109.896 46.6102 109.799 46.5375 109.703 46.5375H109.678C109.315 46.5375 108.807 47.0948 108.177 47.8218C108.068 47.9309 107.965 48.0459 107.862 48.161C107.759 48.2762 107.656 48.3913 107.547 48.5003C106.53 49.5908 105.828 50.8024 105.731 50.972C105.537 50.9235 104.084 50.5116 103.939 47.3856C103.819 45.2709 104.008 44.1333 104.177 43.1219L104.181 43.0965C104.199 42.9754 104.219 42.8557 104.239 42.7361C104.298 42.3771 104.357 42.0182 104.375 41.6183C104.375 41.4487 104.351 41.3276 104.254 41.3033C103.891 41.2064 102.825 42.5392 102.292 43.6781C101.991 44.2818 101.9 44.7896 101.832 45.1673C101.824 45.2141 101.816 45.2589 101.808 45.3017C101.804 45.328 101.799 45.3537 101.795 45.3788C101.754 45.6305 101.724 45.8149 101.614 45.859C101.59 45.8832 101.542 45.859 101.493 45.8348C101.178 45.6409 100.646 44.7201 100.5 43.048C100.452 42.4907 100.452 41.9576 100.452 41.5456C100.452 40.8671 100.452 40.4067 100.234 40.2856C100.137 40.2371 99.9918 40.2371 99.8707 40.3098C99.5559 40.5037 99.1926 41.1095 98.8778 42.0061C98.6356 42.7088 98.2966 43.9204 98.1755 45.6651C97.9428 48.8555 98.135 51.0836 98.1718 51.5106C98.1733 51.5279 98.1746 51.5422 98.1755 51.5536C97.9818 51.5536 96.892 51.6263 95.5359 52.0625C94.204 52.4986 91.7339 53.5891 91.855 54.1949C91.9277 54.5099 92.412 54.4372 93.0174 54.3403C93.0811 54.3323 93.1461 54.3237 93.2121 54.315C93.5469 54.2705 93.9045 54.2231 94.2282 54.2434C94.9073 54.2872 95.6061 54.6086 95.8947 54.7413C95.9251 54.7553 95.951 54.7672 95.9718 54.7765C95.7539 54.8734 94.9547 55.3338 93.7439 56.4727C92.7994 57.3693 91.7339 58.3871 92.2667 59.1383C92.4362 59.3806 92.8479 59.211 93.4533 58.9202C94.6641 58.3629 96.6499 57.4663 99.241 58.4598C102.147 59.5745 103.891 61.295 105.513 64.7844C105.901 65.7295 106.215 66.8442 106.458 68.08C107.039 71.2302 106.385 75.1558 103.479 78.7422C101.832 80.7777 101.057 81.432 99.8465 82.4498C96.0687 85.6 93.8892 86.1088 93.6955 85.6727C93.6034 85.4753 94.3827 84.9277 95.467 84.1657C96.3794 83.5246 97.5076 82.7318 98.5145 81.8682C101.953 78.8876 103.576 76.9006 103.576 76.9006C103.576 76.9006 100.282 79.2753 97.2795 79.0088C96.0767 78.8918 95.139 78.1636 94.6332 77.7708C94.4058 77.5943 94.2658 77.4855 94.2282 77.5306C93.8779 77.925 94.359 78.9136 94.5977 79.404C94.623 79.456 94.6455 79.5024 94.6641 79.5419C94.8821 79.9296 95.318 80.3416 95.318 80.3416C95.318 80.3416 95.1969 80.5839 94.1556 80.6081C93.572 80.6081 93.2555 80.3819 93.0723 80.251C92.9742 80.1809 92.9143 80.1381 92.8721 80.1719C92.6784 80.3416 92.8237 81.0201 93.5017 81.6986C94.1798 82.3528 94.8336 82.5952 94.8336 82.5952C94.8336 82.5952 93.8165 82.9586 92.2183 82.9586C91.6388 82.9475 91.0543 82.8183 90.566 82.7105C89.9932 82.5839 89.5529 82.4866 89.4091 82.6436C89.0527 83.0191 89.4665 83.3945 89.9301 83.8151C90.0649 83.9374 90.2039 84.0635 90.3294 84.1945C90.8863 84.7761 91.2254 84.7761 91.2254 84.7761C91.2254 84.7761 91.0801 85.4546 89.3849 85.7211C88.4359 85.8711 87.5705 85.6666 86.935 85.5165C86.3381 85.3754 85.9439 85.2823 85.8735 85.5757C85.6798 86.2785 87.8351 88.0717 90.402 88.314C92.9205 88.5321 95.0758 87.3689 95.0758 87.3689C95.0758 87.3689 95.0516 87.9263 93.9618 89.1621C93.4044 89.7959 92.9928 90.0783 92.7548 90.2416C92.5377 90.3905 92.4649 90.4405 92.5573 90.5676C92.969 91.1007 94.5915 90.8584 100.137 85.7696C100.137 85.8302 100.143 85.8907 100.149 85.9513C100.155 86.0119 100.161 86.0725 100.161 86.1331C100.476 91.3188 105.61 90.1314 105.586 89.8164C105.575 89.694 105.37 89.633 105.072 89.5441C104.72 89.4394 104.239 89.296 103.794 88.9682C102.704 88.1686 102.874 87.7566 102.874 87.7566C102.874 87.7566 103.116 87.9747 103.77 88.0232C104.423 88.0717 104.787 88.0717 104.811 87.8051C104.817 87.7545 104.701 87.7056 104.518 87.6281C104 87.4088 102.941 86.961 102.583 85.6C102.317 84.5337 102.728 83.5887 103.261 82.9344C107.886 77.1914 108.613 73.92 108.952 71.7149V71.6906C108.958 71.6516 108.966 71.5984 108.975 71.5329C109.075 70.8253 109.381 68.6734 110.356 67.2319C110.356 67.2319 110.381 67.2076 110.381 67.1834C111.156 65.9476 112.318 64.7844 114.062 64.4452C114.304 64.3967 114.522 64.3725 114.715 64.3725H114.861C116.435 64.5179 116.968 65.1964 117.331 65.9233C117.839 66.8926 117.718 68.1285 117.064 69.1462C116.943 69.3401 116.75 69.5097 116.58 69.6551C116.558 69.6772 116.536 69.6987 116.515 69.7196C116.35 69.8821 116.22 70.0109 116.241 70.1398C116.265 70.2609 116.338 70.3578 116.459 70.4305C116.677 70.5275 116.943 70.5032 117.234 70.3578L117.331 70.3094C117.549 70.1882 117.742 70.0913 117.815 70.1398C117.839 70.1398 117.864 70.164 117.864 70.2125L117.865 70.2197C117.913 70.558 117.975 70.9952 116.701 72.0056C116.265 72.3449 115.854 72.5145 115.563 72.6115C115.321 72.6841 115.151 72.7568 115.103 72.878C115.079 72.9507 115.103 73.0234 115.127 73.0961C115.224 73.29 115.563 73.4111 115.999 73.4111C116.096 73.4111 116.217 73.4111 116.338 73.3869ZM119.501 84.6383C119.506 84.6265 119.51 84.6165 119.51 84.6064C119.801 83.6129 119.874 82.3528 119.486 80.9958C119.268 80.1719 118.517 78.3303 115.829 76.5855C114.518 75.7306 113.027 75.2345 112.414 75.0304C112.28 74.9858 112.188 74.9551 112.148 74.9378C112.555 74.001 113.193 73.6186 113.518 73.4238C113.638 73.3515 113.716 73.3051 113.723 73.2657C113.747 73.1203 112.851 72.7568 112.1 72.9265C111.446 73.0961 110.768 73.7261 110.526 74.1138C110.493 74.2265 110.465 74.3356 110.434 74.4584C110.351 74.7845 110.244 75.2075 109.945 76.0524C110.215 76.1787 110.643 76.372 111.12 76.5875C111.925 76.9512 112.869 77.3779 113.432 77.6518C116.072 78.9361 117.161 80.39 117.646 81.9893C117.888 82.789 117.791 83.5402 117.621 84.1945C117.016 86.3512 115.127 87.7082 113.311 87.272C112.076 86.9812 111.156 86.3512 110.72 85.503C110.356 84.8245 110.332 84.0006 110.623 83.1525C110.841 82.5225 111.228 82.2317 111.519 82.1105C111.906 81.9409 112.366 81.9651 112.754 82.1832C113.519 82.6138 113.552 83.186 113.576 83.5969L113.577 83.6129C113.577 83.8552 113.601 84.0491 113.771 84.1218C113.892 84.1703 114.062 84.146 114.207 84.0491C114.497 83.831 114.715 83.3221 114.764 82.7163C114.812 81.9893 114.376 80.8989 112.972 80.3173C111.567 79.7357 109.727 80.5354 109.025 82.0378C107.983 84.2672 108.807 86.2785 108.928 86.5693C108.831 86.642 108.54 86.9327 108.298 87.3932C107.886 88.1201 107.886 88.7744 107.983 89.0167C108.007 89.0652 108.056 89.1136 108.08 89.1136C108.177 89.1379 108.274 89.0409 108.419 88.8956C108.589 88.7259 108.807 88.5078 109.146 88.314C109.799 87.9505 110.429 88.0474 110.502 88.0717C111.64 88.7986 112.705 89.2833 113.965 89.2833C114.473 89.2833 115.03 89.1863 115.611 89.0167C117.5 88.4594 118.856 86.9327 119.486 84.7034C119.486 84.675 119.494 84.6549 119.501 84.6383ZM90.5231 40.0432C90.5231 40.0432 91.8308 40.431 93.4533 41.9334C94.3285 42.7417 95.2036 43.675 95.9247 44.4438C95.9817 44.5047 96.0378 44.5645 96.0929 44.6231L96.5288 41.7637C95.8992 41.061 95.1242 40.2371 94.1071 39.389C93.09 38.5408 91.298 37.5958 90.5231 37.2081V40.0432ZM91.1285 42.3211C91.1285 42.3211 90.9348 43.8235 91.3949 47.0706C91.6371 48.8153 92.073 50.4631 92.2909 51.1901L94.5673 50.1239C94.5424 50.0387 94.5114 49.9363 94.4757 49.819C94.2681 49.1351 93.9057 47.941 93.7197 46.6587C93.4049 44.6716 93.5017 44.2354 93.5017 44.2354C93.09 43.7992 91.855 42.5634 91.1285 42.3211ZM97.6912 70.4548C95.1727 70.7213 93.3806 68.6858 93.1143 66.5291C92.969 65.4145 93.2353 64.3482 93.865 63.5243C94.6641 62.4581 95.8265 61.9008 96.6499 61.8038C97.667 61.6827 98.5388 61.9735 99.0957 62.24C99.4832 62.4339 99.7738 62.555 99.8949 62.4823C100.137 62.3612 100.137 62.0704 100.04 61.7069C99.8949 61.2465 99.5559 60.7861 99.0473 60.4711C98.4419 60.0834 97.6427 59.8895 96.7467 59.9137C94.1071 60.0107 92.5815 62.0946 92.2667 62.5793C92.2183 62.4339 92.073 62.1673 91.7339 61.9492C91.2012 61.5858 90.62 61.4404 90.4504 61.6585C90.3477 61.7612 90.4193 61.864 90.5321 62.026C90.5522 62.055 90.5737 62.0858 90.5957 62.1189C90.7653 62.337 91.0074 62.652 91.1769 63.1609C91.3271 63.5473 91.3062 64.067 91.2827 64.6525C91.2796 64.7277 91.2766 64.8041 91.2738 64.8813C91.2709 64.9744 91.2673 65.0727 91.2635 65.1751C91.236 65.9266 91.2002 66.9033 91.3707 67.6923C91.9034 70.0913 94.1071 72.5388 97.4006 72.6357C97.7638 72.6599 98.1513 72.6115 98.4903 72.5145C99.9918 72.1026 100.985 71.3029 101.663 70.479C101.711 70.5032 101.784 70.5517 101.856 70.6244L101.913 70.6703C102.464 71.1224 103.532 71.997 104.351 72.4418C104.569 71.6906 104.714 70.6244 104.714 70.0671C104.496 69.9217 103.164 69.0008 101.324 67.0865C99.7738 65.4629 99.2895 64.9298 99.2895 64.9298C98.9989 64.6875 98.006 63.8878 96.9647 63.8394C96.0202 63.8151 95.7054 64.0332 95.6812 64.0574L95.9476 64.4452C95.9743 64.4786 96.0286 64.5524 96.113 64.6673C96.3349 64.9693 96.7649 65.5545 97.449 66.4322C98.4177 67.6681 99.6043 68.7827 99.9433 69.0978L100.089 69.2674C99.5559 69.8247 98.7809 70.3336 97.6912 70.4548ZM73.7168 89.9618C76.647 89.4771 79.0445 88.7744 82.1442 85.9634C85.5829 82.8617 86.8664 78.403 87.4476 76.1494C88.2467 72.9022 88.1741 66.723 88.1741 66.723V34.6637C88.1741 34.6637 87.9561 27.7817 88.4405 26.037C88.9248 24.2922 89.9661 23.0322 90.5957 22.3779C92.0003 20.9482 94.9305 20.4635 94.9305 20.4635C95.7781 20.3182 95.9718 19.9062 95.8992 19.4943C95.8023 18.8642 95.2937 18.8158 95.2937 18.8158L74.4191 18.7673C74.4191 18.7673 73.8863 18.8642 73.7895 19.47C73.7168 19.882 73.9106 20.2939 74.7581 20.4393C74.7581 20.4393 77.7126 20.8997 79.0929 22.3537C79.7225 23.0079 80.7638 24.268 81.2482 26.0127C81.7325 27.7332 81.5145 34.6394 81.5145 34.6394L81.0544 66.6261C81.0544 66.8698 81.0591 67.2596 81.065 67.7475C81.0918 69.9768 81.1432 74.2545 80.8849 76.004C80.4248 78.9603 79.7467 81.4562 77.9305 83.3948C76.1143 85.3334 74.4433 85.9634 71.9732 85.9634C69.5031 85.9634 67.8806 85.2122 66.137 83.831C64.3935 82.4498 61.0758 79.3238 61.0758 79.3238L64.2724 89.6468C64.2724 89.6468 70.4718 90.5191 73.7168 89.9618ZM55.3849 88.5078C55.7482 88.8471 57.637 86.7146 58.7752 84.3156C59.9134 81.8924 60.204 79.3723 59.8408 77.1429C59.647 75.8343 58.7994 74.0169 58.2909 72.9992C59.5986 73.8715 61.0516 74.3804 62.1171 74.55C65.1442 75.0589 67.8806 75.1801 69.8906 74.7197C70.5281 74.5669 71.0125 74.4075 71.382 74.2859C72.009 74.0796 72.3052 73.9821 72.4576 74.2108C72.7239 74.6227 71.5858 75.7132 67.9291 76.2948C64.1271 76.9006 61.8023 76.0282 61.8023 76.0282C61.8023 76.0282 61.8507 76.8521 63.1826 77.8699C63.7336 78.303 64.2126 78.5962 64.6408 78.8583C65.2665 79.2413 65.7837 79.5578 66.2581 80.1477C66.6887 80.6758 66.721 81.2118 66.7433 81.5822C66.7599 81.8576 66.7709 82.0414 66.9362 82.062C67.198 82.1112 67.3272 81.7066 67.5104 81.1325C67.5983 80.8571 67.6987 80.5425 67.8322 80.2204C68.2197 79.2511 67.8806 78.2818 67.8806 78.2818C67.8806 78.2818 69.261 79.445 71.9248 79.1784C73.7895 78.9845 74.9034 78.6453 74.7823 78.2576C74.7219 78.0761 74.5483 78.0645 74.1851 78.0402C73.9662 78.0256 73.6785 78.0063 73.3051 77.9426C72.3123 77.7729 71.9248 77.361 71.9248 77.361C71.9248 77.361 73.5473 76.8279 75.5573 75.4466C77.5672 74.0654 78.8749 72.2964 78.5843 71.8845C78.3823 71.572 77.8318 71.7615 77.1444 71.9981C76.9257 72.0734 76.693 72.1535 76.4533 72.2237C75.0487 72.6357 74.5402 72.6115 74.5402 72.6115C74.5402 72.6115 74.3949 72.4176 75.0245 71.6664C75.4712 71.1325 75.8988 70.8531 76.2064 70.6521C76.4991 70.4608 76.683 70.3406 76.6712 70.1398C76.647 69.7278 75.3393 69.2674 71.9732 70.7698C70.7624 71.3029 69.4789 72.151 69.4789 72.151C69.4789 72.151 69.9875 70.5759 70.1812 69.4855C70.1992 69.3863 70.2191 69.2792 70.2401 69.1663C70.4446 68.0655 70.7506 66.4187 70.3992 66.2868C70.1729 66.2019 70.12 66.2906 69.9609 66.5576C69.8475 66.7478 69.6802 67.0285 69.3578 67.4015C69.2346 67.5409 69.1315 67.6637 69.0428 67.7694C68.7306 68.1412 68.5966 68.3009 68.3892 68.2254C68.154 68.1313 68.1117 67.8543 68.0585 67.5063C68.0296 67.3168 67.9974 67.1062 67.9291 66.8926C67.7353 66.3111 67.251 65.5114 67.0573 65.6325C66.8741 65.7344 66.7252 66.3581 66.5422 67.1246C66.2896 68.1821 65.9722 69.5114 65.4106 70.1155C65.0957 70.4548 64.6841 70.6729 64.2482 70.8425C63.5943 71.109 62.8678 71.206 62.1655 71.206C61.3422 71.206 60.5188 71.0606 59.7681 70.7698C59.7329 70.7559 59.6963 70.7416 59.6584 70.7268C58.8376 70.4058 57.4248 69.8533 56.4989 68.3708C56.4989 68.3708 56.3778 68.1527 56.3536 68.1527V68.1285C55.5544 68.0315 54.7311 67.8135 53.7382 67.353C54.0046 68.1527 54.4163 69.1705 54.7311 69.9217C55.8208 72.563 57.3222 76.9975 55.8935 80.4869C54.1741 84.6791 50.1784 85.4788 49.7425 84.5822C49.6087 84.3145 49.9676 84.142 50.5616 83.8567C51.5804 83.3673 53.2906 82.5458 54.392 80.3416C55.7966 77.5064 54.7311 73.9442 54.7311 73.9442C54.7311 73.9442 54.7311 76.9975 52.5274 79.0815C50.7018 80.8018 49.3432 80.6789 48.613 80.6129C48.3456 80.5887 48.1624 80.5721 48.0715 80.6566C47.7083 81.0443 48.3137 81.3351 48.9191 81.6259C49.3066 81.7955 49.9846 81.9651 49.9846 81.9651C49.9846 81.9651 49.2823 82.6194 48.2653 83.1283C48.0924 83.217 47.9334 83.2959 47.7886 83.3678C47.142 83.6887 46.7792 83.8689 46.7396 84.146C46.7154 84.4126 48.0473 85.7211 49.3066 86.2785C50.5658 86.8358 52.1157 86.9812 52.1157 86.9812C52.1157 86.9812 52.2368 86.957 51.8251 87.6839C51.6705 87.9503 51.513 88.1618 51.3826 88.3368C51.1451 88.6555 50.9978 88.8532 51.1228 89.0409C51.4376 89.4771 51.7524 89.4044 53.5687 88.2655C55.3849 87.1266 55.8935 86.3996 55.8935 86.3996C55.8935 86.3996 55.845 86.545 55.6513 87.272C55.5805 87.5287 55.4871 87.724 55.4112 87.8827C55.2794 88.1583 55.2005 88.3233 55.3849 88.5078ZM57.4917 48.9607C57.1527 49.4211 56.5715 50.4874 56.4262 51.4809C57.0074 53.1771 57.7097 53.8799 58.194 54.0737C58.6057 52.5229 59.0658 50.972 59.7923 49.5665C59.6712 49.4454 58.8237 48.7184 57.4917 48.9607ZM54.2225 60.4468C54.3194 60.7376 56.063 61.9008 56.741 61.9735C56.741 61.9735 56.6684 60.8346 56.9106 59.8653C56.9106 59.8653 55.4818 59.211 54.61 57.6844C54.3678 58.484 54.2225 59.841 54.2225 60.4468ZM50.0573 47.4099C49.912 47.7006 49.7667 48.0399 49.5972 48.5245C48.6285 51.2143 48.3137 52.4986 48.3137 55.3338C48.2895 58.4356 49.2581 61.295 51.0502 63.3547C52.7453 65.3175 55.0701 66.4564 57.5886 66.5776C61.2089 66.7467 64.2759 64.5088 65.4472 63.6541L65.459 63.6455C67.1764 62.3914 70.2728 59.1566 70.549 58.868C70.561 58.8555 70.5677 58.8485 70.5687 58.8475L70.6171 58.7748L70.6655 58.8475C70.6678 58.8498 70.6797 58.8682 70.7002 58.9C70.8963 59.2041 71.8849 60.7373 72.8935 61.198C73.7168 61.5858 74.7824 61.4646 75.2425 61.295C75.412 61.2223 75.4604 61.198 75.4604 61.1738C75.4604 61.1496 75.3393 61.0526 75.2182 60.9557L75.201 60.941C74.6861 60.4995 73.6423 59.6046 73.4747 57.9751C73.3051 56.3031 76.6712 54.7522 79.0929 54.2918L79.1655 51.9413C78.8507 51.9655 77.3735 52.0867 77.0587 52.1836C72.7531 53.3939 70.0179 56.0064 67.3569 58.5481L67.3479 58.5567C64.5145 61.2707 61.8265 63.8394 57.6613 63.8394H57.5644C55.9903 63.8151 54.4163 63.0639 53.157 61.6827C51.5345 59.9137 50.6143 57.442 50.7838 55.2127C50.9775 52.6198 51.8977 50.4874 53.496 49.0577C54.7553 47.943 56.3778 47.2887 57.9761 47.2887H58.0729C59.308 47.3129 60.5672 47.7976 61.5359 48.5972C62.3108 49.2273 63.2311 50.342 63.3279 52.1109C63.4006 53.4922 62.9405 54.7765 62.1171 55.5519C61.8749 55.7942 60.543 56.9089 58.3635 56.4243C57.3949 56.2062 56.5957 55.3823 56.1598 54.7038C55.845 54.2191 55.6271 53.6376 55.4333 53.056C55.3849 52.9106 55.2154 52.7652 55.0217 52.7894C54.7795 52.8137 54.6342 53.1529 54.5858 53.6618C54.4647 55.2127 55.506 57.7328 58.194 58.4598C62.5772 59.6472 64.8051 56.4 65.2895 55.043C65.8222 53.5649 65.8465 52.7167 65.8465 52.7167C65.8465 52.6683 65.8949 52.5229 65.9918 52.4986C66.1128 52.4744 66.2097 52.5956 66.2581 52.6925C66.4761 53.0318 67.6143 53.7103 68.5829 53.4437C69.6346 53.1806 70.0965 52.2802 70.5507 51.3948L70.5687 51.3597L70.5871 51.3228C70.992 50.5121 71.3805 49.7344 72.2154 49.615C73.2083 49.4454 73.5231 49.5908 73.7168 49.6877L73.7244 49.6907C73.84 49.7371 73.8904 49.7573 74.0801 49.615C74.2254 49.5181 74.2254 49.3242 74.1769 49.203C74.0074 48.6699 72.9903 47.8945 71.6342 47.943C70.3192 47.9669 69.8304 48.3924 69.2822 48.8696L69.261 48.888C69.2341 48.9111 69.2073 48.9342 69.1803 48.9575C68.8668 49.2282 68.5369 49.513 68.0017 49.7362C66.6251 50.3233 65.9005 50.1739 65.7885 50.1508C65.7804 50.1491 65.7755 50.1481 65.7738 50.1481H65.7496L65.7254 50.1239C65.7251 50.1233 65.7245 50.1222 65.7237 50.1205C65.6476 49.9638 63.2189 44.9624 57.7581 44.9624H57.7097C54.7464 44.9863 53.0566 46.2373 52.4773 46.6662L52.4547 46.6829C52.261 46.8283 52.2125 46.8525 52.1641 46.8283C52.1641 46.8198 52.1582 46.8113 52.1515 46.8017C52.1391 46.7841 52.1242 46.7628 52.1399 46.7314C52.1883 46.489 51.8009 45.0351 51.5345 44.4778C51.2197 43.7992 50.3963 43.4358 50.1299 43.4115C50.3237 43.6296 50.6385 44.4293 50.5658 45.4713C50.5174 46.3679 50.3479 46.7556 50.0573 47.4099ZM57.6499 18.8149C57.6423 18.8155 57.6379 18.8158 57.637 18.8158C53.157 19.2035 48.5559 22.5475 48.3137 29.1387C48.12 35.5845 51.6313 39.2436 54.9974 40.5037C59.1385 42.0545 61.4875 41.1579 61.5843 41.1095C61.6812 41.0852 61.7781 41.1095 61.8507 41.1822C61.9234 41.2549 61.9234 41.376 61.8749 41.4487L61.8507 41.4729C61.8298 41.4953 61.8071 41.5194 61.7829 41.5453C61.3856 41.9687 60.5622 42.8462 60.0829 43.5085C60.4704 43.5569 60.9789 43.7266 61.318 43.8719L61.3874 43.9035C61.8702 44.123 62.0784 44.2177 62.2866 44.3566C63.5217 42.4907 65.2168 40.8187 67.2994 39.4132C68.922 38.2985 71.5616 37.2565 74.2012 36.6507L74.4918 36.578L74.2738 36.7477C73.4989 37.3535 72.9419 38.0077 72.4333 38.9043C71.7795 40.019 71.271 41.6183 71.4405 42.0788C71.4647 42.1272 71.4889 42.1272 71.4889 42.1272C71.6272 42.1826 71.6866 42.2063 71.73 42.1894C71.7627 42.1767 71.7864 42.1411 71.8279 42.0788C71.8764 41.9818 71.9732 41.8607 72.1427 41.6668C72.3607 41.4487 72.5544 41.3276 72.7239 41.3276H72.7482C72.8935 41.3276 73.0145 41.4003 73.0872 41.4729L73.1114 41.4972C73.2295 41.5917 73.2094 41.7323 73.1634 42.0539L73.1598 42.0788C73.063 42.7088 72.8935 43.8719 73.4747 44.7928C74.2496 46.0529 74.9519 46.8768 75.3393 46.9494C75.412 46.9494 75.4362 46.9494 75.4604 46.9252C75.5088 46.901 75.6299 46.7314 75.4846 46.0286C75.3393 45.2532 74.9761 42.6603 75.3878 40.8187C75.8721 38.5651 77.3251 36.3599 79.1413 36.3599H79.3108V34.276C78.9476 34.276 77.1071 34.1306 76.0416 32.9916C75.4846 32.3858 75.2183 31.6104 75.2425 30.6653C75.3151 28.6541 76.2353 27.4424 77.0103 26.6186C77.1314 26.4974 77.5188 26.0854 77.3977 25.8431C77.3009 25.6493 77.1314 25.5523 76.8892 25.5281H76.8165C75.9205 25.5281 74.3949 26.6428 73.9106 27.3698C73.3545 28.2044 73.0201 29.2166 72.9286 29.4935C72.9244 29.506 72.9208 29.517 72.9177 29.5264C72.8935 29.5991 72.845 29.6476 72.7724 29.6961C72.5786 29.793 72.1185 29.7203 71.7795 29.3326C71.5131 29.0418 71.5131 28.4602 71.5131 28.339V28.1694C71.5131 28.1694 71.4647 28.1452 71.4163 28.1452C71.3436 28.1452 71.1983 28.1936 71.053 28.4117C70.7382 28.9206 71.0046 31.4165 71.9732 32.7736C72.2109 33.0946 72.4194 33.3807 72.6045 33.6346C72.7966 33.8981 72.9634 34.127 73.1114 34.3244L73.1841 34.4214L73.0872 34.4456C72.3607 34.5667 71.6584 34.7606 71.0046 34.9787C70.1283 35.3027 69.2221 35.6718 68.3212 36.0386C68.0769 36.1381 67.8329 36.2375 67.59 36.3357H67.5658C66.2339 36.893 64.8536 37.4504 63.5701 37.8623C59.8165 39.0497 56.8137 38.9528 54.9006 37.5958C53.0117 36.2388 50.7596 33.7186 50.8322 29.381C50.8806 27.1517 51.8493 24.8254 53.3507 23.2745C54.6584 21.966 56.3051 21.2632 58.0972 21.2632H58.2909C63.0373 21.3844 64.6598 24.3892 64.6114 26.9336C64.563 29.3568 63.2311 30.9319 61.0031 31.1258C59.5502 31.2469 58.412 30.2776 58.0729 29.2599C57.8613 28.6245 57.8323 28.012 57.8087 27.5111C57.808 27.4962 57.8073 27.4814 57.8066 27.4667C57.8045 27.4238 57.8027 27.3817 57.8008 27.3406C57.781 26.8941 57.766 26.5578 57.5886 26.4247C57.516 26.352 57.4433 26.3278 57.3464 26.352C57.1527 26.4005 56.9106 26.667 56.7895 27.0063C56.2567 28.339 56.3051 29.8172 56.8863 31.1015C57.5402 32.4828 59.3564 33.7428 61.5843 33.4763C63.8849 33.1855 65.6285 31.9012 66.5003 29.793C67.0573 28.4117 67.1541 27.5878 67.0815 26.7397C67.0761 26.6859 67.0719 26.6309 67.0676 26.5742C67.0525 26.3755 67.0358 26.1555 66.9604 25.8916C66.9362 25.8189 66.9604 25.7462 66.9846 25.6977C67.0331 25.6493 67.0815 25.6008 67.1541 25.6008C67.2268 25.6008 68.7524 25.31 69.6969 23.953C71.392 21.4813 70.7624 20.1243 70.5202 19.7608C70.3265 19.4458 70.0843 19.3489 70.0359 19.3731C69.9951 19.3935 69.9372 19.6027 69.891 19.7696C69.8823 19.801 69.8741 19.8309 69.8664 19.8577C69.6969 20.5362 69.4305 21.554 68.147 21.9417C67.0515 22.2916 66.2925 21.7659 65.3301 21.0993C65.2927 21.0734 65.2549 21.0472 65.2168 21.0209H65.1926C64.5145 20.5362 63.7396 20.0031 62.6741 19.567C60.318 18.6332 57.8495 18.8013 57.6499 18.8149Z" fill="#990000"/>
<path d="M84.9046 106.343C84.953 106.343 84.9773 106.367 85.0015 106.391C85.0257 106.415 85.0257 106.464 84.953 106.488C84.6867 107.312 84.3476 108.79 84.2508 109.275C84.2508 109.323 84.2023 109.372 84.1539 109.372H83.9602C83.9359 109.372 83.9117 109.348 83.8875 109.323C83.8633 109.299 83.8633 109.251 83.8633 109.226C83.8875 109.129 83.9117 108.936 83.9117 108.79C83.9117 107.966 83.1852 107.748 77.7849 107.748V125.874C77.7849 128.321 78.1966 128.394 79.2379 128.564C79.2864 128.564 79.3348 128.612 79.3348 128.661V128.806C79.3348 128.83 79.3348 128.855 79.3106 128.879C79.2864 128.903 79.2622 128.903 79.2379 128.903C78.8505 128.879 77.8334 128.83 76.5741 128.83C75.5881 128.83 74.8195 128.864 74.2404 128.889L74.0741 128.896L73.9103 128.903C73.8861 128.903 73.8619 128.903 73.8377 128.879C73.8134 128.855 73.8134 128.83 73.8134 128.806V128.661C73.8134 128.612 73.8619 128.564 73.9103 128.564C74.9758 128.394 75.3633 128.321 75.3633 125.874V107.748C70.6653 107.748 69.2365 107.772 68.3405 109.663C68.3163 109.711 68.2921 109.735 68.2436 109.735H68.0983C68.0741 109.735 68.0499 109.711 68.0257 109.687C68.0015 109.663 68.0015 109.614 68.0015 109.59C68.1225 109.033 68.2678 108.499 68.4374 107.918C68.5609 107.526 68.667 107.117 68.7853 106.661L68.849 106.415C68.849 106.367 68.8975 106.343 68.9459 106.343C75.7992 106.488 83.4516 106.367 84.9046 106.343Z" fill="#990000"/>
<path fill-rule="evenodd" clip-rule="evenodd" d="M84.7837 117.829C84.7837 112.207 88.9247 106.392 95.8991 106.392C101.953 106.392 106.7 111.383 106.724 117.732C106.724 124.033 101.856 128.952 95.6569 128.952C88.8521 128.952 84.7837 123.306 84.7837 117.829ZM95.6327 128.055C100.621 128.055 103.721 124.178 103.721 117.926C103.721 110.051 99.3863 107.264 95.6327 107.264C89.8207 107.264 87.7623 112.91 87.7623 117.732C87.7623 124.202 90.6925 128.055 95.6327 128.055Z" fill="#990000"/>
<path d="M58.097 110.463C58.097 113.128 60.0828 114.485 62.1896 115.915L62.2694 115.97C64.5937 117.576 66.9848 119.228 67.0087 122.894C67.0087 126.529 64.4176 129.049 60.7124 129.049C59.6383 129.049 58.8701 128.884 58.199 128.74L58.1697 128.734L58.1121 128.721C57.5758 128.605 57.0573 128.492 56.4261 128.492C56.2324 128.492 56.1597 128.492 55.9902 128.516C55.9418 128.516 55.9176 128.516 55.8933 128.492C55.8691 128.467 55.8691 128.419 55.8691 128.395C55.8933 128.249 55.8933 127.91 55.8933 127.644C55.8933 127.304 55.8691 127.013 55.8207 126.674C55.8134 126.571 55.8038 126.466 55.794 126.359C55.7716 126.113 55.748 125.854 55.748 125.584C55.748 125.317 55.7723 124.421 56.1113 123.669C56.1355 123.621 56.1597 123.597 56.2082 123.597H56.305C56.3292 123.597 56.3535 123.597 56.3777 123.621C56.4019 123.621 56.4019 123.669 56.4019 123.694V123.791C56.3777 124.009 56.3535 124.227 56.3535 124.421C56.3535 126.795 58.6298 128.055 60.9062 128.055C62.8677 128.055 64.8535 126.844 64.8535 124.154C64.8535 121.295 62.7951 119.889 60.5914 118.387L60.5067 118.328C58.2566 116.772 55.9418 115.171 55.9418 111.844C55.9418 108.645 58.2666 106.416 61.56 106.416C62.4733 106.416 63.1929 106.545 63.8405 106.662L63.9574 106.683L64.0268 106.695C64.5344 106.788 65.0209 106.876 65.5073 106.876C65.6768 106.876 65.8221 106.876 65.9916 106.852C66.0401 106.852 66.0643 106.852 66.0885 106.876C66.1127 106.901 66.1127 106.949 66.1127 106.973C66.0401 107.652 66.0159 108.185 66.0159 108.936C66.0159 109.372 66.0159 110.124 66.0401 110.56C66.0401 110.584 66.0401 110.608 66.0159 110.632C65.9916 110.657 65.9674 110.657 65.9432 110.657H65.7737C65.7253 110.657 65.6768 110.608 65.6768 110.56C65.2409 108.379 63.8364 107.216 61.6084 107.216C59.0173 107.216 58.097 108.888 58.097 110.463Z" fill="#990000"/>
<path fill-rule="evenodd" clip-rule="evenodd" d="M125.879 128.564C124.105 127.965 122.047 124.302 120.525 121.596L120.317 121.225C119.523 119.81 118.897 118.696 118.42 118.241C121.011 117.224 122.561 115.164 122.561 112.668C122.561 108.888 119.655 106.44 115.151 106.44C115.016 106.44 114.845 106.445 114.65 106.45L114.648 106.45C114.389 106.457 114.088 106.464 113.771 106.464C113.141 106.489 112.439 106.489 111.931 106.489C110.575 106.489 110.017 106.489 108.976 106.416C108.952 106.416 108.927 106.416 108.903 106.44C108.879 106.464 108.879 106.489 108.879 106.513V106.658C108.879 106.707 108.927 106.755 108.976 106.755C110.017 106.925 110.38 107.337 110.38 109.445V125.923C110.38 128.37 109.993 128.443 108.927 128.613C108.879 128.613 108.831 128.661 108.831 128.71V128.855C108.831 128.879 108.831 128.904 108.855 128.928C108.879 128.952 108.903 128.952 108.927 128.952C109.043 128.948 109.167 128.942 109.3 128.937C109.888 128.912 110.647 128.879 111.615 128.879C112.875 128.879 113.916 128.928 114.304 128.952C114.328 128.952 114.352 128.952 114.376 128.928C114.4 128.904 114.4 128.879 114.4 128.855V128.71C114.4 128.661 114.352 128.613 114.304 128.613C113.238 128.443 112.851 128.37 112.851 125.923V118.968H114.715C115.054 118.968 115.49 118.92 115.974 118.847C116.501 119.35 117.122 120.515 117.51 121.244L117.524 121.27C117.597 121.416 117.67 121.561 117.742 121.658C121.375 128.467 121.762 128.879 125.031 129.001C125.395 129.001 125.54 129.001 125.806 128.976C125.855 128.976 125.903 128.928 125.903 128.879V128.686C125.952 128.637 125.927 128.589 125.879 128.564ZM119.776 113.056C119.776 115.212 119.195 118.096 114.255 118.096H112.875V107.628C113.747 107.385 114.328 107.337 115.006 107.337C117.888 107.361 119.776 109.59 119.776 113.056Z" fill="#990000"/>
<path d="M53.1567 106.367C52.5513 106.391 51.3647 106.416 50.3476 106.416C49.2578 106.416 48.047 106.391 47.4174 106.367C47.3932 106.367 47.3689 106.367 47.3447 106.391C47.3205 106.416 47.3205 106.44 47.3205 106.464V106.61C47.3205 106.658 47.3689 106.706 47.4174 106.706C48.4829 106.876 49.1852 106.997 49.1852 109.299V122.7C49.1852 125.22 47.9744 127.958 46.037 127.958C45.6738 127.958 45.3348 127.934 45.0199 127.885C43.6638 127.546 42.8162 126.601 42.3077 125.923C42.235 125.826 42.1624 125.729 42.114 125.632C41.557 124.784 41.2906 124.057 41.2906 124.033C41.2664 123.96 41.1937 123.936 41.1211 123.936C41.0484 123.96 41 124.008 41 124.105L41.4601 127.619C41.4601 127.667 41.4843 127.716 41.5328 127.74C42.8162 128.564 44.3903 128.806 44.6809 128.831C45.1895 128.903 45.6011 128.927 45.8433 128.927H46.1581C49.4031 128.927 51.5826 126.286 51.5826 122.361V109.299C51.5826 107.07 52.1042 106.951 53.1473 106.714L53.1809 106.706L53.2293 106.682C53.2778 106.682 53.302 106.634 53.302 106.585V106.44C53.302 106.416 53.302 106.391 53.2778 106.367H53.1567Z" fill="#990000"/>
</svg>
