<svg width="247" height="101" viewBox="0 0 247 101" fill="none" xmlns="http://www.w3.org/2000/svg">
<path d="M2.7 74H27.2V71.8L25.3 71.6C19.6 70.9 18.1 70 18.1 66.1V29.8H29L30.1 25.8H18.1V20.1C18.1 8.4 20 3.3 24.7 3.3C26.8 3.3 27.8 4.4 30.1 6.9C31.7 8.9 32.7 9.7 34.8 9.7C37.1 9.7 38.9 8.5 40.2 6C38.5 2.9 34 0.299995 27.2 0.299995C18.5 0.299995 9.1 6.79999 9.1 20.6V25.6L1.3 27.7V29.8H9.1V66.1C9.1 70 8 71.2 4.5 71.6L2.7 71.8V74ZM67.743 28.3C66.243 26.4 63.043 24.8 59.843 24.8C53.943 24.8 49.643 29.9 47.543 35.9V24.7H46.743L32.343 29V30.8C37.543 31.7 38.743 33 38.743 36.9V66.1C38.743 70 37.643 71.2 34.143 71.6L32.343 71.8V74H56.743V71.8L54.843 71.6C49.243 70.9 47.743 70 47.743 66.1V39.2C49.243 35.1 51.643 32.1 54.443 32.1C55.543 32.1 56.743 32.4 58.143 33C59.743 33.7 61.043 34.1 62.043 34.1C64.843 34.1 66.943 31.4 67.743 28.3ZM111.564 69.2C110.564 69.6 109.564 69.8 108.664 69.8C105.564 69.8 104.364 68.3 104.364 64.8V38.4C104.364 30.3 98.9641 24.4 87.3641 24.4C77.2641 24.4 70.5641 30.4 69.1641 35.6C70.0641 37.2 72.3641 38.5 74.8641 38.5C76.9641 38.5 78.3641 37.7 79.2641 34.8C81.2641 28.7 82.4641 26.9 86.7641 26.9C92.5641 26.9 95.4641 30.8 95.4641 38.5V45L81.6641 49.3C72.0641 52.4 68.0641 55.6 68.0641 62.1C68.0641 65.8 69.3641 68.8 71.9641 71.3C74.5641 73.8 77.6641 75 81.3641 75C86.9641 75 92.4641 71.7 95.5641 67.4C95.9641 71.7 98.1641 74.7 102.964 74.7C105.864 74.7 109.264 73.3 111.564 70.6V69.2ZM95.4641 65.2C93.4641 67.7 89.7641 69.7 86.0641 69.7C80.1641 69.7 76.7641 65.1 76.7641 59.9C76.7641 55.6 78.5641 53.7 84.1641 51.8L95.4641 48V65.2ZM140.074 25.8V27.9L141.774 28.2C144.574 28.7 145.774 29.8 145.774 32.2C145.774 33.7 145.174 36 143.974 38.9L134.374 62.2L124.474 38.1C123.374 35.4 122.774 33.4 122.774 32C122.774 29.7 124.174 28.7 127.274 28.2L129.074 27.9V25.8H107.874V27.9C109.574 28.3 110.974 29.3 111.974 30.8C112.974 32.3 114.374 35.4 116.274 40L129.974 72.8L129.274 74.5C124.674 85.6 124.174 86.5 120.974 87C120.174 87 119.174 86.8 117.974 86.4C117.574 86.3 115.974 85.7 114.374 85.7C111.074 85.7 108.874 88.6 108.174 92.3C110.274 94 112.874 94.8 115.874 94.8C122.574 94.8 126.074 90.6 132.374 75.6L147.474 39.7C150.974 31.6 152.874 28.8 156.874 27.9V25.8H140.074Z" fill="black"/>
<circle cx="60.5" cy="29.5" r="10" stroke="#FB4848"/>
<circle cx="147.5" cy="29.5" r="10" stroke="#FB4848"/>
<circle cx="115.5" cy="90.5" r="10" stroke="#FB4848"/>
</svg>
