<svg width="339" height="52" viewBox="0 0 339 52" fill="none" xmlns="http://www.w3.org/2000/svg">
<path d="M23.28 31.2H6.24C6.272 33.536 6.928 35.424 8.208 36.864C9.52 38.272 11.248 38.976 13.392 38.976C14.928 38.976 16.24 38.592 17.328 37.824C18.416 37.024 19.232 35.888 19.776 34.416L23.136 35.904C22.304 38.08 21.024 39.744 19.296 40.896C17.6 42.016 15.536 42.576 13.104 42.576C9.648 42.576 6.96 41.52 5.04 39.408C3.12 37.264 2.16 34.224 2.16 30.288C2.16 26.256 3.12 23.104 5.04 20.832C6.96 18.56 9.632 17.424 13.056 17.424C16.32 17.424 18.832 18.352 20.592 20.208C22.384 22.064 23.28 24.768 23.28 28.32V31.2ZM19.152 27.36C19.152 25.184 18.608 23.52 17.52 22.368C16.464 21.216 14.944 20.64 12.96 20.64C10.88 20.64 9.248 21.28 8.064 22.56C6.912 23.84 6.304 25.616 6.24 27.888H19.152V27.36ZM22.0931 18H26.5091L31.8851 34.176C32.3011 35.424 32.6371 36.64 32.8931 37.824H33.0371C33.2931 36.64 33.6291 35.424 34.0451 34.176L39.4211 18H43.8371L35.1491 42H30.7811L22.0931 18ZM63.5063 31.2H46.4663C46.4983 33.536 47.1543 35.424 48.4342 36.864C49.7463 38.272 51.4743 38.976 53.6183 38.976C55.1543 38.976 56.4663 38.592 57.5543 37.824C58.6423 37.024 59.4583 35.888 60.0023 34.416L63.3623 35.904C62.5303 38.08 61.2503 39.744 59.5223 40.896C57.8263 42.016 55.7622 42.576 53.3302 42.576C49.8742 42.576 47.1862 41.52 45.2662 39.408C43.3462 37.264 42.3862 34.224 42.3862 30.288C42.3862 26.256 43.3462 23.104 45.2662 20.832C47.1862 18.56 49.8583 17.424 53.2823 17.424C56.5463 17.424 59.0583 18.352 60.8183 20.208C62.6103 22.064 63.5063 24.768 63.5063 28.32V31.2ZM59.3783 27.36C59.3783 25.184 58.8343 23.52 57.7463 22.368C56.6903 21.216 55.1703 20.64 53.1863 20.64C51.1063 20.64 49.4743 21.28 48.2903 22.56C47.1382 23.84 46.5302 25.616 46.4663 27.888H59.3783V27.36ZM66.3937 18H70.2337V22.752C71.8017 19.2 74.4738 17.424 78.2498 17.424C80.9058 17.424 82.9058 18.24 84.2498 19.872C85.5938 21.472 86.2657 23.872 86.2657 27.072V42H82.1858V27.312C82.1858 23.056 80.4258 20.928 76.9058 20.928C74.9218 20.928 73.3537 21.696 72.2018 23.232C71.0498 24.736 70.4738 26.816 70.4738 29.472V42H66.3937V18Z" fill="black"/>
<path d="M137.28 32.2H120.24C120.272 34.536 120.928 36.424 122.208 37.864C123.52 39.272 125.248 39.976 127.392 39.976C128.928 39.976 130.24 39.592 131.328 38.824C132.416 38.024 133.232 36.888 133.776 35.416L137.136 36.904C136.304 39.08 135.024 40.744 133.296 41.896C131.6 43.016 129.536 43.576 127.104 43.576C123.648 43.576 120.96 42.52 119.04 40.408C117.12 38.264 116.16 35.224 116.16 31.288C116.16 27.256 117.12 24.104 119.04 21.832C120.96 19.56 123.632 18.424 127.056 18.424C130.32 18.424 132.832 19.352 134.592 21.208C136.384 23.064 137.28 25.768 137.28 29.32V32.2ZM133.152 28.36C133.152 26.184 132.608 24.52 131.52 23.368C130.464 22.216 128.944 21.64 126.96 21.64C124.88 21.64 123.248 22.28 122.064 23.56C120.912 24.84 120.304 26.616 120.24 28.888H133.152V28.36ZM138.973 19H143.389L148.765 35.176C149.181 36.424 149.517 37.64 149.773 38.824H149.917C150.173 37.64 150.509 36.424 150.925 35.176L156.301 19H160.717L152.029 43H147.661L138.973 19ZM183.266 32.2H166.226C166.258 34.536 166.914 36.424 168.194 37.864C169.506 39.272 171.234 39.976 173.378 39.976C174.914 39.976 176.226 39.592 177.314 38.824C178.402 38.024 179.218 36.888 179.762 35.416L183.122 36.904C182.29 39.08 181.01 40.744 179.282 41.896C177.586 43.016 175.522 43.576 173.09 43.576C169.634 43.576 166.946 42.52 165.026 40.408C163.106 38.264 162.146 35.224 162.146 31.288C162.146 27.256 163.106 24.104 165.026 21.832C166.946 19.56 169.618 18.424 173.042 18.424C176.306 18.424 178.818 19.352 180.578 21.208C182.37 23.064 183.266 25.768 183.266 29.32V32.2ZM179.138 28.36C179.138 26.184 178.594 24.52 177.506 23.368C176.45 22.216 174.93 21.64 172.946 21.64C170.866 21.64 169.234 22.28 168.05 23.56C166.898 24.84 166.29 26.616 166.226 28.888H179.138V28.36ZM189.034 19H192.874V23.752C194.442 20.2 197.114 18.424 200.89 18.424C203.546 18.424 205.546 19.24 206.89 20.872C208.234 22.472 208.906 24.872 208.906 28.072V43H204.826V28.312C204.826 24.056 203.066 21.928 199.546 21.928C197.562 21.928 195.994 22.696 194.842 24.232C193.69 25.736 193.114 27.816 193.114 30.472V43H189.034V19Z" fill="black"/>
<path d="M256.28 32.2H239.24C239.272 34.536 239.928 36.424 241.208 37.864C242.52 39.272 244.248 39.976 246.392 39.976C247.928 39.976 249.24 39.592 250.328 38.824C251.416 38.024 252.232 36.888 252.776 35.416L256.136 36.904C255.304 39.08 254.024 40.744 252.296 41.896C250.6 43.016 248.536 43.576 246.104 43.576C242.648 43.576 239.96 42.52 238.04 40.408C236.12 38.264 235.16 35.224 235.16 31.288C235.16 27.256 236.12 24.104 238.04 21.832C239.96 19.56 242.632 18.424 246.056 18.424C249.32 18.424 251.832 19.352 253.592 21.208C255.384 23.064 256.28 25.768 256.28 29.32V32.2ZM252.152 28.36C252.152 26.184 251.608 24.52 250.52 23.368C249.464 22.216 247.944 21.64 245.96 21.64C243.88 21.64 242.248 22.28 241.064 23.56C239.912 24.84 239.304 26.616 239.24 28.888H252.152V28.36ZM260.373 19H264.789L270.165 35.176C270.581 36.424 270.917 37.64 271.173 38.824H271.317C271.573 37.64 271.909 36.424 272.325 35.176L277.701 19H282.117L273.429 43H269.061L260.373 19ZM307.066 32.2H290.026C290.058 34.536 290.714 36.424 291.994 37.864C293.306 39.272 295.034 39.976 297.178 39.976C298.714 39.976 300.026 39.592 301.114 38.824C302.202 38.024 303.018 36.888 303.562 35.416L306.922 36.904C306.09 39.08 304.81 40.744 303.082 41.896C301.386 43.016 299.322 43.576 296.89 43.576C293.434 43.576 290.746 42.52 288.826 40.408C286.906 38.264 285.946 35.224 285.946 31.288C285.946 27.256 286.906 24.104 288.826 21.832C290.746 19.56 293.418 18.424 296.842 18.424C300.106 18.424 302.618 19.352 304.378 21.208C306.17 23.064 307.066 25.768 307.066 29.32V32.2ZM302.938 28.36C302.938 26.184 302.394 24.52 301.306 23.368C300.25 22.216 298.73 21.64 296.746 21.64C294.666 21.64 293.034 22.28 291.85 23.56C290.698 24.84 290.09 26.616 290.026 28.888H302.938V28.36ZM315.234 19H319.074V23.752C320.642 20.2 323.314 18.424 327.09 18.424C329.746 18.424 331.746 19.24 333.09 20.872C334.434 22.472 335.106 24.872 335.106 28.072V43H331.026V28.312C331.026 24.056 329.266 21.928 325.746 21.928C323.762 21.928 322.194 22.696 321.042 24.232C319.89 25.736 319.314 27.816 319.314 30.472V43H315.234V19Z" fill="black"/>
<rect x="106.5" y="8.5" width="111" height="43" stroke="#FB4848"/>
</svg>
