<svg width="298" height="99" viewBox="0 0 298 99" fill="none" xmlns="http://www.w3.org/2000/svg">
<path d="M26 77.2C20.0667 77.2 15.2 75.8667 11.4 73.2C7.66667 70.5333 5.36667 66.7333 4.5 61.8L13.1 60.3C13.7 63.4333 15.1333 65.8667 17.4 67.6C19.6667 69.3333 22.6333 70.2 26.3 70.2C29.5667 70.2 32.1 69.5 33.9 68.1C35.7667 66.6333 36.7 64.8 36.7 62.6C36.7 60.4667 36.1 58.8667 34.9 57.8C33.7 56.7333 31.9 56 29.5 55.6L19.7 53.8C15.4333 53 12.1333 51.4333 9.8 49.1C7.53333 46.7 6.4 43.6 6.4 39.8C6.4 35.4 8.1 31.8 11.5 29C14.9667 26.2 19.6 24.8 25.4 24.8C31 24.8 35.5667 26 39.1 28.4C42.7 30.8 44.7333 34.1 45.2 38.3L36.8 40.2C36.2 37.6 34.9 35.5333 32.9 34C30.9 32.4667 28.2667 31.7 25 31.7C21.8 31.7 19.2667 32.3667 17.4 33.7C15.6 35.0333 14.7 36.9333 14.7 39.4C14.7 41.4 15.3333 42.9667 16.6 44.1C17.9333 45.2333 19.8667 46.0333 22.4 46.5L32.1 48.3C36.5667 49.1667 39.8333 50.7333 41.9 53C44.0333 55.2 45.1 58.1667 45.1 61.9C45.1 66.5 43.4 70.2 40 73C36.6667 75.8 32 77.2 26 77.2ZM49.6953 26H58.9953V12.9L67.4953 9.29999V26H79.9953V33H67.4953V60.7C67.4953 63.5667 68.062 65.6667 69.1953 67C70.3953 68.2667 72.262 68.9 74.7953 68.9C76.262 68.9 77.9953 68.6667 79.9953 68.2V76C77.7953 76.6 75.3286 76.9 72.5953 76.9C67.5286 76.9 63.9953 75.5333 61.9953 72.8C59.9953 70.0667 58.9953 66.1333 58.9953 61V33H49.6953V26ZM98.3492 37.4C99.6159 33.6667 101.549 30.6333 104.149 28.3C106.816 25.9667 109.949 24.8 113.549 24.8C114.349 24.8 114.949 24.8333 115.349 24.9V33.2H114.949C110.216 33.2 106.549 34.5 103.949 37.1C101.816 39.2333 100.449 41.7 99.8492 44.5C99.2492 47.3 98.9492 50.6667 98.9492 54.6V76H90.4492V26H98.3492V37.4ZM142.698 77.2C138.032 77.2 133.932 76.1667 130.398 74.1C126.865 71.9667 124.132 68.9333 122.198 65C120.332 61.0667 119.398 56.4 119.398 51C119.398 45.6 120.332 40.9333 122.198 37C124.132 33.0667 126.865 30.0667 130.398 28C133.932 25.8667 138.032 24.8 142.698 24.8C147.365 24.8 151.465 25.8667 154.998 28C158.532 30.0667 161.232 33.0667 163.098 37C165.032 40.9333 165.998 45.6 165.998 51C165.998 56.4 165.032 61.0667 163.098 65C161.232 68.9333 158.532 71.9667 154.998 74.1C151.465 76.1667 147.365 77.2 142.698 77.2ZM142.698 69.8C147.232 69.8 150.732 68.2 153.198 65C155.732 61.8 156.998 57.1333 156.998 51C156.998 44.8667 155.732 40.2 153.198 37C150.732 33.8 147.232 32.2 142.698 32.2C138.165 32.2 134.632 33.8 132.098 37C129.632 40.2 128.398 44.8667 128.398 51C128.398 57.1333 129.632 61.8 132.098 65C134.632 68.2 138.165 69.8 142.698 69.8ZM195.565 51.5L186.465 60.7V76H177.965V3.5H186.465V50.6L208.865 26H219.965L201.665 45.3L221.165 76H210.665L195.565 51.5ZM267.699 53.5H232.199C232.266 58.3667 233.633 62.3 236.299 65.3C239.033 68.2333 242.633 69.7 247.099 69.7C250.299 69.7 253.033 68.9 255.299 67.3C257.566 65.6333 259.266 63.2667 260.399 60.2L267.399 63.3C265.666 67.8333 262.999 71.3 259.399 73.7C255.866 76.0333 251.566 77.2 246.499 77.2C239.299 77.2 233.699 75 229.699 70.6C225.699 66.1333 223.699 59.8 223.699 51.6C223.699 43.2 225.699 36.6333 229.699 31.9C233.699 27.1667 239.266 24.8 246.399 24.8C253.199 24.8 258.433 26.7333 262.099 30.6C265.833 34.4667 267.699 40.1 267.699 47.5V53.5ZM259.099 45.5C259.099 40.9667 257.966 37.5 255.699 35.1C253.499 32.7 250.333 31.5 246.199 31.5C241.866 31.5 238.466 32.8333 235.999 35.5C233.599 38.1667 232.333 41.8667 232.199 46.6H259.099V45.5Z" fill="black"/>
<circle cx="99.5" cy="34.5" r="10" stroke="#FB4848"/>
<circle cx="62.5" cy="10.5" r="10" stroke="#FB4848"/>
</svg>
