<svg width="247" height="81" viewBox="0 0 247 81" fill="none" xmlns="http://www.w3.org/2000/svg">
<path d="M3.3 37.5C3.3 51.8 11.7 62.1 25.1 62.1C34.2 62.1 40.9 56.6 44.4 46.7L42.8 45.7C38.9 51.6 34.5 54.5 28.2 54.5C19.2 54.5 11.7 47 11.7 33.6C11.7 20.5 18.3 14.5 24.4 14.5C28.9 14.5 30.6 16.6 33 21.1C34.5 23.8 35.8 24.8 37.9 24.8C40 24.8 42.1 23.4 43.3 21.4C42.3 17.6 37.2 11.5 26.1 11.5C13.7 11.5 3.3 22.6 3.3 37.5ZM81.6102 15.3C80.1102 13.4 76.9102 11.8 73.7102 11.8C67.8102 11.8 63.5102 16.9 61.4102 22.9V11.7H60.6102L46.2102 16V17.8C51.4102 18.7 52.6102 20 52.6102 23.9V53.1C52.6102 57 51.5102 58.2 48.0102 58.6L46.2102 58.8V61H70.6102V58.8L68.7102 58.6C63.1102 57.9 61.6102 57 61.6102 53.1V26.2C63.1102 22.1 65.5102 19.1 68.3102 19.1C69.4102 19.1 70.6102 19.4 72.0102 20C73.6102 20.7 74.9102 21.1 75.9102 21.1C78.7102 21.1 80.8102 18.4 81.6102 15.3ZM118.864 46.7C114.864 52.2 110.764 54.6 104.864 54.6C95.2641 54.6 88.0641 47.5 88.0641 32.8V32.7H119.564C119.664 32 119.664 31.2 119.664 30.2C119.664 20.6 112.964 11.6 101.064 11.6C90.2641 11.6 79.9641 22.3 79.9641 37.9C79.9641 52.3 88.7641 62.2 101.064 62.2C109.164 62.2 116.164 57.4 120.464 47.7L118.864 46.7ZM88.2641 29.5C89.1641 20.2 94.1641 14.5 100.264 14.5C106.564 14.5 110.264 20.3 110.764 29.5H88.2641ZM168.255 56.2C167.255 56.6 166.255 56.8 165.355 56.8C162.255 56.8 161.055 55.3 161.055 51.8V25.4C161.055 17.3 155.655 11.4 144.055 11.4C133.955 11.4 127.255 17.4 125.855 22.6C126.755 24.2 129.055 25.5 131.555 25.5C133.655 25.5 135.055 24.7 135.955 21.8C137.955 15.7 139.155 13.9 143.455 13.9C149.255 13.9 152.155 17.8 152.155 25.5V32L138.355 36.3C128.755 39.4 124.755 42.6 124.755 49.1C124.755 52.8 126.055 55.8 128.655 58.3C131.255 60.8 134.355 62 138.055 62C143.655 62 149.155 58.7 152.255 54.4C152.655 58.7 154.855 61.7 159.655 61.7C162.555 61.7 165.955 60.3 168.255 57.6V56.2ZM152.155 52.2C150.155 54.7 146.455 56.7 142.755 56.7C136.855 56.7 133.455 52.1 133.455 46.9C133.455 42.6 135.255 40.7 140.855 38.8L152.155 35V52.2ZM174.43 50.7C174.43 58.2 178.53 62 185.43 62C189.53 62 193.93 60.2 197.23 56.7V54.7C195.13 55.8 192.83 56.3 190.43 56.3C185.63 56.3 183.43 53.8 183.43 48.7V16.8H195.13L196.13 12.8H183.43V0.399999H180.73C178.03 8.1 173.43 12.9 167.03 14.7V16.8H174.43V50.7ZM236.204 46.7C232.204 52.2 228.104 54.6 222.204 54.6C212.604 54.6 205.404 47.5 205.404 32.8V32.7H236.904C237.004 32 237.004 31.2 237.004 30.2C237.004 20.6 230.304 11.6 218.404 11.6C207.604 11.6 197.304 22.3 197.304 37.9C197.304 52.3 206.104 62.2 218.404 62.2C226.504 62.2 233.504 57.4 237.804 47.7L236.204 46.7ZM205.604 29.5C206.504 20.2 211.504 14.5 217.604 14.5C223.904 14.5 227.604 20.3 228.104 29.5H205.604Z" fill="black"/>
<circle cx="39.5" cy="35.5" r="10" stroke="#FB4848"/>
<circle cx="118" cy="40" r="6.5" stroke="#FB4848"/>
<circle cx="237" cy="40" r="6.5" stroke="#FB4848"/>
</svg>
