<svg width="347" height="94" viewBox="0 0 347 94" fill="none" xmlns="http://www.w3.org/2000/svg">
<path d="M18.56 69.32C20.2933 69.6133 21.6533 70.3733 22.64 71.6C23.6267 72.8 24.12 74.3333 24.12 76.2C24.12 77.5333 23.8133 78.7867 23.2 79.96C22.6133 81.1333 21.6133 82.1067 20.2 82.88C18.8133 83.6267 16.9867 84 14.72 84H4V55.6H13.88C17.2667 55.6 19.68 56.3467 21.12 57.84C22.5867 59.3333 23.32 61.1067 23.32 63.16C23.32 64.5733 22.9067 65.84 22.08 66.96C21.28 68.08 20.1067 68.8667 18.56 69.32ZM7.8 58.8V67.92H13.88C17.6667 67.92 19.56 66.4267 19.56 63.44C19.56 62.1067 19.1333 61 18.28 60.12C17.4533 59.24 15.9867 58.8 13.88 58.8H7.8ZM14.52 80.8C16.5733 80.8 18.0533 80.3333 18.96 79.4C19.8933 78.4667 20.36 77.28 20.36 75.84C20.36 74.4267 19.9067 73.2933 19 72.44C18.12 71.56 16.76 71.12 14.92 71.12H7.8V80.8H14.52ZM36.6481 84.48C34.7815 84.48 33.1415 84.0667 31.7281 83.24C30.3148 82.3867 29.2215 81.1733 28.4481 79.6C27.7015 78.0267 27.3281 76.16 27.3281 74C27.3281 71.84 27.7015 69.9733 28.4481 68.4C29.2215 66.8267 30.3148 65.6267 31.7281 64.8C33.1415 63.9467 34.7815 63.52 36.6481 63.52C38.5148 63.52 40.1548 63.9467 41.5681 64.8C42.9815 65.6267 44.0615 66.8267 44.8081 68.4C45.5815 69.9733 45.9681 71.84 45.9681 74C45.9681 76.16 45.5815 78.0267 44.8081 79.6C44.0615 81.1733 42.9815 82.3867 41.5681 83.24C40.1548 84.0667 38.5148 84.48 36.6481 84.48ZM36.6481 81.52C38.4615 81.52 39.8615 80.88 40.8481 79.6C41.8615 78.32 42.3681 76.4533 42.3681 74C42.3681 71.5467 41.8615 69.68 40.8481 68.4C39.8615 67.12 38.4615 66.48 36.6481 66.48C34.8348 66.48 33.4215 67.12 32.4081 68.4C31.4215 69.68 30.9281 71.5467 30.9281 74C30.9281 76.4533 31.4215 78.32 32.4081 79.6C33.4215 80.88 34.8348 81.52 36.6481 81.52ZM56.8747 84.48C55.2747 84.48 53.8614 84.0533 52.6347 83.2C51.408 82.32 50.448 81.0933 49.7547 79.52C49.088 77.92 48.7547 76.08 48.7547 74C48.7547 71.9733 49.1147 70.1733 49.8347 68.6C50.5547 67 51.5547 65.76 52.8347 64.88C54.1414 63.9733 55.6214 63.52 57.2747 63.52C59.9414 63.52 61.9014 64.6667 63.1547 66.96V55H66.5547V84H63.3547V80.28C62.7414 81.64 61.888 82.68 60.7947 83.4C59.728 84.12 58.4214 84.48 56.8747 84.48ZM57.7947 81.48C59.448 81.48 60.768 80.8533 61.7547 79.6C62.7414 78.32 63.2347 76.6133 63.2347 74.48V73.56C63.2347 71.3733 62.7414 69.6533 61.7547 68.4C60.7947 67.1467 59.4747 66.52 57.7947 66.52C56.088 66.52 54.7547 67.1867 53.7947 68.52C52.8347 69.8267 52.3547 71.6533 52.3547 74C52.3547 76.3467 52.8347 78.1867 53.7947 79.52C54.7547 80.8267 56.088 81.48 57.7947 81.48ZM73.2331 92C72.5665 92 71.9531 91.9467 71.3931 91.84V88.84C71.7398 88.8933 72.2198 88.92 72.8331 88.92C74.0331 88.92 74.9798 88.6267 75.6731 88.04C76.3665 87.48 76.9398 86.5467 77.3931 85.24L77.9131 83.76L69.9531 64H73.7531L78.8731 77.92C79.1665 78.72 79.3931 79.5067 79.5531 80.28H79.6331C79.7398 79.8 79.9665 79.0133 80.3131 77.92L84.9531 64H88.6331L80.8331 85.28C79.9531 87.7067 78.8998 89.4267 77.6731 90.44C76.4465 91.48 74.9665 92 73.2331 92ZM99.05 84.48C97.21 84.48 95.5967 84.0533 94.21 83.2C92.8233 82.3467 91.7433 81.1333 90.97 79.56C90.2233 77.96 89.85 76.1067 89.85 74C89.85 70.7467 90.6633 68.1867 92.29 66.32C93.9433 64.4533 96.1967 63.52 99.05 63.52C101.397 63.52 103.29 64.16 104.73 65.44C106.17 66.72 107.023 68.5067 107.29 70.8L103.81 71.2C103.623 69.68 103.103 68.52 102.25 67.72C101.423 66.8933 100.33 66.48 98.97 66.48C97.2367 66.48 95.8767 67.1467 94.89 68.48C93.93 69.7867 93.45 71.6133 93.45 73.96C93.45 76.36 93.9433 78.2267 94.93 79.56C95.9167 80.8667 97.3033 81.52 99.09 81.52C100.45 81.52 101.543 81.12 102.37 80.32C103.197 79.52 103.743 78.3333 104.01 76.76L107.25 77.28C106.877 79.5733 105.97 81.3467 104.53 82.6C103.117 83.8533 101.29 84.48 99.05 84.48ZM119.425 84.48C117.558 84.48 115.918 84.0667 114.505 83.24C113.091 82.3867 111.998 81.1733 111.225 79.6C110.478 78.0267 110.105 76.16 110.105 74C110.105 71.84 110.478 69.9733 111.225 68.4C111.998 66.8267 113.091 65.6267 114.505 64.8C115.918 63.9467 117.558 63.52 119.425 63.52C121.291 63.52 122.931 63.9467 124.345 64.8C125.758 65.6267 126.838 66.8267 127.585 68.4C128.358 69.9733 128.745 71.84 128.745 74C128.745 76.16 128.358 78.0267 127.585 79.6C126.838 81.1733 125.758 82.3867 124.345 83.24C122.931 84.0667 121.291 84.48 119.425 84.48ZM119.425 81.52C121.238 81.52 122.638 80.88 123.625 79.6C124.638 78.32 125.145 76.4533 125.145 74C125.145 71.5467 124.638 69.68 123.625 68.4C122.638 67.12 121.238 66.48 119.425 66.48C117.611 66.48 116.198 67.12 115.185 68.4C114.198 69.68 113.705 71.5467 113.705 74C113.705 76.4533 114.198 78.32 115.185 79.6C116.198 80.88 117.611 81.52 119.425 81.52ZM133.331 64H136.531V67.72C137.171 66.36 138.051 65.32 139.171 64.6C140.291 63.88 141.585 63.52 143.051 63.52C144.651 63.52 146.065 63.96 147.291 64.84C148.518 65.6933 149.465 66.92 150.131 68.52C150.798 70.0933 151.131 71.92 151.131 74C151.131 76.1067 150.771 77.9467 150.051 79.52C149.358 81.0933 148.385 82.32 147.131 83.2C145.878 84.0533 144.451 84.48 142.851 84.48C141.385 84.48 140.118 84.1333 139.051 83.44C137.985 82.7467 137.211 81.88 136.731 80.84V91.8H133.331V64ZM142.051 81.48C143.758 81.48 145.091 80.8267 146.051 79.52C147.038 78.1867 147.531 76.3467 147.531 74C147.531 71.6533 147.051 69.8267 146.091 68.52C145.158 67.1867 143.851 66.52 142.171 66.52C140.491 66.52 139.145 67.1467 138.131 68.4C137.145 69.6267 136.651 71.32 136.651 73.48V74.44C136.651 76.6 137.131 78.32 138.091 79.6C139.078 80.8533 140.398 81.48 142.051 81.48ZM155.619 92C154.952 92 154.339 91.9467 153.779 91.84V88.84C154.126 88.8933 154.606 88.92 155.219 88.92C156.419 88.92 157.366 88.6267 158.059 88.04C158.752 87.48 159.326 86.5467 159.779 85.24L160.299 83.76L152.339 64H156.139L161.259 77.92C161.552 78.72 161.779 79.5067 161.939 80.28H162.019C162.126 79.8 162.352 79.0133 162.699 77.92L167.339 64H171.019L163.219 85.28C162.339 87.7067 161.286 89.4267 160.059 90.44C158.832 91.48 157.352 92 155.619 92ZM180.822 64H184.542V58.76L187.942 57.32V64H192.942V66.8H187.942V77.88C187.942 79.0267 188.169 79.8667 188.622 80.4C189.102 80.9067 189.849 81.16 190.862 81.16C191.449 81.16 192.142 81.0667 192.942 80.88V84C192.062 84.24 191.075 84.36 189.982 84.36C187.955 84.36 186.542 83.8133 185.742 82.72C184.942 81.6267 184.542 80.0533 184.542 78V66.8H180.822V64ZM212.728 75H198.528C198.555 76.9467 199.101 78.52 200.168 79.72C201.261 80.8933 202.701 81.48 204.488 81.48C205.768 81.48 206.861 81.16 207.768 80.52C208.675 79.8533 209.355 78.9067 209.808 77.68L212.608 78.92C211.915 80.7333 210.848 82.12 209.408 83.08C207.995 84.0133 206.275 84.48 204.248 84.48C201.368 84.48 199.128 83.6 197.528 81.84C195.928 80.0533 195.128 77.52 195.128 74.24C195.128 70.88 195.928 68.2533 197.528 66.36C199.128 64.4667 201.355 63.52 204.208 63.52C206.928 63.52 209.021 64.2933 210.488 65.84C211.981 67.3867 212.728 69.64 212.728 72.6V75ZM209.288 71.8C209.288 69.9867 208.835 68.6 207.928 67.64C207.048 66.68 205.781 66.2 204.128 66.2C202.395 66.2 201.035 66.7333 200.048 67.8C199.088 68.8667 198.581 70.3467 198.528 72.24H209.288V71.8ZM221.188 73.68L214.468 64H218.468L222.108 69.64C222.775 70.68 223.162 71.3733 223.268 71.72H223.308C223.468 71.2933 223.842 70.6 224.428 69.64L227.868 64H232.028L225.428 73.92L232.548 84H228.508L224.388 77.84C223.748 76.8533 223.375 76.1733 223.268 75.8H223.228C223.122 76.1467 222.735 76.8267 222.068 77.84L217.988 84H213.948L221.188 73.68ZM233.344 64H237.064V58.76L240.464 57.32V64H245.464V66.8H240.464V77.88C240.464 79.0267 240.69 79.8667 241.144 80.4C241.624 80.9067 242.37 81.16 243.384 81.16C243.97 81.16 244.664 81.0667 245.464 80.88V84C244.584 84.24 243.597 84.36 242.504 84.36C240.477 84.36 239.064 83.8133 238.264 82.72C237.464 81.6267 237.064 80.0533 237.064 78V66.8H233.344V64Z" fill="black"/>
<path d="M38.82 7.92C38.82 5.7 40.2 4.8 42.6 4.56L43.68 4.44V3H28.26V4.44L29.34 4.56C31.74 4.8 33.12 5.7 33.12 7.92V22.2H12.6V7.92C12.6 5.7 13.98 4.8 16.38 4.56L17.46 4.44V3H2.04V4.44L3.12 4.56C5.52 4.8 6.9 5.7 6.9 7.92V40.08C6.9 42.3 5.58 43.08 3.12 43.38L2.04 43.56V45H17.46V43.56L16.38 43.38C13.92 43.08 12.6 42.3 12.6 40.08V24.24H33.12V40.08C33.12 42.3 31.8 43.08 29.34 43.38L28.26 43.56V45H43.68V43.56L42.6 43.38C40.14 43.08 38.82 42.3 38.82 40.08V7.92ZM67.8309 36.42C65.4309 39.72 62.9709 41.16 59.4309 41.16C53.6709 41.16 49.3509 36.9 49.3509 28.08V28.02H68.2509C68.3109 27.6 68.3109 27.12 68.3109 26.52C68.3109 20.76 64.2909 15.36 57.1509 15.36C50.6709 15.36 44.4909 21.78 44.4909 31.14C44.4909 39.78 49.7709 45.72 57.1509 45.72C62.0109 45.72 66.2109 42.84 68.7909 37.02L67.8309 36.42ZM49.4709 26.1C50.0109 20.52 53.0109 17.1 56.6709 17.1C60.4509 17.1 62.6709 20.58 62.9709 26.1H49.4709ZM97.4658 42.12C96.8658 42.36 96.2658 42.48 95.7258 42.48C93.8658 42.48 93.1458 41.58 93.1458 39.48V23.64C93.1458 18.78 89.9058 15.24 82.9458 15.24C76.8858 15.24 72.8658 18.84 72.0258 21.96C72.5658 22.92 73.9458 23.7 75.4458 23.7C76.7058 23.7 77.5458 23.22 78.0858 21.48C79.2858 17.82 80.0058 16.74 82.5858 16.74C86.0658 16.74 87.8058 19.08 87.8058 23.7V27.6L79.5258 30.18C73.7658 32.04 71.3658 33.96 71.3658 37.86C71.3658 40.08 72.1458 41.88 73.7058 43.38C75.2658 44.88 77.1258 45.6 79.3458 45.6C82.7058 45.6 86.0058 43.62 87.8658 41.04C88.1058 43.62 89.4258 45.42 92.3058 45.42C94.0458 45.42 96.0858 44.58 97.4658 42.96V42.12ZM87.8058 39.72C86.6058 41.22 84.3858 42.42 82.1658 42.42C78.6258 42.42 76.5858 39.66 76.5858 36.54C76.5858 33.96 77.6658 32.82 81.0258 31.68L87.8058 29.4V39.72ZM127.687 42.84C124.627 42.42 123.907 41.58 123.907 38.7V0.779997H123.427L114.667 3.42V4.44C117.727 5.1 118.507 5.88 118.507 8.1V16.26C117.067 15.72 115.327 15.42 113.287 15.42C104.347 15.42 98.2266 21.96 98.2266 31.26C98.2266 40.02 103.267 45.6 110.047 45.6C114.067 45.6 117.247 43.62 118.747 41.28C118.987 42.72 119.407 44.1 120.067 45.42L127.687 43.98V42.84ZM118.627 40.08C117.067 41.7 115.147 42.54 112.927 42.54C107.467 42.54 104.107 38.1 104.107 30.24C104.107 21.6 107.287 17.22 112.747 17.22C115.267 17.22 117.187 18.18 118.507 20.04V36.96C118.507 37.86 118.567 38.88 118.627 40.08ZM129.003 45H142.083V43.68L141.003 43.56C138.903 43.32 138.243 42.6 138.243 40.26V0.779997H137.823L129.003 3.42V4.44C132.123 5.1 132.843 5.76 132.843 8.1V40.26C132.843 42.6 132.183 43.32 130.083 43.56L129.003 43.68V45ZM143.629 45H156.709V43.68L155.629 43.56C153.529 43.32 152.869 42.6 152.869 40.26V15.42H152.449L143.629 18V19.08C146.749 19.62 147.469 20.4 147.469 22.74V40.26C147.469 42.6 146.809 43.32 144.709 43.56L143.629 43.68V45ZM146.509 7.32C146.509 9.06 148.129 10.68 149.989 10.68C151.849 10.68 153.469 9.06 153.469 7.32C153.469 5.46 151.909 3.9 149.989 3.9C148.129 3.9 146.509 5.46 146.509 7.32ZM188.19 43.56C186.09 43.32 185.43 42.6 185.43 40.26V23.52C185.43 21.3 184.71 19.32 183.33 17.7C181.95 16.08 179.79 15.24 176.97 15.24C172.95 15.24 169.35 17.52 167.37 20.34V15.42H166.89L158.25 18V19.08C161.37 19.62 162.09 20.34 162.09 22.68V40.26C162.09 42.6 161.43 43.32 159.33 43.56L158.25 43.68V45H171.33V43.68L170.25 43.56C168.15 43.32 167.49 42.6 167.49 40.26V21.54C169.23 19.68 171.69 18.54 174.33 18.54C177.99 18.54 180.03 20.88 180.03 25.02V40.26C180.03 42.6 179.37 43.32 177.27 43.56L176.19 43.68V45H189.21V43.68L188.19 43.56ZM213.736 36.42C211.336 39.72 208.876 41.16 205.336 41.16C199.576 41.16 195.256 36.9 195.256 28.08V28.02H214.156C214.216 27.6 214.216 27.12 214.216 26.52C214.216 20.76 210.196 15.36 203.056 15.36C196.576 15.36 190.396 21.78 190.396 31.14C190.396 39.78 195.676 45.72 203.056 45.72C207.916 45.72 212.116 42.84 214.696 37.02L213.736 36.42ZM195.376 26.1C195.916 20.52 198.916 17.1 202.576 17.1C206.356 17.1 208.576 20.58 208.876 26.1H195.376ZM230.963 38.82C230.963 43.32 233.423 45.6 237.563 45.6C240.023 45.6 242.663 44.52 244.643 42.42V41.22C243.383 41.88 242.003 42.18 240.563 42.18C237.683 42.18 236.363 40.68 236.363 37.62V18.48H243.383L243.983 16.08H236.363V8.64H234.743C233.123 13.26 230.363 16.14 226.523 17.22V18.48H230.963V38.82ZM268.027 36.42C265.627 39.72 263.167 41.16 259.627 41.16C253.867 41.16 249.547 36.9 249.547 28.08V28.02H268.447C268.507 27.6 268.507 27.12 268.507 26.52C268.507 20.76 264.487 15.36 257.347 15.36C250.867 15.36 244.687 21.78 244.687 31.14C244.687 39.78 249.967 45.72 257.347 45.72C262.207 45.72 266.407 42.84 268.987 37.02L268.027 36.42ZM249.667 26.1C250.207 20.52 253.207 17.1 256.867 17.1C260.647 17.1 262.867 20.58 263.167 26.1H249.667ZM297.566 43.68C295.646 43.44 294.506 42.54 291.866 38.76L285.326 29.22L290.726 21.78C292.706 18.9 294.266 17.82 296.846 17.34V16.08H286.406V17.34L287.606 17.52C288.866 17.7 289.466 18.18 289.466 18.96C289.466 19.5 289.106 20.28 288.446 21.3L284.006 27.78L279.566 21.3C278.786 20.16 278.426 19.32 278.426 18.84C278.426 18.18 279.026 17.76 280.286 17.52L281.486 17.34V16.08H269.006V17.34C269.906 17.52 270.626 17.88 271.286 18.48C271.946 19.02 272.906 20.28 274.286 22.26L280.226 30.84L274.346 39.3C272.366 42.18 270.566 43.26 268.646 43.68V45H279.446V43.68L278.306 43.5C276.626 43.32 275.786 42.72 275.786 41.82C275.786 41.22 276.086 40.5 276.626 39.72L281.606 32.4L286.586 39.72C287.366 40.86 287.786 41.76 287.786 42.36C287.786 43.02 287.246 43.38 286.166 43.5L284.906 43.68V45H297.566V43.68ZM302.363 38.82C302.363 43.32 304.823 45.6 308.963 45.6C311.423 45.6 314.063 44.52 316.043 42.42V41.22C314.783 41.88 313.403 42.18 311.963 42.18C309.083 42.18 307.763 40.68 307.763 37.62V18.48H314.783L315.383 16.08H307.763V8.64H306.143C304.523 13.26 301.763 16.14 297.923 17.22V18.48H302.363V38.82Z" fill="black"/>
</svg>
