<svg width="302" height="89" viewBox="0 0 302 89" fill="none" xmlns="http://www.w3.org/2000/svg">
<path fill-rule="evenodd" clip-rule="evenodd" d="M33.5994 23.875L48.4264 39.6904L45.5082 42.4262L35.5996 31.857V55.1993H31.5996V31.8566L21.6906 42.4262L18.7725 39.6904L33.5994 23.875ZM17.1997 49.5986V59.9986H50.7997V49.5986H54.7997V63.9986H13.1997V49.5986H17.1997Z" fill="black"/>
<path fill-rule="evenodd" clip-rule="evenodd" d="M99.7847 24.3984V51.4334L110.55 40.2372L113.434 43.0096L97.7852 59.2839L82.1368 43.0096L85.0201 40.2372L95.7847 51.4323V24.3984H99.7847ZM115.17 59.7317H80.4004V63.7317H115.17V59.7317Z" fill="black"/>
<path fill-rule="evenodd" clip-rule="evenodd" d="M139.6 24H170V63.2H163.448L154.8 54.7877L146.152 63.2H139.6V24ZM143.6 28V59.2H144.528L154.8 49.2072L165.072 59.2H166V28H143.6Z" fill="black"/>
<path fill-rule="evenodd" clip-rule="evenodd" d="M196.8 28.2214H233.6V24.2214H196.8V28.2214ZM224.162 37.4664L215.201 28.5046L206.239 37.4664L209.067 40.2948L215.201 34.1615L221.334 40.2948L224.162 37.4664ZM209.067 46.9031L215.201 53.0364L221.334 46.9031L224.162 49.7315L215.201 58.6933L206.239 49.7315L209.067 46.9031ZM196.8 62.9775H233.6V58.9775H196.8V62.9775Z" fill="black"/>
<path fill-rule="evenodd" clip-rule="evenodd" d="M271.195 64.3035H255.46V48.5688H259.46V57.476L270.466 46.4709L273.294 49.2993L262.29 60.3035H271.195V64.3035ZM291.104 31.4886L280.099 42.4937L277.271 39.6653L288.276 28.6602H279.37V24.6602H295.104V40.3948H291.104V31.4886Z" fill="black"/>
<path fill-rule="evenodd" clip-rule="evenodd" d="M301.169 24.5H0V23.5H301.169V24.5Z" fill="#EAE8E1"/>
<path fill-rule="evenodd" clip-rule="evenodd" d="M301.169 64.5H0V63.5H301.169V64.5Z" fill="#EAE8E1"/>
</svg>
