<svg width="256" height="111" viewBox="0 0 256 111" fill="none" xmlns="http://www.w3.org/2000/svg">
<path fill-rule="evenodd" clip-rule="evenodd" d="M34.801 9.39722L60.0008 36.277L55.2029 40.775L38.0893 22.5205V62.708H31.5127V22.5204L14.3991 40.775L9.60118 36.277L34.801 9.39722ZM6.5766 57.5013V79.4233H64.3959V57.5013H70.9725V85.9999H0V57.5013H6.5766Z" fill="black"/>
<path fill-rule="evenodd" clip-rule="evenodd" d="M185.724 63.0213L196.457 52.8159L188.975 45.3336L166.204 56.3029L185.71 63.0342C185.715 63.0299 185.719 63.0256 185.724 63.0213ZM184.975 67.8788L153.567 57.0407L185.364 41.7231L147 3.35896L148.076 2.28255L186.817 41.0232L236.176 17.2457L235.878 18.7621L254.64 0L255.717 1.0764L235.351 21.4418L224.158 78.3646L255.717 109.923L254.64 110.999L223.805 80.1637L223.6 81.2073L205.474 74.9525L188.915 88.5689C188.195 89.161 187.198 89.2847 186.355 88.8865C185.512 88.4884 184.975 87.6398 184.975 86.7076V71.8185L148.076 108.717L147 107.64L184.975 69.6657V67.8788ZM200.129 73.108L189.794 81.606V69.5419L200.129 73.108ZM217.721 74.0803L191.694 65.099L200.217 56.576L217.721 74.0803ZM220.054 74.2598L229.057 28.4689L214.142 42.6508L201.293 55.4996L220.054 74.2598ZM220.091 30.3443L197.56 51.7666L190.428 44.6337L220.091 30.3443Z" fill="black"/>
</svg>
