<svg width="265" height="101" viewBox="0 0 265 101" fill="none" xmlns="http://www.w3.org/2000/svg">
<path fill-rule="evenodd" clip-rule="evenodd" d="M0 10H3.03605H35.9841H37.773L38.6399 11.5688L42.2175 18.0433H76.9639H80V21.0868V83.2231V86.2667H76.9639H3.03605H0V83.2231V13.0436V10ZM6.07211 16.0871V80.1795H73.9279V24.1304H40.4285H38.6395L37.7727 22.5616L34.1951 16.0871H6.07211ZM42.2517 40.5033V43.5469V50.9867H49.6732H52.7093V57.0738H49.6732H42.2517V64.5136V67.5572H36.1796V64.5136V57.0738H28.7582H25.7221V50.9867H28.7582H36.1796V43.5469V40.5033H42.2517Z" fill="black"/>
<path fill-rule="evenodd" clip-rule="evenodd" d="M183.967 79.4214L164 99.3887L165.414 100.803L186.796 79.4214H213.62V76.1157H190.101L231.471 34.7461V55.6199H234.777V31.4402L238.083 28.1345V56.9421H241.388V24.8286L244.694 21.5229V60.9092H248V18.217L264.409 1.80786L262.995 0.393799L247.565 15.8242C247.262 15.4954 246.829 15.2893 246.347 15.2893H208.58L203.146 10.9424C202.384 10.3337 201.438 10.0015 200.463 10H185.521C183.147 10 181.223 11.9241 181.223 14.2976V21.9009H176.264C175.352 21.9009 174.612 22.6409 174.612 23.5537V28.5125H169.653C168.74 28.5125 168 29.2524 168 30.1653V71.1575C168.005 75.7197 171.702 79.417 176.264 79.4214H183.967ZM187.273 76.1157H176.264C173.526 76.1157 171.306 73.8955 171.306 71.157V31.8181H231.471V31.9177L187.273 76.1157ZM234.341 29.0474L238.083 25.3062V25.2065H177.917V28.5125H233.124C233.606 28.5125 234.039 28.7185 234.341 29.0474ZM240.953 22.4358L244.694 18.6946V18.595H208C207.626 18.5945 207.262 18.4668 206.97 18.2332L201.083 13.5229C200.907 13.3823 200.688 13.3057 200.463 13.3057H185.521C184.973 13.3057 184.529 13.7498 184.529 14.2976V21.9009H239.736C240.217 21.9009 240.651 22.1069 240.953 22.4358ZM186.512 15.2891H189.818V18.5947H186.512V15.2891ZM191.802 15.2891H195.108V18.5947H191.802V15.2891ZM197.091 15.2891H200.397V18.5947H197.091V15.2891ZM215.603 73.801C215.603 64.855 222.855 57.6028 231.802 57.6028C240.744 57.6125 247.99 64.8589 248 73.801C248 82.7473 240.747 89.9995 231.801 89.9995C222.855 89.9995 215.603 82.7473 215.603 73.801ZM231.801 60.9084C224.681 60.9084 218.909 66.6807 218.909 73.801C218.909 80.9214 224.681 86.6936 231.801 86.6936C238.918 86.6858 244.686 80.918 244.694 73.8008C244.694 66.6807 238.922 60.9084 231.801 60.9084ZM230.149 65.5378H233.454V72.1494H240.066V75.4551H233.454V82.0667H230.149V75.4551H223.537V72.1494H230.149V65.5378ZM173.289 33.802H176.595V37.1077H173.289V33.802ZM173.289 39.0911H176.595V47.686H173.289V39.0911Z" fill="black"/>
</svg>
