<svg width="274" height="162" viewBox="0 0 274 162" fill="none" xmlns="http://www.w3.org/2000/svg">
<rect x="0.5" y="0.5" width="273" height="161" fill="white" stroke="#EAE8E1"/>
<path d="M225.011 56.1798C225.011 60.6974 221.427 64.3597 217.006 64.3597C212.584 64.3597 209 60.6974 209 56.1798C209 51.6622 212.584 48 217.006 48C221.427 48 225.011 51.6622 225.011 56.1798Z" fill="#EAE8E1"/>
<path fill-rule="evenodd" clip-rule="evenodd" d="M217.006 48.5C212.87 48.5 209.5 51.9282 209.5 56.1798C209.5 60.4315 212.87 63.8597 217.006 63.8597C221.141 63.8597 224.511 60.4315 224.511 56.1798C224.511 51.9282 221.141 48.5 217.006 48.5ZM208.5 56.1798C208.5 51.3963 212.298 47.5 217.006 47.5C221.713 47.5 225.511 51.3963 225.511 56.1798C225.511 60.9634 221.713 64.8597 217.006 64.8597C212.298 64.8597 208.5 60.9634 208.5 56.1798Z" fill="#81807E"/>
<ellipse cx="217.005" cy="56.1798" rx="4.00278" ry="4.08994" fill="#81807E"/>
<path fill-rule="evenodd" clip-rule="evenodd" d="M129.5 56.1798C129.5 51.9278 132.868 48.5 137 48.5C141.132 48.5 144.5 51.9278 144.5 56.1798C144.5 60.4318 141.132 63.8597 137 63.8597C132.868 63.8597 129.5 60.4318 129.5 56.1798ZM137 47.5C132.295 47.5 128.5 51.3966 128.5 56.1798C128.5 60.963 132.295 64.8597 137 64.8597C141.705 64.8597 145.5 60.963 145.5 56.1798C145.5 51.3966 141.705 47.5 137 47.5ZM137.005 60.2697C139.216 60.2697 141.008 58.4386 141.008 56.1798C141.008 53.921 139.216 52.0898 137.005 52.0898C134.795 52.0898 133.002 53.921 133.002 56.1798C133.002 58.4386 134.795 60.2697 137.005 60.2697Z" fill="black"/>
<path fill-rule="evenodd" clip-rule="evenodd" d="M177 49C173.155 49 170 52.1934 170 56.1798C170 60.1662 173.155 63.3597 177 63.3597C180.845 63.3597 184 60.1662 184 56.1798C184 52.1934 180.845 49 177 49ZM168 56.1798C168 51.131 172.009 47 177 47C181.991 47 186 51.131 186 56.1798C186 61.2287 181.991 65.3597 177 65.3597C172.009 65.3597 168 61.2287 168 56.1798Z" fill="#0BA2C0"/>
<ellipse cx="177.005" cy="56.1798" rx="4.00278" ry="4.08994" fill="black"/>
<path fill-rule="evenodd" clip-rule="evenodd" d="M171 96.1475H183C185.209 96.1475 187 97.9383 187 100.147V112.147C187 114.357 185.209 116.147 183 116.147H171C168.791 116.147 167 114.357 167 112.147V100.147C167 97.9383 168.791 96.1475 171 96.1475ZM171 98.1475C169.895 98.1475 169 99.0429 169 100.147V112.147C169 113.252 169.895 114.147 171 114.147H183C184.105 114.147 185 113.252 185 112.147V100.147C185 99.0429 184.105 98.1475 183 98.1475H171Z" fill="#0BA2C0"/>
<path fill-rule="evenodd" clip-rule="evenodd" d="M171 98.1475C169.895 98.1475 169 99.0429 169 100.147V112.147C169 113.252 169.895 114.147 171 114.147H183C184.105 114.147 185 113.252 185 112.147V100.147C185 99.0429 184.105 98.1475 183 98.1475H171ZM180.306 102.479L175.819 106.906L173.694 104.809L172.306 106.28L175.819 109.748L181.694 103.95L180.306 102.479Z" fill="black"/>
<path fill-rule="evenodd" clip-rule="evenodd" d="M131 98.1475C129.895 98.1475 129 99.0429 129 100.147V112.147C129 113.252 129.895 114.147 131 114.147H143C144.105 114.147 145 113.252 145 112.147V100.147C145 99.0429 144.105 98.1475 143 98.1475H131ZM140.306 102.479L135.819 106.906L133.694 104.809L132.306 106.28L135.819 109.748L141.694 103.95L140.306 102.479Z" fill="black"/>
<path d="M209 100.147C209 99.0429 209.895 98.1475 211 98.1475H223C224.105 98.1475 225 99.0429 225 100.147V112.147C225 113.252 224.105 114.147 223 114.147H211C209.895 114.147 209 113.252 209 112.147V100.147Z" fill="#EAE8E1"/>
<path fill-rule="evenodd" clip-rule="evenodd" d="M223 99.1475H211C210.448 99.1475 210 99.5952 210 100.147V112.147C210 112.7 210.448 113.147 211 113.147H223C223.552 113.147 224 112.7 224 112.147V100.147C224 99.5952 223.552 99.1475 223 99.1475ZM211 98.1475C209.895 98.1475 209 99.0429 209 100.147V112.147C209 113.252 209.895 114.147 211 114.147H223C224.105 114.147 225 113.252 225 112.147V100.147C225 99.0429 224.105 98.1475 223 98.1475H211Z" fill="#81807E"/>
<path fill-rule="evenodd" clip-rule="evenodd" d="M215.819 106.906L220.306 102.479L221.694 103.95L215.819 109.748L212.306 106.28L213.694 104.809L215.819 106.906Z" fill="#81807E"/>
<path fill-rule="evenodd" clip-rule="evenodd" d="M90 56.1798C90 52.1934 93.1548 49 97 49C100.845 49 104 52.1934 104 56.1798C104 60.1662 100.845 63.3597 97 63.3597C93.1548 63.3597 90 60.1662 90 56.1798ZM97 47C92.0086 47 88 51.131 88 56.1798C88 61.2287 92.0086 65.3597 97 65.3597C101.991 65.3597 106 61.2287 106 56.1798C106 51.131 101.991 47 97 47ZM91 112.147V100.147H103V112.147H91ZM89 100.147C89 99.0429 89.8954 98.1475 91 98.1475H103C104.105 98.1475 105 99.0429 105 100.147V112.147C105 113.252 104.105 114.147 103 114.147H91C89.8954 114.147 89 113.252 89 112.147V100.147Z" fill="#990000"/>
<path fill-rule="evenodd" clip-rule="evenodd" d="M49.5 56.1798C49.5 51.9278 52.8683 48.5 57 48.5C61.1317 48.5 64.5 51.9278 64.5 56.1798C64.5 60.4318 61.1317 63.8597 57 63.8597C52.8683 63.8597 49.5 60.4318 49.5 56.1798ZM57 47.5C52.2952 47.5 48.5 51.3966 48.5 56.1798C48.5 60.963 52.2952 64.8597 57 64.8597C61.7048 64.8597 65.5 60.963 65.5 56.1798C65.5 51.3966 61.7048 47.5 57 47.5ZM50 100.147C50 99.5952 50.4477 99.1475 51 99.1475H63C63.5523 99.1475 64 99.5952 64 100.147V112.147C64 112.7 63.5523 113.147 63 113.147H51C50.4477 113.147 50 112.7 50 112.147V100.147ZM49 100.147C49 99.0429 49.8954 98.1475 51 98.1475H63C64.1046 98.1475 65 99.0429 65 100.147V112.147C65 113.252 64.1046 114.147 63 114.147H51C49.8954 114.147 49 113.252 49 112.147V100.147Z" fill="#81807E"/>
</svg>
