<svg width="72" height="100" viewBox="0 0 72 100" fill="none" xmlns="http://www.w3.org/2000/svg">
<g clip-path="url(#clip0)">
<path d="M17.8465 88.7194C16.076 87.4869 14.4073 86.317 14.4073 84.0191C14.4073 82.6613 15.1806 81.2199 17.3581 81.2199C19.2303 81.2199 20.4106 82.2226 20.7769 84.1027C20.7769 84.1445 20.8176 84.1863 20.8583 84.1863H21.0007C21.0211 84.1863 21.0414 84.1863 21.0618 84.1654C21.0821 84.1445 21.0821 84.1236 21.0821 84.1027C21.0618 83.7267 21.0618 83.0791 21.0618 82.7031C21.0618 82.0555 21.0821 81.5959 21.1432 81.011C21.1432 80.9901 21.1432 80.9483 21.1228 80.9274C21.1025 80.9065 21.0821 80.9065 21.0414 80.9065C20.899 80.9274 20.7769 80.9274 20.6344 80.9274C20.2071 80.9274 19.7797 80.8439 19.332 80.7603C18.7622 80.6559 18.1314 80.5305 17.3174 80.5305C14.5498 80.5305 12.5962 82.4524 12.5962 85.2099C12.5962 88.1136 14.5905 89.4923 16.5034 90.8501C18.3552 92.1453 20.085 93.3569 20.085 95.822C20.085 98.1407 18.4163 99.1852 16.7679 99.1852C14.855 99.1852 12.9421 98.099 12.9421 96.0517C12.9421 95.8846 12.9625 95.6966 12.9828 95.5086V95.425C12.9828 95.4042 12.9828 95.3624 12.9625 95.3624C12.9421 95.3415 12.9218 95.3415 12.9014 95.3415H12.82C12.7793 95.3415 12.759 95.3624 12.7386 95.4042C12.4537 96.0517 12.4333 96.8247 12.4333 97.0545C12.4333 97.3887 12.4741 97.702 12.4944 97.9945C12.5351 98.287 12.5555 98.5376 12.5555 98.8301C12.5555 99.0599 12.5554 99.3524 12.5351 99.4777C12.5351 99.4986 12.5351 99.5404 12.5555 99.5613C12.5758 99.5821 12.5961 99.5821 12.6368 99.5821C12.7793 99.5613 12.8404 99.5613 13.0032 99.5613C13.5526 99.5613 14.0003 99.6657 14.4684 99.7702C15.0382 99.8955 15.6894 100.042 16.6051 100.042C19.7187 100.042 21.8961 97.8692 21.8961 94.7357C21.8758 91.5395 19.8204 90.119 17.8465 88.7194Z" fill="white"/>
<path d="M52.747 90.4534C52.747 95.843 50.1422 99.1854 45.9501 99.1854C41.7987 99.1854 39.3363 95.8639 39.3363 90.2863C39.3363 86.1292 41.0661 81.2619 45.9501 81.2619C49.1043 81.2619 52.747 83.6642 52.747 90.4534ZM46.1739 80.5098C40.3131 80.5098 36.8333 85.5234 36.8333 90.3699C36.8333 95.091 40.2521 99.9584 45.9704 99.9584C51.18 99.9584 55.2704 95.7177 55.2704 90.2863C55.25 84.8132 51.2614 80.5098 46.1739 80.5098Z" fill="white"/>
<path d="M66.2386 86.2543C66.2386 88.1136 65.7502 90.5995 61.5988 90.5995H60.4389V81.575C61.1715 81.3661 61.6598 81.3243 62.2296 81.3243C64.6513 81.3452 66.2386 83.2671 66.2386 86.2543ZM71.3668 99.6239C69.8609 99.1016 68.1108 95.8846 66.8287 93.5449C66.0961 92.208 65.5263 91.1426 65.099 90.7248C67.2764 89.8474 68.5788 88.0718 68.5788 85.9201C68.5788 82.6613 66.1368 80.5514 62.3517 80.5514C62.0872 80.5514 61.6599 80.5723 61.1918 80.5723C60.6627 80.5932 60.0726 80.5932 59.6452 80.5932C58.5056 80.5932 58.0376 80.5932 57.1625 80.5305C57.1422 80.5305 57.1218 80.5305 57.1015 80.5514C57.0811 80.5723 57.0811 80.5932 57.0811 80.6141V80.7394C57.0811 80.7812 57.1218 80.823 57.1625 80.823C58.0376 80.9692 58.3428 81.3243 58.3428 83.1418V97.3469C58.3428 99.4568 58.0172 99.5194 57.1218 99.6657C57.0811 99.6657 57.0404 99.7074 57.0404 99.7492V99.8746C57.0404 99.8955 57.0404 99.9163 57.0608 99.9372C57.0811 99.9581 57.1015 99.9581 57.1218 99.9581C57.6509 99.9372 58.3835 99.8955 59.3807 99.8955C60.4388 99.8955 61.3139 99.9372 61.6395 99.9581C61.6598 99.9581 61.6802 99.9581 61.7006 99.9372C61.7209 99.9163 61.7209 99.8955 61.7209 99.8746V99.7492C61.7209 99.7074 61.6802 99.6657 61.6395 99.6657C60.7441 99.5194 60.4185 99.4568 60.4185 97.3469V91.3515H61.9855C62.2703 91.3515 62.6366 91.3097 63.0436 91.247C63.4913 91.6857 64.0204 92.7093 64.346 93.336C64.4071 93.4614 64.4681 93.5867 64.5292 93.6703C67.5817 99.5403 67.9073 99.8955 70.6545 99.9999C70.9598 99.9999 71.0819 99.9999 71.3057 99.979C71.3464 99.979 71.3871 99.9372 71.3871 99.8955V99.7283C71.4278 99.6866 71.4075 99.6448 71.3668 99.6239Z" fill="white"/>
<path d="M37.0162 80.5094C36.9958 80.4885 36.9755 80.4677 36.9348 80.4677C35.7138 80.4885 29.2832 80.593 23.5241 80.4677C23.4834 80.4677 23.4427 80.4885 23.4427 80.5303C23.3206 81.0108 23.2189 81.4286 23.0968 81.8255C22.9543 82.3269 22.8322 82.7864 22.7305 83.2669C22.7305 83.2878 22.7305 83.3296 22.7508 83.3505C22.7712 83.3713 22.7915 83.3922 22.8119 83.3922H22.934C22.9747 83.3922 22.995 83.3713 23.0154 83.3296C23.7683 81.7002 24.969 81.6793 28.9169 81.6793V97.3049C28.9169 99.4148 28.5913 99.4775 27.6959 99.6237C27.6552 99.6237 27.6145 99.6655 27.6145 99.7073V99.8326C27.6145 99.8535 27.6145 99.8744 27.6348 99.8953C27.6552 99.9162 27.6755 99.9162 27.6959 99.9162C28.2046 99.8953 28.9372 99.8535 29.9344 99.8535C30.9926 99.8535 31.8473 99.8953 32.1729 99.9162C32.1932 99.9162 32.2136 99.9162 32.2339 99.8953C32.2543 99.8744 32.2543 99.8535 32.2543 99.8326V99.7073C32.2543 99.6655 32.2136 99.6237 32.1729 99.6237C31.2978 99.4775 30.9519 99.4148 30.9519 97.3049V81.6793C35.4899 81.6793 36.1004 81.8673 36.1004 82.5775C36.1004 82.7029 36.0801 82.87 36.0597 82.9535C36.0597 82.9744 36.0597 83.0162 36.0801 83.0371C36.1004 83.058 36.1208 83.0789 36.1411 83.0789H36.3039C36.3446 83.0789 36.3853 83.0371 36.3853 82.9953C36.4667 82.5775 36.7516 81.3032 36.9755 80.593C37.0365 80.5721 37.0365 80.5303 37.0162 80.5094Z" fill="white"/>
<path d="M10.2559 80.489C9.74712 80.5099 8.74997 80.5308 7.89527 80.5308C6.97952 80.5308 5.96202 80.5099 5.43292 80.489C5.41257 80.489 5.39222 80.489 5.37187 80.5099C5.35152 80.5308 5.35152 80.5517 5.35152 80.5726V80.6979C5.35152 80.7397 5.39222 80.7815 5.43292 80.7815C6.32832 80.9277 6.91847 81.0322 6.91847 83.0167V94.5688C6.91847 96.7414 5.90097 99.1019 4.27296 99.1019C3.96771 99.1019 3.68281 99.081 3.41826 99.0393C2.27866 98.7468 1.56641 97.9321 1.13906 97.3472C1.07801 97.2636 1.01696 97.1801 0.976262 97.0965C0.508212 96.3654 0.284361 95.7387 0.284361 95.7178C0.264011 95.6551 0.202961 95.6342 0.141911 95.6342C0.0808612 95.6551 0.0401611 95.6969 0.0401611 95.7804L0.426811 98.8095C0.426811 98.8513 0.447162 98.893 0.487862 98.9139C1.56641 99.6242 2.88916 99.8331 3.13336 99.854C3.56071 99.9166 3.90666 99.9375 4.11017 99.9375C4.27297 99.9375 4.37472 99.9375 4.37472 99.9375C7.10162 99.9375 8.93312 97.6605 8.93312 94.2764V83.0167C8.93312 81.0739 9.38082 80.9904 10.2762 80.7815L10.3169 80.7606C10.3576 80.7606 10.378 80.7188 10.378 80.677V80.5517C10.378 80.5308 10.378 80.5099 10.3576 80.489C10.2966 80.489 10.2762 80.489 10.2559 80.489Z" fill="white"/>
<path d="M66.3612 31.6482C65.7507 32.066 65.0995 32.1287 65.0792 32.1287C65.0588 32.1287 65.0385 32.1496 65.0385 32.1705C65.0385 32.1913 65.0385 32.2122 65.0588 32.2331C65.0792 32.254 66.7275 33.7163 66.8903 35.7008C67.0735 37.7272 66.7682 38.8552 65.7711 39.8162C64.9774 40.5891 63.8175 40.6935 63.3901 40.5891C63.2884 40.5682 63.268 40.5473 63.268 40.5264C63.207 40.2757 63.5733 40.0042 64.021 39.6908C64.1227 39.6282 64.2245 39.5446 64.3262 39.4819C64.896 39.0641 65.2013 38.3748 65.0181 37.9987C64.9571 37.8734 64.8553 37.8525 64.7332 37.8525C64.6315 37.8525 64.5297 37.8943 64.4076 37.9361C64.1838 37.9987 63.9396 38.0823 63.8175 37.9361C63.675 37.7898 63.736 37.6645 63.8582 37.4138C63.9599 37.2049 64.082 36.9542 64.1024 36.5991C64.1634 35.8262 64.0617 33.7999 63.0035 33.5701C62.9628 33.5701 62.9221 33.5701 62.8814 33.591C62.7796 33.6745 62.7796 33.9252 62.7796 34.3221C62.7796 34.8444 62.7593 35.5337 62.4744 35.9933C62.0267 36.7036 61.3144 37.2467 60.9888 37.2467C60.9074 37.2467 60.8667 37.2258 60.826 37.184C60.7853 37.1214 60.8057 36.9542 60.8667 36.7036C60.9888 36.1186 61.1923 35.0324 60.8871 33.0061C60.7853 32.2958 60.358 31.5229 59.9713 30.7917C59.5847 30.0815 59.2183 29.3921 59.137 28.8072C58.9945 27.7209 59.1166 27.2613 59.7067 26.8018C60.0527 26.5302 60.1138 26.2795 60.1138 26.1124C60.1138 25.9453 60.0324 25.6319 59.7475 25.5275C59.7271 25.5275 59.7271 25.5275 59.7067 25.5066C59.5643 25.4648 59.3201 25.4439 59.0556 25.4439C57.9363 25.4648 55.3111 25.4857 53.4593 22.8953C51.9534 20.8063 51.8516 18.8427 52.1365 16.5239V16.503C52.1365 16.4612 51.9737 15.6048 51.2615 14.9363C50.9155 14.6229 50.5696 14.4349 50.3254 14.3096C50.1829 14.226 50.0201 14.1634 50.0201 14.1007C50.0201 14.1007 50.0201 14.0589 50.0608 14.038C50.244 13.85 50.8748 13.5784 51.7499 13.7038C52.4011 13.8082 52.8691 14.0798 52.8691 14.0798C52.8895 14.1007 52.9098 14.0798 52.9302 14.0589C52.9505 14.038 54.6599 11.9699 57.5089 12.1997C59.2183 12.325 60.8464 14.038 60.8871 15.8972C60.9278 17.7564 60.0934 18.7382 59.3608 18.9889C58.7707 19.1978 58.2212 19.1769 57.8956 18.9471C57.7531 18.8427 57.6514 18.6965 57.6514 18.5293C57.6514 18.3831 57.7735 18.2996 58.0177 18.1742C58.4247 17.9653 59.0555 17.6311 59.137 16.4612C59.1777 15.8554 58.9741 15.2496 58.5875 14.8318C58.3229 14.5394 57.8549 14.1842 57.0816 14.226C56.0844 14.2678 55.2704 14.6647 54.721 15.3959C54.0291 16.315 53.7849 17.7564 54.0494 19.4067C54.4361 21.8091 56.6949 23.4803 59.1776 23.2087C60.6428 23.0625 62.0063 22.206 63.0442 20.8272C64.021 19.5321 64.5908 17.8609 64.6111 16.2523C64.6518 12.2415 62.393 8.10528 57.2241 7.89638C52.279 7.70838 49.2061 10.8628 47.802 12.7428C46.9269 13.9127 46.0112 16.1479 45.3396 17.9653C45.6449 17.9027 46.6013 17.7773 47.456 18.216C48.3311 18.6547 49.3486 19.741 49.1654 20.2005C49.1247 20.3259 48.8602 20.2632 48.4735 20.1588C47.9648 20.0125 47.2525 20.0543 46.4589 20.1796C45.0954 20.3677 44.546 20.6392 44.3832 20.7855L44.4646 20.5348C44.4239 20.681 44.3832 20.7855 44.3832 20.7855L42.5313 19.6156C42.7959 18.4249 43.9762 13.4322 46.9269 10.1525C49.9591 6.78922 53.6017 5.68205 56.8171 5.66116C58.5672 5.64028 60.1748 5.91184 61.4976 6.22519C61.6604 6.26697 61.8028 6.28786 61.9453 6.32964C63.207 6.6221 64.5297 6.89367 65.4658 6.64299C65.9746 6.51765 66.4019 6.30875 66.7275 6.14163C66.931 6.03718 67.1345 5.93273 67.1752 5.95362C67.1752 5.95362 67.1956 5.97451 67.1956 5.9954C67.2363 6.2043 67.0531 6.87278 66.463 7.68749C66.0967 8.20973 65.6286 8.50219 65.303 8.73198C64.9978 8.91999 64.7943 9.06622 64.7943 9.27512C64.7943 9.37957 64.896 9.56758 65.0792 9.90182C65.649 10.9463 66.8293 13.1398 66.6868 16.2315C66.463 20.9735 64.2652 22.9998 62.8 24.3576L62.6168 24.5247H62.5965C61.6197 25.6737 61.7417 26.7391 62.0266 27.4076C62.454 28.4312 63.3901 29.2876 64.5908 29.7263C65.2827 29.977 66.0356 30.0606 66.5851 30.1232C66.9921 30.165 67.3991 30.2068 67.4398 30.3113C67.5822 30.6455 67.1956 31.1051 66.3612 31.6482ZM66.5444 48.0468C66.0967 50.7416 64.6111 51.8905 63.3494 52.0576C63.2477 52.0785 63.1459 52.0785 63.0645 52.0785C62.6982 52.0785 62.4133 51.9741 62.3319 51.807C62.3116 51.7443 62.2912 51.6816 62.3116 51.619C62.3523 51.5145 62.4947 51.4518 62.6982 51.3892C62.9424 51.3056 63.2884 51.1594 63.6547 50.8669C64.7332 49.9895 64.6722 49.6135 64.6315 49.3211C64.6315 49.2793 64.6111 49.2584 64.5908 49.2584C64.5297 49.2166 64.3669 49.3002 64.1838 49.4046L64.1024 49.4464C63.8582 49.5717 63.6343 49.5926 63.4512 49.5091C63.3494 49.4464 63.2884 49.3629 63.268 49.2584C63.2477 49.1331 63.3901 49.0077 63.5529 48.8406C63.6954 48.7153 63.8582 48.569 63.9599 48.4019C64.5094 47.5245 64.6111 46.4592 64.1838 45.6236C63.8785 44.9969 63.4308 44.4119 62.1081 44.2866C62.0877 44.2866 62.047 44.2866 62.0266 44.2866H61.986C61.8232 44.2866 61.64 44.3075 61.4365 44.3493C59.9713 44.6417 58.9945 45.6444 58.3433 46.7098C58.3433 46.7307 58.323 46.7516 58.323 46.7516C57.4276 48.1095 57.2037 50.1984 57.1426 50.5954V50.6162C56.8577 52.5172 56.2472 55.3374 52.3604 60.2883C51.9127 60.8523 51.5667 61.667 51.7906 62.5862C52.1976 64.1738 53.6831 64.32 53.6628 64.4871C53.6424 64.7169 53.3372 64.7169 52.7877 64.6752C52.2383 64.6334 52.0348 64.4454 52.0348 64.4454C52.0348 64.4454 51.8923 64.8005 52.8081 65.4899C53.5 66.0121 54.2936 65.9912 54.314 66.221C54.3343 66.4926 50.0201 67.5162 49.7556 63.0457C49.7556 62.9413 49.7352 62.8368 49.7352 62.7324C45.0751 67.1193 43.7116 67.3282 43.3657 66.8686C43.2029 66.6388 43.6506 66.7015 44.546 65.657C45.4617 64.5916 45.4821 64.1111 45.4821 64.1111C45.4821 64.1111 43.6709 65.1138 41.5545 64.9258C39.3974 64.7169 37.5863 63.1711 37.7491 62.5653C37.8712 62.043 39.1532 62.9413 40.6998 62.6906C42.1243 62.4608 42.2464 61.8759 42.2464 61.8759C42.2464 61.8759 41.9615 61.8759 41.4935 61.3745C41.0254 60.8732 40.3335 60.4554 40.7202 60.0376C40.944 59.7869 42.0226 60.2883 43.0808 60.3092C44.4239 60.3092 45.2786 59.9958 45.2786 59.9958C45.2786 59.9958 44.7291 59.7869 44.1593 59.2229C43.5895 58.638 43.4674 58.0531 43.6302 57.9068C43.732 57.8233 43.9558 58.2828 44.7088 58.2828C45.5838 58.2619 45.6856 58.0531 45.6856 58.0531C45.6856 58.0531 45.3193 57.6979 45.1361 57.3637C44.9733 57.0086 44.4442 56.0058 44.7698 55.6298C44.8716 55.5045 45.8687 56.7579 47.3339 56.9041C49.8573 57.1339 52.6249 55.0867 52.6249 55.0867C52.6249 55.0867 51.2615 56.7997 48.3718 59.3691C46.5199 60.9985 44.1797 62.3355 44.3221 62.6488C44.4849 63.0248 46.3164 62.5862 49.491 59.8705C50.5085 58.9931 51.1597 58.4291 52.5435 56.6743C54.9855 53.5826 55.535 50.1984 55.0466 47.4828C54.8431 46.4174 54.5785 45.4564 54.2529 44.6417C52.8895 41.6336 51.4243 40.1504 48.9823 39.1895C46.8048 38.333 45.1361 39.1059 44.1186 39.5864C43.6099 39.8371 43.2639 39.9833 43.1215 39.7744C42.6738 39.1268 43.5692 38.2494 44.3628 37.4765C45.3803 36.4947 46.0519 36.0978 46.235 36.0142C46.0519 35.9306 45.4007 35.5964 44.7698 35.5546C44.4442 35.5337 44.0779 35.5964 43.7523 35.6382C43.2436 35.7217 42.8366 35.7844 42.7755 35.5128C42.6738 34.9906 44.7495 34.0505 45.8687 33.6745C47.0083 33.2985 47.9241 33.2358 48.0869 33.2358C48.0665 32.9852 47.8834 31.0215 48.0869 28.1596C48.1886 26.6555 48.4735 25.611 48.677 25.0052C48.9416 24.2323 49.2468 23.71 49.5114 23.5429C49.6131 23.4803 49.7352 23.4803 49.8166 23.522C49.9998 23.6265 49.9998 24.0234 49.9998 24.6083C49.9998 24.9634 49.9998 25.423 50.0405 25.9035C50.1626 27.3449 50.6103 28.1387 50.8748 28.3058C50.9155 28.3267 50.9562 28.3476 50.9766 28.3267C51.0783 28.2849 51.0987 28.0969 51.1394 27.8462C51.2004 27.512 51.2615 27.0315 51.5464 26.4466C51.9941 25.4648 52.8895 24.3159 53.1947 24.3994C53.2761 24.4203 53.2965 24.5247 53.2965 24.671C53.2761 25.1306 53.1947 25.5275 53.1337 25.9453C52.9912 26.8226 52.8284 27.8045 52.9302 29.6428C53.0523 32.3376 54.2733 32.6927 54.4361 32.7345C54.5175 32.5883 55.1076 31.5438 55.9623 30.6037C56.1455 30.4157 56.3083 30.2068 56.4914 30.0188C57.0205 29.3921 57.4479 28.9116 57.7531 28.9116H57.7735C57.8549 28.9116 57.9363 28.9743 57.977 29.0579C58.0787 29.225 57.916 29.6637 57.6311 30.3739C57.2444 31.3557 56.6542 32.8389 56.3897 34.6564C55.9013 38.145 56.3897 41.5291 56.41 41.55L56.4507 41.8007L56.3693 41.5709C56.3693 41.5709 56.0844 40.7353 54.8838 38.9388C54.3547 38.1241 53.9273 37.6436 53.5203 37.184C53.0116 36.5991 52.5232 36.056 51.8516 34.8861C51.0783 33.5492 50.8748 32.5465 50.7527 31.878C50.651 31.314 50.5899 31.0424 50.2847 31.0006C50.244 31.0006 50.2236 31.0215 50.1829 31.0633C49.9184 31.502 50.0608 33.9461 50.7934 35.3875C51.1801 36.1604 51.6481 36.7871 52.1772 37.4974C52.7267 38.2285 53.3372 39.0432 54.0901 40.2966C55.4536 42.5736 56.1251 44.2448 56.4507 45.2475C56.5321 45.4982 56.5932 45.7071 56.6542 45.8951C56.817 45.5609 57.0816 45.164 57.163 45.0804C59.5643 42.3647 61.6604 42.1767 63.1052 42.5319H63.1256C64.1634 42.7616 65.0995 43.3883 65.7507 44.3284C66.4223 45.4147 66.7479 46.7934 66.5444 48.0468ZM66.0153 61.7297C66.0153 61.7506 65.9949 61.7715 65.9949 61.8132C65.4658 63.7351 64.3262 65.0512 62.7389 65.5316C62.2505 65.6779 61.7825 65.7614 61.3551 65.7614C60.2969 65.7614 59.4015 65.3436 58.4451 64.7169C58.384 64.696 57.8549 64.6125 57.3055 64.9258C57.0205 65.0929 56.8374 65.281 56.695 65.4272C56.5728 65.5525 56.4915 65.6361 56.41 65.6152C56.3897 65.6152 56.349 65.5734 56.3286 65.5316C56.2472 65.3227 56.2472 64.7587 56.5932 64.132C56.7967 63.7351 57.0409 63.4844 57.1223 63.4218C57.0205 63.1711 56.3286 61.4372 57.2037 59.5153C57.7938 58.2202 59.3405 57.5308 60.5207 58.0322C61.701 58.5335 62.0673 59.4736 62.0266 60.1003C61.986 60.6225 61.8028 61.0612 61.5586 61.2492C61.4365 61.3328 61.2941 61.3537 61.1923 61.3119C61.0499 61.2492 61.0295 61.0821 61.0295 60.8732C61.0092 60.5181 60.9888 60.0167 60.3376 59.6407C60.012 59.4527 59.6254 59.4318 59.2997 59.578C59.0555 59.6825 58.73 59.9331 58.5468 60.4763C58.3026 61.2074 58.323 61.9177 58.6282 62.5026C58.9945 63.2337 59.7678 63.7769 60.8056 64.0276C62.3319 64.4036 63.9192 63.2337 64.428 61.3745C64.5704 60.8105 64.6518 60.1629 64.4483 59.4736C64.0413 58.0948 63.1255 56.8414 60.9074 55.7343C60.1544 55.3582 58.5875 54.648 57.977 54.3555C58.3229 53.3528 58.3636 53.0395 58.4654 52.6843C58.6689 52.3501 59.2387 51.807 59.7881 51.6607C60.419 51.5145 61.172 51.8279 61.1516 51.9532C61.1313 52.0785 60.2969 52.2874 59.8288 53.3946C60.012 53.4782 61.579 53.9168 62.9221 54.8151C65.1809 56.3192 65.8118 57.9068 65.9949 58.6171C66.3205 59.7869 66.2595 60.8732 66.0153 61.7297ZM44.1186 24.9425C42.7552 23.6474 41.6563 23.3131 41.6563 23.3131V20.869C42.3075 21.2033 43.8134 22.018 44.6681 22.7491C45.5228 23.4803 46.174 24.1905 46.7031 24.7963L46.3368 27.2613C45.7059 26.572 44.9123 25.6946 44.1186 24.9425ZM42.3889 29.3712C42.0022 26.572 42.165 25.2768 42.165 25.2768C42.7755 25.4857 43.8134 26.5511 44.1593 26.9271C44.1593 26.9271 44.0779 27.3031 44.3425 29.0161C44.5256 30.3113 44.9123 31.502 45.0547 32.0033L43.1418 32.9225C42.9587 32.2958 42.5924 30.8753 42.3889 29.3712ZM43.8337 46.1458C44.0576 48.005 45.5635 49.7598 47.6799 49.53C48.5956 49.4255 49.2468 48.9868 49.6945 48.5064L49.5724 48.3601C49.2875 48.0886 48.2904 47.1276 47.4764 46.0622C46.6827 45.0177 46.2961 44.4537 46.2147 44.3493L45.9908 44.015C46.0112 43.9941 46.2757 43.8061 47.0694 43.827C47.9444 43.8688 48.7788 44.5582 49.023 44.7671C49.023 44.7671 49.43 45.2266 50.7324 46.6263C52.279 48.2766 53.3982 49.0704 53.5814 49.1957C53.5814 49.6762 53.4593 50.5954 53.2761 51.2429C52.5639 50.846 51.6278 50.0522 51.1801 49.6762C51.119 49.6135 51.058 49.5717 51.0173 49.5509C50.4475 50.2611 49.6131 50.9505 48.3514 51.3056C48.0665 51.3892 47.7409 51.431 47.4357 51.4101C44.6681 51.3265 42.8162 49.2166 42.3685 47.1485C42.2057 46.3756 42.2668 45.3938 42.2871 44.7253C42.3075 44.1404 42.3482 43.6181 42.2057 43.2421C42.0633 42.8034 41.8598 42.5318 41.7173 42.3438C41.5952 42.1558 41.4935 42.0514 41.5952 41.9469C41.7377 41.7589 42.2261 41.8843 42.6738 42.1976C42.9587 42.3856 43.0808 42.6154 43.1215 42.7407C43.386 42.323 44.6681 40.5264 46.8862 40.4429C47.6392 40.422 48.3107 40.5891 48.8195 40.9233C49.2468 41.1949 49.5317 41.5918 49.6538 41.9887C49.7352 42.3021 49.7352 42.5527 49.5317 42.6572C49.43 42.7199 49.1858 42.6154 48.8602 42.4483C48.3921 42.2185 47.6595 41.9678 46.8048 42.0723C46.1129 42.1558 45.1361 42.6363 44.4646 43.5555C43.9355 44.2657 43.7116 45.1849 43.8337 46.1458ZM34.6152 62.8995C32.0104 65.3227 29.9957 65.9285 27.5334 66.3463C24.8065 66.8268 19.5969 66.0748 19.5969 66.0748L16.9107 57.1757C16.9107 57.1757 19.6986 59.8705 21.1638 61.0612C22.629 62.2519 23.9925 62.8995 26.0682 62.8995C28.1439 62.8995 29.548 62.3564 31.0743 60.6852C32.6005 59.014 33.1703 56.8623 33.557 54.3138C33.8215 52.4754 33.6994 47.3992 33.6994 46.2294L34.0861 18.6547C34.0861 18.6547 34.2692 12.7011 33.8622 11.2179C33.4552 9.71381 32.5802 8.62753 32.0511 8.0635C30.8911 6.81011 28.4084 6.4132 28.4084 6.4132C27.6962 6.28786 27.5334 5.93273 27.5944 5.57761C27.6758 5.05536 28.1235 4.9718 28.1235 4.9718L45.6652 5.01358C45.6652 5.01358 46.0926 5.05536 46.174 5.5985C46.235 5.95362 46.0722 6.30875 45.36 6.43409C45.36 6.43409 42.8976 6.85189 41.7173 8.08439C41.1882 8.64842 40.3132 9.7347 39.9062 11.2388C39.4992 12.7428 39.6823 18.6756 39.6823 18.6756V46.3129C39.6823 46.3129 39.7434 51.6399 39.0718 54.4391C38.5834 56.3819 37.5049 60.2256 34.6152 62.8995ZM14.9774 61.479C14.021 63.5471 12.4337 65.3854 12.1284 65.0929C11.8842 64.8423 12.1895 64.6334 12.3523 64.0276C12.5151 63.4009 12.5558 63.2755 12.5558 63.2755C12.5558 63.2755 12.1284 63.9022 10.6022 64.884C9.0759 65.8659 8.81136 65.9285 8.5468 65.5525C8.384 65.3018 8.77066 65.0303 9.13696 64.3827C9.48291 63.756 9.38116 63.7769 9.38116 63.7769C9.38116 63.7769 8.07875 63.6515 7.02055 63.1711C5.96235 62.6906 4.8431 61.5626 4.86345 61.3328C4.90415 61.0403 5.35185 60.8732 6.1455 60.4554C7.0002 60.0167 7.59035 59.4527 7.59035 59.4527C7.59035 59.4527 7.02055 59.3064 6.69495 59.1602C6.1862 58.9095 5.67745 58.6589 5.9827 58.3246C6.2676 58.0531 7.63105 58.9931 9.72711 56.9668C11.579 55.1702 11.579 52.5381 11.579 52.5381C11.579 52.5381 12.4744 55.6089 11.2941 58.0531C9.82886 61.0612 7.0816 61.0821 7.38685 61.7088C7.75315 62.4817 11.1109 61.7923 12.5558 58.1784C13.7564 55.1702 12.4947 51.3474 11.579 49.0704C11.3144 48.4228 10.9685 47.5454 10.7446 46.8561C11.579 47.253 12.2709 47.441 12.9424 47.5245C12.9424 47.5245 12.9424 47.5245 12.9424 47.5454C12.9628 47.5454 13.0645 47.7334 13.0645 47.7334C13.8785 49.0704 15.1402 49.53 15.8118 49.8015C16.4426 50.0522 17.1345 50.1776 17.8264 50.1776C18.4166 50.1776 19.0271 50.094 19.5765 49.8642C19.9428 49.718 20.2888 49.53 20.5533 49.2375C21.3673 48.3392 21.5708 45.5818 21.9371 45.3729C22.0999 45.2684 22.5069 45.9578 22.6697 46.4592C22.8325 46.9814 22.7511 47.4828 23.0564 47.6081C23.2802 47.6917 23.4023 47.441 23.8704 46.8978C24.5216 46.1249 24.4198 45.8116 24.7454 45.9369C25.071 46.0622 24.7251 47.7752 24.5623 48.6944C24.3995 49.6344 23.9721 50.9923 23.9721 50.9923C23.9721 50.9923 25.0507 50.2611 26.0682 49.8015C28.8968 48.5064 29.9957 48.9033 30.0161 49.2584C30.0364 49.6135 29.3649 49.6762 28.6323 50.5745C28.1032 51.2221 28.2253 51.3892 28.2253 51.3892C28.2253 51.3892 28.6526 51.4101 29.8329 51.0549C30.6673 50.8043 31.3999 50.4073 31.6237 50.7625C31.8679 51.1176 30.769 52.6426 29.08 53.8333C27.3909 55.024 26.0275 55.4836 26.0275 55.4836C26.0275 55.4836 26.3531 55.8387 27.1874 55.985C28.0218 56.1312 28.3474 56.0058 28.4288 56.2565C28.5305 56.5908 27.5944 56.8832 26.0275 57.0503C23.789 57.2801 22.629 56.2774 22.629 56.2774C22.629 56.2774 22.9139 57.113 22.5883 57.9486C22.2424 58.8051 22.161 59.5989 21.8354 59.5362C21.5098 59.4945 21.8964 58.6797 21.2656 57.8859C20.594 57.0294 19.8207 56.8414 18.6811 55.9223C17.5619 55.0449 17.5212 54.3346 17.5212 54.3346C17.5212 54.3346 19.4748 55.0867 22.6697 54.5644C25.7426 54.0631 26.699 53.123 26.4752 52.7679C26.2717 52.4546 25.7629 52.8515 24.3181 53.2066C22.629 53.6035 20.3295 53.4991 17.7857 53.0604C16.8903 52.9141 15.6693 52.4754 14.5704 51.7234C14.9978 52.6008 15.71 54.1675 15.8728 55.2956C16.1781 57.2175 15.9339 59.39 14.9774 61.479ZM13.0035 33.1732C13.1256 32.3167 13.614 31.3975 13.8989 31.0006C15.0181 30.7917 15.7304 31.4184 15.8321 31.5229C15.2216 32.7345 14.835 34.0714 14.489 35.4084C14.082 35.2413 13.4919 34.6355 13.0035 33.1732ZM13.268 42.2185C12.6982 42.1558 11.233 41.1531 11.1516 40.9024C11.1516 40.3802 11.2737 39.2104 11.4772 38.521C12.2098 39.8371 13.4105 40.4011 13.4105 40.4011C13.207 41.2367 13.268 42.2185 13.268 42.2185ZM7.26475 30.6246C7.4072 30.2068 7.5293 29.9143 7.6514 29.6637C7.8956 29.0996 8.03805 28.7654 8.07875 27.9925C8.1398 27.0942 7.87525 26.4048 7.71245 26.2168C7.9363 26.2377 8.6282 26.5511 8.89276 27.136C9.11661 27.6165 9.44221 28.8699 9.40151 29.0787C9.38116 29.1205 9.42186 29.1414 9.42186 29.1623C9.46256 29.1832 9.50326 29.1623 9.66606 29.037C10.1341 28.6818 11.5586 27.5747 14.082 27.5538H14.1227C18.7625 27.5538 20.7975 31.9616 20.8179 32.0033L20.8382 32.0242H20.8586C20.8789 32.0242 21.4894 32.2122 22.7308 31.6691C23.2192 31.4602 23.5041 31.1886 23.789 30.938C24.257 30.5202 24.664 30.1441 25.7833 30.1232C26.9229 30.0815 27.7776 30.7499 27.92 31.2095C27.9607 31.314 27.9607 31.4811 27.8386 31.5646C27.6758 31.69 27.6351 31.6691 27.5334 31.6273C27.3706 31.5438 27.106 31.4184 26.2717 31.5646C25.5594 31.6691 25.2338 32.3585 24.8879 33.0687C24.5012 33.8416 24.1146 34.6355 23.2192 34.8653C22.4052 35.095 21.4487 34.5101 21.2656 34.2177C21.2249 34.1341 21.1435 34.0297 21.0417 34.0505C20.9603 34.0714 20.9196 34.1968 20.9196 34.2386C20.9196 34.2386 20.8993 34.9697 20.4516 36.244C20.0446 37.4138 18.1724 40.2131 14.489 39.1895C12.2302 38.5628 11.3551 36.3902 11.4569 35.0533C11.4976 34.6146 11.6197 34.3221 11.8232 34.3012C11.986 34.2803 12.1284 34.4057 12.1691 34.531C12.3319 35.0324 12.5151 35.5337 12.7796 35.9515C13.1459 36.5364 13.8175 37.2467 14.6315 37.4347C16.463 37.8525 17.5822 36.8916 17.7857 36.6827C18.4776 36.0142 18.8643 34.907 18.8032 33.7163C18.7218 32.1913 17.9485 31.2304 17.2973 30.6873C16.4833 29.9979 15.4251 29.5801 14.3873 29.5592C14.3669 29.5592 14.3262 29.5592 14.3059 29.5592C12.9628 29.5592 11.5993 30.1232 10.5411 31.0842C9.19801 32.3167 8.4247 34.155 8.2619 36.3902C8.11945 38.3121 8.89276 40.4429 10.2562 41.9678C11.3144 43.1585 12.6372 43.8061 13.9599 43.827C13.9803 43.827 14.0006 43.827 14.0413 43.827C17.5415 43.827 19.8004 41.6127 22.1813 39.273C24.4198 37.0796 26.7194 34.8235 30.3417 33.779C30.6062 33.6954 31.8476 33.591 32.1121 33.5701L32.0511 35.5964C30.0161 35.9933 27.1874 37.3303 27.3299 38.7717C27.4723 40.1922 28.3677 40.9651 28.7951 41.3411C28.8968 41.4247 28.9986 41.5082 28.9986 41.5291C28.9986 41.55 28.9579 41.5709 28.8154 41.6336C28.4288 41.7798 27.5334 41.8843 26.8415 41.55C25.9054 41.1113 24.9896 39.5446 24.9693 39.5237L24.9286 39.461L24.8879 39.5237C24.8675 39.5446 22.0999 42.5318 20.594 43.6599C19.6172 44.3911 17.0328 46.3338 13.9803 46.1876C11.8639 46.0831 9.91026 45.1013 8.48575 43.4092C6.97985 41.6336 6.16585 39.1686 6.1862 36.4947C6.1862 34.0505 6.45075 32.9434 7.26475 30.6246ZM14.021 5.01358C14.0413 5.01358 16.1984 4.82557 18.2538 5.66116C19.1492 6.03718 19.8004 6.49676 20.3702 6.91456H20.3905C21.2452 7.52037 21.8964 8.02172 22.8529 7.70838C23.9314 7.37414 24.1553 6.49676 24.2977 5.91184C24.3384 5.76561 24.3995 5.51494 24.4402 5.49405C24.4809 5.47316 24.6844 5.55672 24.8472 5.82828C25.0507 6.14163 25.5798 7.31147 24.1553 9.44224C23.3616 10.6121 22.0796 10.8628 22.0185 10.8628C21.9575 10.8628 21.9168 10.9045 21.8761 10.9463C21.8557 10.9881 21.8354 11.0508 21.8557 11.1134C21.9371 11.4059 21.9371 11.6357 21.9575 11.8446C22.0185 12.5757 21.9371 13.286 21.4691 14.4767C20.7365 16.2941 19.2713 17.4013 17.338 17.652C15.4658 17.8818 13.9396 16.7955 13.3901 15.6048C12.9017 14.4976 12.861 13.2233 13.3087 12.0744C13.4105 11.7819 13.614 11.5521 13.7768 11.5103C13.8582 11.4894 13.9192 11.5103 13.9803 11.573C14.1431 11.6983 14.1431 12.0326 14.1634 12.4713C14.1838 12.91 14.2041 13.4531 14.3873 14.0171C14.6722 14.8945 15.6286 15.7301 16.8496 15.6257C18.7218 15.4585 19.8411 14.1007 19.8818 12.0117C19.9225 9.81826 18.559 7.22791 14.5704 7.12346C14.5094 7.12346 14.4687 7.12346 14.4076 7.12346C12.9017 7.12346 11.5179 7.72927 10.419 8.85732C9.15731 10.1943 8.3433 12.1997 8.3026 14.1216C8.24155 17.8609 10.1341 20.0334 11.7214 21.2033C13.3291 22.3731 15.8525 22.4566 19.0067 21.433C20.0853 21.0779 21.2452 20.5974 22.3645 20.117H22.3848C23.3413 19.7201 24.3181 19.3023 25.2542 18.9471C25.8036 18.7591 26.3938 18.592 27.0043 18.4876L27.0857 18.4667L27.0246 18.3831C26.7804 18.0489 26.4752 17.6102 26.0682 17.0462C25.2542 15.8763 25.0303 13.7247 25.2949 13.286C25.417 13.098 25.5391 13.0562 25.6001 13.0562C25.6408 13.0562 25.6815 13.0771 25.6815 13.0771C25.6815 13.098 25.6815 13.2024 25.6815 13.2233C25.6815 13.3278 25.6815 13.8291 25.9054 14.0798C26.1903 14.414 26.5769 14.4767 26.7397 14.3931C26.8008 14.3514 26.8415 14.3096 26.8618 14.2469C26.9229 14.0589 27.2078 13.1398 27.6962 12.3877C28.1032 11.761 29.3852 10.8001 30.1382 10.8001C30.1585 10.8001 30.1789 10.8001 30.1992 10.8001C30.4027 10.821 30.5452 10.9045 30.6266 11.0717C30.7283 11.2806 30.4027 11.6357 30.301 11.7401C29.6498 12.4504 28.8765 13.4949 28.8154 15.2287C28.7951 16.0434 29.0189 16.7119 29.487 17.2342C30.3824 18.216 31.929 18.3413 32.2342 18.3413V20.1379C32.1935 20.1379 32.1325 20.1379 32.0918 20.1379C30.5655 20.1379 29.3445 22.0389 28.9375 23.9816C28.5916 25.5692 28.8968 27.8045 29.0189 28.4729C29.141 29.0788 29.0393 29.225 28.9986 29.2459C28.9782 29.2668 28.9579 29.2668 28.8968 29.2668C28.5712 29.2041 27.9811 28.4938 27.3299 27.4076C26.8415 26.6137 26.9839 25.611 27.0653 25.0679C27.106 24.7754 27.1264 24.6501 27.0246 24.5665L27.0043 24.5456C26.9432 24.483 26.8415 24.4203 26.7194 24.4203C26.7194 24.4203 26.7194 24.4203 26.699 24.4203C26.5566 24.4203 26.3938 24.5248 26.2106 24.7128C26.0682 24.8799 25.9868 24.9843 25.9461 25.0679C25.8647 25.1932 25.8647 25.1932 25.6612 25.1097C25.6612 25.1097 25.6408 25.1097 25.6205 25.0679C25.478 24.671 25.9054 23.2922 26.4548 22.3313C26.8822 21.5584 27.3502 20.9944 28.0014 20.4721L28.1846 20.3259L27.9404 20.3885C25.7222 20.9108 23.5041 21.8091 22.1406 22.77C20.3905 23.9816 18.966 25.423 17.9282 27.0315C17.745 26.9062 17.5619 26.8226 17.1142 26.6137C16.8293 26.4884 16.4019 26.3422 16.0763 26.3004C16.5037 25.6946 17.2566 24.8799 17.5619 24.5456L17.5822 24.5247C17.6229 24.4621 17.6229 24.3576 17.5619 24.295C17.5008 24.2323 17.4194 24.2114 17.338 24.2323C17.2566 24.2741 15.2827 25.047 11.8028 23.71C8.97416 22.6238 6.0234 19.4694 6.1862 13.9127C6.3897 8.23062 10.2562 5.34782 14.021 5.01358ZM1.8313 70.9839H70.8789V0H1.8313V70.9839Z" fill="white"/>
</g>
<defs>
<clipPath id="clip0">
<rect width="71.4286" height="100" fill="white"/>
</clipPath>
</defs>
</svg>
