<svg width="272" height="160" viewBox="0 0 272 160" fill="none" xmlns="http://www.w3.org/2000/svg">
<rect width="272" height="160" fill="#990000"/>
<path d="M112.88 130.315C110.61 128.74 108.471 127.246 108.471 124.311C108.471 122.577 109.462 120.736 112.254 120.736C114.654 120.736 116.167 122.017 116.637 124.418C116.637 124.471 116.689 124.525 116.741 124.525H116.924C116.95 124.525 116.976 124.525 117.002 124.498C117.028 124.471 117.028 124.445 117.028 124.418C117.002 123.938 117.002 123.111 117.002 122.63C117.002 121.803 117.028 121.216 117.107 120.469C117.107 120.442 117.107 120.389 117.08 120.362C117.054 120.336 117.028 120.336 116.976 120.336C116.794 120.362 116.637 120.362 116.454 120.362C115.906 120.362 115.359 120.256 114.785 120.149C114.054 120.016 113.245 119.855 112.202 119.855C108.654 119.855 106.149 122.31 106.149 125.832C106.149 129.541 108.706 131.302 111.158 133.036C113.532 134.69 115.75 136.238 115.75 139.386C115.75 142.348 113.611 143.682 111.497 143.682C109.045 143.682 106.593 142.294 106.593 139.68C106.593 139.466 106.619 139.226 106.645 138.986V138.879C106.645 138.852 106.645 138.799 106.619 138.799C106.593 138.772 106.566 138.772 106.54 138.772H106.436C106.384 138.772 106.358 138.799 106.332 138.853C105.966 139.68 105.94 140.667 105.94 140.96C105.94 141.387 105.992 141.787 106.019 142.161C106.071 142.535 106.097 142.855 106.097 143.228C106.097 143.522 106.097 143.895 106.071 144.055C106.071 144.082 106.071 144.135 106.097 144.162C106.123 144.189 106.149 144.189 106.201 144.189C106.384 144.162 106.462 144.162 106.671 144.162C107.375 144.162 107.949 144.295 108.549 144.429C109.28 144.589 110.115 144.776 111.289 144.776C115.28 144.776 118.072 142.001 118.072 137.999C118.046 133.916 115.411 132.102 112.88 130.315Z" fill="white"/>
<path d="M157.624 132.53C157.624 139.414 154.284 143.683 148.91 143.683C143.588 143.683 140.431 139.441 140.431 132.317C140.431 127.007 142.648 120.791 148.91 120.791C152.954 120.791 157.624 123.859 157.624 132.53ZM149.197 119.83C141.683 119.83 137.222 126.234 137.222 132.424C137.222 138.454 141.605 144.67 148.936 144.67C155.615 144.67 160.859 139.254 160.859 132.317C160.833 125.326 155.719 119.83 149.197 119.83Z" fill="white"/>
<path d="M174.92 127.166C174.92 129.541 174.294 132.716 168.972 132.716H167.485V121.19C168.424 120.923 169.05 120.869 169.781 120.869C172.885 120.896 174.92 123.351 174.92 127.166ZM181.495 144.242C179.564 143.575 177.321 139.466 175.677 136.478C174.738 134.77 174.007 133.41 173.459 132.876C176.251 131.755 177.921 129.487 177.921 126.739C177.921 122.577 174.79 119.882 169.937 119.882C169.598 119.882 169.05 119.909 168.45 119.909C167.772 119.936 167.015 119.936 166.467 119.936C165.006 119.936 164.406 119.936 163.284 119.855C163.258 119.855 163.232 119.855 163.206 119.882C163.18 119.909 163.18 119.936 163.18 119.962V120.122C163.18 120.176 163.232 120.229 163.284 120.229C164.406 120.416 164.798 120.869 164.798 123.191V141.334C164.798 144.029 164.38 144.109 163.232 144.295C163.18 144.295 163.128 144.349 163.128 144.402V144.562C163.128 144.589 163.128 144.616 163.154 144.642C163.18 144.669 163.206 144.669 163.232 144.669C163.911 144.642 164.85 144.589 166.128 144.589C167.485 144.589 168.607 144.642 169.024 144.669C169.05 144.669 169.076 144.669 169.102 144.642C169.128 144.616 169.128 144.589 169.128 144.562V144.402C169.128 144.349 169.076 144.295 169.024 144.295C167.876 144.109 167.459 144.029 167.459 141.334V133.676H169.468C169.833 133.676 170.302 133.623 170.824 133.543C171.398 134.103 172.077 135.411 172.494 136.211C172.572 136.371 172.651 136.531 172.729 136.638C176.642 144.135 177.06 144.589 180.582 144.722C180.973 144.722 181.13 144.722 181.417 144.696C181.469 144.696 181.521 144.642 181.521 144.589V144.375C181.573 144.322 181.547 144.269 181.495 144.242Z" fill="white"/>
<path d="M137.456 119.829C137.43 119.802 137.404 119.775 137.352 119.775C135.787 119.802 127.542 119.935 120.159 119.775C120.107 119.775 120.055 119.802 120.055 119.855C119.898 120.469 119.768 121.003 119.611 121.51C119.428 122.15 119.272 122.737 119.141 123.351C119.141 123.377 119.141 123.431 119.168 123.457C119.194 123.484 119.22 123.511 119.246 123.511H119.402C119.454 123.511 119.481 123.484 119.507 123.431C120.472 121.35 122.011 121.323 127.073 121.323V141.28C127.073 143.975 126.655 144.055 125.507 144.242C125.455 144.242 125.403 144.295 125.403 144.349V144.509C125.403 144.535 125.403 144.562 125.429 144.589C125.455 144.616 125.481 144.616 125.507 144.616C126.159 144.589 127.099 144.535 128.377 144.535C129.734 144.535 130.83 144.589 131.247 144.616C131.273 144.616 131.299 144.616 131.325 144.589C131.351 144.562 131.351 144.535 131.351 144.509V144.349C131.351 144.295 131.299 144.242 131.247 144.242C130.125 144.055 129.682 143.975 129.682 141.28V121.323C135.5 121.323 136.282 121.563 136.282 122.47C136.282 122.63 136.256 122.844 136.23 122.95C136.23 122.977 136.23 123.03 136.256 123.057C136.282 123.084 136.308 123.111 136.334 123.111H136.543C136.595 123.111 136.647 123.057 136.647 123.004C136.752 122.47 137.117 120.843 137.404 119.935C137.482 119.909 137.482 119.855 137.456 119.829Z" fill="white"/>
<path d="M103.148 119.804C102.496 119.83 101.218 119.857 100.122 119.857C98.9481 119.857 97.6436 119.83 96.9653 119.804C96.9392 119.804 96.9131 119.804 96.887 119.83C96.8609 119.857 96.8609 119.884 96.8609 119.91V120.071C96.8609 120.124 96.9131 120.177 96.9653 120.177C98.1132 120.364 98.8698 120.497 98.8698 123.032V137.787C98.8698 140.562 97.5653 143.577 95.4782 143.577C95.0868 143.577 94.7216 143.55 94.3824 143.497C92.9214 143.123 92.0083 142.082 91.4604 141.335C91.3821 141.229 91.3039 141.122 91.2517 141.015C90.6516 140.081 90.3646 139.281 90.3646 139.254C90.3386 139.174 90.2603 139.148 90.182 139.148C90.1038 139.174 90.0516 139.228 90.0516 139.334L90.5473 143.203C90.5473 143.256 90.5734 143.31 90.6255 143.337C92.0083 144.244 93.7041 144.51 94.0172 144.537C94.5651 144.617 95.0086 144.644 95.2695 144.644C95.4782 144.644 95.6086 144.644 95.6086 144.644C99.1046 144.644 101.453 141.736 101.453 137.413V123.032C101.453 120.551 102.027 120.444 103.175 120.177L103.227 120.151C103.279 120.151 103.305 120.097 103.305 120.044V119.884C103.305 119.857 103.305 119.83 103.279 119.804C103.201 119.804 103.175 119.804 103.148 119.804Z" fill="white"/>
<path d="M175.078 57.422C174.295 57.9556 173.46 58.0356 173.434 58.0356C173.408 58.0356 173.382 58.0623 173.382 58.089C173.382 58.1157 173.382 58.1424 173.408 58.169C173.434 58.1957 175.547 60.0634 175.756 62.5981C175.991 65.1862 175.599 66.627 174.321 67.8543C173.303 68.8415 171.816 68.9749 171.268 68.8415C171.138 68.8148 171.112 68.7881 171.112 68.7615C171.034 68.4413 171.503 68.0944 172.077 67.6942C172.208 67.6142 172.338 67.5075 172.469 67.4274C173.199 66.8938 173.59 66.0133 173.356 65.533C173.277 65.373 173.147 65.3463 172.99 65.3463C172.86 65.3463 172.729 65.3996 172.573 65.453C172.286 65.533 171.973 65.6398 171.816 65.453C171.634 65.2662 171.712 65.1061 171.868 64.786C171.999 64.5192 172.155 64.199 172.182 63.7454C172.26 62.7582 172.129 60.1701 170.773 59.8766C170.721 59.8766 170.668 59.8766 170.616 59.9033C170.486 60.01 170.486 60.3302 170.486 60.8372C170.486 61.5042 170.46 62.3847 170.094 62.9717C169.52 63.8788 168.607 64.5725 168.19 64.5725C168.086 64.5725 168.033 64.5458 167.981 64.4925C167.929 64.4124 167.955 64.199 168.033 63.8788C168.19 63.1317 168.451 61.7443 168.059 59.1562C167.929 58.2491 167.381 57.2619 166.885 56.328C166.39 55.4209 165.92 54.5404 165.816 53.7933C165.633 52.4059 165.79 51.8189 166.546 51.2319C166.99 50.8851 167.068 50.5649 167.068 50.3515C167.068 50.138 166.964 49.7378 166.598 49.6044C166.572 49.6044 166.572 49.6044 166.546 49.5777C166.364 49.5243 166.051 49.4977 165.711 49.4977C164.276 49.5243 160.911 49.551 158.537 46.2426C156.606 43.5744 156.476 41.0664 156.841 38.1048V38.0781C156.841 38.0248 156.632 36.9308 155.719 36.077C155.276 35.6768 154.832 35.4367 154.519 35.2766C154.336 35.1699 154.128 35.0898 154.128 35.0098C154.128 35.0098 154.128 34.9564 154.18 34.9297C154.415 34.6896 155.223 34.3428 156.345 34.5028C157.18 34.6363 157.78 34.9831 157.78 34.9831C157.806 35.0098 157.832 34.9831 157.858 34.9564C157.885 34.9297 160.076 32.2883 163.729 32.5818C165.92 32.7419 168.007 34.9297 168.059 37.3044C168.112 39.679 167.042 40.933 166.103 41.2532C165.346 41.52 164.642 41.4933 164.224 41.1998C164.042 41.0664 163.911 40.8796 163.911 40.6662C163.911 40.4794 164.068 40.3727 164.381 40.2126C164.903 39.9458 165.711 39.5189 165.816 38.0248C165.868 37.251 165.607 36.4773 165.111 35.9436C164.772 35.5701 164.172 35.1165 163.181 35.1699C161.902 35.2232 160.859 35.7302 160.154 36.664C159.267 37.838 158.954 39.679 159.293 41.7868C159.789 44.8551 162.685 46.9896 165.868 46.6428C167.746 46.456 169.494 45.3621 170.825 43.6011C172.077 41.9469 172.808 39.8124 172.834 37.7579C172.886 32.6352 169.99 27.3523 163.363 27.0855C157.024 26.8454 153.084 30.8742 151.284 33.2755C150.162 34.7697 148.988 37.6245 148.127 39.9458C148.518 39.8658 149.745 39.7057 150.84 40.266C151.962 40.8263 153.267 42.2137 153.032 42.8007C152.98 42.9608 152.641 42.8807 152.145 42.7473C151.493 42.5606 150.579 42.6139 149.562 42.774C147.814 43.0141 147.11 43.361 146.901 43.5478L147.005 43.2276C146.953 43.4144 146.901 43.5478 146.901 43.5478L144.527 42.0536C144.866 40.5328 146.379 34.156 150.162 29.967C154.049 25.6714 158.719 24.2573 162.842 24.2306C165.085 24.2039 167.146 24.5508 168.842 24.951C169.051 25.0043 169.233 25.031 169.416 25.0844C171.034 25.4579 172.729 25.8048 173.93 25.4846C174.582 25.3245 175.13 25.0577 175.547 24.8443C175.808 24.7109 176.069 24.5775 176.121 24.6041C176.121 24.6041 176.147 24.6308 176.147 24.6575C176.199 24.9243 175.965 25.7781 175.208 26.8187C174.738 27.4857 174.138 27.8592 173.721 28.1527C173.33 28.3929 173.069 28.5796 173.069 28.8464C173.069 28.9798 173.199 29.22 173.434 29.6469C174.164 30.9809 175.678 33.7825 175.495 37.7313C175.208 43.7879 172.39 46.376 170.512 48.1102L170.277 48.3237H170.251C168.999 49.7912 169.155 51.1519 169.52 52.0057C170.068 53.3131 171.268 54.407 172.808 54.9673C173.695 55.2875 174.66 55.3942 175.365 55.4742C175.886 55.5276 176.408 55.581 176.46 55.7144C176.643 56.1413 176.147 56.7283 175.078 57.422ZM175.312 78.3667C174.738 81.8086 172.834 83.276 171.216 83.4895C171.086 83.5162 170.955 83.5162 170.851 83.5162C170.381 83.5162 170.016 83.3827 169.912 83.1693C169.886 83.0892 169.86 83.0092 169.886 82.9292C169.938 82.7958 170.121 82.7157 170.381 82.6357C170.694 82.5289 171.138 82.3422 171.608 81.9686C172.99 80.848 172.912 80.3678 172.86 79.9942C172.86 79.9409 172.834 79.9142 172.808 79.9142C172.729 79.8608 172.521 79.9676 172.286 80.101L172.182 80.1543C171.869 80.3144 171.582 80.3411 171.347 80.2344C171.216 80.1543 171.138 80.0476 171.112 79.9142C171.086 79.7541 171.268 79.594 171.477 79.3806C171.66 79.2205 171.868 79.0337 171.999 78.8203C172.703 77.6997 172.834 76.3389 172.286 75.2717C171.895 74.4712 171.321 73.7242 169.625 73.5641C169.599 73.5641 169.547 73.5641 169.52 73.5641H169.468C169.26 73.5641 169.025 73.5908 168.764 73.6441C166.885 74.0177 165.633 75.2984 164.798 76.6591C164.798 76.6858 164.772 76.7125 164.772 76.7125C163.624 78.4467 163.337 81.1148 163.259 81.6218V81.6485C162.894 84.0765 162.111 87.6784 157.128 94.0018C156.554 94.7222 156.11 95.7628 156.397 96.9368C156.919 98.9645 158.824 99.1513 158.798 99.3648C158.772 99.6583 158.38 99.6583 157.676 99.6049C156.971 99.5515 156.711 99.3114 156.711 99.3114C156.711 99.3114 156.528 99.765 157.702 100.645C158.589 101.312 159.606 101.286 159.633 101.579C159.659 101.926 154.128 103.234 153.788 97.5238C153.788 97.3904 153.762 97.257 153.762 97.1235C147.788 102.727 146.04 102.993 145.596 102.406C145.388 102.113 145.962 102.193 147.11 100.859C148.284 99.4982 148.31 98.8845 148.31 98.8845C148.31 98.8845 145.988 100.165 143.274 99.9251C140.509 99.6582 138.187 97.6838 138.396 96.9101C138.552 96.2431 140.196 97.3904 142.179 97.0702C144.005 96.7767 144.161 96.0296 144.161 96.0296C144.161 96.0296 143.796 96.0296 143.196 95.3893C142.596 94.7489 141.709 94.2153 142.205 93.6817C142.492 93.3615 143.874 94.0019 145.231 94.0285C146.953 94.0285 148.049 93.6283 148.049 93.6283C148.049 93.6283 147.344 93.3615 146.614 92.6411C145.883 91.894 145.727 91.147 145.936 90.9602C146.066 90.8535 146.353 91.4405 147.318 91.4405C148.44 91.4138 148.571 91.147 148.571 91.147C148.571 91.147 148.101 90.6934 147.866 90.2665C147.657 89.8129 146.979 88.5322 147.397 88.0519C147.527 87.8919 148.805 89.4927 150.684 89.6795C153.919 89.973 157.467 87.3582 157.467 87.3582C157.467 87.3582 155.719 89.5461 152.014 92.8279C149.64 94.909 146.64 96.6166 146.823 97.0168C147.031 97.4971 149.379 96.9368 153.449 93.4682C154.754 92.3476 155.589 91.6272 157.363 89.386C160.493 85.4372 161.198 81.1148 160.572 77.6463C160.311 76.2856 159.972 75.0582 159.554 74.0177C157.806 70.1756 155.928 68.2812 152.797 67.0539C150.006 65.9599 147.866 66.9471 146.562 67.5608C145.909 67.881 145.466 68.0678 145.283 67.8009C144.709 66.9738 145.857 65.8532 146.875 64.866C148.179 63.612 149.04 63.1051 149.275 62.9983C149.04 62.8916 148.205 62.4647 147.397 62.4113C146.979 62.3847 146.51 62.4647 146.092 62.5181C145.44 62.6248 144.918 62.7048 144.84 62.358C144.709 61.691 147.37 60.4903 148.805 60.01C150.266 59.5298 151.44 59.4497 151.649 59.4497C151.623 59.1296 151.388 56.6215 151.649 52.9662C151.78 51.0452 152.145 49.7111 152.406 48.9374C152.745 47.9502 153.136 47.2831 153.475 47.0697C153.606 46.9896 153.762 46.9896 153.867 47.043C154.102 47.1764 154.102 47.6833 154.102 48.4304C154.102 48.884 154.102 49.471 154.154 50.0846C154.31 51.9256 154.884 52.9395 155.223 53.153C155.276 53.1797 155.328 53.2063 155.354 53.1797C155.484 53.1263 155.51 52.8862 155.563 52.566C155.641 52.1391 155.719 51.5254 156.084 50.7784C156.658 49.5243 157.806 48.0569 158.198 48.1636C158.302 48.1903 158.328 48.3237 158.328 48.5105C158.302 49.0974 158.198 49.6044 158.119 50.138C157.937 51.2586 157.728 52.5126 157.858 54.8606C158.015 58.3024 159.58 58.756 159.789 58.8094C159.893 58.6226 160.65 57.2886 161.746 56.0879C161.981 55.8478 162.189 55.581 162.424 55.3408C163.102 54.5404 163.65 53.9267 164.042 53.9267H164.068C164.172 53.9267 164.276 54.0068 164.329 54.1135C164.459 54.327 164.25 54.8873 163.885 55.7944C163.389 57.0484 162.633 58.9428 162.294 61.2641C161.668 65.7198 162.294 70.0422 162.32 70.0688L162.372 70.389L162.268 70.0955C162.268 70.0955 161.902 69.0283 160.363 66.7337C159.685 65.6931 159.137 65.0795 158.615 64.4925C157.963 63.7454 157.337 63.0517 156.476 61.5575C155.484 59.85 155.223 58.5693 155.067 57.7155C154.936 56.9951 154.858 56.6482 154.467 56.5948C154.415 56.5948 154.389 56.6215 154.336 56.6749C153.997 57.2352 154.18 60.3569 155.119 62.1979C155.615 63.1851 156.215 63.9855 156.893 64.8927C157.598 65.8265 158.38 66.8671 159.346 68.468C161.094 71.3762 161.955 73.5107 162.372 74.7914C162.476 75.1116 162.555 75.3784 162.633 75.6185C162.842 75.1916 163.181 74.6847 163.285 74.578C166.364 71.1094 169.051 70.8693 170.903 71.3229H170.929C172.26 71.6164 173.46 72.4168 174.295 73.6174C175.156 75.0049 175.573 76.7658 175.312 78.3667ZM174.634 95.8428C174.634 95.8695 174.608 95.8962 174.608 95.9496C173.93 98.4042 172.469 100.085 170.434 100.699C169.807 100.886 169.207 100.992 168.66 100.992C167.303 100.992 166.155 100.459 164.929 99.6582C164.85 99.6316 164.172 99.5248 163.468 99.9251C163.102 100.139 162.868 100.379 162.685 100.565C162.528 100.726 162.424 100.832 162.32 100.806C162.294 100.806 162.241 100.752 162.215 100.699C162.111 100.432 162.111 99.7116 162.555 98.9112C162.815 98.4042 163.129 98.0841 163.233 98.004C163.102 97.6839 162.215 95.4693 163.337 93.0146C164.094 91.3604 166.077 90.4799 167.59 91.1203C169.103 91.7606 169.573 92.9613 169.52 93.7617C169.468 94.4287 169.233 94.9891 168.92 95.2292C168.764 95.3359 168.581 95.3626 168.451 95.3092C168.268 95.2292 168.242 95.0157 168.242 94.7489C168.216 94.2953 168.19 93.655 167.355 93.1747C166.938 92.9346 166.442 92.9079 166.024 93.0947C165.711 93.2281 165.294 93.5483 165.059 94.242C164.746 95.1758 164.772 96.083 165.164 96.8301C165.633 97.7639 166.625 98.4576 167.955 98.7778C169.912 99.258 171.947 97.7639 172.599 95.3893C172.782 94.6689 172.886 93.8418 172.625 92.9613C172.103 91.2003 170.929 89.5994 168.086 88.1853C167.12 87.7051 165.111 86.7979 164.329 86.4244C164.772 85.1437 164.824 84.7435 164.955 84.2899C165.216 83.863 165.946 83.1693 166.651 82.9825C167.459 82.7958 168.425 83.196 168.399 83.3561C168.373 83.5162 167.303 83.783 166.703 85.1971C166.938 85.3038 168.946 85.8641 170.668 87.0114C173.564 88.9324 174.373 90.9602 174.608 91.8674C175.025 93.3615 174.947 94.7489 174.634 95.8428ZM146.562 48.8573C144.814 47.2031 143.405 46.7762 143.405 46.7762V43.6545C144.24 44.0814 146.17 45.122 147.266 46.0558C148.362 46.9896 149.197 47.8968 149.875 48.6705L149.405 51.8189C148.597 50.9384 147.579 49.8178 146.562 48.8573ZM144.344 54.5137C143.848 50.9384 144.057 49.2842 144.057 49.2842C144.84 49.551 146.17 50.9118 146.614 51.392C146.614 51.392 146.51 51.8723 146.849 54.0601C147.083 55.7144 147.579 57.2352 147.762 57.8755L145.309 59.0495C145.075 58.2491 144.605 56.4348 144.344 54.5137ZM146.196 75.9387C146.483 78.3133 148.414 80.5545 151.127 80.261C152.301 80.1276 153.136 79.5673 153.71 78.9537L153.554 78.7669C153.188 78.42 151.91 77.1927 150.866 75.832C149.849 74.4979 149.353 73.7775 149.249 73.6441L148.962 73.2172C148.988 73.1905 149.327 72.9504 150.345 72.9771C151.467 73.0305 152.536 73.9109 152.849 74.1777C152.849 74.1777 153.371 74.7647 155.041 76.5524C157.024 78.6602 158.459 79.6741 158.693 79.8341C158.693 80.4478 158.537 81.6218 158.302 82.4489C157.389 81.942 156.189 80.9281 155.615 80.4478C155.536 80.3678 155.458 80.3144 155.406 80.2877C154.676 81.1949 153.606 82.0754 151.988 82.5289C151.623 82.6357 151.206 82.689 150.814 82.6624C147.266 82.5556 144.892 79.8608 144.318 77.2194C144.109 76.2322 144.188 74.9782 144.214 74.1244C144.24 73.3773 144.292 72.7103 144.109 72.23C143.927 71.6697 143.666 71.3229 143.483 71.0827C143.327 70.8426 143.196 70.7092 143.327 70.5758C143.509 70.3357 144.135 70.4957 144.709 70.896C145.075 71.1361 145.231 71.4296 145.283 71.5897C145.622 71.056 147.266 68.7615 150.11 68.6547C151.075 68.6281 151.936 68.8415 152.588 69.2684C153.136 69.6153 153.502 70.1222 153.658 70.6291C153.762 71.0294 153.762 71.3495 153.502 71.4829C153.371 71.563 153.058 71.4296 152.641 71.2161C152.041 70.9226 151.101 70.6025 150.006 70.7359C149.118 70.8426 147.866 71.4563 147.005 72.6302C146.327 73.5374 146.04 74.7114 146.196 75.9387ZM134.378 97.337C131.038 100.432 128.456 101.206 125.299 101.739C121.803 102.353 115.124 101.393 115.124 101.393L111.68 90.0264C111.68 90.0264 115.254 93.4682 117.133 94.989C119.011 96.5099 120.759 97.337 123.42 97.337C126.081 97.337 127.882 96.6433 129.838 94.5088C131.795 92.3743 132.526 89.6261 133.021 86.371C133.36 84.0231 133.204 77.5396 133.204 76.0454L133.7 40.8263C133.7 40.8263 133.934 33.2221 133.413 31.3278C132.891 29.4067 131.769 28.0193 131.091 27.2989C129.604 25.6981 126.421 25.1911 126.421 25.1911C125.508 25.031 125.299 24.5775 125.377 24.1239C125.481 23.4568 126.055 23.3501 126.055 23.3501L148.545 23.4035C148.545 23.4035 149.092 23.4568 149.197 24.1506C149.275 24.6041 149.066 25.0577 148.153 25.2178C148.153 25.2178 144.996 25.7514 143.483 27.3256C142.805 28.046 141.683 29.4334 141.161 31.3545C140.639 33.2755 140.874 40.853 140.874 40.853V76.1521C140.874 76.1521 140.952 82.9558 140.092 86.5311C139.465 89.0125 138.083 93.9218 134.378 97.337ZM109.202 95.5227C107.975 98.1641 105.94 100.512 105.549 100.139C105.236 99.8183 105.627 99.5515 105.836 98.7778C106.045 97.9773 106.097 97.8173 106.097 97.8173C106.097 97.8173 105.549 98.6177 103.592 99.8717C101.636 101.126 101.296 101.206 100.957 100.726C100.749 100.405 101.244 100.058 101.714 99.2314C102.157 98.4309 102.027 98.4576 102.027 98.4576C102.027 98.4576 100.357 98.2975 99.0006 97.6838C97.6439 97.0702 96.209 95.6294 96.2351 95.3359C96.2873 94.9624 96.8613 94.7489 97.8787 94.2153C98.9745 93.655 99.7311 92.9346 99.7311 92.9346C99.7311 92.9346 99.0006 92.7478 98.5832 92.5611C97.9309 92.2409 97.2787 91.9207 97.67 91.4938C98.0353 91.147 99.7833 92.3476 102.47 89.7595C104.845 87.465 104.845 84.1031 104.845 84.1031C104.845 84.1031 105.993 88.0253 104.479 91.147C102.601 94.9891 99.0789 95.0157 99.4702 95.8162C99.9398 96.8034 104.245 95.9229 106.097 91.3071C107.636 87.465 106.019 82.5823 104.845 79.6741C104.505 78.8469 104.062 77.7263 103.775 76.8459C104.845 77.3528 105.732 77.5929 106.593 77.6997C106.593 77.6997 106.593 77.6997 106.593 77.7263C106.619 77.7263 106.749 77.9665 106.749 77.9665C107.793 79.6741 109.41 80.261 110.271 80.6079C111.08 80.9281 111.967 81.0882 112.854 81.0882C113.611 81.0882 114.393 80.9814 115.098 80.6879C115.567 80.5012 116.011 80.261 116.35 79.8875C117.394 78.7402 117.655 75.2183 118.124 74.9515C118.333 74.8181 118.855 75.6986 119.063 76.3389C119.272 77.0059 119.168 77.6463 119.559 77.8064C119.846 77.9131 120.003 77.5929 120.603 76.8992C121.438 75.912 121.307 75.5118 121.725 75.6719C122.142 75.832 121.698 78.0198 121.49 79.1938C121.281 80.3945 120.733 82.1287 120.733 82.1287C120.733 82.1287 122.116 81.1949 123.42 80.6079C127.047 78.9537 128.456 79.4606 128.482 79.9142C128.508 80.3678 127.647 80.4478 126.708 81.5951C126.029 82.4222 126.186 82.6357 126.186 82.6357C126.186 82.6357 126.734 82.6624 128.247 82.2088C129.317 81.8886 130.256 81.3817 130.543 81.8352C130.856 82.2888 129.447 84.2365 127.282 85.7574C125.116 87.2782 123.368 87.8652 123.368 87.8652C123.368 87.8652 123.786 88.3188 124.855 88.5055C125.925 88.6923 126.342 88.5322 126.447 88.8524C126.577 89.2793 125.377 89.6528 123.368 89.8663C120.498 90.1598 119.011 88.8791 119.011 88.8791C119.011 88.8791 119.376 89.9463 118.959 91.0136C118.516 92.1075 118.411 93.1214 117.994 93.0413C117.576 92.988 118.072 91.9474 117.263 90.9335C116.402 89.8396 115.411 89.5995 113.95 88.4255C112.515 87.3049 112.463 86.3977 112.463 86.3977C112.463 86.3977 114.967 87.3582 119.063 86.6912C123.003 86.0509 124.229 84.8502 123.942 84.3966C123.681 83.9964 123.029 84.5033 121.177 84.9569C119.011 85.4639 116.063 85.3305 112.802 84.7702C111.654 84.5834 110.089 84.0231 108.68 83.0626C109.228 84.1832 110.141 86.1843 110.35 87.6251C110.741 90.0797 110.428 92.8546 109.202 95.5227ZM106.671 59.3697C106.827 58.2758 107.454 57.1018 107.819 56.5948C109.254 56.328 110.167 57.1285 110.297 57.2619C109.515 58.8094 109.019 60.517 108.575 62.2246C108.054 62.0111 107.297 61.2374 106.671 59.3697ZM107.01 70.9226C106.28 70.8426 104.401 69.5619 104.297 69.2417C104.297 68.5747 104.453 67.0805 104.714 66.2001C105.653 67.881 107.193 68.6014 107.193 68.6014C106.932 69.6686 107.01 70.9226 107.01 70.9226ZM99.3137 56.1146C99.4963 55.581 99.6528 55.2074 99.8094 54.8873C100.122 54.1669 100.305 53.74 100.357 52.7528C100.436 51.6055 100.096 50.725 99.8876 50.4849C100.175 50.5115 101.062 50.9118 101.401 51.6588C101.688 52.2725 102.105 53.8734 102.053 54.1402C102.027 54.1935 102.079 54.2202 102.079 54.2469C102.131 54.2736 102.184 54.2469 102.392 54.0868C102.992 53.6332 104.819 52.2191 108.054 52.1925H108.106C114.054 52.1925 116.663 57.8222 116.689 57.8755L116.715 57.9022H116.741C116.768 57.9022 117.55 58.1424 119.142 57.4487C119.768 57.1818 120.133 56.835 120.498 56.5148C121.098 55.9812 121.62 55.5009 123.055 55.4742C124.516 55.4209 125.612 56.2747 125.794 56.8617C125.847 56.9951 125.847 57.2085 125.69 57.3152C125.481 57.4753 125.429 57.4486 125.299 57.3953C125.09 57.2886 124.751 57.1285 123.681 57.3152C122.768 57.4487 122.351 58.3291 121.907 59.2363C121.411 60.2235 120.916 61.2374 119.768 61.5309C118.724 61.8244 117.498 61.0773 117.263 60.7038C117.211 60.597 117.107 60.4636 116.976 60.4903C116.872 60.517 116.82 60.6771 116.82 60.7304C116.82 60.7304 116.794 61.6643 116.22 63.2918C115.698 64.786 113.298 68.3612 108.575 67.0539C105.68 66.2534 104.558 63.4786 104.688 61.771C104.74 61.2107 104.897 60.8372 105.158 60.8105C105.366 60.7838 105.549 60.9439 105.601 61.104C105.81 61.7443 106.045 62.3847 106.384 62.9183C106.854 63.6654 107.714 64.5725 108.758 64.8126C111.106 65.3463 112.541 64.1189 112.802 63.8521C113.689 62.9983 114.185 61.5842 114.106 60.0634C114.002 58.1157 113.011 56.8883 112.176 56.1946C111.132 55.3142 109.776 54.7805 108.445 54.7539C108.419 54.7539 108.367 54.7539 108.341 54.7539C106.619 54.7539 104.871 55.4742 103.514 56.7016C101.792 58.2758 100.801 60.6237 100.592 63.4786C100.409 65.9333 101.401 68.6547 103.149 70.6025C104.505 72.1233 106.201 72.9504 107.897 72.9771C107.923 72.9771 107.949 72.9771 108.001 72.9771C112.489 72.9771 115.385 70.1489 118.437 67.1606C121.307 64.3591 124.255 61.4775 128.899 60.1434C129.238 60.0367 130.83 59.9033 131.169 59.8766L131.091 62.4647C128.482 62.9716 124.855 64.6792 125.038 66.5202C125.221 68.3346 126.368 69.3218 126.916 69.802C127.047 69.9088 127.177 70.0155 127.177 70.0422C127.177 70.0688 127.125 70.0955 126.942 70.1756C126.447 70.3623 125.299 70.4957 124.412 70.0688C123.212 69.5085 122.038 67.5074 122.012 67.4808L121.959 67.4007L121.907 67.4808C121.881 67.5074 118.333 71.3229 116.402 72.7636C115.15 73.6975 111.837 76.1788 107.923 75.9921C105.21 75.8587 102.705 74.6046 100.879 72.4435C98.9484 70.1756 97.9048 67.0272 97.9309 63.612C97.9309 60.4903 98.2701 59.0762 99.3137 56.1146ZM107.975 23.4035C108.001 23.4035 110.767 23.1633 113.402 24.2306C114.55 24.7109 115.385 25.2978 116.115 25.8315H116.141C117.237 26.6052 118.072 27.2456 119.298 26.8454C120.681 26.4185 120.968 25.2978 121.151 24.5508C121.203 24.364 121.281 24.0438 121.333 24.0171C121.385 23.9905 121.646 24.0972 121.855 24.444C122.116 24.8443 122.794 26.3384 120.968 29.0599C119.95 30.554 118.307 30.8742 118.229 30.8742C118.15 30.8742 118.098 30.9276 118.046 30.9809C118.02 31.0343 117.994 31.1143 118.02 31.1944C118.124 31.5679 118.124 31.8614 118.15 32.1282C118.229 33.0621 118.124 33.9692 117.524 35.49C116.585 37.8113 114.706 39.2254 112.228 39.5456C109.828 39.8391 107.871 38.4517 107.167 36.9308C106.54 35.5167 106.488 33.8892 107.062 32.4217C107.193 32.0482 107.454 31.7547 107.662 31.7013C107.767 31.6746 107.845 31.7013 107.923 31.7814C108.132 31.9415 108.132 32.3684 108.158 32.9287C108.184 33.489 108.21 34.1827 108.445 34.9031C108.81 36.0237 110.036 37.0909 111.602 36.9575C114.002 36.7441 115.437 35.0098 115.489 32.3417C115.541 29.5401 113.793 26.2317 108.68 26.0983C108.602 26.0983 108.549 26.0983 108.471 26.0983C106.54 26.0983 104.766 26.872 103.358 28.3128C101.74 30.0204 100.696 32.5818 100.644 35.0365C100.566 39.8124 102.992 42.5872 105.027 44.0814C107.088 45.5755 110.323 45.6823 114.367 44.3749C115.75 43.9213 117.237 43.3076 118.672 42.694H118.698C119.924 42.187 121.177 41.6534 122.377 41.1998C123.081 40.9597 123.838 40.7462 124.62 40.6128L124.725 40.5862L124.647 40.4794C124.333 40.0525 123.942 39.4922 123.42 38.7718C122.377 37.2777 122.09 34.5295 122.429 33.9692C122.585 33.7291 122.742 33.6757 122.82 33.6757C122.872 33.6757 122.925 33.7024 122.925 33.7024C122.925 33.7291 122.925 33.8625 122.925 33.8892C122.925 34.0226 122.925 34.6629 123.212 34.9831C123.577 35.41 124.073 35.49 124.281 35.3833C124.36 35.33 124.412 35.2766 124.438 35.1966C124.516 34.9564 124.881 33.7825 125.508 32.8219C126.029 32.0215 127.673 30.7942 128.638 30.7942C128.664 30.7942 128.69 30.7942 128.717 30.7942C128.977 30.8208 129.16 30.9276 129.264 31.141C129.395 31.4078 128.977 31.8614 128.847 31.9948C128.012 32.902 127.021 34.236 126.942 36.4506C126.916 37.4911 127.203 38.3449 127.803 39.012C128.951 40.266 130.934 40.4261 131.325 40.4261V42.7206C131.273 42.7206 131.195 42.7206 131.143 42.7206C129.186 42.7206 127.621 45.1486 127.099 47.63C126.655 49.6577 127.047 52.5126 127.203 53.3664C127.36 54.1402 127.229 54.327 127.177 54.3536C127.151 54.3803 127.125 54.3803 127.047 54.3803C126.629 54.3003 125.873 53.3931 125.038 52.0057C124.412 50.9918 124.594 49.7111 124.699 49.0174C124.751 48.6439 124.777 48.4838 124.647 48.3771L124.62 48.3504C124.542 48.2703 124.412 48.1903 124.255 48.1903C124.255 48.1903 124.255 48.1903 124.229 48.1903C124.046 48.1903 123.838 48.3237 123.603 48.5638C123.42 48.7773 123.316 48.9107 123.264 49.0174C123.159 49.1775 123.159 49.1775 122.899 49.0708C122.899 49.0708 122.872 49.0708 122.846 49.0174C122.664 48.5105 123.212 46.7495 123.916 45.5222C124.464 44.535 125.064 43.8146 125.899 43.1475L126.134 42.9608L125.821 43.0408C122.977 43.7078 120.133 44.8551 118.385 46.0825C116.141 47.63 114.315 49.471 112.985 51.5254C112.75 51.3653 112.515 51.2586 111.941 50.9918C111.576 50.8317 111.028 50.645 110.61 50.5916C111.158 49.8178 112.124 48.7773 112.515 48.3504L112.541 48.3237C112.593 48.2436 112.593 48.1102 112.515 48.0302C112.437 47.9502 112.332 47.9235 112.228 47.9502C112.124 48.0035 109.593 48.9907 105.132 47.2831C101.505 45.8957 97.7222 41.8668 97.9309 34.7697C98.1918 27.5124 103.149 23.8304 107.975 23.4035ZM92.3478 107.663H180.869V17H92.3478V107.663Z" fill="white"/>
</svg>
