<svg width="71" height="102" viewBox="0 0 111 152" fill="none" xmlns="http://www.w3.org/2000/svg">
<path d="M27.677 134.797C24.9315 132.925 22.3438 131.147 22.3438 127.656C22.3438 125.593 23.543 123.403 26.9196 123.403C29.8229 123.403 31.6532 124.926 32.2213 127.783C32.2213 127.846 32.2844 127.91 32.3475 127.91H32.5684C32.6 127.91 32.6315 127.91 32.6631 127.878C32.6946 127.846 32.6946 127.815 32.6946 127.783C32.6631 127.212 32.6631 126.228 32.6631 125.656C32.6631 124.672 32.6946 123.974 32.7893 123.085C32.7893 123.054 32.7893 122.99 32.7577 122.959C32.7262 122.927 32.6946 122.927 32.6315 122.927C32.4106 122.959 32.2213 122.959 32.0004 122.959C31.3377 122.959 30.6749 122.832 29.9807 122.705C29.0971 122.546 28.1188 122.355 26.8565 122.355C22.5647 122.355 19.5352 125.275 19.5352 129.465C19.5352 133.877 22.6278 135.972 25.5942 138.035C28.4659 140.003 31.1483 141.843 31.1483 145.589C31.1483 149.112 28.5606 150.699 26.0044 150.699C23.0381 150.699 20.0717 149.048 20.0717 145.938C20.0717 145.684 20.1032 145.398 20.1348 145.113V144.986C20.1348 144.954 20.1348 144.89 20.1032 144.89C20.0717 144.859 20.0401 144.859 20.0085 144.859H19.8823C19.8192 144.859 19.7876 144.89 19.7561 144.954C19.3143 145.938 19.2827 147.112 19.2827 147.461C19.2827 147.969 19.3458 148.445 19.3774 148.89C19.4405 149.334 19.4721 149.715 19.4721 150.159C19.4721 150.508 19.4721 150.953 19.4405 151.143C19.4405 151.175 19.4405 151.238 19.4721 151.27C19.5036 151.302 19.5352 151.302 19.5983 151.302C19.8192 151.27 19.9139 151.27 20.1663 151.27C21.0184 151.27 21.7126 151.429 22.4385 151.587C23.3221 151.778 24.3319 152 25.752 152C30.5803 152 33.9569 148.699 33.9569 143.938C33.9254 139.082 30.7381 136.924 27.677 134.797Z" fill="white"/>
<path d="M81.7985 137.432C81.7985 145.62 77.7592 150.699 71.2583 150.699C64.8206 150.699 61.0022 145.652 61.0022 137.178C61.0022 130.862 63.6846 123.466 71.2583 123.466C76.1497 123.466 81.7985 127.116 81.7985 137.432ZM71.6055 122.324C62.5169 122.324 57.1206 129.941 57.1206 137.305C57.1206 144.478 62.4223 151.873 71.2899 151.873C79.3686 151.873 85.7117 145.43 85.7117 137.178C85.6801 128.862 79.4948 122.324 71.6055 122.324Z" fill="white"/>
<path d="M102.721 131.052C102.721 133.877 101.964 137.654 95.5259 137.654H93.7271V123.942C94.8632 123.625 95.6206 123.562 96.5042 123.562C100.26 123.593 102.721 126.513 102.721 131.052ZM110.673 151.365C108.338 150.572 105.624 145.684 103.636 142.129C102.5 140.098 101.616 138.479 100.954 137.844C104.33 136.511 106.35 133.813 106.35 130.544C106.35 125.593 102.563 122.387 96.6935 122.387C96.2833 122.387 95.6206 122.419 94.8948 122.419C94.0743 122.451 93.1591 122.451 92.4964 122.451C90.7292 122.451 90.0033 122.451 88.6464 122.355C88.6148 122.355 88.5833 122.355 88.5517 122.387C88.5202 122.419 88.5201 122.451 88.5201 122.482V122.673C88.5201 122.736 88.5833 122.8 88.6464 122.8C90.0033 123.022 90.4767 123.562 90.4767 126.323V147.906C90.4767 151.111 89.9718 151.207 88.5833 151.429C88.5202 151.429 88.457 151.492 88.457 151.556V151.746C88.457 151.778 88.457 151.81 88.4886 151.841C88.5201 151.873 88.5517 151.873 88.5833 151.873C89.4038 151.841 90.5398 151.778 92.0861 151.778C93.7271 151.778 95.0841 151.841 95.589 151.873C95.6206 151.873 95.6521 151.873 95.6837 151.841C95.7153 151.81 95.7152 151.778 95.7152 151.746V151.556C95.7152 151.492 95.6521 151.429 95.589 151.429C94.2005 151.207 93.6956 151.111 93.6956 147.906V138.796H96.1255C96.5673 138.796 97.1353 138.733 97.7665 138.638C98.4607 139.304 99.2812 140.86 99.7862 141.812C99.8808 142.002 99.9755 142.193 100.07 142.32C104.804 151.238 105.309 151.778 109.569 151.937C110.042 151.937 110.232 151.937 110.579 151.905C110.642 151.905 110.705 151.841 110.705 151.778V151.524C110.768 151.46 110.737 151.397 110.673 151.365Z" fill="white"/>
<path d="M57.4043 122.323C57.3728 122.291 57.3412 122.26 57.2781 122.26C55.3846 122.292 45.4125 122.45 36.4817 122.26C36.4186 122.26 36.3555 122.292 36.3555 122.355C36.1661 123.085 36.0084 123.72 35.819 124.323C35.5981 125.085 35.4088 125.783 35.251 126.513C35.251 126.545 35.251 126.608 35.2825 126.64C35.3141 126.672 35.3456 126.703 35.3772 126.703H35.5666C35.6297 126.703 35.6612 126.672 35.6928 126.608C36.8604 124.132 38.7223 124.101 44.8444 124.101V147.842C44.8444 151.047 44.3395 151.143 42.951 151.365C42.8879 151.365 42.8248 151.428 42.8248 151.492V151.682C42.8248 151.714 42.8248 151.746 42.8563 151.777C42.8879 151.809 42.9194 151.809 42.951 151.809C43.7399 151.777 44.876 151.714 46.4223 151.714C48.0633 151.714 49.3887 151.777 49.8936 151.809C49.9252 151.809 49.9567 151.809 49.9883 151.777C50.0199 151.746 50.0199 151.714 50.0199 151.682V151.492C50.0199 151.428 49.9568 151.365 49.8936 151.365C48.5367 151.143 48.0002 151.047 48.0002 147.842V124.101C55.0375 124.101 55.9842 124.386 55.9842 125.465C55.9842 125.656 55.9527 125.91 55.9211 126.037C55.9211 126.068 55.9211 126.132 55.9527 126.164C55.9842 126.195 56.0158 126.227 56.0473 126.227H56.2998C56.3629 126.227 56.426 126.164 56.426 126.1C56.5523 125.465 56.9941 123.529 57.3412 122.45C57.4359 122.418 57.4359 122.355 57.4043 122.323Z" fill="white"/>
<path d="M15.9063 122.292C15.1174 122.324 13.571 122.355 12.2456 122.355C10.8255 122.355 9.24767 122.324 8.42718 122.292C8.39562 122.292 8.36406 122.292 8.33251 122.324C8.30095 122.355 8.30095 122.387 8.30095 122.419V122.609C8.30095 122.673 8.36406 122.736 8.42718 122.736C9.81571 122.959 10.7309 123.117 10.7309 126.132V143.684C10.7309 146.985 9.153 150.572 6.6284 150.572C6.15504 150.572 5.71324 150.54 5.30299 150.477C3.53577 150.032 2.43126 148.794 1.76856 147.906C1.67388 147.779 1.57921 147.652 1.5161 147.525C0.790275 146.414 0.443143 145.462 0.443143 145.43C0.411585 145.335 0.316913 145.303 0.22224 145.303C0.127568 145.335 0.0644531 145.398 0.0644531 145.525L0.664045 150.127C0.664045 150.191 0.695602 150.254 0.758717 150.286C2.43126 151.365 4.4825 151.683 4.86119 151.714C5.52389 151.81 6.06037 151.841 6.37594 151.841C6.6284 151.841 6.78619 151.841 6.78619 151.841C11.0149 151.841 13.8551 148.382 13.8551 143.24V126.132C13.8551 123.181 14.5493 123.054 15.9379 122.736L16.001 122.705C16.0641 122.705 16.0956 122.641 16.0956 122.578V122.387C16.0956 122.355 16.0956 122.324 16.0641 122.292C15.9694 122.292 15.9379 122.292 15.9063 122.292Z" fill="white"/>
<path d="M102.91 48.0852C101.963 48.72 100.953 48.8152 100.922 48.8152C100.89 48.8152 100.859 48.8469 100.859 48.8787C100.859 48.9104 100.859 48.9422 100.89 48.9739C100.922 49.0056 103.478 51.2274 103.73 54.2426C104.014 57.3214 103.541 59.0353 101.995 60.4953C100.764 61.6697 98.9653 61.8284 98.3026 61.6697C98.1448 61.6379 98.1132 61.6062 98.1132 61.5744C98.0186 61.1936 98.5866 60.781 99.2809 60.3049C99.4387 60.2096 99.5964 60.0827 99.7542 59.9875C100.638 59.3527 101.111 58.3053 100.827 57.734C100.733 57.5435 100.575 57.5118 100.385 57.5118C100.228 57.5118 100.07 57.5753 99.8805 57.6388C99.5333 57.734 99.1546 57.8609 98.9653 57.6388C98.7444 57.4166 98.8391 57.2261 99.0284 56.8453C99.1862 56.5279 99.3755 56.147 99.4071 55.6074C99.5018 54.4331 99.344 51.3544 97.703 51.0052C97.6399 51.0052 97.5768 51.0052 97.5136 51.037C97.3559 51.1639 97.3559 51.5448 97.3559 52.1478C97.3559 52.9413 97.3243 53.9887 96.8825 54.687C96.1882 55.7661 95.0837 56.5914 94.5788 56.5914C94.4526 56.5914 94.3895 56.5596 94.3263 56.4961C94.2632 56.4009 94.2948 56.147 94.3895 55.7661C94.5788 54.8774 94.8944 53.227 94.421 50.1483C94.2632 49.0691 93.6005 47.8948 93.0009 46.7839C92.4013 45.7047 91.8333 44.6573 91.7071 43.7686C91.4862 42.1182 91.6755 41.4199 92.5907 40.7217C93.1272 40.309 93.2218 39.9282 93.2218 39.6743C93.2218 39.4203 93.0956 38.9442 92.6538 38.7855C92.6222 38.7855 92.6222 38.7855 92.5907 38.7538C92.3698 38.6903 91.9911 38.6586 91.5809 38.6586C89.8452 38.6903 85.7743 38.7221 82.9026 34.7864C80.5673 31.6124 80.4095 28.6289 80.8513 25.1059V25.0741C80.8513 25.0106 80.5989 23.7093 79.4943 22.6937C78.9579 22.2176 78.4214 21.9319 78.0427 21.7415C77.8218 21.6145 77.5693 21.5193 77.5693 21.4241C77.5693 21.4241 77.5693 21.3606 77.6325 21.3289C77.9165 21.0432 78.8948 20.6306 80.2517 20.821C81.2616 20.9797 81.9874 21.3924 81.9874 21.3924C82.0189 21.4241 82.0505 21.3924 82.0821 21.3606C82.1136 21.3289 84.7644 18.1867 89.1825 18.5358C91.8333 18.7262 94.3579 21.3289 94.421 24.1537C94.4841 26.9785 93.1903 28.4702 92.0542 28.8511C91.139 29.1685 90.287 29.1368 89.7821 28.7876C89.5612 28.6289 89.4034 28.4068 89.4034 28.1528C89.4034 27.9307 89.5927 27.8037 89.9714 27.6133C90.6026 27.2959 91.5808 26.7881 91.7071 25.0106C91.7702 24.0902 91.4546 23.1698 90.855 22.535C90.4448 22.0906 89.719 21.5511 88.5198 21.6145C86.9735 21.678 85.7112 22.2811 84.8591 23.3919C83.7862 24.7885 83.4075 26.9785 83.8177 29.4859C84.4173 33.1359 87.9202 35.6751 91.7702 35.2625C94.0423 35.0403 96.1567 33.739 97.7661 31.6442C99.2809 29.6763 100.164 27.1372 100.196 24.6933C100.259 18.5993 96.7563 12.3149 88.7407 11.9975C81.0722 11.7118 76.307 16.5045 74.1296 19.361C72.7726 21.1384 71.3525 24.5346 70.3111 27.2959C70.7845 27.2007 72.2677 27.0102 73.5931 27.6768C74.9501 28.3433 76.5279 29.9937 76.2439 30.692C76.1808 30.8824 75.7706 30.7872 75.171 30.6285C74.382 30.4063 73.2775 30.4698 72.0468 30.6603C69.9324 30.9459 69.0804 31.3585 68.8279 31.5807L68.9542 31.1998C68.891 31.422 68.8279 31.5807 68.8279 31.5807L65.9562 29.8033C66.3664 27.9942 68.1968 20.4084 72.7726 15.4253C77.4747 10.3153 83.1235 8.63312 88.1095 8.60138C90.8235 8.56964 93.3165 8.98225 95.3677 9.45834C95.6202 9.52182 95.8411 9.55356 96.062 9.61704C98.0186 10.0614 100.07 10.474 101.521 10.0931C102.31 9.90269 102.973 9.5853 103.478 9.33138C103.794 9.17269 104.109 9.01399 104.172 9.04573C104.172 9.04573 104.204 9.07747 104.204 9.10921C104.267 9.4266 103.983 10.4423 103.068 11.6801C102.5 12.4736 101.774 12.9179 101.269 13.2671C100.796 13.5527 100.48 13.7749 100.48 14.0923C100.48 14.251 100.638 14.5366 100.922 15.0445C101.805 16.6314 103.636 19.9641 103.415 24.6615C103.068 31.8664 99.6596 34.9451 97.3874 37.0081L97.1034 37.2621H97.0718C95.5571 39.0077 95.7464 40.6264 96.1882 41.6421C96.8509 43.1973 98.3026 44.4986 100.164 45.1652C101.237 45.546 102.405 45.673 103.257 45.7682C103.888 45.8317 104.519 45.8952 104.583 46.0539C104.803 46.5617 104.204 47.26 102.91 48.0852ZM103.194 73.0006C102.5 77.095 100.196 78.8407 98.2395 79.0946C98.0817 79.1263 97.9239 79.1263 97.7977 79.1263C97.2296 79.1263 96.7878 78.9676 96.6616 78.7137C96.63 78.6185 96.5985 78.5233 96.63 78.4281C96.6932 78.2694 96.9141 78.1741 97.2296 78.0789C97.6083 77.952 98.1448 77.7298 98.7128 77.2854C100.385 75.9524 100.291 75.3811 100.228 74.9367C100.228 74.8733 100.196 74.8415 100.164 74.8415C100.07 74.778 99.8173 74.905 99.5333 75.0637L99.4071 75.1272C99.0284 75.3176 98.6813 75.3493 98.3973 75.2224C98.2395 75.1272 98.1448 75.0002 98.1132 74.8415C98.0817 74.6511 98.3026 74.4606 98.555 74.2067C98.7759 74.0163 99.0284 73.7941 99.1862 73.5402C100.038 72.2071 100.196 70.5884 99.5333 69.3189C99.06 68.3667 98.3657 67.478 96.3145 67.2875C96.2829 67.2875 96.2198 67.2875 96.1882 67.2875H96.1251C95.8727 67.2875 95.5886 67.3193 95.2731 67.3828C93.0009 67.8271 91.4862 69.3506 90.4763 70.9693C90.4763 71.001 90.4448 71.0328 90.4448 71.0328C89.0563 73.0958 88.7091 76.2698 88.6144 76.8728V76.9046C88.1726 79.7929 87.2259 84.0777 81.1984 91.5999C80.5042 92.4569 79.9677 93.6947 80.3148 95.0912C80.946 97.5034 83.2497 97.7256 83.2181 97.9795C83.1866 98.3287 82.7132 98.3287 81.8612 98.2652C81.0091 98.2017 80.6935 97.9161 80.6935 97.9161C80.6935 97.9161 80.4726 98.4556 81.8927 99.503C82.9657 100.297 84.1964 100.265 84.228 100.614C84.2595 101.027 77.5693 102.582 77.1591 95.7895C77.1591 95.6308 77.1275 95.4721 77.1275 95.3134C69.9009 101.979 67.7865 102.296 67.2501 101.598C66.9976 101.249 67.6919 101.344 69.0804 99.7569C70.5005 98.1382 70.532 97.4082 70.532 97.4082C70.532 97.4082 67.7234 98.9317 64.4414 98.6461C61.0964 98.3287 58.2877 95.9799 58.5402 95.0595C58.7295 94.266 60.7177 95.6308 63.116 95.2499C65.3251 94.9008 65.5144 94.0121 65.5144 94.0121C65.5144 94.0121 65.0726 94.0121 64.3468 93.2504C63.6209 92.4886 62.548 91.8538 63.1476 91.219C63.4947 90.8382 65.1673 91.5999 66.8083 91.6317C68.891 91.6317 70.2165 91.1556 70.2165 91.1556C70.2165 91.1556 69.3644 90.8382 68.4808 89.9812C67.5972 89.0925 67.4078 88.2038 67.6603 87.9816C67.8181 87.8547 68.1652 88.5529 69.3328 88.5529C70.6898 88.5212 70.8476 88.2038 70.8476 88.2038C70.8476 88.2038 70.2796 87.6642 69.9956 87.1564C69.7431 86.6168 68.9226 85.0933 69.4275 84.522C69.5853 84.3316 71.1316 86.236 73.4038 86.4581C77.3169 86.8073 81.6087 83.6968 81.6087 83.6968C81.6087 83.6968 79.4943 86.2994 75.0132 90.2034C72.1415 92.6791 68.5124 94.7104 68.7333 95.1865C68.9857 95.7578 71.8259 95.0912 76.7488 90.9651C78.3267 89.6321 79.3366 88.7751 81.4825 86.109C85.2694 81.4116 86.1214 76.2698 85.364 72.1437C85.0485 70.5249 84.6382 69.0649 84.1333 67.8271C82.0189 63.2566 79.7468 61.0031 75.9599 59.5431C72.5833 58.2418 69.9956 59.4162 68.4177 60.1462C67.6287 60.527 67.0923 60.7492 66.8714 60.4318C66.1771 59.4479 67.5656 58.1148 68.7964 56.9405C70.3742 55.4487 71.4156 54.8457 71.6997 54.7187C71.4156 54.5918 70.4058 54.0839 69.4275 54.0205C68.9226 53.9887 68.3546 54.0839 67.8496 54.1474C67.0607 54.2744 66.4296 54.3696 66.3349 53.957C66.1771 53.1635 69.396 51.7352 71.1316 51.1639C72.8988 50.5926 74.3189 50.4974 74.5714 50.4974C74.5398 50.1165 74.2558 47.133 74.5714 42.7847C74.7292 40.4995 75.171 38.9125 75.4865 37.9921C75.8968 36.8177 76.3702 36.0242 76.7804 35.7703C76.9382 35.6751 77.1275 35.6751 77.2538 35.7386C77.5378 35.8973 77.5378 36.5003 77.5378 37.389C77.5378 37.9286 77.5378 38.6269 77.6009 39.3569C77.7902 41.5469 78.4845 42.753 78.8948 43.0069C78.9579 43.0386 79.021 43.0704 79.0525 43.0386C79.2103 42.9752 79.2419 42.6895 79.305 42.3086C79.3997 41.8008 79.4943 41.0708 79.9361 40.1821C80.6304 38.6903 82.0189 36.9447 82.4923 37.0716C82.6185 37.1034 82.6501 37.2621 82.6501 37.4842C82.6185 38.1825 82.4923 38.7855 82.3976 39.4203C82.1767 40.7534 81.9243 42.2451 82.0821 45.0382C82.2714 49.1326 84.1648 49.6722 84.4173 49.7356C84.5435 49.5135 85.4587 47.9265 86.7841 46.4982C87.0681 46.2126 87.3206 45.8952 87.6046 45.6095C88.4251 44.6573 89.0878 43.9273 89.5612 43.9273H89.5927C89.719 43.9273 89.8452 44.0226 89.9083 44.1495C90.0661 44.4034 89.8136 45.07 89.3718 46.1491C88.7722 47.6408 87.8571 49.8943 87.4468 52.6557C86.6894 57.9561 87.4468 63.0979 87.4784 63.1297L87.5415 63.5105L87.4153 63.1614C87.4153 63.1614 86.9735 61.8918 85.1116 59.1622C84.2911 57.9244 83.6284 57.1944 82.9972 56.4961C82.2083 55.6074 81.4509 54.7822 80.4095 53.0048C79.2103 50.9735 78.8948 49.45 78.7054 48.4343C78.5476 47.5774 78.4529 47.1647 77.9796 47.1013C77.9165 47.1013 77.8849 47.133 77.8218 47.1965C77.4116 47.863 77.6325 51.5765 78.7685 53.7665C79.3681 54.9409 80.0939 55.8931 80.9144 56.9722C81.7665 58.0831 82.7132 59.3209 83.8808 61.2253C85.9952 64.6849 87.0366 67.2241 87.5415 68.7475C87.6677 69.1284 87.7624 69.4458 87.8571 69.7315C88.1095 69.2236 88.5198 68.6206 88.646 68.4936C92.3698 64.3675 95.6202 64.0819 97.8608 64.6214H97.8923C99.5018 64.9706 100.953 65.9227 101.963 67.351C103.005 69.0015 103.51 71.0963 103.194 73.0006ZM102.373 93.7899C102.373 93.8217 102.342 93.8534 102.342 93.9169C101.521 96.8369 99.7542 98.8365 97.2927 99.5665C96.5354 99.7887 95.8095 99.9156 95.1468 99.9156C93.5059 99.9156 92.1173 99.2808 90.6341 98.3287C90.5395 98.2969 89.719 98.17 88.8669 98.6461C88.4251 98.9 88.1411 99.1856 87.9202 99.4078C87.7308 99.5982 87.6046 99.7252 87.4784 99.6935C87.4468 99.6935 87.3837 99.63 87.3521 99.5665C87.2259 99.2491 87.2259 98.3921 87.7624 97.44C88.078 96.8369 88.4567 96.456 88.5829 96.3608C88.4251 95.9799 87.3521 93.3456 88.7091 90.4256C89.6243 88.4577 92.0227 87.4103 93.853 88.1721C95.6833 88.9338 96.2514 90.3621 96.1882 91.3143C96.1251 92.1077 95.8411 92.7743 95.4624 93.0599C95.2731 93.1869 95.0522 93.2186 94.8944 93.1551C94.6735 93.0599 94.6419 92.806 94.6419 92.4886C94.6104 91.949 94.5788 91.1873 93.569 90.616C93.064 90.3303 92.4645 90.2986 91.9595 90.5208C91.5808 90.6795 91.0759 91.0603 90.7919 91.8856C90.4132 92.9964 90.4448 94.0756 90.9181 94.9643C91.4862 96.0752 92.6854 96.9004 94.2948 97.2813C96.6616 97.8526 99.1231 96.0752 99.912 93.2504C100.133 92.3934 100.259 91.4095 99.9436 90.3621C99.3124 88.2673 97.8923 86.3629 94.4526 84.6807C93.285 84.1094 90.855 83.0303 89.9083 82.5859C90.4448 81.0624 90.5079 80.5863 90.6657 80.0468C90.9813 79.5389 91.8649 78.7137 92.7169 78.4915C93.6952 78.2694 94.8628 78.7455 94.8313 78.9359C94.7997 79.1263 93.5059 79.4437 92.78 81.1259C93.064 81.2529 95.494 81.9194 97.5768 83.2842C101.08 85.5694 102.058 87.9816 102.342 89.0608C102.847 90.8382 102.752 92.4886 102.373 93.7899ZM68.4177 37.8968C66.3033 35.929 64.5992 35.4212 64.5992 35.4212V31.7077C65.6091 32.2155 67.9443 33.4533 69.2697 34.5642C70.5951 35.6751 71.605 36.7542 72.4255 37.6747L71.8574 41.4199C70.8792 40.3725 69.6484 39.0395 68.4177 37.8968ZM65.7353 44.6256C65.1357 40.3725 65.3882 38.4047 65.3882 38.4047C66.3349 38.7221 67.9443 40.3408 68.4808 40.9121C68.4808 40.9121 68.3546 41.4834 68.7648 44.086C69.0488 46.0539 69.6484 47.863 69.8693 48.6248L66.9029 50.0213C66.6189 49.0691 66.0509 46.9108 65.7353 44.6256ZM67.9759 70.1123C68.323 72.9371 70.6583 75.6033 73.9402 75.2541C75.3603 75.0954 76.3702 74.4289 77.0644 73.6989L76.8751 73.4767C76.4333 73.0641 74.887 71.6041 73.6247 69.9854C72.3939 68.3984 71.7943 67.5415 71.6681 67.3828L71.321 66.8749C71.3525 66.8432 71.7628 66.5575 72.9935 66.5893C74.3505 66.6527 75.6443 67.7001 76.023 68.0175C76.023 68.0175 76.6542 68.7158 78.6739 70.8423C81.0722 73.3498 82.8079 74.5559 83.0919 74.7463C83.0919 75.4763 82.9025 76.8728 82.6185 77.8568C81.514 77.2537 80.0624 76.0476 79.3681 75.4763C79.2734 75.3811 79.1788 75.3176 79.1157 75.2859C78.232 76.365 76.9382 77.4124 74.9816 77.952C74.5398 78.0789 74.0349 78.1424 73.5615 78.1107C69.2697 77.9837 66.398 74.778 65.7037 71.6358C65.4513 70.4615 65.546 68.9697 65.5775 67.9541C65.6091 67.0654 65.6722 66.2719 65.4513 65.7006C65.2304 65.034 64.9148 64.6214 64.6939 64.3358C64.5046 64.0501 64.3468 63.8914 64.5046 63.7327C64.7255 63.4471 65.4828 63.6375 66.1771 64.1136C66.6189 64.3992 66.8083 64.7484 66.8714 64.9388C67.2816 64.304 69.2697 61.5744 72.7095 61.4475C73.8771 61.4157 74.9185 61.6697 75.7075 62.1775C76.3702 62.5901 76.812 63.1931 77.0013 63.7962C77.1275 64.2723 77.1275 64.6532 76.812 64.8119C76.6542 64.9071 76.2755 64.7484 75.7706 64.4945C75.0447 64.1453 73.9087 63.7645 72.5833 63.9232C71.5103 64.0501 69.9956 64.7801 68.9542 66.1767C68.1337 67.2558 67.7865 68.6523 67.9759 70.1123ZM53.6804 95.5673C49.641 99.2491 46.5168 100.17 42.6984 100.804C38.4697 101.534 30.391 100.392 30.391 100.392L26.2254 86.8708C26.2254 86.8708 30.5487 90.9651 32.8209 92.7743C35.093 94.5834 37.2074 95.5673 40.4262 95.5673C43.6451 95.5673 45.8226 94.7421 48.1894 92.203C50.5562 89.6638 51.4398 86.3947 52.0394 82.5224C52.4496 79.7294 52.2603 72.0167 52.2603 70.2393L52.8599 28.3433C52.8599 28.3433 53.1439 19.2976 52.5127 17.0441C51.8816 14.7588 50.5246 13.1084 49.7041 12.2514C47.9053 10.347 44.0553 9.744 44.0553 9.744C42.9508 9.55356 42.6984 9.01399 42.793 8.47442C42.9193 7.68094 43.6135 7.55398 43.6135 7.55398L70.816 7.61746C70.816 7.61746 71.4788 7.68093 71.605 8.50616C71.6997 9.04573 71.4472 9.5853 70.3427 9.77574C70.3427 9.77574 66.5242 10.4105 64.6939 12.2831C63.8734 13.1401 62.5164 14.7906 61.8853 17.0758C61.2541 19.361 61.5382 28.375 61.5382 28.375V70.3662C61.5382 70.3662 61.6328 78.4598 60.5914 82.7129C59.8341 85.6646 58.1615 91.5047 53.6804 95.5673ZM23.2274 93.4091C21.7442 96.5513 19.2827 99.3443 18.8094 98.9C18.4307 98.5191 18.904 98.2017 19.1565 97.2813C19.409 96.3291 19.4721 96.1386 19.4721 96.1386C19.4721 96.1386 18.8094 97.0908 16.4426 98.5826C14.0758 100.074 13.6655 100.17 13.2553 99.5982C13.0028 99.2174 13.6024 98.8048 14.1704 97.8208C14.7069 96.8687 14.5491 96.9004 14.5491 96.9004C14.5491 96.9004 12.5294 96.71 10.8885 95.9799C9.24747 95.2499 7.51181 93.536 7.54337 93.1869C7.60648 92.7425 8.30075 92.4886 9.53149 91.8538C10.8569 91.1873 11.7721 90.3303 11.7721 90.3303C11.7721 90.3303 10.8885 90.1082 10.3835 89.886C9.5946 89.5051 8.80567 89.1242 9.27903 88.6164C9.72083 88.2038 11.8352 89.6321 15.0856 86.5534C17.9573 83.8238 17.9573 79.8246 17.9573 79.8246C17.9573 79.8246 19.3459 84.4903 17.5155 88.2038C15.2434 92.7743 10.9831 92.806 11.4565 93.7582C12.0245 94.9325 17.2315 93.8851 19.4721 88.3942C21.334 83.8238 19.3774 78.0154 17.9573 74.5559C17.5471 73.5719 17.0106 72.2389 16.6635 71.1915C17.9573 71.7945 19.0303 72.0802 20.0717 72.2071C20.0717 72.2071 20.0717 72.2071 20.0717 72.2389C20.1032 72.2389 20.261 72.5245 20.261 72.5245C21.5233 74.5559 23.4799 75.2541 24.5213 75.6667C25.4996 76.0476 26.5725 76.238 27.6455 76.238C28.5606 76.238 29.5074 76.1111 30.3594 75.7619C30.9274 75.5398 31.4639 75.2541 31.8742 74.8098C33.1365 73.445 33.452 69.2554 34.0201 68.938C34.2725 68.7793 34.9037 69.8267 35.1561 70.5884C35.4086 71.3819 35.2824 72.1437 35.7557 72.3341C36.1029 72.4611 36.2922 72.0802 37.018 71.255C38.0279 70.0806 37.8701 69.6045 38.375 69.7949C38.8799 69.9854 38.3434 72.588 38.091 73.9846C37.8385 75.4128 37.1758 77.4759 37.1758 77.4759C37.1758 77.4759 38.8484 76.365 40.4262 75.6667C44.8127 73.6989 46.5168 74.3019 46.5484 74.8415C46.5799 75.3811 45.5385 75.4763 44.4025 76.8411C43.582 77.825 43.7713 78.0789 43.7713 78.0789C43.7713 78.0789 44.434 78.1107 46.2644 77.5711C47.5582 77.1902 48.6943 76.5872 49.0414 77.1267C49.4201 77.6663 47.716 79.9833 45.0967 81.7924C42.4775 83.6016 40.3631 84.2999 40.3631 84.2999C40.3631 84.2999 40.868 84.8394 42.1619 85.0616C43.4557 85.2838 43.9607 85.0933 44.0869 85.4742C44.2447 85.982 42.793 86.4264 40.3631 86.6803C36.8918 87.0294 35.093 85.5059 35.093 85.5059C35.093 85.5059 35.5348 86.7755 35.0299 88.0451C34.4934 89.3464 34.3672 90.5525 33.8623 90.4573C33.3574 90.3938 33.957 89.156 32.9787 87.9499C31.9373 86.6486 30.7381 86.3629 28.9709 84.9664C27.2352 83.6333 27.1721 82.5542 27.1721 82.5542C27.1721 82.5542 30.2016 83.6968 35.1561 82.9033C39.9213 82.1416 41.4045 80.7133 41.0574 80.1737C40.7418 79.6976 39.9529 80.3007 37.7123 80.8403C35.093 81.4433 31.527 81.2846 27.5823 80.6181C26.1938 80.3959 24.3004 79.7294 22.5963 78.5868C23.259 79.9198 24.3635 82.3003 24.6159 84.0142C25.0893 86.9342 24.7106 90.2351 23.2274 93.4091ZM20.1663 50.4022C20.3557 49.1009 21.1131 47.7043 21.5549 47.1013C23.2905 46.7839 24.395 47.7361 24.5528 47.8948C23.6061 49.7356 23.0065 51.767 22.47 53.7983C21.8389 53.5444 20.9237 52.6239 20.1663 50.4022ZM20.5766 64.1453C19.693 64.0501 17.4208 62.5266 17.2946 62.1457C17.2946 61.3523 17.484 59.5749 17.7995 58.5275C18.9356 60.527 20.7975 61.384 20.7975 61.384C20.4819 62.6536 20.5766 64.1453 20.5766 64.1453ZM11.2671 46.53C11.488 45.8952 11.6774 45.4508 11.8667 45.07C12.2454 44.213 12.4663 43.7052 12.5294 42.5308C12.6241 41.166 12.2139 40.1186 11.9614 39.833C12.3085 39.8647 13.3815 40.3408 13.7917 41.2295C14.1389 41.9595 14.6438 43.8639 14.5807 44.1812C14.5491 44.2447 14.6122 44.2765 14.6122 44.3082C14.6754 44.3399 14.7385 44.3082 14.9909 44.1178C15.7167 43.5782 17.9258 41.896 21.8389 41.8643H21.902C29.0971 41.8643 32.2528 48.5613 32.2844 48.6248L32.316 48.6565H32.3475C32.3791 48.6565 33.3258 48.9422 35.2508 48.1169C36.0082 47.7995 36.45 47.3869 36.8918 47.0061C37.6176 46.3713 38.2488 45.8 39.9844 45.7682C41.7516 45.7047 43.0771 46.7204 43.298 47.4187C43.3611 47.5774 43.3611 47.8313 43.1717 47.9582C42.9193 48.1487 42.8562 48.1169 42.6984 48.0535C42.4459 47.9265 42.0357 47.7361 40.7418 47.9582C39.6373 48.1169 39.1324 49.1643 38.5959 50.2435C37.9963 51.4178 37.3967 52.6239 36.0082 52.9731C34.7459 53.3222 33.2627 52.4335 32.9787 51.9891C32.9156 51.8622 32.7893 51.7035 32.6315 51.7352C32.5053 51.767 32.4422 51.9574 32.4422 52.0209C32.4422 52.0209 32.4106 53.1318 31.7164 55.0679C31.0852 56.8453 28.1819 61.0984 22.47 59.5431C18.9672 58.5909 17.6102 55.29 17.768 53.2587C17.8311 52.5922 18.0204 52.1478 18.336 52.1161C18.5885 52.0844 18.8094 52.2748 18.8725 52.4652C19.125 53.227 19.409 53.9887 19.8192 54.6235C20.3872 55.5122 21.4286 56.5914 22.6909 56.877C25.5311 57.5118 27.2668 56.0518 27.5823 55.7344C28.6553 54.7187 29.2549 53.0365 29.1602 51.2274C29.034 48.9104 27.8348 47.4504 26.825 46.6252C25.5627 45.5778 23.9217 44.943 22.3123 44.9113C22.2807 44.9113 22.2176 44.9113 22.186 44.9113C20.1032 44.9113 17.9889 45.7682 16.3479 47.2282C14.2651 49.1009 13.0659 51.8939 12.8135 55.29C12.5926 58.2101 13.7917 61.4475 15.9061 63.7645C17.5471 65.5736 19.5983 66.5575 21.6495 66.5893C21.6811 66.5893 21.7127 66.5893 21.7758 66.5893C27.2037 66.5893 30.7065 63.2249 34.3988 59.6701C37.8701 56.3374 41.4361 52.9096 47.0533 51.3226C47.4635 51.1957 49.3885 51.037 49.7988 51.0052L49.7041 54.0839C46.5484 54.687 42.1619 56.7183 42.3828 58.9083C42.6037 61.0666 43.9922 62.241 44.6549 62.8123C44.8127 62.9392 44.9705 63.0662 44.9705 63.0979C44.9705 63.1297 44.9074 63.1614 44.6865 63.2566C44.0869 63.4788 42.6984 63.6375 41.6254 63.1297C40.1738 62.4631 38.7537 60.0827 38.7221 60.0509L38.659 59.9557L38.5959 60.0509C38.5643 60.0827 34.2725 64.6214 31.9373 66.3354C30.4225 67.4462 26.4147 70.398 21.6811 70.1758C18.3991 70.0171 15.3696 68.5254 13.1606 65.9545C10.8253 63.2566 9.56304 59.5114 9.5946 55.4487C9.5946 51.7352 10.0048 50.053 11.2671 46.53ZM21.7442 7.61746C21.7758 7.61746 25.1209 7.3318 28.3082 8.60138C29.6967 9.17269 30.7065 9.87095 31.5901 10.5057H31.6217C32.9471 11.4262 33.957 12.1879 35.4402 11.7118C37.1127 11.204 37.4598 9.87095 37.6807 8.98225C37.7438 8.76007 37.8385 8.3792 37.9016 8.34746C37.9647 8.31572 38.2803 8.44268 38.5328 8.85529C38.8484 9.33138 39.6688 11.1088 37.4598 14.3462C36.2291 16.1236 34.241 16.5045 34.1463 16.5045C34.0516 16.5045 33.9885 16.568 33.9254 16.6314C33.8938 16.6949 33.8623 16.7901 33.8938 16.8854C34.0201 17.3297 34.0201 17.6788 34.0516 17.9962C34.1463 19.1071 34.0201 20.1863 33.2942 21.9954C32.1582 24.7567 29.886 26.4389 26.8881 26.8198C23.9848 27.1689 21.618 25.5185 20.7659 23.7093C20.0086 22.0271 19.9454 20.091 20.6397 18.3454C20.7975 17.901 21.1131 17.5519 21.3655 17.4884C21.4918 17.4567 21.5864 17.4884 21.6811 17.5836C21.9336 17.7741 21.9336 18.2819 21.9651 18.9484C21.9967 19.615 22.0282 20.4402 22.3123 21.2971C22.7541 22.6302 24.2373 23.8998 26.1307 23.7411C29.034 23.4872 30.7696 21.4241 30.8328 18.2502C30.8959 14.9175 28.7815 10.9818 22.5963 10.8231C22.5016 10.8231 22.4385 10.8231 22.3438 10.8231C20.0086 10.8231 17.8627 11.7436 16.1586 13.4575C14.202 15.4888 12.9397 18.5358 12.8766 21.4558C12.7819 27.1372 15.7167 30.4381 18.1782 32.2155C20.6713 33.9929 24.5844 34.1199 29.4758 32.5646C31.1483 32.0251 32.9471 31.2951 34.6828 30.565H34.7143C36.1975 29.962 37.7123 29.3272 39.1639 28.7876C40.016 28.502 40.9311 28.2481 41.8779 28.0894L42.0041 28.0576L41.9094 27.9307C41.5307 27.4228 41.0574 26.7563 40.4262 25.8994C39.1639 24.1219 38.8168 20.8528 39.227 20.1863C39.4164 19.9006 39.6057 19.8371 39.7004 19.8371C39.7635 19.8371 39.8266 19.8689 39.8266 19.8689C39.8266 19.9006 39.8266 20.0593 39.8266 20.091C39.8266 20.2497 39.8266 21.0115 40.1738 21.3924C40.6156 21.9002 41.2152 21.9954 41.4676 21.8684C41.5623 21.805 41.6254 21.7415 41.657 21.6463C41.7516 21.3606 42.1934 19.9641 42.9508 18.8215C43.582 17.8693 45.5701 16.4093 46.7377 16.4093C46.7693 16.4093 46.8008 16.4093 46.8324 16.4093C47.148 16.441 47.3689 16.568 47.4951 16.8219C47.6529 17.1393 47.148 17.6788 46.9902 17.8375C45.9803 18.9167 44.7812 20.5037 44.6865 23.138C44.6549 24.3759 45.0021 25.3915 45.7279 26.185C47.1164 27.6768 49.5148 27.8672 49.9881 27.8672V30.5968C49.925 30.5968 49.8303 30.5968 49.7672 30.5968C47.4004 30.5968 45.507 33.4851 44.8758 36.4368C44.3394 38.849 44.8127 42.2451 45.0021 43.2608C45.1914 44.1812 45.0336 44.4034 44.9705 44.4352C44.9389 44.4669 44.9074 44.4669 44.8127 44.4669C44.3078 44.3717 43.3926 43.2925 42.3828 41.6421C41.6254 40.436 41.8463 38.9125 41.9725 38.0873C42.0357 37.6429 42.0672 37.4525 41.9094 37.3255L41.8779 37.2938C41.7832 37.1986 41.6254 37.1034 41.4361 37.1034C41.4361 37.1034 41.4361 37.1034 41.4045 37.1034C41.1836 37.1034 40.9311 37.2621 40.6471 37.5477C40.4262 37.8016 40.3 37.9603 40.2369 38.0873C40.1107 38.2777 40.1107 38.2777 39.7951 38.1508C39.7951 38.1508 39.7635 38.1508 39.732 38.0873C39.5111 37.4842 40.1738 35.3894 41.0258 33.9294C41.6885 32.7551 42.4143 31.8981 43.4242 31.1046L43.7082 30.8824L43.3295 30.9777C39.8898 31.7711 36.45 33.1359 34.3356 34.5959C31.6217 36.4368 29.4127 38.6269 27.8032 41.0708C27.5192 40.8803 27.2352 40.7534 26.541 40.436C26.0991 40.2456 25.4364 40.0234 24.9315 39.9599C25.5942 39.0395 26.7619 37.8016 27.2352 37.2938L27.2668 37.2621C27.3299 37.1668 27.3299 37.0081 27.2352 36.9129C27.1405 36.8177 27.0143 36.786 26.8881 36.8177C26.7619 36.8812 23.7008 38.0555 18.3045 36.0242C13.918 34.3738 9.34214 29.5811 9.5946 21.1384C9.91018 12.5053 15.9061 8.12529 21.7442 7.61746ZM2.84131 107.85H109.916V0H2.84131V107.85Z" fill="white"/>
</svg>
