<svg width="120" height="120" viewBox="0 0 120 120" fill="none" xmlns="http://www.w3.org/2000/svg">
<path d="M0 120H120V0H0V120Z" fill="#990000"/>
<path d="M112.117 53.8745C111.056 54.5857 109.925 54.6924 109.889 54.6924C109.854 54.6924 109.818 54.7279 109.818 54.7635C109.818 54.799 109.818 54.8346 109.854 54.8702C109.889 54.9057 112.753 57.395 113.036 60.7732C113.354 64.2226 112.824 66.1429 111.091 67.7787C109.712 69.0945 107.697 69.2723 106.955 69.0945C106.778 69.0589 106.742 69.0233 106.742 68.9878C106.636 68.561 107.273 68.0988 108.051 67.5653C108.227 67.4587 108.404 67.3164 108.581 67.2097C109.571 66.4985 110.101 65.325 109.783 64.6849C109.677 64.4716 109.5 64.436 109.288 64.436C109.111 64.436 108.935 64.5071 108.722 64.5782C108.333 64.6849 107.909 64.8272 107.697 64.5782C107.45 64.3293 107.556 64.116 107.768 63.6892C107.945 63.3336 108.157 62.9069 108.192 62.3024C108.298 60.9866 108.121 57.5372 106.283 57.146C106.212 57.146 106.141 57.146 106.071 57.1816C105.894 57.3239 105.894 57.7506 105.894 58.4262C105.894 59.3153 105.859 60.4888 105.364 61.2711C104.586 62.4802 103.348 63.4047 102.782 63.4047C102.641 63.4047 102.57 63.3692 102.5 63.2981C102.429 63.1914 102.464 62.9069 102.57 62.4802C102.782 61.4845 103.136 59.6353 102.606 56.1859C102.429 54.9768 101.686 53.6611 101.015 52.4165C100.343 51.2074 99.7064 50.0339 99.565 49.0382C99.3175 47.189 99.5296 46.4067 100.555 45.6244C101.156 45.1621 101.262 44.7353 101.262 44.4509C101.262 44.1664 101.121 43.633 100.626 43.4552C100.59 43.4552 100.59 43.4552 100.555 43.4196C100.307 43.3485 99.8832 43.3129 99.4236 43.3129C97.4789 43.3485 92.9179 43.384 89.7004 38.9745C87.084 35.4184 86.9072 32.0757 87.4022 28.1285V28.0929C87.4022 28.0218 87.1194 26.5638 85.8819 25.4259C85.2808 24.8924 84.6797 24.5724 84.2555 24.359C84.008 24.2168 83.7251 24.1101 83.7251 24.0034C83.7251 24.0034 83.7251 23.9323 83.7958 23.8967C84.114 23.5767 85.2101 23.1144 86.7304 23.3278C87.8619 23.5056 88.6751 23.9679 88.6751 23.9679C88.7104 24.0034 88.7458 23.9679 88.7811 23.9323C88.8165 23.8967 91.7865 20.3762 96.7364 20.7674C99.7064 20.9808 102.535 23.8967 102.606 27.0617C102.676 30.2266 101.227 31.8979 99.9539 32.3246C98.9286 32.6803 97.9739 32.6447 97.4082 32.2535C97.1607 32.0757 96.9839 31.8268 96.9839 31.5423C96.9839 31.2934 97.1961 31.1511 97.6204 30.9378C98.3275 30.5822 99.4236 30.0132 99.565 28.0218C99.6357 26.9905 99.2821 25.9593 98.6104 25.2481C98.1507 24.7502 97.3375 24.1457 95.9939 24.2168C94.2615 24.2879 92.8472 24.9636 91.8925 26.2082C90.6904 27.7729 90.2661 30.2266 90.7258 33.0359C91.3976 37.1253 95.3222 39.9702 99.6357 39.5079C102.181 39.259 104.55 37.801 106.354 35.454C108.051 33.2492 109.041 30.4044 109.076 27.6662C109.147 20.8385 105.222 13.7975 96.2414 13.4419C87.6497 13.1218 82.3108 18.4915 79.8712 21.692C78.3509 23.6834 76.7598 27.4884 75.593 30.5822C76.1234 30.4755 77.7851 30.2621 79.2701 31.0089C80.7905 31.7557 82.5583 33.6048 82.2401 34.3872C82.1694 34.6005 81.7098 34.4938 81.038 34.316C80.1541 34.0671 78.9166 34.1382 77.5377 34.3516C75.1687 34.6717 74.2141 35.1339 73.9313 35.3829L70.7138 33.3915C71.1734 31.3645 73.2241 22.8655 78.3509 17.2824C83.619 11.5572 89.9479 9.67245 95.5343 9.63688C98.575 9.60132 101.368 10.0636 103.666 10.597C103.949 10.6681 104.197 10.7037 104.444 10.7748C106.636 11.2727 108.935 11.735 110.561 11.3082C111.445 11.0949 112.187 10.7393 112.753 10.4548C113.107 10.277 113.46 10.0992 113.531 10.1347C113.531 10.1347 113.566 10.1703 113.566 10.2059C113.637 10.5615 113.319 11.6994 112.293 13.0863C111.657 13.9753 110.844 14.4731 110.278 14.8643C109.748 15.1844 109.394 15.4333 109.394 15.7889C109.394 15.9667 109.571 16.2867 109.889 16.8557C110.879 18.6338 112.93 22.3676 112.682 27.6306C112.294 35.6844 108.492 39.1365 105.947 41.4478L105.929 41.4638L105.611 41.7482H105.576C103.879 43.7041 104.091 45.5177 104.586 46.6556C105.328 48.3981 106.955 49.8561 109.041 50.6029C110.227 51.024 111.517 51.1681 112.468 51.2743L112.506 51.2785C113.213 51.3496 113.92 51.4208 113.991 51.5986C114.238 52.1675 113.566 52.9499 112.117 53.8745Z" fill="white"/>
<path d="M106.884 88.6173C109.076 88.3328 111.657 86.377 112.435 81.7896C112.788 79.656 112.223 77.309 111.056 75.4598C109.925 73.8596 108.298 72.7928 106.495 72.4016H106.46C103.949 71.7971 100.307 72.1171 96.1354 76.74C95.9939 76.8823 95.5343 77.5579 95.2514 78.1269C95.1454 77.8068 95.0393 77.4512 94.8979 77.0245C94.3322 75.3176 93.1654 72.4727 90.7965 68.5966C89.4883 66.463 88.4276 65.0761 87.4729 63.8315L87.4558 63.8089C86.5435 62.6091 85.7363 61.5474 85.0687 60.2398C83.7958 57.7861 83.5483 53.6255 84.008 52.8788C84.0787 52.8076 84.114 52.7721 84.1847 52.7721C84.7151 52.8432 84.8212 53.3055 84.9979 54.2656C85.2101 55.4036 85.5637 57.1105 86.9072 59.3864C88.074 61.3778 88.9226 62.3024 89.8065 63.2981L89.8265 63.3202C90.5277 64.0959 91.2648 64.9114 92.1754 66.2852C94.2615 69.3434 94.7565 70.7658 94.7565 70.7658L94.8979 71.157L94.8272 70.7303C94.7918 70.6947 93.9432 64.9338 94.7918 58.9952C95.2455 55.9416 96.2502 53.4423 96.9222 51.7708L96.9486 51.7052C97.4436 50.4962 97.7264 49.7494 97.5496 49.4649C97.4789 49.3227 97.3375 49.216 97.1961 49.216H97.1607C96.6304 49.216 95.8879 50.0339 94.9686 51.1007C94.6504 51.4208 94.3675 51.7764 94.0493 52.0964C92.5643 53.6967 91.539 55.4747 91.3975 55.7236C91.1147 55.6525 88.9933 55.048 88.7811 50.4606C88.6058 47.3573 88.8825 45.6878 89.1285 44.2037L89.1347 44.1664C89.2408 43.4552 89.3822 42.7795 89.4176 41.9972C89.4176 41.7482 89.3822 41.5704 89.2408 41.5349C88.7104 41.3926 87.1547 43.3485 86.3769 45.0198C85.8819 46.0155 85.7758 46.8334 85.6697 47.4024C85.599 47.8291 85.5637 48.1492 85.3869 48.2203C85.3515 48.2559 85.2808 48.2203 85.2101 48.1847C84.7505 47.9003 83.9726 46.5489 83.7605 44.0952C83.6897 43.2774 83.6897 42.495 83.6897 41.8905V41.8904C83.6897 40.8948 83.6897 40.2191 83.3715 40.0413C83.2301 39.9702 83.018 39.9702 82.8412 40.0769C82.3815 40.3614 81.8512 41.2504 81.3915 42.5661C81.038 43.5974 80.543 45.3754 80.3662 47.9358C80.0126 52.8076 80.3308 56.1503 80.3662 56.5771C80.0834 56.5771 78.4923 56.6838 76.5123 57.3238C74.5677 57.9639 70.9613 59.5642 71.1381 60.4532C71.2441 60.9155 71.9513 60.8088 72.8352 60.6666C73.4009 60.5954 74.0373 60.4888 74.603 60.5243C75.6991 60.5954 76.8305 61.1644 77.1487 61.3067C76.8305 61.4489 75.6637 62.1245 73.8959 63.7959C72.517 65.1117 70.9613 66.6052 71.7391 67.7076C71.9866 68.0632 72.5877 67.8143 73.4716 67.3875C75.2395 66.5696 78.1387 65.2539 81.9219 66.7119C86.1647 68.3477 88.7104 70.8725 91.0793 75.9932C91.6451 77.3801 92.1047 79.0159 92.4583 80.8295C93.3068 85.4524 92.3522 91.2132 88.1094 96.4762C85.7051 99.4633 84.5737 100.423 82.8058 101.917C77.2902 106.54 74.108 107.287 73.8252 106.647C73.5777 106.113 77.6437 103.837 80.8612 101.064C85.8819 96.6896 88.2508 93.7736 88.2508 93.7736C88.2508 93.7736 83.4423 97.2586 79.058 96.8674C76.5123 96.6185 74.7798 94.4848 74.603 94.6982C74.0373 95.3383 74.9566 97.0452 75.2395 97.6497C75.5577 98.2187 76.1941 98.8232 76.1941 98.8232C76.1941 98.8232 76.0173 99.1789 74.497 99.2144C73.1888 99.2144 72.7998 98.4321 72.623 98.5743C72.3402 98.8233 72.5523 99.8189 73.5423 100.815C74.5323 101.775 75.4869 102.13 75.4869 102.13C75.4869 102.13 74.002 102.664 71.6684 102.664C69.8298 102.628 67.9559 101.775 67.567 102.202C66.8952 102.913 68.0974 103.624 68.9106 104.477C69.7238 105.331 70.2188 105.331 70.2188 105.331C70.2188 105.331 70.0066 106.327 67.5317 106.718C64.8445 107.144 62.617 105.615 62.4049 106.504C62.122 107.536 65.2688 110.167 69.0166 110.523C72.6938 110.843 75.8405 109.136 75.8405 109.136C75.8405 109.136 75.8052 109.954 74.2141 111.767C72.6584 113.545 71.8806 113.439 72.1634 113.83C72.7645 114.612 75.1334 114.257 83.2301 106.789C83.2301 106.967 83.2655 107.144 83.2655 107.322C83.7251 114.932 91.2208 113.19 91.1854 112.728C91.15 112.336 89.7711 112.372 88.569 111.483C86.9779 110.309 87.2254 109.705 87.2254 109.705C87.2254 109.705 87.579 110.025 88.5336 110.096C89.4883 110.167 90.0186 110.167 90.054 109.776C90.0893 109.491 87.5083 109.243 86.8012 106.54C86.4122 104.975 87.0133 103.588 87.7911 102.628C94.5443 94.2003 95.605 89.3997 96.1 86.1636V86.1281C96.2061 85.4524 96.595 81.8963 98.1507 79.5849C98.1507 79.5849 98.1861 79.5493 98.1861 79.5138C99.3175 77.7002 101.015 75.9932 103.56 75.4954C103.914 75.4243 104.232 75.3887 104.515 75.3887H104.586H104.727C107.025 75.6021 107.803 76.5978 108.333 77.6646C109.076 79.087 108.899 80.9006 107.945 82.3942C107.768 82.6787 107.485 82.9276 107.237 83.141C106.955 83.4254 106.707 83.6388 106.742 83.8522C106.778 84.03 106.884 84.1722 107.061 84.2789C107.379 84.4211 107.768 84.3856 108.192 84.1722L108.333 84.1011C108.652 83.9233 108.935 83.7811 109.041 83.8522C109.076 83.8522 109.111 83.8877 109.111 83.9589L109.113 83.9696C109.183 84.4659 109.275 85.1075 107.414 86.5904C106.778 87.0882 106.177 87.3371 105.752 87.4794C105.399 87.5861 105.151 87.6927 105.081 87.8705C105.045 87.9772 105.081 88.0839 105.116 88.1906C105.257 88.4751 105.752 88.6529 106.389 88.6529C106.53 88.6529 106.707 88.6529 106.884 88.6173Z" fill="white"/>
<path d="M111.48 105.224C111.48 105.153 111.516 105.118 111.516 105.082C111.94 103.624 112.046 101.775 111.48 99.7834C111.162 98.5743 110.066 95.8717 106.141 93.3113C103.808 91.7822 101.085 91.0354 100.767 90.8932C101.58 89.0085 103.03 88.6529 103.065 88.4395C103.101 88.2261 101.792 87.6927 100.696 87.9417C99.7418 88.1906 98.7518 89.1152 98.3982 89.6841C98.2214 90.2887 98.1507 90.8221 97.5496 92.529C98.6104 93.0268 101.333 94.2359 102.641 94.876C106.495 96.7607 108.086 98.8944 108.793 101.241C109.147 102.415 109.005 103.517 108.758 104.477C107.874 107.642 105.116 109.634 102.464 108.994C100.661 108.567 99.3175 107.642 98.6811 106.398C98.1507 105.402 98.1154 104.193 98.5396 102.948C98.8579 102.024 99.4236 101.597 99.8478 101.419C100.414 101.17 101.085 101.206 101.651 101.526C102.768 102.158 102.817 102.997 102.852 103.6L102.853 103.624C102.853 103.98 102.889 104.264 103.136 104.371C103.313 104.442 103.56 104.406 103.772 104.264C104.197 103.944 104.515 103.197 104.586 102.308C104.656 101.241 104.02 99.6411 101.969 98.7877C99.9186 97.9342 97.2314 99.1077 96.2061 101.312C94.6857 104.584 95.8879 107.536 96.0647 107.962C95.9232 108.069 95.4989 108.496 95.1454 109.171C94.5443 110.238 94.5443 111.198 94.6857 111.554C94.7211 111.625 94.7918 111.696 94.8272 111.696C94.9686 111.732 95.11 111.59 95.3222 111.376C95.5697 111.127 95.8879 110.807 96.3829 110.523C97.3375 109.989 98.2568 110.132 98.3629 110.167C100.025 111.234 101.58 111.945 103.419 111.945C104.161 111.945 104.975 111.803 105.823 111.554C108.581 110.736 110.561 108.496 111.48 105.224Z" fill="white"/>
<path d="M69.1934 39.6857C69.1934 39.6857 71.1027 40.2547 73.4716 42.4595C74.8505 43.7396 76.2294 45.2332 77.3255 46.4067L77.9619 42.2105C77.0426 41.1793 75.9112 39.9702 74.4262 38.7256C72.9413 37.481 70.3248 36.0941 69.1934 35.5251V39.6857Z" fill="white"/>
<path d="M70.0773 43.0284C70.0773 43.0284 69.7945 45.2332 70.4663 49.9983C70.8198 52.5587 71.4563 54.9768 71.7745 56.0437L75.098 54.479C74.8505 53.6255 74.1787 51.5986 73.8605 49.3938C73.4009 46.4778 73.5423 45.8377 73.5423 45.8377C72.9413 45.1976 71.1381 43.384 70.0773 43.0284Z" fill="white"/>
<path d="M79.6591 84.3145C75.9819 84.7056 73.3655 81.7185 72.9766 78.5536C72.7645 76.9178 73.1534 75.3532 74.0727 74.1441C75.2395 72.5794 76.9366 71.7615 78.1387 71.6193C79.6237 71.4415 80.8966 71.8682 81.7098 72.2594C82.2755 72.5439 82.6998 72.7217 82.8765 72.615C83.2301 72.4372 83.2301 72.0104 83.0887 71.477C82.8765 70.8014 82.3815 70.1257 81.639 69.6634C80.7551 69.0945 79.5883 68.81 78.2801 68.8455C74.4262 68.9878 72.1988 72.046 71.7391 72.7572C71.6684 72.5439 71.4563 72.1527 70.9613 71.8326C70.1834 71.2992 69.3348 71.0859 69.0873 71.4059C68.9106 71.5837 69.0873 71.7615 69.2995 72.0816C69.547 72.4016 69.9006 72.8639 70.1481 73.6107C70.3956 74.2508 70.3248 75.1398 70.2895 76.1355C70.2541 77.2734 70.1481 78.9448 70.4309 80.2605C71.2088 83.7811 74.4262 87.3727 79.2348 87.5149C79.7651 87.5505 80.3308 87.4794 80.8258 87.3371C83.018 86.7326 84.4676 85.5591 85.4576 84.35C85.5283 84.3856 85.6344 84.4567 85.7404 84.5634L85.8225 84.631C86.6283 85.2944 88.1867 86.5777 89.3822 87.2304C89.7004 86.1281 89.9126 84.5634 89.9126 83.7455C89.5943 83.5321 87.6497 82.1808 84.9626 79.3715C82.6998 76.989 81.9926 76.2066 81.9926 76.2066C81.5683 75.851 80.1187 74.6775 78.5984 74.6064C77.2194 74.5708 76.7598 74.8909 76.7244 74.9264L77.1134 75.4954C77.2548 75.6732 77.9266 76.6333 79.3055 78.4114C80.7198 80.225 82.4523 81.8608 82.9473 82.3231L83.1594 82.572C82.3815 83.3899 81.2501 84.1367 79.6591 84.3145Z" fill="white"/>
<path d="M44.6557 112.941C48.9339 112.23 52.4343 111.198 56.9599 107.073C61.9806 102.522 63.8545 95.9784 64.7031 92.6712C65.8699 87.9061 65.7638 78.8381 65.7638 78.8381V31.7912C65.7638 31.7912 65.4456 21.692 66.1527 19.1316C66.8599 16.5712 68.3802 14.7221 69.2995 13.7619C71.3502 11.6638 75.6284 10.9526 75.6284 10.9526C76.8659 10.7393 77.1487 10.1347 77.0426 9.5302C76.9012 8.60562 76.1587 8.5345 76.1587 8.5345L45.6811 8.46338C45.6811 8.46338 44.9032 8.60562 44.7618 9.49464C44.6557 10.0992 44.9386 10.7037 46.1761 10.9171C46.1761 10.9171 50.4896 11.5927 52.505 13.7264C53.4243 14.6865 54.9446 16.5357 55.6517 19.096C56.3589 21.6209 56.0407 31.7557 56.0407 31.7557L55.3689 78.6959C55.3689 80.6873 55.581 89.3285 55.1214 92.4579C54.4496 96.7963 53.4596 100.459 50.8078 103.304C48.1561 106.149 45.7165 107.073 42.1101 107.073C38.5037 107.073 36.1347 105.971 33.589 103.944C31.0433 101.917 26.1995 97.3297 26.1995 97.3297L30.8666 112.479C30.8666 112.479 39.9179 113.759 44.6557 112.941Z" fill="white"/>
<path d="M17.8906 110.807C18.4209 111.305 21.1788 108.176 22.8405 104.655C24.5023 101.099 24.9266 97.4008 24.3963 94.1292C24.1134 92.209 22.8759 89.5419 22.1334 88.0483C24.0427 89.3285 26.1641 90.0753 27.7198 90.3242C32.1394 91.071 36.1347 91.2488 39.0694 90.5732C41.5797 89.9686 42.4636 89.293 42.8172 89.8264C43.2061 90.4309 41.5443 92.0312 36.2055 92.8846C30.6544 93.7736 27.2602 92.4934 27.2602 92.4934C27.2602 92.4934 27.3309 93.7025 29.2755 95.1961C31.2555 96.7607 32.5991 97.0808 33.7658 98.5388C34.8619 99.8901 34.1901 101.277 34.7558 101.348C35.3215 101.455 35.463 100.103 36.064 98.6454C36.6297 97.223 36.1347 95.8006 36.1347 95.8006C36.1347 95.8006 38.1501 97.5075 42.0393 97.1163C44.7618 96.8318 46.3882 96.334 46.2114 95.765C46.07 95.3383 45.5043 95.5517 44.0547 95.3027C42.605 95.0538 42.0393 94.4493 42.0393 94.4493C42.0393 94.4493 44.4082 93.6669 47.3429 91.64C50.2775 89.613 52.1868 87.0171 51.7625 86.4126C51.3736 85.808 50.1007 86.4837 48.6511 86.9104C46.6004 87.5149 45.8579 87.4794 45.8579 87.4794C45.8579 87.4794 45.6457 87.1949 46.565 86.0925C47.8379 84.5634 49.0046 84.4567 48.9693 83.8522C48.9339 83.2476 47.0247 82.572 42.1101 84.7767C40.3422 85.5591 38.4683 86.8037 38.4683 86.8037C38.4683 86.8037 39.2108 84.4923 39.4936 82.892C39.7765 81.3274 40.3776 78.4114 39.8119 78.198C39.2461 77.9846 39.4229 78.5181 38.2915 79.8338C37.4783 80.7584 37.2662 81.1851 36.8772 81.0429C36.3469 80.8295 36.4883 79.976 36.2055 79.087C35.9226 78.2336 35.2155 77.0601 34.9326 77.2379C34.2962 77.5935 33.9426 82.2875 32.5283 83.8166C32.0687 84.3145 31.4676 84.6345 30.8312 84.8834C29.8766 85.2746 28.8159 85.4168 27.7905 85.4168C26.5884 85.4168 25.3862 85.2035 24.2902 84.7767C23.1234 84.3145 20.9313 83.5321 19.517 81.2562C19.517 81.2562 19.3402 80.9362 19.3049 80.9362V80.9006C18.1381 80.7584 16.9359 80.4383 15.4863 79.7627C15.8752 80.9362 16.4763 82.4297 16.9359 83.5321C18.527 87.4082 20.7191 93.9159 18.6331 99.0366C16.1227 105.189 10.2889 106.362 9.65243 105.046C9.12208 103.98 13.8953 103.944 16.441 98.8232C18.4917 94.6626 16.9359 89.4352 16.9359 89.4352C16.9359 89.4352 16.9359 93.9159 13.7185 96.9741C10.0767 100.423 7.7078 98.8233 7.2128 99.2855C6.68245 99.8545 7.56637 100.281 8.4503 100.708C9.01601 100.957 10.006 101.206 10.006 101.206C10.006 101.206 8.98065 102.166 7.49566 102.913C6.11674 103.624 5.33889 103.908 5.26818 104.406C5.23282 104.797 7.17745 106.718 9.01601 107.536C10.8546 108.354 13.1174 108.567 13.1174 108.567C13.1174 108.567 13.2942 108.531 12.6931 109.598C12.0567 110.701 11.3849 111.163 11.6678 111.59C12.1274 112.23 12.5871 112.123 15.2388 110.452C17.8906 108.78 18.6331 107.713 18.6331 107.713C18.6331 107.713 18.5624 107.927 18.2795 108.994C17.9967 110.025 17.4663 110.381 17.8906 110.807Z" fill="white"/>
<path d="M20.9666 52.7721C20.4716 53.4477 19.6231 55.0124 19.4109 56.4704C20.2595 58.9596 21.2848 59.9909 21.992 60.2754C22.593 57.9995 23.2648 55.7236 24.3255 53.6611C24.1488 53.4833 22.9113 52.4165 20.9666 52.7721Z" fill="white"/>
<path d="M16.1935 69.6279C16.3349 70.0546 18.8806 71.7615 19.8706 71.8682C19.8706 71.8682 19.7645 70.1968 20.1181 68.7744C20.1181 68.7744 18.032 67.8143 16.7592 65.5739C16.4056 66.7474 16.1935 68.7389 16.1935 69.6279Z" fill="white"/>
<path d="M10.1121 50.4962C9.89993 50.9229 9.68779 51.4208 9.44029 52.132C8.02601 56.0792 7.56637 57.9639 7.56637 62.1245C7.53102 66.6763 8.94529 70.8725 11.5617 73.8952C14.0367 76.7756 17.4309 78.4469 21.1081 78.6247C26.3938 78.8728 30.8718 75.5887 32.5819 74.3345L32.599 74.3219C35.2155 72.4016 40.024 67.3164 40.0594 67.2809L40.1301 67.1742L40.2008 67.2809C40.2361 67.3164 41.8272 69.9835 43.4536 70.7303C44.6557 71.2992 46.2115 71.1214 46.8832 70.8725C47.1307 70.7658 47.2014 70.7303 47.2014 70.6947C47.2014 70.6591 47.0247 70.5169 46.8479 70.3746L46.8228 70.353C46.0709 69.7051 44.5469 68.3919 44.3022 66.0007C44.0547 63.547 48.9693 61.2711 52.505 60.5954L52.611 57.146C52.1514 57.1816 49.9946 57.3594 49.535 57.5017C43.2486 59.2777 39.2552 63.1116 35.3701 66.8414L35.3569 66.8541C31.2201 70.8369 27.2955 74.6064 21.2141 74.6064H21.0727C18.7745 74.5708 16.4763 73.4684 14.6378 71.4415C12.2688 68.8455 10.9253 65.2183 11.1728 61.9467C11.4556 58.1417 12.7992 55.0124 15.1327 52.9143C16.9713 51.2785 19.3402 50.3184 21.6738 50.3184H21.8152C23.6184 50.3539 25.457 51.0652 26.8712 52.2387C28.0027 53.1632 29.3462 54.799 29.4876 57.395C29.5937 59.4219 28.9219 61.3067 27.7198 62.4446C27.3662 62.8002 25.4216 64.436 22.2395 63.7248C20.8252 63.4047 19.6584 62.1957 19.022 61.2C18.5624 60.4888 18.2442 59.6353 17.9613 58.7818C17.8906 58.5685 17.6431 58.3551 17.3602 58.3907C17.0067 58.4262 16.7945 58.9241 16.7238 59.6709C16.547 61.9467 18.0674 65.6451 21.992 66.7119C28.3916 68.4544 31.6444 63.6892 32.3516 61.6978C33.1294 59.5286 33.1648 58.284 33.1648 58.284C33.1648 58.2129 33.2355 57.9995 33.3769 57.9639C33.5537 57.9284 33.6951 58.1062 33.7658 58.2484C34.084 58.7463 35.7458 59.742 37.1601 59.3508C38.6955 58.9647 39.3699 57.6434 40.0331 56.3441L40.0594 56.2926L40.0863 56.2385C40.6775 55.0487 41.2446 53.9074 42.4636 53.7322C43.9133 53.4833 44.3729 53.6967 44.6557 53.8389L44.6668 53.8433C44.8356 53.9114 44.9092 53.9411 45.1861 53.7322C45.3982 53.59 45.3982 53.3055 45.3275 53.1277C45.08 52.3453 43.595 51.2074 41.6151 51.2785C39.6951 51.3136 38.9814 51.938 38.181 52.6384L38.1501 52.6654C37.6551 53.0921 37.1601 53.5544 36.3115 53.91C34.1547 54.8346 33.094 54.5146 33.0587 54.5146H33.0233L32.988 54.479C32.9526 54.4079 29.4169 46.9045 21.3556 46.9045H21.2848C16.9584 46.9396 14.4912 48.7755 13.6454 49.4048L13.6124 49.4294C13.3295 49.6427 13.2588 49.6783 13.1881 49.6427C13.1881 49.6072 13.1174 49.5716 13.1528 49.5005C13.2235 49.1449 12.6578 47.0112 12.2688 46.1933C11.8092 45.1976 10.6071 44.6642 10.2181 44.6287C10.501 44.9487 10.9606 46.1222 10.8546 47.6513C10.7838 48.9671 10.5364 49.536 10.1121 50.4962Z" fill="white"/>
<path d="M28.533 9.63688C24.962 8.21445 21.2141 8.5345 21.1788 8.5345C14.6378 9.10347 7.91994 14.0109 7.56637 23.6834C7.28352 33.1425 12.4103 38.5122 17.3249 40.3614C23.3709 42.6373 26.8005 41.3215 26.9419 41.2504C27.0834 41.2148 27.2248 41.2504 27.3309 41.3571C27.4369 41.4638 27.4369 41.6416 27.3662 41.7482L27.3309 41.7838C26.8005 42.3528 25.4923 43.7396 24.7498 44.7709C25.3155 44.842 26.058 45.091 26.553 45.3043L26.6544 45.3507C27.3593 45.6728 27.6633 45.8117 27.9673 46.0155C29.7705 43.2774 32.2455 40.8237 35.2862 38.7611C37.6551 37.1253 41.509 35.5962 45.3629 34.7072L45.7872 34.6005L45.469 34.8495C44.3375 35.7385 43.5243 36.6986 42.7818 38.0144C41.8272 39.6502 41.0847 41.9972 41.3322 42.6728C41.3676 42.7439 41.4029 42.7439 41.4029 42.7439C41.7565 42.8862 41.7565 42.8862 41.8979 42.6728C41.9686 42.5306 42.1101 42.3528 42.3575 42.0683C42.6758 41.7482 42.9586 41.5704 43.2061 41.5704H43.2415C43.4536 41.5704 43.6304 41.6771 43.7365 41.7838L43.7718 41.8194C43.9442 41.9581 43.9149 42.1645 43.8477 42.6364L43.8425 42.6728C43.7011 43.5974 43.4536 45.3043 44.3022 46.6556C45.4336 48.5048 46.4589 49.7139 47.0247 49.8205C47.1307 49.8205 47.1661 49.8205 47.2014 49.785C47.2722 49.7494 47.4489 49.5005 47.2368 48.4692C47.0247 47.3313 46.4943 43.5263 47.0954 40.8237C47.8025 37.5165 49.9239 34.2805 52.5757 34.2805H52.8232V31.2223C52.2928 31.2223 49.6057 31.0089 48.05 29.3375C47.2368 28.4485 46.8479 27.3106 46.8832 25.9237C46.9893 22.9722 48.3329 21.1941 49.4643 19.9851C49.6411 19.8073 50.2068 19.2027 50.03 18.8471C49.8886 18.5626 49.6411 18.4204 49.2875 18.3848H49.1814C47.8732 18.3848 45.6457 20.0206 44.9386 21.0874C44.09 22.3676 43.595 23.9323 43.489 24.2524C43.4536 24.359 43.3829 24.4302 43.2768 24.5013C42.994 24.6435 42.3222 24.5368 41.8272 23.9679C41.4383 23.5411 41.4383 22.6877 41.4383 22.5099V22.261C41.4383 22.261 41.3676 22.2254 41.2968 22.2254C41.1908 22.2254 40.9786 22.2965 40.7665 22.6166C40.3069 23.3633 40.6958 27.0261 42.1101 29.0175C42.8172 29.9776 43.3475 30.7244 43.7718 31.2934L43.8779 31.4356L43.7365 31.4712C42.6758 31.649 41.6504 31.9335 40.6958 32.2535C39.0694 32.8581 37.3722 33.5693 35.7105 34.2449H35.6751C33.7305 35.0628 31.7151 35.8807 29.8412 36.4852C24.3609 38.2277 19.9766 38.0855 17.1834 36.0941C14.4256 34.1027 11.1374 30.4044 11.2435 24.039C11.3142 20.7674 12.7285 17.3536 14.9206 15.0777C16.8299 13.1574 19.2341 12.1261 21.8506 12.1261H22.1334C29.0634 12.3039 31.4323 16.7135 31.3616 20.4474C31.2908 24.0034 29.3462 26.3149 26.0934 26.5994C23.972 26.7772 22.3102 25.3547 21.8152 23.8612C21.497 22.901 21.4616 21.9765 21.4263 21.2297C21.3909 20.4829 21.3909 19.9139 21.1081 19.7006C21.002 19.5939 20.8959 19.5583 20.7545 19.5939C20.4716 19.665 20.1181 20.0562 19.9413 20.554C19.1634 22.5099 19.2341 24.6791 20.0827 26.5638C21.0373 28.5908 23.6891 30.4399 26.9419 30.0488C30.3008 29.622 32.8465 27.7373 34.1194 24.6435C34.9326 22.6166 35.074 21.4075 34.968 20.1629C34.9326 19.8073 34.9326 19.4161 34.7912 18.9182C34.7558 18.8116 34.7912 18.7049 34.8265 18.6338C34.8972 18.5626 34.968 18.4915 35.074 18.4915C35.1801 18.4915 37.4076 18.0648 38.7865 16.0734C41.2615 12.4462 40.3422 10.4548 39.9886 9.92137C39.7058 9.45908 39.3522 9.31684 39.2815 9.3524C39.2108 9.38796 39.1047 9.81469 39.034 10.0636C38.7865 11.0593 38.3976 12.5529 36.5237 13.1218C34.8619 13.6552 33.7305 12.8018 32.2455 11.7705H32.2101C31.2201 11.0593 30.0887 10.277 28.533 9.63688Z" fill="white"/>
</svg>
