<svg width="100" height="100" viewBox="0 0 100 100" fill="none" xmlns="http://www.w3.org/2000/svg">
<path fill-rule="evenodd" clip-rule="evenodd" d="M33.1406 20C31.3605 20 29.9174 21.4431 29.9174 23.2232V28.9257H26.1984C25.5137 28.9257 24.9587 29.4807 24.9587 30.1654V33.8844H21.2397C20.555 33.8844 20 34.4394 20 35.1241V65.8683C20.0034 69.29 22.7767 72.063 26.1984 72.0665H54.2151V69.5871H26.1984C24.1444 69.5871 22.4794 67.922 22.4794 65.8681V36.3637H67.6036V54.2151H70.083V35.1241C70.083 34.4394 69.528 33.8844 68.8433 33.8844H27.4381V31.405H72.5623V55.2068H75.0417V30.1654C75.0417 29.4807 74.4867 28.9257 73.802 28.9257H32.3968V23.2232C32.3968 22.8124 32.7298 22.4794 33.1406 22.4794H44.3474C44.5163 22.4793 44.6803 22.5368 44.8123 22.6422L49.2275 26.1748C49.4468 26.3502 49.7194 26.4459 50.0002 26.4463H77.521V58.1821H80.0004V25.2066C80.0004 24.522 79.4454 23.967 78.7607 23.967H50.4353L46.3596 20.7068C45.7883 20.2502 45.0786 20.001 44.3473 20H33.1406ZM36.3636 23.9668H33.8842V26.4462H36.3636V23.9668ZM40.3308 23.9668H37.8514V26.4462H40.3308V23.9668ZM44.2976 23.9668H41.8183V26.4462H44.2976V23.9668ZM67.8513 55.7023C61.1417 55.7023 55.7025 61.1415 55.7025 67.8512C55.7025 74.5608 61.1417 80 67.8513 80C74.561 80 80.0002 74.5608 80.0002 67.8512V67.8509C79.9929 61.1444 74.5581 55.7096 67.8516 55.7023H67.8513ZM58.1819 67.8512C58.1819 62.5109 62.511 58.1817 67.8513 58.1817C73.1916 58.1817 77.5207 62.5107 77.5208 67.8509C77.515 73.1889 73.1891 77.5148 67.8511 77.5206C62.5109 77.5205 58.1819 73.1914 58.1819 67.8512ZM69.0912 61.6537H66.6118V66.6124H61.6531V69.0917H66.6118V74.0504H69.0912V69.0917H74.0499V66.6124H69.0912V61.6537ZM26.4462 37.8516H23.9668V40.331H26.4462V37.8516ZM26.4462 41.8184H23.9668V48.2648H26.4462V41.8184Z" fill="black"/>
</svg>
