<svg width="430" height="70" viewBox="0 0 430 70" fill="none" xmlns="http://www.w3.org/2000/svg">
<rect x="382" width="32" height="32" rx="2" fill="#1A1A19"/>
<path fill-rule="evenodd" clip-rule="evenodd" d="M16 9H32V22H27.4684L24.9684 25H23.0316L20.5316 22H16V9ZM18 11V20H21.4684L23.9684 23H24.0316L26.5316 20H30V11H18ZM28 15H20V13H28V15ZM25 18H20V16H25V18Z" fill="black"/>
<path d="M45.92 22.272C44.768 22.272 43.792 22.0213 42.992 21.52C42.192 21.008 41.5947 20.304 41.2 19.408C40.8053 18.512 40.608 17.4773 40.608 16.304C40.608 15.12 40.816 14.0853 41.232 13.2C41.6587 12.304 42.272 11.6107 43.072 11.12C43.872 10.6187 44.832 10.368 45.952 10.368C47.3387 10.368 48.4373 10.7307 49.248 11.456C50.0587 12.1813 50.544 13.1627 50.704 14.4L48.592 14.704C48.496 13.8827 48.2133 13.2373 47.744 12.768C47.2747 12.2987 46.656 12.064 45.888 12.064C44.896 12.064 44.1227 12.448 43.568 13.216C43.0133 13.9733 42.736 14.9973 42.736 16.288C42.736 17.568 43.0133 18.5973 43.568 19.376C44.1333 20.1547 44.9227 20.544 45.936 20.544C46.6613 20.544 47.2587 20.32 47.728 19.872C48.208 19.4133 48.5227 18.7787 48.672 17.968L50.72 18.384C50.464 19.5787 49.9307 20.528 49.12 21.232C48.32 21.9253 47.2533 22.272 45.92 22.272ZM52.2881 14H54.2081V22H52.2881V14ZM52.1921 10.672H54.2721V12.672H52.1921V10.672ZM55.3329 14H56.7729V11.984L58.6929 11.216V14H60.6449V15.392H58.6929V19.216C58.6929 19.6427 58.7889 19.9627 58.9809 20.176C59.1729 20.3787 59.4662 20.48 59.8609 20.48C60.0422 20.48 60.3035 20.448 60.6449 20.384V22C60.1755 22.096 59.7382 22.144 59.3329 22.144C58.4155 22.144 57.7595 21.92 57.3649 21.472C56.9702 21.024 56.7729 20.3733 56.7729 19.52V15.392H55.3329V14ZM68.8075 18.48H63.1915C63.2022 19.152 63.3995 19.6907 63.7835 20.096C64.1782 20.4907 64.6902 20.688 65.3195 20.688C65.7782 20.688 66.1728 20.576 66.5035 20.352C66.8342 20.128 67.0902 19.7973 67.2715 19.36L68.7435 20.032C68.4448 20.7253 67.9915 21.2587 67.3835 21.632C66.7862 22.0053 66.0768 22.192 65.2555 22.192C64.0288 22.192 63.0688 21.8347 62.3755 21.12C61.6822 20.3947 61.3355 19.3813 61.3355 18.08C61.3355 16.7573 61.6715 15.7173 62.3435 14.96C63.0262 14.192 63.9648 13.808 65.1595 13.808C66.3222 13.808 67.2182 14.1387 67.8475 14.8C68.4875 15.4507 68.8075 16.384 68.8075 17.6V18.48ZM66.9195 17.088C66.9195 16.4373 66.7648 15.9413 66.4555 15.6C66.1462 15.2587 65.7035 15.088 65.1275 15.088C64.5195 15.088 64.0502 15.2747 63.7195 15.648C63.3888 16.0213 63.2128 16.544 63.1915 17.216H66.9195V17.088Z" fill="black"/>
<path d="M2 1H80V-1H2V1ZM81 2V30H83V2H81ZM80 31H2V33H80V31ZM1 30V2H-1V30H1ZM2 31C1.44771 31 1 30.5523 1 30H-1C-1 31.6569 0.343143 33 2 33V31ZM81 30C81 30.5523 80.5523 31 80 31V33C81.6569 33 83 31.6569 83 30H81ZM80 1C80.5523 1 81 1.44771 81 2H83C83 0.343147 81.6569 -1 80 -1V1ZM2 -1C0.343146 -1 -1 0.343146 -1 2H1C1 1.44772 1.44772 1 2 1V-1Z" fill="#D1CFC7"/>
<path d="M122 8.08594L128.414 14.5002L127 15.9144L123 11.9145V20H121V11.9143L117 15.9144L115.586 14.5002L122 8.08594Z" fill="black"/>
<path d="M116 19V22H128V19H130V24H114V19H116Z" fill="black"/>
<path d="M143.008 22.272C141.707 22.272 140.645 21.984 139.824 21.408C139.013 20.832 138.485 20.0587 138.24 19.088L140 18.32C140.213 19.0133 140.571 19.5733 141.072 20C141.573 20.416 142.24 20.624 143.072 20.624C143.712 20.624 144.245 20.4907 144.672 20.224C145.109 19.9467 145.328 19.5307 145.328 18.976C145.328 18.4533 145.173 18.0693 144.864 17.824C144.565 17.568 144.08 17.3707 143.408 17.232L141.824 16.896C139.84 16.4907 138.848 15.4027 138.848 13.632C138.848 12.9813 139.013 12.4107 139.344 11.92C139.685 11.4293 140.171 11.0507 140.8 10.784C141.429 10.5067 142.165 10.368 143.008 10.368C144.128 10.368 145.072 10.6027 145.84 11.072C146.619 11.5307 147.131 12.2187 147.376 13.136L145.728 14C145.547 13.3387 145.216 12.832 144.736 12.48C144.267 12.1173 143.659 11.936 142.912 11.936C142.293 11.936 141.792 12.0747 141.408 12.352C141.035 12.6187 140.848 12.992 140.848 13.472C140.848 13.9307 140.981 14.2933 141.248 14.56C141.525 14.816 141.979 15.0133 142.608 15.152L144.256 15.504C145.269 15.7173 146.043 16.08 146.576 16.592C147.109 17.0933 147.376 17.824 147.376 18.784C147.376 19.4453 147.211 20.0427 146.88 20.576C146.549 21.0987 146.053 21.5147 145.392 21.824C144.741 22.1227 143.947 22.272 143.008 22.272ZM148.946 10.4H150.866V15.472C151.346 14.3627 152.205 13.808 153.442 13.808C154.306 13.808 154.962 14.08 155.41 14.624C155.858 15.168 156.082 15.968 156.082 17.024V22H154.162V17.184C154.162 16.576 154.034 16.1173 153.778 15.808C153.533 15.4987 153.165 15.344 152.674 15.344C152.098 15.344 151.65 15.5573 151.33 15.984C151.021 16.4 150.866 16.992 150.866 17.76V22H148.946V10.4ZM160.141 22.192C159.319 22.192 158.658 21.9787 158.157 21.552C157.655 21.1147 157.405 20.5387 157.405 19.824C157.405 19.44 157.485 19.0933 157.645 18.784C157.815 18.4747 158.061 18.2187 158.381 18.016C158.669 17.8453 159.015 17.7067 159.421 17.6C159.826 17.4827 160.349 17.3813 160.989 17.296L162.685 17.088V16.88C162.685 16.2827 162.562 15.8507 162.317 15.584C162.082 15.3067 161.709 15.168 161.197 15.168C160.727 15.168 160.354 15.2907 160.077 15.536C159.81 15.7707 159.661 16.1173 159.629 16.576H157.661C157.725 15.7227 158.071 15.0507 158.701 14.56C159.33 14.0587 160.162 13.808 161.197 13.808C162.381 13.808 163.245 14.0747 163.789 14.608C164.343 15.1307 164.621 15.9733 164.621 17.136V19.52C164.621 20.608 164.701 21.4347 164.861 22H162.941C162.866 21.5627 162.823 21.104 162.813 20.624C162.621 21.1147 162.285 21.4987 161.805 21.776C161.335 22.0533 160.781 22.192 160.141 22.192ZM160.749 20.832C161.346 20.832 161.826 20.64 162.189 20.256C162.551 19.8613 162.733 19.3493 162.733 18.72V18.208L160.925 18.48C160.391 18.5653 160.002 18.7093 159.757 18.912C159.511 19.1147 159.389 19.3867 159.389 19.728C159.389 20.0693 159.506 20.3413 159.741 20.544C159.986 20.736 160.322 20.832 160.749 20.832ZM168.456 15.936C168.669 15.2747 168.989 14.7573 169.416 14.384C169.842 14 170.37 13.808 171 13.808C171.096 13.808 171.17 13.8133 171.224 13.824V15.664L170.968 15.648C170.264 15.648 169.709 15.84 169.304 16.224C169.016 16.5013 168.824 16.8427 168.728 17.248C168.632 17.6427 168.584 18.1067 168.584 18.64V22H166.664V14H168.456V15.936ZM179.206 18.48H173.59C173.601 19.152 173.798 19.6907 174.182 20.096C174.577 20.4907 175.089 20.688 175.718 20.688C176.177 20.688 176.572 20.576 176.902 20.352C177.233 20.128 177.489 19.7973 177.67 19.36L179.142 20.032C178.844 20.7253 178.39 21.2587 177.782 21.632C177.185 22.0053 176.476 22.192 175.654 22.192C174.428 22.192 173.468 21.8347 172.774 21.12C172.081 20.3947 171.734 19.3813 171.734 18.08C171.734 16.7573 172.07 15.7173 172.742 14.96C173.425 14.192 174.364 13.808 175.558 13.808C176.721 13.808 177.617 14.1387 178.246 14.8C178.886 15.4507 179.206 16.384 179.206 17.6V18.48ZM177.318 17.088C177.318 16.4373 177.164 15.9413 176.854 15.6C176.545 15.2587 176.102 15.088 175.526 15.088C174.918 15.088 174.449 15.2747 174.118 15.648C173.788 16.0213 173.612 16.544 173.59 17.216H177.318V17.088Z" fill="black"/>
<path d="M100 1H190V-1H100V1ZM191 2V30H193V2H191ZM190 31H100V33H190V31ZM99 30V2H97V30H99ZM100 31C99.4477 31 99 30.5523 99 30H97C97 31.6569 98.3431 33 100 33V31ZM191 30C191 30.5523 190.552 31 190 31V33C191.657 33 193 31.6569 193 30H191ZM190 1C190.552 1 191 1.44772 191 2H193C193 0.343146 191.657 -1 190 -1V1ZM100 -1C98.3431 -1 97 0.343146 97 2H99C99 1.44772 99.4477 1 100 1V-1Z" fill="#D1CFC7"/>
<path d="M231.071 16.85V23.9207H233.071V16.85H240V14.85H233.071V7.92065H231.071V14.85H224V16.85H231.071Z" fill="black"/>
<path d="M255.84 19.008H251.392L250.368 22H248.272L252.496 10.64H254.736L258.96 22H256.864L255.84 19.008ZM255.296 17.44L253.968 13.6C253.84 13.2267 253.728 12.8213 253.632 12.384H253.6C253.504 12.8213 253.392 13.2267 253.264 13.6L251.936 17.44H255.296ZM262.614 22.192C261.974 22.192 261.409 22.0213 260.918 21.68C260.427 21.328 260.049 20.8373 259.782 20.208C259.515 19.568 259.382 18.8373 259.382 18.016C259.382 17.184 259.521 16.4533 259.798 15.824C260.086 15.184 260.486 14.688 260.998 14.336C261.51 13.984 262.097 13.808 262.758 13.808C263.857 13.808 264.625 14.2507 265.062 15.136V10.4H266.982V22H265.174V20.56C264.95 21.072 264.614 21.472 264.166 21.76C263.729 22.048 263.211 22.192 262.614 22.192ZM263.27 20.72C263.835 20.72 264.283 20.5013 264.614 20.064C264.945 19.616 265.11 19.0187 265.11 18.272V17.76C265.11 16.9813 264.945 16.3733 264.614 15.936C264.283 15.4987 263.83 15.28 263.254 15.28C262.667 15.28 262.209 15.52 261.878 16C261.547 16.4693 261.382 17.1307 261.382 17.984C261.382 18.8373 261.547 19.5093 261.878 20C262.219 20.48 262.683 20.72 263.27 20.72ZM271.872 22.192C271.232 22.192 270.667 22.0213 270.176 21.68C269.686 21.328 269.307 20.8373 269.04 20.208C268.774 19.568 268.64 18.8373 268.64 18.016C268.64 17.184 268.779 16.4533 269.056 15.824C269.344 15.184 269.744 14.688 270.256 14.336C270.768 13.984 271.355 13.808 272.016 13.808C273.115 13.808 273.883 14.2507 274.32 15.136V10.4H276.24V22H274.432V20.56C274.208 21.072 273.872 21.472 273.424 21.76C272.987 22.048 272.47 22.192 271.872 22.192ZM272.528 20.72C273.094 20.72 273.542 20.5013 273.872 20.064C274.203 19.616 274.368 19.0187 274.368 18.272V17.76C274.368 16.9813 274.203 16.3733 273.872 15.936C273.542 15.4987 273.088 15.28 272.512 15.28C271.926 15.28 271.467 15.52 271.136 16C270.806 16.4693 270.64 17.1307 270.64 17.984C270.64 18.8373 270.806 19.5093 271.136 20C271.478 20.48 271.942 20.72 272.528 20.72Z" fill="black"/>
<path d="M210 1H288V-1H210V1ZM289 2V30H291V2H289ZM288 31H210V33H288V31ZM209 30V2H207V30H209ZM210 31C209.448 31 209 30.5523 209 30H207C207 31.6569 208.343 33 210 33V31ZM289 30C289 30.5523 288.552 31 288 31V33C289.657 33 291 31.6569 291 30H289ZM288 1C288.552 1 289 1.44771 289 2H291C291 0.343147 289.657 -1 288 -1V1ZM210 -1C208.343 -1 207 0.343146 207 2H209C209 1.44772 209.448 1 210 1V-1Z" fill="#D1CFC7"/>
<path d="M398 12V14H400V16H398V18H396V16H394V14H396V12H398Z" fill="white"/>
<path fill-rule="evenodd" clip-rule="evenodd" d="M390 15C390 11.134 393.134 8 397 8C400.866 8 404 11.134 404 15C404 16.5723 403.482 18.0235 402.606 19.1921L407.523 24.1083L406.108 25.5225L401.192 20.6063C400.024 21.4816 398.572 22 397 22C393.134 22 390 18.866 390 15ZM397 10C394.239 10 392 12.2386 392 15C392 17.7614 394.239 20 397 20C399.761 20 402 17.7614 402 15C402 12.2386 399.761 10 397 10Z" fill="white"/>
<g clip-path="url(#clip0)">
<g clip-path="url(#clip1)">
<path d="M397.5 36L403.5 42L391.5 42L397.5 36Z" fill="#343332"/>
</g>
<g clip-path="url(#clip2)">
<rect x="365" y="42" width="65" height="28" rx="2" fill="#343332"/>
<path d="M379.123 52.18H373.719V51.06H380.537V52.292L374.937 59.88H380.733V61H373.537V59.768L379.123 52.18ZM384.561 61.168C383.908 61.168 383.334 61.0233 382.839 60.734C382.345 60.4353 381.962 60.0107 381.691 59.46C381.43 58.9093 381.299 58.256 381.299 57.5C381.299 56.744 381.43 56.0907 381.691 55.54C381.962 54.9893 382.345 54.5693 382.839 54.28C383.334 53.9813 383.908 53.832 384.561 53.832C385.215 53.832 385.789 53.9813 386.283 54.28C386.778 54.5693 387.156 54.9893 387.417 55.54C387.688 56.0907 387.823 56.744 387.823 57.5C387.823 58.256 387.688 58.9093 387.417 59.46C387.156 60.0107 386.778 60.4353 386.283 60.734C385.789 61.0233 385.215 61.168 384.561 61.168ZM384.561 60.132C385.196 60.132 385.686 59.908 386.031 59.46C386.386 59.012 386.563 58.3587 386.563 57.5C386.563 56.6413 386.386 55.988 386.031 55.54C385.686 55.092 385.196 54.868 384.561 54.868C383.927 54.868 383.432 55.092 383.077 55.54C382.732 55.988 382.559 56.6413 382.559 57.5C382.559 58.3587 382.732 59.012 383.077 59.46C383.432 59.908 383.927 60.132 384.561 60.132ZM392.061 61.168C391.407 61.168 390.833 61.0233 390.339 60.734C389.844 60.4353 389.461 60.0107 389.191 59.46C388.929 58.9093 388.799 58.256 388.799 57.5C388.799 56.744 388.929 56.0907 389.191 55.54C389.461 54.9893 389.844 54.5693 390.339 54.28C390.833 53.9813 391.407 53.832 392.061 53.832C392.714 53.832 393.288 53.9813 393.783 54.28C394.277 54.5693 394.655 54.9893 394.917 55.54C395.187 56.0907 395.323 56.744 395.323 57.5C395.323 58.256 395.187 58.9093 394.917 59.46C394.655 60.0107 394.277 60.4353 393.783 60.734C393.288 61.0233 392.714 61.168 392.061 61.168ZM392.061 60.132C392.695 60.132 393.185 59.908 393.531 59.46C393.885 59.012 394.063 58.3587 394.063 57.5C394.063 56.6413 393.885 55.988 393.531 55.54C393.185 55.092 392.695 54.868 392.061 54.868C391.426 54.868 390.931 55.092 390.577 55.54C390.231 55.988 390.059 56.6413 390.059 57.5C390.059 58.3587 390.231 59.012 390.577 59.46C390.931 59.908 391.426 60.132 392.061 60.132ZM398.048 54V55.218C398.44 54.294 399.107 53.832 400.05 53.832C400.535 53.832 400.946 53.9533 401.282 54.196C401.627 54.4293 401.879 54.7747 402.038 55.232C402.495 54.2987 403.205 53.832 404.166 53.832C404.838 53.832 405.361 54.0607 405.734 54.518C406.107 54.966 406.294 55.596 406.294 56.408V61H405.104V56.506C405.104 55.4047 404.661 54.854 403.774 54.854C403.279 54.854 402.892 55.0313 402.612 55.386C402.341 55.7313 402.206 56.2213 402.206 56.856V61H401.016V56.45C401.016 55.9367 400.899 55.5447 400.666 55.274C400.442 54.994 400.12 54.854 399.7 54.854C399.215 54.854 398.827 55.0407 398.538 55.414C398.258 55.778 398.118 56.2773 398.118 56.912V61H396.928V54H398.048ZM411.68 54H412.87V61H411.68V54ZM411.596 51.2H412.954V52.698H411.596V51.2ZM415.106 54H416.226V55.386C416.683 54.35 417.462 53.832 418.564 53.832C419.338 53.832 419.922 54.07 420.314 54.546C420.706 55.0127 420.902 55.7127 420.902 56.646V61H419.712V56.716C419.712 55.4747 419.198 54.854 418.172 54.854C417.593 54.854 417.136 55.078 416.8 55.526C416.464 55.9647 416.296 56.5713 416.296 57.346V61H415.106V54Z" fill="white"/>
</g>
</g>
<defs>
<clipPath id="clip0">
<rect width="65" height="34" fill="white" transform="translate(365 36)"/>
</clipPath>
<clipPath id="clip1">
<rect width="6" height="12" fill="white" transform="translate(391.5 42) rotate(-90)"/>
</clipPath>
<clipPath id="clip2">
<rect width="65" height="28" fill="white" transform="translate(365 42)"/>
</clipPath>
</defs>
</svg>
