<svg width="300" height="100" viewBox="0 0 300 100" fill="none" xmlns="http://www.w3.org/2000/svg">
<path fill-rule="evenodd" clip-rule="evenodd" d="M29.3997 30L44.2267 45.8154L41.3085 48.5512L31.3999 37.982V61.3243H27.3999V37.9816L17.4909 48.5512L14.5728 45.8154L29.3997 30ZM13 55.7236V66.1236H46.6V55.7236H50.6V70.1236H9V55.7236H13Z" fill="black"/>
<path fill-rule="evenodd" clip-rule="evenodd" d="M95.585 30.5234V57.5584L106.351 46.3622L109.234 49.1346L93.5855 65.4089L77.9371 49.1346L80.8204 46.3622L91.585 57.5573V30.5234H95.585ZM110.97 65.8567H76.2007V69.8567H110.97V65.8567Z" fill="black"/>
<path fill-rule="evenodd" clip-rule="evenodd" d="M135.4 30.125H165.8V69.325H159.248L150.6 60.9127L141.953 69.325H135.4V30.125ZM139.4 34.125V65.325H140.328L150.6 55.3322L160.873 65.325H161.8V34.125H139.4Z" fill="black"/>
<path fill-rule="evenodd" clip-rule="evenodd" d="M192.601 34.3464H229.401V30.3464H192.601V34.3464ZM219.963 43.5914L211.001 34.6296L202.039 43.5914L204.867 46.4198L211.001 40.2865L217.134 46.4198L219.963 43.5914ZM204.867 53.0281L211.001 59.1614L217.134 53.0281L219.963 55.8565L211.001 64.8183L202.039 55.8565L204.867 53.0281ZM192.601 69.1025H229.401V65.1025H192.601V69.1025Z" fill="black"/>
<path fill-rule="evenodd" clip-rule="evenodd" d="M266.995 70.4285H251.261V54.6938H255.261V63.601L266.266 52.5959L269.094 55.4243L258.09 66.4285H266.995V70.4285ZM286.905 37.6136L275.9 48.6187L273.071 45.7903L284.076 34.7852H275.17V30.7852H290.905V46.5198H286.905V37.6136Z" fill="black"/>
</svg>
