<svg width="441" height="321" viewBox="0 0 441 321" fill="none" xmlns="http://www.w3.org/2000/svg">
<path d="M65 61.4141L44.8393 31.1641L35.0428 45.4051L30.8278 40.3277L15 61.4141H65Z" fill="black"/>
<path fill-rule="evenodd" clip-rule="evenodd" d="M80 0.914062H0V81.5807H80V0.914062ZM10 71.4974V10.9974H70V71.4974H10Z" fill="black"/>
<path d="M20 180.893H40V170.875H20V180.893Z" fill="black"/>
<path d="M60 150.839H20V140.821H60V150.839Z" fill="black"/>
<path d="M20 165.866H60V155.848H20V165.866Z" fill="black"/>
<path fill-rule="evenodd" clip-rule="evenodd" d="M80 120.785H0V200.929H80V120.785ZM10 190.911V130.803H70V190.911H10Z" fill="black"/>
<path fill-rule="evenodd" clip-rule="evenodd" d="M140.166 0.830078H180.334V15.8928H200.417V81.1648H120.083V15.8928H140.166V0.830078ZM150.208 10.8719V15.8928H170.292V10.8719H150.208ZM130.124 25.9347V40.9974H190.375V25.9347H130.124ZM190.375 51.0393H170.292V61.0811H150.208V51.0393H130.124V71.123H190.375V51.0393Z" fill="black"/>
<path fill-rule="evenodd" clip-rule="evenodd" d="M240.25 121.049H320.25V186.166H297.592L285.092 201.193H275.408L262.908 186.166H240.25V121.049ZM250.25 131.067V176.148H267.592L280.092 191.175H280.408L292.908 176.148H310.25V131.067H250.25ZM300.25 151.103H260.25V141.085H300.25V151.103ZM285.25 166.13H260.25V156.112H285.25V166.13Z" fill="black"/>
<path fill-rule="evenodd" clip-rule="evenodd" d="M297.321 1.03906H240.25V81.1833H320.25V24.0093L297.321 1.03906ZM250.25 71.1653V11.0571H285.25V36.1022H310.25V71.1653H250.25ZM308.179 26.0841L295.25 13.1319V26.0841H308.179Z" fill="black"/>
<path fill-rule="evenodd" clip-rule="evenodd" d="M360.083 0.867188H440.418V81.3466H360.083V0.867188ZM370.125 10.9271V71.2867H430.376V10.9271H370.125ZM400.25 18.9036L422.414 41.1069L400.25 63.3103L393.15 56.1968L403.192 46.1369H380.167V36.077H403.192L393.15 26.017L400.25 18.9036Z" fill="black"/>
<path d="M390 131.124H410V121H390V131.124Z" fill="black"/>
<path fill-rule="evenodd" clip-rule="evenodd" d="M440 140.253V150.378H430V201H370V150.378H360V140.253H440ZM380 150.378V190.876H395V150.378H380ZM405 150.378V190.876H420V150.378H405Z" fill="black"/>
<path fill-rule="evenodd" clip-rule="evenodd" d="M0.25 241H80.25V321H0.25V241ZM10.25 251V311H70.25V251H10.25Z" fill="black"/>
<path fill-rule="evenodd" clip-rule="evenodd" d="M55.25 281L30.25 296V266L55.25 281Z" fill="black"/>
<path d="M285 286.5H295V296.357H285V306.214H275V296.357H265V286.5H275V276.643H285V286.5Z" fill="black"/>
<path fill-rule="evenodd" clip-rule="evenodd" d="M240 252H283.09L288.09 261.857H320V321H240V252ZM250 261.857V311.143H310V271.714H281.91L276.91 261.857H250Z" fill="black"/>
<path fill-rule="evenodd" clip-rule="evenodd" d="M360 252H403.09L408.09 261.857H440V321H360V252ZM370 261.857V311.143H430V271.714H401.91L396.91 261.857H370Z" fill="black"/>
<path fill-rule="evenodd" clip-rule="evenodd" d="M120.25 241H200.25V321H120.25V241ZM130.25 251V311H190.25V251H130.25ZM150.25 271H140.25V261H150.25V271ZM180.25 271H155.25V261H180.25V271ZM150.25 286H140.25V276H150.25V286ZM180.25 286H155.25V276H180.25V286ZM150.25 301H140.25V291H150.25V301ZM180.25 301H155.25V291H180.25V301Z" fill="black"/>
<path fill-rule="evenodd" clip-rule="evenodd" d="M120.25 121H200.25V201.144H120.25V121ZM130.25 131.018V156.063H155.25V131.018H130.25ZM165.25 131.018V156.063H190.25V131.018H165.25ZM155.25 166.081H130.25V191.126H155.25V166.081ZM165.25 191.126V166.081H190.25V191.126H165.25Z" fill="black"/>
</svg>
