<svg width="300" height="100" viewBox="0 0 300 100" fill="none" xmlns="http://www.w3.org/2000/svg">
<path fill-rule="evenodd" clip-rule="evenodd" d="M9 34.4958H32.3592V37.4933H12V63.2715H46.6V54.4789H49.6V66.269H9V34.4958Z" fill="black"/>
<path d="M26.9519 55.1779C26.8379 55.1779 26.7215 55.1618 26.6088 55.1307C26.0703 54.9777 25.6997 54.4891 25.6997 53.9345C25.6997 43.4227 31.4384 38.132 43.2299 37.7888V34.04C43.2299 33.5376 43.5342 33.0838 44.0025 32.8911C44.4721 32.6996 45.0093 32.8053 45.3674 33.1609L54.1325 41.8647C54.6221 42.3509 54.6221 43.1368 54.1325 43.6229L45.3674 52.3268C45.0093 52.6824 44.4708 52.7893 44.0025 52.5966C43.5342 52.4051 43.2299 51.95 43.2299 51.4477V47.7274C36.1302 47.7983 32.0281 48.1775 28.0162 54.5898C27.7833 54.9628 27.3763 55.1779 26.9519 55.1779ZM45.4759 36.7935V38.7761C45.4759 39.4661 44.9082 40.0261 44.206 40.0261C34.6296 40.0261 29.5042 43.01 28.0997 49.5827C32.5076 45.1113 37.5986 45.075 44.1958 45.0263C44.5133 45 44.86 45.155 45.1 45.39C45.3413 45.6238 45.4759 45.9425 45.4759 46.2763V48.2589L51.2997 42.5262L45.4759 36.7935Z" fill="black"/>
<path fill-rule="evenodd" clip-rule="evenodd" d="M95.085 30.3982V57.4103L105.851 46.2235L108.734 48.9936L93.0855 65.2542L77.4371 48.9936L80.3204 46.2235L91.085 57.4092V30.3982H95.085ZM110.47 65.7016H75.7007V69.6982H110.47V65.7016Z" fill="black"/>
<path fill-rule="evenodd" clip-rule="evenodd" d="M150.1 58.7726L136.9 67.9674V32.7971H163.3V67.9674L150.1 58.7726Z" fill="black"/>
<path fill-rule="evenodd" clip-rule="evenodd" d="M211.558 35.064H228.901V30H192.101V35.064H209.442L200.753 43.6734L204.367 47.2542L210.5 41.1774L216.634 47.2542L220.248 43.6734L211.558 35.064ZM204.367 52.2446L210.5 58.3214L216.634 52.2446L220.248 55.8254L211.557 64.4356H228.901V69.4996H192.101V64.4356H209.443L200.753 55.8254L204.367 52.2446Z" fill="black"/>
<path fill-rule="evenodd" clip-rule="evenodd" d="M255.85 63.6439L255.843 63.6509L255.85 63.658V66.9323H259.127L259.3 67.105L259.473 66.9323H265.628L262.551 63.8574L272.437 53.9796L268.98 50.5256L259.094 60.4033L255.85 57.1628V63.6439ZM286.868 39.56L276.3 50.1193L272.843 46.6652L283.411 36.1059L280.3 32.9974H290.078V42.7669L286.868 39.56Z" fill="black"/>
</svg>
