<svg width="302" height="90" viewBox="0 0 302 90" fill="none" xmlns="http://www.w3.org/2000/svg">
<path fill-rule="evenodd" clip-rule="evenodd" d="M13.6997 28.4761H37.059V31.4735H16.6997V57.2517H51.2997V48.4592H54.2997V60.2492H13.6997V28.4761Z" fill="black"/>
<path d="M31.6516 49.1582C31.5376 49.1582 31.4212 49.142 31.3085 49.1109C30.7701 48.958 30.3994 48.4693 30.3994 47.9148C30.3994 37.403 36.1381 32.1123 47.9297 31.7691V28.0202C47.9297 27.5179 48.2339 27.064 48.7022 26.8713C49.1718 26.6798 49.709 26.7855 50.0671 27.1411L58.8322 35.845C59.3218 36.3311 59.3218 37.117 58.8322 37.6032L50.0671 46.307C49.709 46.6626 49.1705 46.7696 48.7022 46.5768C48.2339 46.3854 47.9297 45.9303 47.9297 45.4279V41.7077C40.8299 41.7785 36.7278 42.1578 32.7159 48.57C32.483 48.9431 32.0761 49.1582 31.6516 49.1582ZM50.1756 30.7737V32.7563C50.1756 33.4463 49.608 34.0063 48.9057 34.0063C39.3293 34.0063 34.2039 36.9902 32.7994 43.5629C37.2073 39.0915 42.2983 39.0552 48.8955 39.0065C49.213 38.9802 49.5597 39.1352 49.7997 39.3703C50.041 39.604 50.1756 39.9228 50.1756 40.2565V42.2391L55.9994 36.5064L50.1756 30.7737Z" fill="black"/>
<path fill-rule="evenodd" clip-rule="evenodd" d="M99.7847 24.3784V51.3905L110.55 40.2038L113.434 42.9739L97.7852 59.2344L82.1368 42.9739L85.0201 40.2038L95.7847 51.3894V24.3784H99.7847ZM115.17 59.6818H80.4004V63.6784H115.17V59.6818Z" fill="black"/>
<path fill-rule="evenodd" clip-rule="evenodd" d="M154.8 52.7528L141.6 61.9476V26.7773H168V61.9476L154.8 52.7528Z" fill="black"/>
<path fill-rule="evenodd" clip-rule="evenodd" d="M216.258 29.0442H233.6V23.9802H196.8V29.0442H214.142L205.453 37.6536L209.067 41.2344L215.2 35.1576L221.333 41.2344L224.948 37.6536L216.258 29.0442ZM209.067 46.2248L215.2 52.3016L221.333 46.2248L224.948 49.8056L216.257 58.4158H233.6V63.4798H196.8V58.4158H214.143L205.453 49.8056L209.067 46.2248Z" fill="black"/>
<path fill-rule="evenodd" clip-rule="evenodd" d="M260.55 57.6241L260.543 57.6312L260.55 57.6382V60.9125H263.827L264 61.0852L264.173 60.9125H270.328L267.25 57.8376L277.136 47.9598L273.679 44.5058L263.793 54.3836L260.55 51.143V57.6241ZM291.568 33.5402L281 44.0995L277.543 40.6455L288.111 30.0861L285 26.9776H294.778V36.7471L291.568 33.5402Z" fill="black"/>
<path d="M0 23.9802H301.169" stroke="#EAE8E1"/>
<path d="M0 63.9463H301.169" stroke="#EAE8E1"/>
<rect x="64" y="87.2661" width="200" height="2" transform="rotate(-25.2346 64 87.2661)" fill="#DE3330"/>
<rect width="200" height="2" transform="matrix(0.90457 0.426326 0.426326 -0.90457 64 1.80908)" fill="#DE3330"/>
</svg>
