<svg width="300" height="60" viewBox="0 0 300 60" fill="none" xmlns="http://www.w3.org/2000/svg">
<path d="M90 16C90 14.8954 90.8954 14 92 14H120C121.105 14 122 14.8954 122 16V44C122 45.1046 121.105 46 120 46H92C90.8954 46 90 45.1046 90 44V16Z" fill="white"/>
<path fill-rule="evenodd" clip-rule="evenodd" d="M98 23H114V36H109.468L106.968 39H105.032L102.532 36H98V23ZM100 25V34H103.468L105.968 37H106.032L108.532 34H112V25H100ZM110 29H102V27H110V29ZM107 32H102V30H107V32Z" fill="black"/>
<path d="M92 15H120V13H92V15ZM121 16V44H123V16H121ZM120 45H92V47H120V45ZM91 44V16H89V44H91ZM92 45C91.4477 45 91 44.5523 91 44H89C89 45.6569 90.3431 47 92 47V45ZM121 44C121 44.5523 120.552 45 120 45V47C121.657 47 123 45.6569 123 44H121ZM120 15C120.552 15 121 15.4477 121 16H123C123 14.3431 121.657 13 120 13V15ZM92 13C90.3431 13 89 14.3431 89 16H91C91 15.4477 91.4477 15 92 15V13Z" fill="#D1CFC7"/>
<path d="M134 16C134 14.8954 134.895 14 136 14H164C165.105 14 166 14.8954 166 16V44C166 45.1046 165.105 46 164 46H136C134.895 46 134 45.1046 134 44V16Z" fill="white"/>
<path d="M150 22.0859L156.414 28.5002L155 29.9144L151 25.9145V34H149V25.9143L145 29.9144L143.586 28.5002L150 22.0859Z" fill="black"/>
<path d="M144 33V36H156V33H158V38H142V33H144Z" fill="black"/>
<path d="M136 15H164V13H136V15ZM165 16V44H167V16H165ZM164 45H136V47H164V45ZM135 44V16H133V44H135ZM136 45C135.448 45 135 44.5523 135 44H133C133 45.6569 134.343 47 136 47V45ZM165 44C165 44.5523 164.552 45 164 45V47C165.657 47 167 45.6569 167 44H165ZM164 15C164.552 15 165 15.4477 165 16H167C167 14.3431 165.657 13 164 13V15ZM136 13C134.343 13 133 14.3431 133 16H135C135 15.4477 135.448 15 136 15V13Z" fill="#D1CFC7"/>
<path d="M178 16C178 14.8954 178.895 14 180 14H208C209.105 14 210 14.8954 210 16V44C210 45.1046 209.105 46 208 46H180C178.895 46 178 45.1046 178 44V16Z" fill="white"/>
<path d="M193.071 30.85V37.9207H195.071V30.85H202V28.85H195.071V21.9207H193.071V28.85H186V30.85H193.071Z" fill="black"/>
<path d="M180 15H208V13H180V15ZM209 16V44H211V16H209ZM208 45H180V47H208V45ZM179 44V16H177V44H179ZM180 45C179.448 45 179 44.5523 179 44H177C177 45.6569 178.343 47 180 47V45ZM209 44C209 44.5523 208.552 45 208 45V47C209.657 47 211 45.6569 211 44H209ZM208 15C208.552 15 209 15.4477 209 16H211C211 14.3431 209.657 13 208 13V15ZM180 13C178.343 13 177 14.3431 177 16H179C179 15.4477 179.448 15 180 15V13Z" fill="#D1CFC7"/>
</svg>
