<svg width="300" height="60" viewBox="0 0 300 60" fill="none" xmlns="http://www.w3.org/2000/svg">
<path fill-rule="evenodd" clip-rule="evenodd" d="M29 23H45V36H40.4684L37.9684 39H36.0316L33.5316 36H29V23ZM31 25V34H34.4684L36.9684 37H37.0316L39.5316 34H43V25H31ZM41 29H33V27H41V29ZM38 32H33V30H38V32Z" fill="black"/>
<path d="M58.92 36.272C57.768 36.272 56.792 36.0213 55.992 35.52C55.192 35.008 54.5947 34.304 54.2 33.408C53.8053 32.512 53.608 31.4773 53.608 30.304C53.608 29.12 53.816 28.0853 54.232 27.2C54.6587 26.304 55.272 25.6107 56.072 25.12C56.872 24.6187 57.832 24.368 58.952 24.368C60.3387 24.368 61.4373 24.7307 62.248 25.456C63.0587 26.1813 63.544 27.1627 63.704 28.4L61.592 28.704C61.496 27.8827 61.2133 27.2373 60.744 26.768C60.2747 26.2987 59.656 26.064 58.888 26.064C57.896 26.064 57.1227 26.448 56.568 27.216C56.0133 27.9733 55.736 28.9973 55.736 30.288C55.736 31.568 56.0133 32.5973 56.568 33.376C57.1333 34.1547 57.9227 34.544 58.936 34.544C59.6613 34.544 60.2587 34.32 60.728 33.872C61.208 33.4133 61.5227 32.7787 61.672 31.968L63.72 32.384C63.464 33.5787 62.9307 34.528 62.12 35.232C61.32 35.9253 60.2533 36.272 58.92 36.272ZM65.2881 28H67.2081V36H65.2881V28ZM65.1921 24.672H67.2721V26.672H65.1921V24.672ZM68.3329 28H69.7729V25.984L71.6929 25.216V28H73.6449V29.392H71.6929V33.216C71.6929 33.6427 71.7889 33.9627 71.9809 34.176C72.1729 34.3787 72.4662 34.48 72.8609 34.48C73.0422 34.48 73.3035 34.448 73.6449 34.384V36C73.1755 36.096 72.7382 36.144 72.3329 36.144C71.4155 36.144 70.7595 35.92 70.3649 35.472C69.9702 35.024 69.7729 34.3733 69.7729 33.52V29.392H68.3329V28ZM81.8075 32.48H76.1915C76.2022 33.152 76.3995 33.6907 76.7835 34.096C77.1782 34.4907 77.6902 34.688 78.3195 34.688C78.7782 34.688 79.1728 34.576 79.5035 34.352C79.8342 34.128 80.0902 33.7973 80.2715 33.36L81.7435 34.032C81.4448 34.7253 80.9915 35.2587 80.3835 35.632C79.7862 36.0053 79.0768 36.192 78.2555 36.192C77.0288 36.192 76.0688 35.8347 75.3755 35.12C74.6822 34.3947 74.3355 33.3813 74.3355 32.08C74.3355 30.7573 74.6715 29.7173 75.3435 28.96C76.0262 28.192 76.9648 27.808 78.1595 27.808C79.3222 27.808 80.2182 28.1387 80.8475 28.8C81.4875 29.4507 81.8075 30.384 81.8075 31.6V32.48ZM79.9195 31.088C79.9195 30.4373 79.7648 29.9413 79.4555 29.6C79.1462 29.2587 78.7035 29.088 78.1275 29.088C77.5195 29.088 77.0502 29.2747 76.7195 29.648C76.3888 30.0213 76.2128 30.544 76.1915 31.216H79.9195V31.088Z" fill="black"/>
<path d="M15 15H93V13H15V15ZM94 16V44H96V16H94ZM93 45H15V47H93V45ZM14 44V16H12V44H14ZM15 45C14.4477 45 14 44.5523 14 44H12C12 45.6569 13.3431 47 15 47V45ZM94 44C94 44.5523 93.5523 45 93 45V47C94.6569 47 96 45.6569 96 44H94ZM93 15C93.5523 15 94 15.4477 94 16H96C96 14.3431 94.6569 13 93 13V15ZM15 13C13.3431 13 12 14.3431 12 16H14C14 15.4477 14.4477 15 15 15V13Z" fill="#D1CFC7"/>
<path d="M127 22.0859L133.414 28.5002L132 29.9144L128 25.9145V34H126V25.9143L122 29.9144L120.586 28.5002L127 22.0859Z" fill="black"/>
<path d="M121 33V36H133V33H135V38H119V33H121Z" fill="black"/>
<path d="M148.008 36.272C146.707 36.272 145.645 35.984 144.824 35.408C144.013 34.832 143.485 34.0587 143.24 33.088L145 32.32C145.213 33.0133 145.571 33.5733 146.072 34C146.573 34.416 147.24 34.624 148.072 34.624C148.712 34.624 149.245 34.4907 149.672 34.224C150.109 33.9467 150.328 33.5307 150.328 32.976C150.328 32.4533 150.173 32.0693 149.864 31.824C149.565 31.568 149.08 31.3707 148.408 31.232L146.824 30.896C144.84 30.4907 143.848 29.4027 143.848 27.632C143.848 26.9813 144.013 26.4107 144.344 25.92C144.685 25.4293 145.171 25.0507 145.8 24.784C146.429 24.5067 147.165 24.368 148.008 24.368C149.128 24.368 150.072 24.6027 150.84 25.072C151.619 25.5307 152.131 26.2187 152.376 27.136L150.728 28C150.547 27.3387 150.216 26.832 149.736 26.48C149.267 26.1173 148.659 25.936 147.912 25.936C147.293 25.936 146.792 26.0747 146.408 26.352C146.035 26.6187 145.848 26.992 145.848 27.472C145.848 27.9307 145.981 28.2933 146.248 28.56C146.525 28.816 146.979 29.0133 147.608 29.152L149.256 29.504C150.269 29.7173 151.043 30.08 151.576 30.592C152.109 31.0933 152.376 31.824 152.376 32.784C152.376 33.4453 152.211 34.0427 151.88 34.576C151.549 35.0987 151.053 35.5147 150.392 35.824C149.741 36.1227 148.947 36.272 148.008 36.272ZM153.946 24.4H155.866V29.472C156.346 28.3627 157.205 27.808 158.442 27.808C159.306 27.808 159.962 28.08 160.41 28.624C160.858 29.168 161.082 29.968 161.082 31.024V36H159.162V31.184C159.162 30.576 159.034 30.1173 158.778 29.808C158.533 29.4987 158.165 29.344 157.674 29.344C157.098 29.344 156.65 29.5573 156.33 29.984C156.021 30.4 155.866 30.992 155.866 31.76V36H153.946V24.4ZM165.141 36.192C164.319 36.192 163.658 35.9787 163.157 35.552C162.655 35.1147 162.405 34.5387 162.405 33.824C162.405 33.44 162.485 33.0933 162.645 32.784C162.815 32.4747 163.061 32.2187 163.381 32.016C163.669 31.8453 164.015 31.7067 164.421 31.6C164.826 31.4827 165.349 31.3813 165.989 31.296L167.685 31.088V30.88C167.685 30.2827 167.562 29.8507 167.317 29.584C167.082 29.3067 166.709 29.168 166.197 29.168C165.727 29.168 165.354 29.2907 165.077 29.536C164.81 29.7707 164.661 30.1173 164.629 30.576H162.661C162.725 29.7227 163.071 29.0507 163.701 28.56C164.33 28.0587 165.162 27.808 166.197 27.808C167.381 27.808 168.245 28.0747 168.789 28.608C169.343 29.1307 169.621 29.9733 169.621 31.136V33.52C169.621 34.608 169.701 35.4347 169.861 36H167.941C167.866 35.5627 167.823 35.104 167.813 34.624C167.621 35.1147 167.285 35.4987 166.805 35.776C166.335 36.0533 165.781 36.192 165.141 36.192ZM165.749 34.832C166.346 34.832 166.826 34.64 167.189 34.256C167.551 33.8613 167.733 33.3493 167.733 32.72V32.208L165.925 32.48C165.391 32.5653 165.002 32.7093 164.757 32.912C164.511 33.1147 164.389 33.3867 164.389 33.728C164.389 34.0693 164.506 34.3413 164.741 34.544C164.986 34.736 165.322 34.832 165.749 34.832ZM173.456 29.936C173.669 29.2747 173.989 28.7573 174.416 28.384C174.842 28 175.37 27.808 176 27.808C176.096 27.808 176.17 27.8133 176.224 27.824V29.664L175.968 29.648C175.264 29.648 174.709 29.84 174.304 30.224C174.016 30.5013 173.824 30.8427 173.728 31.248C173.632 31.6427 173.584 32.1067 173.584 32.64V36H171.664V28H173.456V29.936ZM184.206 32.48H178.59C178.601 33.152 178.798 33.6907 179.182 34.096C179.577 34.4907 180.089 34.688 180.718 34.688C181.177 34.688 181.572 34.576 181.902 34.352C182.233 34.128 182.489 33.7973 182.67 33.36L184.142 34.032C183.844 34.7253 183.39 35.2587 182.782 35.632C182.185 36.0053 181.476 36.192 180.654 36.192C179.428 36.192 178.468 35.8347 177.774 35.12C177.081 34.3947 176.734 33.3813 176.734 32.08C176.734 30.7573 177.07 29.7173 177.742 28.96C178.425 28.192 179.364 27.808 180.558 27.808C181.721 27.808 182.617 28.1387 183.246 28.8C183.886 29.4507 184.206 30.384 184.206 31.6V32.48ZM182.318 31.088C182.318 30.4373 182.164 29.9413 181.854 29.6C181.545 29.2587 181.102 29.088 180.526 29.088C179.918 29.088 179.449 29.2747 179.118 29.648C178.788 30.0213 178.612 30.544 178.59 31.216H182.318V31.088Z" fill="black"/>
<path d="M105 15H195V13H105V15ZM196 16V44H198V16H196ZM195 45H105V47H195V45ZM104 44V16H102V44H104ZM105 45C104.448 45 104 44.5523 104 44H102C102 45.6569 103.343 47 105 47V45ZM196 44C196 44.5523 195.552 45 195 45V47C196.657 47 198 45.6569 198 44H196ZM195 15C195.552 15 196 15.4477 196 16H198C198 14.3431 196.657 13 195 13V15ZM105 13C103.343 13 102 14.3431 102 16H104C104 15.4477 104.448 15 105 15V13Z" fill="#D1CFC7"/>
<path d="M228.071 30.85V37.9207H230.071V30.85H237V28.85H230.071V21.9207H228.071V28.85H221V30.85H228.071Z" fill="black"/>
<path d="M252.84 33.008H248.392L247.368 36H245.272L249.496 24.64H251.736L255.96 36H253.864L252.84 33.008ZM252.296 31.44L250.968 27.6C250.84 27.2267 250.728 26.8213 250.632 26.384H250.6C250.504 26.8213 250.392 27.2267 250.264 27.6L248.936 31.44H252.296ZM259.614 36.192C258.974 36.192 258.409 36.0213 257.918 35.68C257.427 35.328 257.049 34.8373 256.782 34.208C256.515 33.568 256.382 32.8373 256.382 32.016C256.382 31.184 256.521 30.4533 256.798 29.824C257.086 29.184 257.486 28.688 257.998 28.336C258.51 27.984 259.097 27.808 259.758 27.808C260.857 27.808 261.625 28.2507 262.062 29.136V24.4H263.982V36H262.174V34.56C261.95 35.072 261.614 35.472 261.166 35.76C260.729 36.048 260.211 36.192 259.614 36.192ZM260.27 34.72C260.835 34.72 261.283 34.5013 261.614 34.064C261.945 33.616 262.11 33.0187 262.11 32.272V31.76C262.11 30.9813 261.945 30.3733 261.614 29.936C261.283 29.4987 260.83 29.28 260.254 29.28C259.667 29.28 259.209 29.52 258.878 30C258.547 30.4693 258.382 31.1307 258.382 31.984C258.382 32.8373 258.547 33.5093 258.878 34C259.219 34.48 259.683 34.72 260.27 34.72ZM268.872 36.192C268.232 36.192 267.667 36.0213 267.176 35.68C266.686 35.328 266.307 34.8373 266.04 34.208C265.774 33.568 265.64 32.8373 265.64 32.016C265.64 31.184 265.779 30.4533 266.056 29.824C266.344 29.184 266.744 28.688 267.256 28.336C267.768 27.984 268.355 27.808 269.016 27.808C270.115 27.808 270.883 28.2507 271.32 29.136V24.4H273.24V36H271.432V34.56C271.208 35.072 270.872 35.472 270.424 35.76C269.987 36.048 269.47 36.192 268.872 36.192ZM269.528 34.72C270.094 34.72 270.542 34.5013 270.872 34.064C271.203 33.616 271.368 33.0187 271.368 32.272V31.76C271.368 30.9813 271.203 30.3733 270.872 29.936C270.542 29.4987 270.088 29.28 269.512 29.28C268.926 29.28 268.467 29.52 268.136 30C267.806 30.4693 267.64 31.1307 267.64 31.984C267.64 32.8373 267.806 33.5093 268.136 34C268.478 34.48 268.942 34.72 269.528 34.72Z" fill="black"/>
<path d="M207 15H285V13H207V15ZM286 16V44H288V16H286ZM285 45H207V47H285V45ZM206 44V16H204V44H206ZM207 45C206.448 45 206 44.5523 206 44H204C204 45.6569 205.343 47 207 47V45ZM286 44C286 44.5523 285.552 45 285 45V47C286.657 47 288 45.6569 288 44H286ZM285 15C285.552 15 286 15.4477 286 16H288C288 14.3431 286.657 13 285 13V15ZM207 13C205.343 13 204 14.3431 204 16H206C206 15.4477 206.448 15 207 15V13Z" fill="#D1CFC7"/>
</svg>
