<svg width="24" height="24" viewBox="0 0 24 24" fill="none" xmlns="http://www.w3.org/2000/svg">
<path fill-rule="evenodd" clip-rule="evenodd" d="M10.9318 8.25988C11.0606 8.02924 11.3158 7.875 11.577 7.875C11.9478 7.875 12.2059 8.05802 12.3653 8.31856C12.5209 8.57283 12.5823 8.89855 12.5823 9.20236V9.2107C12.5399 9.84658 12.4149 10.483 12.2074 11.0803C12.3258 11.2898 12.4614 11.4839 12.601 11.6834C12.8034 11.9465 12.9993 12.2004 13.2278 12.4185C13.601 12.3589 13.9935 12.3194 14.3682 12.3194C15.0797 12.3194 15.6219 12.4463 15.9184 12.7658C16.1273 12.9761 16.1741 13.285 16.0751 13.5591C16.0341 13.6808 15.9473 13.8112 15.794 13.9102C15.6406 14.0093 15.4277 14.0724 15.1411 14.0724C14.7337 14.0724 13.9307 13.9387 13.024 13.1802C12.7991 13.2266 12.5638 13.2827 12.3161 13.3418C12.2313 13.3621 12.1451 13.3826 12.0574 13.4033C11.7353 13.4839 11.4318 13.5837 11.1248 13.686C10.8374 14.1822 10.4864 14.7155 10.1012 15.1302C9.71185 15.5493 9.26367 15.8731 8.79197 15.8759C8.54121 15.899 8.2977 15.7996 8.1278 15.6552C7.91379 15.4926 7.8401 15.2277 7.89007 14.976C7.92882 14.7647 8.05881 14.5703 8.22614 14.3981C8.39496 14.2243 8.61129 14.0632 8.84004 13.9194C9.28006 13.6428 9.7809 13.4206 10.118 13.2881C10.3397 12.9198 10.5233 12.5306 10.6878 12.1193C10.8743 11.6429 11.0399 11.2084 11.1854 10.776C10.9673 10.2774 10.8304 9.78757 10.7818 9.35867C10.7324 8.92198 10.7726 8.5304 10.9318 8.25988ZM11.6129 8.51215C11.5633 8.5274 11.532 8.5517 11.5109 8.58223C11.4663 8.65887 11.4234 8.83689 11.4414 9.12203C11.4541 9.32376 11.4969 9.57167 11.5852 9.86107C11.6671 9.52445 11.7157 9.1851 11.7311 8.83468C11.7309 8.73265 11.7199 8.64238 11.6933 8.5815C11.6806 8.55245 11.6669 8.53608 11.6546 8.52697C11.6458 8.52038 11.6333 8.51416 11.6129 8.51215ZM11.931 11.9687C11.8712 12.129 11.8075 12.291 11.7337 12.4532L11.7318 12.4574C11.6827 12.5557 11.6334 12.6612 11.5838 12.7706L11.6025 12.765L11.637 12.7545C11.7126 12.7315 11.7901 12.7079 11.8674 12.6885L11.8688 12.6881C12.0374 12.6422 12.2092 12.5953 12.3822 12.5563L12.3493 12.5159C12.2447 12.3878 12.1338 12.252 12.0351 12.1114C11.9978 12.0645 11.9638 12.017 11.931 11.9687ZM13.7943 12.981C14.0658 13.1602 14.3664 13.2974 14.6776 13.3752L14.687 13.3776C14.7292 13.3916 14.7733 13.393 14.8406 13.393C14.9281 13.393 15.0008 13.371 15.0504 13.3397C15.0998 13.3086 15.1204 13.2731 15.1248 13.2427L15.1266 13.2299C15.1383 13.1831 15.1358 13.1535 15.1299 13.1347C15.1241 13.1161 15.1127 13.099 15.0926 13.082C15.0487 13.0449 14.9754 13.018 14.8843 12.9973C14.6924 12.976 14.5082 12.9559 14.3253 12.9559C14.153 12.9559 13.9725 12.9643 13.7943 12.981ZM8.67439 14.881C8.60288 14.9666 8.57245 15.0334 8.56618 15.0804L8.56461 15.0922L8.56086 15.1034C8.55899 15.109 8.55806 15.1198 8.56175 15.1318C8.56522 15.1431 8.57098 15.1497 8.57602 15.1531L8.58632 15.16L8.58912 15.1628C8.59218 15.1642 8.59674 15.1661 8.60258 15.168C8.60959 15.1704 8.61689 15.1723 8.62352 15.1735C8.63047 15.1749 8.63452 15.1751 8.63551 15.1751C8.67503 15.1751 8.74032 15.1552 8.83334 15.0947C8.92379 15.0358 9.02859 14.9461 9.14417 14.8267C9.30238 14.6631 9.47575 14.4489 9.65462 14.1936C9.38669 14.3326 9.15772 14.4724 8.97858 14.6059C8.8464 14.7044 8.74454 14.7971 8.67439 14.881Z" fill="black"/>
<path fill-rule="evenodd" clip-rule="evenodd" d="M15.4142 4H4V20H20V8.58579L15.4142 4ZM6 18V6H14.5858L18 9.41421V18H6Z" fill="black"/>
</svg>
