<svg width="21" height="21" viewBox="0 0 21 21" xmlns="http://www.w3.org/2000/svg">
<path d="M9 21C7.75 21 6.57917 20.7625 5.4875 20.2875C4.39583 19.8125 3.44583 19.1708 2.6375 18.3625C1.82917 17.5542 1.1875 16.6042 0.7125 15.5125C0.2375 14.4208 0 13.25 0 12C0 9.5 0.875 7.375 2.625 5.625C4.375 3.875 6.5 3 9 3H9.15L7.6 1.45L9 0L13 4L9 8L7.6 6.55L9.15 5H9C7.05 5 5.39583 5.67917 4.0375 7.0375C2.67917 8.39583 2 10.05 2 12C2 13.95 2.67917 15.6042 4.0375 16.9625C5.39583 18.3208 7.05 19 9 19C9.58333 19 10.1583 18.9292 10.725 18.7875C11.2917 18.6458 11.8333 18.4333 12.35 18.15L13.8 19.6C13.0833 20.0667 12.3167 20.4167 11.5 20.65C10.6833 20.8833 9.85 21 9 21ZM15 18L9 12L15 6L21 12L15 18ZM15 15.15L18.15 12L15 8.85L11.85 12L15 15.15Z"/>
</svg>
