<svg width="18" height="17" viewBox="0 0 18 17" fill="none" xmlns="http://www.w3.org/2000/svg">
<path d="M0 1H8.05H11.5" stroke="black" stroke-width="2"/>
<path d="M0 15H7.7H11" stroke="black" stroke-width="2"/>
<path d="M1 1L1 11.5L0.999999 16" stroke="black" stroke-width="2"/>
<path d="M15 4L15 8.2L15 10" stroke="black" stroke-width="2"/>
<path d="M11 1H12L13 2L14.5 3.5L15 4V4.5V5" stroke="black" stroke-width="2"/>
<circle cx="13.5" cy="12.5" r="3.5" stroke="black" stroke-width="2"/>
<rect x="12.7071" y="11.3536" width="2.5" height="0.5" transform="rotate(45 12.7071 11.3536)" fill="#FDAEAE" stroke="black" stroke-width="0.5"/>
<rect y="0.353553" width="2.5" height="0.5" transform="matrix(-0.707107 0.707107 0.707107 0.707107 13.8713 11.1036)" fill="#FDAEAE" stroke="black" stroke-width="0.5"/>
<rect x="3.75" y="1.75" width="3.5" height="3.5" stroke="black" stroke-width="1.5"/>
<rect x="3.75" y="11.45" width="5.5" height="3.5" stroke="black" stroke-width="1.5"/>
</svg>
