<svg width="67" height="91" viewBox="0 0 67 91" fill="none" xmlns="http://www.w3.org/2000/svg">
<path fill-rule="evenodd" clip-rule="evenodd" d="M65.7858 64.4838H1.49513V0H65.7858V64.4838ZM16.7685 5.1461C14.8572 4.37486 12.8466 4.54945 12.8267 4.55173C9.32798 4.86485 5.72435 7.47671 5.55933 12.6057C5.39943 17.664 8.15374 20.521 10.7849 21.5082C14.0341 22.7279 15.8688 22.0216 15.9457 21.9906C16.0182 21.962 16.1014 21.9842 16.1518 22.046C16.2001 22.1085 16.2066 22.1939 16.1679 22.2599L16.1431 22.288C15.8591 22.5916 15.1752 23.334 14.7686 23.8764C15.0696 23.9125 15.4669 24.0421 15.7304 24.163C16.1565 24.3579 16.3113 24.4414 16.4904 24.5507C17.4617 23.074 18.7799 21.7692 20.4091 20.6721C21.6852 19.8124 23.7577 18.9867 25.8178 18.5168L26.0385 18.4667L25.861 18.6073C25.2525 19.0895 24.8192 19.5957 24.4126 20.2997C23.9039 21.178 23.5116 22.4328 23.6349 22.786C23.6476 22.8228 23.6605 22.8281 23.6685 22.8309C23.8613 22.9009 23.8615 22.9006 23.9318 22.7948L23.932 22.7945L23.9336 22.792C23.9823 22.718 24.0556 22.6066 24.1828 22.4656C24.3452 22.2882 24.4916 22.2018 24.6309 22.2018C24.6356 22.2018 24.6402 22.2018 24.6447 22.202C24.7544 22.2058 24.8416 22.2629 24.9052 22.3127L24.9244 22.3275C25.0278 22.4039 25.0113 22.5174 24.9711 22.7922C24.9009 23.2773 24.7705 24.1804 25.2241 24.9097C25.84 25.8994 26.3875 26.5296 26.6893 26.5957C26.7414 26.6057 26.767 26.5953 26.7848 26.583C26.818 26.5596 26.9189 26.4387 26.8056 25.8795C26.6833 25.2783 26.4055 23.2395 26.7215 21.8041C27.111 20.0333 28.2362 18.3124 29.6655 18.3124C29.7094 18.3124 29.7538 18.3139 29.7983 18.3174V16.6906C29.5158 16.6806 28.0881 16.5783 27.2459 15.6825C26.8022 15.2108 26.5908 14.5959 26.6179 13.8543C26.6755 12.2683 27.3867 11.3263 28.0002 10.6824C28.0974 10.5801 28.3944 10.2673 28.301 10.0741C28.2256 9.91872 28.0981 9.83655 27.9106 9.82232C27.8922 9.82118 27.8736 9.82023 27.8543 9.82023C27.1658 9.82023 25.9726 10.6958 25.5873 11.257C25.1252 11.9303 24.8605 12.7803 24.8122 12.9441C24.7955 12.998 24.7576 13.0392 24.7002 13.069C24.5496 13.1491 24.1843 13.0925 23.9168 12.7807C23.7118 12.542 23.6993 12.0951 23.7071 11.9975C23.7086 11.9802 23.7056 11.8759 23.7037 11.8611H23.7035C23.7029 11.8611 23.7015 11.8605 23.6992 11.8596C23.6895 11.8557 23.6648 11.8459 23.6283 11.8491C23.5807 11.8512 23.4583 11.8764 23.3496 12.0554C23.1012 12.4651 23.32 14.4219 24.0752 15.4761C24.4399 15.9841 24.7283 16.3856 24.96 16.6815L25.0119 16.7487L24.9285 16.7641C24.3639 16.8669 23.8162 17.0106 23.3009 17.1907C22.434 17.4932 21.5266 17.8708 20.6482 18.2365L20.6284 18.2447L20.6161 18.25C19.5696 18.6859 18.487 19.1368 17.4869 19.4545C14.545 20.3903 12.198 20.3208 10.701 19.2541C9.21696 18.1936 7.45938 16.2177 7.51338 12.823C7.54009 11.0834 8.30189 9.25565 9.50153 8.05287C10.525 7.02638 11.808 6.48363 13.2116 6.48363C13.2596 6.48363 13.3071 6.4842 13.3556 6.48514C17.0633 6.5732 18.3349 8.92962 18.2974 10.9211C18.2608 12.8139 17.2084 14.0402 15.4817 14.2017C14.3283 14.3131 13.4509 13.5525 13.1802 12.7481C13.0027 12.2226 12.9845 11.7328 12.9699 11.3392L12.9699 11.3383C12.956 10.9504 12.9453 10.6498 12.8003 10.5266C12.7401 10.4753 12.6838 10.46 12.6167 10.4759C12.4682 10.5154 12.2915 10.7239 12.1886 10.9828C11.771 12.0254 11.7968 13.1954 12.2591 14.1928C12.7602 15.2728 14.1792 16.2558 15.929 16.0497C17.7341 15.8357 19.102 14.8128 19.7806 13.1697C20.2277 12.0897 20.288 11.4567 20.2399 10.7854L20.2394 10.7792C20.2254 10.5818 20.2113 10.3841 20.1417 10.118C20.1283 10.0686 20.1362 10.0144 20.1635 9.96977C20.1925 9.92385 20.2378 9.89367 20.288 9.88551C20.3378 9.87697 21.5316 9.6574 22.2727 8.5922C23.6095 6.66543 23.106 5.5951 22.9195 5.31291C22.7581 5.06848 22.5791 5.00016 22.5329 5.01535C22.4889 5.03623 22.4313 5.26445 22.3997 5.38985L22.3989 5.393C22.2672 5.92133 22.0698 6.71211 21.0579 7.02334C20.169 7.29833 19.5459 6.85786 18.7576 6.29992L18.7453 6.29101L18.7403 6.28747C18.2084 5.91125 17.6053 5.48473 16.7685 5.1461ZM6.90378 26.943C6.80083 27.1793 6.68414 27.4472 6.54753 27.8209C5.78213 29.9247 5.53944 30.9318 5.51102 33.1322C5.47995 35.5631 6.2374 37.7935 7.64316 39.4119C8.98299 40.9543 10.8018 41.852 12.7647 41.9398C15.6061 42.0676 18.0096 40.3047 18.9185 39.6381L18.9218 39.6356C20.323 38.6084 22.9013 35.9109 22.9271 35.8836L22.9737 35.835L23.0086 35.8931C23.0169 35.9071 23.8755 37.3318 24.7444 37.7369C25.4003 38.0432 26.2252 37.9455 26.5914 37.8121C26.7105 37.7684 26.7486 37.7329 26.7532 37.7229C26.7441 37.7066 26.652 37.6297 26.5631 37.5557C26.1636 37.2219 25.3326 36.5271 25.2038 35.2277C25.0729 33.9168 27.7006 32.6992 29.5918 32.347L29.6511 30.5067C29.4025 30.5177 28.2429 30.6267 27.9945 30.6954C24.6273 31.6275 22.4749 33.6864 20.3933 35.6775C18.1691 37.805 16.0665 39.8155 12.8143 39.8157C12.8013 39.8157 12.7884 39.8157 12.7754 39.8157C12.7656 39.8156 12.7558 39.8156 12.746 39.8155C11.5109 39.8047 10.2849 39.205 9.29294 38.1275C8.02169 36.7457 7.31085 34.8061 7.43779 33.0649C7.58689 31.028 8.32198 29.3612 9.5631 28.2442C10.549 27.3569 11.8233 26.8521 13.0705 26.8521C13.0955 26.8521 13.1203 26.8522 13.1449 26.8524C14.1049 26.8663 15.0926 27.2364 15.8544 27.8677C16.4553 28.3657 17.1868 29.2481 17.2599 30.6255C17.317 31.7076 16.9627 32.7125 16.3119 33.3131C16.1186 33.4917 15.0698 34.3635 13.371 33.9902C12.6249 33.8268 11.9942 33.1915 11.6528 32.6517C11.4082 32.2652 11.2476 31.8196 11.0912 31.3588C11.0518 31.2429 10.9241 31.1307 10.7694 31.1487C10.5894 31.1702 10.4598 31.4328 10.4306 31.8338C10.3425 33.0518 11.1606 35.0216 13.2554 35.5881C16.6861 36.5171 18.4234 33.971 18.803 32.9114C19.2125 31.7636 19.2375 31.1028 19.2375 31.096C19.242 31.0664 19.2642 30.95 19.3492 30.9328C19.4358 30.9182 19.505 31.0127 19.5501 31.0867C19.7098 31.3539 20.6076 31.8758 21.3664 31.6698C22.199 31.4458 22.5632 30.7262 22.9153 30.0305L22.9156 30.03L22.9161 30.029C23.2421 29.3843 23.55 28.7756 24.2069 28.6724C24.9977 28.5463 25.2425 28.6629 25.3888 28.7326L25.3895 28.7329C25.4848 28.7792 25.5139 28.7931 25.6719 28.6811C25.8015 28.5894 25.7894 28.4509 25.7557 28.3513C25.6132 27.9252 24.8209 27.3223 23.7613 27.3608C22.7034 27.3931 22.3294 27.7229 21.8963 28.1049L21.8952 28.1059C21.6324 28.3373 21.3608 28.5764 20.9138 28.7703C19.7718 29.2638 19.2029 29.1086 19.1761 29.1013L19.1759 29.1013L19.1533 29.0946L19.1439 29.0732C19.1251 29.0328 17.2311 25.0297 12.9157 25.0297H12.8862C10.5477 25.0391 9.21821 26.0392 8.78022 26.3687L8.7797 26.3691C8.63382 26.4793 8.59915 26.5048 8.55633 26.4767C8.54572 26.4697 8.52204 26.449 8.53246 26.405C8.57642 26.2213 8.26969 25.0818 8.05655 24.6374C7.80571 24.1091 7.16194 23.8345 6.96131 23.8094C7.11723 23.9722 7.37508 24.5983 7.31104 25.4151C7.25818 26.13 7.12537 26.4347 6.90504 26.9401L6.90378 26.943ZM10.1606 37.1507C10.2389 37.3834 11.6024 38.3045 12.1384 38.3537C12.1384 38.3537 12.0783 37.4693 12.2685 36.6831C12.2685 36.6831 11.1422 36.1703 10.463 34.982C10.2834 35.6042 10.1515 36.667 10.1606 37.1507ZM12.7128 28.1653C12.4404 28.5257 11.9974 29.3468 11.8788 30.1296C12.3432 31.474 12.8913 32.0105 13.269 32.1773C13.5847 30.9519 13.9467 29.7408 14.5143 28.6422C14.4224 28.553 13.7501 27.9725 12.7128 28.1653ZM11.0797 59.122C11.3516 59.3869 12.8354 57.7338 13.7262 55.8457C14.6199 53.9554 14.8374 51.9812 14.5829 50.2149C14.4361 49.1936 13.769 47.7557 13.371 46.9647C14.3965 47.6456 15.5217 48.0405 16.3623 48.1807C18.7293 48.5795 20.8649 48.6751 22.4467 48.3178C22.9695 48.2002 23.3601 48.0724 23.6538 47.9763C24.1218 47.8231 24.3438 47.7505 24.4627 47.9282C24.6737 48.2432 23.7927 49.1089 20.927 49.5617C17.9442 50.0371 16.1258 49.3505 16.1258 49.3505C16.1258 49.3505 16.1586 49.9789 17.202 50.7839C17.6329 51.1178 18.0056 51.3438 18.3382 51.5454C18.8333 51.8457 19.2395 52.092 19.6168 52.5602C19.9509 52.9765 19.9727 53.3921 19.9878 53.6803C19.9992 53.8963 20.0067 54.0408 20.1391 54.0605C20.3462 54.0906 20.4463 53.7717 20.587 53.3235C20.6546 53.1081 20.7316 52.8628 20.8344 52.612C21.1489 51.8419 20.8812 51.0888 20.8812 51.0888C20.8812 51.0888 21.9601 52.0013 24.0402 51.7851C25.5107 51.6325 26.3691 51.3741 26.2801 51.0689C26.2365 50.9292 26.101 50.9203 25.8222 50.9019C25.6488 50.8905 25.4198 50.8753 25.1231 50.8228C24.348 50.685 24.0466 50.3649 24.0466 50.3649C24.0466 50.3649 25.3235 49.9585 26.8953 48.8681C28.4626 47.7807 29.4813 46.4079 29.2587 46.0811C29.0886 45.8341 28.6611 45.9804 28.1243 46.1641C27.9533 46.2226 27.7712 46.285 27.5828 46.3396C26.4864 46.6565 26.0933 46.6455 26.0933 46.6455C26.0933 46.6455 25.9696 46.4954 26.4652 45.9101C26.8144 45.4973 27.146 45.2803 27.3846 45.1241C27.6136 44.9742 27.7569 44.8804 27.7482 44.7234C27.7309 44.4035 26.7013 44.0363 24.0773 45.2188C23.1391 45.6406 22.1301 46.2984 22.1301 46.2984C22.1301 46.2984 22.5391 45.0666 22.6878 44.2183C22.7048 44.1203 22.7242 44.0127 22.7447 43.8989C22.9007 43.0334 23.1218 41.8064 22.8549 41.704C22.6751 41.6362 22.6322 41.7082 22.5026 41.9254C22.4132 42.0754 22.2823 42.2948 22.0365 42.5853C21.9547 42.6807 21.884 42.7663 21.8216 42.8418C21.5563 43.1625 21.4424 43.3004 21.2781 43.2385C21.0934 43.1667 21.06 42.9449 21.0184 42.6697C20.9962 42.5225 20.9717 42.3601 20.9206 42.1972C20.7736 41.7307 20.3924 41.1147 20.2351 41.2009C20.093 41.2785 19.9757 41.7695 19.8316 42.3725C19.6332 43.2027 19.3842 44.2451 18.9499 44.7124C18.7017 44.9789 18.369 45.1556 18.0365 45.282C17.5146 45.4801 16.9536 45.563 16.4017 45.5649C15.7651 45.5664 15.1284 45.4552 14.535 45.23L14.498 45.2159C13.8707 44.9776 12.7254 44.5424 11.9824 43.3546C11.9824 43.3546 11.8909 43.1794 11.8752 43.1783C11.8741 43.1761 11.8729 43.1742 11.8716 43.1722C11.8709 43.171 11.8702 43.1699 11.8695 43.1686L11.8654 43.1768C11.2239 43.1026 10.5949 42.9242 9.81186 42.5722C10.0218 43.1886 10.3478 43.9864 10.5932 44.5752C11.4524 46.6303 12.6351 50.1083 11.509 52.8437C10.1639 56.1127 7.03917 56.7515 6.69493 56.0446C6.59314 55.8347 6.87391 55.6998 7.33747 55.477C8.13355 55.0945 9.46871 54.4529 10.3312 52.7275C11.4417 50.5051 10.6023 47.7217 10.6023 47.7217C10.6023 47.7217 10.5949 50.1155 8.87746 51.739C7.45817 53.0801 6.3937 52.9825 5.82111 52.9299C5.60927 52.9105 5.46475 52.8973 5.39451 52.9653C5.09536 53.2551 5.57335 53.4887 6.04983 53.7166C6.34197 53.8525 6.87586 53.9829 6.87586 53.9829C6.87586 53.9829 6.32246 54.5006 5.53167 54.8925C5.40666 54.955 5.29118 55.0111 5.18534 55.0626C4.65647 55.3198 4.36832 55.46 4.33469 55.6888C4.30267 55.8996 5.34525 56.9189 6.33572 57.3603C7.32013 57.7989 8.52791 57.9118 8.52791 57.9118C8.52791 57.9118 8.62226 57.8793 8.29659 58.4574C8.17425 58.6727 8.04894 58.8417 7.94597 58.9806C7.76414 59.2259 7.65199 59.3772 7.74887 59.5233C7.98039 59.8739 8.24278 59.8072 9.6565 58.921C11.0727 58.0353 11.4783 57.4622 11.4783 57.4622C11.4783 57.4622 11.4395 57.5759 11.2896 58.1496C11.2354 58.3578 11.1601 58.5151 11.0992 58.6423C10.9978 58.8541 10.9366 58.9822 11.0797 59.122ZM25.4264 60.2684C27.7078 59.8754 29.5863 59.3264 32.0144 57.1316C34.694 54.705 35.7049 51.2183 36.1413 49.4376C36.764 46.8884 36.7053 42.0482 36.7053 42.0482V16.9442C36.7053 16.9442 36.5291 11.5402 36.9158 10.1802C37.3049 8.81917 38.116 7.82836 38.6099 7.31389C39.6966 6.18207 41.9973 5.80613 41.9973 5.80613C42.6678 5.69663 42.8067 5.37022 42.7565 5.04419C42.686 4.56558 42.2804 4.52079 42.2804 4.52079L25.9573 4.4872C25.9573 4.4872 25.5403 4.56558 25.469 5.04419C25.4194 5.37022 25.5581 5.69663 26.2276 5.80613C26.2276 5.80613 28.5282 6.18207 29.6157 7.31389C30.1094 7.82836 30.9212 8.81917 31.3081 10.1802C31.698 11.5402 31.5212 16.9442 31.5212 16.9442L31.1654 41.988C31.1654 42.1798 31.169 42.4832 31.1734 42.8617C31.1941 44.6127 31.2338 47.9725 31.026 49.3391C30.6719 51.643 30.1312 53.6037 28.7195 55.1217C27.3073 56.6416 25.9919 57.1316 24.0633 57.1316C22.1337 57.1316 20.8626 56.5431 19.4985 55.4648C18.1352 54.3864 15.5459 51.9369 15.5459 51.9369L18.0399 60.0225C18.0399 60.0225 22.8794 60.7064 25.4264 60.2684ZM44.1808 44.9962C42.1957 45.2186 40.7966 43.6119 40.5908 41.9298C40.4821 41.0432 40.6939 40.2146 41.2043 39.5345C41.8168 38.7148 42.7356 38.2721 43.3747 38.1958C44.1793 38.1009 44.8617 38.3326 45.2935 38.5465C45.5911 38.6924 45.8122 38.7887 45.9117 38.7393C46.1083 38.6391 46.1074 38.4137 46.0261 38.1233C45.9255 37.7658 45.6434 37.4147 45.2529 37.1598C44.7693 36.8435 44.1441 36.6905 43.4442 36.7159C41.3916 36.7924 40.1909 38.4233 39.9434 38.7955C39.8987 38.6831 39.7864 38.4843 39.5198 38.3042C39.1034 38.0197 38.6555 37.9212 38.5191 38.0857C38.4417 38.1797 38.5201 38.2872 38.6395 38.4508L38.6415 38.4535C38.7667 38.6245 38.956 38.8832 39.0905 39.2771C39.2072 39.6235 39.1851 40.0907 39.1582 40.63C39.1559 40.6771 39.1535 40.7258 39.151 40.7758C39.121 41.376 39.0808 42.1792 39.2281 42.8343C39.6511 44.7215 41.368 46.6343 43.9474 46.706C44.2443 46.7136 44.5317 46.6777 44.806 46.6092C45.971 46.2929 46.7584 45.6516 47.2803 45.0153C47.3162 45.0447 47.3571 45.0792 47.4072 45.1215L47.4262 45.1375L47.432 45.1424C47.8506 45.4924 48.7128 46.2135 49.3698 46.5654L49.3772 46.5694C49.5327 45.9796 49.6567 45.1356 49.6525 44.7018C49.4905 44.5933 48.4462 43.8761 47.009 42.3731C45.7946 41.1041 45.424 40.6885 45.421 40.6847L45.4163 40.6811C45.194 40.4888 44.4085 39.8582 43.6005 39.8263C42.8618 39.7962 42.6188 39.9776 42.5998 39.9931L42.8154 40.2947C42.883 40.3919 43.2457 40.9069 43.9842 41.8497C44.7435 42.817 45.6694 43.6899 45.9356 43.9346L46.0536 44.0685C45.6411 44.502 45.0309 44.9018 44.1808 44.9962ZM39.0236 22.9575C39.0236 22.9575 38.8679 24.151 39.237 26.6862C39.4355 28.0569 39.7745 29.3383 39.9429 29.9175L41.7162 29.0866C41.7001 29.0316 41.6808 28.9668 41.6589 28.8934C41.5023 28.3689 41.2139 27.4029 41.0565 26.3725C40.8151 24.8 40.8847 24.4662 40.8847 24.4662C40.5495 24.1081 39.5886 23.156 39.0236 22.9575ZM38.5481 21.168C38.5481 21.168 39.5848 21.4809 40.85 22.6543C41.5857 23.3363 42.3382 24.1349 42.9012 24.7723L43.2432 22.5319C42.7533 21.9844 42.1499 21.3257 41.3577 20.6687C40.5495 19.9969 39.1462 19.2537 38.5481 18.9578V21.168ZM61.2277 56.156C61.2362 56.1232 61.2438 56.0993 61.2481 56.086C61.4775 55.2992 61.5283 54.3201 61.2239 53.2475C61.0471 52.6173 60.4736 51.163 58.3659 49.7997C57.313 49.1172 56.1166 48.7251 55.6572 48.5745C55.5696 48.5458 55.5088 48.5259 55.4809 48.5144C55.8056 47.7628 56.3134 47.4624 56.5647 47.3137C56.6539 47.261 56.7108 47.2274 56.7158 47.1994C56.7379 47.0873 56.047 46.7891 55.4519 46.9307C54.9451 47.0512 54.4095 47.5467 54.2229 47.8526C54.1867 47.9616 54.1583 48.0679 54.1234 48.1984C54.0582 48.4426 53.9702 48.7717 53.7658 49.3629C53.911 49.4286 54.1124 49.5189 54.3438 49.6225C55.026 49.928 55.9684 50.35 56.4987 50.6068C58.5601 51.6035 59.4191 52.7509 59.791 53.9986C59.9769 54.6228 59.9037 55.2221 59.7626 55.726C59.2863 57.4184 57.8032 58.4779 56.3837 58.1372C55.4197 57.905 54.6992 57.4142 54.3544 56.754C54.0738 56.2158 54.0462 55.5764 54.2743 54.9043C54.4461 54.3991 54.7553 54.1799 54.9845 54.0858C55.2981 53.9563 55.6529 53.9772 55.9593 54.1436C56.5648 54.4737 56.5869 54.9268 56.603 55.2573L56.603 55.2578C56.6127 55.4571 56.6203 55.6131 56.7584 55.6639C56.869 55.7045 56.9935 55.6831 57.1089 55.6038C57.3525 55.4368 57.5181 55.049 57.553 54.5666C57.5956 53.9844 57.2542 53.1409 56.1497 52.6824C55.0588 52.2271 53.6168 52.8611 53.0661 54.0381C52.2497 55.782 52.8823 57.3624 52.9839 57.5926C52.9138 57.6596 52.6904 57.886 52.4928 58.2462C52.177 58.8265 52.1738 59.3393 52.2459 59.5262C52.2649 59.5742 52.2891 59.6032 52.3176 59.6108C52.3854 59.634 52.4565 59.5626 52.5751 59.4434L52.5779 59.4406C52.7109 59.3074 52.8941 59.1258 53.151 58.9831C53.6492 58.7052 54.1452 58.787 54.2062 58.7984C55.0906 59.3607 55.9307 59.7397 56.9137 59.7397C57.3126 59.7397 57.7352 59.6771 58.1949 59.5385C59.6671 59.0962 60.7434 57.8941 61.2277 56.156ZM58.7572 47.2856C59.9259 47.129 61.3203 46.09 61.7291 43.6415C61.9188 42.5145 61.6191 41.2553 60.9289 40.2731C60.324 39.4134 59.465 38.8454 58.4895 38.6444L58.4705 38.6404C57.1256 38.3135 55.1797 38.4839 52.9382 40.958C52.8729 41.0293 52.6207 41.3922 52.4657 41.6939C52.4182 41.5189 52.36 41.3212 52.2848 41.0976C51.9765 40.1805 51.3455 38.6547 50.0799 36.5943C49.3836 35.461 48.8062 34.7121 48.2958 34.0511L48.2866 34.0392C47.7928 33.3981 47.3654 32.8432 47.0052 32.1378C46.3317 30.8159 46.1945 28.6073 46.4429 28.2055C46.4694 28.1638 46.496 28.1437 46.5284 28.1478C46.8209 28.1754 46.8707 28.431 46.9702 28.9415C47.0873 29.5455 47.2648 30.4581 47.9927 31.6793C48.6205 32.7345 49.0741 33.233 49.5551 33.7602L49.5611 33.7668C49.9388 34.1819 50.3309 34.613 50.8275 35.3467C51.9173 36.9527 52.2003 37.6991 52.2145 37.7364L52.2151 37.7379L52.2891 37.9478L52.2564 37.7259C52.2511 37.6957 51.7952 34.6275 52.2459 31.4603C52.4808 29.7994 53.0303 28.4588 53.3946 27.5699L53.3975 27.563L53.4 27.5567C53.6658 26.9095 53.8266 26.5179 53.7281 26.359C53.6763 26.2761 53.6112 26.2296 53.5323 26.2222C53.5248 26.2216 53.5166 26.2211 53.5087 26.2211C53.2296 26.2211 52.8316 26.6689 52.3314 27.2322L52.2996 27.2679C52.1532 27.4323 52.0023 27.6019 51.8456 27.7694C51.059 28.6088 50.502 29.5732 50.4298 29.6994C50.2913 29.6687 49.1548 29.3404 49.0362 26.8961C48.9543 25.2285 49.1034 24.3326 49.2351 23.5418C49.2991 23.1575 49.359 22.7949 49.3869 22.38C49.3969 22.2328 49.366 22.1478 49.2944 22.1261C49.0076 22.0417 48.1918 23.0983 47.7663 23.9812C47.5107 24.5099 47.4429 24.9388 47.3934 25.2517C47.355 25.4927 47.3292 25.6521 47.2356 25.6954C47.2125 25.7066 47.1767 25.6979 47.1346 25.6719C46.8942 25.5206 46.47 24.7945 46.3554 23.4919C46.3167 23.0545 46.3216 22.6522 46.3256 22.3279L46.3256 22.3203C46.3321 21.786 46.3349 21.4333 46.1601 21.3291C46.0754 21.279 45.9797 21.2831 45.8763 21.3422C45.6146 21.4911 45.3285 21.976 45.0902 22.6732C44.9002 23.2295 44.651 24.1797 44.5476 25.5474C44.3532 28.149 44.5239 29.926 44.548 30.1555C44.3964 30.1594 43.5437 30.1995 42.478 30.55C41.424 30.8965 39.4948 31.7433 39.5913 32.2229C39.636 32.4582 40.0143 32.4009 40.4929 32.328C40.7975 32.2815 41.1427 32.2293 41.4438 32.249C42.0284 32.2872 42.6521 32.5868 42.8141 32.669C42.6513 32.7527 42.0214 33.1066 41.079 34.0052C40.3381 34.7117 39.4996 35.5118 39.9188 36.0971C40.0495 36.2802 40.3663 36.136 40.8468 35.917C41.7789 35.4909 43.3398 34.7783 45.3657 35.5598C47.6361 36.4349 49.0104 37.7735 50.2731 40.5129C50.5799 41.2438 50.8345 42.1234 51.0149 43.0899L51.0202 43.088C51.4728 45.5554 50.9609 48.6379 48.683 51.4399C47.3949 53.0234 46.7927 53.543 45.8486 54.3383C42.9048 56.8138 41.195 57.2077 41.0457 56.8642C40.9795 56.7127 41.5748 56.2945 42.4078 55.7093C43.1266 55.2043 44.0224 54.575 44.8231 53.8854C47.5258 51.5587 48.7901 49.9984 48.7901 49.9984C48.7901 49.9984 46.2129 51.8688 43.8714 51.6563C42.9326 51.5687 42.2012 50.9959 41.8065 50.6867C41.6292 50.5478 41.5198 50.4621 41.49 50.4975C41.1935 50.8359 41.629 51.6979 41.803 52.0422C41.81 52.0561 41.8166 52.0691 41.8227 52.0812C41.9765 52.3913 42.3257 52.7061 42.3257 52.7061C42.3257 52.7061 42.2268 52.8889 41.4129 52.9078C40.9561 52.9182 40.7061 52.7383 40.5631 52.6354C40.4886 52.5818 40.4431 52.549 40.4125 52.575C40.2504 52.7114 40.3618 53.2532 40.901 53.777C41.4352 54.3002 41.9509 54.4867 41.9509 54.4867C41.9509 54.4867 41.1571 54.7693 39.9048 54.7684C39.4342 54.7679 38.9618 54.6653 38.5731 54.5809C38.1423 54.4874 37.8144 54.4161 37.7056 54.531C37.4231 54.8319 37.7512 55.1266 38.1187 55.4567C38.2217 55.5492 38.3278 55.6444 38.4244 55.7434C38.8651 56.1964 39.122 56.1996 39.122 56.1996C39.122 56.1996 38.9977 56.7267 37.6755 56.9375C36.9328 57.0555 36.2572 56.8972 35.7612 56.781C35.2953 56.6718 34.9878 56.5998 34.9318 56.8286C34.7969 57.3798 36.4811 58.7931 38.482 58.9743C40.4381 59.1546 42.1296 58.2371 42.1296 58.2371C42.1296 58.2371 42.1055 58.6667 41.2581 59.6327C40.8249 60.1271 40.5036 60.3504 40.3169 60.4802C40.1473 60.598 40.0887 60.6388 40.1579 60.7354C40.4669 61.1598 41.744 60.9542 46.0793 56.9775C46.0828 57.0673 46.0867 57.1591 46.0934 57.2542C46.3419 61.3177 50.3681 60.3815 50.3459 60.1333C50.3371 60.0381 50.1793 59.9921 49.9481 59.9247C49.674 59.8448 49.2968 59.7348 48.943 59.4772C48.0982 58.8597 48.2302 58.5316 48.2302 58.5316C48.2302 58.5316 48.4157 58.6971 48.9255 58.7346C49.4359 58.7732 49.7256 58.7548 49.7379 58.5553C49.7405 58.5169 49.651 58.4799 49.5101 58.4218C49.1024 58.2535 48.2651 57.908 47.9883 56.8358C47.7755 56.0051 48.1109 55.2644 48.5209 54.7539C52.1328 50.2516 52.7001 47.7027 52.9691 45.9695L52.9678 45.9591C52.9706 45.9382 52.9739 45.9127 52.9778 45.8827C53.0436 45.3777 53.2713 43.6286 54.0583 42.4629C54.0632 42.4555 54.0679 42.4477 54.0727 42.44C54.0768 42.4332 54.0809 42.4265 54.0852 42.42C54.692 41.4424 55.6092 40.5257 56.964 40.2695C57.1426 40.2281 57.3131 40.2059 57.4666 40.207C57.4836 40.2059 57.5145 40.2066 57.513 40.2083C57.52 40.2084 57.5272 40.2083 57.5344 40.2082C57.5536 40.208 57.5731 40.2078 57.5905 40.2101C58.8148 40.3368 59.2255 40.8648 59.519 41.4292C59.9147 42.1917 59.8168 43.1449 59.3128 43.9497C59.2151 44.1048 59.0688 44.2359 58.939 44.3519L58.9369 44.3538C58.7746 44.4988 58.6462 44.6135 58.6692 44.7301C58.6912 44.8364 58.752 44.9185 58.8456 44.9665C59 45.0449 59.2179 45.0246 59.4443 44.9098L59.5218 44.87C59.697 44.7777 59.848 44.6999 59.9092 44.7331C59.9265 44.743 59.9365 44.762 59.9411 44.7929C59.9795 45.0546 60.0314 45.414 59.0366 46.2022C58.7022 46.468 58.3841 46.5867 58.1507 46.672C57.9552 46.7438 57.8269 46.7912 57.7885 46.8867C57.7693 46.9326 57.7743 46.9871 57.8027 47.0516C57.8707 47.2097 58.1403 47.304 58.4838 47.304C58.5717 47.304 58.6626 47.2977 58.7572 47.2856ZM60.38 29.1912C60.3861 29.1905 61.0022 29.1246 61.5677 28.7544C62.3352 28.2535 62.6908 27.8381 62.5679 27.5827C62.5256 27.498 62.1619 27.4563 61.7763 27.4128L61.7689 27.412C61.2577 27.3536 60.56 27.274 59.9183 27.0454C58.7911 26.6473 57.9186 25.8804 57.523 24.941C57.2595 24.3174 57.1483 23.3646 58.0488 22.3151L58.0653 22.3094L58.2291 22.1608C59.5892 20.9372 61.6446 19.0877 61.8441 14.783C61.9743 11.9848 60.8739 9.99387 60.3438 9.03646L60.3394 9.02839C60.1755 8.73118 60.0847 8.56652 60.0847 8.47587C60.0847 8.29203 60.2844 8.16584 60.5608 7.99132L60.561 7.99119L60.5623 7.99037C60.8721 7.79478 61.2962 7.52709 61.6443 7.05029C62.1861 6.30182 62.3689 5.69493 62.3252 5.50363C62.3201 5.48181 62.3129 5.47061 62.3077 5.46834C62.2661 5.44749 62.0789 5.5391 61.8953 5.62893L61.8845 5.6342C61.5895 5.77918 61.1854 5.97731 60.7157 6.09174C59.8369 6.30562 58.6105 6.0646 57.4291 5.79854C57.3454 5.7802 57.2601 5.76094 57.1732 5.74132C57.1181 5.72886 57.0623 5.71626 57.0058 5.70365C55.7759 5.42488 54.2661 5.17703 52.6457 5.19183C49.6548 5.21973 46.273 6.22003 43.4423 9.2771C40.6871 12.2543 39.5882 16.7815 39.3503 17.8674L41.08 18.9305C41.0812 18.9277 41.0937 18.8892 41.1158 18.8211C41.1262 18.7892 41.1387 18.7509 41.1531 18.7066L41.0861 18.9341C41.2255 18.7998 41.7493 18.5531 43.0145 18.388C43.768 18.2898 44.4303 18.2517 44.8973 18.3768L44.9035 18.3784C45.242 18.469 45.4853 18.5341 45.5322 18.4157C45.6974 17.9961 44.7395 17.0165 43.9321 16.6176C43.1396 16.2234 42.244 16.3448 41.9672 16.3959C42.5873 14.75 43.4457 12.7209 44.2591 11.6591C45.5693 9.94909 48.4242 7.08255 53.0371 7.2543C57.8464 7.43458 59.9564 11.1929 59.9136 14.838C59.8971 16.3001 59.3666 17.8175 58.4571 19.0007C57.4978 20.2489 56.2194 21.0142 54.8551 21.155C52.5322 21.3926 50.4332 19.8741 50.0714 17.6958C49.8224 16.1904 50.0433 14.8971 50.693 14.055C51.2011 13.3963 51.9604 13.0276 52.8871 12.9896C53.606 12.9612 54.0458 13.2734 54.2938 13.5425C54.645 13.9224 54.8326 14.4729 54.796 15.0147C54.7225 16.0792 54.1416 16.3729 53.7576 16.5671C53.5308 16.6819 53.4033 16.7536 53.4111 16.8927C53.4202 17.0387 53.503 17.1743 53.6445 17.2745C53.9497 17.4913 54.4631 17.5063 55.016 17.315C55.7005 17.0798 56.4863 16.2027 56.4448 14.5048C56.4045 12.819 54.8887 11.2669 53.3059 11.1439C50.6492 10.9384 49.0631 12.8105 49.0474 12.8306C49.0347 12.8477 49.011 12.8528 48.9922 12.8418L48.9907 12.841C48.9622 12.8253 48.5416 12.5938 47.9466 12.5023C47.135 12.3799 46.5524 12.6194 46.3758 12.7989C46.3404 12.8354 46.334 12.8585 46.3349 12.864C46.3385 12.9071 46.4814 12.9781 46.6202 13.0458L46.6213 13.0463C46.8557 13.1622 47.1777 13.3214 47.494 13.6085C48.155 14.2051 48.3075 14.9956 48.3127 15.0291C48.3142 15.0339 48.3142 15.039 48.3136 15.0443C48.0368 17.143 48.1408 18.9305 49.5403 20.8336C51.2658 23.1786 53.7028 23.1534 54.7476 23.1426L54.749 23.1425C54.9785 23.1401 55.2174 23.1625 55.3475 23.1928C55.3509 23.1936 55.3536 23.1944 55.356 23.1951C55.367 23.1985 55.3788 23.2006 55.3892 23.2048C55.6514 23.3069 55.7325 23.5864 55.7344 23.7346C55.7369 23.8859 55.6732 24.117 55.3545 24.3592C54.8032 24.7782 54.6835 25.186 54.8199 26.1759C54.8942 26.7101 55.2317 27.3209 55.5888 27.9672L55.5934 27.9755C55.9663 28.6483 56.3514 29.3436 56.4539 29.9932C56.7436 31.8329 56.5428 32.8261 56.4346 33.3598C56.3893 33.5839 56.3605 33.7317 56.4018 33.793C56.4331 33.8384 56.4824 33.8593 56.5513 33.8585C56.8658 33.854 57.5236 33.3619 57.94 32.7113C58.2089 32.2919 58.2178 31.6533 58.224 31.1867C58.2282 30.8369 58.232 30.6062 58.3256 30.5261C58.354 30.5012 58.3917 30.4927 58.4311 30.5008C59.4273 30.7071 59.5101 32.5508 59.4578 33.2444C59.4343 33.5703 59.325 33.7962 59.2372 33.9778L59.2346 33.9832C59.1215 34.2149 59.0764 34.3233 59.2012 34.4629C59.3119 34.5886 59.5343 34.5237 59.7493 34.4607C59.8499 34.4311 59.9541 34.4009 60.0451 34.3927C60.1639 34.3819 60.2631 34.4079 60.3164 34.5174C60.4892 34.8738 60.1906 35.4938 59.6652 35.8705C59.5707 35.9381 59.4767 36.0031 59.3861 36.065L59.3849 36.0659C58.9792 36.3449 58.6291 36.5856 58.6899 36.8154C58.6912 36.8232 58.7183 36.8486 58.8053 36.8704C59.2141 36.9759 60.2836 36.8786 61.0265 36.1734C61.9482 35.2928 62.2316 34.2787 62.0702 32.4308C61.9116 30.612 60.373 29.2846 60.3577 29.2719C60.3438 29.2603 60.3382 29.2411 60.3433 29.2231C60.3482 29.2056 60.3624 29.1929 60.38 29.1912ZM9.63061 72.7318C9.15883 72.7546 8.21987 72.7793 7.40841 72.7793C6.55738 72.7793 5.60006 72.7555 5.09407 72.7318C5.07132 72.7314 5.04877 72.7399 5.03214 72.755C5.0157 72.771 5.00652 72.7932 5.00652 72.8164V72.9341C5.00652 72.9756 5.03634 73.011 5.07725 73.0177C5.91375 73.1523 6.46658 73.2415 6.46658 75.0862V85.7644C6.46658 87.7744 5.51557 89.9442 3.97943 89.9442C3.69614 89.9442 3.42928 89.9226 3.17007 89.8793C2.09998 89.6123 1.43895 88.8598 1.03504 88.3167C0.977693 88.2402 0.92436 88.1634 0.873703 88.0879C0.429273 87.4265 0.227593 86.8407 0.221404 86.8227L0.221284 86.8224C0.202168 86.7687 0.149982 86.7376 0.0882385 86.7482C0.0320383 86.761 -0.00561968 86.815 0.000688507 86.8755L0.356814 89.6824C0.356814 89.7203 0.376312 89.755 0.407853 89.7749C1.42404 90.4408 2.66351 90.6319 2.88965 90.6493L2.88926 90.6518C3.28668 90.7132 3.60821 90.7273 3.81427 90.7273C3.9714 90.7273 4.06106 90.7196 4.06641 90.7186C6.62906 90.7186 8.35081 88.6196 8.35081 85.4958V75.0862C8.35081 73.2955 8.77098 73.2056 9.60786 73.0264L9.65202 73.0168C9.69063 73.0087 9.71835 72.9743 9.71835 72.9341V72.8164C9.71835 72.7932 9.70899 72.771 9.69216 72.755C9.67572 72.7391 9.65259 72.7314 9.63061 72.7318ZM13.1154 75.9927C13.1154 78.1092 14.6975 79.1926 16.3728 80.3391L16.3733 80.3394C18.2468 81.6223 20.1843 82.949 20.1843 85.8306C20.1843 88.7139 18.1205 90.7273 15.1653 90.7273C14.2953 90.7273 13.6834 90.5923 13.1434 90.4724L13.1394 90.4715C12.6878 90.3718 12.2609 90.2776 11.7494 90.2776C11.608 90.2776 11.5437 90.2776 11.4082 90.3004C11.3798 90.3023 11.353 90.2957 11.3335 90.276C11.3141 90.2556 11.3058 90.2278 11.3111 90.2C11.3333 90.0893 11.3333 89.8065 11.3333 89.6001C11.3333 89.3379 11.3053 89.0892 11.2755 88.8266C11.245 88.5536 11.2135 88.2715 11.2135 87.9635C11.2135 87.7579 11.2343 87.0412 11.5066 86.4361C11.5201 86.4052 11.5504 86.3857 11.5839 86.3857H11.7025C11.7264 86.3857 11.7494 86.3959 11.7655 86.4139C11.7815 86.4319 11.7892 86.4562 11.7867 86.4803L11.7778 86.5581C11.757 86.7427 11.7392 86.9016 11.7392 87.0632C11.7392 88.9681 13.5698 89.9656 15.3785 89.9656C16.9421 89.9656 18.52 89.0027 18.52 86.8501C18.52 84.5755 16.8664 83.453 15.115 82.2641L15.1139 82.2633L15.1116 82.2617C13.2884 81.0232 11.404 79.7431 11.404 77.0596C11.404 74.5106 13.2433 72.7318 15.8772 72.7318C16.6409 72.7318 17.2495 72.8478 17.7866 72.9503L17.7914 72.9513C18.2199 73.0332 18.6249 73.1106 19.0322 73.1106C19.174 73.1106 19.2861 73.1106 19.4223 73.0884C19.4486 73.0861 19.4746 73.0925 19.4936 73.1104C19.5129 73.128 19.5227 73.1542 19.5202 73.1805C19.4675 73.7155 19.4478 74.1372 19.4478 74.7363C19.4478 75.09 19.4478 75.6822 19.4714 76.0344C19.4729 76.0581 19.4646 76.0803 19.4487 76.0977C19.4327 76.1153 19.4103 76.1246 19.3869 76.1246H19.2451C19.2043 76.1246 19.1696 76.0958 19.162 76.056C18.8276 74.3173 17.708 73.3983 15.9243 73.3983C13.8534 73.3983 13.1154 74.7386 13.1154 75.9927ZM34.388 81.8496C34.388 77.3677 37.7896 72.7318 43.4819 72.7318C48.4435 72.7318 52.3296 76.705 52.3296 81.7779C52.3296 86.7962 48.3564 90.7273 43.2848 90.7273C37.716 90.7273 34.388 86.2139 34.388 81.8496ZM43.2848 90.0054C47.3607 90.0054 49.8926 86.9077 49.8926 81.9217C49.8926 75.6537 46.3324 73.4293 43.2848 73.4293C38.5352 73.4293 36.85 77.9263 36.85 81.7779C36.85 86.9296 39.2553 90.0054 43.2848 90.0054ZM62.4767 84.7627L62.4767 84.7626L62.4755 84.7603L62.4689 84.7477C61.8322 83.5238 61.3173 82.534 60.9505 82.1523C62.8822 81.3489 64.0305 79.6938 64.0305 77.7005C64.0305 74.6825 61.874 72.7318 58.537 72.7318C58.3125 72.7318 57.9514 72.7417 57.5592 72.7524L57.5546 72.7525L57.5542 72.7526L57.5154 72.7536L57.3706 72.7575C56.9429 72.769 56.4837 72.7813 56.1518 72.7813C55.1472 72.7813 54.7315 72.7813 53.9536 72.7318C53.9342 72.7324 53.9108 72.7389 53.895 72.755C53.8792 72.7704 53.8707 72.7933 53.8707 72.8166V72.9392C53.8707 72.9807 53.8986 73.0161 53.9369 73.0231C54.7134 73.1526 54.972 73.4804 54.972 75.1617V88.2746C54.972 90.2254 54.6779 90.2765 53.8911 90.4131L53.8909 90.4132C53.8529 90.4201 53.8247 90.4555 53.8247 90.4971V90.6186C53.8247 90.6418 53.8337 90.6643 53.849 90.6803C53.8648 90.6958 53.8846 90.7016 53.907 90.7035C54.3761 90.6807 55.0261 90.654 55.8991 90.654C56.8293 90.654 57.6024 90.689 57.8921 90.7035C57.9082 90.7045 57.9338 90.6962 57.9496 90.6803C57.9654 90.6643 57.974 90.6418 57.974 90.6186V90.4971C57.974 90.4555 57.9461 90.4201 57.9082 90.4132L57.9078 90.4131C57.1212 90.2765 56.8266 90.2253 56.8266 88.2746V82.7182H58.2159C58.4671 82.7182 58.7843 82.6884 59.1592 82.6289C59.561 83.0402 60.0286 83.9872 60.31 84.5574L60.3616 84.6612L60.3617 84.6614L60.3618 84.6616C60.4007 84.74 60.4357 84.8107 60.4664 84.8709C63.1543 90.2989 63.458 90.6273 65.881 90.7273C66.1585 90.7273 66.2521 90.7273 66.4629 90.7025C66.5031 90.6977 66.5333 90.6614 66.5333 90.6183V90.4719C66.5333 90.4356 66.5121 90.4035 66.4801 90.3919C65.1481 89.8994 63.6045 86.9312 62.4767 84.7627ZM61.9457 78.0177C61.9457 79.7427 61.5209 82.0361 57.8493 82.0361H56.8266V73.6872C57.4769 73.5013 57.9131 73.4634 58.3996 73.4634C60.5535 73.4634 61.9457 75.2512 61.9457 78.0177ZM33.5609 72.7364C33.5864 72.7364 33.61 72.7493 33.625 72.7706C33.64 72.7922 33.6443 72.8209 33.6369 72.8469C33.4396 73.5082 33.1791 74.6844 33.113 75.0698C33.106 75.11 33.0733 75.1393 33.0349 75.1393H32.8972C32.8728 75.1393 32.8499 75.1273 32.8348 75.1069C32.8196 75.0868 32.8144 75.0596 32.8202 75.0343C32.8401 74.9483 32.8636 74.8057 32.8636 74.6877C32.8636 74.0368 32.3238 73.8696 28.2954 73.8672V88.2937C28.2954 90.2492 28.5895 90.3002 29.3755 90.4365L29.3759 90.4366C29.4144 90.4429 29.4424 90.4788 29.4424 90.5205V90.6428C29.4424 90.6659 29.4336 90.6883 29.4178 90.7041C29.4021 90.7205 29.3802 90.7269 29.3594 90.7273C29.0756 90.7128 28.3133 90.6787 27.3667 90.6787C26.4771 90.6787 25.835 90.7047 25.375 90.7273H25.3712C25.3507 90.7273 25.331 90.7196 25.3163 90.7041C25.3006 90.6883 25.2919 90.6659 25.2919 90.6428V90.5205C25.2919 90.4788 25.32 90.4429 25.3585 90.4366L25.3589 90.4365C26.1445 90.3002 26.4386 90.2491 26.4386 88.2937V73.8672C22.9272 73.8672 21.8592 73.8782 21.1971 75.3847C21.1841 75.414 21.1561 75.4331 21.1253 75.4331H21.0112C20.9875 75.4331 20.9649 75.4217 20.9498 75.4026C20.9348 75.3827 20.9287 75.3569 20.9334 75.3318C21.0175 74.8819 21.1336 74.4523 21.2566 73.998L21.2583 73.992L21.2583 73.9917L21.2584 73.9917C21.3579 73.6232 21.4607 73.2423 21.5629 72.7962C21.5716 72.7586 21.6036 72.7318 21.6401 72.7318H21.6419C26.7635 72.8589 32.468 72.758 33.5598 72.7364H33.5609Z" fill="#990000"/>
</svg>
