<svg width="152" height="132" viewBox="0 0 152 132" fill="none" xmlns="http://www.w3.org/2000/svg">
<rect y="64" width="152" height="68" fill="black"/>
<path d="M53.6572 112.619H55.3151C57.1378 112.619 58.4384 112.087 59.1987 111.022C59.9681 109.957 60.3528 108.121 60.3528 105.523V88.9705C60.3528 86.7121 59.9955 85.1698 59.2811 84.3344C58.5667 83.499 57.2569 83.0859 55.37 83.0859H53.6572V112.619ZM47.7769 117.806V78H54.0236C58.7224 78 61.9557 78.817 63.7051 80.442C65.4546 82.0761 66.3339 84.9862 66.3339 89.1816V106.973C66.3339 110.737 65.5462 113.482 63.9616 115.208C62.377 116.934 59.8582 117.797 56.3867 117.797H47.7769V117.806Z" fill="white"/>
<path d="M75.7039 78L69.8877 117.806H75.6581L76.6016 109.773H82.4728L83.462 117.806H89.4431L83.3521 78H75.7039ZM79.4318 81.36H79.7249L81.8957 104.476H77.1236L79.4318 81.36Z" fill="white"/>
<path d="M99.436 78H93.5648V117.806H99.436V78Z" fill="white"/>
<path d="M105.17 78V117.806H121.794V112.298H111.041V78H105.17Z" fill="white"/>
<path d="M134.086 78L130.23 96.0118L126.502 78H120.365L127.171 101.52V117.806H133.042V101.575L139.966 78H134.086Z" fill="white"/>
<path d="M19.3367 113.455C18.6223 112.959 17.9445 112.5 17.9445 111.591C17.9445 110.774 18.5582 110.49 19.1352 110.49C19.8954 110.49 20.3717 110.885 20.5091 111.619L20.5183 111.665H20.6832V111.61C20.674 111.454 20.674 111.206 20.674 111.05C20.674 110.793 20.6832 110.609 20.7015 110.38L20.7106 110.306L20.6374 110.315C20.5824 110.325 20.5366 110.325 20.4725 110.325C20.2985 110.325 20.1336 110.297 19.9412 110.26C19.7123 110.214 19.4466 110.168 19.1169 110.168C17.972 110.168 17.1659 110.949 17.1659 112.06C17.1659 113.235 17.9811 113.786 18.778 114.327C19.5291 114.841 20.2343 115.319 20.2343 116.292C20.2343 117.21 19.5657 117.623 18.8971 117.623C18.1277 117.623 17.3491 117.201 17.3491 116.384C17.3491 116.319 17.3583 116.246 17.3674 116.163L17.3766 116.071H17.23L17.2117 116.108C17.0927 116.374 17.0835 116.686 17.0835 116.778C17.0835 116.916 17.0927 117.035 17.111 117.155C17.1201 117.265 17.1385 117.375 17.1385 117.485C17.1385 117.568 17.1385 117.696 17.1293 117.742L17.111 117.825L17.1934 117.816C17.2484 117.806 17.2758 117.806 17.34 117.806C17.5598 117.806 17.743 117.843 17.9353 117.889C18.1735 117.944 18.4299 117.999 18.8146 117.999C20.097 117.999 20.9946 117.118 20.9946 115.86C20.9854 114.584 20.1519 114.015 19.3367 113.455Z" fill="white"/>
<path d="M33.5888 114.162C33.5888 116.301 32.5354 117.632 30.8318 117.632C29.1465 117.632 28.1481 116.31 28.1481 114.098C28.1481 111.454 29.5403 110.508 30.8318 110.508C32.105 110.508 33.5888 111.463 33.5888 114.162ZM30.9142 110.168C28.5053 110.168 27.0673 112.179 27.0673 114.125C27.0673 116.016 28.4778 117.981 30.8318 117.981C32.9751 117.981 34.6604 116.273 34.6604 114.098C34.6604 111.894 33.0117 110.168 30.9142 110.168Z" fill="white"/>
<path d="M36.7765 110.628C37.0696 110.554 37.262 110.536 37.4818 110.536C38.471 110.536 39.103 111.298 39.103 112.482C39.103 113.666 38.526 114.199 37.2253 114.199H36.7674V110.628H36.7765ZM41.2372 117.807C40.6235 117.596 39.9091 116.319 39.3961 115.383C39.1122 114.869 38.874 114.456 38.7092 114.272C39.5976 113.914 40.1197 113.207 40.1197 112.344C40.1197 111.032 39.1122 110.178 37.5551 110.178C37.4452 110.178 37.2711 110.187 37.0788 110.187C36.859 110.196 36.6208 110.196 36.4468 110.196C35.9797 110.196 35.7873 110.196 35.4301 110.178H35.3751V110.334L35.4209 110.343C35.7781 110.398 35.8881 110.527 35.8881 111.252V116.916C35.8881 117.742 35.7598 117.761 35.4026 117.825L35.3568 117.834V117.99H35.4118C35.6041 117.981 35.9155 117.972 36.3369 117.972C36.6391 117.972 36.9872 117.981 37.262 117.99H37.3169V117.834L37.2711 117.825C36.9139 117.77 36.7857 117.742 36.7857 116.916V114.538H37.4085C37.5276 114.538 37.665 114.529 37.839 114.502C38.0222 114.676 38.2329 115.08 38.3611 115.319C38.3886 115.374 38.4161 115.42 38.4344 115.457C39.6892 117.807 39.8266 117.954 40.9624 117.999C41.0906 117.999 41.1364 117.999 41.2372 117.99L41.283 117.981V117.825L41.2372 117.807Z" fill="white"/>
<path d="M27.2232 110.159H27.1407C26.6369 110.168 24.0173 110.214 21.6542 110.159H21.6084L21.5993 110.205C21.5535 110.398 21.5077 110.563 21.4619 110.728C21.4069 110.921 21.3519 111.114 21.3153 111.307L21.3062 111.371H21.4619L21.4802 111.334C21.7824 110.692 22.2221 110.692 23.8616 110.692V116.916C23.8616 117.742 23.7334 117.77 23.3762 117.825L23.3304 117.834V117.99H23.3853C23.5777 117.981 23.8891 117.972 24.3013 117.972C24.7409 117.972 25.089 117.99 25.2172 117.99H25.2722V117.834L25.2264 117.825C24.8783 117.77 24.7409 117.742 24.7409 116.916V110.682C26.5454 110.682 26.8018 110.756 26.8018 111.022C26.8018 111.068 26.7927 111.132 26.7835 111.169L26.7652 111.242H26.9484L26.9575 111.196C26.985 111.031 27.1041 110.517 27.1957 110.233L27.2232 110.159Z" fill="white"/>
<path d="M15.2516 110.177C14.8761 110.177 14.4639 110.168 14.2441 110.159H14.1891V110.315L14.2349 110.324C14.6013 110.379 14.8211 110.416 14.8211 111.196V115.814C14.8211 116.677 14.4181 117.604 13.7586 117.604C13.6395 117.604 13.5205 117.595 13.4106 117.577C12.9526 117.467 12.6686 117.145 12.4946 116.907C12.4671 116.87 12.4488 116.842 12.4213 116.806C12.229 116.521 12.1374 116.264 12.1374 116.264C12.1282 116.236 12.1008 116.218 12.055 116.218C12.0183 116.227 12 116.255 12 116.292L12.1557 117.503L12.1649 117.54L12.1923 117.558C12.6045 117.825 13.1449 117.926 13.2823 117.935C13.4564 117.962 13.5937 117.972 13.6853 117.972C13.7586 117.972 13.7953 117.972 13.7953 117.972C14.9219 117.972 15.6821 117.054 15.6821 115.695V111.196C15.6821 110.434 15.847 110.398 16.2133 110.324L16.2775 110.315V110.159H16.2225C16.0118 110.168 15.6088 110.177 15.2516 110.177Z" fill="white"/>
<path d="M39.1854 90.6599C38.938 90.8251 38.6633 90.8527 38.6633 90.8527C38.6541 90.8527 38.6449 90.8618 38.6449 90.871C38.6449 90.8802 38.6449 90.8894 38.6541 90.8894C38.6633 90.8986 39.3411 91.4769 39.4052 92.2756C39.4785 93.0927 39.3502 93.5333 38.9472 93.9189C38.6175 94.231 38.1503 94.2677 37.9671 94.2218C37.9305 94.2127 37.9213 94.2035 37.9122 94.1943C37.8847 94.0933 38.0404 93.9832 38.2145 93.8638C38.2511 93.8363 38.2969 93.8087 38.3335 93.7812C38.5625 93.6159 38.6999 93.3405 38.6175 93.1845C38.59 93.1386 38.5534 93.1202 38.4984 93.1294C38.4618 93.1294 38.416 93.1477 38.3702 93.1569C38.2786 93.1845 38.1778 93.212 38.132 93.1569C38.0771 93.0927 38.0954 93.0468 38.1503 92.9458C38.187 92.8632 38.2419 92.7622 38.2511 92.6245C38.2694 92.3215 38.2419 91.5045 37.8023 91.4218C37.784 91.4218 37.7656 91.4218 37.7565 91.431C37.7107 91.4677 37.7107 91.5687 37.7107 91.7248C37.7107 91.9268 37.7015 92.2113 37.5824 92.395C37.3993 92.6795 37.1062 92.8999 36.9688 92.8999C36.9413 92.8999 36.9138 92.8907 36.9047 92.8723C36.8863 92.8448 36.8955 92.7805 36.923 92.6795C36.9688 92.4409 37.0604 92.0094 36.9321 91.2015C36.8863 90.9169 36.7215 90.614 36.5566 90.311C36.4009 90.0264 36.2452 89.751 36.2177 89.5215C36.1536 89.09 36.2085 88.9064 36.4558 88.7228C36.5932 88.6127 36.6207 88.5117 36.6207 88.4474C36.6207 88.3831 36.5841 88.2638 36.465 88.2179C36.4558 88.2179 36.4558 88.2179 36.4467 88.2179C36.3917 88.2087 36.2818 88.1904 36.1811 88.1995C35.7231 88.1995 34.6514 88.2179 33.8912 87.1805C33.2775 86.3451 33.2317 85.5556 33.3508 84.6376V84.6284C33.3508 84.61 33.2775 84.2704 32.9936 84.0041C32.8562 83.8756 32.7096 83.8113 32.6089 83.7563C32.5448 83.7287 32.4898 83.692 32.4806 83.6736C32.4806 83.6736 32.4806 83.6645 32.499 83.6461C32.5722 83.5635 32.8287 83.4625 33.1859 83.5176C33.4515 83.5635 33.6439 83.6645 33.6439 83.6645C33.6531 83.6736 33.6622 83.6645 33.6714 83.6553C33.6805 83.6461 34.3766 82.8199 35.5399 82.9117C36.236 82.9668 36.9047 83.6461 36.923 84.3897C36.9413 85.1333 36.5932 85.5189 36.291 85.629C36.0437 85.7117 35.8238 85.7025 35.6864 85.6107C35.6223 85.5648 35.5857 85.5097 35.5857 85.4454C35.5857 85.3812 35.6406 85.3536 35.7414 85.2986C35.9063 85.2159 36.1627 85.0874 36.1994 84.6192C36.2177 84.3805 36.1353 84.1418 35.9795 83.9674C35.8696 83.8481 35.6773 83.7104 35.3567 83.7287C34.9537 83.7471 34.6148 83.9031 34.395 84.1969C34.111 84.5641 34.0103 85.1333 34.1202 85.7943C34.2759 86.749 35.201 87.4192 36.2269 87.3182C36.8222 87.254 37.3901 86.9235 37.8114 86.3727C38.2145 85.8494 38.4434 85.1884 38.4526 84.5458C38.4709 82.9392 37.5458 81.2867 35.43 81.2133C33.4057 81.1307 32.1509 82.3884 31.5739 83.1412C31.2166 83.6094 30.8411 84.4999 30.5663 85.2251C30.6854 85.2068 31.0793 85.1517 31.4273 85.3261C31.7845 85.5005 32.2059 85.932 32.1326 86.1156C32.1143 86.1707 32.0044 86.1431 31.8578 86.0972C31.6563 86.0422 31.3632 86.0605 31.0335 86.1064C30.4747 86.1799 30.2457 86.29 30.1816 86.3451L30.2091 86.2441C30.1908 86.3084 30.1816 86.3451 30.1725 86.3451L29.4122 85.8769C29.513 85.3995 29.9984 83.4074 31.2075 82.0946C32.4623 80.7451 33.9462 80.3136 35.2651 80.2953C35.9795 80.2861 36.639 80.3963 37.1794 80.5248C37.2436 80.5431 37.3077 80.5523 37.3626 80.5707C37.8847 80.69 38.4251 80.791 38.8098 80.6992C39.0205 80.6441 39.1945 80.5615 39.3227 80.4972C39.4052 80.4605 39.4876 80.4146 39.5059 80.4238C39.5059 80.4238 39.5151 80.433 39.5151 80.4422C39.5334 80.5248 39.451 80.791 39.2128 81.1215C39.0571 81.3327 38.8739 81.452 38.7365 81.5346C38.6175 81.6081 38.5259 81.6631 38.5259 81.7458C38.5259 81.7825 38.5625 81.8559 38.6358 81.9936C38.8648 82.4159 39.3502 83.2881 39.2953 84.5182C39.2037 86.4094 38.306 87.2264 37.7015 87.7681L37.6466 87.8231H37.6374C37.2436 88.2822 37.2893 88.7045 37.4084 88.9799C37.5824 89.393 37.9671 89.7327 38.4618 89.9071C38.7457 90.0081 39.0571 90.0448 39.2769 90.0723C39.451 90.0907 39.6067 90.109 39.625 90.1458C39.68 90.2559 39.5243 90.4395 39.1854 90.6599ZM39.2495 97.2146C39.0663 98.2887 38.4526 98.7477 37.9397 98.8212C37.8939 98.8304 37.8572 98.8304 37.8206 98.8304C37.674 98.8304 37.555 98.7845 37.5183 98.7202C37.5092 98.6927 37.5 98.6651 37.5092 98.6468C37.5275 98.6009 37.5825 98.5825 37.6649 98.555C37.7656 98.5182 37.903 98.4632 38.0587 98.3438C38.4984 97.995 38.4709 97.8389 38.4526 97.7195C38.4526 97.7104 38.4434 97.7012 38.4343 97.692C38.4068 97.6736 38.3427 97.7104 38.2603 97.7563L38.2236 97.7746C38.1229 97.8297 38.0313 97.8297 37.958 97.8022C37.9122 97.7838 37.8939 97.7471 37.8847 97.7012C37.8756 97.6461 37.9305 97.6002 38.0038 97.5359C38.0587 97.4809 38.1229 97.4258 38.1687 97.3615C38.3885 97.0035 38.4343 96.5904 38.2603 96.2507C38.132 96.0028 37.9488 95.7733 37.4084 95.7182C37.3993 95.7182 37.3901 95.7182 37.3718 95.7182C37.3626 95.7182 37.3535 95.7182 37.3535 95.7182C37.2893 95.7182 37.2069 95.7274 37.1336 95.7458C36.5383 95.8559 36.1353 96.2599 35.8696 96.6914C35.8696 96.7005 35.8605 96.7005 35.8605 96.7097C35.4941 97.2514 35.4025 98.0868 35.3842 98.252V98.2612C35.2651 99.0232 35.0178 100.143 33.4241 102.126C33.2409 102.346 33.0943 102.677 33.1859 103.044C33.3508 103.678 33.9553 103.733 33.9553 103.797C33.9462 103.889 33.8179 103.889 33.5981 103.88C33.3783 103.861 33.2958 103.788 33.2958 103.788C33.2958 103.788 33.2409 103.935 33.6073 104.201C33.8912 104.412 34.2118 104.403 34.2209 104.485C34.2301 104.596 32.4623 105.009 32.3524 103.219C32.3524 103.173 32.3524 103.136 32.3433 103.099C30.4381 104.853 29.8794 104.935 29.742 104.752C29.6779 104.66 29.861 104.678 30.2274 104.265C30.603 103.843 30.6121 103.65 30.6121 103.65C30.6121 103.65 29.8702 104.054 29.0092 103.971C28.1299 103.889 27.388 103.274 27.4521 103.026C27.5071 102.815 28.0292 103.173 28.6612 103.072C29.2382 102.98 29.2932 102.75 29.2932 102.75C29.2932 102.75 29.1832 102.75 28.9909 102.548C28.7985 102.346 28.5146 102.181 28.6795 102.016C28.7711 101.924 29.2107 102.117 29.6504 102.117C30.1999 102.117 30.548 101.988 30.548 101.988C30.548 101.988 30.319 101.906 30.09 101.676C29.8519 101.447 29.8061 101.208 29.8794 101.144C29.916 101.107 30.0168 101.3 30.319 101.291C30.6762 101.282 30.722 101.199 30.722 101.199C30.722 101.199 30.5663 101.061 30.5022 100.923C30.4289 100.786 30.2183 100.382 30.3557 100.226C30.4014 100.18 30.8045 100.676 31.3998 100.74C32.4257 100.832 33.5615 100.015 33.5615 100.015C33.5615 100.015 33.0027 100.703 31.8212 101.722C31.0609 102.374 30.1083 102.906 30.1633 103.035C30.2274 103.182 30.9785 103.017 32.2791 101.924C32.6913 101.575 32.9569 101.346 33.5248 100.648C34.5232 99.4179 34.7522 98.0592 34.5507 96.9759C34.4682 96.5536 34.3583 96.1681 34.2209 95.8468C33.6622 94.6441 33.0577 94.0566 32.0593 93.671C31.1708 93.3313 30.4839 93.6435 30.0717 93.8271C29.861 93.9189 29.7237 93.9832 29.6595 93.9097C29.4763 93.6527 29.8427 93.3038 30.1725 92.9917C30.5846 92.5969 30.8594 92.4409 30.9327 92.4041C30.8594 92.3674 30.5846 92.2389 30.3282 92.2205C30.1999 92.2113 30.0442 92.2389 29.9068 92.2572C29.6962 92.2848 29.5313 92.3123 29.513 92.2113C29.4672 92.0002 30.319 91.6238 30.7861 91.4769C31.2533 91.3209 31.6288 91.3025 31.6929 91.3025C31.6838 91.2015 31.6105 90.4212 31.6929 89.2736C31.7387 88.6677 31.8486 88.2546 31.9311 88.0068C32.0318 87.7038 32.1601 87.4835 32.2791 87.4192C32.3249 87.3917 32.3707 87.3917 32.4074 87.41C32.4806 87.4559 32.4806 87.612 32.4806 87.8507C32.4806 87.9976 32.4806 88.172 32.4898 88.3648C32.5356 88.934 32.7279 89.2553 32.8287 89.3195C32.847 89.3287 32.8653 89.3379 32.8745 89.3287C32.9111 89.3104 32.9295 89.2369 32.9478 89.1359C32.9661 88.9982 33.0027 88.8054 33.1126 88.5759C33.2958 88.1904 33.6622 87.7222 33.7813 87.7589C33.8088 87.7681 33.8271 87.8048 33.8179 87.869C33.8088 88.0527 33.7813 88.2087 33.7538 88.3831C33.6988 88.732 33.6347 89.1268 33.6622 89.8612C33.7172 90.9353 34.2118 91.0822 34.2759 91.0913C34.3034 91.0363 34.5507 90.614 34.8987 90.2468C34.972 90.1641 35.0453 90.0907 35.1094 90.0081C35.3292 89.7602 35.5033 89.5674 35.6223 89.5674H35.6315C35.6681 89.5674 35.6956 89.595 35.7139 89.6317C35.7597 89.7051 35.6864 89.8795 35.5674 90.1641C35.4117 90.5589 35.1644 91.1464 35.0636 91.8809C34.8621 93.2763 35.0636 94.6258 35.0728 94.635L35.0911 94.7359L35.0544 94.6441C35.0544 94.6441 34.9354 94.3136 34.4408 93.5884C34.2209 93.2671 34.0469 93.0743 33.882 92.8907C33.6714 92.6612 33.4699 92.4409 33.1951 91.9727C32.8745 91.431 32.8012 91.0363 32.7463 90.77C32.7005 90.5497 32.6821 90.4304 32.5539 90.4212C32.5356 90.4212 32.5264 90.4304 32.5173 90.4487C32.4074 90.6231 32.4715 91.5963 32.7646 92.1746C32.9203 92.4868 33.1126 92.7346 33.3325 93.0192C33.5523 93.313 33.8088 93.6435 34.1202 94.1392C34.6789 95.0481 34.9537 95.7182 35.0911 96.1222C35.1277 96.2232 35.146 96.3058 35.1735 96.3884C35.2376 96.2599 35.3567 96.0946 35.3842 96.0671C36.3734 94.9746 37.2252 94.9012 37.8206 95.0481H37.8298C38.2602 95.1399 38.6358 95.3877 38.9014 95.7641C39.2037 96.1589 39.3411 96.7189 39.2495 97.2146ZM37.3168 95.9477C37.326 95.9477 37.3351 95.9477 37.3351 95.9477C37.3351 95.9477 37.326 95.9477 37.3168 95.9477ZM39.0388 102.686C39.0388 102.695 39.0296 102.704 39.0296 102.714C38.819 103.476 38.3427 104.008 37.6924 104.201C37.4909 104.265 37.3077 104.293 37.1245 104.293C36.694 104.293 36.3276 104.127 35.9338 103.88C35.9063 103.87 35.6864 103.843 35.4666 103.962C35.3567 104.026 35.2743 104.109 35.2102 104.164C35.1552 104.219 35.1277 104.247 35.1002 104.238C35.0911 104.238 35.0728 104.219 35.0728 104.201C35.0453 104.118 35.0453 103.898 35.1827 103.641C35.2743 103.485 35.3659 103.384 35.4025 103.356C35.3567 103.255 35.0819 102.558 35.4391 101.796C35.6773 101.282 36.3184 100.997 36.7947 101.199C37.2802 101.401 37.4267 101.768 37.4084 102.025C37.3901 102.236 37.3168 102.411 37.2161 102.484C37.1611 102.521 37.1062 102.53 37.0604 102.512C36.9962 102.493 36.9962 102.42 36.9962 102.337C36.9871 102.19 36.9779 101.988 36.7123 101.851C36.5749 101.777 36.4192 101.768 36.2818 101.823C36.1811 101.869 36.0437 101.961 35.9704 102.181C35.8696 102.475 35.8788 102.76 36.007 102.998C36.1627 103.292 36.4742 103.503 36.8955 103.604C37.5183 103.751 38.1687 103.292 38.3793 102.539C38.4434 102.319 38.4709 102.053 38.3885 101.777C38.2236 101.226 37.8481 100.722 36.9413 100.281C36.6299 100.134 35.9887 99.8494 35.7414 99.73C35.8788 99.3353 35.8971 99.2068 35.9429 99.0691C36.0253 98.9314 36.2635 98.7202 36.4833 98.6651C36.7489 98.6009 37.0512 98.7386 37.042 98.7845C37.0329 98.8304 36.694 98.913 36.5016 99.3628C36.5749 99.3904 37.2161 99.574 37.7656 99.932C38.6907 100.529 38.9472 101.171 39.0205 101.447C39.167 101.906 39.1396 102.337 39.0388 102.686ZM30.0717 87.9792C29.513 87.4651 29.0642 87.3274 29.0642 87.3274V86.3543C29.3298 86.4828 29.9435 86.8133 30.3007 87.1071C30.6488 87.3917 30.9144 87.6854 31.125 87.9241L30.9785 88.9064C30.7312 88.631 30.4015 88.2822 30.0717 87.9792ZM29.3664 89.751C29.2016 88.6402 29.2748 88.1077 29.2748 88.1077C29.5221 88.1995 29.9435 88.6127 30.09 88.7687C30.09 88.7687 30.0626 88.9156 30.1633 89.6041C30.2457 90.1182 30.3923 90.6048 30.4564 90.7976L29.6779 91.1648C29.6046 90.9169 29.4489 90.3569 29.3664 89.751ZM29.9618 96.4618C30.0534 97.2055 30.6671 97.9123 31.5372 97.8114C31.9128 97.7654 32.1692 97.6002 32.3524 97.4074L32.2883 97.3615L32.3066 97.3432C32.1875 97.233 31.7845 96.8474 31.4456 96.4251C31.125 96.012 30.9602 95.7825 30.9327 95.7366L30.8411 95.6081C30.8503 95.5989 30.9602 95.5254 31.2808 95.5346C31.638 95.553 31.986 95.8284 32.0776 95.911C32.0776 95.911 32.2425 96.0946 32.7737 96.6546C33.4057 97.3156 33.8637 97.6277 33.937 97.6828C33.937 97.8756 33.882 98.2428 33.8179 98.4999C33.5248 98.3438 33.1493 98.0225 32.9661 97.8756C32.9386 97.8573 32.9203 97.8389 32.902 97.8205C32.673 98.0959 32.3249 98.3805 31.812 98.5182C31.6929 98.5458 31.5647 98.5641 31.4365 98.5641C30.3007 98.5366 29.5496 97.692 29.3573 96.8566C29.284 96.5445 29.3115 96.1589 29.3298 95.8835C29.339 95.6448 29.3481 95.4428 29.3023 95.2868C29.2474 95.1123 29.1558 95.0022 29.1008 94.9287C29.0459 94.8553 29.0092 94.8094 29.0459 94.7635C29.11 94.69 29.3023 94.7359 29.4855 94.8553C29.6046 94.9379 29.6504 95.0205 29.6687 95.0756C29.7786 94.9104 30.3099 94.1943 31.2075 94.1576C31.5189 94.1484 31.7937 94.2127 32.0044 94.3504C32.1784 94.4605 32.2975 94.6166 32.3433 94.7727C32.3799 94.9012 32.3799 95.0022 32.2975 95.0481C32.2517 95.0664 32.1601 95.0297 32.0227 94.9654C31.8303 94.8736 31.5372 94.7727 31.18 94.8094C30.8961 94.8461 30.493 95.0389 30.2274 95.3969C30.0076 95.6999 29.916 96.0671 29.9618 96.4618ZM23.2937 104.522C22.1763 104.715 20.0421 104.412 20.0421 104.412L18.943 100.859C18.943 100.859 20.0788 101.933 20.6833 102.411C21.2786 102.888 21.8374 103.145 22.6892 103.145C23.541 103.145 24.1181 102.925 24.7409 102.264C25.3638 101.594 25.6019 100.731 25.7576 99.7209C25.8675 98.9864 25.8217 96.9576 25.8217 96.4894L25.9774 85.473C25.9774 85.473 26.0507 83.0953 25.8858 82.4986C25.7118 81.9018 25.3546 81.4612 25.1439 81.2408C24.6676 80.7451 23.6509 80.5799 23.6509 80.5799C23.3578 80.534 23.2937 80.3871 23.3212 80.2402C23.3487 80.029 23.5319 79.9923 23.5319 79.9923L30.7037 80.0107C30.7037 80.0107 30.8777 80.029 30.9144 80.2402C30.9327 80.3871 30.8777 80.5248 30.5846 80.5799C30.5846 80.5799 29.5771 80.7451 29.0917 81.2408C28.8718 81.4704 28.5146 81.9018 28.3497 82.4986C28.1757 83.0953 28.2581 85.473 28.2581 85.473V96.5169C28.2581 96.5169 28.2856 98.6468 28.0108 99.7668C27.8185 100.547 27.3788 102.08 26.1973 103.154C25.1256 104.109 24.3013 104.357 23.2937 104.522ZM18.1461 102.576C17.7523 103.402 17.1019 104.137 16.9829 104.017C16.8821 103.916 17.0104 103.834 17.0745 103.586C17.1386 103.338 17.1569 103.283 17.1569 103.283C17.1569 103.283 16.9829 103.531 16.36 103.925C15.7372 104.311 15.6273 104.348 15.5174 104.192C15.4532 104.091 15.609 103.981 15.7555 103.723C15.9021 103.466 15.8563 103.485 15.8563 103.485C15.8563 103.485 15.325 103.439 14.8945 103.246C14.4549 103.053 13.9969 102.603 14.0152 102.512C14.0335 102.392 14.2076 102.328 14.5373 102.163C14.8854 101.988 15.1327 101.759 15.1327 101.759C15.1327 101.759 14.8945 101.704 14.7663 101.64C14.5556 101.539 14.345 101.438 14.4823 101.309C14.5923 101.199 15.1601 101.575 16.012 100.767C16.763 100.051 16.7722 98.9956 16.7722 98.9956C16.7722 98.9956 17.1386 100.217 16.6531 101.199C16.0486 102.402 14.9312 102.411 15.0502 102.659C15.2059 102.971 16.5799 102.686 17.1661 101.254C17.6607 100.051 17.1386 98.5182 16.763 97.6186C16.6531 97.3615 16.5157 97.0127 16.415 96.7373C16.763 96.8933 17.0378 96.9668 17.3218 97.0035C17.3309 97.0035 17.3676 97.0769 17.3676 97.0769C17.6973 97.6094 18.2194 97.8022 18.4942 97.9032C18.7598 98.0041 19.0346 98.05 19.3185 98.05C19.5658 98.05 19.804 98.0133 20.033 97.9215C20.1795 97.8664 20.3261 97.7838 20.436 97.6736C20.7657 97.3156 20.8482 96.214 21.0039 96.1313C21.0771 96.0946 21.242 96.3609 21.3061 96.572C21.3702 96.774 21.3428 96.9851 21.4618 97.031C21.5534 97.0677 21.6084 96.9668 21.7916 96.7464C22.0572 96.4343 22.0206 96.3058 22.1488 96.3609C22.277 96.4159 22.1396 97.0953 22.0755 97.4625C22.0114 97.8389 21.8282 98.3805 21.8282 98.3805C21.8282 98.3805 22.2679 98.0868 22.68 97.9032C23.8341 97.3799 24.2829 97.5451 24.2921 97.6828C24.3013 97.8205 24.0265 97.8481 23.7242 98.2061C23.5044 98.4632 23.5593 98.5274 23.5593 98.5274C23.5593 98.5274 23.7334 98.5366 24.2188 98.3897C24.5577 98.2887 24.86 98.1327 24.9516 98.2795C25.0523 98.4264 24.6035 99.0232 23.9166 99.5097C23.2296 99.9871 22.6617 100.171 22.6617 100.171C22.6617 100.171 22.79 100.308 23.138 100.373C23.4769 100.437 23.6143 100.382 23.6509 100.483C23.6876 100.621 23.312 100.731 22.6617 100.795C21.7458 100.887 21.2695 100.492 21.2695 100.492C21.2695 100.492 21.3886 100.823 21.2512 101.162C21.1138 101.502 21.0771 101.823 20.9489 101.796C20.8115 101.777 20.9764 101.456 20.7199 101.135C20.4451 100.795 20.1337 100.722 19.6574 100.354C19.1995 99.9963 19.1811 99.7209 19.1811 99.7209C19.1811 99.7209 19.978 100.024 21.2878 99.8127C22.5518 99.6107 22.9365 99.2343 22.8449 99.0966C22.7625 98.9681 22.5518 99.1333 21.9564 99.271C21.2603 99.4271 20.3261 99.3904 19.2819 99.2068C18.9155 99.1425 18.4209 98.9681 17.9629 98.6743C18.137 99.0232 18.4301 99.6566 18.4942 100.106C18.6407 100.878 18.54 101.75 18.1461 102.576ZM17.3401 91.2658C17.395 90.9169 17.5874 90.5589 17.7065 90.4028C18.1644 90.3202 18.4575 90.5772 18.4942 90.614C18.2469 91.1005 18.082 91.633 17.9446 92.1654C17.7797 92.092 17.5416 91.8625 17.3401 91.2658ZM17.45 94.8828C17.2119 94.8645 16.6165 94.4605 16.5799 94.3504C16.5799 94.1392 16.6348 93.671 16.7172 93.3956C17.0195 93.9189 17.5141 94.1484 17.5141 94.1484C17.4225 94.4972 17.45 94.8828 17.45 94.8828ZM14.9953 90.2559C15.0594 90.0907 15.1052 89.9713 15.151 89.8704C15.2517 89.65 15.3067 89.5123 15.325 89.2002C15.3525 88.8422 15.2426 88.5668 15.1693 88.4933C15.2609 88.5025 15.5448 88.6218 15.6548 88.8605C15.7463 89.0533 15.8837 89.5582 15.8654 89.6409C15.8563 89.6592 15.8746 89.6684 15.8746 89.6684C15.8929 89.6776 15.9112 89.6684 15.9753 89.6225C16.1677 89.4756 16.7539 89.035 17.7797 89.035H17.7889C19.6849 89.035 20.5184 90.7976 20.5276 90.8159V90.8251H20.5367C20.5459 90.8251 20.7932 90.8986 21.297 90.6782C21.4985 90.5956 21.6175 90.4854 21.7275 90.3845C21.9198 90.2192 22.0847 90.0723 22.5518 90.054C23.0189 90.0356 23.367 90.3018 23.4311 90.4854C23.4494 90.5313 23.4494 90.5864 23.3945 90.6323C23.3212 90.6782 23.312 90.6782 23.2662 90.6507C23.2021 90.6231 23.0922 90.5681 22.7442 90.6231C22.4511 90.6691 22.3228 90.9353 22.1763 91.2199C22.0206 91.5228 21.8649 91.8441 21.4985 91.9451C21.1687 92.0369 20.7657 91.8074 20.7016 91.6881C20.6833 91.6513 20.6558 91.6146 20.61 91.6238C20.5734 91.633 20.5642 91.6789 20.5642 91.6972C20.5642 91.6972 20.5551 91.991 20.3719 92.4959C20.207 92.9641 19.4376 94.0841 17.9355 93.671C17.0104 93.4232 16.6531 92.551 16.6898 92.0186C16.6989 91.8441 16.763 91.7248 16.8363 91.7156C16.9004 91.7064 16.9646 91.7523 16.9737 91.8074C17.047 92.0094 17.1111 92.2022 17.221 92.3766C17.3676 92.6153 17.6515 92.8907 17.9721 92.9641C18.7232 93.1294 19.1811 92.7438 19.2636 92.6704C19.5475 92.4041 19.7032 91.9635 19.6757 91.4861C19.6391 90.8802 19.3185 90.4946 19.0621 90.2743C18.7232 89.9989 18.2927 89.8336 17.8713 89.8245C17.8622 89.8245 17.853 89.8245 17.8347 89.8245C17.2851 89.8245 16.7264 90.0448 16.2959 90.4395C15.7463 90.9353 15.4258 91.6605 15.3617 92.5602C15.3067 93.3222 15.6181 94.1759 16.1768 94.791C16.6165 95.2684 17.1477 95.5254 17.6973 95.5346C17.7065 95.5346 17.7156 95.5346 17.7248 95.5346C19.1537 95.5346 20.0788 94.6533 21.0588 93.7169C21.9748 92.8448 22.9182 91.9359 24.402 91.5228C24.5119 91.4953 25.0249 91.4402 25.1348 91.4402L25.1073 92.2481C24.2738 92.4041 23.1197 92.9366 23.1747 93.515C23.2296 94.0841 23.596 94.3963 23.77 94.5432C23.8067 94.5799 23.8525 94.6074 23.8525 94.6166C23.8525 94.6166 23.8341 94.635 23.7792 94.6533C23.6143 94.7084 23.2571 94.7543 22.964 94.6166C22.5793 94.4422 22.2038 93.8087 22.2038 93.8087L22.1854 93.7812L22.1671 93.7995C22.158 93.8087 21.0222 95.0022 20.4085 95.452C20.0055 95.7458 18.9522 96.5261 17.6973 96.4618C16.8363 96.4251 16.0395 96.0304 15.4441 95.351C14.8304 94.635 14.4915 93.6618 14.5098 92.5877C14.5465 91.6238 14.6564 91.174 14.9953 90.2559ZM17.7523 80.0199C17.7614 80.0199 18.6407 79.9464 19.4834 80.2861C19.8498 80.433 20.1154 80.6258 20.3535 80.791H20.3627C20.7108 81.0389 20.9855 81.2317 21.3702 81.1123C21.8191 80.9746 21.9015 80.6258 21.9564 80.3963C21.9748 80.3412 21.9931 80.2402 22.0114 80.231C22.0297 80.2218 22.1122 80.2494 22.1854 80.3595C22.2679 80.4881 22.4877 80.9563 21.9015 81.8008C21.5718 82.269 21.0497 82.37 21.0313 82.37C21.013 82.37 20.9855 82.3884 20.9764 82.4067C20.9672 82.4251 20.9581 82.4527 20.9672 82.471C20.9947 82.5904 21.0039 82.673 21.013 82.7648C21.0313 83.0586 21.0039 83.334 20.8115 83.8113C20.5093 84.5274 19.9139 84.9772 19.117 85.069C18.3476 85.1609 17.7248 84.7294 17.505 84.252C17.3035 83.8113 17.2943 83.2972 17.4775 82.8382C17.5233 82.7281 17.5966 82.6363 17.6698 82.6179C17.6973 82.6087 17.7248 82.6179 17.7523 82.6363C17.8164 82.6913 17.8164 82.8199 17.8255 82.9943C17.8347 83.1687 17.8439 83.3799 17.9171 83.6186C18.0362 83.9766 18.4209 84.3071 18.9247 84.2612C19.6849 84.1877 20.1429 83.6553 20.1612 82.8199C20.1795 81.9477 19.6208 80.9104 17.9904 80.8645C17.9721 80.8645 17.9446 80.8645 17.9263 80.8645C17.3126 80.8645 16.7447 81.1031 16.2959 81.553C15.7647 82.0854 15.4349 82.8841 15.4258 83.6553C15.3983 85.1517 16.1768 86.0146 16.8272 86.4828C17.4866 86.951 18.5217 86.9786 19.8131 86.5746C20.2528 86.4369 20.7291 86.2349 21.1871 86.0422L21.1779 86.0238L21.1962 86.0422C21.5809 85.8769 21.9839 85.7117 22.3686 85.5831C22.5976 85.5005 22.8358 85.4363 23.0831 85.3995L23.1197 85.3904L23.0922 85.3628C22.9915 85.2343 22.8632 85.0599 22.7075 84.8304C22.3778 84.3622 22.277 83.5084 22.3869 83.3248C22.4327 83.2422 22.4877 83.233 22.506 83.233C22.5243 83.233 22.5335 83.2422 22.5427 83.2422C22.5427 83.2513 22.5427 83.2972 22.5427 83.3064C22.5427 83.3523 22.5427 83.5451 22.6342 83.6553C22.7533 83.793 22.909 83.8205 22.9823 83.7838C23.0098 83.7746 23.0281 83.7563 23.0281 83.7287C23.0464 83.6553 23.1655 83.2789 23.367 82.9851C23.541 82.7372 24.0631 82.3517 24.3654 82.3517C24.3745 82.3517 24.3837 82.3517 24.3929 82.3517C24.4753 82.3608 24.5303 82.3976 24.5669 82.4618C24.6035 82.5445 24.4753 82.6822 24.4387 82.7281C24.173 83.0127 23.8525 83.4258 23.8341 84.1235C23.825 84.454 23.9166 84.7202 24.1089 84.9313C24.4753 85.3261 25.1073 85.372 25.2264 85.372V86.0881C25.208 86.0881 25.1897 86.0881 25.1714 86.0881C24.5394 86.0881 24.0448 86.8409 23.8799 87.6212C23.7425 88.2546 23.8616 89.1543 23.9166 89.4113C23.9624 89.6592 23.9257 89.7143 23.9074 89.7235C23.8982 89.7327 23.8891 89.7327 23.8616 89.7327C23.7334 89.7051 23.4861 89.4297 23.2205 88.989C23.0189 88.6677 23.0739 88.273 23.1105 88.0618C23.1289 87.9425 23.138 87.8874 23.0922 87.8599L23.0831 87.8507C23.0556 87.8323 23.0189 87.8048 22.9731 87.8048C22.9731 87.8048 22.9731 87.8048 22.964 87.8048C22.8999 87.8048 22.8358 87.8415 22.7716 87.9241C22.7167 87.9884 22.68 88.0343 22.6617 88.071C22.6342 88.1169 22.6342 88.1169 22.5427 88.0894C22.5427 88.0894 22.5335 88.0894 22.5243 88.071C22.4694 87.915 22.6434 87.3641 22.8632 86.9786C23.0464 86.6664 23.2296 86.4461 23.5044 86.2349L23.5868 86.1707L23.4861 86.189C22.5793 86.391 21.6725 86.7582 21.1046 87.1346C20.3902 87.6212 19.8131 88.1904 19.3826 88.8422C19.3002 88.7963 19.2361 88.7595 19.0437 88.6677C18.9247 88.6127 18.7506 88.5576 18.6224 88.5392C18.8056 88.3005 19.0987 87.97 19.2269 87.8415L19.2361 87.8323C19.2544 87.8048 19.2544 87.7681 19.2269 87.7405C19.2086 87.713 19.172 87.7038 19.1353 87.713C19.0987 87.7222 18.2927 88.0343 16.8638 87.5018C15.7097 87.0704 14.5007 85.8127 14.5648 83.5818C14.6289 81.3051 16.2135 80.1576 17.7523 80.0199ZM12.7695 106.377H41.0356V78.0094H12.7695V106.377Z" fill="white"/>
<path d="M41.6572 34.619H43.3151C45.1378 34.619 46.4384 34.0866 47.1987 33.0217C47.9681 31.9567 48.3528 30.1207 48.3528 27.5226V10.9705C48.3528 8.71214 47.9955 7.16984 47.2811 6.33443C46.5667 5.49902 45.2569 5.08591 43.37 5.08591H41.6572V34.619ZM35.7769 39.8059V0H42.0236C46.7224 0 49.9557 0.81705 51.7051 2.44197C53.4546 4.07607 54.3339 6.98623 54.3339 11.1816V28.9731C54.3339 32.7371 53.5462 35.482 51.9616 37.2079C50.377 38.9338 47.8582 39.7967 44.3867 39.7967H35.7769V39.8059Z" fill="black"/>
<path d="M63.7039 0L57.8877 39.8059H63.6581L64.6016 31.7731H70.4728L71.462 39.8059H77.4431L71.3521 0H63.7039ZM67.4318 3.36H67.7249L69.8957 26.4761H65.1236L67.4318 3.36Z" fill="black"/>
<path d="M87.436 0H81.5648V39.8059H87.436V0Z" fill="black"/>
<path d="M93.17 0V39.8059H109.794V34.2977H99.0412V0H93.17Z" fill="black"/>
<path d="M122.086 0L118.23 18.0118L114.502 0H108.365L115.171 23.52V39.8059H121.042V23.5751L127.966 0H122.086Z" fill="black"/>
<path d="M7.33672 35.455C6.62228 34.9593 5.94448 34.5003 5.94448 33.5914C5.94448 32.7744 6.55817 32.4898 7.13521 32.4898C7.89544 32.4898 8.37174 32.8845 8.50913 33.6189L8.51829 33.6649H8.68316V33.6098C8.674 33.4537 8.674 33.2058 8.674 33.0498C8.674 32.7927 8.68316 32.6091 8.70148 32.3796L8.71063 32.3062L8.63736 32.3153C8.5824 32.3245 8.53661 32.3245 8.47249 32.3245C8.29846 32.3245 8.13359 32.297 7.94124 32.2603C7.71226 32.2144 7.44663 32.1685 7.11689 32.1685C5.97196 32.1685 5.16593 32.9488 5.16593 34.0596C5.16593 35.2347 5.98112 35.7855 6.77799 36.3271C7.52907 36.8412 8.23434 37.3186 8.23434 38.2917C8.23434 39.2098 7.5657 39.6229 6.89707 39.6229C6.12767 39.6229 5.34912 39.2006 5.34912 38.3835C5.34912 38.3193 5.35828 38.2458 5.36744 38.1632L5.3766 38.0714H5.23005L5.21173 38.1081C5.09266 38.3744 5.0835 38.6865 5.0835 38.7783C5.0835 38.916 5.09266 39.0353 5.11097 39.1547C5.12013 39.2648 5.13845 39.375 5.13845 39.4852C5.13845 39.5678 5.13845 39.6963 5.12929 39.7422L5.11097 39.8248L5.19341 39.8157C5.24837 39.8065 5.27584 39.8065 5.33996 39.8065C5.55979 39.8065 5.74298 39.8432 5.93532 39.8891C6.17347 39.9442 6.42993 39.9993 6.81463 39.9993C8.09695 39.9993 8.99458 39.118 8.99458 37.8603C8.98542 36.5842 8.15191 36.015 7.33672 35.455Z" fill="#990000"/>
<path d="M21.5888 36.1619C21.5888 38.3009 20.5354 39.6321 18.8318 39.6321C17.1465 39.6321 16.1481 38.3101 16.1481 36.0976C16.1481 33.4537 17.5403 32.5081 18.8318 32.5081C20.105 32.5081 21.5888 33.4629 21.5888 36.1619ZM18.9142 32.1685C16.5053 32.1685 15.0673 34.1789 15.0673 36.1252C15.0673 38.0163 16.4778 39.9809 18.8318 39.9809C20.9751 39.9809 22.6604 38.2734 22.6604 36.0976C22.6604 33.8944 21.0117 32.1685 18.9142 32.1685Z" fill="#990000"/>
<path d="M24.7765 32.6277C25.0696 32.5542 25.262 32.5359 25.4818 32.5359C26.471 32.5359 27.103 33.2978 27.103 34.4821C27.103 35.6664 26.526 36.1988 25.2253 36.1988H24.7674V32.6277H24.7765ZM29.2372 39.8067C28.6235 39.5955 27.9091 38.3195 27.3961 37.3831C27.1122 36.869 26.874 36.4559 26.7092 36.2723C27.5976 35.9142 28.1197 35.2073 28.1197 34.3444C28.1197 33.0316 27.1122 32.1778 25.5551 32.1778C25.4452 32.1778 25.2711 32.187 25.0788 32.187C24.859 32.1962 24.6208 32.1962 24.4468 32.1962C23.9797 32.1962 23.7873 32.1962 23.4301 32.1778H23.3751V32.3339L23.4209 32.3431C23.7781 32.3982 23.8881 32.5267 23.8881 33.2519V38.9162C23.8881 39.7424 23.7598 39.7608 23.4026 39.825L23.3568 39.8342V39.9903H23.4118C23.6041 39.9811 23.9155 39.9719 24.3369 39.9719C24.6391 39.9719 24.9872 39.9811 25.262 39.9903H25.3169V39.8342L25.2711 39.825C24.9139 39.77 24.7857 39.7424 24.7857 38.9162V36.5385H25.4085C25.5276 36.5385 25.665 36.5293 25.839 36.5018C26.0222 36.6762 26.2329 37.0801 26.3611 37.3188C26.3886 37.3739 26.4161 37.4198 26.4344 37.4565C27.6892 39.8067 27.8266 39.9536 28.9624 39.9995C29.0906 39.9995 29.1364 39.9995 29.2372 39.9903L29.283 39.9811V39.825L29.2372 39.8067Z" fill="#990000"/>
<path d="M15.2232 32.1591H15.1407C14.6369 32.1683 12.0173 32.2142 9.65421 32.1591H9.60841L9.59925 32.205C9.55346 32.3978 9.50766 32.563 9.46186 32.7283C9.40691 32.9211 9.35195 33.1138 9.31531 33.3066L9.30615 33.3709H9.46186L9.48018 33.3342C9.78244 32.6915 10.2221 32.6915 11.8616 32.6915V38.9158C11.8616 39.742 11.7334 39.7696 11.3762 39.8247L11.3304 39.8338V39.9899H11.3853C11.5777 39.9807 11.8891 39.9716 12.3013 39.9716C12.7409 39.9716 13.089 39.9899 13.2172 39.9899H13.2722V39.8338L13.2264 39.8247C12.8783 39.7696 12.7409 39.742 12.7409 38.9158V32.6824C14.5454 32.6824 14.8018 32.7558 14.8018 33.022C14.8018 33.0679 14.7927 33.1322 14.7835 33.1689L14.7652 33.2424H14.9484L14.9575 33.1965C14.985 33.0312 15.1041 32.5171 15.1957 32.2325L15.2232 32.1591Z" fill="#990000"/>
<path d="M3.2516 32.1774C2.87606 32.1774 2.46389 32.1683 2.24406 32.1591H2.18911V32.3152L2.2349 32.3243C2.60128 32.3794 2.82111 32.4161 2.82111 33.1965V37.8142C2.82111 38.6771 2.41809 39.6043 1.75861 39.6043C1.63954 39.6043 1.52047 39.5952 1.41055 39.5768C0.952582 39.4666 0.668639 39.1453 0.49461 38.9066C0.467131 38.8699 0.448813 38.8424 0.421334 38.8057C0.228986 38.5211 0.137392 38.264 0.137392 38.264C0.128232 38.2365 0.100754 38.2181 0.0549566 38.2181C0.0183189 38.2273 0 38.2548 0 38.2916L0.15571 39.5034L0.16487 39.5401L0.192348 39.5584C0.604523 39.8247 1.14493 39.9257 1.28232 39.9348C1.45635 39.9624 1.59374 39.9716 1.68534 39.9716C1.75861 39.9716 1.79525 39.9716 1.79525 39.9716C2.92186 39.9716 3.68209 39.0535 3.68209 37.6948V33.1965C3.68209 32.4345 3.84696 32.3978 4.21334 32.3243L4.27746 32.3152V32.1591H4.2225C4.01183 32.1683 3.60882 32.1774 3.2516 32.1774Z" fill="#990000"/>
<path d="M27.1854 12.6599C26.938 12.8251 26.6633 12.8527 26.6633 12.8527C26.6541 12.8527 26.6449 12.8618 26.6449 12.871C26.6449 12.8802 26.6449 12.8894 26.6541 12.8894C26.6633 12.8986 27.3411 13.4769 27.4052 14.2756C27.4785 15.0927 27.3502 15.5333 26.9472 15.9189C26.6175 16.231 26.1503 16.2677 25.9671 16.2218C25.9305 16.2127 25.9213 16.2035 25.9122 16.1943C25.8847 16.0933 26.0404 15.9832 26.2145 15.8638C26.2511 15.8363 26.2969 15.8087 26.3335 15.7812C26.5625 15.6159 26.6999 15.3405 26.6175 15.1845C26.59 15.1386 26.5534 15.1202 26.4984 15.1294C26.4618 15.1294 26.416 15.1477 26.3702 15.1569C26.2786 15.1845 26.1778 15.212 26.132 15.1569C26.0771 15.0927 26.0954 15.0468 26.1503 14.9458C26.187 14.8632 26.2419 14.7622 26.2511 14.6245C26.2694 14.3215 26.2419 13.5045 25.8023 13.4218C25.784 13.4218 25.7656 13.4218 25.7565 13.431C25.7107 13.4677 25.7107 13.5687 25.7107 13.7248C25.7107 13.9268 25.7015 14.2113 25.5824 14.395C25.3993 14.6795 25.1062 14.8999 24.9688 14.8999C24.9413 14.8999 24.9138 14.8907 24.9047 14.8723C24.8863 14.8448 24.8955 14.7805 24.923 14.6795C24.9688 14.4409 25.0604 14.0094 24.9321 13.2015C24.8863 12.9169 24.7215 12.614 24.5566 12.311C24.4009 12.0264 24.2452 11.751 24.2177 11.5215C24.1536 11.09 24.2085 10.9064 24.4558 10.7228C24.5932 10.6127 24.6207 10.5117 24.6207 10.4474C24.6207 10.3831 24.5841 10.2638 24.465 10.2179C24.4558 10.2179 24.4558 10.2179 24.4467 10.2179C24.3917 10.2087 24.2818 10.1904 24.1811 10.1995C23.7231 10.1995 22.6514 10.2179 21.8912 9.18052C21.2775 8.34511 21.2317 7.5556 21.3508 6.63757V6.62839C21.3508 6.61003 21.2775 6.27036 20.9936 6.00413C20.8562 5.8756 20.7096 5.81134 20.6089 5.75626C20.5448 5.72872 20.4898 5.692 20.4806 5.67364C20.4806 5.67364 20.4806 5.66446 20.499 5.64609C20.5722 5.56347 20.8287 5.46249 21.1859 5.51757C21.4515 5.56347 21.6439 5.66446 21.6439 5.66446C21.6531 5.67364 21.6622 5.66446 21.6714 5.65527C21.6805 5.64609 22.3766 4.81986 23.5399 4.91167C24.236 4.96675 24.9047 5.64609 24.923 6.3897C24.9413 7.13331 24.5932 7.51888 24.291 7.62905C24.0437 7.71167 23.8238 7.70249 23.6864 7.61069C23.6223 7.56479 23.5857 7.5097 23.5857 7.44544C23.5857 7.38118 23.6406 7.35364 23.7414 7.29855C23.9063 7.21593 24.1627 7.08741 24.1994 6.61921C24.2177 6.38052 24.1353 6.14183 23.9795 5.96741C23.8696 5.84806 23.6773 5.71036 23.3567 5.72872C22.9537 5.74708 22.6148 5.90314 22.395 6.19691C22.111 6.56413 22.0103 7.13331 22.1202 7.79429C22.2759 8.74905 23.201 9.41921 24.2269 9.31823C24.8222 9.25397 25.3901 8.92347 25.8114 8.37265C26.2145 7.84937 26.4434 7.18839 26.4526 6.54577C26.4709 4.93921 25.5458 3.28675 23.43 3.21331C21.4057 3.13068 20.1509 4.38839 19.5739 5.14118C19.2166 5.60937 18.8411 6.49987 18.5663 7.22511C18.6854 7.20675 19.0793 7.15167 19.4273 7.3261C19.7845 7.50052 20.2059 7.932 20.1326 8.11561C20.1143 8.17069 20.0044 8.14315 19.8578 8.09724C19.6563 8.04216 19.3632 8.06052 19.0335 8.10642C18.4747 8.17987 18.2457 8.29003 18.1816 8.34511L18.2091 8.24413C18.1908 8.30839 18.1816 8.34511 18.1725 8.34511L17.4122 7.87692C17.513 7.39954 17.9984 5.40741 19.2075 4.09462C20.4623 2.74511 21.9462 2.31363 23.2651 2.29527C23.9795 2.28609 24.639 2.39626 25.1794 2.52478C25.2436 2.54314 25.3077 2.55232 25.3626 2.57068C25.8847 2.69003 26.4251 2.79101 26.8098 2.69921C27.0205 2.64412 27.1945 2.5615 27.3227 2.49724C27.4052 2.46052 27.4876 2.41462 27.5059 2.4238C27.5059 2.4238 27.5151 2.43298 27.5151 2.44216C27.5334 2.52478 27.451 2.79101 27.2128 3.1215C27.0571 3.33265 26.8739 3.45199 26.7365 3.53462C26.6175 3.60806 26.5259 3.66314 26.5259 3.74577C26.5259 3.78249 26.5625 3.85593 26.6358 3.99363C26.8648 4.41593 27.3502 5.28806 27.2953 6.51823C27.2037 8.40938 26.306 9.22643 25.7015 9.76807L25.6466 9.82315H25.6374C25.2436 10.2822 25.2893 10.7045 25.4084 10.9799C25.5824 11.393 25.9671 11.7327 26.4618 11.9071C26.7457 12.0081 27.0571 12.0448 27.2769 12.0723C27.451 12.0907 27.6067 12.109 27.625 12.1458C27.68 12.2559 27.5243 12.4395 27.1854 12.6599ZM27.2495 19.2146C27.0663 20.2887 26.4526 20.7477 25.9397 20.8212C25.8939 20.8304 25.8572 20.8304 25.8206 20.8304C25.674 20.8304 25.555 20.7845 25.5183 20.7202C25.5092 20.6927 25.5 20.6651 25.5092 20.6468C25.5275 20.6009 25.5825 20.5825 25.6649 20.555C25.7656 20.5182 25.903 20.4632 26.0587 20.3438C26.4984 19.995 26.4709 19.8389 26.4526 19.7195C26.4526 19.7104 26.4434 19.7012 26.4343 19.692C26.4068 19.6736 26.3427 19.7104 26.2603 19.7563L26.2236 19.7746C26.1229 19.8297 26.0313 19.8297 25.958 19.8022C25.9122 19.7838 25.8939 19.7471 25.8847 19.7012C25.8756 19.6461 25.9305 19.6002 26.0038 19.5359C26.0587 19.4809 26.1229 19.4258 26.1687 19.3615C26.3885 19.0035 26.4343 18.5904 26.2603 18.2507C26.132 18.0028 25.9488 17.7733 25.4084 17.7182C25.3993 17.7182 25.3901 17.7182 25.3718 17.7182C25.3626 17.7182 25.3535 17.7182 25.3535 17.7182C25.2893 17.7182 25.2069 17.7274 25.1336 17.7458C24.5383 17.8559 24.1353 18.2599 23.8696 18.6914C23.8696 18.7005 23.8605 18.7005 23.8605 18.7097C23.4941 19.2514 23.4025 20.0868 23.3842 20.252V20.2612C23.2651 21.0232 23.0178 22.1432 21.4241 24.1261C21.2409 24.3464 21.0943 24.6769 21.1859 25.0441C21.3508 25.6776 21.9553 25.7327 21.9553 25.7969C21.9462 25.8887 21.8179 25.8887 21.5981 25.8796C21.3783 25.8612 21.2958 25.7877 21.2958 25.7877C21.2958 25.7877 21.2409 25.9346 21.6073 26.2009C21.8912 26.412 22.2118 26.4028 22.2209 26.4855C22.2301 26.5956 20.4623 27.0087 20.3524 25.2186C20.3524 25.1727 20.3524 25.1359 20.3433 25.0992C18.4381 26.8527 17.8794 26.9353 17.742 26.7517C17.6779 26.6599 17.861 26.6782 18.2274 26.2651C18.603 25.8428 18.6121 25.65 18.6121 25.65C18.6121 25.65 17.8702 26.054 17.0092 25.9714C16.1299 25.8887 15.388 25.2737 15.4521 25.0258C15.5071 24.8146 16.0292 25.1727 16.6612 25.0717C17.2382 24.9799 17.2932 24.7504 17.2932 24.7504C17.2932 24.7504 17.1832 24.7504 16.9909 24.5484C16.7985 24.3464 16.5146 24.1812 16.6795 24.0159C16.7711 23.9241 17.2107 24.1169 17.6504 24.1169C18.1999 24.1169 18.548 23.9884 18.548 23.9884C18.548 23.9884 18.319 23.9058 18.09 23.6763C17.8519 23.4468 17.8061 23.2081 17.8794 23.1438C17.916 23.1071 18.0168 23.2999 18.319 23.2907C18.6762 23.2815 18.722 23.1989 18.722 23.1989C18.722 23.1989 18.5663 23.0612 18.5022 22.9235C18.4289 22.7858 18.2183 22.3818 18.3557 22.2258C18.4014 22.1799 18.8045 22.6756 19.3998 22.7399C20.4257 22.8317 21.5615 22.0146 21.5615 22.0146C21.5615 22.0146 21.0027 22.7032 19.8212 23.7222C19.0609 24.374 18.1083 24.9064 18.1633 25.035C18.2274 25.1818 18.9785 25.0166 20.2791 23.9241C20.6913 23.5753 20.9569 23.3458 21.5248 22.6481C22.5232 21.4179 22.7522 20.0592 22.5507 18.9759C22.4682 18.5536 22.3583 18.1681 22.2209 17.8468C21.6622 16.6441 21.0577 16.0566 20.0593 15.671C19.1708 15.3313 18.4839 15.6435 18.0717 15.8271C17.861 15.9189 17.7237 15.9832 17.6595 15.9097C17.4763 15.6527 17.8427 15.3038 18.1725 14.9917C18.5846 14.5969 18.8594 14.4409 18.9327 14.4041C18.8594 14.3674 18.5846 14.2389 18.3282 14.2205C18.1999 14.2113 18.0442 14.2389 17.9068 14.2572C17.6962 14.2848 17.5313 14.3123 17.513 14.2113C17.4672 14.0002 18.319 13.6238 18.7861 13.4769C19.2533 13.3209 19.6288 13.3025 19.6929 13.3025C19.6838 13.2015 19.6105 12.4212 19.6929 11.2736C19.7387 10.6677 19.8486 10.2546 19.9311 10.0068C20.0318 9.7038 20.1601 9.48347 20.2791 9.41921C20.3249 9.39167 20.3707 9.39167 20.4074 9.41003C20.4806 9.45593 20.4806 9.612 20.4806 9.85069C20.4806 9.99757 20.4806 10.172 20.4898 10.3648C20.5356 10.934 20.7279 11.2553 20.8287 11.3195C20.847 11.3287 20.8653 11.3379 20.8745 11.3287C20.9111 11.3104 20.9295 11.2369 20.9478 11.1359C20.9661 10.9982 21.0027 10.8054 21.1126 10.5759C21.2958 10.1904 21.6622 9.72216 21.7813 9.75889C21.8088 9.76807 21.8271 9.80479 21.8179 9.86905C21.8088 10.0527 21.7813 10.2087 21.7538 10.3831C21.6988 10.732 21.6347 11.1268 21.6622 11.8612C21.7172 12.9353 22.2118 13.0822 22.2759 13.0913C22.3034 13.0363 22.5507 12.614 22.8987 12.2468C22.972 12.1641 23.0453 12.0907 23.1094 12.0081C23.3292 11.7602 23.5033 11.5674 23.6223 11.5674H23.6315C23.6681 11.5674 23.6956 11.595 23.7139 11.6317C23.7597 11.7051 23.6864 11.8795 23.5674 12.1641C23.4117 12.5589 23.1644 13.1464 23.0636 13.8809C22.8621 15.2763 23.0636 16.6258 23.0728 16.635L23.0911 16.7359L23.0544 16.6441C23.0544 16.6441 22.9354 16.3136 22.4408 15.5884C22.2209 15.2671 22.0469 15.0743 21.882 14.8907C21.6714 14.6612 21.4699 14.4409 21.1951 13.9727C20.8745 13.431 20.8012 13.0363 20.7463 12.77C20.7005 12.5497 20.6821 12.4304 20.5539 12.4212C20.5356 12.4212 20.5264 12.4304 20.5173 12.4487C20.4074 12.6231 20.4715 13.5963 20.7646 14.1746C20.9203 14.4868 21.1126 14.7346 21.3325 15.0192C21.5523 15.313 21.8088 15.6435 22.1202 16.1392C22.6789 17.0481 22.9537 17.7182 23.0911 18.1222C23.1277 18.2232 23.146 18.3058 23.1735 18.3884C23.2376 18.2599 23.3567 18.0946 23.3842 18.0671C24.3734 16.9746 25.2252 16.9012 25.8206 17.0481H25.8298C26.2602 17.1399 26.6358 17.3877 26.9014 17.7641C27.2037 18.1589 27.3411 18.7189 27.2495 19.2146ZM25.3168 17.9477C25.326 17.9477 25.3351 17.9477 25.3351 17.9477C25.3351 17.9477 25.326 17.9477 25.3168 17.9477ZM27.0388 24.6861C27.0388 24.6953 27.0296 24.7045 27.0296 24.7137C26.819 25.4756 26.3427 26.0081 25.6924 26.2009C25.4909 26.2651 25.3077 26.2927 25.1245 26.2927C24.694 26.2927 24.3276 26.1274 23.9338 25.8796C23.9063 25.8704 23.6864 25.8428 23.4666 25.9622C23.3567 26.0264 23.2743 26.1091 23.2102 26.1641C23.1552 26.2192 23.1277 26.2468 23.1002 26.2376C23.0911 26.2376 23.0728 26.2192 23.0728 26.2009C23.0453 26.1182 23.0453 25.8979 23.1827 25.6409C23.2743 25.4848 23.3659 25.3838 23.4025 25.3563C23.3567 25.2553 23.0819 24.5576 23.4391 23.7956C23.6773 23.2815 24.3184 22.9969 24.7947 23.1989C25.2802 23.4009 25.4267 23.7681 25.4084 24.0251C25.3901 24.2363 25.3168 24.4107 25.2161 24.4841C25.1611 24.5209 25.1062 24.53 25.0604 24.5117C24.9962 24.4933 24.9962 24.4199 24.9962 24.3373C24.9871 24.1904 24.9779 23.9884 24.7123 23.8507C24.5749 23.7773 24.4192 23.7681 24.2818 23.8232C24.1811 23.8691 24.0437 23.9609 23.9704 24.1812C23.8696 24.475 23.8788 24.7596 24.007 24.9982C24.1627 25.292 24.4742 25.5032 24.8955 25.6041C25.5183 25.751 26.1687 25.292 26.3793 24.5392C26.4434 24.3189 26.4709 24.0527 26.3885 23.7773C26.2236 23.2264 25.8481 22.7215 24.9413 22.2809C24.6299 22.134 23.9887 21.8494 23.7414 21.73C23.8788 21.3353 23.8971 21.2068 23.9429 21.0691C24.0253 20.9314 24.2635 20.7202 24.4833 20.6651C24.7489 20.6009 25.0512 20.7386 25.042 20.7845C25.0329 20.8304 24.694 20.913 24.5016 21.3628C24.5749 21.3904 25.2161 21.574 25.7656 21.932C26.6907 22.5287 26.9472 23.1714 27.0205 23.4468C27.167 23.9058 27.1396 24.3373 27.0388 24.6861ZM18.0717 9.97921C17.513 9.46511 17.0642 9.32741 17.0642 9.32741V8.35429C17.3298 8.48282 17.9435 8.81331 18.3007 9.10708C18.6488 9.39167 18.9144 9.68544 19.125 9.92413L18.9785 10.9064C18.7312 10.631 18.4015 10.2822 18.0717 9.97921ZM17.3664 11.751C17.2016 10.6402 17.2748 10.1077 17.2748 10.1077C17.5221 10.1995 17.9435 10.6127 18.09 10.7687C18.09 10.7687 18.0626 10.9156 18.1633 11.6041C18.2457 12.1182 18.3923 12.6048 18.4564 12.7976L17.6779 13.1648C17.6046 12.9169 17.4489 12.3569 17.3664 11.751ZM17.9618 18.4618C18.0534 19.2055 18.6671 19.9123 19.5372 19.8114C19.9128 19.7654 20.1692 19.6002 20.3524 19.4074L20.2883 19.3615L20.3066 19.3432C20.1875 19.233 19.7845 18.8474 19.4456 18.4251C19.125 18.012 18.9602 17.7825 18.9327 17.7366L18.8411 17.6081C18.8503 17.5989 18.9602 17.5254 19.2808 17.5346C19.638 17.553 19.986 17.8284 20.0776 17.911C20.0776 17.911 20.2425 18.0946 20.7737 18.6546C21.4057 19.3156 21.8637 19.6277 21.937 19.6828C21.937 19.8756 21.882 20.2428 21.8179 20.4999C21.5248 20.3438 21.1493 20.0225 20.9661 19.8756C20.9386 19.8573 20.9203 19.8389 20.902 19.8205C20.673 20.0959 20.3249 20.3805 19.812 20.5182C19.6929 20.5458 19.5647 20.5641 19.4365 20.5641C18.3007 20.5366 17.5496 19.692 17.3573 18.8566C17.284 18.5445 17.3115 18.1589 17.3298 17.8835C17.339 17.6448 17.3481 17.4428 17.3023 17.2868C17.2474 17.1123 17.1558 17.0022 17.1008 16.9287C17.0459 16.8553 17.0092 16.8094 17.0459 16.7635C17.11 16.69 17.3023 16.7359 17.4855 16.8553C17.6046 16.9379 17.6504 17.0205 17.6687 17.0756C17.7786 16.9104 18.3099 16.1943 19.2075 16.1576C19.5189 16.1484 19.7937 16.2127 20.0044 16.3504C20.1784 16.4605 20.2975 16.6166 20.3433 16.7727C20.3799 16.9012 20.3799 17.0022 20.2975 17.0481C20.2517 17.0664 20.1601 17.0297 20.0227 16.9654C19.8303 16.8736 19.5372 16.7727 19.18 16.8094C18.8961 16.8461 18.493 17.0389 18.2274 17.3969C18.0076 17.6999 17.916 18.0671 17.9618 18.4618ZM11.2937 26.5222C10.1763 26.715 8.04213 26.412 8.04213 26.412L6.94299 22.8592C6.94299 22.8592 8.07876 23.9333 8.68329 24.4107C9.27865 24.8881 9.83737 25.1451 10.6892 25.1451C11.541 25.1451 12.1181 24.9248 12.7409 24.2638C13.3638 23.5936 13.6019 22.7307 13.7576 21.7209C13.8675 20.9864 13.8217 18.9576 13.8217 18.4894L13.9774 7.47298C13.9774 7.47298 14.0507 5.09527 13.8858 4.49855C13.7118 3.90183 13.3546 3.46117 13.1439 3.24085C12.6676 2.74511 11.6509 2.57986 11.6509 2.57986C11.3578 2.53396 11.2937 2.38708 11.3212 2.24019C11.3487 2.02904 11.5319 1.99232 11.5319 1.99232L18.7037 2.01068C18.7037 2.01068 18.8777 2.02904 18.9144 2.24019C18.9327 2.38708 18.8777 2.52478 18.5846 2.57986C18.5846 2.57986 17.5771 2.74511 17.0917 3.24085C16.8718 3.47036 16.5146 3.90183 16.3497 4.49855C16.1757 5.09527 16.2581 7.47298 16.2581 7.47298V18.5169C16.2581 18.5169 16.2856 20.6468 16.0108 21.7668C15.8185 22.5471 15.3788 24.0802 14.1973 25.1543C13.1256 26.1091 12.3013 26.3569 11.2937 26.5222ZM6.14612 24.5759C5.75227 25.4022 5.10195 26.1366 4.98287 26.0173C4.88212 25.9163 5.01035 25.8337 5.07447 25.5858C5.13858 25.3379 5.1569 25.2828 5.1569 25.2828C5.1569 25.2828 4.98287 25.5307 4.36003 25.9255C3.73719 26.311 3.62728 26.3477 3.51736 26.1917C3.45325 26.0907 3.60896 25.9805 3.75551 25.7235C3.90206 25.4664 3.85626 25.4848 3.85626 25.4848C3.85626 25.4848 3.32501 25.4389 2.89452 25.2461C2.45487 25.0533 1.9969 24.6035 2.01521 24.5117C2.03353 24.3923 2.20756 24.3281 2.5373 24.1628C2.88536 23.9884 3.13267 23.7589 3.13267 23.7589C3.13267 23.7589 2.89452 23.7038 2.76629 23.6396C2.55562 23.5386 2.34495 23.4376 2.48235 23.3091C2.59226 23.1989 3.16014 23.5753 4.01197 22.7674C4.76305 22.0514 4.77221 20.9956 4.77221 20.9956C4.77221 20.9956 5.13858 22.2166 4.65313 23.1989C4.04861 24.4015 2.93116 24.4107 3.05023 24.6586C3.20594 24.9707 4.57986 24.6861 5.16606 23.254C5.66067 22.0514 5.13858 20.5182 4.76305 19.6186C4.65313 19.3615 4.51574 19.0127 4.41499 18.7373C4.76305 18.8933 5.03783 18.9668 5.32177 19.0035C5.33093 19.0035 5.36757 19.0769 5.36757 19.0769C5.69731 19.6094 6.2194 19.8022 6.49418 19.9032C6.7598 20.0041 7.03459 20.05 7.31853 20.05C7.56583 20.05 7.80398 20.0133 8.03297 19.9215C8.17952 19.8664 8.32607 19.7838 8.43598 19.6736C8.76572 19.3156 8.84816 18.214 9.00387 18.1313C9.07714 18.0946 9.24201 18.3609 9.30613 18.572C9.37024 18.774 9.34277 18.9851 9.46184 19.031C9.55343 19.0677 9.60839 18.9668 9.79158 18.7464C10.0572 18.4343 10.0206 18.3058 10.1488 18.3609C10.277 18.4159 10.1396 19.0953 10.0755 19.4625C10.0114 19.8389 9.82822 20.3805 9.82822 20.3805C9.82822 20.3805 10.2679 20.0868 10.68 19.9032C11.8341 19.3799 12.2829 19.5451 12.2921 19.6828C12.3013 19.8205 12.0265 19.8481 11.7242 20.2061C11.5044 20.4632 11.5593 20.5274 11.5593 20.5274C11.5593 20.5274 11.7334 20.5366 12.2188 20.3897C12.5577 20.2887 12.86 20.1327 12.9516 20.2795C13.0523 20.4264 12.6035 21.0232 11.9166 21.5097C11.2296 21.9871 10.6617 22.1707 10.6617 22.1707C10.6617 22.1707 10.79 22.3084 11.138 22.3727C11.4769 22.4369 11.6143 22.3818 11.6509 22.4828C11.6876 22.6205 11.312 22.7307 10.6617 22.795C9.74578 22.8868 9.26949 22.492 9.26949 22.492C9.26949 22.492 9.38856 22.8225 9.25117 23.1622C9.11378 23.5018 9.07714 23.8232 8.94891 23.7956C8.81152 23.7773 8.97639 23.4559 8.71992 23.1346C8.44514 22.795 8.13372 22.7215 7.65743 22.3543C7.19946 21.9963 7.18114 21.7209 7.18114 21.7209C7.18114 21.7209 7.97801 22.0238 9.28781 21.8127C10.5518 21.6107 10.9365 21.2343 10.8449 21.0966C10.7625 20.9681 10.5518 21.1333 9.95645 21.271C9.26033 21.4271 8.32607 21.3904 7.28189 21.2068C6.91551 21.1425 6.4209 20.9681 5.96293 20.6743C6.13696 21.0232 6.43006 21.6566 6.49418 22.1064C6.64073 22.8776 6.53998 23.7497 6.14612 24.5759ZM5.34009 13.2658C5.39505 12.9169 5.5874 12.5589 5.70647 12.4028C6.16444 12.3202 6.45754 12.5772 6.49418 12.614C6.24688 13.1005 6.08201 13.633 5.94461 14.1654C5.77974 14.092 5.5416 13.8625 5.34009 13.2658ZM5.45 16.8828C5.21186 16.8645 4.6165 16.4605 4.57986 16.3504C4.57986 16.1392 4.63481 15.671 4.71725 15.3956C5.01951 15.9189 5.51412 16.1484 5.51412 16.1484C5.42253 16.4972 5.45 16.8828 5.45 16.8828ZM2.99527 12.2559C3.05939 12.0907 3.10519 11.9713 3.15099 11.8704C3.25174 11.65 3.3067 11.5123 3.32501 11.2002C3.35249 10.8422 3.24258 10.5668 3.1693 10.4933C3.2609 10.5025 3.54484 10.6218 3.65475 10.8605C3.74635 11.0533 3.88374 11.5582 3.86542 11.6409C3.85626 11.6592 3.87458 11.6684 3.87458 11.6684C3.8929 11.6776 3.91122 11.6684 3.97533 11.6225C4.16768 11.4756 4.75389 11.035 5.77974 11.035H5.7889C7.68491 11.035 8.51842 12.7976 8.52758 12.8159V12.8251H8.53673C8.54589 12.8251 8.7932 12.8986 9.29697 12.6782C9.49848 12.5956 9.61755 12.4854 9.72746 12.3845C9.91981 12.2192 10.0847 12.0723 10.5518 12.054C11.0189 12.0356 11.367 12.3018 11.4311 12.4854C11.4494 12.5313 11.4494 12.5864 11.3945 12.6323C11.3212 12.6782 11.312 12.6782 11.2662 12.6507C11.2021 12.6231 11.0922 12.5681 10.7442 12.6231C10.4511 12.6691 10.3228 12.9353 10.1763 13.2199C10.0206 13.5228 9.86485 13.8441 9.49848 13.9451C9.16874 14.0369 8.76572 13.8074 8.7016 13.6881C8.68329 13.6513 8.65581 13.6146 8.61001 13.6238C8.57337 13.633 8.56421 13.6789 8.56421 13.6972C8.56421 13.6972 8.55505 13.991 8.37187 14.4959C8.207 14.9641 7.4376 16.0841 5.93545 15.671C5.01035 15.4232 4.65313 14.551 4.68977 14.0186C4.69893 13.8441 4.76305 13.7248 4.83632 13.7156C4.90044 13.7064 4.96455 13.7523 4.97371 13.8074C5.04699 14.0094 5.1111 14.2022 5.22102 14.3766C5.36757 14.6153 5.65151 14.8907 5.97209 14.9641C6.72317 15.1294 7.18114 14.7438 7.26357 14.6704C7.54752 14.4041 7.70323 13.9635 7.67575 13.4861C7.63911 12.8802 7.31853 12.4946 7.06207 12.2743C6.72317 11.9989 6.29267 11.8336 5.87134 11.8245C5.86218 11.8245 5.85302 11.8245 5.8347 11.8245C5.28513 11.8245 4.72641 12.0448 4.29591 12.4395C3.74635 12.9353 3.42577 13.6605 3.36165 14.5602C3.3067 15.3222 3.61812 16.1759 4.17684 16.791C4.6165 17.2684 5.14774 17.5254 5.69731 17.5346C5.70647 17.5346 5.71563 17.5346 5.72479 17.5346C7.15366 17.5346 8.07876 16.6533 9.05882 15.7169C9.97477 14.8448 10.9182 13.9359 12.402 13.5228C12.5119 13.4953 13.0249 13.4402 13.1348 13.4402L13.1073 14.2481C12.2738 14.4041 11.1197 14.9366 11.1747 15.515C11.2296 16.0841 11.596 16.3963 11.77 16.5432C11.8067 16.5799 11.8525 16.6074 11.8525 16.6166C11.8525 16.6166 11.8341 16.635 11.7792 16.6533C11.6143 16.7084 11.2571 16.7543 10.964 16.6166C10.5793 16.4422 10.2038 15.8087 10.2038 15.8087L10.1854 15.7812L10.1671 15.7995C10.158 15.8087 9.02219 17.0022 8.4085 17.452C8.00549 17.7458 6.95215 18.5261 5.69731 18.4618C4.83632 18.4251 4.03945 18.0304 3.44409 17.351C2.8304 16.635 2.49151 15.6618 2.50982 14.5877C2.54646 13.6238 2.65638 13.174 2.99527 12.2559ZM5.75227 2.01986C5.76143 2.01986 6.64073 1.94642 7.4834 2.28609C7.84978 2.43298 8.1154 2.62576 8.35355 2.79101H8.36271C8.71076 3.03888 8.98555 3.23167 9.37024 3.11232C9.81906 2.97462 9.90149 2.62576 9.95645 2.39626C9.97477 2.34117 9.99309 2.24019 10.0114 2.23101C10.0297 2.22183 10.1122 2.24937 10.1854 2.35953C10.2679 2.48806 10.4877 2.95626 9.90149 3.80085C9.57175 4.26904 9.04966 4.37003 9.03134 4.37003C9.01303 4.37003 8.98555 4.38839 8.97639 4.40675C8.96723 4.42511 8.95807 4.45265 8.96723 4.47101C8.99471 4.59036 9.00387 4.67298 9.01303 4.76478C9.03134 5.05855 9.00387 5.33396 8.81152 5.81134C8.50926 6.52741 7.91389 6.97724 7.11702 7.06905C6.34763 7.16085 5.72479 6.72937 5.50496 6.252C5.30345 5.81134 5.29429 5.29724 5.47748 4.83823C5.52328 4.72806 5.59656 4.63626 5.66983 4.6179C5.69731 4.60872 5.72479 4.6179 5.75227 4.63626C5.81638 4.69134 5.81638 4.81986 5.82554 4.99429C5.8347 5.16872 5.84386 5.37987 5.91714 5.61855C6.03621 5.97659 6.4209 6.30708 6.92467 6.26118C7.68491 6.18773 8.14288 5.65527 8.1612 4.81986C8.17952 3.94773 7.62079 2.91035 5.99041 2.86445C5.97209 2.86445 5.94461 2.86445 5.92629 2.86445C5.31261 2.86445 4.74473 3.10314 4.29591 3.55298C3.76467 4.08544 3.43493 4.88413 3.42577 5.65527C3.39829 7.15167 4.17684 8.01462 4.82716 8.48282C5.48664 8.95102 6.52166 8.97856 7.81314 8.57462C8.25279 8.43692 8.72908 8.23495 9.18706 8.04216L9.1779 8.0238L9.19621 8.04216C9.58091 7.87692 9.98393 7.71167 10.3686 7.58315C10.5976 7.50052 10.8358 7.43626 11.0831 7.39954L11.1197 7.39036L11.0922 7.36282C10.9915 7.23429 10.8632 7.05987 10.7075 6.83036C10.3778 6.36216 10.277 5.50839 10.3869 5.32478C10.4327 5.24216 10.4877 5.23298 10.506 5.23298C10.5243 5.23298 10.5335 5.24216 10.5427 5.24216C10.5427 5.25134 10.5427 5.29724 10.5427 5.30642C10.5427 5.35232 10.5427 5.54511 10.6342 5.65527C10.7533 5.79298 10.909 5.82052 10.9823 5.7838C11.0098 5.77462 11.0281 5.75626 11.0281 5.72872C11.0464 5.65528 11.1655 5.27888 11.367 4.98511C11.541 4.73724 12.0631 4.35167 12.3654 4.35167C12.3745 4.35167 12.3837 4.35167 12.3929 4.35167C12.4753 4.36085 12.5303 4.39757 12.5669 4.46183C12.6035 4.54445 12.4753 4.68216 12.4387 4.72806C12.173 5.01265 11.8525 5.42577 11.8341 6.12347C11.825 6.45396 11.9166 6.72019 12.1089 6.93134C12.4753 7.3261 13.1073 7.372 13.2264 7.372V8.08806C13.208 8.08806 13.1897 8.08806 13.1714 8.08806C12.5394 8.08806 12.0448 8.84085 11.8799 9.62118C11.7425 10.2546 11.8616 11.1543 11.9166 11.4113C11.9624 11.6592 11.9257 11.7143 11.9074 11.7235C11.8982 11.7327 11.8891 11.7327 11.8616 11.7327C11.7334 11.7051 11.4861 11.4297 11.2205 10.989C11.0189 10.6677 11.0739 10.273 11.1105 10.0618C11.1289 9.94249 11.138 9.88741 11.0922 9.85987L11.0831 9.85069C11.0556 9.83233 11.0189 9.80479 10.9731 9.80479C10.9731 9.80479 10.9731 9.80479 10.964 9.80479C10.8999 9.80479 10.8358 9.84151 10.7716 9.92413C10.7167 9.98839 10.68 10.0343 10.6617 10.071C10.6342 10.1169 10.6342 10.1169 10.5427 10.0894C10.5427 10.0894 10.5335 10.0894 10.5243 10.071C10.4694 9.91495 10.6434 9.36413 10.8632 8.97856C11.0464 8.66642 11.2296 8.4461 11.5044 8.23495L11.5868 8.17069L11.4861 8.18905C10.5793 8.39101 9.67251 8.75823 9.10462 9.13462C8.39018 9.62118 7.81314 10.1904 7.38265 10.8422C7.30021 10.7963 7.23609 10.7595 7.04375 10.6677C6.92467 10.6127 6.75064 10.5576 6.62241 10.5392C6.8056 10.3005 7.0987 9.97003 7.22694 9.84151L7.23609 9.83233C7.25441 9.80479 7.25441 9.76806 7.22694 9.74052C7.20862 9.71298 7.17198 9.7038 7.13534 9.71298C7.0987 9.72216 6.29267 10.0343 4.8638 9.50184C3.70971 9.07036 2.50067 7.81265 2.56478 5.58183C2.6289 3.30511 4.21348 2.15757 5.75227 2.01986ZM0.769531 28.3766H29.0356V0.0093689H0.769531V28.3766Z" fill="#990000"/>
</svg>
