<svg width="248" height="124" viewBox="0 0 248 124" fill="none" xmlns="http://www.w3.org/2000/svg">
<rect y="56" width="248" height="68" fill="black"/>
<path d="M43.5163 69H17V94.1927H43.5163V69Z" fill="white"/>
<path d="M56.6199 69H45.4252V94.1927H56.6199V69Z" fill="white"/>
<path d="M35.2108 96.1003H56.6371V109H35.2108V96.1003Z" fill="white"/>
<path d="M33.3019 96.1003H17V109H33.3019V96.1003Z" fill="white"/>
<path d="M142.514 79.3507C142.514 83.0436 145.248 84.9334 148.154 86.9275L148.157 86.9299C151.372 89.1481 154.689 91.4368 154.706 96.4116C154.706 101.388 151.164 104.855 146.108 104.855C144.612 104.855 143.563 104.63 142.634 104.422L142.552 104.403C141.808 104.236 141.089 104.075 140.227 104.075C139.969 104.075 139.866 104.075 139.625 104.11L139.487 104.127L139.522 103.988C139.556 103.798 139.556 103.312 139.556 102.948C139.556 102.48 139.505 102.047 139.453 101.596C139.402 101.127 139.35 100.642 139.35 100.105C139.35 99.7403 139.384 98.5094 139.849 97.4691L139.866 97.4169H140.244L140.227 97.6425C140.193 97.9546 140.158 98.2492 140.158 98.5441C140.158 101.873 143.339 103.624 146.486 103.624C149.203 103.624 151.955 101.943 151.955 98.1798C151.955 94.2094 149.083 92.2503 146.056 90.1868L146.044 90.1784C142.901 88.0316 139.677 85.829 139.677 81.2057C139.677 76.8192 142.824 73.75 147.329 73.75C148.636 73.75 149.685 73.9581 150.613 74.1315C150.901 74.1853 151.184 74.2391 151.463 74.2849C151.587 74.3053 151.711 74.324 151.834 74.3407C151.935 74.3543 152.037 74.3663 152.138 74.3762C152.347 74.3969 152.555 74.4089 152.763 74.4089C153.021 74.4089 153.21 74.4089 153.451 74.3742L153.571 74.3571L153.554 74.4783C153.485 75.2758 153.434 76.0041 153.434 77.1831C153.434 77.7902 153.434 78.8305 153.468 79.4372V79.5412H153.038L153.021 79.4547C152.436 76.4202 150.493 74.8079 147.398 74.8079C143.804 74.8079 142.514 77.1484 142.514 79.3507Z" fill="white"/>
<path fill-rule="evenodd" clip-rule="evenodd" d="M193.5 73.7676C183.991 73.7676 178.299 81.7777 178.299 89.5279C178.299 97.0701 183.853 104.873 193.174 104.873C201.651 104.873 208.289 98.0758 208.289 89.4068C208.289 80.6333 201.789 73.7676 193.5 73.7676ZM204.299 89.6495C204.299 98.3185 200.035 103.711 193.174 103.711C186.381 103.711 182.34 98.3532 182.34 89.4068C182.34 84.6559 183.509 80.8067 185.728 78.2581C187.619 76.0906 190.267 74.8944 193.174 74.8944C198.298 74.8773 204.299 78.7436 204.299 89.6495Z" fill="white"/>
<path fill-rule="evenodd" clip-rule="evenodd" d="M108.37 94.4191L108.528 94.7029C110.736 98.6541 113.459 103.528 115.912 104.352L115.98 104.37V104.786L115.894 104.803C115.499 104.838 115.327 104.838 114.811 104.838C110.34 104.665 109.773 104.11 104.803 94.712C104.773 94.6515 104.737 94.5849 104.697 94.5107L104.692 94.5036C104.641 94.4103 104.585 94.3063 104.528 94.1919C103.978 93.1515 103.152 91.5915 102.413 90.8632C101.794 90.9497 101.243 91.0019 100.813 91.0019H98.1825V100.694C98.1825 104.127 98.7843 104.231 100.229 104.456L100.315 104.474V104.873H100.212C99.6785 104.838 98.2685 104.786 96.5145 104.786C94.8808 104.786 93.6771 104.838 92.8173 104.873H92.7141V104.474L92.8001 104.456L92.818 104.453C94.2496 104.213 94.8464 104.112 94.8464 100.694V77.9632C94.8464 75.1894 94.4681 74.4436 92.8861 74.2008L92.8001 74.1837V73.7847H92.9033C94.3477 73.8716 95.1216 73.8716 96.9788 73.8716C97.4321 73.8716 98.0124 73.8565 98.6015 73.8413C98.9062 73.8333 99.2134 73.8254 99.5066 73.8194C100.246 73.8022 100.968 73.7847 101.398 73.7847C107.554 73.7847 111.544 77.1484 111.544 82.3501C111.544 85.8521 109.343 88.7479 105.663 90.1003C106.331 90.7743 107.275 92.4628 108.37 94.4191ZM100.143 89.9269C107.004 89.9269 107.795 85.9215 107.795 82.9049C107.795 78.0847 105.198 74.9637 101.175 74.9637C100.246 74.9637 99.4378 75.0331 98.1997 75.3627V89.9269H100.143Z" fill="white"/>
<path fill-rule="evenodd" clip-rule="evenodd" d="M233.791 104.37C231.317 103.51 228.607 98.6581 226.398 94.7045L226.345 94.608L226.261 94.4589C225.096 92.3783 224.162 90.7098 223.507 90.0828C227.084 88.7132 229.216 85.8521 229.216 82.4019C229.216 77.2003 225.244 73.8541 219.088 73.8541C218.711 73.8541 218.123 73.8676 217.474 73.8828L217.196 73.8887C216.903 73.8947 216.596 73.9027 216.291 73.9107L216.258 73.9119L215.461 73.931C215.174 73.937 214.904 73.941 214.669 73.941C212.811 73.941 212.038 73.941 210.593 73.8541H210.49V74.2531L210.576 74.2702C212.141 74.5129 212.536 75.2587 212.536 78.0154V100.711C212.536 104.127 211.934 104.231 210.49 104.456L210.404 104.474V104.873H210.507C211.367 104.838 212.553 104.786 214.204 104.786C215.958 104.786 217.368 104.838 217.901 104.873H218.005V104.474L217.919 104.456C216.474 104.231 215.872 104.127 215.872 100.711V91.0538H218.486C218.968 91.0538 219.569 91.0019 220.292 90.8979C221.031 91.6261 221.856 93.1862 222.407 94.2266C222.51 94.4346 222.613 94.6255 222.699 94.7643C227.669 104.127 228.219 104.699 232.69 104.873L233.014 104.872L233.18 104.869C233.377 104.864 233.529 104.851 233.756 104.82L233.842 104.803V104.387L233.791 104.37ZM225.468 82.9567C225.468 85.9561 224.677 89.9616 217.833 89.9616H215.889V75.4321C217.128 75.1025 217.97 75.0331 218.847 75.0331C222.871 75.0331 225.468 78.1365 225.468 82.9567Z" fill="white"/>
<path d="M115.327 73.75H115.413C124.836 73.9756 135.326 73.8022 137.321 73.7329H137.458L137.424 73.8716C137.063 75.0331 136.581 77.0791 136.461 77.738L136.444 77.8248H135.979L136.014 77.7033C136.027 77.6487 136.044 77.5753 136.058 77.4936C136.081 77.3677 136.1 77.2226 136.1 77.0966C136.1 75.9176 135.102 75.6226 127.605 75.6226V100.694C127.605 104.111 128.201 104.213 129.615 104.453L129.634 104.456L129.72 104.474V104.873H129.617C129.084 104.838 127.657 104.786 125.954 104.786C124.372 104.786 123.168 104.838 122.291 104.873H122.188V104.474L122.274 104.456C123.701 104.231 124.303 104.127 124.303 100.694V75.6402C117.786 75.6402 115.808 75.6402 114.57 78.2928L114.536 78.345H114.14L114.158 78.2234C114.312 77.4434 114.519 76.6976 114.742 75.9176C114.876 75.464 115.01 74.9932 115.143 74.4803C115.199 74.2678 115.254 74.0482 115.31 73.8194L115.327 73.75Z" fill="white"/>
<path d="M179.142 73.7847H179.004C176.992 73.8194 166.52 73.9928 157.096 73.7847H157.01L156.993 73.8541C156.804 74.6345 156.615 75.2934 156.426 75.9347C156.202 76.7148 155.996 77.4605 155.841 78.2406L155.824 78.3622H156.219L156.254 78.3099C157.492 75.6748 159.469 75.6573 165.987 75.6573V100.711C165.987 104.128 165.39 104.23 163.977 104.47L163.958 104.474L163.872 104.491V104.89H163.975L164.131 104.884C164.993 104.849 166.148 104.803 167.638 104.803C169.34 104.803 170.767 104.855 171.3 104.89H171.403V104.491L171.318 104.474C169.89 104.248 169.288 104.144 169.288 100.711V75.6402C176.786 75.6402 177.783 75.9347 177.783 77.1138C177.783 77.3218 177.732 77.5817 177.697 77.7204L177.663 77.842H178.127L178.144 77.7551C178.265 77.0962 178.746 75.0506 179.107 73.8887L179.142 73.7847Z" fill="white"/>
<path fill-rule="evenodd" clip-rule="evenodd" d="M89.2578 103.295C89.7049 104.144 90.1348 104.335 91.2181 104.474L91.3557 104.439V104.838H91.2526C90.7195 104.803 89.3094 104.751 87.6414 104.751C86.4033 104.751 85.1995 104.786 83.9442 104.838H83.841V104.439H83.927C85.0964 104.37 85.6638 103.919 85.6638 103.069C85.6638 103.023 85.6561 102.969 85.6459 102.912L85.6294 102.827L82.0011 93.1173H76.1716C74.6755 93.1173 73.2483 93.1173 71.821 93.1519L69.3447 99.8619C68.9836 100.85 68.6397 101.873 68.6397 102.671C68.6397 103.711 69.2244 104.283 70.4625 104.422L70.5485 104.439V104.838H70.4453C69.895 104.803 68.399 104.751 66.5762 104.751C65.4068 104.751 64.8222 104.786 64.1688 104.821L63.6357 104.838V104.456L63.7044 104.439C65.8367 103.936 66.4558 103.399 68.2098 98.7346L77.6333 73.5248H78.1835L78.2007 73.5942L89.2578 103.295ZM76.12 91.7302H81.4164L76.8078 79.4025L72.3025 91.6955C73.5922 91.7302 74.8131 91.7302 76.12 91.7302Z" fill="white"/>
<path d="M39.5163 0H13V25.1927H39.5163V0Z" fill="black"/>
<path d="M52.6199 0H41.4252V25.1927H52.6199V0Z" fill="black"/>
<path d="M31.2108 27.1003H52.6371V40H31.2108V27.1003Z" fill="black"/>
<path d="M29.3019 27.1003H13V40H29.3019V27.1003Z" fill="black"/>
<path d="M138.514 10.3507C138.514 14.0436 141.248 15.9334 144.154 17.9275L144.157 17.9299C147.372 20.1481 150.689 22.4368 150.706 27.4116C150.706 32.3877 147.164 35.855 142.108 35.855C140.612 35.855 139.563 35.6298 138.634 35.4218L138.552 35.403C137.808 35.236 137.089 35.075 136.227 35.075C135.969 35.075 135.866 35.075 135.625 35.1097L135.487 35.1272L135.522 34.9885C135.556 34.7976 135.556 34.3121 135.556 33.9482C135.556 33.4798 135.505 33.0465 135.453 32.5957C135.402 32.1274 135.35 31.6419 135.35 31.1046C135.35 30.7403 135.384 29.5094 135.849 28.4691L135.866 28.4169H136.244L136.227 28.6425C136.193 28.9546 136.158 29.2492 136.158 29.5441C136.158 32.8732 139.339 34.6242 142.486 34.6242C145.203 34.6242 147.955 32.9425 147.955 29.1798C147.955 25.2094 145.083 23.2503 142.056 21.1868L142.044 21.1784C138.901 19.0316 135.677 16.829 135.677 12.2057C135.677 7.8192 138.824 4.75003 143.329 4.75003C144.636 4.75003 145.685 4.9581 146.613 5.13149C146.901 5.1853 147.184 5.23911 147.463 5.28494C147.587 5.30527 147.711 5.32401 147.834 5.34075C147.935 5.3543 148.037 5.36626 148.138 5.37622C148.347 5.39695 148.555 5.40891 148.763 5.40891C149.021 5.40891 149.21 5.40891 149.451 5.37423L149.571 5.35709L149.554 5.47826C149.485 6.27585 149.434 7.00408 149.434 8.18311C149.434 8.79017 149.434 9.8305 149.468 10.4372V10.5412H149.038L149.021 10.4547C148.436 7.42021 146.493 5.8079 143.398 5.8079C139.804 5.8079 138.514 8.14844 138.514 10.3507Z" fill="black"/>
<path fill-rule="evenodd" clip-rule="evenodd" d="M189.5 4.76757C179.991 4.76757 174.299 12.7777 174.299 20.5279C174.299 28.0701 179.853 35.8726 189.174 35.8726C197.651 35.8726 204.289 29.0758 204.289 20.4068C204.289 11.6333 197.789 4.76757 189.5 4.76757ZM200.299 20.6495C200.299 29.3185 196.035 34.7107 189.174 34.7107C182.381 34.7107 178.34 29.3532 178.34 20.4068C178.34 15.6559 179.509 11.8067 181.728 9.25812C183.619 7.09057 186.267 5.89439 189.174 5.89439C194.298 5.87725 200.299 9.7436 200.299 20.6495Z" fill="black"/>
<path fill-rule="evenodd" clip-rule="evenodd" d="M104.37 25.4191L104.528 25.7029C106.736 29.6541 109.459 34.5281 111.912 35.3524L111.98 35.3695V35.7857L111.894 35.8032C111.499 35.8379 111.327 35.8379 110.811 35.8379C106.34 35.6645 105.773 35.1097 100.803 25.712C100.773 25.6515 100.737 25.5849 100.697 25.5107L100.692 25.5036C100.641 25.4103 100.585 25.3063 100.528 25.1919C99.9776 24.1515 99.1521 22.5915 98.4127 21.8632C97.7937 21.9497 97.2434 22.0019 96.8135 22.0019H94.1825V31.6937C94.1825 35.1268 94.7843 35.2308 96.2288 35.4564L96.3148 35.4736V35.8726H96.2116C95.6785 35.8379 94.2685 35.7857 92.5145 35.7857C90.8808 35.7857 89.6771 35.8379 88.8173 35.8726H88.7141V35.4736L88.8001 35.4564L88.818 35.4533C90.2496 35.2129 90.8464 35.1125 90.8464 31.6937V8.96316C90.8464 6.18935 90.4681 5.44358 88.8861 5.20084L88.8001 5.1837V4.78471H88.9033C90.3477 4.8716 91.1216 4.8716 92.9788 4.8716C93.4321 4.8716 94.0124 4.85646 94.6015 4.84131C94.9062 4.83334 95.2134 4.82537 95.5066 4.81939C96.246 4.80225 96.9682 4.78471 97.3981 4.78471C103.554 4.78471 107.544 8.14844 107.544 13.3501C107.544 16.8521 105.343 19.7479 101.663 21.1003C102.331 21.7743 103.275 23.4628 104.37 25.4191ZM96.1428 20.9269C103.004 20.9269 103.795 16.9215 103.795 13.9049C103.795 9.08473 101.198 5.96375 97.1746 5.96375C96.246 5.96375 95.4378 6.0331 94.1997 6.36274V20.9269H96.1428Z" fill="black"/>
<path fill-rule="evenodd" clip-rule="evenodd" d="M229.791 35.3695C227.317 34.5098 224.607 29.6581 222.398 25.7045L222.345 25.608L222.261 25.4589C221.096 23.3783 220.162 21.7098 219.507 21.0828C223.084 19.7132 225.216 16.8521 225.216 13.4019C225.216 8.20025 221.244 4.85406 215.088 4.85406C214.711 4.85406 214.123 4.86762 213.474 4.88276L213.196 4.88874C212.903 4.89472 212.596 4.90269 212.291 4.91067L212.258 4.91186L211.461 4.93099C211.174 4.93697 210.904 4.94096 210.669 4.94096C208.811 4.94096 208.038 4.94096 206.593 4.85406H206.49V5.25306L206.576 5.2702C208.141 5.51294 208.536 6.25871 208.536 9.01538V31.7113C208.536 35.1268 207.934 35.2308 206.49 35.4564L206.404 35.4736V35.8726H206.507C207.367 35.8379 208.553 35.7857 210.204 35.7857C211.958 35.7857 213.368 35.8379 213.901 35.8726H214.005V35.4736L213.919 35.4564C212.474 35.2308 211.872 35.1268 211.872 31.7113V22.0538H214.486C214.968 22.0538 215.569 22.0019 216.292 21.8979C217.031 22.6261 217.856 24.1862 218.407 25.2266C218.51 25.4346 218.613 25.6255 218.699 25.7643C223.669 35.1268 224.219 35.6992 228.69 35.8726L229.014 35.8718L229.18 35.8694C229.377 35.8642 229.529 35.8514 229.756 35.8204L229.842 35.8032V35.3871L229.791 35.3695ZM221.468 13.9567C221.468 16.9561 220.677 20.9616 213.833 20.9616H211.889V6.43209C213.128 6.10246 213.97 6.0331 214.847 6.0331C218.871 6.0331 221.468 9.13655 221.468 13.9567Z" fill="black"/>
<path d="M111.327 4.75003H111.413C120.836 4.97564 131.326 4.80225 133.321 4.73289H133.458L133.424 4.8716C133.063 6.0331 132.581 8.07908 132.461 8.73796L132.444 8.82485H131.979L132.014 8.70328C132.027 8.64867 132.044 8.57533 132.058 8.49362C132.081 8.36766 132.1 8.22257 132.1 8.09662C132.1 6.91758 131.102 6.62262 123.605 6.62262V31.6941C123.605 35.1113 124.201 35.2129 125.615 35.4529L125.634 35.4564L125.72 35.4736V35.8726H125.617C125.084 35.8379 123.657 35.7857 121.954 35.7857C120.372 35.7857 119.168 35.8379 118.291 35.8726H118.188V35.4736L118.274 35.4564C119.701 35.2308 120.303 35.1268 120.303 31.6941V6.64016C113.786 6.64016 111.808 6.64016 110.57 9.2928L110.536 9.34501H110.14L110.158 9.22344C110.312 8.44339 110.519 7.69763 110.742 6.91758C110.876 6.46398 111.01 5.99324 111.143 5.48025C111.199 5.2678 111.254 5.04818 111.31 4.81939L111.327 4.75003Z" fill="black"/>
<path d="M175.142 4.78471H175.004C172.992 4.81939 162.52 4.99278 153.096 4.78471H153.01L152.993 4.85406C152.804 5.63451 152.615 6.29338 152.426 6.93472C152.202 7.71477 151.996 8.46053 151.841 9.24058L151.824 9.36215H152.219L152.254 9.30994C153.492 6.67484 155.469 6.6573 161.987 6.6573V31.7113C161.987 35.1284 161.39 35.23 159.977 35.47L159.958 35.4736L159.872 35.4911V35.8897H159.975L160.131 35.8837C160.993 35.8491 162.148 35.8032 163.638 35.8032C165.34 35.8032 166.767 35.855 167.3 35.8897H167.403V35.4911L167.318 35.4736C165.89 35.2484 165.288 35.1443 165.288 31.7113V6.64016C172.786 6.64016 173.783 6.93472 173.783 8.11376C173.783 8.32182 173.732 8.58171 173.697 8.72042L173.663 8.84199H174.127L174.144 8.75509C174.265 8.09622 174.746 6.05064 175.107 4.88874L175.142 4.78471Z" fill="black"/>
<path fill-rule="evenodd" clip-rule="evenodd" d="M85.2578 34.2949C85.7049 35.1443 86.1348 35.3353 87.2181 35.474L87.3557 35.4393V35.8379H87.2526C86.7195 35.8032 85.3094 35.7514 83.6414 35.7514C82.4033 35.7514 81.1995 35.7861 79.9442 35.8379H79.841V35.4393H79.927C81.0964 35.3699 81.6638 34.9191 81.6638 34.0693C81.6638 34.0231 81.6561 33.9689 81.6459 33.9119L81.6294 33.8266L78.0011 24.1173H72.1716C70.6755 24.1173 69.2483 24.1173 67.821 24.1519L65.3447 30.8619C64.9836 31.85 64.6397 32.8732 64.6397 33.6707C64.6397 34.7111 65.2244 35.2831 66.4625 35.4218L66.5485 35.4393V35.8379H66.4453C65.895 35.8032 64.399 35.7514 62.5762 35.7514C61.4068 35.7514 60.8222 35.7861 60.1688 35.8208L59.6357 35.8379V35.4564L59.7044 35.4393C61.8367 34.9363 62.4558 34.399 64.2098 29.7346L73.6333 4.52483H74.1835L74.2007 4.59418L85.2578 34.2949ZM72.12 22.7302H77.4164L72.8078 10.4025L68.3025 22.6955C69.5922 22.7302 70.8131 22.7302 72.12 22.7302Z" fill="black"/>
</svg>
