<svg width="638" height="262" viewBox="0 0 638 262" fill="none" xmlns="http://www.w3.org/2000/svg">
<rect x="0.527344" y="0.5" width="206.642" height="260.258" stroke="#DE3330"/>
<path fill-rule="evenodd" clip-rule="evenodd" d="M156.633 98.4483C156.67 98.4483 157.878 98.3343 159.011 97.5742C160.558 96.5861 161.275 95.7501 161.011 95.142C160.936 94.952 160.181 94.876 159.426 94.8L159.386 94.7955C158.37 94.682 156.993 94.528 155.727 94.078C153.5 93.2799 151.764 91.7218 150.971 89.8596C150.443 88.6436 150.216 86.7054 152.028 84.6153H152.066L152.405 84.3112L152.424 84.2943C155.142 81.8242 159.2 78.135 159.615 69.5282C159.879 63.9037 157.69 59.9135 156.633 58.0133C156.293 57.4053 156.104 57.0632 156.104 56.8732C156.104 56.4932 156.482 56.2272 157.048 55.8852C157.113 55.8402 157.181 55.794 157.251 55.7461C157.836 55.348 158.593 54.833 159.199 53.985C160.294 52.5029 160.634 51.2868 160.558 50.9068C160.558 50.8688 160.52 50.8308 160.52 50.8308C160.445 50.7928 160.067 50.9828 159.69 51.1728C159.086 51.4768 158.293 51.8569 157.35 52.0849C155.614 52.5409 153.16 52.0469 150.82 51.5148C150.673 51.4725 150.525 51.4419 150.372 51.41C150.249 51.3847 150.123 51.3585 149.99 51.3248C147.536 50.7548 144.554 50.2608 141.308 50.2988C135.345 50.3368 128.588 52.3509 122.964 58.4694C117.491 64.4358 115.302 73.5185 114.811 75.6846L118.246 77.8128C118.548 77.5467 119.567 77.0527 122.096 76.7107C123.568 76.4827 124.889 76.4067 125.833 76.6727C126.55 76.8627 127.041 76.9767 127.116 76.7487C127.456 75.9126 125.569 73.9365 123.946 73.1384C122.36 72.3404 120.586 72.5684 120.02 72.6824C121.266 69.3761 122.964 65.3099 124.587 63.1817C127.192 59.7614 132.891 54.023 142.063 54.3651C151.65 54.7451 155.84 62.2696 155.765 69.5662C155.727 72.4924 154.67 75.5326 152.858 77.8888C150.933 80.397 148.404 81.9551 145.687 82.2211C141.082 82.7151 136.892 79.6749 136.175 75.3046C135.684 72.3024 136.137 69.6802 137.421 68.008C138.44 66.6779 139.949 65.9559 141.799 65.8799C143.233 65.8039 144.101 66.4499 144.592 66.982C145.309 67.742 145.687 68.8441 145.611 69.9462C145.46 72.0743 144.29 72.6824 143.535 73.0624C143.082 73.2904 142.856 73.4424 142.856 73.7085C142.856 74.0125 143.045 74.2785 143.309 74.4685C143.913 74.8866 144.932 74.9246 146.026 74.5445C147.385 74.0885 148.933 72.3024 148.857 68.9201C148.782 65.5379 145.762 62.4216 142.592 62.1936C137.447 61.7866 134.306 65.3419 134.109 65.5652C134.103 65.5713 134.1 65.5749 134.099 65.5759C134.061 65.6139 134.023 65.6519 133.986 65.6139C133.986 65.6139 133.118 65.1198 131.91 64.9298C130.287 64.7018 129.117 65.1958 128.777 65.5379C128.701 65.5759 128.701 65.6519 128.701 65.6519C128.701 65.7352 128.863 65.8185 129.053 65.9166C129.123 65.9528 129.196 65.991 129.268 66.0319C129.721 66.2599 130.362 66.6019 131.004 67.172C132.325 68.3881 132.627 69.9462 132.627 70.0222V70.0602C132.098 74.2785 132.287 77.8508 135.08 81.651C138.515 86.3634 143.384 86.3254 145.46 86.2874C145.951 86.2874 146.404 86.3254 146.668 86.4014C146.706 86.4394 146.706 86.4394 146.744 86.4394C147.272 86.6294 147.423 87.1995 147.423 87.5035C147.423 87.8075 147.31 88.2635 146.668 88.7576C145.573 89.5936 145.347 90.4297 145.611 92.4058C145.762 93.4699 146.442 94.724 147.159 96.0161C147.201 96.0954 147.245 96.1751 147.288 96.2549C147.968 97.5135 148.68 98.8294 148.857 100.044C149.423 103.731 149.046 105.707 148.819 106.771C148.706 107.227 148.669 107.531 148.744 107.645C148.819 107.721 148.895 107.759 149.046 107.759C149.65 107.759 150.971 106.771 151.801 105.479C152.33 104.643 152.368 103.389 152.368 102.439C152.368 101.717 152.368 101.26 152.556 101.108C152.632 101.07 152.707 101.07 152.783 101.07C154.745 101.488 154.934 105.175 154.821 106.581C154.783 107.227 154.557 107.683 154.368 108.063C154.142 108.519 154.028 108.747 154.293 109.013C154.503 109.26 154.908 109.147 155.297 109.038C155.327 109.03 155.357 109.021 155.387 109.013C155.42 109.002 155.452 108.991 155.484 108.98C155.669 108.916 155.83 108.861 155.991 108.861C156.217 108.861 156.406 108.899 156.519 109.127C156.859 109.811 156.293 111.065 155.236 111.825C155.142 111.882 155.047 111.949 154.953 112.015C154.859 112.082 154.764 112.148 154.67 112.205C153.84 112.775 153.16 113.269 153.273 113.725C153.273 113.763 153.311 113.801 153.5 113.839C154.293 114.029 156.444 113.839 157.916 112.433C159.766 110.685 160.332 108.633 159.992 104.947C159.7 101.454 156.829 98.8505 156.608 98.6503C156.601 98.6435 156.596 98.6395 156.595 98.6383C156.557 98.6003 156.557 98.5623 156.557 98.5243C156.557 98.4863 156.595 98.4483 156.633 98.4483ZM118.397 77.3567C118.322 77.6228 118.246 77.8128 118.246 77.8128L118.397 77.3567ZM153.424 134.703C155.765 134.399 158.52 132.309 159.35 127.406C159.728 125.126 159.124 122.618 157.878 120.642C156.67 118.932 154.934 117.792 153.009 117.374H152.971C150.292 116.728 146.404 117.07 141.95 122.01C141.799 122.162 141.308 122.884 141.006 123.492C140.954 123.333 140.901 123.166 140.845 122.987C140.78 122.781 140.71 122.558 140.629 122.314C140.025 120.49 138.779 117.45 136.25 113.307C134.854 111.027 133.722 109.545 132.702 108.215L132.684 108.191C131.71 106.909 130.848 105.774 130.136 104.377C128.777 101.755 128.513 97.3082 129.003 96.5101C129.079 96.4341 129.117 96.3961 129.192 96.3961C129.758 96.4721 129.872 96.9662 130.06 97.9922C130.287 99.2083 130.664 101.032 132.098 103.465C133.291 105.503 134.173 106.495 135.074 107.51C135.114 107.555 135.154 107.6 135.194 107.645L135.215 107.669C135.963 108.498 136.75 109.369 137.722 110.837C139.949 114.105 140.478 115.626 140.478 115.626L140.629 116.044L140.553 115.588C140.516 115.55 139.61 109.393 140.516 103.047C141 99.7834 142.073 97.1125 142.79 95.3262L142.818 95.256C143.346 93.9639 143.648 93.1659 143.46 92.8619C143.384 92.7099 143.233 92.5958 143.082 92.5958H143.045C142.478 92.5958 141.686 93.4699 140.704 94.61C140.534 94.781 140.374 94.9615 140.214 95.142C140.053 95.3225 139.893 95.5031 139.723 95.6741C138.138 97.3842 137.043 99.2843 136.892 99.5504C136.59 99.4743 134.325 98.8283 134.099 93.9259C133.912 90.6096 134.207 88.8254 134.47 87.2394L134.476 87.1995C134.505 87.0095 134.535 86.8218 134.566 86.6342C134.658 86.0713 134.75 85.5083 134.778 84.8813C134.778 84.6153 134.741 84.4253 134.59 84.3872C134.023 84.2352 132.363 86.3254 131.532 88.1115C131.062 89.0583 130.921 89.8546 130.815 90.447C130.802 90.5204 130.79 90.5907 130.777 90.6577C130.771 90.699 130.764 90.7394 130.758 90.7787C130.694 91.1735 130.647 91.4626 130.475 91.5318C130.438 91.5698 130.362 91.5318 130.287 91.4938C129.796 91.1897 128.966 89.7456 128.739 87.1234C128.664 86.2494 128.664 85.4133 128.664 84.7673V84.7672C128.664 83.7032 128.664 82.9811 128.324 82.7911C128.173 82.7151 127.947 82.7151 127.758 82.8291C127.267 83.1332 126.701 84.0832 126.21 85.4893C125.833 86.5914 125.304 88.4916 125.116 91.2277C124.753 96.2311 125.053 99.7253 125.11 100.395C125.112 100.422 125.114 100.445 125.116 100.462C124.814 100.462 123.115 100.576 121.001 101.26C118.925 101.945 115.076 103.655 115.264 104.605C115.377 105.099 116.132 104.985 117.076 104.833C117.175 104.82 117.277 104.807 117.379 104.793C117.901 104.723 118.459 104.649 118.963 104.681C120.022 104.749 121.111 105.254 121.561 105.462C121.608 105.484 121.648 105.502 121.681 105.517C121.341 105.669 120.096 106.391 118.208 108.177C116.736 109.583 115.076 111.179 115.906 112.357C116.17 112.737 116.812 112.471 117.755 112.015C119.643 111.141 122.738 109.735 126.776 111.293C131.306 113.041 134.023 115.74 136.552 121.212C137.156 122.694 137.647 124.442 138.024 126.38C138.93 131.321 137.911 137.477 133.382 143.102C130.815 146.294 129.607 147.32 127.72 148.916C121.832 153.856 118.435 154.654 118.133 153.97C117.989 153.661 119.204 152.802 120.894 151.607C122.316 150.602 124.075 149.358 125.644 148.004C131.004 143.33 133.533 140.213 133.533 140.213C133.533 140.213 128.399 143.938 123.719 143.52C121.844 143.336 120.383 142.194 119.595 141.578C119.24 141.301 119.022 141.131 118.963 141.201C118.417 141.82 119.167 143.37 119.539 144.139C119.579 144.221 119.614 144.294 119.643 144.356C119.982 144.964 120.662 145.61 120.662 145.61C120.662 145.61 120.473 145.99 118.85 146.028C117.94 146.028 117.447 145.673 117.161 145.468C117.009 145.358 116.915 145.291 116.85 145.344C116.548 145.61 116.774 146.674 117.831 147.738C118.888 148.764 119.907 149.144 119.907 149.144C119.907 149.144 118.322 149.714 115.83 149.714C114.927 149.697 114.016 149.494 113.255 149.325C112.362 149.126 111.676 148.974 111.452 149.22C110.896 149.809 111.541 150.398 112.264 151.057C112.474 151.249 112.691 151.447 112.886 151.652C113.754 152.564 114.283 152.564 114.283 152.564C114.283 152.564 114.056 153.628 111.414 154.046C109.935 154.282 108.586 153.961 107.596 153.725C106.665 153.504 106.051 153.358 105.941 153.818C105.639 154.92 108.999 157.733 113 158.113C116.925 158.455 120.284 156.631 120.284 156.631C120.284 156.631 120.247 157.505 118.548 159.443C117.679 160.437 117.038 160.88 116.667 161.136C116.328 161.369 116.215 161.448 116.359 161.647C117.001 162.483 119.529 162.103 128.173 154.122C128.173 154.217 128.182 154.312 128.192 154.407C128.201 154.502 128.211 154.597 128.211 154.692C128.701 162.825 136.703 160.963 136.666 160.469C136.648 160.277 136.329 160.181 135.864 160.042C135.316 159.878 134.567 159.653 133.872 159.139C132.174 157.885 132.438 157.239 132.438 157.239C132.438 157.239 132.816 157.581 133.835 157.657C134.854 157.733 135.42 157.733 135.458 157.315C135.468 157.235 135.287 157.159 135.002 157.037C134.194 156.693 132.543 155.991 131.985 153.856C131.57 152.184 132.212 150.702 133.042 149.676C140.251 140.669 141.384 135.539 141.912 132.081V132.043C141.922 131.982 141.934 131.898 141.948 131.795C142.105 130.686 142.581 127.311 144.101 125.05C144.101 125.05 144.139 125.012 144.139 124.974C145.347 123.036 147.159 121.212 149.876 120.68C150.254 120.604 150.594 120.566 150.895 120.566H150.971H151.122C153.575 120.794 154.406 121.858 154.972 122.998C155.765 124.518 155.576 126.456 154.557 128.052C154.368 128.356 154.066 128.622 153.802 128.851C153.767 128.885 153.733 128.919 153.7 128.952C153.444 129.207 153.24 129.409 153.273 129.611C153.311 129.801 153.424 129.953 153.613 130.067C153.953 130.219 154.368 130.181 154.821 129.953L154.972 129.877C155.312 129.687 155.614 129.535 155.727 129.611C155.765 129.611 155.802 129.649 155.802 129.725L155.804 129.736C155.879 130.266 155.977 130.952 153.991 132.537C153.311 133.069 152.669 133.335 152.217 133.487C151.839 133.601 151.575 133.715 151.499 133.905C151.462 134.019 151.499 134.133 151.537 134.247C151.688 134.551 152.217 134.741 152.896 134.741C153.047 134.741 153.236 134.741 153.424 134.703ZM158.355 152.348C158.362 152.33 158.369 152.314 158.369 152.298C158.822 150.74 158.935 148.764 158.331 146.636C157.992 145.344 156.821 142.455 152.632 139.719C150.588 138.378 148.264 137.6 147.308 137.28C147.099 137.21 146.955 137.162 146.895 137.135C147.528 135.666 148.522 135.066 149.029 134.761C149.217 134.647 149.338 134.575 149.348 134.513C149.386 134.285 147.989 133.715 146.819 133.981C145.8 134.247 144.743 135.235 144.366 135.843C144.314 136.02 144.271 136.191 144.222 136.383C144.093 136.895 143.926 137.558 143.46 138.883C143.881 139.081 144.548 139.384 145.292 139.722C146.546 140.293 148.018 140.962 148.895 141.391C153.009 143.406 154.708 145.686 155.463 148.194C155.84 149.448 155.689 150.626 155.425 151.652C154.481 155.034 151.537 157.163 148.706 156.479C146.781 156.022 145.347 155.034 144.668 153.704C144.101 152.64 144.064 151.348 144.517 150.018C144.856 149.03 145.46 148.574 145.913 148.384C146.517 148.118 147.234 148.156 147.838 148.498C149.03 149.173 149.083 150.071 149.12 150.715L149.121 150.74C149.121 151.12 149.159 151.424 149.423 151.538C149.612 151.614 149.876 151.576 150.103 151.424C150.556 151.082 150.895 150.284 150.971 149.334C151.046 148.194 150.367 146.484 148.178 145.572C145.989 144.66 143.12 145.914 142.025 148.27C140.402 151.766 141.686 154.92 141.874 155.376C141.723 155.49 141.271 155.946 140.893 156.669C140.251 157.809 140.251 158.835 140.402 159.215C140.44 159.291 140.516 159.367 140.553 159.367C140.704 159.405 140.855 159.253 141.082 159.025C141.346 158.759 141.686 158.417 142.214 158.113C143.233 157.543 144.215 157.695 144.328 157.733C146.102 158.873 147.763 159.633 149.725 159.633C150.518 159.633 151.386 159.481 152.292 159.215C155.236 158.341 157.35 155.946 158.331 152.45C158.331 152.406 158.344 152.374 158.355 152.348ZM113.188 82.4111C113.188 82.4111 115.226 83.0191 117.755 85.3753C119.12 86.6431 120.484 88.1067 121.608 89.3125C121.696 89.4079 121.784 89.5017 121.87 89.5936L122.549 85.1093C121.568 84.0072 120.36 82.7151 118.775 81.385C117.189 80.0549 114.396 78.5728 113.188 77.9648V82.4111ZM114.132 85.9834C114.132 85.9834 113.83 88.3395 114.547 93.4319C114.925 96.1681 115.604 98.7523 115.944 99.8924L119.492 98.2203C119.453 98.0867 119.405 97.9261 119.349 97.7421C119.025 96.6695 118.461 94.7969 118.171 92.7859C117.68 89.6696 117.831 88.9856 117.831 88.9856C117.189 88.3015 115.264 86.3634 114.132 85.9834ZM124.361 130.105C120.435 130.523 117.642 127.33 117.227 123.948C117.001 122.2 117.416 120.528 118.397 119.236C119.643 117.564 121.454 116.69 122.738 116.538C124.323 116.348 125.682 116.804 126.55 117.222C127.154 117.526 127.607 117.716 127.796 117.602C128.173 117.412 128.173 116.956 128.022 116.386C127.796 115.664 127.267 114.941 126.474 114.447C125.531 113.839 124.285 113.535 122.889 113.573C118.775 113.725 116.397 116.994 115.906 117.754C115.83 117.526 115.604 117.108 115.076 116.766C114.245 116.196 113.339 115.968 113.075 116.31C112.915 116.471 113.026 116.632 113.202 116.886C113.234 116.931 113.267 116.98 113.301 117.032C113.566 117.374 113.943 117.868 114.207 118.666C114.441 119.272 114.409 120.087 114.372 121.005C114.367 121.123 114.363 121.243 114.358 121.364C114.354 121.51 114.348 121.664 114.342 121.825C114.299 123.003 114.244 124.535 114.509 125.772C115.34 129.535 118.775 133.373 123.908 133.525C124.474 133.563 125.078 133.487 125.606 133.335C127.947 132.689 129.494 131.435 130.551 130.143C130.626 130.181 130.74 130.257 130.853 130.371L130.94 130.443C131.801 131.152 133.464 132.523 134.741 133.221C135.08 132.043 135.307 130.371 135.307 129.497C134.967 129.269 132.891 127.824 130.023 124.822C127.607 122.276 126.852 121.44 126.852 121.44C126.399 121.06 124.851 119.806 123.228 119.73C121.756 119.692 121.266 120.034 121.228 120.072L121.643 120.68C121.685 120.732 121.769 120.848 121.901 121.028C122.247 121.502 122.917 122.42 123.983 123.796C125.493 125.734 127.343 127.482 127.871 127.976L128.098 128.242C127.267 129.117 126.059 129.915 124.361 130.105ZM86.9933 160.697C91.5604 159.937 95.2972 158.835 100.129 154.426C105.488 149.562 107.489 142.57 108.395 139.035C109.64 133.943 109.527 124.252 109.527 124.252V73.9745C109.527 73.9745 109.187 63.1817 109.942 60.4455C110.697 57.7093 112.32 55.7332 113.301 54.7071C115.491 52.4649 120.058 51.7049 120.058 51.7049C121.379 51.4768 121.681 50.8308 121.568 50.1847C121.417 49.1967 120.624 49.1207 120.624 49.1207L88.0879 49.0447C88.0879 49.0447 87.2575 49.1967 87.1065 50.1467C86.9933 50.7928 87.2952 51.4388 88.6163 51.6669C88.6163 51.6669 93.2212 52.3889 95.3727 54.6691C96.354 55.6951 97.9771 57.6713 98.7319 60.4075C99.4869 63.1057 99.1471 73.9365 99.1471 73.9365L98.43 124.1C98.43 124.482 98.4373 125.094 98.4464 125.859C98.4882 129.355 98.5683 136.064 98.1658 138.807C97.4486 143.444 96.3918 147.358 93.5609 150.398C90.73 153.438 88.1256 154.426 84.2756 154.426C80.4257 154.426 77.8967 153.248 75.1791 151.082C72.4615 148.916 67.2904 144.014 67.2904 144.014L72.2728 160.203C72.2728 160.203 81.9355 161.571 86.9933 160.697ZM58.4204 158.417C58.9865 158.949 61.9306 155.604 63.7046 151.842C65.4787 148.042 65.9316 144.09 65.3654 140.593C65.0635 138.541 63.7424 135.691 62.9497 134.095C64.988 135.463 67.2527 136.261 68.9134 136.527C73.6316 137.325 77.8967 137.515 81.0296 136.793C82.0233 136.554 82.7782 136.304 83.3541 136.113C84.3314 135.789 84.793 135.636 85.0305 135.995C85.4457 136.641 83.6717 138.351 77.9722 139.263C72.0463 140.213 68.4228 138.845 68.4228 138.845C68.4228 138.845 68.4983 140.137 70.5742 141.733C71.433 142.413 72.1796 142.873 72.847 143.284C73.8223 143.884 74.6283 144.381 75.3678 145.306C76.0389 146.134 76.0892 146.975 76.124 147.555C76.1499 147.987 76.1671 148.276 76.4247 148.308C76.8328 148.385 77.0341 147.751 77.3197 146.85C77.4567 146.418 77.6132 145.925 77.8213 145.42C78.4252 143.9 77.8967 142.379 77.8967 142.379C77.8967 142.379 80.0482 144.204 84.2001 143.786C87.1065 143.482 88.8428 142.95 88.6541 142.341C88.5598 142.057 88.2893 142.039 87.7231 142.001C87.3819 141.978 86.9335 141.947 86.3516 141.847C84.8041 141.581 84.2001 140.935 84.2001 140.935C84.2001 140.935 86.7291 140.099 89.8619 137.933C92.9947 135.767 95.0329 132.993 94.58 132.347C94.2651 131.857 93.4071 132.154 92.3357 132.525C91.9947 132.643 91.6321 132.769 91.2585 132.879C89.0692 133.525 88.2766 133.487 88.2766 133.487C88.2766 133.487 88.0501 133.183 89.0315 132.005C89.7277 131.167 90.3942 130.729 90.8736 130.414C91.3298 130.114 91.6166 129.926 91.5982 129.611C91.5604 128.965 89.5222 128.242 84.2756 130.599C82.3884 131.435 80.3879 132.765 80.3879 132.765C80.3879 132.765 81.1806 130.295 81.4825 128.584C81.5106 128.429 81.5416 128.261 81.5743 128.084C81.8931 126.358 82.37 123.775 81.8222 123.568C81.4695 123.435 81.3872 123.574 81.1391 123.993C80.9624 124.291 80.7016 124.731 80.1992 125.316C80.0071 125.535 79.8464 125.727 79.7082 125.893C79.2216 126.476 79.0127 126.727 78.6894 126.608C78.3228 126.461 78.2569 126.026 78.174 125.481C78.1289 125.183 78.0787 124.853 77.9722 124.518C77.6703 123.606 76.9154 122.352 76.6134 122.542C76.3279 122.702 76.0958 123.68 75.8105 124.882C75.4169 126.54 74.9222 128.625 74.0468 129.573C73.5561 130.105 72.9144 130.447 72.235 130.713C71.2159 131.131 70.0835 131.283 68.9889 131.283C67.7056 131.283 66.4223 131.055 65.2522 130.599C65.1973 130.577 65.1402 130.554 65.0812 130.531C63.8019 130.028 61.5999 129.161 60.1566 126.836C60.1566 126.836 59.9679 126.494 59.9302 126.494V126.456C58.6846 126.304 57.4012 125.962 55.8537 125.24C56.2689 126.494 56.9106 128.09 57.4012 129.269C59.0998 133.411 61.44 140.365 59.213 145.838C56.5331 152.412 50.3052 153.666 49.6258 152.26C49.4173 151.84 49.9767 151.57 50.9025 151.122C52.4905 150.355 55.1561 149.067 56.8728 145.61C59.062 141.163 57.4012 135.577 57.4012 135.577C57.4012 135.577 57.4012 140.365 53.9665 143.634C51.121 146.332 49.0035 146.139 47.8654 146.035C47.4485 145.997 47.1631 145.971 47.0214 146.104C46.4552 146.712 47.3988 147.168 48.3425 147.624C48.9464 147.89 50.0032 148.156 50.0032 148.156C50.0032 148.156 48.9086 149.182 47.3233 149.98C47.054 150.119 46.8061 150.243 46.5803 150.356C45.5726 150.859 45.0071 151.141 44.9454 151.576C44.9077 151.994 46.9836 154.046 48.9464 154.92C50.9091 155.794 53.3248 156.022 53.3248 156.022C53.3248 156.022 53.5135 155.984 52.8718 157.125C52.631 157.542 52.3854 157.874 52.1821 158.148C51.812 158.648 51.5823 158.958 51.7772 159.253C52.2679 159.937 52.7586 159.823 55.5895 158.037C58.4204 156.251 59.213 155.11 59.213 155.11C59.213 155.11 59.1375 155.338 58.8355 156.479C58.7252 156.881 58.5796 157.187 58.4614 157.436C58.2559 157.868 58.1329 158.127 58.4204 158.417ZM61.7042 96.3961C61.1757 97.1182 60.2699 98.7903 60.0434 100.348C60.9493 103.009 62.0439 104.111 62.7988 104.415C63.4404 101.983 64.1576 99.5504 65.2899 97.3462C65.1012 97.1562 63.7801 96.0161 61.7042 96.3961ZM56.6086 114.409C56.7596 114.865 59.4772 116.69 60.5341 116.804C60.5341 116.804 60.4208 115.017 60.7983 113.497C60.7983 113.497 58.5713 112.471 57.2125 110.077C56.8351 111.331 56.6086 113.459 56.6086 114.409ZM50.1165 93.9639C49.89 94.42 49.6635 94.952 49.3993 95.7121C47.8895 99.9304 47.3988 101.945 47.3988 106.391C47.3611 111.255 48.8709 115.74 51.664 118.97C54.3062 122.048 57.9297 123.834 61.8551 124.024C67.4978 124.289 72.2782 120.78 74.1039 119.439L74.1222 119.426C76.799 117.459 81.6249 112.386 82.0557 111.933C82.0744 111.914 82.0849 111.903 82.0864 111.901L82.1619 111.787L82.2374 111.901C82.241 111.905 82.2594 111.934 82.2914 111.984C82.5971 112.461 84.138 114.865 85.7099 115.588C86.9933 116.196 88.6541 116.006 89.3712 115.74C89.6354 115.626 89.7109 115.588 89.7109 115.55C89.7109 115.512 89.5222 115.36 89.3335 115.207L89.3067 115.184C88.504 114.492 86.8771 113.089 86.6158 110.533C86.3516 107.911 91.5982 105.479 95.3727 104.757L95.4859 101.07C94.9952 101.108 92.6928 101.298 92.2021 101.45C85.4911 103.348 81.228 107.446 77.0805 111.432L77.0664 111.445C72.6502 115.702 68.4605 119.73 61.9684 119.73H61.8174C59.364 119.692 56.9106 118.514 54.9478 116.348C52.4189 113.573 50.9846 109.697 51.2488 106.201C51.5508 102.135 52.9851 98.7903 55.4762 96.5481C57.439 94.8 59.9679 93.7739 62.4591 93.7739H62.61C64.535 93.8119 66.4978 94.572 68.0076 95.8261C69.2154 96.8142 70.6497 98.5623 70.8007 101.336C70.9139 103.503 70.1968 105.517 68.9134 106.733C68.536 107.113 66.46 108.861 63.063 108.101C61.5532 107.759 60.3076 106.467 59.6282 105.403C59.1375 104.643 58.7978 103.731 58.4958 102.819C58.4204 102.591 58.1561 102.363 57.8542 102.401C57.4767 102.439 57.2503 102.971 57.1748 103.769C56.986 106.201 58.6091 110.153 62.7988 111.293C69.6306 113.155 73.1031 108.063 73.858 105.935C74.6884 103.617 74.7262 102.287 74.7262 102.287C74.7262 102.211 74.8017 101.983 74.9526 101.945C75.1414 101.907 75.2923 102.097 75.3678 102.249C75.7075 102.781 77.4815 103.845 78.9913 103.427C80.6305 103.014 81.3504 101.602 82.0584 100.213L82.0864 100.158L82.1152 100.101C82.7463 98.8291 83.3517 97.6094 84.6531 97.4222C86.2006 97.1562 86.6913 97.3842 86.9933 97.5362L87.0051 97.541C87.1853 97.6137 87.2639 97.6454 87.5595 97.4222C87.7859 97.2702 87.7859 96.9662 87.7104 96.7761C87.4462 95.9401 85.8609 94.724 83.7472 94.8C81.6976 94.8375 80.9357 95.5048 80.0812 96.2532L80.0482 96.2821C80.0064 96.3182 79.9645 96.3546 79.9225 96.3911C79.4337 96.8157 78.9196 97.2623 78.0855 97.6122C75.9399 98.533 74.8104 98.2987 74.6359 98.2625C74.6232 98.2598 74.6155 98.2583 74.6129 98.2583H74.5752L74.5374 98.2203C74.537 98.2194 74.5362 98.2176 74.5348 98.2149C74.4162 97.9691 70.6307 90.1257 62.1194 90.1257H62.0439C57.4252 90.1632 54.7913 92.1251 53.8885 92.7976L53.8532 92.8239C53.5513 93.0519 53.4758 93.0899 53.4003 93.0519C53.4003 93.0386 53.391 93.0252 53.3806 93.0103C53.3612 92.9825 53.338 92.9492 53.3625 92.8999C53.438 92.5198 52.8341 90.2397 52.4189 89.3656C51.9282 88.3015 50.6449 87.7315 50.2297 87.6935C50.5317 88.0355 51.0223 89.2896 50.9091 90.9237C50.8336 92.3298 50.5694 92.9379 50.1165 93.9639ZM61.9506 49.1194C61.9387 49.1202 61.932 49.1207 61.9306 49.1207C54.9478 49.7287 47.7763 54.9731 47.3988 65.3099C47.0969 75.4186 52.5699 81.157 57.8164 83.1332C64.2708 85.5653 67.9321 84.1592 68.0831 84.0832C68.234 84.0452 68.385 84.0832 68.4983 84.1972C68.6115 84.3112 68.6115 84.5013 68.536 84.6153L68.4983 84.6533C68.4657 84.6883 68.4303 84.7262 68.3925 84.7668C67.7732 85.4308 66.4899 86.8069 65.7429 87.8455C66.3468 87.9215 67.1394 88.1875 67.6679 88.4155C67.7049 88.4325 67.741 88.449 67.7762 88.4651C68.5286 88.8093 68.8531 88.9578 69.1777 89.1756C71.1027 86.2494 73.7448 83.6272 76.9909 81.423C79.5198 79.6749 83.634 78.0408 87.7482 77.0907L88.2011 76.9767L87.8614 77.2427C86.6536 78.1928 85.7854 79.2189 84.9928 80.625C83.9737 82.3731 83.181 84.8813 83.4453 85.6033C83.483 85.6793 83.5207 85.6793 83.5207 85.6793C83.7361 85.7661 83.8286 85.8033 83.8963 85.777C83.9473 85.7571 83.9843 85.7013 84.0492 85.6033C84.1247 85.4513 84.2756 85.2613 84.5399 84.9573C84.8796 84.6153 85.1815 84.4253 85.4457 84.4253H85.4835C85.7099 84.4253 85.8987 84.5393 86.0119 84.6533L86.0497 84.6913C86.2337 84.8395 86.2024 85.0601 86.1307 85.5644L86.1251 85.6033C85.9742 86.5914 85.7099 88.4155 86.6158 89.8596C87.8237 91.8358 88.9183 93.1279 89.5222 93.2419C89.6354 93.2419 89.6732 93.2419 89.7109 93.2039C89.7864 93.1659 89.9751 92.8999 89.7487 91.7978C89.5222 90.5817 88.956 86.5154 89.5977 83.6272C90.3526 80.0929 92.6173 76.6347 95.4481 76.6347H95.7124V73.3664C95.1462 73.3664 92.2776 73.1384 90.6168 71.3523C89.7487 70.4022 89.3335 69.1861 89.3712 67.704C89.4844 64.5498 90.9187 62.6497 92.1266 61.3576C92.3153 61.1675 92.9192 60.5215 92.7305 60.1415C92.5795 59.8375 92.3153 59.6854 91.9379 59.6474H91.8246C90.4281 59.6474 88.0501 61.3956 87.2952 62.5356C86.4285 63.8447 85.9073 65.432 85.7647 65.8663C85.7582 65.8859 85.7526 65.9031 85.7477 65.9179C85.7099 66.0319 85.6345 66.1079 85.5212 66.1839C85.2193 66.3359 84.5021 66.2219 83.9737 65.6139C83.5585 65.1578 83.5585 64.2458 83.5585 64.0558V63.7897C83.5585 63.7897 83.483 63.7517 83.4075 63.7517C83.2943 63.7517 83.0678 63.8277 82.8413 64.1698C82.3507 64.9678 82.7658 68.8821 84.2756 71.0103C84.6461 71.5139 84.9712 71.9625 85.2597 72.3608C85.559 72.7739 85.819 73.1328 86.0497 73.4424L86.1629 73.5945L86.0119 73.6325C84.8796 73.8225 83.785 74.1265 82.7658 74.4685C81.4001 74.9767 79.9877 75.5554 78.5836 76.1307C78.2027 76.2868 77.8224 76.4426 77.4438 76.5967H77.4061C75.3301 77.4707 73.1786 78.3448 71.1781 78.9909C65.3277 80.853 60.6473 80.701 57.6655 78.5728C54.7213 76.4447 51.2111 72.4924 51.3243 65.6899C51.3998 62.1936 52.9096 58.5454 55.2498 56.1132C57.288 54.061 59.8547 52.9589 62.6478 52.9589H62.9497C70.3478 53.149 72.8767 57.8613 72.8012 61.8516C72.7257 65.6519 70.6497 68.1221 67.1772 68.4261C64.9125 68.6161 63.1385 67.096 62.61 65.4999C62.2801 64.5034 62.235 63.5428 62.1981 62.7573C62.197 62.7339 62.1959 62.7107 62.1948 62.6877C62.1917 62.6204 62.1888 62.5544 62.1859 62.49C62.155 61.7898 62.1316 61.2623 61.8551 61.0535C61.7419 60.9395 61.6287 60.9015 61.4777 60.9395C61.1757 61.0155 60.7983 61.4336 60.6096 61.9656C59.7792 64.0558 59.8547 66.3739 60.7605 68.3881C61.7797 70.5542 64.6105 72.5304 68.0831 72.1124C71.6688 71.6563 74.3865 69.6422 75.7453 66.3359C76.6134 64.1698 76.7644 62.8777 76.6512 61.5476C76.6428 61.4632 76.6363 61.377 76.6295 61.2881C76.606 60.9764 76.5799 60.6314 76.4624 60.2175C76.4247 60.1035 76.4624 59.9895 76.5002 59.9135C76.5757 59.8375 76.6512 59.7614 76.7644 59.7614C76.8776 59.7614 79.2556 59.3054 80.7276 57.1773C83.3698 53.301 82.3884 51.1728 82.0109 50.6028C81.709 50.1087 81.3315 49.9567 81.256 49.9947C81.1925 50.0267 81.1022 50.3548 81.0302 50.6165C81.0167 50.6658 81.0038 50.7127 80.9918 50.7548C80.7276 51.8189 80.3124 53.415 78.3119 54.023C76.6044 54.5717 75.4214 53.7472 73.9214 52.7019C73.863 52.6612 73.8042 52.6202 73.7448 52.5789H73.7071C72.6502 51.8189 71.4424 50.9828 69.7816 50.2988C66.1093 48.8344 62.2618 49.0981 61.9506 49.1194ZM167.39 169.133H39.3214V40H167.39V169.133ZM104.432 186.387C104.507 186.387 104.545 186.425 104.583 186.463C104.62 186.501 104.62 186.577 104.507 186.615C104.092 187.907 103.564 190.225 103.413 190.985C103.413 191.061 103.337 191.137 103.262 191.137H102.96C102.922 191.137 102.884 191.099 102.846 191.061C102.809 191.023 102.809 190.947 102.809 190.909C102.846 190.757 102.884 190.453 102.884 190.225C102.884 188.933 101.752 188.591 93.3347 188.591V217.017C93.3347 220.855 93.9763 220.969 95.5994 221.235C95.6749 221.235 95.7504 221.311 95.7504 221.387V221.615C95.7504 221.653 95.7504 221.691 95.7126 221.729C95.6749 221.767 95.6371 221.767 95.5994 221.767C94.9955 221.729 93.4102 221.653 91.4474 221.653C89.9122 221.653 88.715 221.705 87.8128 221.745L87.8114 221.745L87.8096 221.745L87.6111 221.754C87.5011 221.759 87.396 221.763 87.2955 221.767C87.2577 221.767 87.22 221.767 87.1823 221.729C87.1445 221.691 87.1445 221.653 87.1445 221.615V221.387C87.1445 221.311 87.22 221.235 87.2955 221.235C88.9563 220.969 89.5602 220.855 89.5602 217.017V188.591C82.2377 188.591 80.0107 188.629 78.6141 191.593C78.5764 191.669 78.5387 191.707 78.4632 191.707H78.2367C78.1989 191.707 78.1612 191.669 78.1235 191.631C78.0857 191.593 78.0857 191.517 78.0857 191.479C78.2744 190.605 78.5009 189.769 78.7651 188.857C78.9577 188.243 79.123 187.601 79.3074 186.886C79.3398 186.76 79.3729 186.631 79.4068 186.501C79.4068 186.425 79.4823 186.387 79.5578 186.387C90.2396 186.615 102.167 186.425 104.432 186.387ZM121.153 220.438C128.928 220.438 133.759 214.357 133.759 204.552C133.759 192.202 127.003 187.831 121.153 187.831C112.094 187.831 108.886 196.686 108.886 204.248C108.886 214.395 113.453 220.438 121.153 220.438ZM104.243 204.4C104.243 195.584 110.697 186.463 121.568 186.463C131.004 186.463 138.402 194.292 138.44 204.248C138.44 214.129 130.853 221.844 121.19 221.844C110.584 221.844 104.243 212.989 104.243 204.4ZM62.6482 192.847C62.6482 197.027 65.7433 199.155 69.0271 201.397L69.1514 201.484C72.7741 204.003 76.501 206.594 76.5383 212.342C76.5383 218.043 72.4996 221.995 66.7246 221.995C65.0504 221.995 63.8529 221.737 62.8068 221.511L62.7614 221.501L62.6715 221.481C61.8356 221.298 61.0276 221.121 60.0438 221.121C59.7418 221.121 59.6286 221.121 59.3644 221.159C59.2889 221.159 59.2511 221.159 59.2134 221.121C59.1756 221.083 59.1756 221.007 59.1756 220.969C59.2134 220.741 59.2134 220.209 59.2134 219.791C59.2134 219.259 59.1756 218.803 59.1001 218.271C59.0887 218.11 59.0738 217.945 59.0586 217.777C59.0236 217.39 58.9869 216.984 58.9869 216.561C58.9869 216.143 59.0247 214.736 59.5531 213.558C59.5908 213.482 59.6286 213.444 59.7041 213.444H59.855C59.8928 213.444 59.9305 213.444 59.9683 213.482C60.006 213.482 60.006 213.558 60.006 213.596V213.748C59.9683 214.09 59.9305 214.432 59.9305 214.736C59.9305 218.461 63.4786 220.437 67.0266 220.437C70.0839 220.437 73.179 218.537 73.179 214.318C73.179 209.834 69.9707 207.63 66.5359 205.274L66.404 205.182C62.8968 202.741 59.2889 200.23 59.2889 195.013C59.2889 189.997 62.9124 186.5 68.0457 186.5C69.4693 186.5 70.5908 186.703 71.6002 186.886L71.7824 186.918L71.8908 186.938C72.6819 187.083 73.44 187.222 74.1981 187.222C74.4623 187.222 74.6888 187.222 74.953 187.184C75.0285 187.184 75.0663 187.184 75.104 187.222C75.1417 187.26 75.1417 187.336 75.1417 187.374C75.0285 188.439 74.9908 189.275 74.9908 190.453C74.9908 191.137 74.9908 192.315 75.0285 192.999C75.0285 193.037 75.0285 193.075 74.9908 193.113C74.953 193.151 74.9153 193.151 74.8775 193.151H74.6133C74.5378 193.151 74.4623 193.075 74.4623 192.999C73.7829 189.579 71.5937 187.754 68.1212 187.754C64.0825 187.754 62.6482 190.377 62.6482 192.847ZM158.784 196.913C158.784 200.295 157.878 204.818 150.178 204.818H148.027V188.401C149.386 188.02 150.292 187.944 151.348 187.944C155.84 187.982 158.784 191.479 158.784 196.913ZM168.296 221.235C165.531 220.295 162.323 214.551 159.952 210.307L159.879 210.176L159.627 209.725C158.389 207.506 157.413 205.758 156.67 205.046C160.709 203.45 163.125 200.219 163.125 196.305C163.125 190.377 158.595 186.538 151.575 186.538C151.364 186.538 151.098 186.545 150.794 186.553H150.794H150.794C150.39 186.564 149.919 186.576 149.423 186.576C148.442 186.614 147.348 186.614 146.556 186.614H146.555H146.554C144.441 186.614 143.573 186.614 141.95 186.5C141.912 186.5 141.874 186.5 141.837 186.538C141.799 186.576 141.799 186.614 141.799 186.652V186.88C141.799 186.956 141.874 187.032 141.95 187.032C143.573 187.298 144.139 187.944 144.139 191.251V217.093C144.139 220.931 143.535 221.045 141.874 221.311C141.799 221.311 141.723 221.387 141.723 221.463V221.691C141.723 221.729 141.723 221.767 141.761 221.805C141.799 221.843 141.837 221.843 141.874 221.843C142.052 221.836 142.242 221.828 142.446 221.819L142.454 221.819H142.454H142.455H142.455C143.373 221.78 144.555 221.729 146.064 221.729C148.027 221.729 149.65 221.805 150.254 221.843C150.292 221.843 150.329 221.843 150.367 221.805C150.405 221.767 150.405 221.729 150.405 221.691V221.463C150.405 221.387 150.329 221.311 150.254 221.311C148.593 221.045 147.989 220.931 147.989 217.093V206.186H150.895C151.424 206.186 152.103 206.11 152.858 205.996C153.679 206.784 154.647 208.612 155.252 209.755L155.274 209.796C155.387 210.024 155.5 210.252 155.614 210.404C161.275 221.083 161.879 221.729 166.975 221.919C167.541 221.919 167.767 221.919 168.183 221.881C168.258 221.881 168.334 221.805 168.334 221.729V221.425C168.409 221.349 168.371 221.273 168.296 221.235ZM54.948 186.424C54.0043 186.462 52.1548 186.5 50.5695 186.5C48.871 186.5 46.9838 186.462 46.0024 186.424C45.9647 186.424 45.9269 186.424 45.8892 186.462C45.8514 186.5 45.8514 186.538 45.8514 186.576V186.804C45.8514 186.88 45.9269 186.956 46.0024 186.956C47.6632 187.222 48.7578 187.412 48.7578 191.022V212.038C48.7578 215.99 46.8705 220.284 43.8509 220.284C43.2848 220.284 42.7563 220.246 42.2657 220.17C40.1519 219.638 38.8309 218.156 38.0382 217.092L38.0381 217.092C37.9249 216.94 37.8117 216.788 37.7363 216.636C36.8681 215.306 36.4529 214.166 36.4529 214.128C36.4152 214.014 36.302 213.976 36.1887 213.976C36.0755 214.014 36 214.09 36 214.242L36.7172 219.752C36.7172 219.828 36.7549 219.904 36.8304 219.942C38.8309 221.234 41.2843 221.614 41.7372 221.652C42.5299 221.766 43.1715 221.804 43.549 221.804H44.0397C49.0975 221.804 52.4945 217.662 52.4945 211.506V191.022C52.4945 187.525 53.3074 187.339 54.9333 186.968L54.9857 186.956L55.0612 186.918C55.1367 186.918 55.1744 186.842 55.1744 186.766V186.538C55.1744 186.5 55.1744 186.462 55.1367 186.424H54.948Z" fill="#990000"/>
<rect x="252.5" y="0.5" width="385" height="155" stroke="#DE3330"/>
<path fill-rule="evenodd" clip-rule="evenodd" d="M290.746 117.255V39.7646H367.618V117.255H290.746ZM309.018 45.9682C306.639 44.9887 304.261 45.2064 304.261 45.2064C300.152 45.6417 295.827 48.7979 295.827 55.328C295.611 61.4227 298.963 64.7966 302.098 65.9938C305.606 67.2689 307.709 66.6876 308.169 66.5604C308.22 66.5464 308.25 66.538 308.261 66.538C308.307 66.538 308.333 66.538 308.357 66.5463C308.389 66.5575 308.415 66.5841 308.477 66.6468V66.8645C308.35 67.0355 308.139 67.2738 307.903 67.5397C307.54 67.9505 307.118 68.4271 306.855 68.8235C307.186 68.8235 307.516 68.9505 307.798 69.059C307.886 69.0925 307.968 69.1243 308.045 69.15L308.91 69.5853C309.991 67.844 311.613 66.2114 313.559 64.9054C315.072 63.8171 317.559 62.8376 320.046 62.2934L320.262 62.1846L320.046 62.4022C319.289 63.0552 318.857 63.5994 318.316 64.4701C317.667 65.4496 317.235 66.9733 317.343 67.4086C317.469 67.4722 317.522 67.4986 317.565 67.4879C317.596 67.4803 317.622 67.4539 317.667 67.4086C317.775 67.2998 317.883 67.191 317.992 66.9733C318.208 66.7556 318.316 66.6468 318.532 66.6468C318.64 66.6468 318.748 66.6468 318.857 66.7556C319.009 66.8326 319 66.9095 318.982 67.0635C318.974 67.1272 318.965 67.2042 318.965 67.2998C318.857 67.844 318.748 68.9323 319.289 69.803C320.046 71.0002 320.695 71.762 321.019 71.8708H321.127C321.127 71.8708 321.235 71.6532 321.127 71.0002C321.019 70.2383 320.695 67.844 321.019 66.1026C321.56 63.9259 322.857 61.8581 324.587 61.8581H324.695V59.899C324.371 59.899 322.641 59.7902 321.668 58.7019C321.127 58.1577 320.911 57.3958 320.911 56.5252C320.911 54.675 321.776 53.4778 322.533 52.716C322.641 52.6071 322.965 52.1718 322.857 51.9541C322.749 51.7365 322.641 51.6276 322.424 51.6276H322.316C321.451 51.6276 320.046 52.716 319.613 53.369C319.12 54.0316 318.876 54.7573 318.741 55.1622C318.698 55.2893 318.666 55.3848 318.64 55.4368C318.64 55.4368 318.64 55.5457 318.532 55.5457C318.316 55.6545 317.883 55.5457 317.559 55.2192C317.343 54.8927 317.343 54.3485 317.343 54.2396V54.022H317.235C317.235 54.022 317.019 54.022 316.91 54.2396C316.586 54.7838 316.91 57.0693 317.775 58.3754C317.953 58.5988 318.112 58.8222 318.261 59.0305C318.474 59.3297 318.665 59.5977 318.857 59.7902L318.64 59.899H318.532C317.883 60.0079 317.235 60.2255 316.586 60.4432L313.342 61.7492C312.385 62.1508 311.428 62.4931 310.514 62.8198C310.189 62.9359 309.87 63.05 309.558 63.1641C306.099 64.3613 303.287 64.2524 301.449 62.9464C299.72 61.6404 297.557 59.246 297.665 55.2192C297.665 53.0425 298.638 50.8658 300.044 49.4509C301.233 48.2537 302.747 47.6007 304.477 47.6007H304.693C309.126 47.7096 310.64 50.5393 310.64 52.9336C310.64 55.2192 309.342 56.634 307.288 56.8517C305.99 56.9605 304.909 56.0898 304.585 55.1103C304.369 54.4573 304.369 53.8043 304.369 53.369C304.369 52.9336 304.369 52.4983 304.152 52.3895C304.09 52.3268 304.064 52.3002 304.032 52.2889C304.008 52.2806 303.982 52.2806 303.936 52.2806C303.72 52.3895 303.504 52.6071 303.396 52.9336C302.963 54.1308 302.963 55.5457 303.504 56.7428C304.152 58.0489 305.882 59.246 307.937 59.0284C310.099 58.7019 311.721 57.5047 312.586 55.5457C313.126 54.2396 313.234 53.4778 313.126 52.716C313.126 52.4983 313.126 52.2806 313.018 51.9541V51.7365C313.018 51.6276 313.018 51.6276 313.126 51.6276C313.234 51.6276 314.64 51.4099 315.505 50.1039C317.127 47.8184 316.478 46.5124 316.262 46.1859C316.045 45.9682 315.937 45.8594 315.829 45.8594C315.829 45.8594 315.721 46.1859 315.721 46.2947C315.613 46.8389 315.397 47.8184 314.099 48.2537C313.16 48.5689 312.422 48.0728 311.497 47.4507C311.464 47.4283 311.43 47.4057 311.396 47.3831C310.748 46.8389 309.991 46.4036 309.018 45.9682ZM297.233 72.0885C297.125 72.415 297.017 72.7415 296.8 73.1769C295.827 75.6801 295.611 76.9861 295.287 79.7069C295.287 82.5366 296.152 85.2575 297.882 87.2165C299.503 89.0667 301.666 90.1551 304.044 90.2639C307.262 90.4729 310.082 88.4746 311.258 87.6406C311.307 87.606 311.353 87.5734 311.396 87.543C313.018 86.3458 316.154 83.0808 316.154 83.0808L316.262 82.972V83.0808C316.262 83.0808 317.235 84.8222 318.316 85.2575C319.073 85.6928 320.046 85.4752 320.478 85.3663C320.695 85.3663 320.695 85.2575 320.695 85.2575L320.478 85.0398C320.433 84.9938 320.38 84.9428 320.321 84.8868C319.828 84.413 318.953 83.5726 318.857 82.2101C318.748 80.5776 321.884 79.1628 324.154 78.7274L324.262 76.5507C324.046 76.5507 322.641 76.6596 322.316 76.7684C318.323 77.8549 315.73 80.3514 313.247 82.7421L313.234 82.7543C310.531 85.3663 308.045 87.7607 304.152 87.7607H304.044C302.639 87.7607 301.125 86.9989 299.936 85.6928C298.314 84.0603 297.557 81.666 297.665 79.5981C297.882 77.2037 298.746 75.1359 300.26 73.8299C301.449 72.8504 302.963 72.1973 304.477 72.1973H304.585C305.774 72.1973 306.964 72.6327 307.828 73.3945C308.585 73.9387 309.45 75.0271 309.558 76.6596C309.666 77.9656 309.234 79.1628 308.477 79.9246C308.417 79.9447 308.328 79.9981 308.209 80.0692C307.684 80.3832 306.584 81.0414 304.909 80.6864C304.044 80.4688 303.287 79.7069 302.855 79.0539C302.639 78.6186 302.423 78.0744 302.206 77.5302C302.098 77.4214 301.99 77.3126 301.774 77.3126C301.558 77.4214 301.341 77.7479 301.341 78.1833C301.233 79.5981 302.206 81.9925 304.693 82.6455C308.802 83.7338 310.856 80.6864 311.288 79.3804C311.829 77.9656 311.829 77.2037 311.829 77.2037C311.829 77.0949 311.829 76.9861 311.937 76.9861C312.045 76.9861 312.153 77.0949 312.153 77.2037C312.369 77.5302 313.451 78.0744 314.316 77.8567C315.289 77.6391 315.721 76.7684 316.154 75.8977C316.478 75.1359 316.91 74.374 317.667 74.2652C318.64 74.1564 318.857 74.2652 319.073 74.374C319.181 74.374 319.181 74.374 319.397 74.2652C319.565 74.1808 319.537 74.031 319.517 73.9173C319.511 73.8843 319.505 73.8543 319.505 73.8299C319.289 73.2857 318.424 72.6327 317.127 72.6327C315.922 72.6327 315.463 73.0078 314.971 73.4098C314.933 73.4409 314.895 73.4721 314.856 73.5034C314.764 73.5652 314.672 73.6357 314.575 73.7101C314.33 73.8976 314.054 74.1093 313.667 74.2652C312.369 74.9182 311.613 74.7005 311.613 74.7005C311.613 74.5917 309.342 69.803 304.152 69.803C301.449 69.803 299.828 71.0002 299.287 71.4355C299.179 71.5443 299.071 71.5443 299.071 71.5443V71.4355C299.179 71.109 298.746 69.803 298.53 69.2588C298.206 68.6058 297.449 68.2793 297.233 68.2793C297.449 68.497 297.773 69.2588 297.665 70.2383C297.665 70.913 297.535 71.2609 297.376 71.6872C297.33 71.811 297.282 71.9415 297.233 72.0885ZM301.125 84.4957C301.233 84.7133 302.855 85.8017 303.504 85.9105C303.504 85.9105 303.396 84.8222 303.612 83.9515C303.612 83.9515 302.314 83.2985 301.449 81.8836C301.233 82.6455 301.125 83.9515 301.125 84.4957ZM304.152 73.6122C303.828 74.0475 303.287 75.027 303.179 76.0066C303.72 77.6391 304.369 78.2921 304.801 78.4009C304.846 78.2528 304.892 78.1035 304.937 77.9534C305.327 76.6694 305.734 75.3257 306.315 74.1564C306.207 74.0475 305.342 73.3945 304.152 73.6122ZM302.206 110.834C302.531 111.16 304.261 109.201 305.342 106.916C306.423 104.63 306.747 102.236 306.315 99.9502C306.222 98.9265 305.577 97.5049 305.121 96.502C305.044 96.332 304.972 96.1741 304.909 96.0321C306.099 96.794 307.504 97.2293 308.477 97.447C311.288 97.9911 313.883 98.1 315.721 97.6646C316.375 97.5329 316.854 97.3835 317.206 97.2735C317.726 97.1109 317.971 97.0345 318.1 97.2293C318.316 97.5558 317.343 98.6441 313.883 99.1883C310.315 99.8413 308.153 98.9707 308.153 98.9707C308.153 98.9707 308.153 99.7325 309.45 100.712C310.015 101.186 310.498 101.474 310.926 101.729C311.481 102.06 311.942 102.336 312.369 102.889C312.823 103.41 312.849 103.932 312.868 104.29C312.88 104.529 312.888 104.695 313.018 104.739C313.28 104.805 313.383 104.512 313.519 104.127C313.609 103.874 313.712 103.582 313.883 103.324C314.316 102.345 313.991 101.474 313.991 101.474C313.991 101.474 315.289 102.562 317.775 102.345C319.505 102.127 320.586 101.8 320.478 101.474C320.416 101.285 320.281 101.278 319.989 101.264C319.777 101.253 319.482 101.239 319.073 101.147C318.1 101.039 317.775 100.603 317.775 100.603C317.775 100.603 319.397 100.059 321.235 98.753C323.073 97.447 324.262 95.8144 324.046 95.3791C323.824 95.1551 323.398 95.2897 322.838 95.4666C322.581 95.5475 322.297 95.6373 321.992 95.7056C320.695 96.0321 320.262 96.0321 320.262 96.0321C320.262 96.0321 320.154 95.8144 320.695 95.1614C321.088 94.6526 321.481 94.4081 321.768 94.2296C322.033 94.0644 322.208 93.9558 322.208 93.7466C322.1 93.3113 320.911 92.8759 317.775 94.2908C316.586 94.8349 315.397 95.5968 315.397 95.5968C315.397 95.5968 315.829 94.0731 316.045 93.0936C316.262 92.0052 316.586 90.1551 316.262 90.0462C316.079 89.985 316.034 90.0614 315.894 90.2947C315.786 90.4764 315.62 90.7533 315.289 91.1346C315.238 91.1983 315.19 91.2591 315.145 91.3166C314.805 91.7493 314.615 91.9925 314.424 91.8964C314.226 91.8302 314.189 91.6029 314.141 91.3124C314.111 91.1255 314.076 90.9123 313.991 90.6992C313.775 90.1551 313.342 89.3932 313.126 89.502C312.938 89.597 312.79 90.2309 312.612 90.9966C312.382 91.9855 312.1 93.1945 311.613 93.7466C311.288 94.0731 310.964 94.2908 310.531 94.3996C309.883 94.6173 309.234 94.7261 308.585 94.7261C307.828 94.7261 307.072 94.5084 306.315 94.2908C306.276 94.274 306.235 94.2567 306.193 94.2387C305.415 93.9061 304.108 93.3475 303.287 92.0052L303.179 91.7876C302.423 91.6787 301.666 91.4611 300.693 91.0257C300.855 91.4067 301.017 91.8148 301.179 92.2229C301.341 92.631 301.504 93.0392 301.666 93.4201C302.639 95.8144 304.044 100.059 302.747 103.324C301.125 107.242 297.449 108.004 297.017 107.133C296.893 106.844 297.254 106.664 297.838 106.374C298.79 105.9 300.336 105.131 301.341 103.106C302.639 100.494 301.666 97.1205 301.666 97.1205C301.666 97.1205 301.666 99.9502 299.611 101.909C297.884 103.569 296.613 103.449 295.922 103.385C295.662 103.36 295.484 103.343 295.395 103.433C295.046 103.696 295.4 103.889 295.834 104.124C295.938 104.181 296.047 104.24 296.152 104.304C296.584 104.521 297.233 104.739 297.233 104.739C297.233 104.739 296.584 105.392 295.611 105.827C295.497 105.885 295.388 105.938 295.286 105.989C294.613 106.322 294.206 106.523 294.206 106.807C294.206 107.024 295.395 108.222 296.584 108.766C297.773 109.31 299.179 109.419 299.179 109.419C299.179 109.419 299.287 109.31 298.855 109.963C298.698 110.239 298.541 110.444 298.415 110.609C298.194 110.897 298.068 111.061 298.206 111.269C298.422 111.704 298.746 111.595 300.476 110.507C302.206 109.419 302.639 108.766 302.639 108.766C302.639 108.766 302.639 108.983 302.423 109.636C302.379 109.898 302.284 110.108 302.206 110.278C302.089 110.534 302.012 110.703 302.206 110.834ZM310.531 111.922C310.531 111.922 316.37 112.793 319.397 112.248C322.1 111.704 324.371 111.051 327.398 108.548C330.641 105.61 331.831 101.474 332.371 99.2972C333.128 96.141 333.02 90.3727 333.02 90.3727V60.2255C333.02 60.2255 332.804 53.6955 333.236 52.063C333.777 50.4304 334.75 49.2333 335.291 48.5802C336.588 47.1654 339.291 46.7301 339.291 46.7301C340.048 46.6212 340.264 46.2947 340.156 45.8594C340.048 45.2064 339.615 45.2064 339.615 45.2064H320.046C320.046 45.2064 319.505 45.2064 319.613 45.7505C319.505 46.0771 319.721 46.5124 320.478 46.6212C320.478 46.6212 323.181 47.1654 324.479 48.4714C325.127 49.1244 326.1 50.3216 326.533 51.9541C326.965 53.5866 326.749 60.1167 326.749 60.1167L326.317 90.2639C326.317 90.4629 326.319 90.7605 326.322 91.1289C326.34 93.1782 326.375 97.419 326.1 99.0795C325.668 101.909 325.019 104.195 323.289 106.045C321.56 107.895 319.938 108.439 317.667 108.439C315.397 108.439 313.883 107.786 312.261 106.48C310.64 105.174 307.504 102.236 307.504 102.236L310.531 111.922ZM341.778 93.8554C339.399 94.0731 337.669 92.2229 337.453 90.1551C337.345 89.0667 337.669 88.0872 338.318 87.543C339.075 86.5635 340.156 86.0193 340.913 85.9105C341.847 85.806 342.583 86.1031 343.118 86.3196C343.14 86.3285 343.162 86.3373 343.183 86.3458C343.287 86.3807 343.391 86.4268 343.488 86.4697C343.693 86.5607 343.867 86.6375 343.94 86.5635C344.156 86.4547 344.156 86.1282 344.048 85.8017C343.832 85.3663 343.508 84.931 343.075 84.6045C342.535 84.1692 341.778 84.0603 340.913 84.0603C338.476 84.167 337.078 86.05 336.717 86.5354C336.71 86.5453 336.703 86.5547 336.696 86.5635C336.666 86.533 336.635 86.4938 336.6 86.4485C336.51 86.3324 336.389 86.1759 336.156 86.0193C335.615 85.6928 335.182 85.584 334.966 85.8017C334.882 85.8866 334.929 85.9716 335.005 86.1084C335.027 86.1468 335.051 86.1893 335.074 86.237C335.109 86.3073 335.167 86.3889 335.232 86.4819C335.369 86.6769 335.542 86.9217 335.615 87.2165C335.775 87.5381 335.757 87.919 335.737 88.3593C335.73 88.5151 335.723 88.6783 335.723 88.849C335.723 88.9981 335.717 89.1699 335.711 89.3565C335.691 89.9876 335.664 90.7892 335.831 91.4611C336.264 93.7466 338.318 96.0321 341.453 96.141C341.778 96.141 342.102 96.141 342.426 96.0321C343.832 95.5968 344.697 94.8349 345.346 94.0731C345.391 94.0731 345.418 94.0731 345.441 94.0814C345.473 94.0927 345.5 94.1193 345.562 94.1819L345.562 94.182C346.102 94.6173 347.184 95.488 347.94 95.9233C348.157 95.1614 348.265 94.1819 348.265 93.6378C348.049 93.5289 346.859 92.6582 345.129 90.8081C343.616 89.2844 343.183 88.7402 343.183 88.7402C342.967 88.5225 341.994 87.7607 341.021 87.7607C340.156 87.7607 339.832 87.9784 339.832 87.9784L340.048 88.3049C340.09 88.3474 340.182 88.4728 340.329 88.6747C340.559 88.9899 340.926 89.4916 341.453 90.1551C342.242 91.1249 343.101 91.9519 343.571 92.4046C343.681 92.5107 343.77 92.5962 343.832 92.6582L344.048 92.7671C343.508 93.3113 342.751 93.7466 341.778 93.8554ZM335.723 67.4086C335.723 67.4086 335.507 68.8235 335.939 71.8708C336.156 73.5034 336.48 75.027 336.804 75.7889L338.967 74.8094C338.931 74.632 338.862 74.3737 338.776 74.057C338.599 73.4022 338.356 72.498 338.21 71.5443C337.885 69.6942 337.994 69.2588 337.994 69.2588C337.561 68.8235 336.372 67.6263 335.723 67.4086ZM335.074 65.2319C335.074 65.2319 336.264 65.5584 337.777 66.9733C338.75 67.844 339.615 68.8235 340.264 69.6942L340.696 66.9733C340.491 66.7665 340.286 66.538 340.07 66.2979C339.604 65.7798 339.091 65.2084 338.426 64.6878C337.453 63.8171 335.831 62.9464 335.074 62.6199V65.2319ZM358.536 111.269C360.374 110.725 361.563 109.31 362.212 107.133C362.536 106.263 362.536 105.065 362.212 103.651C361.996 102.889 361.239 101.147 358.752 99.5148C357.569 98.7494 356.254 98.3162 355.633 98.1115C355.459 98.0543 355.34 98.0149 355.292 97.9911C355.699 97.0089 356.35 96.6423 356.648 96.4746C356.746 96.4193 356.806 96.3856 356.806 96.3586C356.806 96.2498 356.049 95.8144 355.292 96.0321C354.644 96.141 353.995 96.794 353.779 97.1205C353.702 97.4283 353.626 97.6817 353.473 98.1886C353.41 98.3985 353.333 98.6519 353.238 98.9707C353.539 99.1222 354.073 99.3675 354.646 99.6304C355.306 99.934 356.018 100.261 356.482 100.494C358.86 101.692 359.942 102.998 360.374 104.521C360.59 105.283 360.59 105.936 360.374 106.589C359.833 108.657 358.104 109.963 356.374 109.528C355.292 109.31 354.428 108.657 353.995 107.895C353.671 107.242 353.563 106.48 353.887 105.718C354.103 105.065 354.428 104.848 354.752 104.739C355.184 104.63 355.617 104.63 355.941 104.848C356.698 105.174 356.698 105.718 356.698 106.154C356.698 106.371 356.698 106.589 356.806 106.698C356.914 106.698 357.131 106.698 357.239 106.589C357.563 106.48 357.779 105.936 357.779 105.392C357.779 104.63 357.347 103.651 356.049 103.106C354.752 102.562 353.022 103.324 352.373 104.739C351.458 106.685 352.074 108.438 352.24 108.91C352.25 108.94 352.259 108.964 352.265 108.983C352.265 109.03 352.206 109.097 352.12 109.192C352.007 109.319 351.848 109.497 351.725 109.745C351.292 110.398 351.292 111.051 351.4 111.269C351.4 111.378 351.508 111.378 351.508 111.378C351.616 111.378 351.725 111.269 351.833 111.16C351.941 111.051 352.157 110.834 352.481 110.616C353.042 110.334 353.521 110.377 353.711 110.394C353.741 110.396 353.764 110.398 353.779 110.398C354.86 111.051 355.833 111.487 357.022 111.487C357.455 111.487 357.995 111.487 358.536 111.269ZM359.185 96.5763C360.59 96.4675 362.212 95.1614 362.753 92.2229C362.969 90.9169 362.645 89.3932 361.239 88.6314C360.482 87.543 359.509 86.89 358.32 86.6723C356.698 86.3458 354.428 86.5635 351.725 89.502C351.725 89.5837 351.542 89.849 351.36 90.1142C351.299 90.2027 351.238 90.2911 351.184 90.3727C351.13 90.2639 351.103 90.1278 351.076 89.9918C351.049 89.8558 351.022 89.7197 350.968 89.6109C350.643 88.5225 349.887 86.6723 348.373 84.1692L348.373 84.1691C347.508 82.8631 346.859 81.8836 346.211 81.1218C346.086 80.9468 345.962 80.7776 345.839 80.6101C345.427 80.0485 345.03 79.507 344.697 78.8363C343.94 77.3126 343.724 74.5917 344.048 74.1564C344.048 74.0475 344.156 74.0475 344.156 74.0475C344.481 74.1564 344.589 74.374 344.697 75.0271C344.805 75.6801 345.021 76.8772 345.886 78.2921C346.51 79.3678 346.986 79.9266 347.437 80.4552C347.534 80.5683 347.629 80.6801 347.724 80.7953L347.724 80.7954C348.157 81.3395 348.589 81.8837 349.238 82.7543C350.535 84.7133 350.86 85.584 350.86 85.584L350.968 85.8017V85.584C350.968 85.584 350.427 81.8836 350.968 78.0744C351.292 76.1154 351.941 74.4829 352.373 73.3946L352.373 73.3945C352.413 73.3001 352.452 73.2106 352.489 73.126C352.746 72.5281 352.9 72.1704 352.806 71.9797C352.806 71.8708 352.698 71.762 352.59 71.762C352.334 71.762 352.013 72.0985 351.571 72.5597C351.451 72.6851 351.323 72.8196 351.184 72.9592C351.076 73.1769 350.86 73.3945 350.643 73.6122L350.643 73.6122C349.914 74.3468 349.366 75.2039 349.093 75.6324C349.001 75.7753 348.941 75.8705 348.913 75.8977C348.805 75.8977 347.4 75.4624 347.292 72.5239C347.203 70.9134 347.333 69.8914 347.442 69.0345C347.466 68.849 347.489 68.6713 347.508 68.497C347.616 68.0616 347.724 67.6263 347.724 67.0821C347.724 66.8645 347.724 66.7556 347.616 66.7556C347.292 66.6468 346.319 67.844 345.778 68.9323C345.56 69.3718 345.488 69.7619 345.432 70.0696C345.405 70.2192 345.381 70.3492 345.346 70.456C345.31 70.5648 345.286 70.6616 345.265 70.7422C345.225 70.9034 345.201 71.0002 345.129 71.0002H345.021C344.697 70.7825 344.156 69.9118 344.048 68.3881V66.9733C344.048 66.3203 344.048 65.8849 343.832 65.7761C343.724 65.6673 343.616 65.6673 343.508 65.7761C343.183 65.9938 342.859 66.538 342.535 67.4086C342.318 68.0616 341.994 69.2588 341.886 70.8913C341.709 73.4769 341.822 75.3321 341.868 76.0979C341.879 76.2669 341.886 76.3829 341.886 76.4419C341.67 76.4419 340.696 76.4419 339.399 76.8772C338.102 77.2037 335.831 78.2921 335.939 78.8363C336.047 79.0539 336.48 79.0539 337.02 78.9451C337.453 78.8363 337.885 78.8363 338.21 78.8363C338.858 78.9451 339.615 79.2716 339.832 79.3804C339.615 79.4893 338.858 79.9246 337.777 81.013C337.711 81.0795 337.644 81.1467 337.576 81.2143C336.757 82.0314 335.872 82.913 336.372 83.5161C336.466 83.7057 336.806 83.5651 337.249 83.3819C337.315 83.3547 337.383 83.3266 337.453 83.2985C338.534 82.7543 340.48 81.8836 342.859 82.8631C345.562 83.9515 347.184 85.584 348.697 88.849C349.022 89.7197 349.346 90.6992 349.562 91.8964C350.103 94.8349 349.454 98.5353 346.751 101.909C345.33 103.647 344.576 104.328 343.594 105.216C343.53 105.274 343.465 105.332 343.399 105.392C339.94 108.33 337.885 108.875 337.669 108.439C337.61 108.26 338.365 107.72 339.398 106.981C340.247 106.374 341.284 105.633 342.21 104.848C345.454 102.018 346.967 100.168 346.967 100.168C346.967 100.168 343.94 102.345 341.129 102.127C339.993 101.974 339.122 101.288 338.665 100.928C338.47 100.774 338.35 100.679 338.318 100.712C337.994 101.039 338.534 102.236 338.75 102.562C338.967 102.998 339.399 103.324 339.399 103.324C339.399 103.324 339.291 103.542 338.318 103.542C337.753 103.542 337.464 103.309 337.302 103.179C337.216 103.109 337.166 103.069 337.129 103.106C336.912 103.215 337.02 103.868 337.669 104.521C338.318 105.174 338.967 105.392 338.967 105.392C338.967 105.392 337.994 105.718 336.48 105.718C335.882 105.718 335.284 105.581 334.809 105.472C334.34 105.364 333.993 105.284 333.885 105.392C333.549 105.731 333.932 106.069 334.373 106.459C334.499 106.57 334.63 106.686 334.75 106.807C335.291 107.351 335.615 107.351 335.615 107.351C335.615 107.351 335.507 108.004 333.885 108.222C332.965 108.395 332.137 108.199 331.546 108.06C331.027 107.937 330.692 107.858 330.641 108.113C330.425 108.766 332.479 110.507 334.858 110.725C337.129 110.942 339.183 109.854 339.183 109.854C339.183 109.854 339.075 110.289 338.102 111.487C337.607 112.04 337.224 112.312 336.995 112.474C336.775 112.631 336.698 112.686 336.804 112.793C337.237 113.228 338.75 113.01 343.94 108.222V108.548C344.264 113.446 349.022 112.357 349.022 112.031C348.975 111.937 348.789 111.884 348.531 111.81C348.189 111.712 347.723 111.579 347.292 111.269C346.319 110.616 346.427 110.181 346.427 110.181C346.427 110.181 346.643 110.398 347.292 110.398C347.94 110.398 348.265 110.398 348.265 110.181C348.265 110.121 348.145 110.07 347.961 109.992C347.47 109.783 346.525 109.38 346.211 108.113C345.994 107.133 346.319 106.263 346.859 105.61C351.184 100.168 351.833 97.1205 352.157 95.0526C352.157 94.6173 352.481 92.3317 353.454 90.8081C354.211 89.6109 355.292 88.5225 356.914 88.196C357.131 88.0872 357.347 88.0872 357.563 88.0872H357.671H357.779C359.185 88.196 359.725 88.849 360.05 89.502C360.59 90.4816 360.482 91.5699 359.833 92.5494L359.401 92.9848C359.185 93.0936 359.077 93.3113 359.077 93.4201C359.077 93.5794 359.135 93.6221 359.208 93.6763C359.235 93.6961 359.264 93.7174 359.293 93.7466C359.509 93.7466 359.725 93.7466 360.05 93.6378H360.158C360.374 93.4201 360.482 93.4201 360.59 93.4201V93.5289C360.59 93.5533 360.591 93.5782 360.592 93.6039C360.599 93.9233 360.61 94.3637 359.509 95.2703C359.077 95.5968 358.752 95.7056 358.428 95.8144C358.212 95.8144 357.995 95.9233 357.995 96.0321V96.2498C358.104 96.4675 358.428 96.5763 358.86 96.5763H359.185ZM336.047 61.2051L338.102 62.5111C338.12 62.5016 338.142 62.4905 338.166 62.4779C338.418 62.3462 338.971 62.0568 340.156 61.8581C341.129 61.7492 341.886 61.7492 342.426 61.8581C342.859 61.9669 343.075 61.9669 343.183 61.8581C343.399 61.3139 342.21 60.1167 341.237 59.6814C340.264 59.246 339.183 59.3549 338.858 59.4637C339.615 57.5047 340.588 55.1103 341.561 53.8043C343.075 51.7365 346.535 48.2537 352.049 48.4714C357.779 48.6891 360.266 53.2601 360.266 57.6135C360.266 59.3549 359.617 61.2051 358.536 62.6199C357.347 64.1436 355.833 65.0143 354.211 65.2319C351.4 65.5584 348.913 63.7083 348.481 61.0962C348.157 59.3549 348.481 57.7224 349.238 56.7428C349.778 55.8722 350.752 55.4368 351.833 55.4368C352.698 55.4368 353.238 55.7633 353.563 56.0898C353.995 56.5252 354.211 57.1782 354.211 57.8312C354.211 59.0882 353.51 59.4378 353.072 59.6563C353.055 59.6649 353.038 59.6732 353.022 59.6814C352.947 59.732 352.883 59.7708 352.83 59.8033C352.653 59.9108 352.59 59.9496 352.59 60.1167C352.63 60.1572 352.655 60.2128 352.682 60.2723C352.728 60.3725 352.778 60.4837 352.914 60.5521C353.238 60.7697 353.887 60.7697 354.536 60.5521C355.401 60.2255 356.266 59.246 356.266 57.1782C356.157 55.2192 354.428 53.2601 352.481 53.1513C349.346 52.9336 347.4 55.2192 347.4 55.2192H347.292C347.292 55.2192 346.751 54.8927 345.994 54.7838C345.021 54.5661 344.373 54.8927 344.156 55.1103V55.2192C344.156 55.2192 344.264 55.328 344.481 55.4368C344.805 55.5457 345.129 55.7633 345.562 56.0898C346.319 56.8517 346.535 57.8312 346.535 57.8312C346.211 60.3344 346.427 62.5111 348.049 64.7966C350.103 67.6263 353.022 67.6263 354.319 67.6263C354.525 67.6263 354.731 67.67 354.881 67.7021C354.968 67.7206 355.037 67.7351 355.076 67.7351C355.401 67.844 355.509 68.1705 355.509 68.3881C355.509 68.6058 355.509 68.8235 355.076 69.15C354.428 69.6942 354.211 70.1295 354.428 71.3267C354.536 71.9797 354.968 72.7415 355.401 73.5033L355.401 73.5034C355.941 74.2652 356.374 75.1359 356.482 75.8977C356.798 78.0211 356.6 79.2123 356.49 79.8756C356.487 79.8923 356.484 79.9086 356.482 79.9246V80.4688C356.544 80.5314 356.57 80.558 356.602 80.5693C356.626 80.5776 356.652 80.5776 356.698 80.5776C357.022 80.5776 357.779 79.9246 358.32 79.1628C358.644 78.6186 358.644 77.8567 358.644 77.3126C358.644 76.8772 358.644 76.6596 358.752 76.5507H358.86C360.05 76.7684 360.158 78.9451 360.05 79.8158C360.05 80.1423 359.942 80.4688 359.833 80.6864C359.725 80.9041 359.725 81.0129 359.833 81.2306C359.942 81.3395 360.266 81.3395 360.482 81.2306C360.59 81.1218 360.698 81.1218 360.807 81.1218C360.915 81.1218 361.023 81.1218 361.131 81.2306C361.347 81.666 361.023 82.4278 360.374 82.8631C360.32 82.9176 360.266 82.9448 360.212 82.972C360.158 82.9992 360.104 83.0264 360.05 83.0808C359.999 83.1113 359.95 83.1408 359.902 83.1695C359.433 83.4489 359.087 83.6554 359.185 83.9515C359.185 83.9515 359.185 84.0603 359.293 84.0603C359.833 84.1692 361.131 84.0603 361.996 83.1896C363.185 82.2101 363.509 80.9041 363.293 78.7274C363.077 76.5507 361.239 74.9182 361.239 74.9182V74.8094C361.239 74.8094 361.996 74.7005 362.645 74.2652C363.509 73.6122 363.942 73.1769 363.834 72.8504C363.726 72.7415 363.293 72.6327 362.861 72.6327C362.678 72.602 362.478 72.58 362.269 72.5569C361.733 72.498 361.134 72.4319 360.59 72.1973C359.293 71.762 358.212 70.7825 357.779 69.6942C357.455 68.9323 357.347 67.844 358.428 66.538L358.644 66.3203C360.266 64.9054 362.753 62.7287 362.969 57.5047C363.077 54.2396 361.78 51.8453 361.131 50.6481C360.915 50.3216 360.807 50.1039 360.807 49.9951C360.807 49.7774 361.023 49.5598 361.347 49.2333L361.347 49.2333C361.381 49.2104 361.418 49.1863 361.456 49.161C361.784 48.9446 362.257 48.6319 362.645 48.1449C363.293 47.2742 363.509 46.5124 363.509 46.2947C363.401 46.2947 363.185 46.4036 362.969 46.5124C362.645 46.7301 362.104 46.9477 361.563 47.0566C360.59 47.3831 359.077 47.0566 357.671 46.7301C357.563 46.7301 357.482 46.7029 357.401 46.6756C357.32 46.6484 357.239 46.6212 357.131 46.6212C355.725 46.2947 353.887 45.9682 351.941 45.9682C348.373 45.9682 344.264 47.1654 340.913 50.8658C337.736 54.3831 336.426 59.6749 336.069 61.1188C336.061 61.1493 336.054 61.1781 336.047 61.2051ZM598.45 108.548C593.584 106.916 587.962 96.794 583.962 89.3932C583.788 89.0828 583.617 88.7769 583.448 88.4763L583.448 88.4761C581.317 84.6666 579.65 81.6872 578.448 80.5776C585.475 77.8568 589.584 72.1974 589.584 65.4497C589.584 55.2192 581.799 48.5803 569.69 48.5803C568.825 48.5803 567.42 48.5803 566.014 48.6891C565.104 48.6891 564.165 48.7192 563.274 48.7478C562.47 48.7735 561.707 48.798 561.041 48.798C557.365 48.798 555.851 48.798 553.04 48.5803C552.932 48.5803 552.932 48.5803 552.824 48.6891C552.824 48.6891 552.716 48.798 552.716 48.9068V49.3421C552.716 49.451 552.824 49.5598 552.932 49.5598C555.743 49.9951 556.716 51.0835 556.716 56.8517V101.365C556.716 108.004 555.635 108.222 552.824 108.657C552.716 108.657 552.607 108.766 552.607 108.875V109.31C552.607 109.356 552.607 109.383 552.616 109.407C552.627 109.439 552.653 109.465 552.716 109.528C552.716 109.528 552.824 109.636 552.932 109.636C554.662 109.528 556.932 109.419 560.176 109.419C563.635 109.419 566.338 109.528 567.42 109.636C567.528 109.636 567.528 109.636 567.636 109.528C567.636 109.528 567.744 109.419 567.744 109.31V108.875C567.744 108.766 567.636 108.657 567.528 108.657C564.717 108.222 563.635 108.004 563.635 101.365V82.4278H568.717C569.582 82.4278 570.771 82.319 572.177 82.1013C573.513 83.3499 574.933 85.9546 575.991 87.8959C576.132 88.1544 576.266 88.4012 576.393 88.6314C576.47 88.7857 576.547 88.9263 576.619 89.058C576.749 89.2981 576.864 89.5089 576.934 89.7198C586.665 108.113 587.746 109.201 596.612 109.636C597.585 109.636 597.909 109.636 598.774 109.528C598.882 109.528 598.99 109.419 598.99 109.31V108.766C598.828 108.711 598.72 108.657 598.639 108.616C598.558 108.575 598.504 108.548 598.45 108.548ZM582.016 66.4292C582.016 75.7889 577.258 80.0335 567.095 80.0335H563.419V51.7365C565.798 51.0835 567.42 50.9747 569.15 50.9747C576.934 50.9747 582.016 57.0694 582.016 66.4292ZM432.261 74.215L432.49 74.3749L432.705 74.5242C438.911 78.831 445.354 83.3024 445.14 92.9856C445.14 102.672 438.22 109.528 428.274 109.528C425.354 109.528 423.3 109.093 421.462 108.658L421.21 108.603C419.791 108.296 418.446 108.005 416.813 108.005C416.272 108.005 416.056 108.005 415.624 108.114C415.516 108.114 415.516 108.114 415.407 108.005C415.299 108.005 415.299 107.896 415.299 107.787C415.407 107.352 415.407 106.372 415.407 105.719C415.407 104.849 415.299 103.978 415.191 103.107L415.191 103.107L415.164 102.863C415.066 101.98 414.975 101.166 414.975 100.169C414.975 99.5157 415.083 97.1213 415.948 95.0535C415.948 95.0535 416.056 94.9446 416.164 94.9446H416.597C416.705 94.9446 416.813 94.9446 416.813 95.0535C416.921 95.1623 416.921 95.1623 416.921 95.2711V95.4888C416.921 95.8302 416.892 96.1418 416.863 96.4393C416.838 96.7108 416.813 96.9705 416.813 97.2302C416.813 103.651 422.976 107.025 429.03 107.025C434.328 107.025 439.626 103.76 439.626 96.4683C439.626 88.8084 434.101 84.9986 428.318 81.0102L428.165 80.905L427.933 80.7422C421.949 76.5484 415.732 72.1916 415.732 63.2738C415.732 54.6759 421.895 48.6899 430.76 48.6899C432.951 48.6899 434.806 49.0278 436.473 49.3315L436.475 49.3317L436.478 49.3323C436.701 49.373 436.922 49.4132 437.139 49.4518C438.653 49.7783 439.95 49.996 441.356 49.996C441.788 49.996 442.221 49.996 442.653 49.8871C442.761 49.8871 442.761 49.8871 442.87 49.996C442.978 49.996 442.978 50.1048 442.978 50.2136C442.965 50.4258 442.951 50.6332 442.938 50.8374L442.938 50.8381C442.845 52.3099 442.761 53.6221 442.761 55.4377C442.761 56.6349 442.761 58.5939 442.87 59.7911C442.87 59.8455 442.843 59.8727 442.816 59.8999C442.788 59.9271 442.761 59.9543 442.761 60.0087C442.653 60.1176 442.653 60.1176 442.545 60.1176H442.113C442.005 60.1176 441.897 60.0087 441.897 59.8999C440.707 54.0228 436.923 50.8666 430.977 50.8666C424.057 50.8666 421.57 55.4377 421.57 59.6822C421.57 66.7675 426.725 70.3584 432.261 74.215ZM490.656 79.4901C490.656 64.3621 501.793 48.6899 520.497 48.6899C536.715 48.6899 549.473 62.1854 549.473 79.2725C549.473 96.2507 536.499 109.528 519.848 109.528C501.576 109.528 490.656 94.1828 490.656 79.4901ZM519.848 107.025C533.147 107.025 541.472 96.5772 541.472 79.7078C541.472 58.5939 529.795 51.0843 519.848 50.9755C504.279 50.9755 498.765 66.1035 498.765 79.1636C498.765 96.5772 506.658 107.025 519.848 107.025ZM492.604 48.7988V49.0165C491.955 51.1931 490.982 55.22 490.982 56.526C490.982 56.6349 490.874 56.7437 490.766 56.7437H490.225C490.117 56.7437 490.009 56.7437 490.009 56.6349V56.4172C490.009 56.2657 490.032 56.0908 490.057 55.9034L490.057 55.9032C490.086 55.6866 490.117 55.4533 490.117 55.22C490.117 52.9345 488.171 52.3903 473.683 52.3903V101.475C473.683 108.114 474.764 108.331 477.576 108.767C477.684 108.767 477.792 108.875 477.792 108.984V109.42C477.792 109.528 477.684 109.637 477.684 109.637C477.576 109.746 477.576 109.746 477.467 109.746C476.494 109.637 473.683 109.528 470.332 109.528C467.196 109.528 464.818 109.637 463.196 109.746C463.088 109.746 462.98 109.637 462.98 109.637C462.917 109.575 462.891 109.548 462.88 109.516C462.871 109.493 462.871 109.466 462.871 109.42V108.984C462.871 108.875 462.98 108.767 463.088 108.767C465.899 108.331 466.98 108.114 466.98 101.475V52.608C454.33 52.608 450.546 52.608 448.167 57.7232C448.167 57.7232 448.059 57.8321 447.951 57.8321H447.519C447.411 57.8321 447.302 57.8321 447.302 57.7232C447.24 57.6607 447.214 57.6341 447.203 57.6021C447.194 57.5785 447.194 57.5519 447.194 57.5055C447.519 55.9819 447.951 54.4582 448.384 52.9345C448.484 52.5653 448.594 52.1858 448.708 51.7927L448.708 51.792C448.965 50.9106 449.24 49.9612 449.465 48.9076C449.465 48.7988 449.573 48.6899 449.681 48.6899C468.061 49.1253 488.496 48.7988 492.388 48.6899C492.496 48.6899 492.604 48.6899 492.604 48.7988ZM410.325 48.5808C408.703 48.6897 405.568 48.6897 402.757 48.6897H402.757C401.107 48.6897 399.354 48.6549 397.829 48.6247H397.829C396.655 48.6014 395.616 48.5808 394.864 48.5808C394.756 48.5808 394.756 48.5808 394.648 48.6897C394.648 48.6897 394.54 48.7985 394.54 48.9073V49.3427C394.54 49.4515 394.648 49.5604 394.756 49.5604C397.567 49.9957 399.513 50.3222 399.513 56.5258V92.6588C399.513 99.5154 396.269 106.807 391.08 106.807C390.107 106.807 389.242 106.699 388.377 106.59C384.701 105.719 382.538 103.107 381.133 101.257C381.025 101.148 380.944 101.012 380.863 100.876C380.781 100.74 380.7 100.604 380.592 100.495C379.079 98.3182 378.43 96.2504 378.43 96.2504C378.322 96.0327 378.214 95.9239 377.997 96.0327C377.781 96.0327 377.673 96.2504 377.673 96.468L378.862 105.937C378.862 106.045 378.97 106.154 379.079 106.263C382.43 108.44 386.755 109.093 387.512 109.202C388.917 109.419 389.999 109.419 390.647 109.419H391.512C400.162 109.419 406 102.345 406 91.7882V56.5258C406 50.431 407.406 50.1045 410.325 49.5604H410.433C410.541 49.5604 410.649 49.4515 410.649 49.3427V48.9073C410.649 48.7985 410.649 48.7985 410.541 48.6897C410.541 48.6897 410.433 48.5808 410.325 48.5808Z" fill="#990000"/>
</svg>
