<svg width="200" height="160" viewBox="0 0 200 160" fill="none" xmlns="http://www.w3.org/2000/svg">
<rect width="200" height="160" fill="white"/>
<path fill-rule="evenodd" clip-rule="evenodd" d="M102.552 60.0858C102.51 60.0429 102.467 60 102.382 60C99.8237 60.0429 86.3512 60.2574 74.2856 60C74.2003 60 74.1151 60.0429 74.1151 60.1287C74.0768 60.2764 74.0395 60.4211 74.0028 60.5633L74.0028 60.5634C73.7945 61.3712 73.6078 62.0952 73.3903 62.7882C73.0918 63.8177 72.836 64.7614 72.6229 65.7479C72.6229 65.7908 72.6229 65.8766 72.6655 65.9195C72.7081 65.9624 72.7508 66.0053 72.7934 66.0053H73.0492C73.1345 66.0053 73.1771 65.9624 73.2197 65.8766C74.7972 62.5308 77.3127 62.4879 85.5837 62.4879L85.5837 94.5734C85.5837 98.9058 84.9016 99.0345 83.0257 99.3348C82.9404 99.3348 82.8551 99.4206 82.8551 99.5063V99.7637C82.8551 99.8066 82.8551 99.8495 82.8978 99.8924C82.9404 99.9353 82.983 99.9353 83.0257 99.9353C83.125 99.9313 83.2284 99.9269 83.3359 99.9223C83.4233 99.9185 83.5133 99.9146 83.6062 99.9105L83.6065 99.9105C84.626 99.8659 85.9793 99.8066 87.7155 99.8066C89.9325 99.8066 91.7231 99.8924 92.4053 99.9353C92.4479 99.9353 92.4905 99.9353 92.5331 99.8924C92.5758 99.8495 92.5758 99.8066 92.5758 99.7637V99.5064C92.5758 99.4206 92.4905 99.3348 92.4053 99.3348C90.572 99.0345 89.8472 98.9058 89.8472 94.5734V62.5308C99.3547 62.5308 100.634 62.9169 100.634 64.3753C100.634 64.6327 100.591 64.9758 100.548 65.1474C100.548 65.1903 100.548 65.2761 100.591 65.319C100.634 65.3619 100.676 65.4048 100.719 65.4048H101.06C101.145 65.4048 101.231 65.319 101.231 65.2332C101.401 64.3753 101.998 61.7587 102.467 60.3003C102.595 60.2145 102.595 60.1287 102.552 60.0858ZM135.508 80.4601C135.508 91.527 130.051 98.3902 121.269 98.3902C112.571 98.3902 107.412 91.5699 107.412 80.117C107.412 71.5808 111.036 61.5863 121.269 61.5863C127.877 61.6292 135.508 66.5621 135.508 80.4601ZM121.738 60.085C109.459 60.085 102.168 70.3798 102.168 80.3314C102.168 90.0257 109.331 100.02 121.311 100.02C132.226 100.02 140.795 91.3126 140.795 80.1599C140.752 68.8785 132.396 60.085 121.738 60.085ZM62.3907 76.9432C58.7241 74.4124 55.2281 71.9674 55.2281 67.2918C55.2281 64.5036 56.8482 61.5439 61.4101 61.5439C65.3324 61.5439 67.8052 63.6028 68.5726 67.4634C68.5726 67.5492 68.6579 67.635 68.7432 67.635H69.0416C69.0843 67.635 69.1269 67.635 69.1695 67.5921C69.2122 67.5492 69.2122 67.5063 69.2122 67.4634C69.1695 66.6913 69.1695 65.3615 69.1695 64.5894C69.1695 63.2597 69.2122 62.316 69.3401 61.1149C69.3401 61.072 69.3401 60.9862 69.2974 60.9433C69.2548 60.9004 69.2122 60.9004 69.1269 60.9004C68.8285 60.9433 68.5727 60.9433 68.2742 60.9433C67.4179 60.9433 66.5616 60.7864 65.6679 60.6226L65.5456 60.6002L65.3397 60.563C64.1996 60.3571 62.9327 60.1283 61.3248 60.1283C55.4839 60.0425 51.4336 63.9889 51.4336 69.651C51.4336 75.5396 55.5089 78.3739 59.4704 81.1291L59.6194 81.2327C63.4991 83.8922 67.1231 86.3801 67.1231 91.4417C67.1231 96.246 63.627 98.3478 60.1737 98.3478C56.166 98.3478 52.1584 96.1173 52.1584 91.9136C52.1584 91.5704 52.201 91.1844 52.2437 90.7983V90.6267C52.2437 90.5838 52.2437 90.498 52.201 90.498C52.1584 90.4551 52.1158 90.4551 52.0731 90.4551H51.86C51.7747 90.4551 51.732 90.498 51.6894 90.5838C51.0499 91.8278 51.0073 93.4149 51.0073 93.8867C51.0073 94.3651 51.0487 94.8227 51.0882 95.2594C51.1054 95.4492 51.1222 95.6351 51.1352 95.817C51.2204 96.4176 51.2631 96.9323 51.2631 97.5328V97.533C51.2631 98.0048 51.2631 98.6052 51.2204 98.8626C51.2204 98.9055 51.2204 98.9913 51.2631 99.0342C51.3057 99.0771 51.3483 99.0771 51.4336 99.0771C51.732 99.0342 51.86 99.0342 52.201 99.0342C53.3124 99.0342 54.2251 99.2341 55.1693 99.4409L55.1693 99.4409L55.2707 99.4631L55.3222 99.4742C56.5038 99.729 57.8563 100.021 59.7473 100.021C66.2704 100.021 70.8323 95.5597 70.8323 89.1254C70.8323 82.734 66.5262 79.7743 62.3907 76.9432ZM154.055 80.8034C162.752 80.8034 163.776 75.6988 163.776 71.8812C163.776 65.7472 160.45 61.7579 155.377 61.7579C154.183 61.7579 153.16 61.8437 151.625 62.2727L151.625 80.8033L154.055 80.8034ZM165.094 86.9988C167.772 91.7897 171.397 98.2726 174.519 99.334C174.605 99.3769 174.647 99.4198 174.562 99.5056V99.8488C174.562 99.9345 174.477 100.02 174.391 100.02C173.923 100.063 173.667 100.063 173.027 100.063C167.272 99.8488 166.589 99.1195 160.194 87.066C160.066 86.8944 159.938 86.6371 159.811 86.3797L159.786 86.3334C159.102 85.0429 158.009 82.9803 157.082 82.0902C156.229 82.2189 155.462 82.3047 154.865 82.3047H151.582L151.582 94.5727C151.582 98.9051 152.264 99.0337 154.14 99.334C154.225 99.334 154.311 99.4198 154.311 99.5056V99.763C154.311 99.8059 154.311 99.8488 154.268 99.8916C154.225 99.9345 154.183 99.9345 154.14 99.9345C153.458 99.8916 151.625 99.8059 149.408 99.8059C147.703 99.8059 146.367 99.863 145.33 99.9073L145.019 99.9206C144.938 99.924 144.859 99.9272 144.782 99.9303C144.746 99.9318 144.711 99.9332 144.675 99.9345C144.633 99.9345 144.59 99.9345 144.547 99.8916C144.505 99.8488 144.505 99.8059 144.505 99.763V99.5056C144.505 99.4198 144.59 99.334 144.675 99.334C146.551 99.0337 147.233 98.9051 147.233 94.5727L147.233 65.4898C147.233 61.7579 146.594 61.0287 144.761 60.7285C144.675 60.7285 144.59 60.6427 144.59 60.5569V60.2995C144.59 60.2566 144.59 60.2137 144.633 60.1708C144.675 60.1279 144.718 60.1279 144.761 60.1279C146.594 60.2566 147.574 60.2566 149.962 60.2566C150.857 60.2566 152.094 60.2566 153.202 60.2137C153.762 60.2137 154.294 60.1997 154.751 60.1877C155.094 60.1787 155.395 60.1708 155.632 60.1708C163.562 60.1708 168.678 64.5032 168.678 71.1949C168.678 75.6131 165.95 79.2591 161.388 81.0607C162.227 81.8649 163.329 83.8373 164.727 86.3422L165.012 86.8516L165.094 86.9988ZM46.415 60.0029L46.4877 60C46.5304 60 46.573 60.0429 46.6156 60.0858L46.6156 60.0858C46.6583 60.1287 46.6583 60.1716 46.6583 60.2145V60.2145V60.4719C46.6583 60.5576 46.6156 60.6434 46.5304 60.6434H46.4451C46.4252 60.648 46.4055 60.6525 46.3859 60.657C44.5494 61.0764 43.6312 61.2862 43.6312 65.2332L43.6312 88.3537C43.6312 95.3027 39.7941 99.9783 34.0811 99.9783H33.5269C33.1005 99.9783 32.3757 99.9354 31.4804 99.8067C30.9688 99.7638 28.1976 99.3348 25.938 97.8764C25.8527 97.8335 25.8101 97.7477 25.8101 97.6619L25 91.4421C25 91.3135 25.0853 91.1848 25.2984 91.1419C25.4263 91.1419 25.5542 91.1848 25.5969 91.3135C25.5969 91.3563 26.0659 92.6432 27.0464 94.1445C27.1317 94.3161 27.2596 94.4877 27.3875 94.6593C28.2828 95.8603 29.775 97.5332 32.1626 98.1338C32.7168 98.2196 33.3137 98.2625 33.9532 98.2625C37.364 98.2625 39.4957 93.4153 39.4957 88.9542L39.4957 65.2332C39.4957 61.1582 38.2593 60.9437 36.3834 60.6434C36.2981 60.6434 36.2128 60.5576 36.2128 60.4718V60.2145C36.2128 60.1716 36.2128 60.1287 36.2555 60.0858C36.2981 60.0429 36.3407 60.0429 36.3834 60.0429C37.4919 60.0858 39.6236 60.1287 41.5421 60.1287C43.2929 60.1287 45.329 60.0467 46.415 60.0029Z" fill="#990000"/>
<rect x="27.0137" y="149.422" width="200" height="2" transform="rotate(-45 27.0137 149.422)" fill="black"/>
</svg>
