<svg width="200" height="142" viewBox="0 0 200 142" fill="none" xmlns="http://www.w3.org/2000/svg">
<rect width="200" height="140" fill="white"/>
<path d="M64.0597 28.954C64.001 29.1602 63.9424 29.3075 63.9424 29.3075L64.0597 28.954Z" fill="#990000"/>
<path fill-rule="evenodd" clip-rule="evenodd" d="M102.149 100.087H2.58252V0H102.149V100.087ZM93.7859 45.3014C93.8153 45.3014 94.7543 45.2131 95.6347 44.624C96.8378 43.8582 97.3954 43.2102 97.1899 42.7389C97.1313 42.5916 96.5444 42.5327 95.9575 42.4738L95.9262 42.4703C95.1367 42.3823 94.0663 42.263 93.0817 41.9141C91.3503 41.2956 90.0005 40.0879 89.3842 38.6447C88.9734 37.7021 88.7973 36.1999 90.2059 34.5799H90.2352L90.4993 34.3443L90.5139 34.3311C92.6267 32.4166 95.7821 29.5573 96.1042 22.8864C96.3096 18.5271 94.6076 15.4343 93.7859 13.9616C93.5219 13.4903 93.3751 13.2252 93.3751 13.0779C93.3751 12.7834 93.6686 12.5772 94.1087 12.3121C94.1592 12.2773 94.212 12.2414 94.2668 12.2043C94.7216 11.8957 95.31 11.4966 95.7814 10.8394C96.6324 9.69062 96.8965 8.74807 96.8378 8.45352C96.8378 8.42406 96.8085 8.39461 96.8085 8.39461C96.7498 8.36516 96.4563 8.51243 96.1629 8.6597C95.6934 8.89534 95.0771 9.18989 94.3435 9.36662C92.9937 9.72007 91.0862 9.33716 89.2669 8.9248C89.1524 8.89196 89.0378 8.86827 88.9183 8.84353C88.8233 8.82389 88.7252 8.80359 88.6213 8.77752C86.7139 8.3357 84.3956 7.95279 81.872 7.98224C77.2355 8.0117 71.9828 9.5728 67.6105 14.315C63.3555 18.9394 61.6535 25.9791 61.272 27.658L63.9424 29.3075C64.1771 29.1013 64.9694 28.7184 66.9355 28.4533C68.08 28.2766 69.107 28.2177 69.8407 28.4239C70.3982 28.5711 70.7797 28.6595 70.8384 28.4828C71.1025 27.8348 69.6352 26.3031 68.3734 25.6846C67.1409 25.066 65.7617 25.2427 65.3216 25.3311C66.2899 22.7685 67.6105 19.6169 68.8723 17.9674C70.8971 15.3165 75.3281 10.8688 82.4589 11.1339C89.9125 11.4285 93.1697 17.2605 93.111 22.9158C93.0817 25.1838 92.26 27.5402 90.8515 29.3664C89.3549 31.3104 87.3888 32.5181 85.276 32.7243C81.6959 33.1072 78.4387 30.7508 77.8811 27.3635C77.4996 25.0366 77.8518 23.0042 78.8495 21.7082C79.6418 20.6772 80.8156 20.1176 82.2535 20.0587C83.3686 19.9998 84.0435 20.5005 84.425 20.9129C84.9825 21.502 85.276 22.3562 85.2173 23.2104C85.0999 24.8598 84.1902 25.3311 83.6033 25.6257C83.2512 25.8024 83.0751 25.9202 83.0751 26.1264C83.0751 26.362 83.2218 26.5682 83.4273 26.7155C83.8968 27.0395 84.6891 27.0689 85.5401 26.7744C86.5965 26.4209 87.7996 25.0366 87.7409 22.4151C87.6823 19.7936 85.3347 17.3783 82.8697 17.2016C78.87 16.8861 76.4279 19.6417 76.2746 19.8148C76.2704 19.8195 76.2679 19.8223 76.2672 19.8231C76.2378 19.8525 76.2085 19.882 76.1791 19.8525C76.1791 19.8525 75.5042 19.4696 74.5652 19.3223C73.3033 19.1456 72.3936 19.5285 72.1295 19.7936C72.0709 19.8231 72.0709 19.882 72.0709 19.882C72.0709 19.9465 72.1962 20.0111 72.3438 20.0872C72.3983 20.1152 72.4557 20.1448 72.511 20.1765C72.8632 20.3532 73.362 20.6183 73.8609 21.0602C74.8879 22.0027 75.1227 23.2104 75.1227 23.2693V23.2987C74.7119 26.5682 74.8586 29.337 77.0301 32.2824C79.7005 35.9348 83.486 35.9054 85.0999 35.8759C85.4814 35.8759 85.8335 35.9054 86.0389 35.9643C86.0558 35.9812 86.063 35.9884 86.0716 35.9915C86.078 35.9937 86.0852 35.9937 86.0976 35.9937C86.5085 36.141 86.6258 36.5828 86.6258 36.8185C86.6258 37.0541 86.5378 37.4076 86.0389 37.7905C85.1879 38.4385 85.0119 39.0865 85.2173 40.6181C85.3347 41.4429 85.8629 42.4149 86.4204 43.4163C86.4537 43.4778 86.4871 43.5395 86.5207 43.6014C87.0498 44.5769 87.603 45.5968 87.7409 46.5385C88.1811 49.3956 87.8877 50.9273 87.7116 51.752C87.6236 52.1055 87.5942 52.3411 87.6529 52.4295C87.7116 52.4884 87.7703 52.5179 87.8877 52.5179C88.3572 52.5179 89.3842 51.752 90.0298 50.7506C90.4407 50.1026 90.47 49.1306 90.47 48.3942C90.47 47.8345 90.47 47.4811 90.6167 47.3633C90.6754 47.3338 90.7341 47.3338 90.7928 47.3338C92.3187 47.6578 92.4654 50.5149 92.3774 51.6048C92.3481 52.1055 92.172 52.459 92.0253 52.7535C91.8492 53.107 91.7612 53.2837 91.9666 53.4899C92.13 53.6812 92.4451 53.5935 92.7476 53.5092C92.771 53.5027 92.7944 53.4962 92.8176 53.4899C92.8433 53.4813 92.8683 53.4727 92.8928 53.4643C93.0364 53.415 93.1618 53.372 93.2871 53.372C93.4632 53.372 93.6099 53.4015 93.6979 53.5782C93.962 54.1084 93.5219 55.0804 92.7002 55.6695C92.6268 55.7137 92.5535 55.7653 92.4801 55.8168C92.4067 55.8684 92.3334 55.9199 92.26 55.9641C91.6144 56.4059 91.0862 56.7888 91.1743 57.1423C91.1743 57.1717 91.2036 57.2012 91.3503 57.2306C91.9666 57.3779 93.6392 57.2306 94.7837 56.1408C96.2216 54.7859 96.6617 53.1953 96.3976 50.3382C96.1705 47.6311 93.9385 45.6132 93.7668 45.458C93.761 45.4528 93.7576 45.4497 93.7566 45.4487C93.7273 45.4193 93.7273 45.3898 93.7273 45.3603C93.7273 45.3309 93.7566 45.3014 93.7859 45.3014ZM91.2916 73.4013C93.111 73.1656 95.2532 71.5456 95.8988 67.746C96.1922 65.9787 95.7227 64.0347 94.7543 62.503C93.8153 61.1776 92.4654 60.2939 90.9689 59.9699H90.9395C88.856 59.4692 85.8335 59.7343 82.3708 63.5634C82.2535 63.6812 81.872 64.2409 81.6372 64.7121C81.5964 64.5891 81.5555 64.4598 81.5118 64.3212C81.4612 64.1611 81.4067 63.9885 81.3438 63.799C80.8743 62.3852 79.9059 60.0288 77.9398 56.8183C76.854 55.051 75.9737 53.9022 75.1814 52.8713L75.1671 52.8525C74.41 51.8588 73.74 50.9794 73.186 49.8964C72.1295 47.864 71.9241 44.4178 72.3056 43.7992C72.3643 43.7403 72.3936 43.7109 72.4523 43.7109C72.8925 43.7698 72.9805 44.1527 73.1273 44.948C73.3033 45.8905 73.5968 47.3044 74.7119 49.1895C75.6392 50.7691 76.3244 51.5383 77.0251 52.3249C77.0561 52.3597 77.0871 52.3946 77.1181 52.4295L77.1348 52.4479C77.7167 53.0903 78.3285 53.7658 79.0842 54.9037C80.8156 57.4368 81.2264 58.615 81.2264 58.615L81.3438 58.939L81.2851 58.5855C81.2558 58.5561 80.5515 53.7844 81.2558 48.8655C81.6323 46.3362 82.4662 44.2661 83.0239 42.8816L83.0458 42.8272C83.4566 41.8258 83.6914 41.2072 83.5446 40.9716C83.486 40.8538 83.3686 40.7654 83.2512 40.7654H83.2218C82.7817 40.7654 82.1654 41.4429 81.4025 42.3265C81.2704 42.459 81.1457 42.599 81.021 42.7389C80.8963 42.8788 80.7716 43.0187 80.6395 43.1512C79.407 44.4767 78.556 45.9494 78.4387 46.1556C78.2039 46.0967 76.4432 45.596 76.2672 41.7963C76.1216 39.2259 76.3513 37.8431 76.5555 36.6138L76.5606 36.5828C76.5826 36.4355 76.6065 36.2901 76.6303 36.1446C76.7018 35.7084 76.7733 35.2721 76.7953 34.7861C76.7953 34.5799 76.766 34.4326 76.6486 34.4032C76.2085 34.2854 74.9173 35.9054 74.2717 37.2897C73.9062 38.0235 73.7962 38.6407 73.7144 39.0999C73.7042 39.1568 73.6945 39.2112 73.6848 39.2632C73.6795 39.2952 73.6744 39.3265 73.6695 39.357C73.6199 39.663 73.5835 39.8871 73.4501 39.9407C73.4207 39.9701 73.362 39.9407 73.3033 39.9112C72.9218 39.6756 72.2763 38.5563 72.1002 36.5239C72.0415 35.8465 72.0415 35.1985 72.0415 34.6977C72.0415 33.873 72.0415 33.3133 71.7774 33.1661C71.66 33.1072 71.484 33.1072 71.3372 33.1955C70.9557 33.4312 70.5156 34.1675 70.1341 35.2574C69.8407 36.1115 69.4298 37.5843 69.2831 39.705C69.0011 43.5832 69.234 46.2915 69.2787 46.8103C69.2805 46.8314 69.282 46.8488 69.2831 46.8625C69.0483 46.8625 67.7278 46.9509 66.0845 47.4811C64.4706 48.0113 61.4774 49.3367 61.6241 50.0731C61.7122 50.456 62.2991 50.3677 63.0327 50.2498C63.1099 50.2402 63.1886 50.2297 63.2685 50.219C63.6743 50.1651 64.1076 50.1074 64.4999 50.132C65.3227 50.1853 66.1696 50.576 66.5192 50.7373C66.5561 50.7543 66.5875 50.7688 66.6127 50.78C66.3486 50.8978 65.3802 51.4575 63.913 52.8419C62.7686 53.9317 61.4774 55.1688 62.123 56.0819C62.3284 56.3764 62.8273 56.1702 63.5609 55.8168C65.0281 55.1393 67.4344 54.0495 70.5743 55.2572C74.0956 56.6121 76.2085 58.7034 78.1746 62.9448C78.6441 64.0936 79.0256 65.4485 79.319 66.9507C80.0233 70.7798 79.231 75.5515 75.7096 79.9108C73.7142 82.385 72.7751 83.1803 71.3079 84.4174C66.7301 88.2465 64.0891 88.865 63.8543 88.3349C63.7428 88.0949 64.6871 87.4293 66.0011 86.5031C67.1066 85.7239 68.4738 84.7602 69.6939 83.7105C73.8609 80.0875 75.827 77.6722 75.827 77.6722C75.827 77.6722 71.8361 80.5588 68.1973 80.2348C66.7398 80.0926 65.6035 79.2074 64.9907 78.7301C64.7151 78.5154 64.5454 78.3832 64.4999 78.438C64.0754 78.9174 64.6584 80.1191 64.9476 80.7152C64.9782 80.7784 65.0056 80.8348 65.0281 80.8828C65.2922 81.3541 65.8204 81.8548 65.8204 81.8548C65.8204 81.8548 65.6737 82.1494 64.4119 82.1788C63.7047 82.1788 63.3212 81.9039 63.0991 81.7447C62.9803 81.6596 62.9078 81.6076 62.8566 81.6486C62.6218 81.8548 62.7979 82.6795 63.6196 83.5043C64.4412 84.2996 65.2335 84.5941 65.2335 84.5941C65.2335 84.5941 64.001 85.0359 62.0643 85.0359C61.3622 85.0224 60.6538 84.8654 60.0622 84.7343C59.368 84.5804 58.8346 84.4622 58.6603 84.653C58.2284 85.1094 58.7299 85.5658 59.2916 86.0769C59.4549 86.2256 59.6234 86.3789 59.7754 86.5381C60.4503 87.245 60.8612 87.245 60.8612 87.245C60.8612 87.245 60.6851 88.0698 58.631 88.3938C57.4809 88.576 56.4323 88.3275 55.6622 88.145C54.9389 87.9736 54.4613 87.8604 54.376 88.217C54.1412 89.0712 56.7529 91.2509 59.8634 91.5454C62.9153 91.8105 65.527 90.3967 65.527 90.3967C65.527 90.3967 65.4976 91.0742 64.1771 92.5763C63.5017 93.3467 63.0029 93.69 62.7144 93.8885C62.4514 94.0695 62.3632 94.1302 62.4751 94.2847C62.974 94.9327 64.9401 94.6382 71.66 88.4527C71.66 88.5263 71.6674 88.5999 71.6747 88.6736C71.682 88.7472 71.6894 88.8209 71.6894 88.8945C72.0709 95.1978 78.2919 93.7545 78.2626 93.3716C78.2491 93.2229 78.0008 93.1487 77.6395 93.0407C77.2137 92.9133 76.6309 92.7391 76.0911 92.3407C74.7706 91.3687 74.976 90.868 74.976 90.868C74.976 90.868 75.2694 91.1331 76.0617 91.192C76.854 91.2509 77.2942 91.2509 77.3236 90.9269C77.3312 90.8654 77.191 90.8059 76.9691 90.7118C76.3408 90.4452 75.0576 89.9009 74.6238 88.2465C74.301 86.9505 74.7999 85.8018 75.4455 85.0065C81.0503 78.0257 81.9307 74.0493 82.3415 71.3689V71.3395C82.349 71.292 82.3581 71.2274 82.3694 71.1478C82.4912 70.2879 82.8618 67.6721 84.0435 65.9198C84.0435 65.9198 84.0729 65.8903 84.0729 65.8609C85.0119 64.3587 86.4204 62.9448 88.5332 62.5325C88.8267 62.4736 89.0908 62.4441 89.3256 62.4441H89.5016C91.409 62.6208 92.0546 63.4456 92.4948 64.3292C93.111 65.5074 92.9643 67.0096 92.172 68.2467C92.0253 68.4823 91.7905 68.6885 91.5851 68.8653C91.5583 68.8921 91.532 68.9182 91.5063 68.9436C91.3066 69.1412 91.1483 69.2978 91.1743 69.4544C91.2036 69.6016 91.2916 69.7194 91.4384 69.8078C91.7025 69.9256 92.0253 69.8962 92.3774 69.7194L92.4948 69.6605C92.7589 69.5133 92.9936 69.3954 93.0817 69.4544C93.111 69.4544 93.1404 69.4838 93.1404 69.5427L93.1416 69.5516C93.2002 69.9627 93.276 70.4941 91.7318 71.7224C91.2036 72.1347 90.7048 72.3409 90.3526 72.4587C90.0592 72.5471 89.8538 72.6355 89.7951 72.7827C89.7657 72.8711 89.7951 72.9595 89.8244 73.0478C89.9418 73.2835 90.3526 73.4307 90.8808 73.4307C90.9982 73.4307 91.1449 73.4307 91.2916 73.4013ZM95.1249 87.0775C95.1308 87.0632 95.1358 87.051 95.1358 87.0388C95.4879 85.8312 95.576 84.2996 95.1065 82.6501C94.8424 81.6486 93.9327 79.4101 90.6754 77.2893C89.0863 76.2501 87.2798 75.6471 86.5366 75.3991C86.3741 75.3448 86.2624 75.3075 86.215 75.2864C86.7073 74.1478 87.4805 73.683 87.8744 73.4462C88.0206 73.3583 88.1145 73.3018 88.1224 73.254C88.1518 73.0773 87.066 72.6355 86.1563 72.8417C85.364 73.0478 84.5424 73.8137 84.2489 74.2849C84.2088 74.4219 84.1752 74.5545 84.1375 74.7037C84.0371 75.1001 83.907 75.6142 83.5446 76.6413C83.8722 76.7947 84.3907 77.0297 84.9686 77.2917C85.9439 77.7337 87.0885 78.2524 87.7703 78.5853C90.9689 80.1464 92.2894 81.9137 92.8763 83.8577C93.1697 84.8297 93.0523 85.7428 92.8469 86.5381C92.1133 89.1596 89.8244 90.8091 87.6236 90.2789C86.127 89.9254 85.0119 89.1596 84.4837 88.1287C84.0435 87.3039 84.0142 86.3025 84.3663 85.2716C84.6304 84.5057 85.0999 84.1523 85.452 84.005C85.9216 83.7988 86.4791 83.8283 86.9486 84.0934C87.8756 84.6167 87.9161 85.3123 87.9452 85.8117L87.9464 85.8312C87.9464 86.1257 87.9757 86.3614 88.1811 86.4498C88.3278 86.5087 88.5332 86.4792 88.7093 86.3614C89.0615 86.0963 89.3256 85.4777 89.3842 84.7414C89.4429 83.8577 88.9147 82.5323 87.2127 81.8253C85.5107 81.1184 83.2805 82.0904 82.4295 83.9166C81.1677 86.6265 82.1654 89.0712 82.3122 89.4247C82.1948 89.513 81.8427 89.8665 81.5492 90.4261C81.0503 91.3098 81.0503 92.1051 81.1677 92.3996C81.1971 92.4585 81.2558 92.5174 81.2851 92.5174C81.4025 92.5469 81.5199 92.4291 81.6959 92.2523C81.9013 92.0462 82.1655 91.781 82.5763 91.5454C83.3686 91.1036 84.1315 91.2214 84.2196 91.2509C85.5988 92.1345 86.8899 92.7236 88.4159 92.7236C89.0321 92.7236 89.707 92.6058 90.4113 92.3996C92.7002 91.7222 94.3435 89.8665 95.1065 87.1567C95.1065 87.1222 95.1165 87.0978 95.1249 87.0775ZM60.0102 32.8715C60.0102 32.8715 61.5948 33.3428 63.5609 35.169C64.6214 36.1516 65.682 37.2861 66.5557 38.2206C66.6248 38.2946 66.6928 38.3672 66.7595 38.4385L67.2877 34.9628C66.5247 34.1086 65.5857 33.1072 64.3532 32.0762C63.1207 31.0453 60.9492 29.8966 60.0102 29.4253V32.8715ZM60.7438 35.6403C60.7438 35.6403 60.509 37.4665 61.0666 41.4134C61.36 43.5342 61.8882 45.5371 62.1523 46.4207L64.9107 45.1247C64.8806 45.0212 64.843 44.8968 64.7998 44.7541C64.5483 43.9228 64.1091 42.4714 63.8837 40.9127C63.5022 38.4974 63.6196 37.9672 63.6196 37.9672C63.1207 37.437 61.6241 35.9348 60.7438 35.6403ZM68.6962 69.8373C65.6444 70.1613 63.4728 67.6871 63.1501 65.0656C62.974 63.7107 63.2968 62.4147 64.0597 61.4132C65.0281 60.1172 66.4367 59.4397 67.4344 59.3219C68.6669 59.1746 69.7233 59.5281 70.3982 59.8521C70.8677 60.0877 71.2198 60.235 71.3666 60.1466C71.66 59.9994 71.66 59.6459 71.5426 59.2041C71.3666 58.6444 70.9557 58.0848 70.3395 57.7019C69.6059 57.2306 68.6375 56.995 67.5518 57.0244C64.3532 57.1423 62.5045 59.6754 62.123 60.2645C62.0643 60.0877 61.8882 59.7637 61.4774 59.4986C60.8318 59.0568 60.1275 58.8801 59.9221 59.1452C59.7977 59.2701 59.8844 59.3951 60.0211 59.592C60.0455 59.6271 60.0715 59.6646 60.0982 59.7048C60.3036 59.9699 60.5971 60.3528 60.8025 60.9714C60.9845 61.4412 60.9591 62.0728 60.9306 62.7844C60.9269 62.8759 60.9232 62.9687 60.9199 63.0627C60.9163 63.1758 60.912 63.2952 60.9074 63.4197C60.874 64.3332 60.8306 65.5203 61.0372 66.4794C61.6828 69.3954 64.3532 72.3704 68.3441 72.4882C68.7842 72.5176 69.2538 72.4587 69.6646 72.3409C71.484 71.8402 72.6871 70.8682 73.5087 69.8667C73.5674 69.8962 73.6555 69.9551 73.7435 70.0434C73.7654 70.0614 73.7881 70.08 73.8115 70.0993C74.4802 70.6488 75.7737 71.7119 76.766 72.2526C77.0301 71.3395 77.2062 70.0434 77.2062 69.366C76.9421 69.1893 75.3281 68.07 73.0979 65.743C71.2199 63.7696 70.633 63.1216 70.633 63.1216C70.2808 62.827 69.0777 61.855 67.8159 61.7961C66.6714 61.7667 66.2899 62.0317 66.2606 62.0612L66.5834 62.5325C66.6157 62.5731 66.6815 62.6628 66.7837 62.8024C67.0526 63.1695 67.5737 63.8808 68.4028 64.9478C69.5765 66.45 71.0144 67.8049 71.4253 68.1878L71.6013 68.394C70.9557 69.0714 70.0167 69.69 68.6962 69.8373ZM39.6449 93.5484C43.1956 92.9593 46.1008 92.1051 49.8569 88.6883C54.0238 84.9181 55.5791 79.4984 56.2834 76.7591C57.2518 72.8122 57.1637 65.3012 57.1637 65.3012V26.3326C57.1637 26.3326 56.8996 17.9674 57.4865 15.8467C58.0734 13.7259 59.3352 12.1943 60.0982 11.399C61.8002 9.66117 65.3509 9.07207 65.3509 9.07207C66.378 8.89534 66.6127 8.39461 66.5247 7.89388C66.4073 7.12805 65.7911 7.06915 65.7911 7.06915L40.4959 7.01024C40.4959 7.01024 39.8503 7.12805 39.733 7.86442C39.6449 8.36516 39.8797 8.86589 40.9067 9.04261C40.9067 9.04261 44.4868 9.60225 46.1595 11.3695C46.9224 12.1648 48.1842 13.6965 48.7711 15.8172C49.358 17.9085 49.0939 26.3031 49.0939 26.3031L48.5364 65.1834C48.5364 65.4796 48.5421 65.9534 48.5492 66.5466C48.5816 69.2563 48.6439 74.4559 48.331 76.5824C47.7734 80.1759 46.9518 83.2097 44.7509 85.5661C42.55 87.9225 40.5253 88.6883 37.5321 88.6883C34.5389 88.6883 32.5728 87.7752 30.46 86.0963C28.3472 84.4174 24.327 80.6177 24.327 80.6177L28.2005 93.1654C28.2005 93.1654 35.7127 94.2258 39.6449 93.5484ZM17.431 91.7811C17.8711 92.1934 20.16 89.6014 21.5392 86.6854C22.9184 83.7399 23.2706 80.6766 22.8304 77.9668C22.5956 76.3762 21.5686 74.1671 20.9523 72.93C22.5369 73.9904 24.2976 74.6089 25.5888 74.8151C29.2569 75.4337 32.5728 75.5809 35.0084 75.0213C35.781 74.8356 36.3679 74.6419 36.8157 74.4941C37.5754 74.2432 37.9344 74.1248 38.119 74.4028C38.4418 74.9035 37.0626 76.229 32.6315 76.9359C28.0244 77.6722 25.2073 76.6119 25.2073 76.6119C25.2073 76.6119 25.266 77.6133 26.88 78.8504C27.5476 79.377 28.128 79.7333 28.6469 80.0519C29.4051 80.5174 30.0318 80.9022 30.6067 81.6192C31.1284 82.2611 31.1676 82.9126 31.1946 83.3628C31.2147 83.6976 31.2281 83.921 31.4284 83.9461C31.7457 84.0058 31.9021 83.5141 32.1242 82.8163C32.2307 82.4814 32.3524 82.0991 32.5141 81.7075C32.9837 80.5293 32.5728 79.3512 32.5728 79.3512C32.5728 79.3512 34.2455 80.765 37.4734 80.441C39.733 80.2053 41.0828 79.793 40.9361 79.3217C40.8628 79.1011 40.6525 79.087 40.2123 79.0575C39.9471 79.0397 39.5984 79.0163 39.1461 78.9388C37.9429 78.7326 37.4734 78.2319 37.4734 78.2319C37.4734 78.2319 39.4395 77.5839 41.8751 75.9049C44.3107 74.226 45.8953 72.0758 45.5432 71.5751C45.2983 71.1953 44.6313 71.4256 43.7984 71.7132C43.5333 71.8048 43.2513 71.9021 42.9609 71.9875C41.2589 72.4882 40.6426 72.4587 40.6426 72.4587C40.6426 72.4587 40.4666 72.2231 41.2295 71.31C41.7708 70.661 42.289 70.3214 42.6617 70.0771C43.0164 69.8446 43.2393 69.6985 43.225 69.4544C43.1956 68.9536 41.611 68.394 37.5321 70.2202C36.0649 70.8682 34.5096 71.8991 34.5096 71.8991C34.5096 71.8991 35.1258 69.9845 35.3606 68.6591C35.3824 68.5385 35.4066 68.4082 35.432 68.271C35.6798 66.9331 36.0505 64.9313 35.6247 64.771C35.3505 64.6678 35.2865 64.7756 35.0936 65.1002C34.9562 65.3314 34.7535 65.6726 34.3629 66.126C34.2135 66.2954 34.0886 66.4447 33.9811 66.5731C33.6028 67.0251 33.4404 67.2192 33.1891 67.1274C32.9041 67.013 32.8528 66.6764 32.7884 66.2534C32.7533 66.023 32.7143 65.7671 32.6315 65.5074C32.3968 64.8005 31.8099 63.8285 31.5751 63.9758C31.3532 64.0995 31.1727 64.8577 30.9509 65.7893C30.6449 67.0748 30.2603 68.6905 29.5797 69.4249C29.1982 69.8373 28.6993 70.1024 28.1711 70.3085C27.3788 70.6325 26.4985 70.7504 25.6475 70.7504C24.6498 70.7504 23.652 70.5736 22.7424 70.2202C22.6997 70.2033 22.6553 70.1859 22.6094 70.1679C21.6148 69.7777 19.9028 69.1061 18.7808 67.3042C18.7808 67.3042 18.6341 67.0391 18.6047 67.0391V67.0096C17.6364 66.8918 16.6386 66.6267 15.4355 66.0671C15.7583 67.0391 16.2572 68.2762 16.6386 69.1893C17.9592 72.3998 19.7785 77.79 18.0472 82.0315C15.9637 87.1272 11.1218 88.0992 10.5936 87.0094C10.4315 86.6839 10.8665 86.4744 11.5862 86.1275C12.8208 85.5327 14.8932 84.5341 16.2278 81.8548C17.9298 78.4086 16.6386 74.0788 16.6386 74.0788C16.6386 74.0788 16.6386 77.7901 13.9683 80.3232C11.7561 82.4143 10.1098 82.2649 9.22504 82.1846C8.90093 82.1552 8.67899 82.1351 8.56884 82.2377C8.12867 82.709 8.86229 83.0625 9.59591 83.4159C10.0654 83.6221 10.8871 83.8283 10.8871 83.8283C10.8871 83.8283 10.0361 84.6236 8.8036 85.2421C8.59416 85.3499 8.40143 85.4459 8.22594 85.5333C7.44252 85.9234 7.00283 86.1423 6.95489 86.4792C6.92554 86.8032 8.5395 88.3938 10.0654 89.0712C11.5914 89.7487 13.4694 89.9254 13.4694 89.9254C13.4694 89.9254 13.6161 89.896 13.1173 90.7796C12.93 91.1033 12.7391 91.3604 12.581 91.5732C12.2933 91.9605 12.1148 92.2009 12.2663 92.4291C12.6478 92.9593 13.0292 92.8709 15.2301 91.4865C17.431 90.1021 18.0472 89.2185 18.0472 89.2185C18.0472 89.2185 17.9885 89.3952 17.7537 90.2789C17.668 90.5909 17.5548 90.8283 17.4628 91.0212C17.3031 91.3561 17.2075 91.5567 17.431 91.7811ZM19.9839 43.7109C19.5731 44.2705 18.8688 45.5665 18.6928 46.7742C19.3971 48.836 20.248 49.6902 20.8349 49.9258C21.3338 48.0407 21.8914 46.1556 22.7717 44.4472C22.625 44.3 21.5979 43.4163 19.9839 43.7109ZM16.0224 57.6724C16.1398 58.0259 18.2526 59.4397 19.0743 59.5281C19.0743 59.5281 18.9862 58.1437 19.2797 56.9655C19.2797 56.9655 17.5483 56.1702 16.4919 54.3146C16.1985 55.2866 16.0224 56.9361 16.0224 57.6724ZM10.9751 41.8258C10.799 42.1792 10.623 42.5916 10.4176 43.1807C9.24377 46.4502 8.86229 48.0113 8.86229 51.4575C8.83295 55.2277 10.0067 58.7034 12.1782 61.207C14.2324 63.5928 17.0495 64.9772 20.1013 65.1245C24.4882 65.33 28.2048 62.6098 29.6241 61.5709L29.6384 61.5605C31.7193 60.0362 35.4712 56.1045 35.8062 55.7534C35.8208 55.7381 35.8289 55.7297 35.8301 55.7284L35.8888 55.6401L35.9475 55.7284C35.9503 55.7312 35.9646 55.7535 35.9894 55.7922C36.2271 56.1618 37.4251 58.0255 38.6472 58.5855C39.6449 59.0568 40.9361 58.9095 41.4936 58.7034C41.6991 58.615 41.7577 58.5855 41.7577 58.5561C41.7577 58.5266 41.611 58.4088 41.4643 58.291L41.4435 58.2731C40.8194 57.7364 39.5546 56.6487 39.3515 54.6681C39.1461 52.6357 43.225 50.7506 46.1595 50.1909L46.2475 47.3338C45.866 47.3633 44.076 47.5105 43.6945 47.6284C38.4771 49.0994 35.1627 52.275 31.9382 55.3644L31.9273 55.375C28.4939 58.6739 25.2367 61.7961 20.1894 61.7961H20.072C18.1646 61.7667 16.2572 60.8536 14.7312 59.1746C12.7651 57.0244 11.65 54.0201 11.8555 51.3102C12.0902 48.1586 13.2053 45.5665 15.1421 43.8287C16.668 42.4738 18.6341 41.6785 20.5708 41.6785H20.6882C22.1848 41.708 23.7107 42.2971 24.8845 43.2691C25.8235 44.0349 26.9387 45.3898 27.056 47.54C27.1441 49.2189 26.5865 50.78 25.5888 51.7226C25.2953 52.0171 23.6814 53.372 21.0404 52.7829C19.8666 52.5179 18.8982 51.5164 18.37 50.6917C17.9885 50.1026 17.7244 49.3957 17.4896 48.6887C17.431 48.512 17.2255 48.3353 16.9908 48.3647C16.6973 48.3942 16.5213 48.8066 16.4626 49.4251C16.3159 51.3102 17.5777 54.3735 20.8349 55.2572C26.1463 56.7004 28.8461 52.7535 29.433 51.104C30.0785 49.3073 30.1079 48.2764 30.1079 48.2764C30.1079 48.2175 30.1666 48.0407 30.2839 48.0113C30.4307 47.9818 30.5481 48.1291 30.6067 48.2469C30.8708 48.6593 32.25 49.484 33.4238 49.16C34.6982 48.8402 35.2579 47.7458 35.8083 46.6695L35.8301 46.6269L35.8524 46.5821C36.3431 45.5966 36.8138 44.6512 37.8255 44.5062C39.0287 44.3 39.4102 44.4767 39.6449 44.5945L39.6541 44.5982C39.7942 44.6546 39.8553 44.6792 40.0851 44.5062C40.2612 44.3883 40.2612 44.1527 40.2025 44.0054C39.9971 43.3574 38.7646 42.4149 37.1213 42.4738C35.5278 42.5029 34.9355 43.02 34.2711 43.6001L34.2455 43.6225C34.213 43.6505 34.1804 43.6787 34.1478 43.707C33.7678 44.0361 33.3681 44.3822 32.7196 44.6534C31.0515 45.3671 30.1733 45.1855 30.0377 45.1574C30.0278 45.1554 30.0218 45.1542 30.0198 45.1542H29.9905L29.9612 45.1247C29.9608 45.1241 29.9602 45.1227 29.9591 45.1205C29.8669 44.9299 26.9238 38.8508 20.3067 38.8508H20.248C16.6572 38.8799 14.6096 40.4005 13.9076 40.9218L13.8802 40.9421C13.6455 41.1189 13.5868 41.1483 13.5281 41.1189C13.5281 41.1085 13.5209 41.0982 13.5128 41.0866C13.4978 41.0651 13.4797 41.0393 13.4988 41.001C13.5575 40.7065 13.0879 38.9392 12.7651 38.2617C12.3837 37.437 11.3859 36.9952 11.0631 36.9657C11.2979 37.2308 11.6794 38.2028 11.5914 39.4694C11.5327 40.5592 11.3272 41.0305 10.9751 41.8258ZM20.1755 7.06816C20.1663 7.06879 20.1611 7.06915 20.16 7.06915C14.7312 7.54042 9.15574 11.6052 8.86229 19.6169C8.62753 27.4518 12.8825 31.8995 16.9614 33.4312C21.9794 35.3163 24.8258 34.2264 24.9432 34.1675C25.0606 34.1381 25.178 34.1675 25.266 34.2559C25.354 34.3443 25.354 34.4915 25.2953 34.5799L25.266 34.6094C25.2407 34.6365 25.2132 34.6659 25.1838 34.6973C24.7024 35.2119 23.7046 36.2785 23.1238 37.0836C23.5933 37.1425 24.2096 37.3486 24.6204 37.5254L24.7046 37.5638C25.2896 37.8306 25.5419 37.9456 25.7942 38.1145C27.2908 35.8465 29.3449 33.8141 31.8686 32.1057C33.8347 30.7508 37.0332 29.4842 40.2318 28.7479L40.584 28.6595L40.3199 28.8657C39.3808 29.602 38.7059 30.3973 38.0896 31.4872C37.2973 32.8421 36.6811 34.7861 36.8865 35.3457C36.9159 35.4046 36.9452 35.4046 36.9452 35.4046C37.1127 35.4719 37.1846 35.5008 37.2373 35.4803C37.2769 35.4649 37.3057 35.4216 37.356 35.3457C37.4147 35.2279 37.5321 35.0806 37.7375 34.845C38.0016 34.5799 38.2364 34.4326 38.4418 34.4326H38.4711C38.6472 34.4326 38.7939 34.521 38.882 34.6094L38.9113 34.6388C39.0544 34.7537 39.03 34.9246 38.9743 35.3155L38.97 35.3457C38.8526 36.1115 38.6472 37.5254 39.3515 38.6447C40.2905 40.1763 41.1415 41.1778 41.611 41.2661C41.6991 41.2661 41.7284 41.2661 41.7577 41.2367C41.8164 41.2072 41.9632 41.001 41.7871 40.1469C41.611 39.2043 41.1708 36.0526 41.6697 33.8141C42.2566 31.0748 44.0173 28.3944 46.2181 28.3944H46.4235V25.8613C45.9834 25.8613 43.7532 25.6846 42.462 24.3002C41.7871 23.5638 41.4643 22.6213 41.4936 21.4725C41.5817 19.0278 42.6968 17.555 43.6358 16.5536C43.7825 16.4063 44.252 15.9056 44.1053 15.611C43.9879 15.3754 43.7825 15.2576 43.4891 15.2281H43.401C42.3153 15.2281 40.4666 16.583 39.8797 17.4667C39.2058 18.4813 38.8006 19.7116 38.6897 20.0482C38.6847 20.0633 38.6803 20.0767 38.6765 20.0882C38.6472 20.1765 38.5885 20.2354 38.5005 20.2943C38.2657 20.4122 37.7082 20.3238 37.2973 19.8525C36.9745 19.4991 36.9745 18.7921 36.9745 18.6449V18.4387C36.9745 18.4387 36.9159 18.4092 36.8572 18.4092C36.7691 18.4092 36.5931 18.4681 36.417 18.7332C36.0355 19.3518 36.3583 22.3856 37.5321 24.0351C37.8202 24.4254 38.0729 24.7732 38.2972 25.0819C38.5299 25.4021 38.732 25.6802 38.9113 25.9202L38.9993 26.038L38.882 26.0675C38.0016 26.2147 37.1506 26.4504 36.3583 26.7155C35.2965 27.1094 34.1984 27.5579 33.1068 28.0038C32.8106 28.1248 32.515 28.2455 32.2207 28.3649H32.1914C30.5774 29.0424 28.9047 29.7199 27.3495 30.2206C22.801 31.6639 19.1623 31.5461 16.8441 29.8966C14.5552 28.2471 11.8261 25.1838 11.9141 19.9114C11.9728 17.2016 13.1466 14.3739 14.966 12.4888C16.5506 10.8983 18.5461 10.0441 20.7176 10.0441H20.9523C26.7039 10.1913 28.67 13.8437 28.6113 16.9365C28.5526 19.882 26.9387 21.7965 24.2389 22.0322C22.4783 22.1794 21.099 21.0013 20.6882 19.7642C20.4317 18.9918 20.3967 18.2473 20.368 17.6384C20.3671 17.6203 20.3663 17.6024 20.3654 17.5845C20.363 17.5324 20.3607 17.4813 20.3585 17.4313C20.3344 16.8886 20.3163 16.4798 20.1013 16.3179C20.0133 16.2296 19.9253 16.2001 19.8079 16.2296C19.5731 16.2885 19.2797 16.6125 19.1329 17.0249C18.4874 18.6449 18.5461 20.4416 19.2503 22.0027C20.0426 23.6816 22.2435 25.2133 24.9432 24.8893C27.731 24.5358 29.8438 22.9747 30.9002 20.4122C31.5751 18.7332 31.6925 17.7318 31.6045 16.7009C31.5979 16.6355 31.5929 16.5686 31.5877 16.4997C31.5693 16.2581 31.5491 15.9908 31.4577 15.6699C31.4284 15.5816 31.4577 15.4932 31.4871 15.4343C31.5458 15.3754 31.6045 15.3165 31.6925 15.3165C31.7805 15.3165 33.6292 14.963 34.7737 13.3136C36.8278 10.3092 36.0649 8.6597 35.7714 8.21788C35.5367 7.83497 35.2432 7.71715 35.1845 7.7466C35.1351 7.7714 35.0649 8.02573 35.0089 8.22858C34.9984 8.26673 34.9884 8.30306 34.9791 8.3357C34.7737 9.16043 34.4509 10.3975 32.8956 10.8688C31.5681 11.2941 30.6484 10.6551 29.4822 9.84485C29.4368 9.81332 29.3911 9.78153 29.3449 9.74953H29.3156C28.4939 9.16043 27.5549 8.51243 26.2637 7.98224C23.4087 6.8473 20.4175 7.05163 20.1755 7.06816Z" fill="#990000"/>
<path d="M53.2019 113.46C53.2606 113.46 53.2899 113.489 53.3192 113.519C53.3486 113.548 53.3486 113.607 53.2606 113.637C52.9378 114.638 52.5269 116.435 52.4096 117.024C52.4096 117.083 52.3509 117.142 52.2922 117.142H52.0574C52.0281 117.142 51.9987 117.112 51.9694 117.083C51.94 117.053 51.94 116.995 51.94 116.965C51.9694 116.847 51.9987 116.612 51.9987 116.435C51.9987 115.433 51.1184 115.168 44.5745 115.168V137.2C44.5745 140.175 45.0734 140.264 46.3352 140.47C46.3939 140.47 46.4526 140.529 46.4526 140.588V140.765C46.4526 140.794 46.4526 140.823 46.4232 140.853C46.3939 140.882 46.3645 140.882 46.3352 140.882C45.8657 140.853 44.6332 140.794 43.1073 140.794C41.9123 140.794 40.9808 140.835 40.2791 140.865L40.1258 140.872C40.0399 140.876 39.9578 140.879 39.8794 140.882C39.85 140.882 39.8207 140.882 39.7913 140.853C39.762 140.823 39.762 140.794 39.762 140.765V140.588C39.762 140.529 39.8207 140.47 39.8794 140.47C41.1705 140.264 41.64 140.175 41.64 137.2V115.168C35.9472 115.168 34.2158 115.198 33.1301 117.495C33.1007 117.554 33.0714 117.584 33.0127 117.584H32.8366C32.8073 117.584 32.7779 117.554 32.7486 117.525C32.7192 117.495 32.7192 117.436 32.7192 117.407C32.866 116.729 33.042 116.081 33.2474 115.375C33.3971 114.899 33.5256 114.402 33.669 113.847L33.7463 113.548C33.7463 113.489 33.805 113.46 33.8637 113.46C42.1682 113.637 51.4412 113.489 53.2019 113.46Z" fill="#990000"/>
<path fill-rule="evenodd" clip-rule="evenodd" d="M53.0552 127.421C53.0552 120.588 58.0731 113.519 66.5244 113.519C73.8606 113.519 79.6122 119.586 79.6415 127.303C79.6415 134.962 73.7432 140.941 66.231 140.941C57.9851 140.941 53.0552 134.078 53.0552 127.421ZM66.2016 139.851C72.2466 139.851 76.0028 135.138 76.0028 127.539C76.0028 117.966 70.7501 114.579 66.2016 114.579C59.1589 114.579 56.6646 121.442 56.6646 127.303C56.6646 135.168 60.2153 139.851 66.2016 139.851Z" fill="#990000"/>
<path d="M20.7175 118.467C20.7175 121.707 23.1238 123.356 25.6768 125.094L25.7734 125.161C28.5899 127.113 31.4874 129.121 31.5164 133.577C31.5164 137.995 28.3765 141.059 23.8868 141.059C22.5852 141.059 21.6542 140.858 20.841 140.683L20.8056 140.676L20.7358 140.66C20.0859 140.518 19.4577 140.381 18.6927 140.381C18.458 140.381 18.37 140.381 18.1645 140.411C18.1059 140.411 18.0765 140.411 18.0472 140.381C18.0178 140.352 18.0178 140.293 18.0178 140.263C18.0472 140.087 18.0472 139.674 18.0472 139.35C18.0472 138.938 18.0178 138.584 17.9591 138.172C17.9503 138.047 17.9387 137.92 17.9269 137.79C17.8996 137.49 17.8711 137.175 17.8711 136.847C17.8711 136.523 17.9004 135.433 18.3113 134.52C18.3406 134.461 18.37 134.431 18.4286 134.431H18.546C18.5754 134.431 18.6047 134.431 18.6341 134.461C18.6634 134.461 18.6634 134.52 18.6634 134.549V134.667C18.6341 134.932 18.6047 135.197 18.6047 135.433C18.6047 138.319 21.3631 139.851 24.1215 139.851C26.4984 139.851 28.9047 138.378 28.9047 135.109C28.9047 131.633 26.4104 129.925 23.74 128.099L23.6375 128.027C20.9108 126.135 18.1059 124.189 18.1059 120.146C18.1059 116.258 20.9229 113.548 24.9138 113.548C26.0206 113.548 26.8925 113.705 27.6773 113.846L27.819 113.872L27.903 113.887C28.5182 114 29.1076 114.107 29.697 114.107C29.9024 114.107 30.0785 114.107 30.2839 114.078C30.3426 114.078 30.3719 114.078 30.4013 114.107C30.4306 114.137 30.4306 114.196 30.4306 114.225C30.3426 115.05 30.3133 115.698 30.3133 116.611C30.3133 117.141 30.3133 118.054 30.3426 118.585C30.3426 118.614 30.3426 118.644 30.3133 118.673C30.2839 118.702 30.2546 118.702 30.2252 118.702H30.0198C29.9611 118.702 29.9024 118.644 29.9024 118.585C29.3742 115.934 27.6722 114.52 24.9725 114.52C21.8326 114.52 20.7175 116.552 20.7175 118.467Z" fill="#990000"/>
<path fill-rule="evenodd" clip-rule="evenodd" d="M102.853 140.47C100.704 139.741 98.2092 135.289 96.3658 131.999L96.1133 131.548C95.1506 129.828 94.3925 128.474 93.8149 127.922C96.9547 126.685 98.8328 124.181 98.8328 121.147C98.8328 116.552 95.3114 113.577 89.8533 113.577C89.6896 113.577 89.4826 113.583 89.2464 113.589C88.9321 113.597 88.5659 113.607 88.1807 113.607C87.4179 113.636 86.5671 113.636 85.951 113.636C84.3076 113.636 83.6322 113.636 82.3704 113.548C82.3411 113.548 82.3117 113.548 82.2824 113.577C82.253 113.607 82.253 113.636 82.253 113.666V113.842C82.253 113.901 82.3117 113.96 82.3704 113.96C83.6322 114.166 84.0724 114.667 84.0724 117.23V137.259C84.0724 140.234 83.6029 140.322 82.3117 140.528C82.253 140.528 82.1943 140.587 82.1943 140.646V140.823C82.1943 140.852 82.1943 140.882 82.2237 140.911C82.253 140.941 82.2824 140.941 82.3117 140.941C82.3834 140.938 82.4577 140.935 82.5346 140.932L82.7629 140.922C83.476 140.892 84.3955 140.852 85.569 140.852C87.0949 140.852 88.3567 140.911 88.8262 140.941C88.8556 140.941 88.8849 140.941 88.9143 140.911C88.9436 140.882 88.9436 140.852 88.9436 140.823V140.646C88.9436 140.587 88.8849 140.528 88.8262 140.528C87.5351 140.322 87.0656 140.234 87.0656 137.259V128.805H89.3251C89.7359 128.805 90.2641 128.747 90.851 128.658C91.4889 129.269 92.2414 130.686 92.7122 131.572L92.7291 131.604C92.8171 131.78 92.9052 131.957 92.9932 132.075C97.3949 140.352 97.8644 140.852 101.826 141C102.266 141 102.442 141 102.765 140.97C102.824 140.97 102.882 140.911 102.882 140.852V140.617C102.941 140.558 102.912 140.499 102.853 140.47ZM95.4582 121.618C95.4582 124.24 94.7539 127.745 88.7676 127.745H87.0949V115.021C88.1513 114.726 88.8556 114.667 89.6772 114.667C93.1693 114.697 95.4582 117.406 95.4582 121.618Z" fill="#990000"/>
<path d="M14.7311 113.489C13.9974 113.519 12.5595 113.548 11.3271 113.548C10.0066 113.548 8.53932 113.519 7.77636 113.489C7.74701 113.489 7.71767 113.489 7.68832 113.519C7.65898 113.548 7.65898 113.578 7.65898 113.607V113.784C7.65898 113.843 7.71767 113.902 7.77636 113.902C9.06752 114.108 9.91852 114.255 9.91852 117.053V133.342C9.91852 136.405 8.45128 139.733 6.10371 139.733C5.66353 139.733 5.25271 139.704 4.87123 139.645C3.22792 139.233 2.20086 138.084 1.58462 137.259C1.49658 137.141 1.40855 137.024 1.34986 136.906C0.674929 135.875 0.352137 134.991 0.352137 134.962C0.322792 134.873 0.234758 134.844 0.146724 134.844C0.0586895 134.873 0 134.932 0 135.05L0.55755 139.321C0.55755 139.38 0.586895 139.439 0.645584 139.468C2.20086 140.47 4.10826 140.764 4.4604 140.794C5.07664 140.882 5.5755 140.912 5.86895 140.912H6.25043C10.1826 140.912 12.8237 137.701 12.8237 132.929V117.053C12.8237 114.343 13.4556 114.199 14.7196 113.911L14.7604 113.902L14.8191 113.872C14.8778 113.872 14.9071 113.813 14.9071 113.754V113.578C14.9071 113.548 14.9071 113.519 14.8778 113.489H14.7311Z" fill="#990000"/>
</svg>
