<svg width="200" height="160" viewBox="0 0 200 160" fill="none" xmlns="http://www.w3.org/2000/svg">
<rect width="200" height="160" fill="white"/>
<path d="M135.396 56.7632C135.42 56.7632 136.195 56.6899 136.922 56.2019C137.915 55.5432 138.375 55.0066 138.157 54.6895C138.109 54.5676 137.626 54.5188 137.143 54.47H137.14L137.114 54.467C136.463 54.3943 135.579 54.2952 134.767 54.0063C133.338 53.4941 132.224 52.4939 131.715 51.2986C131.376 50.5178 131.231 49.2737 132.393 47.9319H132.418L132.636 47.7368L132.648 47.7258C134.391 46.1404 136.995 43.7722 137.261 38.2468C137.43 34.6362 136.026 32.0747 135.348 30.855C135.219 30.6238 135.124 30.4526 135.068 30.3262C135.029 30.239 135.009 30.1729 135.009 30.123C135.009 29.8792 135.251 29.7083 135.614 29.4888C135.656 29.46 135.699 29.4304 135.744 29.3997C136.12 29.144 136.605 28.8135 136.995 28.269C137.697 27.3176 137.915 26.5369 137.866 26.293C137.866 26.2686 137.842 26.2441 137.842 26.2441C137.816 26.231 137.734 26.2603 137.626 26.3091C137.533 26.3511 137.421 26.4075 137.309 26.4639C136.922 26.6589 136.413 26.9028 135.808 27.0493C134.694 27.342 133.12 27.0249 131.619 26.6833C131.524 26.6562 131.43 26.6365 131.331 26.616C131.253 26.5999 131.172 26.583 131.086 26.5613C129.512 26.1953 127.599 25.8782 125.516 25.9026C121.69 25.9514 117.379 27.22 113.795 31.0989C110.284 34.929 108.879 40.7595 108.564 42.1501L110.768 43.5164C110.962 43.3455 111.616 43.0283 113.238 42.8088C114.183 42.6624 115.03 42.6138 115.636 42.7844C116.096 42.9065 116.411 42.9795 116.459 42.8333C116.677 42.2964 115.466 41.0278 114.425 40.5156C113.408 40.0034 112.27 40.1497 111.906 40.2229C112.705 38.1003 113.795 35.4902 114.836 34.124C116.507 31.9285 120.164 28.2446 126.049 28.4641C132.2 28.7083 134.888 33.5386 134.839 38.2224C134.815 40.1008 134.137 42.0525 132.975 43.5652C131.74 45.1753 130.117 46.1753 128.373 46.3462C125.419 46.6633 122.731 44.7117 122.271 41.9062C121.956 39.979 122.247 38.2957 123.07 37.2222C123.724 36.3684 124.693 35.9048 125.879 35.856C126.799 35.8074 127.356 36.2219 127.671 36.5635C128.131 37.0515 128.373 37.759 128.325 38.4663C128.228 39.8325 127.477 40.2229 126.993 40.4668C126.703 40.6133 126.557 40.7107 126.557 40.8816C126.557 41.0767 126.678 41.2476 126.848 41.3694C127.235 41.6379 127.889 41.6621 128.591 41.4182C129.463 41.1255 130.456 39.979 130.408 37.8076C130.359 35.6365 128.422 33.636 126.388 33.4897C123.087 33.2285 121.072 35.5107 120.945 35.6541L120.939 35.6609C120.915 35.6853 120.891 35.7097 120.866 35.6853C120.866 35.6853 120.68 35.5793 120.373 35.4663C120.149 35.3838 119.861 35.2976 119.534 35.2461C118.493 35.0999 117.742 35.417 117.524 35.6365C117.476 35.6609 117.476 35.7097 117.476 35.7097C117.476 35.783 117.67 35.856 117.839 35.9536C118.13 36.1001 118.542 36.3196 118.953 36.6855C119.801 37.4661 119.995 38.4663 119.995 38.5151V38.5396C119.656 41.2476 119.777 43.5408 121.569 45.9802C123.772 49.0054 126.896 48.981 128.228 48.9565C128.543 48.9565 128.834 48.981 129.003 49.0298C129.02 49.0466 129.025 49.0518 129.035 49.0535C129.039 49.0542 129.044 49.0542 129.052 49.0542C129.391 49.176 129.487 49.542 129.487 49.7371C129.487 49.9324 129.415 50.2251 129.003 50.5422C128.301 51.0789 128.156 51.6157 128.325 52.8843C128.422 53.5674 128.858 54.3723 129.318 55.2017L129.401 55.3555C129.838 56.1633 130.294 57.0078 130.408 57.7876C130.771 60.1541 130.529 61.4226 130.383 62.1057C130.311 62.3984 130.287 62.5938 130.335 62.6667C130.383 62.7156 130.432 62.74 130.529 62.74C130.916 62.74 131.764 62.1057 132.297 61.2764C132.636 60.7395 132.66 59.9346 132.66 59.3247C132.66 58.8611 132.66 58.5684 132.781 58.4707C132.829 58.4463 132.878 58.4463 132.926 58.4463C134.185 58.7148 134.307 61.0811 134.234 61.9836C134.222 62.1907 134.18 62.3674 134.125 62.5229C134.071 62.6787 134.004 62.813 133.943 62.9353C133.798 63.228 133.725 63.3743 133.895 63.5452C134.03 63.7034 134.289 63.6309 134.539 63.5613L134.597 63.5452L134.659 63.5239C134.778 63.4832 134.881 63.4475 134.985 63.4475C135.13 63.4475 135.251 63.4719 135.324 63.6182C135.542 64.0574 135.178 64.8625 134.5 65.3503C134.379 65.4236 134.258 65.521 134.137 65.5942C133.604 65.9602 133.168 66.2773 133.241 66.5701C133.241 66.5945 133.265 66.6189 133.386 66.6433C133.895 66.7654 135.275 66.6433 136.22 65.7407C137.406 64.6184 137.77 63.301 137.552 60.9348C137.364 58.6926 135.522 57.0212 135.38 56.8928L135.372 56.885C135.348 56.8606 135.348 56.8362 135.348 56.8118C135.348 56.7876 135.372 56.7632 135.396 56.7632Z" fill="#990000"/>
<path d="M133.338 80.0122C134.839 79.8169 136.607 78.4751 137.14 75.3281C137.382 73.8889 136.995 72.2544 136.195 70.9858C135.421 69.8879 134.307 69.156 133.072 68.8877H133.047C131.328 68.4729 128.834 68.6926 125.976 71.864C125.879 71.9617 125.564 72.425 125.371 72.8154C125.329 72.689 125.287 72.5542 125.24 72.4067C125.206 72.2983 125.169 72.1831 125.128 72.0591C124.741 70.8882 123.942 68.9365 122.319 66.2773C121.423 64.8137 120.697 63.8623 120.043 63.0083L120.032 62.9937C119.407 62.1707 118.854 61.4419 118.396 60.5444C117.524 58.8611 117.355 56.0068 117.67 55.4946C117.718 55.4458 117.742 55.4214 117.791 55.4214C118.154 55.4702 118.227 55.7874 118.348 56.446C118.493 57.2266 118.735 58.3977 119.656 59.959C120.421 61.2678 120.987 61.905 121.565 62.5566L121.641 62.6423C122.126 63.1792 122.634 63.7402 123.264 64.6917C124.693 66.7898 125.032 67.7656 125.032 67.7656L125.128 68.0339L125.08 67.7412C125.056 67.7168 124.475 63.7646 125.056 59.6907C125.371 57.5681 126.073 55.8362 126.533 54.6895C126.872 53.8601 127.066 53.3477 126.945 53.1526C126.896 53.0549 126.799 52.9817 126.703 52.9817H126.678C126.315 52.9817 125.807 53.543 125.177 54.2747C124.959 54.4944 124.765 54.7383 124.547 54.9578C123.53 56.0557 122.828 57.2754 122.731 57.4463C122.537 57.3975 121.084 56.9827 120.939 53.8357C120.818 51.6887 121.012 50.5422 121.181 49.5176C121.254 49.0298 121.351 48.5662 121.375 48.0295C121.375 47.8586 121.351 47.7368 121.254 47.7124C120.891 47.6147 119.825 48.9565 119.292 50.103C118.991 50.7109 118.9 51.2222 118.832 51.6023L118.808 51.7375L118.795 51.8154C118.754 52.0688 118.724 52.2544 118.614 52.2986C118.6 52.3127 118.578 52.3105 118.553 52.3015C118.534 52.2949 118.514 52.2847 118.493 52.2744C118.178 52.0791 117.646 51.1521 117.5 49.4688C117.452 48.9077 117.452 48.3711 117.452 47.9563C117.452 47.2732 117.452 46.8096 117.234 46.6877C117.137 46.6389 116.992 46.6389 116.871 46.7122C116.556 46.9072 116.193 47.5171 115.878 48.4199C115.636 49.1272 115.297 50.3472 115.175 52.1035C114.943 55.3162 115.135 57.5596 115.172 57.9888L115.175 58.0317C114.982 58.0317 113.892 58.1047 112.536 58.5439C111.204 58.9832 108.734 60.0808 108.855 60.6907C108.928 61.0078 109.412 60.9348 110.017 60.8372C110.081 60.8291 110.146 60.8203 110.212 60.8115C110.547 60.7668 110.904 60.719 111.228 60.7395C111.979 60.7883 112.754 61.1787 112.972 61.2764C112.754 61.3738 111.955 61.8374 110.744 62.9839C109.799 63.8867 108.734 64.9111 109.267 65.6675C109.436 65.9114 109.848 65.7407 110.453 65.448C111.664 64.8867 113.65 63.9841 116.241 64.9844C119.147 66.1067 120.891 67.8386 122.513 71.3516C122.901 72.303 123.215 73.4253 123.458 74.6694C124.039 77.8408 123.385 81.793 120.479 85.4036C118.832 87.4529 118.057 88.1113 116.846 89.136C113.069 92.3076 110.889 92.8198 110.695 92.3806C110.603 92.1819 111.383 91.6306 112.467 90.8635C113.379 90.218 114.508 89.4199 115.515 88.5505C118.953 85.5498 120.576 83.5496 120.576 83.5496C120.576 83.5496 117.282 85.9402 114.279 85.6719C113.077 85.5542 112.139 84.821 111.633 84.4258C111.406 84.248 111.266 84.1384 111.228 84.1838C110.878 84.5808 111.359 85.5767 111.598 86.0701C111.623 86.1223 111.646 86.1689 111.664 86.2085C111.882 86.5989 112.318 87.0137 112.318 87.0137C112.318 87.0137 112.197 87.2576 111.156 87.282C110.26 87.282 109.993 86.7454 109.872 86.8428C109.678 87.0137 109.824 87.6968 110.502 88.3799C111.18 89.0386 111.834 89.2825 111.834 89.2825C111.834 89.2825 110.817 89.6484 109.218 89.6484C108.639 89.6372 108.054 89.5073 107.566 89.3987C106.993 89.2712 106.553 89.1733 106.409 89.3313C106.053 89.7092 106.467 90.0874 106.93 90.5107C107.065 90.6338 107.204 90.7607 107.329 90.8926C107.886 91.478 108.225 91.478 108.225 91.478C108.225 91.478 108.08 92.1611 106.385 92.4294C105.436 92.5803 104.571 92.3745 103.935 92.2234C103.338 92.0815 102.944 91.9878 102.873 92.2832C102.68 92.9905 104.835 94.7959 107.402 95.0398C109.92 95.2593 112.076 94.0884 112.076 94.0884C112.076 94.0884 112.052 94.6494 110.962 95.8936C110.404 96.5317 109.993 96.8162 109.755 96.9805C109.538 97.1304 109.465 97.1807 109.557 97.3086C109.969 97.8452 111.591 97.6013 117.137 92.4783C117.137 92.5195 117.14 92.5605 117.143 92.6018C117.151 92.6826 117.161 92.7634 117.161 92.8442C117.476 98.0649 122.61 96.8694 122.586 96.5522C122.575 96.4292 122.37 96.3677 122.072 96.2783C121.72 96.1729 121.239 96.0286 120.794 95.6985C119.704 94.8933 119.873 94.4788 119.873 94.4788C119.873 94.4788 120.116 94.6982 120.77 94.7471C121.423 94.7959 121.787 94.7959 121.811 94.5276C121.817 94.4766 121.701 94.4272 121.518 94.3494C121 94.1287 119.941 93.6777 119.583 92.3076C119.317 91.2341 119.728 90.2827 120.261 89.624C124.886 83.8423 125.613 80.5488 125.952 78.3289V78.3044C125.958 78.2651 125.966 78.2117 125.975 78.1458C126.075 77.4338 126.381 75.2671 127.356 73.8157C127.356 73.8157 127.365 73.8069 127.372 73.7944C127.377 73.7864 127.381 73.7766 127.381 73.7668C128.156 72.5227 129.318 71.3516 131.062 71.0103C131.211 70.9802 131.351 70.9592 131.482 70.9478C131.564 70.9407 131.641 70.937 131.715 70.937H131.861C133.435 71.0833 133.968 71.7664 134.331 72.4983C134.839 73.4741 134.718 74.7183 134.064 75.7429C133.943 75.938 133.75 76.1089 133.58 76.2551C133.386 76.4504 133.217 76.5967 133.241 76.7432C133.257 76.8223 133.293 76.8911 133.349 76.95C133.38 76.9817 133.417 77.0103 133.459 77.0359C133.677 77.1335 133.943 77.1091 134.234 76.9626L134.331 76.9138C134.549 76.792 134.742 76.6943 134.815 76.7432C134.839 76.7432 134.864 76.7676 134.864 76.8164L134.865 76.8237C134.913 77.1641 134.976 77.6042 133.701 78.6216C133.265 78.9631 132.854 79.1338 132.563 79.2314C132.321 79.3047 132.151 79.3779 132.103 79.4998C132.079 79.573 132.103 79.6462 132.127 79.7192C132.224 79.9146 132.563 80.0366 132.999 80.0366C133.032 80.0366 133.068 80.0366 133.105 80.0356C133.178 80.0337 133.258 80.0283 133.338 80.0122Z" fill="#990000"/>
<path d="M136.501 91.3635C136.506 91.3516 136.51 91.3416 136.51 91.3315C136.801 90.3315 136.873 89.063 136.486 87.6968C136.268 86.8672 135.517 85.0132 132.829 83.2568C131.231 82.2078 129.366 81.6953 129.148 81.5979C129.555 80.6548 130.193 80.2698 130.518 80.0737C130.638 80.001 130.716 79.9541 130.722 79.9146C130.747 79.7681 129.851 79.4021 129.1 79.573C128.446 79.7437 127.768 80.3779 127.526 80.7683C127.405 81.1831 127.356 81.5491 126.945 82.72C127.671 83.0615 129.536 83.8911 130.432 84.3301C133.071 85.623 134.161 87.0869 134.646 88.697C134.888 89.502 134.791 90.2583 134.621 90.917C134.016 93.0881 132.127 94.4543 130.311 94.0151C129.076 93.7224 128.156 93.0881 127.72 92.2344C127.356 91.5513 127.332 90.7217 127.623 89.8679C127.841 89.2336 128.228 88.9409 128.519 88.8188C128.906 88.6482 129.366 88.6726 129.754 88.8921C130.519 89.3257 130.552 89.9016 130.576 90.3154L130.577 90.3315C130.577 90.4614 130.584 90.5776 130.616 90.6687C130.644 90.7488 130.692 90.8096 130.771 90.8438C130.892 90.8926 131.062 90.8682 131.207 90.7705C131.497 90.551 131.715 90.0388 131.764 89.4287C131.812 88.697 131.376 87.5991 129.972 87.0137C128.567 86.4282 126.727 87.2332 126.024 88.7458C124.983 90.9902 125.807 93.0149 125.928 93.3076C125.831 93.3809 125.54 93.6736 125.298 94.1372C124.886 94.8691 124.886 95.5278 124.983 95.7717C125.007 95.8206 125.056 95.8691 125.08 95.8691C125.177 95.8936 125.274 95.7961 125.419 95.6497L125.421 95.6482C125.59 95.4775 125.807 95.2588 126.146 95.0642C126.799 94.6982 127.429 94.7959 127.502 94.8203C128.64 95.552 129.705 96.04 130.965 96.04C131.473 96.04 132.03 95.9424 132.611 95.7717C134.5 95.2104 135.856 93.6736 136.486 91.4292C136.486 91.4006 136.494 91.3804 136.501 91.3635Z" fill="#990000"/>
<path d="M107.523 46.4438C107.523 46.4438 108.831 46.834 110.453 48.3467C111.398 49.2249 112.342 50.2495 113.093 51.0789L113.529 48.2002C112.899 47.4927 112.124 46.6633 111.107 45.8096C110.09 44.9556 108.298 44.0042 107.523 43.6138V46.4438Z" fill="#990000"/>
<path d="M108.128 48.7612C108.128 48.7612 107.935 50.2739 108.395 53.543C108.637 55.2993 109.073 56.9583 109.291 57.6902L111.567 56.6167C111.542 56.531 111.511 56.428 111.476 56.3098C111.268 55.6213 110.906 54.4192 110.72 53.1282C110.405 51.1277 110.502 50.6885 110.502 50.6885C110.09 50.2495 108.855 49.0054 108.128 48.7612Z" fill="#990000"/>
<path d="M114.691 77.0847C112.173 77.353 110.381 75.3037 110.114 73.1326C109.969 71.9858 110.235 70.937 110.865 70.1074C111.664 69.0342 112.826 68.4729 113.65 68.3755C114.667 68.2534 115.539 68.5461 116.096 68.8145C116.483 69.0098 116.774 69.1316 116.895 69.0586C117.137 68.9365 117.137 68.6438 117.04 68.2778C116.895 67.8142 116.556 67.3508 116.047 67.0337C115.442 66.6433 114.643 66.4482 113.747 66.4727C111.107 66.5701 109.581 68.6682 109.267 69.156C109.218 69.0098 109.073 68.7415 108.734 68.5217C108.201 68.1558 107.62 68.0095 107.45 68.229C107.348 68.3325 107.419 68.4358 107.532 68.5986C107.552 68.6279 107.574 68.6592 107.596 68.6926C107.709 68.8389 107.854 69.0286 107.989 69.2905C108.056 69.4216 108.12 69.5708 108.177 69.7415C108.327 70.1306 108.306 70.6536 108.283 71.2427L108.274 71.4736C108.25 72.2544 108.177 73.4009 108.371 74.3035C108.903 76.7188 111.107 79.1826 114.401 79.2803C114.764 79.3047 115.151 79.2559 115.49 79.1582C116.992 78.7437 117.985 77.9385 118.663 77.1091C118.695 77.1257 118.739 77.1533 118.787 77.1919C118.809 77.2104 118.833 77.2317 118.856 77.2554C119.389 77.6946 120.503 78.6216 121.351 79.085C121.569 78.3289 121.714 77.2554 121.714 76.6943C121.496 76.5479 120.164 75.6208 118.324 73.6936C116.774 72.0591 116.289 71.5225 116.289 71.5225C115.999 71.2786 115.006 70.4734 113.965 70.4246C113.02 70.4001 112.705 70.6199 112.681 70.6443L112.948 71.0344C112.993 71.0918 113.118 71.2671 113.336 71.5632C113.583 71.8982 113.948 72.3875 114.449 73.0349C115.418 74.2791 116.604 75.4014 116.943 75.7185L117.089 75.8892C116.556 76.4504 115.781 76.9626 114.691 77.0847Z" fill="#990000"/>
<path d="M90.7168 96.6987C93.647 96.2107 96.0444 95.5034 99.1442 92.6733C102.583 89.5508 103.866 85.062 104.472 82.7932C105.271 79.5242 105.198 73.3032 105.198 73.3032V41.0278C105.198 41.0278 104.98 34.0996 105.465 32.343C105.949 30.5867 106.99 29.3181 107.62 28.6594C109.024 27.22 111.955 26.7322 111.955 26.7322C112.802 26.5857 112.996 26.1709 112.923 25.7563C112.826 25.1221 112.318 25.0732 112.318 25.0732L91.4433 25.0244C91.4433 25.0244 90.9105 25.1221 90.8137 25.7319C90.741 26.1467 90.9348 26.5613 91.7823 26.7078C91.7823 26.7078 94.7368 27.1711 96.1171 28.635C96.7467 29.2937 97.788 30.5623 98.2723 32.3186C98.7567 34.0508 98.5388 41.0034 98.5388 41.0034L98.0786 73.2058C98.0786 73.4512 98.0833 73.8435 98.0892 74.3347C98.116 76.5791 98.1674 80.8855 97.9091 82.6467C97.449 85.623 96.7709 88.1357 94.9547 90.0874C93.1384 92.0391 91.4675 92.6733 88.9974 92.6733C86.5273 92.6733 84.9048 91.9172 83.1613 90.5266C81.4177 89.136 78.1 85.989 78.1 85.989L81.2723 96.3816C81.2723 96.3816 87.4718 97.2598 90.7168 96.6987Z" fill="#990000"/>
<path d="M72.3849 95.2349C72.7481 95.5764 74.637 93.4297 75.7752 91.0146C76.9134 88.5994 77.204 86.0623 76.8407 83.7935C76.647 82.4761 75.7994 80.6465 75.2909 79.6218C76.5986 80.5 78.0516 81.0122 79.1171 81.1831C82.1442 81.6953 84.8806 81.8174 86.8906 81.3538C87.5283 81.2 88.0128 81.0396 88.3823 80.9172C89.0091 80.7095 89.3052 80.6113 89.4575 80.8416C89.7239 81.2563 88.5858 82.354 84.929 82.9397C81.1271 83.5496 78.8022 82.6711 78.8022 82.6711C78.8022 82.6711 78.8507 83.5007 80.1826 84.5254C80.7335 84.9614 81.2125 85.2566 81.6407 85.5205C82.2665 85.906 82.7836 86.2246 83.2581 86.8184C83.6886 87.3501 83.7209 87.8899 83.7432 88.2627C83.7598 88.54 83.7709 88.7251 83.9362 88.7458C84.198 88.7952 84.3271 88.3879 84.5103 87.8101C84.5983 87.5327 84.6987 87.2161 84.8322 86.8916C85.2197 85.9158 84.8806 84.9399 84.8806 84.9399C84.8806 84.9399 86.2609 86.1111 88.9247 85.8428C90.7894 85.6475 91.9034 85.3059 91.7823 84.9155C91.7219 84.7329 91.5483 84.7212 91.1853 84.6968C90.9664 84.6819 90.6786 84.6626 90.3051 84.5984C89.3123 84.4277 88.9247 84.0129 88.9247 84.0129C88.9247 84.0129 90.5473 83.4763 92.5573 82.0857C94.5672 80.6951 95.8749 78.9143 95.5843 78.4995C95.3823 78.1851 94.8318 78.3757 94.1443 78.614C93.9256 78.6899 93.6929 78.7705 93.4532 78.8411C92.0487 79.2559 91.5402 79.2314 91.5402 79.2314C91.5402 79.2314 91.3948 79.0364 92.0245 78.28C92.4713 77.7424 92.8989 77.4612 93.2065 77.2588C93.4991 77.0662 93.683 76.9453 93.6712 76.7432C93.647 76.3284 92.3393 75.8647 88.9732 77.3774C87.7624 77.9141 86.4789 78.7678 86.4789 78.7678C86.4789 78.7678 86.9874 77.1821 87.1812 76.0845L87.24 75.7637C87.4446 74.6553 87.7506 72.9968 87.3991 72.8643C87.1729 72.7788 87.1201 72.8679 86.9609 73.1367C86.8475 73.3281 86.6802 73.6108 86.3578 73.9863C85.8008 74.6206 85.6555 74.9133 85.3892 74.8159C85.154 74.7212 85.1117 74.4424 85.0585 74.092C85.0295 73.9014 84.9974 73.6892 84.929 73.4741C84.7353 72.8887 84.251 72.0835 84.0573 72.2056C83.8741 72.3081 83.7252 72.936 83.5421 73.7075C83.2896 74.7722 82.9722 76.1106 82.4105 76.7188C82.0957 77.0603 81.684 77.2798 81.2481 77.4507C80.5943 77.719 79.8678 77.8164 79.1655 77.8164C78.3422 77.8164 77.5188 77.6702 76.7681 77.3774L76.6586 77.3342C75.8379 77.011 74.4249 76.4548 73.4988 74.9622C73.4988 74.9622 73.458 74.8882 73.419 74.8262C73.3909 74.7812 73.3636 74.7427 73.3535 74.7427V74.7183C72.5544 74.6206 71.731 74.4011 70.7382 73.9375C71.0045 74.7427 71.4162 75.7673 71.731 76.5234C72.8208 79.1826 74.3222 83.647 72.8934 87.1599C71.1741 91.3804 67.1783 92.1855 66.7424 91.283C66.6086 91.0134 66.9677 90.8398 67.5616 90.5525C68.5804 90.0598 70.2906 89.2327 71.392 87.0137C72.7966 84.1594 71.731 80.5732 71.731 80.5732C71.731 80.5732 71.731 83.647 69.5273 85.7451C67.7018 87.4768 66.3432 87.3533 65.613 87.2869C65.3455 87.2625 65.1624 87.2458 65.0715 87.3308C64.7083 87.7212 65.3137 88.0139 65.9191 88.3066C66.3065 88.4773 66.9846 88.6482 66.9846 88.6482C66.9846 88.6482 66.2823 89.3069 65.2652 89.8191C64.3208 90.3071 63.788 90.5022 63.7396 90.8438C63.7154 91.1121 65.0473 92.4294 66.3065 92.9905C67.5658 93.5518 69.1157 93.698 69.1157 93.698C69.1157 93.698 69.2368 93.6736 68.8251 94.4055C68.6705 94.6736 68.5129 94.8867 68.3825 95.063C68.1451 95.3838 67.9977 95.5828 68.1228 95.7717C68.4376 96.2107 68.7524 96.1377 70.5687 94.991C72.3849 93.8445 72.8934 93.1125 72.8934 93.1125C72.8934 93.1125 72.845 93.259 72.6512 93.9907C72.5804 94.2493 72.4871 94.4458 72.4112 94.6055C72.2794 94.8831 72.2004 95.0491 72.3849 95.2349Z" fill="#990000"/>
<path d="M74.4917 55.4214C74.1527 55.8848 73.5715 56.9583 73.4262 57.9585C74.0074 59.6907 74.7097 60.3735 75.194 60.5688C75.6057 59.0076 76.0658 57.4463 76.7923 56.0312C76.6712 55.9092 75.8236 55.1775 74.4917 55.4214Z" fill="#990000"/>
<path d="M71.2225 67.0093C71.3193 67.302 73.0629 68.4729 73.741 68.5461C73.741 68.5461 73.6683 67.3997 73.9105 66.4238C73.9105 66.4238 72.4818 65.7651 71.61 64.2283C71.3678 65.0332 71.2225 66.3994 71.2225 67.0093Z" fill="#990000"/>
<path d="M67.0573 53.8845C66.9119 54.1772 66.7667 54.5188 66.5971 55.0066C65.6285 57.6902 65.3137 58.9832 65.3137 61.8618C65.2894 64.9844 66.2581 67.863 68.0501 69.9368C69.7453 71.9128 72.0701 73.0593 74.5886 73.1814C78.2085 73.3516 81.2753 71.0989 82.4468 70.2383L82.459 70.2295C84.1764 68.967 87.2728 65.7104 87.549 65.4199L87.5687 65.3992L87.6171 65.3259L87.6655 65.3992C87.6897 65.4236 88.7795 67.2532 89.8934 67.7656C90.7168 68.1558 91.7823 68.0339 92.2424 67.863C92.4119 67.7898 92.4604 67.7656 92.4604 67.7412C92.4604 67.7168 92.3393 67.6191 92.2182 67.5215L92.2015 67.5071C91.6868 67.063 90.6423 66.1619 90.4746 64.521C90.3051 62.8376 93.6712 61.2764 96.0928 60.8127L96.1655 58.4463C95.8507 58.4707 94.3735 58.5928 94.0587 58.6904C89.7531 59.9087 87.018 62.5386 84.3572 65.0977L84.3478 65.1064C81.5145 67.8386 78.8265 70.4246 74.6613 70.4246H74.5644C72.9903 70.4001 71.4162 69.644 70.157 68.2534C68.5345 66.4727 67.6142 63.9841 67.7838 61.7397C67.9775 59.1294 68.8977 56.9827 70.496 55.5432C71.7552 54.4211 73.3777 53.7625 74.9761 53.7625H75.0729C76.308 53.7869 77.5672 54.2747 78.5359 55.0798C79.3108 55.7141 80.231 56.8362 80.3279 58.6172C80.4006 60.0078 79.9404 61.3008 79.1171 62.0813C78.8749 62.3252 77.543 63.4475 75.3635 62.9595C74.3948 62.74 73.5957 61.9106 73.1598 61.2275C72.845 60.7395 72.6271 60.1541 72.4333 59.5686C72.3849 59.4221 72.2154 59.2759 72.0216 59.3003C71.7795 59.3247 71.6342 59.6663 71.5858 60.1785C71.4647 61.7397 72.506 64.2769 75.194 65.0088C79.5772 66.2041 81.8051 62.9353 82.2894 61.5691C82.8222 60.0808 82.8464 59.2271 82.8464 59.2271C82.8464 59.2002 82.861 59.144 82.8901 59.095C82.9141 59.0544 82.9479 59.0186 82.9917 59.0076C83.1128 58.9832 83.2097 59.105 83.2581 59.2026C83.4761 59.5442 84.6143 60.2273 85.5829 59.959C86.6343 59.6943 87.0962 58.7878 87.5504 57.8967L87.5687 57.8608L87.5873 57.8235C87.9921 57.0073 88.3806 56.2244 89.2154 56.1045C90.2083 55.9336 90.5231 56.0801 90.7168 56.1775L90.7244 56.1804C90.84 56.2273 90.8904 56.2476 91.08 56.1045C91.1731 56.042 91.2065 55.9395 91.2058 55.8418C91.2054 55.7869 91.1943 55.7336 91.1769 55.6897C91.0074 55.1531 89.9903 54.3723 88.6342 54.4211C87.3189 54.4453 86.8301 54.8738 86.2818 55.3542L86.2609 55.3726L86.1804 55.4424C85.8668 55.7151 85.5369 56.0017 85.0017 56.2263C83.5245 56.8606 82.798 56.6411 82.7737 56.6411H82.7496L82.7253 56.6167L82.7237 56.6133C82.6476 56.4556 80.2189 51.4204 74.7581 51.4204H74.7097C71.746 51.4446 70.0561 52.7043 69.4771 53.136L69.4547 53.1526C69.2609 53.2988 69.2125 53.3232 69.1641 53.2988C69.1641 53.2903 69.1581 53.2817 69.1514 53.2722C69.139 53.2544 69.1241 53.2332 69.1399 53.2014C69.1883 52.9573 68.8008 51.4937 68.5345 50.9326C68.2197 50.2495 67.3963 49.8835 67.1299 49.8591C67.3236 50.0786 67.6384 50.8838 67.5658 51.9329C67.5173 52.8354 67.3478 53.2258 67.0573 53.8845Z" fill="#990000"/>
<path d="M74.6499 25.0725L74.637 25.0732C70.157 25.488 65.5558 28.8545 65.3137 35.4658C65.1199 41.9551 68.6313 45.6387 71.9974 46.9072C76.1384 48.4685 78.4874 47.5659 78.5843 47.5171C78.6812 47.4927 78.7781 47.5171 78.8507 47.5903C78.9233 47.6636 78.9233 47.7854 78.8749 47.8586L78.8507 47.8831L78.7826 47.9561C78.3853 48.3826 77.5621 49.2656 77.0829 49.9324C77.4703 49.9812 77.9789 50.1519 78.3179 50.2983L78.3848 50.3291C78.8694 50.5508 79.078 50.6462 79.2866 50.7861C80.5216 48.9077 82.2168 47.2244 84.2994 45.8096C85.9219 44.6873 88.5615 43.6382 91.2011 43.0283L91.4917 42.9551L91.2738 43.126C90.4988 43.7358 89.9418 44.3945 89.4333 45.2971C88.7795 46.4194 88.2709 48.0295 88.4404 48.4929C88.4647 48.5417 88.4889 48.5417 88.4889 48.5417C88.731 48.6394 88.731 48.6394 88.8279 48.4929C88.8763 48.3955 88.9732 48.2734 89.1427 48.0784C89.3607 47.8586 89.5544 47.7368 89.7239 47.7368H89.7481C89.8934 47.7368 90.0145 47.8098 90.0872 47.8831L90.1114 47.9075C90.2325 48.0051 90.2083 48.1514 90.1598 48.4929C90.0629 49.1272 89.8934 50.2983 90.4746 51.2253C91.2496 52.4939 91.9518 53.3232 92.3393 53.3965C92.3821 53.3965 92.4081 53.3965 92.4272 53.3914C92.4405 53.3879 92.4504 53.3821 92.4604 53.3721C92.5088 53.3477 92.6299 53.177 92.4846 52.4695C92.3393 51.6887 91.9761 49.0784 92.3878 47.2244C92.8721 44.9556 94.3251 42.7356 96.1413 42.7356H96.3108V40.6377C95.9476 40.6377 94.1071 40.4912 93.0416 39.3447C92.4846 38.7349 92.2182 37.9541 92.2424 37.0027C92.3151 34.9778 93.2353 33.7581 94.0103 32.9287C94.1313 32.8066 94.5188 32.3918 94.3977 32.1479C94.3008 31.9529 94.1313 31.8552 93.8892 31.8308H93.8165C92.9205 31.8308 91.3948 32.9529 90.9105 33.6848C90.3545 34.5249 90.0201 35.5439 89.9286 35.8228L89.9177 35.856C89.8934 35.9292 89.845 35.978 89.7723 36.0269C89.5786 36.1245 89.1185 36.0513 88.7795 35.6609C88.5131 35.3682 88.5131 34.7827 88.5131 34.6606V34.49C88.5131 34.49 88.4953 34.481 88.4705 34.4739C88.4544 34.4692 88.4353 34.4656 88.4162 34.4656C88.3436 34.4656 88.1983 34.5144 88.053 34.7339C87.7382 35.2461 88.0045 37.759 88.9732 39.125C89.2098 39.4468 89.4175 39.7336 89.6019 39.9883C89.795 40.2551 89.9627 40.4868 90.1114 40.6863L90.184 40.7839L90.0872 40.8083C89.3607 40.9304 88.6584 41.1255 88.0045 41.345C87.1317 41.6699 86.2291 42.0398 85.3317 42.4077C85.0839 42.5093 84.8364 42.6108 84.59 42.7112H84.5658C83.2339 43.2722 81.8535 43.8335 80.5701 44.248C76.8165 45.4436 73.8137 45.3459 71.9006 43.9797C70.0117 42.6138 67.7595 40.0764 67.8322 35.7097C67.8806 33.4897 68.8492 31.1233 70.3749 29.5864C71.6826 28.269 73.3293 27.5615 75.1213 27.5615H75.3151C80.0615 27.6836 81.684 30.7085 81.6356 33.27C81.5872 35.7097 80.231 37.271 78.0273 37.4905C76.5743 37.6125 75.4362 36.6367 75.0971 35.6121C74.8792 34.9534 74.855 34.3191 74.8307 33.8069C74.8065 33.2944 74.8065 32.9043 74.6128 32.7578C74.5402 32.6846 74.4675 32.6602 74.3707 32.6846C74.1769 32.7334 73.9348 33.0017 73.8137 33.3433C73.2809 34.6851 73.3293 36.1731 73.9105 37.4661C74.5402 38.8567 76.3564 40.1252 78.5843 39.8325C80.8849 39.5398 82.6285 38.2468 83.5002 36.1245C84.0573 34.7339 84.1541 33.9043 84.0815 33.0505C84.0573 32.8066 84.0573 32.5383 83.9604 32.1968C83.9496 32.1641 83.9484 32.1313 83.9526 32.1008C83.9578 32.063 83.9712 32.0286 83.9846 32.0015C84.0081 31.978 84.0316 31.9543 84.0577 31.9363C84.0856 31.917 84.1166 31.9041 84.1541 31.9041C84.2267 31.9041 85.7524 31.6113 86.6968 30.2451C88.392 27.7568 87.7624 26.3906 87.5202 26.0247C87.3265 25.7075 87.0843 25.6099 87.0359 25.6343C87.0093 25.6477 86.9754 25.7419 86.9423 25.8525C86.915 25.9434 86.8882 26.0452 86.8664 26.1223C86.6968 26.8052 86.4305 27.8298 85.147 28.2202C84.0514 28.5725 83.2924 28.0432 82.33 27.3721L82.2168 27.2932H82.1926C81.5145 26.8052 80.7396 26.2686 79.6741 25.8296C77.318 24.8896 74.8495 25.0588 74.6499 25.0725Z" fill="#990000"/>
<path d="M70.1567 113.215C69.9344 113.224 69.6337 113.233 69.2919 113.241C68.7027 113.254 67.9912 113.264 67.3476 113.264C66.2578 113.264 65.047 113.239 64.4174 113.215C64.3932 113.215 64.369 113.215 64.3447 113.239C64.3376 113.247 64.3326 113.254 64.329 113.261C64.324 113.271 64.3219 113.282 64.321 113.292C64.3205 113.299 64.3205 113.306 64.3205 113.312V113.459C64.3205 113.477 64.3273 113.495 64.3383 113.511C64.3568 113.537 64.3871 113.556 64.4174 113.556C65.4829 113.727 66.1852 113.849 66.1852 116.167V129.657C66.1852 132.195 64.9744 134.927 63.037 134.927C62.6738 134.927 62.3348 134.903 62.02 134.854C60.6638 134.512 59.8162 133.561 59.3077 132.878L59.306 132.875C59.2339 132.779 59.162 132.682 59.114 132.585C58.557 131.731 58.2906 130.999 58.2906 130.975C58.2664 130.902 58.1937 130.877 58.1211 130.877C58.0485 130.902 58 130.95 58 131.048L58.4601 134.585C58.4601 134.634 58.4843 134.683 58.5328 134.707C59.8162 135.537 61.3903 135.781 61.6809 135.805C62.1895 135.878 62.6011 135.903 62.8433 135.903H63.1581C66.4031 135.903 68.5826 133.244 68.5826 129.292V116.142C68.5826 113.897 69.1042 113.778 70.1474 113.54L70.1809 113.532H70.2294C70.2546 113.532 70.2733 113.519 70.2854 113.499C70.291 113.49 70.2951 113.48 70.2979 113.469C70.3007 113.458 70.302 113.446 70.302 113.434V113.312C70.302 113.302 70.302 113.291 70.2999 113.28C70.2973 113.267 70.2913 113.253 70.2778 113.239C70.2307 113.223 70.204 113.218 70.1844 113.216C70.1738 113.215 70.1652 113.215 70.1567 113.215Z" fill="#990000"/>
<path d="M101.905 113.215C101.953 113.215 101.977 113.239 102.001 113.264C102.012 113.274 102.018 113.285 102.015 113.297C102.012 113.314 101.994 113.334 101.953 113.361C101.687 114.191 101.348 115.679 101.251 116.167C101.251 116.216 101.202 116.264 101.154 116.264H100.96C100.951 116.264 100.942 116.261 100.933 116.255C100.922 116.249 100.91 116.238 100.899 116.227L100.888 116.216C100.863 116.191 100.863 116.142 100.863 116.118C100.888 116.02 100.912 115.825 100.912 115.679C100.912 114.849 100.185 114.63 94.785 114.63V132.878C94.785 135.342 95.1967 135.415 96.2379 135.586C96.2864 135.586 96.3348 135.635 96.3348 135.683V135.83L96.3345 135.846C96.3342 135.852 96.3336 135.857 96.3324 135.863C96.3296 135.876 96.3236 135.89 96.3106 135.903C96.2864 135.927 96.2621 135.927 96.2379 135.927C95.8505 135.903 94.8334 135.854 93.5741 135.854C93.3001 135.854 93.0428 135.857 92.8018 135.861C92.4474 135.867 92.1281 135.877 91.8417 135.888L91.515 135.901L91.1678 135.917L90.9103 135.927C90.8861 135.927 90.8619 135.927 90.8376 135.903C90.8134 135.878 90.8134 135.854 90.8134 135.83V135.683C90.8134 135.657 90.8273 135.631 90.8476 135.613C90.8652 135.596 90.8878 135.586 90.9103 135.586C91.9758 135.415 92.3633 135.342 92.3633 132.878V114.63C87.6653 114.63 86.2365 114.654 85.3405 116.557C85.3209 116.596 85.3012 116.62 85.2688 116.627C85.2612 116.629 85.2529 116.63 85.2437 116.63H85.0983C85.0914 116.63 85.0844 116.628 85.0775 116.625C85.0684 116.62 85.0594 116.613 85.0504 116.605C85.0425 116.598 85.0347 116.591 85.0268 116.583L85.0257 116.582C85.0015 116.557 85.0015 116.508 85.0015 116.484C85.1226 115.923 85.2678 115.386 85.4374 114.801C85.5607 114.407 85.6666 113.996 85.7847 113.537L85.8491 113.288C85.8491 113.239 85.8975 113.215 85.9459 113.215C92.7992 113.361 100.452 113.239 101.905 113.215Z" fill="#990000"/>
<path fill-rule="evenodd" clip-rule="evenodd" d="M101.784 124.778C101.784 119.119 105.925 113.264 112.899 113.264C118.953 113.264 123.7 118.265 123.724 124.681C123.724 131.024 118.856 135.976 112.657 135.976C105.852 135.976 101.784 130.292 101.784 124.778ZM112.633 135.049C117.621 135.049 120.721 131.146 120.721 124.852C120.721 116.948 116.386 114.142 112.633 114.117C106.821 114.117 104.762 119.802 104.762 124.656C104.762 131.17 107.693 135.049 112.633 135.049Z" fill="#990000"/>
<path d="M75.097 117.362C75.097 120.046 77.0828 121.412 79.1896 122.851C81.5386 124.461 83.9845 126.145 84.0087 129.877C84.0087 133.536 81.4175 136.073 77.7125 136.073C76.6387 136.073 75.8707 135.908 75.1996 135.763L75.1971 135.762L75.1697 135.756L75.1097 135.743C74.5743 135.626 74.0565 135.512 73.4261 135.512C73.3384 135.512 73.2756 135.512 73.2174 135.515C73.1469 135.517 73.0831 135.523 72.9902 135.537C72.9418 135.537 72.9175 135.537 72.8934 135.512C72.8691 135.488 72.8691 135.439 72.8691 135.415C72.8934 135.269 72.8934 134.927 72.8934 134.659C72.8934 134.317 72.8691 134.024 72.8207 133.683C72.7965 133.341 72.748 132.975 72.748 132.585C72.748 132.317 72.7723 131.414 73.1113 130.658C73.1355 130.609 73.1597 130.584 73.2082 130.584H73.3051C73.3292 130.584 73.3535 130.584 73.3777 130.609C73.3836 130.609 73.3881 130.612 73.3914 130.616C73.3944 130.621 73.3965 130.626 73.3981 130.633C73.4019 130.648 73.4019 130.669 73.4019 130.682V130.78C73.3906 130.882 73.3793 130.984 73.3705 131.084C73.3604 131.199 73.3535 131.31 73.3535 131.414C73.3535 133.805 75.6298 135.073 77.9062 135.073C79.8677 135.073 81.8535 133.854 81.8535 131.146C81.8535 128.267 79.795 126.852 77.5914 125.34L77.5068 125.281C75.2567 123.714 72.9418 122.102 72.9418 118.753C72.9418 115.532 75.2665 113.288 78.56 113.288C79.5287 113.288 80.2794 113.435 80.9575 113.556L81.027 113.569C81.5345 113.662 82.0209 113.752 82.5073 113.752L82.6094 113.751L82.6872 113.75C82.7258 113.75 82.764 113.748 82.8025 113.746C82.8638 113.743 82.9259 113.737 82.9916 113.727C83.04 113.727 83.0643 113.727 83.0885 113.752C83.1018 113.765 83.1078 113.786 83.1105 113.806C83.1127 113.822 83.1127 113.838 83.1127 113.849C83.04 114.532 83.0159 115.069 83.0159 115.825L83.0163 116.223L83.0175 116.477L83.0195 116.694C83.0226 116.975 83.0286 117.253 83.04 117.46L83.04 117.471C83.0398 117.478 83.0393 117.485 83.038 117.492L83.0356 117.501L83.0334 117.507C83.0299 117.516 83.0244 117.524 83.0159 117.533C82.9916 117.557 82.9674 117.557 82.9432 117.557H82.7737C82.7253 117.557 82.6768 117.509 82.6768 117.46C82.2409 115.264 80.8364 114.093 78.6085 114.093C76.0173 114.093 75.097 115.776 75.097 117.362Z" fill="#990000"/>
<path fill-rule="evenodd" clip-rule="evenodd" d="M142.879 135.586C141.105 134.982 139.047 131.296 137.526 128.571L137.318 128.198C136.523 126.773 135.897 125.651 135.42 125.193C138.011 124.168 139.561 122.095 139.561 119.582C139.561 115.776 136.655 113.312 132.151 113.312C131.836 113.312 131.328 113.337 130.771 113.337C130.141 113.361 129.439 113.361 128.93 113.361C127.574 113.361 127.017 113.361 125.976 113.288C125.952 113.288 125.927 113.288 125.903 113.312C125.879 113.337 125.879 113.361 125.879 113.386V113.532C125.879 113.581 125.927 113.63 125.976 113.63C127.017 113.8 127.38 114.215 127.38 116.338V132.878C127.38 135.342 126.993 135.415 125.927 135.586C125.879 135.586 125.831 135.635 125.831 135.683V135.83C125.831 135.837 125.831 135.844 125.831 135.851C125.832 135.859 125.833 135.867 125.836 135.875C125.84 135.884 125.846 135.894 125.855 135.903C125.863 135.911 125.871 135.917 125.88 135.92C125.888 135.924 125.895 135.926 125.903 135.926C125.911 135.927 125.919 135.927 125.927 135.927C126.557 135.903 127.429 135.854 128.615 135.854C129.875 135.854 130.916 135.903 131.304 135.927C131.328 135.927 131.352 135.927 131.376 135.903C131.384 135.895 131.389 135.887 131.393 135.879C131.4 135.863 131.4 135.846 131.4 135.83V135.683C131.4 135.635 131.352 135.586 131.304 135.586C130.238 135.415 129.851 135.342 129.851 132.878V125.876H131.715C132.054 125.876 132.49 125.827 132.974 125.754C133.5 126.26 134.121 127.431 134.509 128.165L134.511 128.168L134.524 128.194C134.566 128.277 134.607 128.361 134.649 128.436C134.68 128.491 134.711 128.542 134.742 128.584C138.375 135.439 138.762 135.854 142.031 135.976C142.213 135.976 142.34 135.976 142.455 135.973C142.488 135.972 142.521 135.971 142.553 135.97C142.592 135.968 142.631 135.966 142.671 135.963C142.714 135.96 142.758 135.956 142.806 135.952C142.855 135.952 142.903 135.903 142.903 135.854V135.659C142.93 135.645 142.935 135.624 142.925 135.608C142.917 135.595 142.9 135.586 142.879 135.586ZM136.776 119.972C136.776 122.144 136.195 125.047 131.255 125.047H129.875V114.508C130.747 114.264 131.328 114.215 132.006 114.215C134.888 114.215 136.776 116.484 136.776 119.972Z" fill="#990000"/>
<rect x="28" y="149" width="200" height="2" transform="rotate(-45 28 149)" fill="black"/>
</svg>
