<svg width="308" height="139" viewBox="0 0 308 139" fill="none" xmlns="http://www.w3.org/2000/svg">
<path d="M247.576 120.24C246.52 120.24 245.64 119.968 244.936 119.424C244.232 118.88 243.805 118.144 243.656 117.216L245.624 116.944C245.731 117.467 245.949 117.883 246.28 118.192C246.621 118.491 247.064 118.64 247.608 118.64C248.259 118.64 248.765 118.437 249.128 118.032C249.491 117.627 249.672 117.061 249.672 116.336C249.672 115.589 249.496 114.997 249.144 114.56C248.792 114.123 248.296 113.904 247.656 113.904C247.144 113.904 246.717 114.043 246.376 114.32C246.045 114.597 245.811 114.997 245.672 115.52L243.864 115.344L244.536 108.88H251.08V110.496H245.992L245.624 113.696C246.157 112.832 247.011 112.4 248.184 112.4C249.251 112.4 250.093 112.747 250.712 113.44C251.331 114.123 251.64 115.061 251.64 116.256C251.64 117.056 251.475 117.755 251.144 118.352C250.813 118.949 250.339 119.413 249.72 119.744C249.112 120.075 248.397 120.24 247.576 120.24ZM257.146 120.24C255.706 120.24 254.591 119.728 253.802 118.704C253.023 117.68 252.634 116.261 252.634 114.448C252.634 112.624 253.023 111.2 253.802 110.176C254.591 109.152 255.706 108.64 257.146 108.64C258.586 108.64 259.7 109.152 260.49 110.176C261.279 111.2 261.674 112.624 261.674 114.448C261.674 116.261 261.279 117.68 260.49 118.704C259.7 119.728 258.586 120.24 257.146 120.24ZM257.146 118.672C257.967 118.672 258.591 118.304 259.018 117.568C259.455 116.832 259.674 115.792 259.674 114.448C259.674 113.093 259.455 112.048 259.018 111.312C258.591 110.576 257.967 110.208 257.146 110.208C256.324 110.208 255.7 110.576 255.274 111.312C254.847 112.048 254.634 113.093 254.634 114.448C254.634 115.792 254.847 116.832 255.274 117.568C255.7 118.304 256.324 118.672 257.146 118.672ZM267.054 112H268.878V113.392C269.124 112.88 269.465 112.491 269.902 112.224C270.35 111.947 270.862 111.808 271.438 111.808C272.078 111.808 272.638 111.984 273.118 112.336C273.609 112.677 273.988 113.163 274.254 113.792C274.521 114.421 274.654 115.152 274.654 115.984C274.654 116.827 274.516 117.568 274.238 118.208C273.961 118.848 273.572 119.339 273.07 119.68C272.569 120.021 271.993 120.192 271.342 120.192C270.798 120.192 270.324 120.075 269.918 119.84C269.513 119.595 269.198 119.264 268.974 118.848V123.12H267.054V112ZM270.782 118.72C271.358 118.72 271.812 118.48 272.142 118C272.484 117.509 272.654 116.837 272.654 115.984C272.654 115.131 272.489 114.469 272.158 114C271.838 113.52 271.385 113.28 270.798 113.28C270.212 113.28 269.753 113.504 269.422 113.952C269.092 114.389 268.926 115.008 268.926 115.808V116.208C268.926 116.976 269.092 117.589 269.422 118.048C269.764 118.496 270.217 118.72 270.782 118.72ZM276.234 112H278.154V120H276.234V112ZM276.138 108.672H278.218V110.672H276.138V108.672ZM282.191 115.856L279.487 112H281.679L282.911 113.952C283.146 114.336 283.29 114.608 283.343 114.768H283.359C283.423 114.576 283.562 114.304 283.775 113.952L284.959 112H287.103L284.447 115.888L287.343 120H285.151L283.727 117.84C283.482 117.477 283.338 117.2 283.295 117.008H283.263C283.21 117.2 283.06 117.477 282.815 117.84L281.391 120H279.295L282.191 115.856ZM294.926 116.48H289.31C289.32 117.152 289.518 117.691 289.902 118.096C290.296 118.491 290.808 118.688 291.438 118.688C291.896 118.688 292.291 118.576 292.622 118.352C292.952 118.128 293.208 117.797 293.39 117.36L294.862 118.032C294.563 118.725 294.11 119.259 293.502 119.632C292.904 120.005 292.195 120.192 291.374 120.192C290.147 120.192 289.187 119.835 288.494 119.12C287.8 118.395 287.454 117.381 287.454 116.08C287.454 114.757 287.79 113.717 288.462 112.96C289.144 112.192 290.083 111.808 291.278 111.808C292.44 111.808 293.336 112.139 293.966 112.8C294.606 113.451 294.926 114.384 294.926 115.6V116.48ZM293.038 115.088C293.038 114.437 292.883 113.941 292.574 113.6C292.264 113.259 291.822 113.088 291.246 113.088C290.638 113.088 290.168 113.275 289.838 113.648C289.507 114.021 289.331 114.544 289.31 115.216H293.038V115.088ZM298.571 120H296.651V108.4H298.571V120ZM303.788 120.192C302.871 120.192 302.087 120.005 301.436 119.632C300.796 119.259 300.348 118.72 300.092 118.016L301.532 117.376C301.714 117.824 301.996 118.171 302.38 118.416C302.775 118.661 303.255 118.784 303.82 118.784C304.3 118.784 304.668 118.693 304.924 118.512C305.191 118.331 305.324 118.091 305.324 117.792C305.324 117.515 305.234 117.307 305.052 117.168C304.882 117.029 304.588 116.928 304.172 116.864L302.748 116.608C302.002 116.469 301.431 116.208 301.036 115.824C300.652 115.429 300.46 114.912 300.46 114.272C300.46 113.536 300.754 112.944 301.34 112.496C301.927 112.037 302.722 111.808 303.724 111.808C304.578 111.808 305.303 111.973 305.9 112.304C306.508 112.624 306.908 113.072 307.1 113.648L305.772 114.368C305.57 113.995 305.287 113.707 304.924 113.504C304.572 113.301 304.14 113.2 303.628 113.2C303.18 113.2 302.834 113.285 302.588 113.456C302.343 113.616 302.22 113.851 302.22 114.16C302.22 114.427 302.306 114.629 302.476 114.768C302.658 114.907 302.93 115.008 303.292 115.072L304.86 115.36C305.618 115.499 306.172 115.76 306.524 116.144C306.887 116.517 307.068 117.024 307.068 117.664C307.068 118.432 306.775 119.045 306.188 119.504C305.612 119.963 304.812 120.192 303.788 120.192Z" fill="#DE3330"/>
<path fill-rule="evenodd" clip-rule="evenodd" d="M0 65V0H64.4094V65H0ZM15.3097 5.20361C13.3167 4.38184 11.3237 4.56445 11.3237 4.56445C7.88132 4.92969 4.25772 7.57715 4.25772 13.0547C4.07654 18.167 6.88483 20.9971 9.51193 22.0015C12.4512 23.0708 14.2131 22.5835 14.5987 22.4771C14.6409 22.4653 14.6666 22.458 14.6756 22.458C14.7394 22.458 14.7582 22.458 14.7955 22.4902C14.8111 22.5034 14.83 22.5225 14.8568 22.5493V22.7319C14.7502 22.875 14.5741 23.0742 14.3774 23.2964C14.0724 23.6411 13.7182 24.042 13.4979 24.375C13.7747 24.375 14.0515 24.4814 14.288 24.5723C14.3611 24.6006 14.4302 24.6274 14.4944 24.6489L15.2191 25.0142C16.125 23.5532 17.4839 22.1841 19.1145 21.0884C20.3827 20.1758 22.4663 19.354 24.5499 18.8975L24.731 18.8062L24.5499 18.9888C23.9157 19.5366 23.5534 19.9932 23.1004 20.7231C22.5569 21.5449 22.1945 22.8232 22.2851 23.188C22.4663 23.2793 22.4663 23.2793 22.5569 23.188C22.6133 23.1309 22.6698 23.0742 22.7262 22.9956C22.7603 22.9478 22.7945 22.8921 22.8286 22.8232C23.0098 22.6406 23.1004 22.5493 23.2816 22.5493C23.3722 22.5493 23.4628 22.5493 23.5534 22.6406C23.6815 22.7051 23.6737 22.7695 23.6582 22.8984C23.6517 22.9521 23.644 23.0166 23.644 23.0967C23.5534 23.5532 23.4628 24.4663 23.9157 25.1968C24.5499 26.2007 25.0934 26.8398 25.3652 26.9312H25.4557C25.4557 26.9312 25.5464 26.7485 25.4557 26.2007C25.3652 25.562 25.0934 23.5532 25.3652 22.0928C25.8181 20.2671 26.9052 18.5322 28.3546 18.5322H28.4452V16.8892C28.1735 16.8892 26.724 16.7979 25.9087 15.8848C25.4557 15.4282 25.2746 14.7896 25.2746 14.0591C25.2746 12.5068 25.9993 11.5029 26.6334 10.8638C26.724 10.7725 26.9958 10.4072 26.9052 10.2246C26.8146 10.042 26.724 9.95068 26.5428 9.95068H26.4522C25.7275 9.95068 24.5499 10.8638 24.1875 11.4116C23.644 12.1421 23.4628 12.9634 23.3722 13.146C23.3722 13.146 23.3722 13.1782 23.3532 13.2041C23.3402 13.2222 23.3184 13.2373 23.2816 13.2373C23.1004 13.3286 22.7381 13.2373 22.4663 12.9634C22.2851 12.6895 22.2851 12.2329 22.2851 12.1421V11.9595H22.1945C22.1945 11.9595 22.1336 11.9595 22.0647 11.9951C22.0148 12.021 21.9608 12.0654 21.9228 12.1421C21.651 12.5981 21.9228 14.5156 22.6475 15.6108C23.0098 16.0674 23.2816 16.5239 23.5534 16.7979L23.3722 16.8892H23.2816C22.7381 16.9805 22.1945 17.1631 21.651 17.3457L18.9333 18.4409C18.1311 18.7778 17.3289 19.0649 16.5632 19.3394C16.2912 19.4365 16.0238 19.5322 15.7626 19.6279C12.8638 20.6318 10.5084 20.5405 8.96841 19.4453C7.51895 18.3496 5.70715 16.3413 5.79776 12.9634C5.79776 11.1377 6.61307 9.31201 7.79074 8.125C8.78723 7.12061 10.0555 6.57324 11.5049 6.57324H11.6861C15.4003 6.66455 16.6685 9.03809 16.6685 11.0464C16.6685 12.9634 15.5815 14.1504 13.8603 14.333C12.7732 14.4243 11.8673 13.6938 11.5955 12.8721C11.4143 12.3242 11.4143 11.7769 11.4143 11.4116C11.4143 11.0464 11.4143 10.6812 11.2332 10.5898C11.1425 10.4985 11.1425 10.4985 11.052 10.4985C10.8708 10.5898 10.6896 10.7725 10.599 11.0464C10.2367 12.0508 10.2367 13.2373 10.6896 14.2417C11.2332 15.3369 12.6826 16.3413 14.4038 16.1587C16.2156 15.8848 17.5744 14.8809 18.2992 13.2373C18.7521 12.1421 18.8427 11.5029 18.7521 10.8638C18.7521 10.6812 18.7521 10.4985 18.6615 10.2246V10.042C18.6615 9.9834 18.6615 9.9624 18.6853 9.95508C18.6986 9.95068 18.7195 9.95068 18.7521 9.95068C18.8427 9.95068 20.0204 9.76807 20.7451 8.67285C22.1039 6.75586 21.5604 5.66016 21.3792 5.38623C21.198 5.20361 21.1075 5.1123 21.0168 5.1123C21.0168 5.1123 20.9263 5.38623 20.9263 5.47754C20.8357 5.93408 20.6545 6.75586 19.5674 7.12061C18.7808 7.38477 18.1628 6.96924 17.388 6.44775L17.3027 6.39062C16.7591 5.93408 16.125 5.56885 15.3097 5.20361ZM5.28403 27.5469C5.22824 27.6924 5.16141 27.8486 5.07303 28.0269C4.25772 30.1265 4.07654 31.2217 3.80478 33.5044C3.80478 35.8779 4.52948 38.1602 5.97894 39.8032C7.33777 41.3555 9.14957 42.2681 11.1425 42.3594C13.8394 42.5347 16.202 40.8579 17.1876 40.1587L17.3027 40.0771C18.6615 39.0732 21.2886 36.3345 21.2886 36.3345L21.3792 36.2432V36.3345C21.3792 36.3345 22.1945 37.7949 23.1004 38.1602C23.7346 38.5254 24.5499 38.3428 24.9122 38.2515C25.0934 38.2515 25.0934 38.1602 25.0934 38.1602L24.9122 37.9775C24.8739 37.939 24.8294 37.896 24.7805 37.8491C24.3673 37.4517 23.6344 36.7466 23.5534 35.604C23.4628 34.2344 26.0899 33.0479 27.9923 32.6826L28.0829 30.8569C27.9916 30.8569 27.6476 30.8799 27.2939 30.9146C26.9453 30.9487 26.5872 30.9941 26.4522 31.0396C23.1054 31.9507 20.9327 34.0459 18.8521 36.0518L18.8427 36.0605C16.5779 38.2515 14.4944 40.2598 11.2332 40.2598H11.1425C9.9649 40.2598 8.69662 39.6206 7.70013 38.5254C6.34128 37.1558 5.70715 35.1475 5.79776 33.4131C5.97894 31.4043 6.70364 29.6699 7.97192 28.5742C8.96841 27.7529 10.2367 27.2051 11.5049 27.2051H11.5955C12.592 27.2051 13.5885 27.5703 14.3132 28.2095C14.9473 28.6655 15.6721 29.5786 15.7626 30.9482C15.8532 32.0435 15.4909 33.0479 14.8568 33.687C14.8066 33.7041 14.7318 33.749 14.6323 33.8086C14.1926 34.0718 13.2709 34.6235 11.8673 34.3257C11.1425 34.1431 10.5084 33.5044 10.1461 32.9565C9.96487 32.5913 9.78372 32.1348 9.60254 31.6782C9.51193 31.5869 9.42136 31.4956 9.24017 31.4956C9.05899 31.5869 8.87781 31.8608 8.87781 32.2261C8.78723 33.4131 9.60254 35.4214 11.6861 35.9692C15.1285 36.8818 16.8497 34.3257 17.2121 33.2305C17.665 32.0435 17.665 31.4043 17.665 31.4043C17.665 31.376 17.665 31.3477 17.6677 31.3223C17.6737 31.2651 17.6931 31.2217 17.7556 31.2217C17.8055 31.2217 17.8554 31.2495 17.8902 31.2896C17.9185 31.3223 17.9368 31.3633 17.9368 31.4043C18.118 31.6782 19.0239 32.1348 19.7486 31.9521C20.5639 31.7695 20.9263 31.0396 21.2886 30.3091C21.5604 29.6699 21.9228 29.0308 22.5569 28.9395C23.3722 28.8481 23.5534 28.9395 23.7346 29.0308C23.7633 29.0308 23.7829 29.0308 23.8021 29.0278C23.8434 29.0215 23.8826 29.002 24.0063 28.9395C24.1468 28.8687 24.1239 28.7432 24.1065 28.6475C24.1015 28.6196 24.0969 28.5947 24.0969 28.5742C23.9157 28.1182 23.191 27.5703 22.1039 27.5703C21.0168 27.5703 20.6545 27.9355 20.2015 28.3008C20.1241 28.3525 20.0466 28.4121 19.9649 28.4746C19.7601 28.6318 19.5289 28.8091 19.205 28.9395C18.118 29.4873 17.4839 29.3047 17.4839 29.3047C17.4839 29.2134 15.5815 25.1968 11.2332 25.1968C8.96841 25.1968 7.60956 26.2007 7.15662 26.5659C7.06601 26.6572 6.97543 26.6572 6.97543 26.6572V26.5659C7.06601 26.292 6.70364 25.1968 6.52246 24.7402C6.2507 24.1924 5.61658 23.9185 5.43539 23.9185C5.61658 24.1011 5.88834 24.7402 5.79776 25.562C5.79776 26.1274 5.689 26.4194 5.55573 26.7769C5.517 26.8809 5.4762 26.9902 5.43539 27.1138C5.38901 27.2539 5.34259 27.394 5.28403 27.5469ZM8.69662 37.521C8.78723 37.7036 10.1461 38.6167 10.6896 38.708C10.6896 38.708 10.599 37.7949 10.7802 37.0645C10.7802 37.0645 9.69312 36.5171 8.96841 35.3301C8.78723 35.9692 8.69662 37.0645 8.69662 37.521ZM11.2332 28.3921C10.9614 28.7568 10.5084 29.5786 10.4178 30.4004C10.8708 31.7695 11.4143 32.3174 11.7767 32.4087C12.139 31.2217 12.5014 29.9438 13.045 28.8481C12.9543 28.7568 12.2296 28.2095 11.2332 28.3921ZM9.60254 59.6138C9.8743 59.8877 11.3237 58.2441 12.2296 56.3271C13.1355 54.4102 13.4073 52.4019 13.045 50.4844C12.9674 49.6255 12.4257 48.4321 12.0439 47.5908C11.9795 47.4487 11.9196 47.3169 11.8673 47.1982C12.8638 47.8369 14.0414 48.2021 14.8568 48.3848C17.2121 48.8413 19.3862 48.9326 20.9263 48.5674C21.4744 48.457 21.8752 48.3315 22.1701 48.2393C22.6063 48.1025 22.8112 48.0386 22.9193 48.2021C23.1004 48.4761 22.2851 49.3892 19.3862 49.8457C16.3968 50.3931 14.585 49.6631 14.585 49.6631C14.585 49.6631 14.585 50.3018 15.6721 51.1235C16.1457 51.5215 16.5505 51.7632 16.909 51.9775C17.3734 52.2549 17.7601 52.4858 18.118 52.9492C18.498 53.3867 18.5201 53.8242 18.5354 54.1245C18.5455 54.3257 18.5526 54.4648 18.6615 54.5015C18.8806 54.5566 18.9672 54.3115 19.0815 53.9878C19.1563 53.7764 19.243 53.5312 19.3862 53.3145C19.7486 52.4932 19.4768 51.7627 19.4768 51.7627C19.4768 51.7627 20.5639 52.6758 22.6475 52.4932C24.0969 52.3105 25.0028 52.0366 24.9122 51.7627C24.8598 51.604 24.7466 51.5986 24.5024 51.5864C24.3248 51.5776 24.0779 51.5654 23.7346 51.4888C22.9193 51.3975 22.6475 51.0322 22.6475 51.0322C22.6475 51.0322 24.0063 50.5757 25.5464 49.4805C27.0864 48.3848 28.0829 47.0156 27.9017 46.6504C27.7152 46.4624 27.3582 46.5752 26.889 46.7241C26.6744 46.792 26.4364 46.8672 26.1805 46.9243C25.0934 47.1982 24.731 47.1982 24.731 47.1982C24.731 47.1982 24.6404 47.0156 25.0934 46.4678C25.4229 46.041 25.7523 45.8359 25.9928 45.686C26.2153 45.5474 26.3617 45.4561 26.3617 45.2808C26.2711 44.9155 25.2746 44.5508 22.6475 45.7373C21.651 46.1938 20.6545 46.833 20.6545 46.833C20.6545 46.833 21.0168 45.5547 21.198 44.7329C21.3792 43.8203 21.651 42.2681 21.3792 42.1768C21.2264 42.1255 21.1882 42.1895 21.0713 42.3853C20.9803 42.5376 20.8416 42.77 20.5639 43.0898C20.2015 43.5464 20.0204 43.8203 19.8392 43.729C19.6739 43.6733 19.6426 43.4824 19.6028 43.2388C19.5771 43.082 19.5478 42.9033 19.4768 42.7246C19.2957 42.2681 18.9333 41.6294 18.7521 41.7207C18.594 41.8003 18.4704 42.332 18.321 42.9741C18.1281 43.8037 17.8923 44.8179 17.4839 45.2808C17.2121 45.5547 16.9403 45.7373 16.5779 45.8286C16.0344 46.0112 15.4909 46.1025 14.9473 46.1025C14.3132 46.1025 13.6791 45.9199 13.045 45.7373L12.9431 45.6934C12.2911 45.4146 11.196 44.9458 10.5084 43.8203L10.4178 43.6377C9.78372 43.5464 9.14957 43.3638 8.33426 42.9985C8.44882 43.2681 8.56339 43.5537 8.67795 43.8418C8.83517 44.2373 8.99237 44.6372 9.14957 45.0068C9.9649 47.0156 11.1425 50.5757 10.0555 53.3145C8.69662 56.6011 5.61658 57.2402 5.25421 56.5098C5.15094 56.2671 5.45322 56.1162 5.94226 55.8726C6.74017 55.4751 8.03534 54.8301 8.87781 53.1318C9.9649 50.9409 9.14957 48.1108 9.14957 48.1108C9.14957 48.1108 9.14957 50.4844 7.42838 52.1279C5.98129 53.52 4.91629 53.4199 4.33737 53.3652C4.11899 53.3447 3.96979 53.3306 3.89536 53.4058C3.53302 53.6797 4.07654 53.8623 4.52948 54.1362C4.89185 54.3188 5.43539 54.5015 5.43539 54.5015C5.43539 54.5015 4.89185 55.0493 4.07654 55.4146C3.35184 55.7793 2.89886 55.9619 2.89886 56.2358C2.89886 56.4185 3.89536 57.4229 4.89185 57.8794C5.88834 58.3354 7.06601 58.4268 7.06601 58.4268C7.06601 58.4268 7.15662 58.3354 6.79425 58.8833C6.66275 59.1152 6.53125 59.2871 6.42572 59.4248C6.24045 59.667 6.13525 59.8047 6.2507 59.979C6.43188 60.3442 6.70364 60.2529 8.15308 59.3398C9.60254 58.4268 9.96487 57.8794 9.96487 57.8794C9.96487 57.8794 9.96487 58.062 9.78372 58.6094C9.74741 58.8291 9.66739 59.0049 9.60208 59.1479C9.50449 59.3623 9.43973 59.5044 9.60254 59.6138ZM16.5779 60.5269C16.5779 60.5269 21.4698 61.2568 24.0063 60.8008C26.2711 60.3442 28.1735 59.7964 30.71 57.6968C33.4277 55.2319 34.4242 51.7627 34.8771 49.937C35.5112 47.2896 35.4207 42.4507 35.4207 42.4507V17.1631C35.4207 17.1631 35.2395 11.6855 35.6018 10.3159C36.0548 8.94678 36.8701 7.94238 37.323 7.39453C38.4101 6.20801 40.6749 5.84277 40.6749 5.84277C41.309 5.75146 41.4902 5.47754 41.3996 5.1123C41.309 4.56445 40.9466 4.56445 40.9466 4.56445H24.5499C24.5499 4.56445 24.0969 4.56445 24.1875 5.021C24.0969 5.29492 24.2781 5.66016 24.9122 5.75146C24.9122 5.75146 27.177 6.20801 28.264 7.30322C28.8076 7.85107 29.6229 8.85547 29.9853 10.2246C30.3476 11.5942 30.1664 17.0718 30.1664 17.0718L29.8041 42.3594C29.8041 42.5264 29.8062 42.7759 29.8088 43.085C29.8233 44.8042 29.8532 48.3613 29.6229 49.7544C29.2605 52.1279 28.717 54.0449 27.2675 55.5967C25.8181 57.1489 24.4593 57.6055 22.5569 57.6055C20.6545 57.6055 19.3862 57.0576 18.0274 55.9619C16.6685 54.8667 14.0414 52.4019 14.0414 52.4019L16.5779 60.5269ZM42.7584 45.3721C40.7654 45.5547 39.316 44.0029 39.1348 42.2681C39.0443 41.3555 39.316 40.5337 39.8596 40.0771C40.4937 39.2559 41.3996 38.7993 42.0337 38.708C42.849 38.6167 43.4832 38.8906 43.9361 39.0732C44.0232 39.1025 44.1102 39.1411 44.1913 39.1772C44.3634 39.2534 44.5087 39.3174 44.5702 39.2559C44.7514 39.1646 44.7514 38.8906 44.6608 38.6167C44.4796 38.2515 44.2079 37.8862 43.8455 37.6123C43.3926 37.2471 42.7584 37.1558 42.0337 37.1558C39.9921 37.2451 38.8203 38.8252 38.5182 39.2324L38.5007 39.2559C38.4753 39.2305 38.4499 39.1978 38.4204 39.1597C38.345 39.062 38.2432 38.9307 38.0478 38.7993C37.5948 38.5254 37.2325 38.4341 37.0513 38.6167C36.9946 38.6738 37.0089 38.731 37.0496 38.8105C37.074 38.8579 37.1079 38.9136 37.1418 38.9819C37.2325 39.1646 37.5042 39.438 37.5948 39.8032C37.776 40.1685 37.6854 40.625 37.6854 41.1729C37.6854 41.2979 37.6807 41.4419 37.6755 41.5986C37.6582 42.1279 37.6362 42.8003 37.776 43.3638C38.1383 45.2808 39.8596 47.1982 42.4867 47.2896C42.7584 47.2896 43.0302 47.2896 43.302 47.1982C44.4796 46.833 45.2043 46.1938 45.7479 45.5547C45.7959 45.5547 45.8185 45.5547 45.8425 45.5684C45.8639 45.5801 45.8864 45.603 45.9291 45.646C46.382 46.0112 47.2879 46.7417 47.9221 47.1069C48.1032 46.4678 48.1938 45.646 48.1938 45.1895C48.0126 45.0981 47.0161 44.3682 45.5667 42.8159C44.2985 41.5381 43.9361 41.0815 43.9361 41.0815C43.7549 40.8989 42.9396 40.2598 42.1243 40.2598C41.3996 40.2598 41.1278 40.4424 41.1278 40.4424L41.309 40.7163C41.3757 40.7837 41.5899 41.0981 41.9877 41.6245C42.13 41.8125 42.2957 42.0278 42.4867 42.2681C43.1471 43.0815 43.867 43.7754 44.2611 44.1553C44.3535 44.2441 44.428 44.3159 44.4796 44.3682L44.6608 44.4595C44.2079 44.9155 43.5737 45.2808 42.7584 45.3721ZM37.6854 23.188C37.6854 23.188 37.5042 24.375 37.8666 26.9312C38.0478 28.3008 38.3195 29.5786 38.5913 30.2178L40.4031 29.396C40.3736 29.2471 40.3152 29.0303 40.2436 28.7646C40.0955 28.2158 39.8911 27.4575 39.769 26.6572C39.4972 25.1055 39.5878 24.7402 39.5878 24.7402C39.2254 24.375 38.2289 23.3706 37.6854 23.188ZM37.1418 21.3623C37.1418 21.3623 38.1383 21.6362 39.4066 22.8232C40.2219 23.5532 40.9466 24.375 41.4902 25.1055L41.8525 22.8232C41.6804 22.6499 41.5083 22.458 41.3276 22.2563C40.9375 21.8218 40.5073 21.3428 39.9501 20.9058C39.1348 20.1758 37.776 19.4453 37.1418 19.1714V21.3623ZM56.7999 59.979C58.3399 59.5225 59.3364 58.3354 59.8799 56.5098C60.1517 55.7793 60.1517 54.7754 59.8799 53.5884C59.6987 52.9492 59.0646 51.4888 56.981 50.1191C55.9901 49.4775 54.8884 49.1143 54.3677 48.9424C54.222 48.8945 54.1218 48.8613 54.0822 48.8413C54.5351 47.7456 55.3504 47.563 55.3504 47.4717C55.3504 47.3809 54.7163 47.0156 54.0822 47.1982C53.5386 47.2896 52.9951 47.8369 52.8139 48.1108C52.7233 48.4761 52.6327 48.75 52.361 49.6631C52.6132 49.79 53.0606 49.9956 53.5401 50.2163C54.0938 50.4707 54.6903 50.7451 55.0787 50.9409C57.0716 51.9453 57.9775 53.0405 58.3399 54.3188C58.5211 54.958 58.5211 55.5059 58.3399 56.0532C57.887 57.7881 56.4375 58.8833 54.9881 58.5181C54.0822 58.3354 53.3575 57.7881 52.9951 57.1489C52.7233 56.6011 52.6327 55.9619 52.9045 55.3232C53.0857 54.7754 53.3575 54.5928 53.6292 54.5015C53.9916 54.4102 54.3539 54.4102 54.6257 54.5928C55.2598 54.8667 55.2598 55.3232 55.2598 55.688C55.2598 55.7871 55.2598 55.8862 55.2743 55.9702C55.2864 56.0415 55.3089 56.1025 55.3504 56.1445C55.441 56.1445 55.6222 56.1445 55.7128 56.0532C55.9846 55.9619 56.1657 55.5059 56.1657 55.0493C56.1657 54.4102 55.8034 53.5884 54.7163 53.1318C53.6292 52.6758 52.1798 53.3145 51.6362 54.5015C50.869 56.1338 51.3853 57.6045 51.5244 58.0005L51.5457 58.062C51.5457 58.1533 51.2739 58.3354 51.0927 58.7007C50.7303 59.2485 50.7303 59.7964 50.8209 59.979C50.8209 60.0703 50.9115 60.0703 50.9115 60.0703C50.9453 60.0703 50.979 60.0576 51.0128 60.0371C51.0696 60.002 51.1265 59.9448 51.1833 59.8877C51.2514 59.8188 51.3706 59.6987 51.541 59.5659C51.5973 59.522 51.6593 59.4766 51.7268 59.4312C52.2704 59.1572 52.7233 59.2485 52.8139 59.2485C53.7198 59.7964 54.5351 60.1616 55.5316 60.1616C55.894 60.1616 56.3469 60.1616 56.7999 59.979ZM57.3434 47.6543C58.5211 47.563 59.8799 46.4678 60.3329 44.0029C60.514 42.9072 60.2423 41.6294 59.0646 40.9902C58.4305 40.0771 57.6152 39.5293 56.6187 39.3467C55.2598 39.0732 53.3575 39.2559 51.0927 41.7207C51.0927 41.812 50.8209 42.1768 50.6398 42.4507C50.5492 42.2681 50.5492 41.9941 50.4586 41.812C50.1868 40.8989 49.5527 39.3467 48.2844 37.2471L48.28 37.2412C47.5575 36.1489 47.015 35.3286 46.4726 34.6909C46.0197 34.0518 45.5667 33.5044 45.2043 32.7739C44.5702 31.4956 44.389 29.2134 44.6608 28.8481C44.6608 28.7568 44.7514 28.7568 44.7514 28.7568C45.0232 28.8481 45.1138 29.0308 45.2043 29.5786C45.295 30.1265 45.4761 31.1309 46.2008 32.3174C46.7227 33.2192 47.1219 33.688 47.4994 34.1304C47.5805 34.2256 47.6607 34.3198 47.7409 34.417C48.1032 34.8735 48.4656 35.3301 49.0091 36.0605C50.0962 37.7036 50.368 38.4341 50.368 38.4341L50.4586 38.6167V38.4341C50.4586 38.4341 50.0056 35.3301 50.4586 32.1348C50.7303 30.4917 51.2739 29.1221 51.6362 28.2095L51.7328 27.9844C51.9488 27.4824 52.078 27.1826 51.9986 27.0225C51.9986 26.9312 51.908 26.8398 51.8174 26.8398C51.6037 26.8398 51.334 27.1221 50.9642 27.5093C50.8638 27.6143 50.7559 27.7271 50.6398 27.8442C50.5492 28.0269 50.368 28.2095 50.1868 28.3921C49.5752 29.0083 49.1165 29.7275 48.8873 30.0869C48.8109 30.2065 48.76 30.2861 48.7374 30.3091C48.6468 30.3091 47.4691 29.9438 47.3785 27.479C47.3041 26.1279 47.4132 25.271 47.5047 24.5527C47.5245 24.397 47.5435 24.2476 47.5597 24.1011C47.6503 23.7358 47.7409 23.3706 47.7409 22.9146C47.7409 22.7319 47.7409 22.6406 47.6503 22.6406C47.3785 22.5493 46.5632 23.5532 46.1103 24.4663C45.8385 25.0142 45.8385 25.4707 45.7479 25.7441C45.6573 26.0181 45.6573 26.2007 45.5667 26.2007H45.4761C45.2043 26.0181 44.7514 25.2881 44.6608 24.0098V22.8232C44.6608 22.2754 44.6608 21.9102 44.4796 21.8188C44.389 21.7275 44.2985 21.7275 44.2079 21.8188C43.9361 22.0015 43.6643 22.458 43.3926 23.188C43.2114 23.7358 42.9396 24.7402 42.849 26.1094C42.7006 28.2783 42.7954 29.8345 42.8345 30.4771C42.8431 30.6191 42.849 30.7163 42.849 30.7656C42.6678 30.7656 41.8525 30.7656 40.7654 31.1309C39.6784 31.4043 37.776 32.3174 37.8666 32.7739C37.9572 32.9565 38.3195 32.9565 38.7725 32.8652C39.1348 32.7739 39.4972 32.7739 39.769 32.7739C40.3125 32.8652 40.9466 33.1392 41.1278 33.2305C40.9466 33.3218 40.3125 33.687 39.4066 34.5996L39.2379 34.7681C38.5513 35.4541 37.8106 36.1938 38.2289 36.6992C38.3077 36.8579 38.5921 36.7407 38.9628 36.5879L39.1348 36.5171C40.0407 36.0605 41.6714 35.3301 43.6643 36.1519C45.9291 37.0645 47.2879 38.4341 48.5562 41.1729C48.8279 41.9033 49.0997 42.7246 49.2809 43.729C49.7339 46.1938 49.1903 49.2979 46.9256 52.1279C45.7346 53.585 45.1028 54.1572 44.28 54.9019L44.1173 55.0493C41.2184 57.5142 39.4972 57.9707 39.316 57.6055C39.2663 57.4551 39.8996 57.0015 40.7657 56.3813C41.4768 55.8726 42.3448 55.251 43.1208 54.5928C45.8385 52.2192 47.1068 50.667 47.1068 50.667C47.1068 50.667 44.5702 52.4932 42.2149 52.3105C41.2631 52.1826 40.5336 51.6064 40.1507 51.3047C39.987 51.1753 39.8867 51.0962 39.8596 51.1235C39.5878 51.3975 40.0407 52.4019 40.2219 52.6758C40.4031 53.0405 40.7654 53.3145 40.7654 53.3145C40.7654 53.3145 40.6749 53.4971 39.8596 53.4971C39.1348 53.4971 38.9537 53.0405 38.8631 53.1318C38.6819 53.2231 38.7725 53.771 39.316 54.3188C39.8596 54.8667 40.4031 55.0493 40.4031 55.0493C40.4031 55.0493 39.5878 55.3232 38.3195 55.3232C37.8184 55.3232 37.3173 55.208 36.9198 55.1162C36.527 55.0259 36.2354 54.9585 36.1454 55.0493C35.8636 55.3335 36.1845 55.6172 36.5541 55.9438C36.6598 56.0371 36.7694 56.1343 36.8701 56.2358C37.323 56.6924 37.5948 56.6924 37.5948 56.6924C37.5948 56.6924 37.5042 57.2402 36.1454 57.4229C35.3745 57.5684 34.6804 57.4043 34.1859 57.2871C33.7507 57.1841 33.4701 57.1177 33.4277 57.3315C33.2465 57.8794 34.9677 59.3398 36.9607 59.5225C38.8631 59.7051 40.5843 58.792 40.5843 58.792C40.5843 58.792 40.4937 59.1572 39.6784 60.1616C39.2639 60.6255 38.9431 60.8535 38.7516 60.9897C38.5664 61.1216 38.5022 61.167 38.5913 61.2568C38.9536 61.6221 40.2219 61.4395 44.5702 57.4229V57.6968C44.842 61.8047 48.8279 60.8921 48.8279 60.6182C48.7374 60.4355 48.0126 60.4355 47.3785 59.979C46.5632 59.4312 46.6538 59.0659 46.6538 59.0659C46.6538 59.0659 46.7081 59.1206 46.8464 59.1704C46.9608 59.2114 47.1325 59.2485 47.3785 59.2485C47.9221 59.2485 48.1938 59.2485 48.1938 59.0659C48.1938 59.0161 48.0932 58.9731 47.9393 58.9077C47.528 58.7319 46.7363 58.3945 46.4726 57.3315C46.2914 56.5098 46.5632 55.7793 47.0162 55.2319C50.6398 50.667 51.1833 48.1108 51.4551 46.3765C51.4551 46.0112 51.7268 44.0942 52.5421 42.8159C53.1763 41.812 54.0822 40.8989 55.441 40.625C55.6222 40.5337 55.8034 40.5337 55.9846 40.5337H56.1657C57.3434 40.625 57.7964 41.1729 58.0681 41.7207C58.5211 42.542 58.4305 43.4551 57.887 44.2769L57.5246 44.6421C57.3434 44.7329 57.2528 44.9155 57.2528 45.0068C57.2528 45.1406 57.3014 45.1763 57.3629 45.2217C57.3854 45.2383 57.4097 45.2563 57.434 45.2808C57.5307 45.2808 57.6274 45.2808 57.7379 45.2671C57.8344 45.2549 57.9414 45.2319 58.0681 45.1895H58.1587C58.2532 45.0942 58.3231 45.0488 58.3811 45.0269C58.4344 45.0068 58.4777 45.0068 58.5211 45.0068V45.0981C58.5211 45.3721 58.6117 45.7373 57.6152 46.5591C57.2528 46.833 56.981 46.9243 56.7093 47.0156C56.5281 47.0156 56.3469 47.1069 56.3469 47.1982V47.3809C56.371 47.4292 56.4078 47.4712 56.4558 47.5068C56.5883 47.605 56.8055 47.6543 57.0716 47.6543H57.3434ZM37.9572 17.9844L39.6784 19.0801C39.8596 18.9888 40.3125 18.7148 41.3996 18.5322C42.2149 18.4409 42.849 18.4409 43.302 18.5322C43.6643 18.6235 43.8455 18.6235 43.9361 18.5322C44.1173 18.0757 43.1208 17.0718 42.3055 16.7065C41.4902 16.3413 40.5843 16.4326 40.3125 16.5239C40.9466 14.8809 41.7619 12.8721 42.5772 11.7769C43.8455 10.042 46.7444 7.12061 51.3645 7.30322C56.1657 7.48584 58.2493 11.3203 58.2493 14.9717C58.2493 16.4326 57.7057 17.9844 56.7999 19.1714C55.8034 20.4492 54.5351 21.1797 53.1763 21.3623C50.8209 21.6362 48.7374 20.0845 48.375 17.8931C48.1032 16.4326 48.375 15.063 49.0091 14.2417C49.4621 13.5112 50.2774 13.146 51.1833 13.146C51.908 13.146 52.361 13.4199 52.6327 13.6938C52.9951 14.0591 53.1763 14.6069 53.1763 15.1543C53.1763 16.25 52.5421 16.5239 52.1798 16.7065C51.908 16.8892 51.8174 16.8892 51.8174 17.0718C51.908 17.1631 51.908 17.3457 52.0892 17.437C52.361 17.6191 52.9045 17.6191 53.448 17.437C54.1728 17.1631 54.8975 16.3413 54.8975 14.6069C54.8069 12.9634 53.3575 11.3203 51.7268 11.229C49.0997 11.0464 47.4691 12.9634 47.4691 12.9634H47.3785C47.3785 12.9634 46.9256 12.6895 46.2914 12.5981C45.4761 12.4155 44.9326 12.6895 44.7514 12.8721V12.9634C44.7514 12.9634 44.842 13.0547 45.0232 13.146C45.2303 13.2158 45.4374 13.3384 45.6847 13.5142C45.7618 13.5688 45.8429 13.6289 45.9291 13.6938C46.5632 14.333 46.7444 15.1543 46.7444 15.1543C46.4726 17.2544 46.6538 19.0801 48.0126 20.9971C49.7339 23.3706 52.1798 23.3706 53.2668 23.3706C53.4276 23.3706 53.5883 23.4028 53.7115 23.4287C53.7967 23.4468 53.864 23.4619 53.901 23.4619C54.1728 23.5532 54.2634 23.8271 54.2634 24.0098C54.2634 24.1924 54.2633 24.375 53.901 24.6489C53.3575 25.1055 53.1763 25.4707 53.3575 26.4746C53.448 27.0225 53.8104 27.6616 54.1728 28.3008C54.6257 28.9395 54.9881 29.6699 55.0787 30.3091C55.3438 32.0898 55.1779 33.0894 55.0855 33.6455L55.0787 33.687V34.1431C55.126 34.1909 55.1487 34.2139 55.1724 34.2246C55.194 34.2344 55.2166 34.2344 55.2598 34.2344C55.5316 34.2344 56.1657 33.687 56.6187 33.0479C56.8904 32.5913 56.8904 31.9521 56.8904 31.4956C56.8904 31.1309 56.8904 30.9482 56.981 30.8569H57.0716C58.0681 31.0396 58.1587 32.8652 58.0681 33.5957C58.0681 33.8691 57.9775 34.1431 57.887 34.3257C57.7964 34.5083 57.7964 34.5996 57.887 34.7822C57.9775 34.8735 58.2493 34.8735 58.4305 34.7822C58.5211 34.6909 58.6117 34.6909 58.7023 34.6909C58.7928 34.6909 58.8834 34.6909 58.974 34.7822C59.1552 35.1475 58.8834 35.7866 58.3399 36.1519C58.2493 36.2432 58.1587 36.2432 58.0681 36.3345L57.9451 36.4082C57.552 36.6426 57.2612 36.8159 57.3434 37.0645C57.3434 37.0645 57.3434 37.0913 57.358 37.1162C57.3702 37.1367 57.3926 37.1558 57.434 37.1558C57.887 37.2471 58.974 37.1558 59.6987 36.4258C60.6952 35.604 60.967 34.5083 60.7858 32.6826C60.6046 30.8569 59.0646 29.4873 59.0646 29.4873V29.396C59.0646 29.396 59.2309 29.3721 59.4662 29.2993C59.6903 29.2305 59.9771 29.1177 60.2423 28.9395C60.967 28.3921 61.3293 28.0269 61.2388 27.7529C61.1482 27.6616 60.7858 27.5703 60.4235 27.5703C60.2704 27.5444 60.103 27.5259 59.9272 27.5068C59.4789 27.4575 58.9766 27.4019 58.5211 27.2051C57.434 26.8398 56.5281 26.0181 56.1657 25.1055C55.894 24.4663 55.8034 23.5532 56.7093 22.458L56.8904 22.2754C58.2493 21.0884 60.3329 19.2627 60.514 14.8809C60.6046 12.1421 59.5176 10.1333 58.974 9.12939C58.7928 8.85547 58.7023 8.67285 58.7023 8.58154C58.7023 8.39893 58.8834 8.21631 59.1552 7.94238L59.2465 7.88184C59.5211 7.7002 59.918 7.43799 60.2423 7.0293C60.7858 6.29932 60.967 5.66016 60.967 5.47754C60.8764 5.47754 60.6953 5.56885 60.514 5.66016C60.2423 5.84277 59.7893 6.02539 59.3364 6.1167C58.5211 6.39062 57.2528 6.1167 56.0751 5.84277C55.894 5.84277 55.8034 5.75146 55.6222 5.75146C54.4445 5.47754 52.9045 5.20361 51.2739 5.20361C48.2844 5.20361 44.842 6.20801 42.0337 9.31201C39.3727 12.2612 38.275 16.6992 37.9752 17.9111L37.9572 17.9844Z" fill="#990000"/>
<path d="M100.193 7.39453C98.8338 7.48584 96.2067 7.48584 93.8513 7.48584C92.4748 7.48584 91.0121 7.45654 89.7379 7.43115H89.7227C88.7391 7.41162 87.8687 7.39453 87.2383 7.39453C87.2148 7.39453 87.1975 7.39453 87.183 7.396C87.1738 7.39697 87.1657 7.39893 87.1581 7.40137C87.1314 7.41113 87.1093 7.43311 87.0571 7.48584C87.0571 7.48584 87.0301 7.51318 87.0056 7.55273C86.9852 7.58545 86.9665 7.62695 86.9665 7.66846V8.03369C86.9665 8.125 87.0571 8.21631 87.1477 8.21631C89.503 8.58154 91.1336 8.85498 91.1336 14.0591V44.3677C91.1336 50.1191 88.416 56.2358 84.0676 56.2358C83.2523 56.2358 82.5276 56.1445 81.8029 56.0532C78.7228 55.3228 76.911 53.1318 75.7333 51.5801C75.6428 51.4888 75.5748 51.375 75.5069 51.2607C75.4694 51.1978 75.432 51.1348 75.3907 51.0757C75.3571 51.0273 75.321 50.9819 75.2804 50.9409C74.0121 49.1152 73.4686 47.3804 73.4686 47.3804C73.378 47.1978 73.2874 47.1064 73.1062 47.1978C72.925 47.1978 72.8345 47.3804 72.8345 47.563L73.831 55.5054C73.831 55.5967 73.9215 55.688 74.0121 55.7793C76.8204 57.605 80.444 58.1528 81.0782 58.2441C82.2558 58.4268 83.1617 58.4268 83.7053 58.4268H84.43C91.6772 58.4268 96.569 52.4927 96.569 43.6377V14.0591C96.569 8.94629 97.7467 8.67285 100.193 8.21631H100.283C100.374 8.21631 100.464 8.125 100.464 8.03369V7.66846C100.464 7.62939 100.464 7.60693 100.457 7.5874C100.453 7.57373 100.444 7.56104 100.431 7.54492C100.417 7.5293 100.399 7.51123 100.374 7.48584C100.374 7.48584 100.283 7.39453 100.193 7.39453Z" fill="#990000"/>
<path fill-rule="evenodd" clip-rule="evenodd" d="M257.819 57.6963C253.743 56.3271 249.032 47.8369 245.68 41.6289L245.249 40.8574C243.464 37.6631 242.067 35.165 241.06 34.2344C246.949 31.9521 250.391 27.2051 250.391 21.5449C250.391 12.9634 243.868 7.39453 233.722 7.39453C232.998 7.39453 231.82 7.39453 230.642 7.48584C229.881 7.48584 229.094 7.51123 228.348 7.53516L227.619 7.55762C227.213 7.56885 226.828 7.57715 226.475 7.57715C223.395 7.57715 222.127 7.57715 219.772 7.39453C219.681 7.39453 219.681 7.39453 219.59 7.48584C219.59 7.48584 219.5 7.57715 219.5 7.66846V8.03369C219.5 8.125 219.59 8.21631 219.681 8.21631C222.036 8.58154 222.852 9.49414 222.852 14.3325V51.6714C222.852 57.2402 221.946 57.4229 219.59 57.7876C219.5 57.7876 219.409 57.8789 219.409 57.9702V58.3354C219.409 58.4268 219.409 58.4268 219.5 58.5181C219.5 58.5181 219.59 58.6094 219.681 58.6094C221.13 58.5181 223.033 58.4268 225.75 58.4268C228.649 58.4268 230.914 58.5181 231.82 58.6094C231.858 58.6094 231.881 58.6094 231.9 58.6025C231.927 58.5928 231.949 58.5708 232.001 58.5181C232.001 58.5181 232.031 58.4878 232.057 58.4443C232.067 58.4277 232.076 58.4092 232.082 58.3901C232.088 58.3726 232.092 58.354 232.092 58.3354V57.9702C232.092 57.8789 232.001 57.7876 231.911 57.7876C229.555 57.4229 228.649 57.2402 228.649 51.6714V35.7866H232.907C233.632 35.7866 234.628 35.6953 235.806 35.5127C236.926 36.5601 238.116 38.7456 239.003 40.3745L239.339 40.9902C239.52 41.355 239.701 41.6289 239.792 41.9028C247.945 57.3315 248.851 58.2441 256.279 58.6094C257.095 58.6094 257.366 58.6094 258.091 58.5181C258.182 58.5181 258.272 58.4268 258.272 58.3354V57.8789C258 57.7876 257.91 57.6963 257.819 57.6963ZM244.05 22.3662C244.05 30.2178 240.064 33.7778 231.548 33.7778H228.468V10.042C230.461 9.49414 231.82 9.40283 233.269 9.40283C239.792 9.40283 244.05 14.5151 244.05 22.3662Z" fill="#990000"/>
<path d="M118.572 28.8975L118.763 29.0308L118.943 29.1553C124.143 32.769 129.541 36.5195 129.362 44.6421C129.362 52.7671 123.565 58.5181 115.23 58.5181C112.784 58.5181 111.063 58.1533 109.523 57.7881L109.312 57.7427C108.123 57.4844 106.996 57.2402 105.628 57.2402L105.421 57.2407C105.272 57.2417 105.154 57.2451 105.039 57.2568L105.009 57.2598L104.903 57.2744L104.837 57.2856C104.774 57.2974 104.706 57.3125 104.631 57.3315C104.593 57.3315 104.571 57.3315 104.551 57.3247C104.536 57.3193 104.523 57.3101 104.505 57.2939L104.45 57.2402C104.405 57.2402 104.382 57.2173 104.371 57.1826C104.364 57.1606 104.361 57.1348 104.36 57.1069L104.36 57.0576C104.45 56.6924 104.45 55.8706 104.45 55.3232C104.45 54.5928 104.36 53.8623 104.269 53.1318L104.246 52.9268C104.164 52.187 104.088 51.5034 104.088 50.667C104.088 50.1196 104.178 48.1108 104.903 46.3765C104.903 46.3765 104.994 46.2852 105.084 46.2852H105.447C105.537 46.2852 105.628 46.2852 105.628 46.3765C105.68 46.4287 105.702 46.4512 105.711 46.478C105.718 46.4976 105.718 46.52 105.718 46.5591V46.7417C105.718 47.0283 105.694 47.2896 105.67 47.5391C105.648 47.7666 105.628 47.9844 105.628 48.2021C105.628 53.5884 110.791 56.4185 115.864 56.4185C120.303 56.4185 124.742 53.6797 124.742 47.563C124.742 41.1382 120.113 37.9424 115.268 34.5962L115.14 34.5083L114.946 34.3721C109.932 30.855 104.722 27.2002 104.722 19.7192C104.722 12.5068 109.886 7.48584 117.314 7.48584C119.149 7.48584 120.704 7.76953 122.101 8.02441L122.659 8.125C123.927 8.39893 125.014 8.58154 126.192 8.58154C126.554 8.58154 126.916 8.58154 127.279 8.49023C127.369 8.49023 127.369 8.49023 127.46 8.58154C127.551 8.58154 127.551 8.67285 127.551 8.76416L127.518 9.28662C127.439 10.5215 127.369 11.6226 127.369 13.146C127.369 14.1504 127.369 15.7935 127.46 16.7979C127.46 16.8892 127.369 16.8892 127.369 16.9805C127.279 17.0718 127.279 17.0718 127.188 17.0718H126.826C126.774 17.0718 126.722 17.042 126.687 16.9995C126.661 16.9673 126.645 16.9282 126.645 16.8892C125.648 11.9595 122.478 9.31201 117.495 9.31201C111.697 9.31201 109.614 13.146 109.614 16.7065C109.614 22.6504 113.933 25.6621 118.572 28.8975Z" fill="#990000"/>
<path fill-rule="evenodd" clip-rule="evenodd" d="M167.501 33.3218C167.501 20.6318 176.832 7.48584 192.504 7.48584C206.092 7.48584 216.782 18.8062 216.782 33.1392C216.782 47.3809 205.911 58.5181 191.96 58.5181C176.651 58.5181 167.501 45.646 167.501 33.3218ZM191.96 56.4185C203.103 56.4185 210.078 47.6543 210.078 33.5044C210.078 15.7935 200.294 9.49463 191.96 9.40332C178.915 9.40332 174.295 22.0928 174.295 33.0479C174.295 47.6543 180.908 56.4185 191.96 56.4185Z" fill="#990000"/>
<path d="M169.132 7.57715V7.75977C168.588 9.58545 167.773 12.9634 167.773 14.0591C167.773 14.1504 167.682 14.2417 167.592 14.2417H167.139C167.048 14.2417 166.957 14.2417 166.957 14.1504V13.9678C166.957 13.8408 166.977 13.6938 166.998 13.5366C167.011 13.4399 167.024 13.3394 167.034 13.2373C167.042 13.147 167.048 13.0552 167.048 12.9634C167.048 11.0464 165.417 10.5898 153.278 10.5898V51.7627C153.278 57.3315 154.184 57.5142 156.54 57.8794C156.63 57.8794 156.721 57.9707 156.721 58.062V58.4268C156.721 58.5181 156.63 58.6094 156.63 58.6094C156.597 58.6431 156.576 58.6641 156.558 58.6772C156.548 58.6851 156.539 58.6904 156.529 58.6938C156.519 58.6973 156.509 58.6992 156.496 58.7002L156.449 58.7007C155.634 58.6094 153.278 58.5181 150.47 58.5181C147.843 58.5181 145.85 58.6094 144.491 58.7007C144.401 58.7007 144.31 58.6094 144.31 58.6094C144.258 58.5571 144.236 58.5347 144.226 58.5078C144.224 58.501 144.222 58.4937 144.221 58.4854C144.219 58.4702 144.219 58.4521 144.219 58.4268V58.062C144.219 57.9707 144.31 57.8794 144.401 57.8794C146.756 57.5142 147.662 57.3315 147.662 51.7627V10.7725C137.063 10.7725 133.892 10.7725 131.899 15.063C131.899 15.063 131.867 15.0957 131.821 15.1221C131.791 15.1396 131.754 15.1543 131.718 15.1543H131.356C131.265 15.1543 131.174 15.1543 131.174 15.063L131.171 15.0586C131.121 15.0093 131.1 14.9878 131.091 14.9614C131.084 14.9414 131.084 14.9194 131.084 14.8809C131.356 13.6025 131.718 12.3242 132.08 11.0464C132.164 10.7358 132.257 10.417 132.353 10.0864C132.448 9.75879 132.546 9.41992 132.643 9.06738C132.707 8.8335 132.77 8.59375 132.83 8.34717C132.885 8.12646 132.937 7.90039 132.986 7.66846C132.986 7.62354 133.008 7.57861 133.041 7.54443C133.075 7.50928 133.121 7.48584 133.167 7.48584C148.568 7.85107 165.689 7.57715 168.95 7.48584C168.992 7.48584 169.034 7.48584 169.067 7.49463C169.105 7.50537 169.132 7.52783 169.132 7.57715Z" fill="#990000"/>
<path d="M91.3563 111.332C87.7327 108.803 84.3181 106.486 84.3181 101.851C84.3181 99.1124 85.9209 96.163 90.3807 96.163C94.2133 96.163 96.6523 98.1995 97.4188 101.992C97.4188 102.062 97.4885 102.132 97.5582 102.132H97.8369C97.9066 102.132 97.9066 102.132 97.9763 102.062C97.9763 101.992 98.046 101.992 98.046 101.921C97.9763 101.149 97.9763 99.8849 97.9763 99.1124C97.9763 97.7782 98.046 96.8653 98.1157 95.7417C98.1157 95.6714 98.1157 95.6012 98.046 95.6012C97.9763 95.531 97.9763 95.531 97.9066 95.531C97.6279 95.6012 97.3491 95.6012 97.0704 95.6012C96.1645 95.6012 95.3283 95.4608 94.3527 95.2501C93.1681 95.0394 91.8441 94.7585 90.2413 94.7585C84.5272 94.7585 80.5552 98.6209 80.5552 104.169C80.5552 109.997 84.6666 112.806 88.5689 115.545C92.3319 118.143 95.9555 120.601 95.9555 125.587C95.9555 130.292 92.5409 132.399 89.1264 132.399C85.224 132.399 81.252 130.222 81.252 126.079C81.252 125.728 81.3217 125.376 81.3217 124.955V124.815C81.3217 124.744 81.3217 124.744 81.252 124.674C81.252 124.604 81.1823 124.604 81.1126 124.604H80.8339C80.7642 124.604 80.6945 124.674 80.6945 124.674C80.1371 126.009 80.0674 127.553 80.0674 127.975C80.0674 128.677 80.1371 129.239 80.2067 129.871C80.2764 130.433 80.3461 130.994 80.3461 131.556C80.3461 131.978 80.3461 132.61 80.2764 132.891C80.2764 132.961 80.2764 133.031 80.3461 133.031C80.4158 133.101 80.4158 133.101 80.4855 133.101C80.7642 133.031 80.9036 133.031 81.252 133.031C82.367 133.031 83.2729 133.242 84.2485 133.452C85.4331 133.733 86.7571 134.014 88.6386 134.014C95.0495 134.014 99.5094 129.59 99.5094 123.34C99.6487 117.02 95.398 114.141 91.3563 111.332Z" fill="#990000"/>
<path d="M148.08 94.7585C136.024 94.7585 128.847 104.871 128.847 114.632C128.847 124.112 135.885 134.014 147.662 134.014C158.393 134.014 166.755 125.447 166.755 114.492C166.755 103.466 158.532 94.7585 148.08 94.7585ZM161.598 114.773C161.598 125.657 156.233 132.399 147.662 132.399C139.16 132.399 134.073 125.657 134.073 114.421C134.073 105.994 137.627 96.2332 147.662 96.2332C154.073 96.3035 161.598 101.149 161.598 114.773Z" fill="#990000"/>
<path d="M198.322 133.382C195.187 132.329 191.563 125.798 188.985 121.023C187.452 118.284 186.267 116.107 185.431 115.334C189.96 113.579 192.608 109.927 192.608 105.573C192.608 98.972 187.591 94.6883 179.786 94.6883C179.229 94.6883 178.323 94.6883 177.417 94.7585C176.302 94.7585 175.118 94.8287 174.212 94.8287C171.842 94.8287 170.867 94.8287 169.055 94.6883C168.985 94.6883 168.985 94.6883 168.916 94.7585C168.916 94.7585 168.846 94.8287 168.846 94.8989V95.1798C168.846 95.2501 168.916 95.3203 168.985 95.3203C170.797 95.6012 171.424 96.3034 171.424 100.025V128.747C171.424 133.031 170.727 133.171 168.916 133.452C168.846 133.452 168.776 133.523 168.776 133.593V133.874C168.776 133.944 168.776 133.944 168.846 134.014C168.846 134.014 168.916 134.084 168.985 134.084C170.1 134.014 171.564 133.944 173.654 133.944C175.884 133.944 177.626 134.014 178.323 134.084C178.393 134.084 178.393 134.084 178.462 134.014C178.462 134.014 178.532 133.944 178.532 133.874V133.593C178.532 133.523 178.462 133.452 178.393 133.452C176.581 133.171 175.884 133.031 175.884 128.747V116.528H179.159C179.717 116.528 180.483 116.458 181.389 116.317C182.365 117.23 183.41 119.267 184.107 120.531C184.246 120.812 184.386 121.023 184.455 121.233C190.727 133.101 191.424 133.803 197.138 134.084C197.765 134.084 197.974 134.084 198.531 134.014C198.601 134.014 198.671 133.944 198.671 133.874V133.523C198.462 133.452 198.392 133.382 198.322 133.382ZM187.73 106.205C187.73 112.244 184.664 114.983 178.114 114.983H175.745V96.7248C177.278 96.3034 178.323 96.2332 179.438 96.2332C184.455 96.2332 187.73 100.166 187.73 106.205Z" fill="#990000"/>
<path d="M130.101 94.9692C130.101 94.899 130.101 94.8287 130.101 94.8287C130.101 94.7585 130.031 94.7585 129.962 94.7585C127.453 94.8287 114.283 95.0394 102.436 94.7585C102.367 94.7585 102.297 94.8287 102.297 94.899C102.088 95.8821 101.809 96.7248 101.6 97.4973C101.321 98.4804 101.043 99.4636 100.834 100.447C100.834 100.517 100.834 100.517 100.903 100.587C100.903 100.657 100.973 100.657 101.043 100.657H101.321C101.391 100.657 101.461 100.587 101.461 100.587C102.994 97.2866 105.433 97.2866 113.586 97.2866V128.818C113.586 133.101 112.889 133.242 111.077 133.523C111.008 133.523 110.938 133.593 110.938 133.663V133.944C110.938 134.014 110.938 134.014 111.008 134.084C111.008 134.084 111.077 134.155 111.147 134.155C112.192 134.084 113.725 134.014 115.746 134.014C117.906 134.014 119.718 134.084 120.345 134.155C120.415 134.155 120.415 134.155 120.485 134.084C120.485 134.084 120.554 134.014 120.554 133.944V133.663C120.554 133.593 120.485 133.523 120.415 133.523C118.603 133.242 117.906 133.101 117.906 128.818V97.1462C127.244 97.1462 128.498 97.4973 128.498 98.972C128.498 99.2529 128.429 99.5338 128.429 99.7445C128.429 99.8147 128.429 99.8849 128.429 99.8849C128.429 99.9551 128.498 99.9551 128.568 99.9551H128.916C128.986 99.9551 129.056 99.8849 129.056 99.8147C129.056 98.972 129.683 96.3737 130.101 94.9692Z" fill="#990000"/>
<path d="M77.0711 94.6883C76.0259 94.7585 74.005 94.7585 72.1932 94.7585C70.3117 94.7585 68.2212 94.6883 67.1063 94.6883C67.0366 94.6883 67.0366 94.6883 66.9669 94.7585C66.9669 94.7585 66.8972 94.8287 66.8972 94.8989V95.1798C66.8972 95.2501 66.9669 95.3203 67.0366 95.3203C68.8484 95.6012 70.1027 95.8119 70.1027 99.8147V123.129C70.1027 127.553 68.0122 132.258 64.6673 132.258C64.0401 132.258 63.4827 132.188 62.9252 132.118C60.5559 131.556 59.1622 129.871 58.2563 128.677C58.1169 128.537 58.0473 128.326 57.9079 128.185C56.9323 126.781 56.5142 125.447 56.5142 125.447C56.4445 125.306 56.3748 125.236 56.2355 125.306C56.0961 125.306 56.0264 125.447 56.0264 125.587L56.7929 131.697C56.7929 131.767 56.8626 131.837 56.9323 131.907C59.0925 133.312 61.8799 133.733 62.3677 133.803C63.2736 133.944 63.9705 133.944 64.3886 133.944C64.737 133.944 64.946 133.944 64.946 133.944C70.5208 133.944 74.2838 129.379 74.2838 122.567V99.8147C74.2838 95.8821 75.1897 95.6714 77.0711 95.3203H77.1408C77.2105 95.3203 77.2802 95.2501 77.2802 95.1798V94.8989C77.2802 94.8287 77.2802 94.8287 77.2105 94.7585C77.2105 94.7585 77.1408 94.6883 77.0711 94.6883Z" fill="#990000"/>
<path d="M0 89V139H49.5457V89H0ZM8.71057 92.5112C8.71057 92.5112 10.2436 92.3708 11.7767 93.0028C12.4038 93.2837 12.8916 93.5646 13.3097 93.9157C13.9369 94.3371 14.4247 94.6882 15.0519 94.4775C15.8881 94.1966 16.0274 93.5646 16.0971 93.2135C16.0971 93.1433 16.1668 92.9326 16.1668 92.9326C16.2365 92.9326 16.3062 93.0028 16.4456 93.1433C16.5849 93.3539 17.003 94.1966 15.9578 95.6713C15.4003 96.514 14.4944 96.6545 14.4247 96.6545C14.355 96.6545 14.355 96.6545 14.355 96.7247C14.355 96.7247 14.355 96.7949 14.355 96.8652C14.4247 97.0758 14.4247 97.2163 14.4247 97.3567C14.4944 97.8483 14.4247 98.3399 14.0763 99.1826C13.5188 100.447 12.4735 101.219 11.0798 101.43C9.75583 101.57 8.64088 100.798 8.22278 99.9551C7.87435 99.1826 7.87435 98.2697 8.15309 97.4972C8.22278 97.2865 8.36214 97.1461 8.50151 97.0758C8.5712 97.0758 8.5712 97.0758 8.64088 97.1461C8.78025 97.2163 8.78025 97.4972 8.78025 97.7781C8.78025 98.059 8.78025 98.4803 8.91962 98.9017C9.12867 99.5337 9.82552 100.096 10.6617 100.025C11.9857 99.8848 12.822 98.9719 12.822 97.4972C12.822 95.9522 11.8464 94.1264 8.9893 94.0562C8.91962 94.0562 8.91962 94.0562 8.84994 94.0562C7.73498 94.0562 6.7594 94.4775 5.99287 95.25C5.08697 96.1629 4.45981 97.5674 4.45981 98.9719C4.39013 101.57 5.78382 103.115 6.89877 103.958C8.08341 104.801 9.8952 104.871 12.1251 104.098C12.8916 103.817 13.7279 103.537 14.5641 103.185C15.2609 102.904 15.9578 102.624 16.6546 102.343C17.0727 102.202 17.4908 102.062 17.9089 101.992H17.9786L18.118 101.921C17.9089 101.711 17.6999 101.36 17.4211 101.008C16.8637 100.166 16.6546 98.691 16.8637 98.3399C16.9333 98.1994 17.0727 98.1994 17.0727 98.1994H17.1424C17.1424 98.1994 17.1424 98.2697 17.1424 98.3399C17.1424 98.4101 17.1424 98.7612 17.2818 98.9719C17.4908 99.1826 17.7696 99.2528 17.9089 99.1826C17.9786 99.1826 17.9786 99.1124 17.9786 99.1124C18.0483 98.9719 18.1877 98.3399 18.6058 97.7781C18.8845 97.3567 19.7904 96.6545 20.3479 96.6545C20.3479 96.6545 20.3479 96.6545 20.4176 96.6545C20.5569 96.6545 20.6266 96.7247 20.6963 96.8652C20.766 97.0056 20.5569 97.2865 20.4873 97.3567C19.9995 97.8483 19.442 98.6208 19.442 99.8146C19.442 100.376 19.5814 100.868 19.9298 101.219C20.5569 101.921 21.6719 101.992 21.8809 101.992V103.256H21.8113C20.6963 103.256 19.8601 104.59 19.5117 105.994C19.3026 107.118 19.5117 108.663 19.5814 109.154C19.651 109.576 19.5814 109.716 19.5814 109.716C19.5814 109.716 19.5814 109.716 19.5117 109.716C19.3026 109.646 18.8845 109.154 18.3967 108.382C18.0483 107.82 18.118 107.118 18.1877 106.767C18.1877 106.556 18.2573 106.486 18.118 106.416C18.0483 106.346 17.9786 106.346 17.9089 106.346C17.7696 106.346 17.6999 106.416 17.5605 106.556C17.4908 106.697 17.4211 106.767 17.3514 106.837C17.2818 106.907 17.2818 106.907 17.1424 106.837C17.0727 106.556 17.3514 105.573 17.7696 104.941C18.118 104.379 18.3967 104.028 18.8845 103.607L19.0239 103.466L18.8845 103.537C17.2818 103.888 15.679 104.52 14.7034 105.222C13.4491 106.065 12.4038 107.118 11.707 108.242C11.5676 108.171 11.4283 108.101 11.1495 107.961C10.9405 107.89 10.6617 107.75 10.383 107.75C10.6617 107.329 11.2192 106.767 11.4283 106.486C11.4283 106.416 11.4283 106.346 11.4283 106.346C11.3586 106.275 11.3586 106.275 11.2889 106.275C11.2192 106.275 9.82552 106.837 7.31688 105.924C5.29602 105.152 3.1358 102.975 3.27517 99.0421C3.27517 94.8287 6.06255 92.7921 8.71057 92.5112ZM3.90233 110.559C4.0417 110.278 4.11139 110.067 4.18107 109.857C4.32044 109.435 4.45981 109.225 4.45981 108.663C4.52949 108.031 4.32044 107.539 4.18107 107.399C4.32044 107.399 4.80823 107.61 5.01729 108.031C5.15666 108.382 5.43539 109.225 5.36571 109.435V109.506C5.36571 109.506 5.43539 109.506 5.50508 109.435C5.8535 109.154 6.89877 108.382 8.64088 108.382C11.9857 108.382 13.4491 111.472 13.4491 111.542C13.4491 111.542 13.9369 111.683 14.7731 111.261C15.1215 111.121 15.3306 110.91 15.5397 110.77C15.8881 110.489 16.1668 110.208 17.003 110.208C17.8392 110.208 18.3967 110.629 18.5361 110.98C18.5361 111.051 18.6058 111.191 18.4664 111.261C18.327 111.331 18.327 111.331 18.2573 111.331C18.118 111.261 17.9786 111.191 17.3514 111.261C16.8637 111.331 16.5849 111.823 16.3759 112.315C16.0971 112.876 15.8184 113.438 15.1912 113.579C14.6338 113.719 13.9369 113.368 13.7975 113.157C13.7975 113.087 13.7279 113.017 13.6582 113.017C13.5885 113.017 13.5885 113.087 13.5885 113.157C13.5885 113.157 13.5885 113.649 13.2401 114.562C12.9613 115.404 11.6373 117.371 8.9893 116.669C7.38656 116.247 6.7594 114.702 6.82908 113.789C6.82908 113.508 6.96845 113.298 7.10782 113.228C7.24719 113.228 7.31688 113.298 7.38656 113.368C7.52593 113.719 7.6653 114.07 7.80467 114.351C8.08341 114.772 8.5712 115.264 9.12867 115.404C10.4527 115.685 11.2192 114.983 11.4283 114.913C11.9161 114.421 12.1948 113.649 12.1251 112.806C12.0554 111.753 11.4979 111.051 11.0102 110.699C10.4527 110.208 9.68615 109.927 8.91962 109.927H8.84994C7.87435 109.927 6.89877 110.348 6.13224 110.98C5.15666 111.823 4.59918 113.157 4.45981 114.702C4.39013 116.037 4.87792 117.581 5.92319 118.635C6.68972 119.478 7.6653 119.969 8.5712 119.969H8.64088C11.1495 119.969 12.7523 118.424 14.4944 116.739C16.0971 115.194 17.7696 113.579 20.3479 112.876C20.5569 112.806 21.4628 112.736 21.6022 112.736L21.5325 114.14C20.0691 114.421 18.0483 115.334 18.118 116.388C18.1877 117.371 18.8845 117.933 19.1632 118.213C19.2329 118.284 19.3026 118.354 19.3026 118.354C19.3026 118.354 19.3026 118.424 19.1632 118.424C18.8845 118.494 18.2573 118.635 17.7696 118.354C17.0727 118.073 16.4456 116.949 16.4456 116.949V116.879L16.3759 116.949C16.3759 116.949 14.355 119.056 13.3097 119.829C12.6129 120.32 10.7314 121.725 8.5712 121.584C7.03814 121.514 5.64445 120.812 4.59918 119.618C3.48423 118.354 2.92675 116.598 2.92675 114.772C3.1358 113.017 3.27517 112.174 3.90233 110.559ZM8.22278 118.775C7.80467 118.705 6.7594 118.003 6.68972 117.862C6.68972 117.511 6.7594 116.669 6.89877 116.177C7.45624 117.09 8.29246 117.511 8.29246 117.511C8.15309 118.073 8.22278 118.775 8.22278 118.775ZM8.01372 112.385C8.08341 111.753 8.43183 111.121 8.64088 110.84C9.40741 110.699 9.96489 111.121 10.0346 111.191C9.61647 112.034 9.33773 113.017 9.05899 113.93C8.78025 113.86 8.36214 113.438 8.01372 112.385ZM9.40741 132.329C8.71057 133.803 7.59561 135.067 7.38656 134.857C7.17751 134.716 7.45625 134.506 7.52593 134.084C7.6653 133.663 7.6653 133.522 7.6653 133.522C7.6653 133.522 7.38656 133.944 6.27161 134.646C5.15666 135.348 4.9476 135.419 4.80823 135.138C4.66886 134.927 4.9476 134.787 5.22634 134.295C5.50508 133.874 5.43539 133.944 5.43539 133.944C5.43539 133.944 4.52949 133.874 3.76296 133.522C2.99644 133.171 2.22991 132.399 2.22991 132.258C2.22991 132.048 2.57833 131.907 3.1358 131.626C3.76296 131.346 4.18107 130.924 4.18107 130.924C4.18107 130.924 3.76296 130.784 3.48423 130.643C3.1358 130.433 2.7177 130.292 2.99644 130.081C3.20549 129.871 4.18107 130.573 5.71413 129.098C7.03814 127.834 7.03814 126.008 7.03814 126.008C7.03814 126.008 7.6653 128.185 6.82908 129.871C5.78382 131.978 3.83265 131.978 4.0417 132.469C4.32044 133.031 6.68972 132.539 7.73498 130.011C8.5712 127.904 7.6653 125.166 7.03814 123.621C6.82908 123.129 6.62003 122.567 6.41098 122.076C7.03814 122.357 7.52593 122.497 8.01372 122.567L8.08341 122.708C8.64088 123.621 9.54678 123.972 10.0346 124.183C10.5224 124.323 11.0102 124.463 11.4979 124.463C11.9161 124.463 12.3342 124.393 12.7523 124.253C13.031 124.183 13.2401 124.042 13.4491 123.831C14.0066 123.199 14.146 121.233 14.4247 121.093C14.5641 121.022 14.8428 121.514 14.9822 121.865C15.1215 122.216 15.0519 122.567 15.2609 122.638C15.4003 122.708 15.5397 122.497 15.8184 122.146C16.3062 121.584 16.2365 121.374 16.4456 121.444C16.6546 121.514 16.4456 122.708 16.3062 123.41C16.1668 124.042 15.8881 125.025 15.8881 125.025C15.8881 125.025 16.6546 124.534 17.4211 124.183C19.442 123.27 20.2085 123.551 20.2782 123.831C20.2782 124.112 19.7904 124.112 19.3026 124.744C18.9542 125.166 19.0239 125.306 19.0239 125.306C19.0239 125.306 19.3026 125.306 20.1388 125.096C20.766 124.955 21.2538 124.674 21.4628 124.885C21.6022 125.166 20.8357 126.219 19.651 127.062C18.4664 127.904 17.4211 128.256 17.4211 128.256C17.4211 128.256 17.6302 128.537 18.2573 128.607C18.8845 128.747 19.0936 128.607 19.1632 128.817C19.2329 129.028 18.5361 129.239 17.4211 129.379C15.8184 129.52 14.9822 128.817 14.9822 128.817C14.9822 128.817 15.1912 129.379 14.9125 130.011C14.6338 130.433 14.6338 130.994 14.355 130.924C14.146 130.854 14.4247 130.292 13.9369 129.73C13.4491 129.098 12.8916 129.028 12.0554 128.326C11.2192 127.694 11.2192 127.202 11.2192 127.202C11.2192 127.202 12.6129 127.764 14.9125 127.343C17.1424 126.992 17.7696 126.289 17.6302 126.079C17.4908 125.868 17.1424 126.149 16.0971 126.36C14.9125 126.64 13.2401 126.57 11.4283 126.219C10.8011 126.079 9.8952 125.798 9.12867 125.306C9.40741 125.938 9.96489 127.062 10.0346 127.834C10.3133 129.309 10.1043 130.854 9.40741 132.329ZM18.4664 135.77C16.5152 136.121 12.7523 135.559 12.7523 135.559L10.8011 129.309C10.8011 129.309 12.822 131.205 13.8672 132.048C14.9125 132.89 15.8881 133.312 17.3514 133.312C18.8148 133.312 19.8601 132.961 20.975 131.767C22.09 130.573 22.5081 129.098 22.7868 127.272C22.9959 126.008 22.9262 122.427 22.9262 121.584L23.205 102.132C23.205 102.132 23.3443 97.9185 23.0656 96.8652C22.7868 95.8118 22.1597 95.0393 21.7416 94.618C20.9054 93.7753 19.1632 93.4242 19.1632 93.4242C18.6755 93.3539 18.5361 93.073 18.6058 92.8624C18.5361 92.5112 18.8845 92.5112 18.8845 92.5112H31.4974C31.4974 92.5112 31.7761 92.5112 31.8458 92.9326C31.9155 93.2135 31.7761 93.4242 31.2884 93.4944C31.2884 93.4944 29.5462 93.7753 28.71 94.6882C28.3616 95.1096 27.7344 95.882 27.386 96.9354C27.1073 97.9888 27.2467 102.202 27.2467 102.202V121.654C27.2467 121.654 27.3163 125.376 26.8285 127.413C26.4801 128.817 25.7136 131.486 23.6231 133.382C21.6719 134.997 20.2085 135.419 18.4664 135.77ZM30.1037 121.514C30.2431 122.848 31.358 124.042 32.8911 123.902C33.5183 123.831 34.0061 123.551 34.3545 123.199L34.2151 123.129C34.0061 122.919 33.3092 122.287 32.682 121.514C32.1246 120.812 31.8458 120.39 31.7761 120.32L31.6368 120.11C31.6368 120.11 31.8458 119.969 32.4033 119.969C33.0305 119.969 33.6576 120.461 33.797 120.601C33.797 120.601 34.0757 120.952 35.0513 121.935C36.1663 123.129 36.9328 123.691 37.0722 123.761C37.0722 124.112 37.0025 124.744 36.8631 125.236C36.3753 124.955 35.6785 124.393 35.3301 124.112C35.2604 124.042 35.2604 124.042 35.1907 124.042C34.7726 124.534 34.2151 125.025 33.3092 125.306C33.1002 125.376 32.8911 125.376 32.682 125.376C30.6612 125.306 29.3372 123.831 29.0585 122.357C28.9191 121.795 28.9888 121.093 28.9888 120.671C28.9888 120.25 29.0585 119.899 28.9191 119.618C28.8494 119.337 28.6403 119.126 28.5707 118.986C28.501 118.846 28.4313 118.775 28.501 118.705C28.6403 118.565 28.9191 118.635 29.2675 118.846C29.4766 118.986 29.5462 119.126 29.6159 119.197C29.825 118.916 30.7309 117.652 32.3336 117.581C32.8911 117.581 33.3789 117.652 33.7273 117.933C34.0061 118.143 34.2151 118.424 34.3545 118.705C34.4242 118.916 34.4242 119.126 34.2848 119.197C34.2151 119.267 34.0061 119.126 33.797 119.056C33.4486 118.916 32.9608 118.705 32.3336 118.775C31.8458 118.846 31.149 119.197 30.6612 119.829C30.2431 120.18 30.034 120.812 30.1037 121.514ZM29.1281 109.716C28.8494 107.75 28.9888 106.837 28.9888 106.837C29.4069 106.978 30.1734 107.75 30.4521 108.031C30.4521 108.031 30.3825 108.312 30.5915 109.506C30.7309 110.419 31.0096 111.261 31.0793 111.612L29.6856 112.244C29.4766 111.753 29.2675 110.77 29.1281 109.716ZM30.3128 106.556C29.3372 105.643 28.5707 105.433 28.5707 105.433V103.747C29.0585 103.958 30.1037 104.52 30.7309 105.081C31.358 105.573 31.7761 106.135 32.1943 106.556L31.9155 108.312C31.4974 107.75 30.9399 107.118 30.3128 106.556ZM46.0615 132.469C46.0615 132.539 46.0615 132.539 46.0615 132.469C45.6434 133.874 44.8768 134.787 43.6922 135.138C43.3438 135.278 42.9954 135.278 42.7166 135.278C41.9501 135.278 41.3229 134.997 40.6261 134.576C40.5564 134.576 40.208 134.506 39.7899 134.716C39.5808 134.857 39.4414 134.997 39.3718 135.067C39.3021 135.138 39.2324 135.208 39.1627 135.208C39.1627 135.208 39.093 135.208 39.093 135.138C39.0233 134.997 39.0233 134.576 39.3021 134.154C39.4414 133.874 39.6505 133.733 39.6505 133.663C39.5808 133.452 39.093 132.258 39.7202 130.924C40.1383 130.011 41.2532 129.52 42.0895 129.871C42.9257 130.222 43.2044 130.854 43.2044 131.346C43.2044 131.697 43.065 132.048 42.856 132.118C42.7863 132.188 42.6469 132.188 42.5773 132.188C42.5076 132.118 42.5076 131.978 42.5076 131.837C42.5076 131.556 42.5076 131.205 42.0198 130.994C41.8107 130.854 41.532 130.854 41.2532 130.924C41.0442 130.994 40.8351 131.135 40.6958 131.556C40.4867 132.048 40.5564 132.539 40.7655 132.961C41.0442 133.452 41.6017 133.874 42.2985 134.014C43.4135 134.295 44.5284 133.452 44.8768 132.118C45.0162 131.697 45.0162 131.275 44.8768 130.784C44.5981 129.801 43.9013 128.958 42.3682 128.185C41.8107 127.904 40.6958 127.413 40.2777 127.202C40.4867 126.5 40.5564 126.289 40.6261 126.008C40.7655 125.798 41.1836 125.376 41.6017 125.306C42.0895 125.166 42.5773 125.447 42.5773 125.517C42.5773 125.587 41.9501 125.728 41.6017 126.57C41.741 126.64 42.856 126.921 43.8316 127.553C45.4343 128.607 45.9221 129.73 46.0615 130.222C46.2705 131.135 46.2705 131.907 46.0615 132.469ZM46.4099 122.848C46.0615 124.744 45.0162 125.587 44.1103 125.657C44.0406 125.657 43.9709 125.657 43.9013 125.657C43.6225 125.657 43.4135 125.587 43.3438 125.447C43.3438 125.376 43.3438 125.376 43.3438 125.306C43.3438 125.236 43.4832 125.166 43.6225 125.166C43.8316 125.096 44.0406 125.025 44.3194 124.815C45.0859 124.183 45.0162 123.902 45.0162 123.691V123.621C44.9465 123.621 44.8768 123.621 44.7375 123.761H44.6678C44.4587 123.831 44.3194 123.831 44.18 123.831C44.1103 123.761 44.0406 123.761 44.0406 123.621C44.0406 123.551 44.1103 123.41 44.2497 123.34C44.3194 123.27 44.4587 123.129 44.5284 123.059C44.9465 122.427 45.0162 121.725 44.6678 121.093C44.4587 120.671 44.1103 120.25 43.2044 120.18H43.1347C43.1347 120.18 43.1347 120.18 43.065 120.18C42.9257 120.18 42.7863 120.18 42.6469 120.25C41.6017 120.461 40.9048 121.163 40.417 121.935C39.7899 122.919 39.5808 124.393 39.5808 124.674C39.3718 126.008 38.9537 127.975 36.1663 131.486C35.8179 131.907 35.6088 132.469 35.7482 133.101C36.0269 134.225 37.0722 134.295 37.0722 134.435C37.0722 134.576 36.8631 134.576 36.445 134.576C36.0269 134.576 35.8875 134.435 35.8875 134.435C35.8875 134.435 35.8179 134.716 36.445 135.138C36.9328 135.489 37.4903 135.489 37.56 135.629C37.56 135.84 34.4938 136.542 34.2848 133.382C34.2848 133.312 34.2848 133.242 34.2848 133.171C30.9399 136.261 29.9643 136.402 29.6856 136.121C29.5462 135.98 29.8947 135.98 30.5218 135.278C31.149 134.506 31.2187 134.225 31.2187 134.225C31.2187 134.225 29.8947 134.927 28.4313 134.787C26.8982 134.646 25.5742 133.522 25.7136 133.101C25.7833 132.75 26.6892 133.382 27.8041 133.171C28.8494 133.031 28.9191 132.61 28.9191 132.61C28.9191 132.61 28.71 132.61 28.3616 132.258C28.0132 131.907 27.5254 131.626 27.8041 131.346C27.9435 131.205 28.71 131.556 29.4766 131.556C30.4521 131.556 31.0793 131.346 31.0793 131.346C31.0793 131.346 30.6612 131.205 30.2431 130.784C29.825 130.362 29.7553 129.941 29.8947 129.871C29.9644 129.801 30.1037 130.152 30.6612 130.152C31.2884 130.152 31.358 130.011 31.358 130.011C31.358 130.011 31.0793 129.801 30.9399 129.52C30.8006 129.309 30.4521 128.537 30.6612 128.326C30.7309 128.256 31.4277 129.098 32.473 129.239C34.2848 129.379 36.236 127.975 36.236 127.975C36.236 127.975 35.2604 129.169 33.1698 130.994C31.8458 132.118 30.1734 133.101 30.2431 133.312C30.3825 133.593 31.7065 133.242 33.9364 131.346C34.6332 130.713 35.121 130.292 36.0966 129.098C37.8387 126.921 38.2568 124.534 37.9084 122.638C37.769 121.865 37.56 121.233 37.3509 120.671C36.3753 118.565 35.3301 117.511 33.5879 116.809C32.0549 116.177 30.8006 116.739 30.1037 117.09C29.7553 117.23 29.4766 117.371 29.4069 117.23C29.0585 116.809 29.7553 116.177 30.3128 115.615C31.0096 114.913 31.4974 114.632 31.6368 114.562C31.4974 114.492 31.0096 114.281 30.5915 114.211C30.3825 114.211 30.1037 114.211 29.825 114.281C29.4766 114.351 29.1978 114.351 29.1281 114.211C29.0585 113.86 30.5218 113.157 31.358 112.947C32.1943 112.666 32.8214 112.666 32.9608 112.666C32.9608 112.455 32.8214 111.121 32.9608 109.084C33.0305 108.031 33.2395 107.258 33.3789 106.837C33.5879 106.275 33.797 105.924 34.0061 105.784C34.0757 105.713 34.1454 105.713 34.2151 105.784C34.3545 105.854 34.3545 106.135 34.3545 106.556C34.3545 106.837 34.3545 107.118 34.3545 107.469C34.4242 108.452 34.7726 109.014 34.9816 109.154H35.0513C35.121 109.154 35.121 109.014 35.1907 108.803C35.2604 108.593 35.2604 108.242 35.4694 107.82C35.8179 107.118 36.445 106.346 36.6541 106.416C36.7237 106.416 36.7238 106.486 36.7238 106.626C36.7238 106.978 36.6541 107.258 36.5844 107.539C36.5147 108.171 36.3753 108.874 36.445 110.138C36.5147 112.034 37.4206 112.315 37.4903 112.315C37.56 112.244 37.9781 111.472 38.6052 110.84C38.7446 110.699 38.884 110.559 38.9537 110.419C39.3718 109.997 39.6505 109.646 39.8596 109.646C39.9292 109.646 39.9989 109.716 39.9989 109.787C40.0686 109.927 39.9292 110.208 39.7202 110.699C39.4414 111.402 39.0233 112.455 38.8143 113.719C38.4659 116.177 38.8143 118.565 38.8143 118.565V118.705L38.7446 118.565C38.7446 118.565 38.5355 118.003 37.6993 116.739C37.2812 116.177 37.0025 115.826 36.7238 115.475C36.3753 115.053 36.0269 114.702 35.5391 113.86C34.9816 112.947 34.8423 112.174 34.7726 111.753C34.7029 111.331 34.6332 111.191 34.4242 111.121C34.4242 111.121 34.3545 111.121 34.3545 111.191C34.1454 111.472 34.2848 113.228 34.7726 114.211C35.0513 114.772 35.3997 115.194 35.7482 115.685C36.1663 116.177 36.5844 116.809 37.1419 117.652C38.1174 119.267 38.6052 120.461 38.8143 121.163C38.884 121.303 38.884 121.514 38.9537 121.654C39.093 121.444 39.3021 121.163 39.3021 121.093C41.0442 119.197 42.5076 119.056 43.5528 119.267C44.3194 119.407 44.9465 119.829 45.4343 120.531C46.3402 121.022 46.5493 122.006 46.4099 122.848ZM30.5218 103.677L29.1978 102.834C29.4069 101.992 30.2431 98.4803 32.3336 96.1629C34.4938 93.7753 37.1419 93.0028 39.4414 93.0028C40.6958 93.0028 41.8804 93.2135 42.7863 93.4242C42.9257 93.4242 42.9954 93.4944 43.1347 93.4944C44.0406 93.7051 45.0162 93.9157 45.6434 93.7051C45.9918 93.6348 46.3402 93.4944 46.5493 93.3539C46.6886 93.2837 46.828 93.2135 46.8977 93.2135C46.8977 93.3539 46.7583 93.8455 46.3402 94.4073C46.0615 94.7584 45.7131 94.9691 45.504 95.1096C45.2949 95.3202 45.1556 95.4607 45.1556 95.6011C45.1556 95.6713 45.2253 95.8118 45.3646 96.0225C45.7827 96.7949 46.619 98.3399 46.5493 100.447C46.4099 103.817 44.8072 105.222 43.7619 106.135L43.6225 106.275C42.9257 107.118 42.9954 107.82 43.2044 108.312C43.4832 109.014 44.18 109.646 45.0162 109.927C45.504 110.138 46.0615 110.138 46.4796 110.208C46.7583 110.208 47.0371 110.278 47.1067 110.348C47.1764 110.559 46.8977 110.84 46.3402 111.261C45.9221 111.542 45.4343 111.612 45.4343 111.612C45.4343 111.612 45.4343 111.612 45.4343 111.683C45.4343 111.683 46.619 112.736 46.7583 114.14C46.8977 115.545 46.6886 116.388 45.9221 117.02C45.3646 117.581 44.5284 117.652 44.18 117.581C44.1103 117.581 44.1103 117.511 44.1103 117.511C44.0406 117.301 44.3194 117.16 44.6678 116.949C44.7375 116.879 44.8072 116.879 44.8768 116.809C45.2949 116.528 45.504 116.037 45.3646 115.756C45.2949 115.685 45.2253 115.685 45.1556 115.685C45.0859 115.685 45.0162 115.685 44.9465 115.756C44.8072 115.826 44.5981 115.826 44.5284 115.756C44.4587 115.615 44.4587 115.545 44.5284 115.404C44.5981 115.264 44.6678 115.053 44.6678 114.843C44.7375 114.281 44.6678 112.876 43.9013 112.736H43.8316C43.7619 112.806 43.7619 112.947 43.7619 113.228C43.7619 113.579 43.7619 114.07 43.5528 114.421C43.2044 114.913 42.7166 115.334 42.5076 115.334C42.4379 115.334 42.4379 115.334 42.3682 115.264C42.3682 115.194 42.3682 115.124 42.3682 114.913C42.4379 114.492 42.5773 113.719 42.3682 112.315C42.2985 111.823 42.0198 111.261 41.6714 110.77C41.3926 110.278 41.1139 109.787 41.0442 109.365C40.9048 108.593 41.0442 108.312 41.4623 107.961C41.741 107.75 41.741 107.61 41.741 107.469C41.741 107.329 41.6714 107.118 41.4623 107.048C41.3926 107.048 41.1836 106.978 40.9745 106.978C40.1383 106.978 38.2568 106.978 36.9328 105.152C35.8875 103.677 35.7482 102.272 35.9572 100.657C35.9572 100.657 35.8179 100.025 35.3301 99.5337C35.0513 99.323 34.8423 99.1826 34.6332 99.1124C34.4938 99.0421 34.4242 98.9719 34.4242 98.9719C34.4242 98.9719 34.4242 98.9719 34.4242 98.9017C34.5635 98.7612 34.9816 98.5506 35.6088 98.691C36.0966 98.7612 36.445 98.9719 36.445 98.9719C36.445 98.9719 36.445 98.9719 36.5147 98.9719C36.5147 98.9719 37.769 97.4972 39.7899 97.6376C41.0442 97.7079 42.1591 98.9719 42.2288 100.236C42.2288 101.57 41.6714 102.202 41.1139 102.413C40.6958 102.553 40.2777 102.553 40.0686 102.413C39.9292 102.343 39.9292 102.202 39.8596 102.132C39.8596 101.992 39.9292 101.992 40.1383 101.851C40.417 101.711 40.9048 101.5 40.9048 100.657C40.9048 100.236 40.7655 99.8146 40.4867 99.5337C40.2777 99.323 39.9292 99.1124 39.3718 99.1124C38.6749 99.1124 38.0478 99.3933 37.6993 99.9551C37.2115 100.587 37.0025 101.64 37.2115 102.764C37.4903 104.449 39.093 105.643 40.9048 105.433C41.9501 105.292 42.9257 104.73 43.6922 103.747C44.389 102.834 44.8072 101.64 44.8072 100.517C44.8072 97.7079 43.2044 94.7584 39.5111 94.618C35.9572 94.4775 33.7273 96.7247 32.7517 98.059C32.1246 98.9017 31.4974 100.447 31.0096 101.711C31.2187 101.64 31.9155 101.57 32.5427 101.851C33.1698 102.132 33.9364 102.904 33.797 103.256C33.7273 103.326 33.5879 103.326 33.3092 103.256C32.9608 103.185 32.473 103.185 31.8458 103.256C31.0096 103.396 30.6612 103.607 30.5218 103.677Z" fill="#990000"/>
<path d="M231 93H239V136H231" stroke="#DE3330"/>
</svg>
