<svg width="298" height="137" viewBox="0 0 298 137" fill="none" xmlns="http://www.w3.org/2000/svg">
<path d="M108.376 0H0V136.262H108.376V0Z" fill="#990000"/>
<path fill-rule="evenodd" clip-rule="evenodd" d="M84.6825 50.6537C84.7041 50.6537 85.3978 50.589 86.048 50.1578C86.9367 49.5974 87.3269 49.1231 87.1968 48.7782C87.1535 48.6704 86.7199 48.6273 86.2864 48.5842L86.2634 48.5816C85.6803 48.5172 84.8896 48.4299 84.1623 48.1746C82.8834 47.7219 81.8864 46.8381 81.4312 45.7818C81.1277 45.092 80.9977 43.9925 82.0381 42.8069H82.0598L82.2548 42.6345L82.2656 42.6248C83.8262 41.2237 86.1569 39.131 86.3948 34.2488C86.5465 31.0584 85.2894 28.7949 84.6825 27.717C84.4874 27.3721 84.379 27.1781 84.379 27.0703C84.379 26.8548 84.5958 26.7039 84.9209 26.5098C84.9582 26.4844 84.9972 26.4581 85.0376 26.4309C85.3736 26.2051 85.8082 25.913 86.1564 25.432C86.785 24.5913 86.9801 23.9014 86.9367 23.6859C86.9367 23.6643 86.915 23.6428 86.915 23.6428C86.8717 23.6212 86.6549 23.729 86.4382 23.8368C86.0914 24.0092 85.6362 24.2248 85.0943 24.3541C84.0972 24.6128 82.6883 24.3326 81.3445 24.0308C81.2599 24.0068 81.1753 23.9894 81.087 23.9713C81.0169 23.9569 80.9444 23.9421 80.8676 23.923C79.4587 23.5996 77.7464 23.3194 75.8823 23.341C72.4576 23.3625 68.5777 24.505 65.3481 27.9757C62.2052 31.3602 60.948 36.5123 60.6663 37.741L62.6387 38.9482C62.8121 38.7973 63.3973 38.5171 64.8496 38.3231C65.6949 38.1937 66.4536 38.1506 66.9954 38.3015C67.4073 38.4093 67.689 38.474 67.7324 38.3446C67.9275 37.8704 66.8437 36.7494 65.9117 36.2967C65.0013 35.844 63.9826 35.9734 63.6574 36.038C64.3727 34.1626 65.3481 31.856 66.2802 30.6488C67.7757 28.7086 71.0487 25.4535 76.3158 25.6476C81.8213 25.8631 84.2273 30.1314 84.1839 34.2703C84.1623 35.9302 83.5554 37.6548 82.5149 38.9913C81.4095 40.4141 79.9573 41.2979 78.3966 41.4488C75.7523 41.7291 73.3463 40.0045 72.9345 37.5255C72.6527 35.8225 72.9128 34.335 73.6497 33.3865C74.235 32.632 75.102 32.2224 76.1641 32.1793C76.9877 32.1362 77.4863 32.5027 77.7681 32.8045C78.1799 33.2356 78.3966 33.8608 78.3533 34.4859C78.2666 35.6931 77.5947 36.038 77.1611 36.2536C76.901 36.3829 76.771 36.4692 76.771 36.6201C76.771 36.7925 76.8794 36.9434 77.0311 37.0512C77.3779 37.2883 77.9631 37.3099 78.5917 37.0943C79.372 36.8356 80.2607 35.8225 80.2174 33.9039C80.174 31.9853 78.44 30.2176 76.6193 30.0883C73.6649 29.8574 71.8611 31.8741 71.7478 32.0008C71.7447 32.0043 71.7429 32.0063 71.7423 32.0069C71.7206 32.0284 71.699 32.05 71.6773 32.0284C71.6773 32.0284 71.1788 31.7482 70.4852 31.6404C69.5531 31.5111 68.8812 31.7913 68.6861 31.9853C68.6428 32.0069 68.6428 32.05 68.6428 32.05C68.6428 32.0972 68.7353 32.1445 68.8444 32.2002C68.8846 32.2207 68.927 32.2423 68.9679 32.2656C69.228 32.3949 69.5965 32.5889 69.965 32.9123C70.7236 33.6021 70.897 34.4859 70.897 34.529V34.5506C70.5935 36.9434 70.7019 38.9698 72.3059 41.1255C74.2783 43.7985 77.0744 43.777 78.2666 43.7554C78.5484 43.7554 78.8085 43.777 78.9602 43.8201C78.9819 43.8416 78.9819 43.8417 79.0035 43.8417C79.307 43.9494 79.3937 44.2728 79.3937 44.4452C79.3937 44.6177 79.3287 44.8764 78.9602 45.1566C78.3316 45.6309 78.2016 46.1051 78.3533 47.2261C78.44 47.8297 78.8301 48.5411 79.242 49.274C79.2665 49.319 79.2912 49.3641 79.316 49.4094C79.7069 50.1234 80.1154 50.8698 80.2174 51.559C80.5425 53.6501 80.3257 54.771 80.1957 55.3746C80.1307 55.6333 80.109 55.8058 80.1523 55.8704C80.1957 55.9136 80.239 55.9351 80.3257 55.9351C80.6725 55.9351 81.4312 55.3746 81.908 54.6417C82.2115 54.1674 82.2332 53.4561 82.2332 52.9171C82.2332 52.5075 82.2332 52.2489 82.3415 52.1626C82.3849 52.1411 82.4282 52.1411 82.4716 52.1411C83.5987 52.3782 83.7071 54.4692 83.6421 55.2668C83.6204 55.6333 83.4903 55.892 83.382 56.1076C83.2519 56.3663 83.1869 56.4956 83.3386 56.6465C83.4593 56.7866 83.6921 56.7223 83.9155 56.6607C83.9328 56.6559 83.9501 56.6511 83.9672 56.6465C83.9861 56.6402 84.0046 56.6339 84.0227 56.6278C84.1288 56.5917 84.2214 56.5603 84.314 56.5603C84.444 56.5603 84.5524 56.5818 84.6174 56.7112C84.8125 57.0992 84.4874 57.8106 83.8805 58.2417C83.8263 58.274 83.7721 58.3118 83.7179 58.3495C83.6637 58.3872 83.6095 58.4249 83.5554 58.4573C83.0785 58.7806 82.6883 59.0609 82.7534 59.3196C82.7534 59.3411 82.775 59.3627 82.8834 59.3842C83.3386 59.492 84.5741 59.3842 85.4194 58.5866C86.4815 57.595 86.8066 56.4309 86.6116 54.3399C86.4438 52.3586 84.7951 50.8818 84.6683 50.7682C84.664 50.7644 84.6615 50.7621 84.6608 50.7614C84.6391 50.7399 84.6391 50.7183 84.6391 50.6968C84.6391 50.6752 84.6608 50.6537 84.6825 50.6537ZM62.7254 38.6895C62.6821 38.8404 62.6387 38.9482 62.6387 38.9482L62.7254 38.6895ZM82.8401 71.219C84.1839 71.0466 85.7662 69.8609 86.2431 67.0801C86.4598 65.8082 86.113 64.3639 85.3978 63.2429C84.7041 62.2729 83.7071 61.6262 82.6016 61.389H82.58C81.041 61.0226 78.8085 61.2166 76.2508 64.019C76.1641 64.1052 75.8823 64.5148 75.7089 64.8597C75.6787 64.7697 75.6486 64.675 75.6162 64.5736C75.5789 64.4564 75.5386 64.3301 75.4921 64.1914C75.1453 63.1567 74.4301 61.4321 72.9778 59.0824C72.1758 57.789 71.5256 56.9483 70.9403 56.1938L70.9298 56.1801C70.3706 55.4528 69.8757 54.8092 69.4664 54.0165C68.6861 52.5291 68.5344 50.0069 68.8162 49.5542C68.8595 49.5111 68.8812 49.4896 68.9245 49.4896C69.2497 49.5327 69.3147 49.8129 69.4231 50.395C69.5531 51.0848 69.7699 52.1195 70.5935 53.4992C71.2785 54.6552 71.7846 55.2182 72.3021 55.7939C72.325 55.8194 72.348 55.8449 72.3709 55.8704L72.3832 55.8839C72.813 56.3541 73.2649 56.8485 73.8232 57.6812C75.102 59.5351 75.4054 60.3974 75.4054 60.3974L75.4921 60.6345L75.4488 60.3758C75.4271 60.3543 74.9069 56.8621 75.4271 53.262C75.7052 51.411 76.3212 49.8959 76.7332 48.8826L76.7493 48.8429C77.0528 48.1099 77.2262 47.6572 77.1178 47.4848C77.0744 47.3986 76.9877 47.3339 76.901 47.3339H76.8794C76.5542 47.3339 76.0991 47.8297 75.5355 48.4764C75.438 48.5734 75.3458 48.6758 75.2537 48.7782C75.1616 48.8806 75.0695 48.983 74.9719 49.08C74.0616 50.0501 73.433 51.1279 73.3463 51.2788C73.1729 51.2357 71.8724 50.8692 71.7423 48.0884C71.6348 46.2071 71.8045 45.1951 71.9553 44.2954L71.9591 44.2728C71.9753 44.165 71.9929 44.0586 72.0106 43.9522C72.0634 43.6328 72.1162 43.3135 72.1325 42.9578C72.1325 42.8069 72.1108 42.6991 72.0241 42.6776C71.699 42.5913 70.7453 43.777 70.2684 44.7902C69.9984 45.3272 69.9172 45.7789 69.8567 46.115C69.8492 46.1566 69.8421 46.1964 69.8349 46.2345C69.831 46.2579 69.8272 46.2808 69.8236 46.3031C69.7869 46.527 69.7601 46.6911 69.6615 46.7303C69.6398 46.7518 69.5965 46.7303 69.5531 46.7087C69.2713 46.5363 68.7945 45.7171 68.6644 44.2297C68.6211 43.7339 68.6211 43.2597 68.6211 42.8932V42.8931C68.6211 42.2895 68.6211 41.88 68.426 41.7722C68.3393 41.7291 68.2092 41.7291 68.1009 41.7937C67.8191 41.9662 67.494 42.5051 67.2122 43.3027C66.9954 43.9279 66.692 45.0057 66.5836 46.5578C66.3753 49.396 66.5473 51.3781 66.5803 51.7579C66.5816 51.7733 66.5828 51.7861 66.5836 51.7962C66.4102 51.7962 65.4348 51.8608 64.221 52.2489C63.0289 52.6369 60.818 53.607 60.9264 54.1459C60.9914 54.4261 61.4249 54.3615 61.9668 54.2752C62.0238 54.2681 62.082 54.2605 62.141 54.2527C62.4407 54.2132 62.7607 54.171 63.0505 54.189C63.6583 54.228 64.2839 54.5139 64.5421 54.632C64.5694 54.6444 64.5925 54.655 64.6112 54.6632C64.4161 54.7495 63.7008 55.1591 62.617 56.1722C61.7717 56.9698 60.818 57.8752 61.2948 58.5435C61.4466 58.7591 61.815 58.6082 62.3569 58.3495C63.4407 57.8537 65.2181 57.0561 67.5373 57.9399C70.1384 58.9315 71.699 60.4621 73.1512 63.5663C73.498 64.407 73.7798 65.3986 73.9966 66.498C74.5168 69.3004 73.9315 72.7927 71.3305 75.9831C69.8566 77.7939 69.163 78.3759 68.0792 79.2813C64.6979 82.0837 62.7471 82.5364 62.5737 82.1484C62.4913 81.9728 63.1888 81.4856 64.1594 80.8078C64.9759 80.2375 65.9858 79.5322 66.8871 78.764C69.965 76.1124 71.4172 74.3448 71.4172 74.3448C71.4172 74.3448 68.4694 76.4574 65.7816 76.2202C64.705 76.1161 63.8657 75.4683 63.413 75.119C63.2095 74.9619 63.0841 74.8651 63.0505 74.9053C62.737 75.2561 63.1676 76.1356 63.3812 76.5718C63.4039 76.6181 63.4241 76.6594 63.4407 76.6945C63.6358 77.0394 64.0259 77.4059 64.0259 77.4059C64.0259 77.4059 63.9175 77.6214 62.9855 77.643C62.4631 77.643 62.1799 77.4418 62.0159 77.3253C61.9281 77.263 61.8745 77.2249 61.8367 77.255C61.6633 77.4059 61.7934 78.0095 62.4003 78.6131C63.0072 79.1951 63.5924 79.4107 63.5924 79.4107C63.5924 79.4107 62.6821 79.734 61.2515 79.734C60.7329 79.7241 60.2097 79.6092 59.7726 79.5132C59.2599 79.4007 58.8659 79.3141 58.7372 79.4538C58.4181 79.7878 58.7885 80.1218 59.2034 80.4959C59.3241 80.6047 59.4485 80.7169 59.5608 80.8334C60.0593 81.3508 60.3628 81.3508 60.3628 81.3508C60.3628 81.3508 60.2327 81.9544 58.7155 82.1915C57.866 82.3249 57.0915 82.143 56.5226 82.0095C55.9884 81.884 55.6355 81.8011 55.5726 82.0622C55.3992 82.6873 57.3283 84.2825 59.6258 84.4981C61.8801 84.6921 63.8092 83.6574 63.8092 83.6574C63.8092 83.6574 63.7875 84.1532 62.8121 85.2526C62.3132 85.8164 61.9448 86.0676 61.7317 86.2129C61.5374 86.3454 61.4722 86.3898 61.5549 86.5029C61.9234 86.9772 63.3757 86.7616 68.3393 82.2346C68.3393 82.2885 68.3447 82.3424 68.3501 82.3963C68.3556 82.4502 68.361 82.5041 68.361 82.558C68.6428 87.1712 73.2379 86.1149 73.2162 85.8346C73.2063 85.7258 73.0229 85.6715 72.756 85.5924C72.4415 85.4992 72.011 85.3717 71.6123 85.0801C70.6369 84.3688 70.7886 84.0023 70.7886 84.0023C70.7886 84.0023 71.0054 84.1963 71.5906 84.2394C72.1758 84.2825 72.501 84.2825 72.5226 84.0454C72.5283 84.0004 72.4247 83.9569 72.2608 83.888C71.7967 83.6929 70.8489 83.2945 70.5285 82.0837C70.2901 81.1352 70.6586 80.2945 71.1354 79.7125C75.2754 74.6035 75.9257 71.6933 76.2291 69.7316V69.71C76.2346 69.6753 76.2414 69.628 76.2497 69.5697C76.3397 68.9403 76.6134 67.026 77.4863 65.7435C77.4863 65.7435 77.508 65.722 77.508 65.7004C78.2016 64.601 79.242 63.5663 80.8026 63.2645C81.0193 63.2214 81.2144 63.1998 81.3878 63.1998H81.4312H81.5179C82.9268 63.3292 83.4036 63.9328 83.7288 64.5795C84.1839 65.4417 84.0756 66.5411 83.4903 67.4465C83.382 67.619 83.2085 67.7699 83.0568 67.8992C83.0371 67.9189 83.0176 67.938 82.9986 67.9566C82.8511 68.1012 82.7342 68.2158 82.7534 68.3304C82.775 68.4382 82.8401 68.5244 82.9484 68.5891C83.1435 68.6753 83.382 68.6537 83.6421 68.5244L83.7288 68.4813C83.9238 68.3735 84.0972 68.2873 84.1623 68.3304C84.1839 68.3304 84.2056 68.3519 84.2056 68.395L84.2066 68.4015C84.2498 68.7024 84.3058 69.0913 83.1652 69.9903C82.8217 70.256 82.495 70.388 82.2443 70.4893C82.2102 70.5031 82.1776 70.5163 82.1465 70.5292C81.9297 70.5939 81.778 70.6585 81.7346 70.7663C81.713 70.831 81.7346 70.8957 81.7563 70.9603C81.843 71.1328 82.1465 71.2406 82.5366 71.2406C82.6233 71.2406 82.7317 71.2406 82.8401 71.219ZM85.6715 81.2498C85.6758 81.2393 85.6795 81.2304 85.6795 81.2214C85.9396 80.3161 86.0047 79.2166 85.6579 78.0095C85.4628 77.2765 84.7908 75.6382 82.3849 74.0861C81.2111 73.3255 79.8767 72.8842 79.3278 72.7027C79.2077 72.663 79.1253 72.6357 79.0902 72.6202C79.4538 71.7869 80.025 71.4467 80.3159 71.2734C80.4239 71.2091 80.4933 71.1678 80.4991 71.1328C80.5208 71.0034 79.7188 70.6801 79.0469 70.831C78.4617 70.9819 77.8548 71.5424 77.638 71.8873C77.6084 71.9875 77.5836 72.0846 77.5557 72.1938C77.4816 72.4839 77.3855 72.8602 77.1178 73.6118C77.3598 73.7242 77.7429 73.8962 78.1699 74.088C78.8903 74.4114 79.7355 74.791 80.239 75.0346C82.6016 76.1771 83.577 77.4705 84.0105 78.8933C84.2273 79.6047 84.1406 80.2729 83.9889 80.855C83.447 82.7735 81.7563 83.9807 80.1307 83.5927C79.0252 83.334 78.2016 82.7736 77.8114 82.0191C77.4863 81.4155 77.4646 80.6825 77.7247 79.928C77.9198 79.3675 78.2666 79.1089 78.5267 79.0011C78.8735 78.8502 79.2853 78.8717 79.6321 79.0658C80.3168 79.4488 80.3467 79.9578 80.3682 80.3234L80.3691 80.3376C80.3691 80.5532 80.3908 80.7256 80.5425 80.7903C80.6509 80.8334 80.8026 80.8119 80.9326 80.7256C81.1927 80.5316 81.3878 80.0789 81.4312 79.54C81.4745 78.8933 81.0844 77.9232 79.8272 77.4059C78.57 76.8885 76.9227 77.5999 76.2941 78.9364C75.3621 80.9196 76.0991 82.7089 76.2074 82.9676C76.1207 83.0322 75.8606 83.2909 75.6439 83.7005C75.2754 84.3472 75.2754 84.9293 75.3621 85.1448C75.3838 85.1879 75.4271 85.231 75.4488 85.231C75.5355 85.2526 75.6222 85.1664 75.7523 85.037L75.7523 85.037C75.904 84.8861 76.0991 84.6921 76.4025 84.5197C76.9877 84.1963 77.5513 84.2825 77.6163 84.3041C78.6351 84.9508 79.5888 85.3819 80.7159 85.3819C81.1711 85.3819 81.6696 85.2957 82.1898 85.1448C83.8805 84.649 85.0943 83.2909 85.6579 81.3077C85.6579 81.2824 85.6653 81.2646 85.6715 81.2498ZM59.7342 41.5566C59.7342 41.5566 60.9047 41.9015 62.3569 43.2381C63.1806 44.0141 64.0476 44.9195 64.7195 45.6524L65.1097 43.1087C64.5461 42.4836 63.8525 41.7506 62.9422 40.9961C62.0318 40.2416 60.4278 39.4009 59.7342 39.056V41.5566ZM60.2544 43.583C60.2544 43.583 60.081 44.9195 60.4929 47.8081C60.7277 49.3583 61.1098 50.783 61.2869 51.4433L61.2948 51.4728L63.3323 50.5243C63.3101 50.4485 63.2823 50.3575 63.2504 50.2531C63.0646 49.6447 62.7402 48.5824 62.5737 47.4417C62.2919 45.674 62.3786 45.286 62.3786 45.286C62.0101 44.8979 60.9047 43.7985 60.2544 43.583ZM66.1501 68.6322C63.8959 68.8693 62.2919 67.0585 62.0535 65.1399C61.9234 64.1268 62.1618 63.1783 62.7254 62.4669C63.4407 61.5184 64.4811 61.0226 65.2181 60.9363C66.1284 60.8285 66.9087 61.0872 67.4073 61.3244C67.7541 61.4968 68.0142 61.6046 68.1226 61.5399C68.3393 61.4321 68.3393 61.1735 68.2526 60.8501C68.1226 60.4405 67.8191 60.0309 67.3639 59.7507C66.822 59.4058 66.1067 59.2333 65.3048 59.2549C62.9422 59.3411 61.5766 61.195 61.2948 61.6262C61.2515 61.4968 61.1214 61.2597 60.818 61.0657C60.3411 60.7423 59.8209 60.613 59.6692 60.807C59.5772 60.8984 59.6413 60.9899 59.7423 61.134C59.7603 61.1597 59.7795 61.1872 59.7992 61.2166C59.951 61.4106 60.1677 61.6908 60.3194 62.1435C60.4539 62.4874 60.4352 62.9497 60.4141 63.4705C60.4114 63.5374 60.4086 63.6053 60.4061 63.6741C60.4035 63.7568 60.4003 63.8442 60.397 63.9354C60.3723 64.6039 60.3403 65.4728 60.4929 66.1747C60.9697 68.3088 62.9422 70.4861 65.89 70.5723C66.2151 70.5723 66.5619 70.5507 66.8654 70.4645C68.2093 70.098 69.0979 69.3867 69.7048 68.6537C69.7482 68.6753 69.8132 68.7184 69.8783 68.7831L69.9286 68.824C70.4225 69.2262 71.3779 70.0042 72.1108 70.3998C72.3059 69.7316 72.4359 68.7831 72.4359 68.2873C72.2409 68.1579 71.0487 67.3388 69.4014 65.6358C68.0142 64.1914 67.5807 63.7172 67.5807 63.7172C67.3206 63.5016 66.4319 62.7902 65.4998 62.7471C64.6545 62.7256 64.3727 62.9196 64.3511 62.9411L64.5895 63.286C64.6134 63.3157 64.6619 63.3815 64.7375 63.4836C64.9361 63.7522 65.3209 64.2729 65.9333 65.0537C66.8004 66.1531 67.8624 67.1447 68.1659 67.425L68.296 67.5759C67.8191 68.0717 67.1255 68.5244 66.1501 68.6322ZM44.6916 85.964C47.3143 85.5328 49.4601 84.9077 52.2346 82.4071C55.3125 79.6478 56.4612 75.6813 56.9815 73.6765C57.6967 70.7879 57.6317 65.2908 57.6317 65.2908V36.771C57.6317 36.771 57.4366 30.6488 57.8701 29.0967C58.3036 27.5446 59.2357 26.4236 59.7992 25.8416C61.0564 24.5697 63.6791 24.1386 63.6791 24.1386C64.4378 24.0092 64.6112 23.6428 64.5461 23.2763C64.4594 22.7158 64.0042 22.6727 64.0042 22.6727L45.3201 22.6296C45.3201 22.6296 44.8433 22.7158 44.7566 23.2547C44.6916 23.6212 44.865 23.9877 45.6236 24.117C45.6236 24.117 48.268 24.5266 49.5035 25.82C50.067 26.4021 50.9991 27.523 51.4326 29.0751C51.8661 30.6057 51.671 36.7494 51.671 36.7494L51.2592 65.2046C51.2592 65.4214 51.2634 65.7682 51.2686 66.2023C51.2926 68.1854 51.3386 71.9908 51.1074 73.5472C50.6956 76.1771 50.0887 78.3975 48.4631 80.122C46.8374 81.8466 45.3418 82.4071 43.1309 82.4071C40.9201 82.4071 39.4678 81.7388 37.9072 80.5101C36.3466 79.2813 33.3771 76.5005 33.3771 76.5005L36.2382 85.6837C36.2382 85.6837 41.7871 86.4598 44.6916 85.964ZM28.2834 84.6706C28.6085 84.9724 30.2992 83.0753 31.3179 80.9412C32.3367 78.7855 32.5968 76.5436 32.2716 74.5603C32.0982 73.3963 31.3396 71.7795 30.8844 70.8741C32.0549 71.6502 33.3554 72.1028 34.3091 72.2537C37.0185 72.7064 39.4678 72.8142 41.2669 72.4046C41.8375 72.2688 42.271 72.1269 42.6018 72.0188C43.163 71.8352 43.4281 71.7485 43.5644 71.9519C43.8029 72.3184 42.7841 73.2885 39.5112 73.8058C36.1081 74.3448 34.0273 73.5687 34.0273 73.5687C34.0273 73.5687 34.0707 74.3017 35.2628 75.2071C35.756 75.5924 36.1847 75.8532 36.568 76.0864C37.128 76.4271 37.5909 76.7087 38.0156 77.2334C38.4009 77.7032 38.4298 78.1801 38.4498 78.5095C38.4647 78.7545 38.4746 78.918 38.6225 78.9364C38.8568 78.9801 38.9724 78.6202 39.1364 78.1095C39.2151 77.8644 39.305 77.5847 39.4245 77.2981C39.7713 76.4358 39.4678 75.5735 39.4678 75.5735C39.4678 75.5735 40.7033 76.6083 43.0876 76.3711C44.7566 76.1987 45.7537 75.8969 45.6453 75.552C45.5912 75.3905 45.4358 75.3802 45.1107 75.3586C44.9148 75.3456 44.6572 75.3285 44.3231 75.2717C43.4344 75.1208 43.0876 74.7544 43.0876 74.7544C43.0876 74.7544 44.5398 74.2801 46.3389 73.0514C48.1379 71.8226 49.3084 70.2489 49.0483 69.8825C48.8674 69.6045 48.3748 69.7731 47.7595 69.9836C47.5637 70.0506 47.3554 70.1218 47.1409 70.1843C45.8837 70.5507 45.4285 70.5292 45.4285 70.5292C45.4285 70.5292 45.2985 70.3567 45.862 69.6885C46.2618 69.2135 46.6446 68.9649 46.9199 68.7862C47.1819 68.616 47.3465 68.5091 47.3359 68.3304C47.3143 67.9639 46.1438 67.5543 43.1309 68.8909C42.0472 69.3651 40.8984 70.1196 40.8984 70.1196C40.8984 70.1196 41.3536 68.7184 41.527 67.7483C41.5431 67.6601 41.5609 67.5648 41.5797 67.4644C41.7627 66.4851 42.0366 65.0201 41.722 64.9028C41.5195 64.8273 41.4722 64.9061 41.3298 65.1437C41.2283 65.3129 41.0786 65.5626 40.79 65.8944C40.6797 66.0185 40.5874 66.1277 40.508 66.2217C40.2286 66.5525 40.1087 66.6945 39.923 66.6274C39.7125 66.5436 39.6746 66.2973 39.627 65.9877C39.6011 65.8191 39.5723 65.6318 39.5112 65.4417C39.3378 64.9244 38.9043 64.213 38.7309 64.3208C38.5669 64.4114 38.4336 64.9663 38.2698 65.6481C38.0437 66.5889 37.7596 67.7714 37.2569 68.3088C36.9752 68.6106 36.6067 68.8046 36.2165 68.9555C35.6313 69.1927 34.981 69.2789 34.3525 69.2789C33.6155 69.2789 32.8785 69.1495 32.2066 68.8909C32.1751 68.8785 32.1423 68.8658 32.1084 68.8526C31.3737 68.567 30.1092 68.0755 29.2804 66.7567C29.2804 66.7567 29.1721 66.5627 29.1504 66.5627V66.5411C28.4351 66.4549 27.6981 66.2609 26.8095 65.8513C27.0479 66.5627 27.4164 67.4681 27.6981 68.1364C28.6735 70.4861 30.0174 74.431 28.7386 77.5352C27.1996 81.2646 23.6232 81.9759 23.233 81.1783C23.1133 80.9401 23.4346 80.7868 23.9662 80.5329C24.8781 80.0976 26.4088 79.3668 27.3947 77.4059C28.6518 74.8837 27.6981 71.7148 27.6981 71.7148C27.6981 71.7148 27.6981 74.431 25.7257 76.2849C24.0917 77.8153 22.8757 77.706 22.2221 77.6472C21.9827 77.6257 21.8188 77.611 21.7374 77.6861C21.4123 78.031 21.9542 78.2897 22.4961 78.5484C22.8429 78.6993 23.4498 78.8502 23.4498 78.8502C23.4498 78.8502 22.8212 79.4322 21.9108 79.8849C21.7561 79.9638 21.6138 80.0341 21.4841 80.098C20.9055 80.3835 20.5807 80.5437 20.5453 80.7903C20.5236 81.0274 21.7158 82.1915 22.8429 82.6873C23.97 83.1831 25.3572 83.3125 25.3572 83.3125C25.3572 83.3125 25.4656 83.2909 25.0971 83.9376C24.9588 84.1745 24.8177 84.3627 24.701 84.5184C24.4885 84.8019 24.3566 84.9778 24.4685 85.1448C24.7503 85.5328 25.0321 85.4682 26.6577 84.455C28.2834 83.4418 28.7386 82.7951 28.7386 82.7951C28.7386 82.7951 28.6952 82.9244 28.5218 83.5712C28.4584 83.7996 28.3748 83.9733 28.3069 84.1144C28.1889 84.3596 28.1183 84.5064 28.2834 84.6706ZM30.1474 49.4896C29.844 49.8992 29.3238 50.8477 29.1937 51.7315C29.7356 53.262 30.3642 53.8656 30.776 54.0381C31.1445 52.6585 31.5563 51.2788 32.2066 50.0285C32.0982 49.9207 31.3396 49.274 30.1474 49.4896ZM27.243 59.7076C27.3297 59.9663 28.8903 61.001 29.4972 61.0657C29.4972 61.0657 29.4322 60.0741 29.6489 59.1902C29.6489 59.1902 28.3701 58.6082 27.5898 57.2501C27.373 57.9615 27.243 59.1687 27.243 59.7076ZM23.5148 48.1099C23.3848 48.3686 23.2547 48.6704 23.103 49.1016C22.236 51.4944 21.9542 52.6369 21.9542 55.1591C21.9325 57.9184 22.7995 60.4621 24.4035 62.2944C25.9208 64.0405 28.0016 65.0537 30.2558 65.1615C33.4962 65.3119 36.2414 63.321 37.2897 62.5607L37.3003 62.5531C38.8373 61.4376 41.6084 58.5603 41.8561 58.3032C41.8669 58.292 41.8729 58.2857 41.8738 58.2848L41.9171 58.2201L41.9605 58.2848C41.9625 58.2869 41.9731 58.3032 41.9915 58.3315C42.167 58.602 43.0519 59.966 43.9546 60.3758C44.6916 60.7208 45.6453 60.613 46.0571 60.4621C46.2088 60.3974 46.2522 60.3759 46.2522 60.3543C46.2522 60.3327 46.1438 60.2465 46.0354 60.1603L46.02 60.1472C45.5591 59.7544 44.6248 58.9583 44.4748 57.5088C44.3231 56.0213 47.3359 54.6417 49.5035 54.2321L49.5685 52.1411C49.2867 52.1626 47.9645 52.2704 47.6828 52.3567C43.8289 53.4333 41.3808 55.7574 38.9991 58.0184L38.991 58.0261C36.455 60.4405 34.049 62.7256 30.3208 62.7256H30.2341C28.8253 62.704 27.4164 62.0357 26.2892 60.807C24.837 59.2333 24.0133 57.0345 24.1651 55.0513C24.3385 52.7447 25.1621 50.8477 26.5927 49.5758C27.7198 48.5842 29.1721 48.0021 30.6026 48.0021H30.6893C31.7948 48.0237 32.9219 48.4548 33.7889 49.1662C34.4825 49.7267 35.3062 50.7183 35.3929 52.292C35.4579 53.5207 35.0461 54.6633 34.3091 55.3531C34.0923 55.5686 32.9002 56.5603 30.9494 56.1291C30.0824 55.9351 29.3671 55.2022 28.977 54.5986C28.6952 54.1674 28.5001 53.6501 28.3267 53.1327C28.2834 53.0034 28.1316 52.874 27.9582 52.8956C27.7415 52.9171 27.6114 53.2189 27.5681 53.6716C27.4597 55.0513 28.3917 57.2932 30.7977 57.9399C34.7209 58.9962 36.7151 56.1076 37.1486 54.9004C37.6254 53.5854 37.6471 52.8309 37.6471 52.8309C37.6471 52.7878 37.6904 52.6585 37.7771 52.6369C37.8855 52.6153 37.9722 52.7231 38.0156 52.8093C38.2107 53.1111 39.2294 53.7147 40.0964 53.4776C41.0377 53.2436 41.4511 52.4426 41.8577 51.6549L41.8738 51.6237L41.8903 51.5909C42.2527 50.8697 42.6004 50.1778 43.3477 50.0716C44.2364 49.9207 44.5182 50.0501 44.6916 50.1363L44.6983 50.139C44.8018 50.1802 44.8469 50.1982 45.0167 50.0716C45.1467 49.9854 45.1467 49.8129 45.1034 49.7051C44.9517 49.2309 44.0413 48.5411 42.8275 48.5842C41.6505 48.6055 41.213 48.984 40.7222 49.4085L40.7033 49.4249C40.6793 49.4454 40.6552 49.466 40.6311 49.4867C40.3504 49.7276 40.0552 49.9809 39.5762 50.1794C38.3441 50.7017 37.6954 50.5688 37.5953 50.5483C37.5879 50.5468 37.5835 50.5459 37.5821 50.5459H37.5604L37.5387 50.5243C37.5385 50.5238 37.538 50.5228 37.5372 50.5213C37.4691 50.3818 35.2952 45.9327 30.4075 45.9327H30.3642C27.7119 45.9539 26.1994 47.0668 25.6809 47.4483L25.6607 47.4632C25.4873 47.5926 25.4439 47.6141 25.4006 47.5926C25.4006 47.585 25.3952 47.5774 25.3892 47.5689C25.3781 47.5532 25.3648 47.5343 25.3789 47.5063C25.4222 47.2908 25.0754 45.9973 24.837 45.5015C24.5552 44.8979 23.8183 44.5746 23.5798 44.553C23.7532 44.747 24.035 45.4584 23.97 46.3854C23.9266 47.183 23.7749 47.5279 23.5148 48.1099ZM30.289 22.672C30.2822 22.6724 30.2783 22.6727 30.2775 22.6727C26.2892 23.0392 22.1709 25.9925 21.9108 31.8344C21.7374 37.5686 24.8804 40.8237 27.8932 41.9446C31.5997 43.3243 33.7022 42.5267 33.7889 42.4836C33.8756 42.462 33.9623 42.4836 34.0273 42.5482C34.0923 42.6129 34.0923 42.7207 34.049 42.7854L34.0273 42.8069C34.0086 42.8268 33.9883 42.8483 33.9665 42.8713C33.6109 43.248 32.874 44.0286 32.445 44.6177C32.7918 44.6608 33.247 44.8117 33.5505 44.9411L33.6127 44.9692C34.0447 45.1644 34.2311 45.2486 34.4175 45.3722C35.5229 43.7123 37.0402 42.2249 38.9043 40.9746C40.3565 39.983 42.7191 39.056 45.0817 38.5171L45.3418 38.4524L45.1467 38.6033C44.4531 39.1422 43.9546 39.7243 43.4994 40.5219C42.9142 41.5135 42.459 42.9363 42.6107 43.3458C42.6324 43.389 42.6541 43.389 42.6541 43.389C42.8708 43.4752 42.8708 43.4752 42.9575 43.3458C43.0009 43.2596 43.0876 43.1518 43.2393 42.9794C43.4344 42.7854 43.6078 42.6776 43.7595 42.6776H43.7812C43.9113 42.6776 44.0196 42.7422 44.0847 42.8069L44.1063 42.8285C44.212 42.9126 44.194 43.0377 44.1529 43.3238L44.1497 43.3458C44.063 43.9063 43.9113 44.9411 44.4315 45.7602C45.1251 46.8812 45.7537 47.6141 46.1005 47.6788C46.1655 47.6788 46.1872 47.6788 46.2088 47.6572C46.2522 47.6357 46.3606 47.4848 46.2305 46.8596C46.1005 46.1698 45.7753 43.8632 46.1438 42.2249C46.5773 40.2201 47.8778 38.2584 49.5035 38.2584H49.6552V36.4045C49.3301 36.4045 47.6828 36.2752 46.729 35.262C46.2305 34.723 45.9921 34.0332 46.0138 33.1925C46.0788 31.4033 46.9024 30.3254 47.5961 29.5925C47.7044 29.4847 48.0512 29.1182 47.9429 28.9027C47.8562 28.7302 47.7044 28.644 47.4877 28.6224H47.4226C46.6207 28.6224 45.2551 29.614 44.8216 30.2608C44.3239 31.0033 44.0246 31.9037 43.9427 32.15C43.939 32.1611 43.9357 32.1709 43.9329 32.1793C43.9113 32.244 43.8679 32.2871 43.8029 32.3302C43.6295 32.4165 43.2176 32.3518 42.9142 32.0069C42.6758 31.7482 42.6758 31.2308 42.6758 31.123V30.9721C42.6758 30.9721 42.6324 30.9506 42.5891 30.9506C42.524 30.9506 42.394 30.9937 42.2639 31.1877C41.9822 31.6404 42.2206 33.8608 43.0876 35.068C43.3003 35.3536 43.487 35.6081 43.6526 35.8339C43.8245 36.0683 43.9739 36.2719 44.1063 36.4476L44.1714 36.5338L44.0847 36.5554C43.4344 36.6632 42.8058 36.8356 42.2206 37.0296C41.4363 37.3179 40.6252 37.6462 39.8189 37.9725C39.6002 38.061 39.3818 38.1494 39.1644 38.2368H39.1427C37.9505 38.7326 36.7151 39.2285 35.5663 39.5949C32.2066 40.6512 29.5189 40.565 27.8065 39.3578C26.1158 38.1506 24.1 35.9087 24.1651 32.05C24.1867 30.0883 25.0754 27.9973 26.441 26.6392C27.6114 25.4751 29.0854 24.85 30.6893 24.85H30.8627C35.1111 24.9577 36.5633 27.6308 36.52 29.8943C36.4766 32.05 35.2628 33.4296 33.2904 33.6236C31.9898 33.7314 30.9711 32.8691 30.6677 31.9638C30.4782 31.3985 30.4523 30.8536 30.4311 30.408C30.4305 30.3948 30.4298 30.3816 30.4292 30.3685C30.4274 30.3304 30.4257 30.293 30.4241 30.2564C30.4063 29.8592 30.3929 29.56 30.2341 29.4416C30.1691 29.3769 30.1041 29.3554 30.0174 29.3769C29.844 29.42 29.6272 29.6572 29.5189 29.959C29.042 31.1446 29.0854 32.4596 29.6056 33.6021C30.1908 34.8308 31.8164 35.9518 33.8106 35.7147C35.8697 35.456 37.4303 34.3135 38.2107 32.438C38.7092 31.2093 38.7959 30.4763 38.7309 29.7218C38.726 29.674 38.7223 29.6251 38.7184 29.5746C38.7049 29.3978 38.6899 29.2021 38.6225 28.9673C38.6008 28.9027 38.6225 28.838 38.6442 28.7949C38.6875 28.7518 38.7309 28.7087 38.7959 28.7087C38.8609 28.7087 40.2265 28.45 41.0718 27.2428C42.5891 25.044 42.0255 23.8368 41.8088 23.5134C41.6353 23.2332 41.4186 23.147 41.3752 23.1685C41.3388 23.1867 41.2869 23.3728 41.2456 23.5212C41.2378 23.5492 41.2304 23.5758 41.2235 23.5996C41.0718 24.2032 40.8334 25.1086 39.6846 25.4535C38.704 25.7648 38.0246 25.2971 37.1633 24.7041C37.1298 24.6811 37.096 24.6578 37.0619 24.6344H37.0402C36.4333 24.2032 35.7397 23.729 34.786 23.341C32.6771 22.5103 30.4677 22.6599 30.289 22.672ZM90.8599 90.7496H17.3157V17.499H90.8599V90.7496ZM26.2891 100.558C25.7473 100.58 24.6852 100.601 23.7748 100.601C22.7994 100.601 21.7157 100.58 21.1521 100.558C21.1304 100.558 21.1088 100.558 21.0871 100.58C21.0654 100.601 21.0654 100.623 21.0654 100.644V100.774C21.0654 100.817 21.1088 100.86 21.1521 100.86C22.1058 101.011 22.7344 101.119 22.7344 103.166V115.088C22.7344 117.329 21.6507 119.765 19.9166 119.765C19.5915 119.765 19.2881 119.744 19.0063 119.701C17.7925 119.399 17.0338 118.558 16.5787 117.955C16.5136 117.868 16.4486 117.782 16.4053 117.696C15.9067 116.941 15.6683 116.295 15.6683 116.273C15.6466 116.208 15.5816 116.187 15.5166 116.187C15.4516 116.209 15.4082 116.252 15.4082 116.338L15.82 119.464C15.82 119.507 15.8417 119.55 15.8851 119.571C17.0338 120.304 18.4427 120.52 18.7028 120.541C19.158 120.606 19.5265 120.628 19.7432 120.628H20.025C22.9295 120.628 24.8803 118.278 24.8803 114.786V103.166C24.8803 101.183 25.3471 101.078 26.2807 100.867L26.3108 100.86L26.3542 100.838C26.3975 100.838 26.4192 100.795 26.4192 100.752V100.623C26.4192 100.601 26.4192 100.58 26.3975 100.558H26.2891ZM54.7055 100.558C54.7488 100.558 54.7705 100.58 54.7921 100.601C54.8138 100.623 54.8138 100.644 54.7488 100.687C54.5104 101.42 54.2069 102.735 54.1202 103.166C54.1202 103.21 54.0769 103.253 54.0335 103.253H53.8601C53.8384 103.253 53.8168 103.231 53.7951 103.21C53.7734 103.188 53.7734 103.145 53.7734 103.123C53.7951 103.037 53.8168 102.865 53.8168 102.735C53.8168 102.002 53.1665 101.808 48.3329 101.808V117.933C48.3329 120.11 48.7014 120.175 49.6334 120.326C49.6768 120.326 49.7201 120.369 49.7201 120.412V120.541C49.7201 120.563 49.7201 120.585 49.6985 120.606C49.6768 120.628 49.6551 120.628 49.6334 120.628C49.2866 120.606 48.3763 120.563 47.2492 120.563C46.3663 120.563 45.6781 120.593 45.1597 120.615C45.1045 120.618 45.0513 120.62 44.9999 120.622C44.9533 120.624 44.9083 120.626 44.8649 120.628C44.8432 120.628 44.8215 120.628 44.7999 120.606C44.7782 120.585 44.7782 120.563 44.7782 120.541V120.412C44.7782 120.369 44.8215 120.326 44.8649 120.326C45.8186 120.175 46.1654 120.11 46.1654 117.933V101.808C41.9604 101.808 40.6816 101.83 39.8796 103.511C39.8579 103.555 39.8362 103.576 39.7929 103.576H39.6628C39.6411 103.576 39.6195 103.555 39.5978 103.533C39.5761 103.511 39.5761 103.468 39.5761 103.447C39.6845 102.951 39.8145 102.477 39.9663 101.959C40.0768 101.611 40.1716 101.248 40.2774 100.842L40.2776 100.842L40.2776 100.841L40.3347 100.623C40.3347 100.58 40.3781 100.558 40.4214 100.558C46.5555 100.687 53.4049 100.58 54.7055 100.558ZM64.3076 119.852C68.7728 119.852 71.5472 116.403 71.5472 110.841C71.5472 103.835 67.6456 101.356 64.3076 101.356C59.1056 101.356 57.2632 106.379 57.2632 110.669C57.2632 116.424 59.8859 119.852 64.3076 119.852ZM54.5754 110.755C54.5754 105.754 58.2819 100.58 64.5244 100.58C69.9649 100.58 74.2133 105.021 74.2133 110.669C74.2133 116.274 69.8565 120.65 64.3076 120.65C58.2169 120.65 54.5754 115.627 54.5754 110.755ZM30.7111 104.201C30.7111 106.572 32.4885 107.78 34.3742 109.051L34.4054 109.073C36.4983 110.51 38.6658 111.999 38.6442 115.26C38.6442 118.493 36.325 120.735 33.0087 120.735C32.0473 120.735 31.3596 120.589 30.7589 120.461L30.7328 120.455L30.6813 120.444C30.2012 120.34 29.7372 120.239 29.1722 120.239H29.172C28.9987 120.239 28.9337 120.239 28.782 120.261C28.7386 120.261 28.717 120.261 28.6953 120.239C28.6736 120.218 28.6736 120.175 28.6736 120.153C28.6953 120.024 28.6953 119.722 28.6953 119.485C28.6953 119.183 28.6736 118.924 28.6303 118.623C28.6237 118.531 28.6151 118.438 28.6064 118.342C28.5863 118.123 28.5652 117.893 28.5652 117.653C28.5652 117.415 28.5869 116.618 28.8904 115.95C28.9121 115.906 28.9337 115.885 28.9771 115.885H29.1071C29.1288 115.885 29.1505 115.885 29.1722 115.906C29.1938 115.906 29.1938 115.95 29.1938 115.971V116.057C29.1722 116.251 29.1505 116.445 29.1505 116.618C29.1505 118.73 31.188 119.851 33.2254 119.851C34.9811 119.851 36.7585 118.795 36.7585 116.381C36.7585 113.837 34.9161 112.587 32.9437 111.25L32.8679 111.198C30.8539 109.814 28.782 108.389 28.782 105.43C28.782 102.584 30.8628 100.601 33.8107 100.601C34.6281 100.601 35.2722 100.716 35.8518 100.82H35.8519L35.9565 100.838L36.0186 100.849L36.0187 100.849C36.473 100.932 36.9084 101.011 37.3437 101.011H37.3439C37.4956 101.011 37.6256 101.011 37.7772 100.989C37.8206 100.989 37.8423 100.989 37.8639 101.011C37.8856 101.032 37.8856 101.075 37.8856 101.097C37.8206 101.7 37.7989 102.175 37.7989 102.843C37.7989 103.231 37.7989 103.899 37.8206 104.287C37.8206 104.309 37.8206 104.33 37.7989 104.352C37.7772 104.374 37.7556 104.374 37.7339 104.374H37.5822C37.5388 104.374 37.4955 104.33 37.4955 104.287C37.1053 102.347 35.8481 101.312 33.854 101.312C31.5348 101.312 30.7111 102.8 30.7111 104.201ZM85.9177 106.508C85.9177 108.426 85.3975 110.991 80.9757 110.991H79.7403V101.679C80.5206 101.463 81.0408 101.42 81.6477 101.42C84.227 101.442 85.9177 103.425 85.9177 106.508ZM91.3799 120.326C89.7922 119.792 87.9498 116.534 86.5882 114.127L86.5463 114.053L86.4017 113.797C85.6906 112.538 85.1306 111.546 84.7039 111.142C87.0231 110.237 88.4104 108.405 88.4104 106.184C88.4104 102.821 85.8093 100.644 81.7777 100.644C81.6568 100.644 81.5039 100.648 81.3294 100.653H81.329C81.0969 100.659 80.8266 100.666 80.5422 100.666C79.9789 100.687 79.3505 100.687 78.8954 100.687H78.8949H78.8945C77.681 100.687 77.1825 100.687 76.2505 100.623C76.2289 100.623 76.2072 100.623 76.1855 100.644C76.1638 100.666 76.1638 100.687 76.1638 100.709V100.838C76.1638 100.881 76.2072 100.924 76.2505 100.924C77.1826 101.075 77.5077 101.442 77.5077 103.317V117.933C77.5077 120.11 77.1609 120.175 76.2072 120.326C76.1638 120.326 76.1205 120.369 76.1205 120.412V120.541C76.1205 120.563 76.1205 120.584 76.1422 120.606C76.1638 120.627 76.1855 120.627 76.2072 120.627C76.3107 120.623 76.4215 120.619 76.54 120.614C77.0669 120.591 77.7461 120.563 78.6131 120.563C79.7402 120.563 80.6723 120.606 81.0191 120.627C81.0408 120.627 81.0624 120.627 81.0841 120.606C81.1058 120.584 81.1058 120.563 81.1058 120.541V120.412C81.1058 120.369 81.0624 120.326 81.0191 120.326C80.0654 120.175 79.7186 120.11 79.7186 117.933V111.746H81.3876C81.691 111.746 82.0812 111.703 82.5147 111.638C82.9858 112.085 83.5415 113.122 83.8893 113.77L83.8894 113.77L83.9019 113.794L83.902 113.794C83.967 113.923 84.032 114.053 84.097 114.139C87.3483 120.196 87.6951 120.563 90.6212 120.671H90.6216C90.9465 120.671 91.0765 120.671 91.3148 120.649C91.3582 120.649 91.4015 120.606 91.4015 120.563V120.39C91.4449 120.369 91.4232 120.326 91.3799 120.326Z" fill="white"/>
<path d="M297.63 0H126.035V64H297.63V0Z" fill="#990000"/>
<path fill-rule="evenodd" clip-rule="evenodd" d="M161.658 23.9704L162.644 24.5652C162.722 24.487 163.02 24.3461 163.724 24.2835C164.162 24.2365 164.537 24.2209 164.803 24.2835C164.991 24.3304 165.132 24.3617 165.163 24.2991C165.257 24.0643 164.709 23.5165 164.256 23.2974C163.802 23.0783 163.286 23.1409 163.129 23.1722C163.473 22.2487 163.958 21.1217 164.428 20.527C165.179 19.5722 166.806 17.9757 169.434 18.0696C172.188 18.1635 173.393 20.2609 173.361 22.2957C173.346 23.1096 173.048 23.9548 172.532 24.6122C171.984 25.3165 171.265 25.7391 170.482 25.8174C169.168 25.9583 167.964 25.113 167.76 23.8922C167.619 23.047 167.745 22.327 168.12 21.8574C168.417 21.4974 168.84 21.2783 169.372 21.2626C169.778 21.247 170.029 21.4191 170.17 21.5757C170.357 21.7948 170.467 22.1078 170.451 22.4052C170.405 22.9921 170.084 23.1523 169.865 23.2617L169.857 23.2661C169.716 23.3287 169.653 23.3757 169.653 23.4539C169.653 23.5478 169.7 23.6104 169.778 23.673C169.951 23.7826 170.248 23.7983 170.561 23.6887C170.952 23.5635 171.39 23.0783 171.374 22.1235C171.359 21.1843 170.498 20.3078 169.591 20.2452C168.119 20.1238 167.236 21.1065 167.169 21.1802C167.167 21.1825 167.166 21.1839 167.166 21.1843H167.134C167.134 21.1843 166.884 21.0435 166.54 20.9965C166.086 20.9339 165.742 21.0748 165.648 21.1687C165.632 21.1843 165.632 21.2 165.632 21.2C165.632 21.2157 165.711 21.2626 165.789 21.2939C165.93 21.3565 166.102 21.4504 166.29 21.607C166.665 21.9513 166.759 22.3896 166.759 22.4052V22.4209C166.602 23.5791 166.665 24.5809 167.463 25.6452C168.437 26.9293 169.809 26.9289 170.415 26.9287L170.436 26.9287C170.576 26.9287 170.702 26.9443 170.78 26.96H170.795C170.952 27.0226 170.999 27.1791 170.999 27.2574C170.999 27.3357 170.967 27.4609 170.78 27.6017C170.467 27.8365 170.404 28.0713 170.482 28.6191C170.529 28.9165 170.717 29.2609 170.921 29.6209C170.93 29.6392 170.94 29.6576 170.95 29.676C171.145 30.0347 171.346 30.4054 171.406 30.7478C171.562 31.7809 171.452 32.3287 171.39 32.6261C171.385 32.6651 171.379 32.6995 171.373 32.7294C171.361 32.7955 171.353 32.8393 171.374 32.8609C171.39 32.8765 171.406 32.8922 171.452 32.8922C171.64 32.8922 172.016 32.6104 172.25 32.2504C172.391 32.0157 172.407 31.6713 172.407 31.4052C172.407 31.2017 172.422 31.0765 172.469 31.0296C172.485 31.0139 172.516 31.0139 172.532 31.0139C173.095 31.1235 173.142 32.1565 173.111 32.5478C173.097 32.7002 173.046 32.8157 173.002 32.9162C172.997 32.9293 172.991 32.9422 172.986 32.9548C172.923 33.08 172.892 33.1426 172.97 33.2209C173.025 33.2893 173.127 33.262 173.236 33.2332C173.251 33.229 173.267 33.2248 173.283 33.2209C173.346 33.2052 173.408 33.1896 173.455 33.1896C173.518 33.1739 173.58 33.1896 173.612 33.2522C173.705 33.44 173.533 33.8 173.236 34.0035C173.213 34.0191 173.185 34.0387 173.158 34.0583C173.13 34.0778 173.103 34.0974 173.08 34.113L173.061 34.1265C172.849 34.2776 172.658 34.414 172.688 34.5357C172.688 34.5357 172.704 34.5513 172.751 34.567C172.986 34.6296 173.596 34.567 174.018 34.1757C174.55 33.6904 174.707 33.127 174.613 32.0939C174.535 31.0765 173.658 30.3252 173.643 30.3252V30.2939C173.643 30.2939 173.643 30.2783 173.658 30.2783C173.658 30.2783 174.003 30.2313 174.331 30.0278C174.769 29.7461 174.957 29.5113 174.894 29.3704C174.869 29.333 174.735 29.3154 174.57 29.294C174.529 29.2885 174.485 29.2828 174.441 29.2765C174.143 29.2452 173.752 29.1983 173.377 29.073C172.735 28.8539 172.235 28.4313 172.016 27.8991C171.859 27.5391 171.797 27.007 172.313 26.4278H172.329L172.422 26.3496C173.205 25.6765 174.378 24.6435 174.488 22.233C174.55 20.6762 173.931 19.5684 173.632 19.0329L173.627 19.0243C173.533 18.8522 173.486 18.7583 173.486 18.7113C173.486 18.6174 173.596 18.5391 173.752 18.4452C173.924 18.3357 174.159 18.1791 174.363 17.913C174.675 17.4904 174.785 17.1617 174.754 17.0522L174.738 17.0365C174.727 17.0258 174.673 17.0517 174.604 17.0841C174.573 17.0991 174.538 17.1156 174.503 17.1304L174.48 17.1409C174.311 17.2182 174.085 17.321 173.831 17.3809C173.33 17.5061 172.626 17.3652 171.953 17.2243L171.718 17.1774C171.014 17.0209 170.154 16.88 169.231 16.8957C167.525 16.9113 165.601 17.4748 163.99 19.1809C162.425 20.84 161.799 23.36 161.658 23.9704ZM172.72 40.3896C173.377 40.2957 174.175 39.7165 174.409 38.3548C174.519 37.7287 174.347 37.0243 173.94 36.4922C173.596 36.007 173.111 35.6939 172.548 35.5843H172.532C171.765 35.4122 170.655 35.5061 169.372 36.8835C169.34 36.9148 169.2 37.1183 169.106 37.2904C169.096 37.2607 169.086 37.2294 169.075 37.1965C169.053 37.1255 169.028 37.0473 168.996 36.9617C168.824 36.4452 168.464 35.6 167.745 34.4417C167.373 33.8321 167.058 33.4343 166.772 33.074C166.757 33.055 166.742 33.0362 166.728 33.0174C166.714 33 166.701 32.9828 166.687 32.9657C166.422 32.627 166.186 32.3255 165.992 31.953C165.617 31.2174 165.539 29.9809 165.679 29.7617C165.695 29.7461 165.711 29.7304 165.726 29.7304C165.884 29.7448 165.91 29.8648 165.962 30.1026C165.967 30.1237 165.971 30.1457 165.977 30.1687C166.039 30.513 166.133 31.0139 166.555 31.7026C166.915 32.2817 167.166 32.5635 167.447 32.8609C167.48 32.899 167.514 32.9375 167.549 32.977C167.728 33.1811 167.931 33.4121 168.167 33.753C168.808 34.6609 168.965 35.0835 168.965 35.0835L169.012 35.193L168.996 35.0678C168.996 35.0669 168.995 35.0596 168.994 35.0465C168.968 34.844 168.761 33.2383 168.996 31.5774C169.133 30.6824 169.431 29.9491 169.634 29.4488C169.641 29.4329 169.647 29.4172 169.653 29.4017C169.81 29.0417 169.904 28.8226 169.841 28.7287C169.81 28.6817 169.778 28.6504 169.731 28.6504H169.716C169.559 28.6504 169.325 28.9009 169.043 29.2139C168.996 29.2609 168.949 29.3117 168.902 29.3626C168.855 29.4135 168.808 29.4643 168.761 29.5113C168.388 29.8974 168.111 30.3365 167.997 30.5151C167.973 30.5537 167.956 30.5802 167.948 30.5913C167.87 30.5757 167.213 30.3878 167.15 29.0261C167.103 28.087 167.181 27.5861 167.26 27.1478C167.306 26.9443 167.338 26.7409 167.353 26.5061C167.369 26.4278 167.353 26.3809 167.306 26.3652C167.134 26.3183 166.665 26.913 166.43 27.3983C166.288 27.6694 166.249 27.8886 166.22 28.0556C166.217 28.0718 166.214 28.0874 166.211 28.1026L166.208 28.1195C166.179 28.2498 166.162 28.323 166.117 28.353C166.102 28.353 166.086 28.353 166.055 28.3374C165.93 28.2435 165.679 27.8365 165.617 27.1165C165.601 26.8661 165.601 26.647 165.601 26.4591C165.601 26.1617 165.601 25.9739 165.507 25.9113C165.46 25.88 165.413 25.88 165.351 25.9113C165.194 25.9896 165.038 26.2557 164.897 26.647C164.788 26.96 164.647 27.4922 164.584 28.2591C164.475 29.6991 164.569 30.7009 164.584 30.8261C164.506 30.8261 164.021 30.8417 163.411 31.0452C162.816 31.2487 161.705 31.7183 161.768 31.9843C161.799 32.1252 162.018 32.0939 162.284 32.047C162.456 32.0157 162.66 31.9844 162.832 32C163.16 32.0157 163.52 32.1878 163.614 32.2348C163.52 32.2817 163.16 32.4852 162.628 32.9861C162.618 32.9958 162.608 33.0055 162.598 33.0152C162.184 33.4139 161.742 33.8391 161.971 34.16C162.05 34.2696 162.237 34.1913 162.503 34.0661L162.525 34.0564C163.059 33.8204 163.943 33.4303 165.085 33.8626C166.383 34.3635 167.166 35.0991 167.885 36.633C168.057 37.04 168.198 37.5409 168.308 38.073C168.574 39.4504 168.276 41.1722 166.978 42.7374C166.243 43.6139 165.898 43.9113 165.366 44.3496C163.692 45.727 162.707 45.9461 162.628 45.7583C162.595 45.6749 162.93 45.4448 163.4 45.1226C163.812 44.8401 164.327 44.4867 164.788 44.0991C166.336 42.8 167.056 41.9235 167.056 41.9235C167.056 41.9235 165.585 42.9722 164.256 42.847C163.708 42.8031 163.282 42.475 163.061 42.304C162.966 42.2309 162.909 42.1865 162.894 42.2052C162.722 42.393 162.988 42.9096 163.082 43.0817C163.16 43.2539 163.364 43.4261 163.364 43.4261C163.364 43.4261 163.317 43.52 162.848 43.5357C162.594 43.5357 162.452 43.4367 162.371 43.3801C162.327 43.3496 162.301 43.3314 162.284 43.3478C162.19 43.4261 162.253 43.7235 162.566 44.0209C162.863 44.3026 163.16 44.4122 163.16 44.4122C163.16 44.4122 162.707 44.5687 161.987 44.5687C161.723 44.5687 161.46 44.5138 161.241 44.4683C160.992 44.4165 160.802 44.3769 160.735 44.4435C160.575 44.6043 160.766 44.775 160.977 44.9631C161.033 45.013 161.09 45.0641 161.142 45.1165C161.393 45.367 161.533 45.367 161.533 45.367C161.533 45.367 161.455 45.6643 160.704 45.7739C160.277 45.8384 159.891 45.7492 159.609 45.6839C159.344 45.6225 159.17 45.5823 159.14 45.7113C159.061 46.0243 160.016 46.8226 161.158 46.9165C162.269 47.0261 163.239 46.5096 163.239 46.5096C163.239 46.5096 163.223 46.76 162.738 47.2922C162.494 47.561 162.313 47.6857 162.207 47.7589C162.109 47.8263 162.075 47.8501 162.112 47.9026C162.3 48.1374 163.02 48.0278 165.492 45.8052C165.507 45.8522 165.507 45.9148 165.507 45.9617C165.648 48.2313 167.948 47.7148 167.932 47.5739C167.925 47.5249 167.84 47.5009 167.714 47.4656C167.559 47.422 167.342 47.361 167.134 47.2139C166.649 46.8696 166.728 46.6817 166.728 46.6817C166.728 46.6817 166.821 46.7757 167.119 46.7913C167.416 46.8226 167.588 46.807 167.588 46.6974C167.588 46.6779 167.539 46.6584 167.463 46.6277C167.233 46.5354 166.751 46.3419 166.587 45.7426C166.462 45.2887 166.649 44.8661 166.884 44.5844C168.949 42.08 169.262 40.6557 169.419 39.6852C169.42 39.6743 169.422 39.6613 169.424 39.6464C169.463 39.3623 169.598 38.383 170.044 37.7287C170.044 37.713 170.06 37.6974 170.06 37.6974C170.404 37.1496 170.936 36.633 171.703 36.4922C171.797 36.4765 171.891 36.4609 171.984 36.4609H172.016H172.063C172.751 36.5235 172.986 36.8209 173.158 37.1339C173.377 37.5565 173.314 38.0887 173.033 38.5426C172.97 38.6209 172.892 38.6991 172.814 38.7617L172.805 38.7693C172.715 38.8441 172.642 38.9046 172.657 38.9652C172.657 39.0122 172.704 39.0591 172.751 39.0904C172.845 39.1374 172.97 39.1217 173.095 39.0591L173.142 39.0435C173.236 38.9965 173.33 38.9496 173.361 38.9652C173.361 38.9652 173.377 38.9809 173.377 38.9965L173.378 39.0024C173.393 39.143 173.416 39.3469 172.861 39.7791C172.687 39.924 172.513 39.9884 172.389 40.0345C172.379 40.0381 172.369 40.0417 172.36 40.0452L172.343 40.0522C172.243 40.0954 172.171 40.1259 172.157 40.1704C172.157 40.2017 172.157 40.233 172.172 40.2644C172.219 40.3583 172.376 40.4052 172.563 40.4052C172.587 40.4052 172.614 40.4013 172.642 40.3974C172.669 40.3935 172.696 40.3896 172.72 40.3896ZM174.128 45.3357C174.143 45.32 174.143 45.3043 174.143 45.3043C174.269 44.8661 174.3 44.3183 174.128 43.7078C174.034 43.3478 173.705 42.5496 172.501 41.7826C171.934 41.4253 171.3 41.2135 171.01 41.1166C170.931 41.0904 170.878 41.0726 170.858 41.0626C171.042 40.6478 171.328 40.479 171.473 40.3938C171.524 40.3633 171.558 40.3435 171.562 40.327C171.578 40.2643 171.187 40.0922 170.842 40.1704C170.545 40.233 170.248 40.5148 170.138 40.687C170.113 40.757 170.093 40.827 170.066 40.9192C170.027 41.0536 169.974 41.235 169.872 41.5322C170.201 41.673 171.03 42.033 171.437 42.2209C172.61 42.7844 173.095 43.4261 173.314 44.1148C173.424 44.4748 173.377 44.8035 173.299 45.0852C173.033 46.0243 172.188 46.6191 171.374 46.4313C170.827 46.3061 170.42 46.04 170.216 45.6644C170.06 45.367 170.044 45.007 170.17 44.6313C170.263 44.3496 170.451 44.2243 170.576 44.1774C170.748 44.0991 170.952 44.1148 171.124 44.2087C171.449 44.3861 171.467 44.6194 171.481 44.803C171.482 44.8138 171.483 44.8244 171.484 44.8348C171.486 44.848 171.487 44.8608 171.489 44.8731C171.501 44.9626 171.509 45.0264 171.578 45.0539C171.64 45.0852 171.718 45.0696 171.781 45.0226C171.922 44.9287 172.016 44.7096 172.031 44.4435C172.063 44.1148 171.859 43.6452 171.233 43.3948C170.623 43.1287 169.794 43.4887 169.481 44.1461C169.012 45.1165 169.372 46.0087 169.434 46.1339C169.387 46.1652 169.262 46.2904 169.153 46.4939C168.965 46.8226 168.965 47.1044 169.012 47.2139C169.027 47.2452 169.043 47.2609 169.059 47.2609C169.09 47.2765 169.137 47.2296 169.2 47.167C169.219 47.1511 169.241 47.1321 169.265 47.1114C169.335 47.0507 169.423 46.9749 169.528 46.9165C169.779 46.7771 170.03 46.7991 170.104 46.8056C170.113 46.8064 170.119 46.807 170.123 46.807C170.639 47.12 171.108 47.3391 171.672 47.3391C171.906 47.3391 172.141 47.3078 172.407 47.2296C173.236 46.9791 173.846 46.3061 174.128 45.3357ZM161.205 25.8174C161.205 25.8174 161.799 25.9896 162.519 26.647C162.926 27.0226 163.364 27.4609 163.692 27.8209L163.88 26.5687C163.857 26.5439 163.833 26.5187 163.808 26.4929C163.54 26.2089 163.217 25.8657 162.801 25.5357C162.347 25.16 161.549 24.753 161.205 24.5809V25.8174ZM161.471 26.8035C161.471 26.8035 161.393 27.4765 161.596 28.8852C161.705 29.6522 161.893 30.3722 161.987 30.7009L163.004 30.2313C162.926 29.9809 162.738 29.3704 162.628 28.713C162.488 27.8365 162.535 27.6487 162.535 27.6487C162.347 27.4452 161.799 26.913 161.471 26.8035ZM164.412 39.1061C163.27 39.2313 162.488 38.3391 162.363 37.4C162.3 36.9148 162.425 36.4452 162.707 36.0852C163.051 35.6313 163.583 35.3809 163.943 35.3339C164.396 35.2713 164.788 35.3965 165.038 35.5217C165.052 35.5281 165.066 35.5345 165.079 35.5406C165.23 35.6096 165.34 35.66 165.398 35.6313C165.507 35.5687 165.507 35.4435 165.46 35.287C165.398 35.0991 165.241 34.8957 165.022 34.7548C164.741 34.5826 164.381 34.4887 163.99 34.5043C162.816 34.5513 162.128 35.4591 161.987 35.6626C161.971 35.6 161.909 35.4748 161.752 35.3809C161.518 35.2243 161.267 35.1617 161.189 35.2557C161.145 35.2998 161.184 35.3578 161.241 35.4426C161.244 35.448 161.248 35.4535 161.252 35.4591C161.261 35.4728 161.271 35.4876 161.282 35.5034C161.346 35.5959 161.435 35.7259 161.502 35.913C161.563 36.0968 161.55 36.3554 161.534 36.6449L161.533 36.6644C161.532 36.6866 161.531 36.7095 161.53 36.733C161.514 37.073 161.492 37.5348 161.58 37.9009C161.815 38.9496 162.801 40.0139 164.271 40.0609C164.443 40.0765 164.6 40.0452 164.756 40.0139C165.413 39.8417 165.867 39.4817 166.164 39.1217C166.171 39.1282 166.18 39.1347 166.191 39.1423C166.206 39.153 166.224 39.166 166.243 39.1843C166.255 39.1945 166.269 39.2053 166.283 39.2167C166.531 39.4156 166.998 39.7901 167.353 39.9826C167.447 39.6539 167.51 39.1687 167.51 38.9339L167.505 38.9308C167.398 38.8591 166.809 38.467 166.008 37.6348C165.319 36.9304 165.1 36.6957 165.1 36.6957C165.094 36.6911 165.088 36.686 165.08 36.6803C164.932 36.568 164.5 36.241 164.068 36.2261C163.661 36.2104 163.52 36.3043 163.505 36.32L163.63 36.4922C163.652 36.514 163.707 36.5866 163.803 36.7116C163.913 36.8554 164.077 37.0684 164.303 37.353C164.741 37.8852 165.257 38.3704 165.413 38.5113L165.398 38.527L165.476 38.5896C165.241 38.84 164.897 39.0591 164.412 39.1061ZM149.518 47.4957C149.518 47.4957 152.271 47.887 153.726 47.6365C155.025 47.4174 156.089 47.12 157.466 45.8835C158.983 44.5374 159.562 42.5965 159.812 41.5948C160.172 40.1704 160.141 37.4626 160.141 37.4626V23.4539C160.141 23.4539 160.047 20.4487 160.266 19.6817C160.485 18.9304 160.954 18.367 161.236 18.0852C161.846 17.4435 163.16 17.24 163.16 17.24C163.552 17.1774 163.63 17.0052 163.599 16.8174C163.567 16.5513 163.333 16.52 163.333 16.52L154.024 16.5043C154.024 16.5043 153.789 16.5513 153.742 16.8174C153.726 16.9896 153.804 17.1774 154.18 17.24C154.18 17.24 155.479 17.4591 156.104 18.0852C156.386 18.367 156.855 18.9148 157.074 19.6817C157.293 20.433 157.2 23.4539 157.2 23.4539L156.996 37.4313C156.996 37.5361 156.998 37.7028 157.001 37.9112C157.012 38.885 157.034 40.7715 156.918 41.5322C156.715 42.8157 156.402 43.9113 155.604 44.7565C154.79 45.6174 154.039 45.8835 152.944 45.8835C151.849 45.8835 151.129 45.5548 150.347 44.96C149.565 44.3496 148.094 42.9878 148.094 42.9878L149.518 47.4957ZM145.544 46.9948C145.685 47.1357 146.545 46.2122 147.046 45.1635C147.562 44.1148 147.687 43.0191 147.562 42.0487C147.484 41.4852 147.108 40.6713 146.874 40.233C147.452 40.6087 148.094 40.8278 148.579 40.9061C149.94 41.1252 151.145 41.1878 152.052 40.9843C152.345 40.9186 152.565 40.8483 152.731 40.7952C152.999 40.7093 153.127 40.6685 153.194 40.7652C153.304 40.9374 152.803 41.4226 151.176 41.673C149.471 41.9235 148.438 41.5478 148.438 41.5478C148.438 41.5478 148.454 41.8922 149.048 42.3461C149.288 42.5241 149.496 42.6468 149.682 42.7565C149.97 42.9266 150.206 43.0658 150.425 43.3322C150.613 43.565 150.627 43.7978 150.637 43.9603C150.644 44.0818 150.649 44.164 150.722 44.1774C150.835 44.1877 150.888 44.0228 150.963 43.7845C151.003 43.6595 151.049 43.5142 151.113 43.3635C151.301 42.9409 151.145 42.5183 151.145 42.5183C151.145 42.5183 151.755 43.0348 152.944 42.9096C153.789 42.8157 154.274 42.6748 154.227 42.5026C154.208 42.4252 154.128 42.4196 153.967 42.4081C153.868 42.401 153.737 42.3916 153.57 42.3617C153.132 42.2835 152.96 42.1113 152.96 42.1113C152.96 42.1113 153.695 41.8922 154.587 41.2817C155.479 40.687 156.057 39.92 155.932 39.7322C155.837 39.589 155.587 39.6732 155.279 39.7768C155.183 39.8091 155.082 39.8433 154.978 39.873C154.352 40.0452 154.133 40.0452 154.133 40.0452C154.133 40.0452 154.07 39.967 154.352 39.6383C154.554 39.4037 154.748 39.2819 154.886 39.1953C155.015 39.1144 155.095 39.0641 155.087 38.9809C155.072 38.8087 154.493 38.6052 152.991 39.2626C152.459 39.513 151.88 39.873 151.88 39.873C151.88 39.873 152.115 39.1843 152.193 38.7148C152.205 38.6458 152.218 38.568 152.233 38.4853C152.319 38.0052 152.434 37.3595 152.287 37.3061C152.185 37.2598 152.16 37.3011 152.085 37.4234C152.034 37.508 151.958 37.6313 151.818 37.7913C151.776 37.8386 151.738 37.8815 151.705 37.9199C151.54 38.1102 151.471 38.1904 151.379 38.1513C151.274 38.1093 151.254 37.9828 151.228 37.8237C151.216 37.7456 151.202 37.6597 151.176 37.5722C151.098 37.3061 150.879 36.9617 150.785 37.0087C150.697 37.0493 150.627 37.3357 150.541 37.6844C150.428 38.1422 150.289 38.7075 150.05 38.9652C149.909 39.1061 149.721 39.2157 149.533 39.2783C149.236 39.3878 148.907 39.4348 148.595 39.4348C148.235 39.4348 147.875 39.3722 147.531 39.247C147.516 39.2413 147.502 39.2356 147.486 39.2296C147.119 39.0867 146.496 38.8445 146.076 38.1983C146.076 38.1983 146.029 38.1043 146.013 38.1043C145.638 38.0574 145.293 37.9635 144.84 37.76C144.949 38.1043 145.137 38.5426 145.278 38.8713L145.278 38.8713C145.763 40.0139 146.436 41.9548 145.794 43.4887C145.027 45.3044 143.26 45.6644 143.056 45.273C142.993 45.1574 143.151 45.0823 143.416 44.957C143.868 44.7432 144.628 44.3833 145.121 43.4261C145.763 42.1739 145.278 40.6243 145.278 40.6243C145.278 40.6243 145.278 41.9548 144.292 42.8626C143.481 43.6168 142.879 43.5618 142.552 43.5319C142.431 43.5209 142.347 43.5133 142.305 43.5513C142.138 43.7187 142.4 43.8418 142.659 43.9636L142.681 43.9739C142.853 44.0365 143.15 44.1148 143.15 44.1148C143.15 44.1148 142.837 44.3965 142.383 44.6157C142.314 44.6477 142.25 44.6767 142.192 44.7033C141.877 44.8457 141.708 44.9221 141.695 45.0539C141.679 45.1791 142.274 45.7426 142.837 45.993C143.4 46.2435 144.089 46.3061 144.089 46.3061C144.089 46.3061 144.151 46.2748 143.964 46.6035C143.894 46.7246 143.821 46.8202 143.761 46.8989C143.657 47.0339 143.591 47.1192 143.651 47.1983C143.791 47.4017 143.948 47.3704 144.746 46.8696C145.544 46.3687 145.778 46.0557 145.778 46.0557C145.778 46.0557 145.747 46.1339 145.669 46.447C145.635 46.5589 145.594 46.6449 145.56 46.7148C145.499 46.8404 145.463 46.9144 145.544 46.9948ZM146.467 29.7148C146.31 29.9183 146.06 30.3722 145.997 30.8104C146.263 31.5617 146.576 31.8591 146.795 31.953C146.967 31.2643 147.171 30.5913 147.499 29.9809C147.496 29.9782 147.491 29.9746 147.486 29.9703C147.394 29.8981 147.028 29.6114 146.467 29.7148ZM145.027 34.7391C145.074 34.8643 145.841 35.3809 146.154 35.4122C146.154 35.4122 146.107 34.9113 146.232 34.4887C146.232 34.4887 145.591 34.1913 145.2 33.5339C145.09 33.8783 145.027 34.473 145.027 34.7391ZM143.166 29.0417C143.103 29.167 143.04 29.3235 142.962 29.527C142.524 30.7009 142.383 31.2643 142.399 32.5009C142.383 33.8626 142.821 35.0991 143.619 36.007C144.386 36.8678 145.434 37.3687 146.545 37.4157C148.157 37.4939 149.533 36.5078 150.05 36.1322C150.822 35.5715 152.225 34.1454 152.328 34.0407C152.331 34.0373 152.333 34.0353 152.334 34.0348L152.365 34.0035L152.381 34.0348C152.381 34.0504 152.866 34.8487 153.366 35.0678C153.742 35.24 154.211 35.193 154.415 35.1148C154.477 35.0991 154.509 35.0678 154.509 35.0678C154.509 35.0596 154.491 35.0471 154.468 35.0303C154.447 35.015 154.421 34.9962 154.399 34.9739C154.164 34.7861 153.695 34.3948 153.617 33.6748C153.539 32.9391 155.04 32.2661 156.12 32.0626L156.151 31.0296C156.121 31.0329 156.067 31.0384 156 31.0453C155.753 31.0706 155.323 31.1145 155.213 31.1391C153.291 31.6704 152.072 32.8102 150.885 33.9198L150.879 33.9252C149.612 35.1148 148.407 36.2417 146.561 36.2417H146.529C145.825 36.2417 145.121 35.8974 144.558 35.3026C143.823 34.52 143.416 33.44 143.494 32.4696C143.572 31.327 143.995 30.4035 144.699 29.7774C145.262 29.2765 145.997 28.9948 146.701 28.9948H146.748C147.296 28.9948 147.859 29.1983 148.297 29.5583C148.642 29.8243 149.048 30.3252 149.095 31.0922C149.127 31.7026 148.923 32.2661 148.548 32.5948C148.438 32.6887 147.844 33.1739 146.874 32.9704C146.436 32.8765 146.076 32.5165 145.888 32.2191C145.763 32 145.669 31.7496 145.575 31.4991C145.544 31.4365 145.481 31.3739 145.387 31.3896C145.293 31.3896 145.215 31.5461 145.2 31.7652C145.153 32.4539 145.622 33.5496 146.811 33.8626C148.767 34.3948 149.752 32.9704 149.971 32.3757C150.206 31.7339 150.222 31.3583 150.222 31.3583C150.222 31.3426 150.237 31.28 150.284 31.2643C150.331 31.2487 150.363 31.2957 150.394 31.3426C150.488 31.4991 150.988 31.7809 151.426 31.6713C151.887 31.5638 152.091 31.1701 152.291 30.7858L152.303 30.7635C152.49 30.4035 152.662 30.0748 153.038 30.0122C153.461 29.9392 153.612 30.0023 153.694 30.0366C153.7 30.039 153.705 30.0414 153.711 30.0435C153.758 30.0748 153.773 30.0748 153.867 30.0122C153.945 29.9496 153.93 29.887 153.914 29.8243C153.82 29.5896 153.382 29.2609 152.772 29.2765C152.162 29.3078 151.958 29.48 151.708 29.6991C151.552 29.84 151.395 29.9652 151.145 30.0748C150.553 30.3345 150.228 30.275 150.169 30.2641C150.163 30.2632 150.16 30.2626 150.159 30.2626H150.143V30.247C150.143 30.2462 150.139 30.2395 150.133 30.2276C150.014 30.0077 148.922 27.993 146.592 27.993H146.576C145.231 28.0087 144.48 28.5565 144.23 28.7443C144.224 28.7487 144.219 28.7529 144.214 28.7569C144.149 28.809 144.133 28.8215 144.104 28.807C144.098 28.8003 144.094 28.7965 144.092 28.7919C144.089 28.7857 144.089 28.778 144.089 28.76C144.12 28.6504 143.948 28.0243 143.823 27.7739C143.682 27.4765 143.306 27.32 143.197 27.3043C143.291 27.3983 143.432 27.7426 143.4 28.1965C143.369 28.5831 143.293 28.7559 143.17 29.0317L143.166 29.0417ZM146.553 16.5352C146.548 16.5355 146.546 16.5357 146.545 16.5357C144.542 16.7078 142.493 18.1635 142.43 21.0122C142.336 23.8452 143.901 25.4417 145.403 25.9896C147.21 26.6485 148.253 26.2873 148.34 26.2571C148.342 26.2565 148.343 26.256 148.344 26.2557C148.391 26.24 148.438 26.2557 148.469 26.287C148.501 26.3339 148.501 26.3809 148.485 26.4122L148.469 26.4278C148.45 26.4493 148.427 26.4748 148.401 26.5034C148.218 26.7037 147.892 27.0598 147.687 27.32C147.859 27.3357 148.078 27.4139 148.235 27.4765C148.47 27.5796 148.553 27.6272 148.654 27.6846C148.66 27.6883 148.666 27.6919 148.673 27.6957C149.236 26.8817 149.987 26.1461 150.91 25.5357C151.63 25.0504 152.819 24.5965 153.992 24.3304L154.117 24.2991L154.024 24.3774C153.679 24.6435 153.429 24.9252 153.194 25.3165C152.913 25.8174 152.694 26.5061 152.756 26.7096C152.756 26.7409 152.772 26.7409 152.772 26.7409C152.881 26.7878 152.881 26.7878 152.928 26.7252C152.935 26.7155 152.941 26.705 152.948 26.6939C152.975 26.6516 153.007 26.5994 153.069 26.5374C153.163 26.4435 153.241 26.3965 153.319 26.3965C153.366 26.3965 153.429 26.4278 153.46 26.4591L153.476 26.4748C153.531 26.5163 153.525 26.57 153.513 26.6899C153.511 26.7057 153.509 26.7226 153.507 26.7409C153.46 27.0226 153.382 27.5235 153.648 27.9304C153.992 28.4783 154.305 28.8383 154.477 28.8696C154.488 28.88 154.498 28.8765 154.509 28.873C154.514 28.8713 154.519 28.8696 154.524 28.8696C154.54 28.8539 154.602 28.7913 154.54 28.4783C154.477 28.1496 154.305 27.007 154.493 26.2087C154.712 25.207 155.353 24.2522 156.167 24.2522H156.245V23.3443C156.089 23.3443 155.275 23.2817 154.79 22.7809C154.54 22.5148 154.415 22.1704 154.43 21.7635C154.462 20.887 154.868 20.3548 155.213 19.9948C155.275 19.9322 155.432 19.76 155.385 19.6504C155.338 19.5565 155.275 19.5252 155.166 19.5096H155.134C154.743 19.5096 154.055 19.9948 153.836 20.3078C153.589 20.6563 153.45 21.0856 153.406 21.2209C153.403 21.2314 153.4 21.2402 153.398 21.247C153.393 21.2517 153.388 21.2579 153.383 21.2646C153.371 21.2801 153.357 21.2987 153.335 21.3096C153.241 21.3565 153.038 21.3252 152.881 21.153C152.756 21.0122 152.756 20.7617 152.756 20.7148V20.6365H152.709C152.678 20.6365 152.615 20.6522 152.553 20.7461C152.412 20.9809 152.522 22.0609 152.96 22.6557C153.078 22.8195 153.186 22.9622 153.28 23.0868C153.347 23.1764 153.408 23.2567 153.46 23.3287L153.492 23.36L153.445 23.3757C153.132 23.4226 152.819 23.5165 152.522 23.6104C152.083 23.7663 151.605 23.9606 151.147 24.147C151.099 24.1665 151.051 24.1859 151.004 24.2052C150.409 24.4557 149.784 24.7061 149.22 24.8783C147.546 25.4104 146.216 25.3635 145.356 24.7687C144.511 24.1896 143.51 23.0783 143.541 21.1843C143.557 20.2139 143.979 19.1965 144.668 18.5235C145.246 17.9443 145.982 17.647 146.78 17.647H146.858C148.97 17.6939 149.69 19.0087 149.674 20.12C149.643 21.1843 149.048 21.8574 148.063 21.9513C147.406 22.0139 146.905 21.5913 146.748 21.1374C146.655 20.8978 146.641 20.6583 146.63 20.4572C146.628 20.4218 146.626 20.3876 146.623 20.3548C146.623 20.1357 146.608 19.9635 146.529 19.9009C146.482 19.8696 146.451 19.8539 146.42 19.8696C146.326 19.8852 146.232 20.0104 146.17 20.1513C145.935 20.7304 145.951 21.3722 146.216 21.9357C146.514 22.5304 147.312 23.0783 148.313 22.9687C149.33 22.8435 150.112 22.28 150.503 21.3565C150.769 20.7617 150.801 20.4017 150.769 20.0261C150.765 19.9964 150.762 19.9667 150.759 19.936C150.75 19.8537 150.741 19.7645 150.707 19.6504C150.707 19.6348 150.707 19.6035 150.722 19.5722C150.754 19.5409 150.769 19.5252 150.801 19.5252C150.816 19.5252 151.505 19.4 151.927 18.8052C152.694 17.7252 152.412 17.1304 152.303 16.9739C152.209 16.833 152.115 16.7861 152.084 16.8017C152.055 16.8017 152.027 16.9178 152.01 16.9861C152.008 16.993 152.007 16.9994 152.005 17.0052L152.003 17.0147C151.925 17.3118 151.811 17.7427 151.239 17.913C150.735 18.0658 150.395 17.831 149.957 17.5287C149.946 17.5212 149.935 17.5137 149.924 17.5061C149.627 17.287 149.283 17.0522 148.798 16.8643C147.75 16.4598 146.658 16.5286 146.553 16.5352ZM176.725 50H140.083V14H176.725V50ZM278.873 26.3958C278.873 30.7158 276.62 32.7349 271.786 32.7349H270.018V19.5558C271.145 19.2584 271.896 19.1958 272.74 19.1958C276.464 19.2115 278.873 22.0288 278.873 26.3958ZM286.696 45.914C284.396 45.1314 281.721 40.4514 279.765 37.0236L279.633 36.7918C278.583 34.9575 277.737 33.478 277.121 32.9071C280.469 31.6393 282.456 29.041 282.456 25.8949C282.456 21.1367 278.733 18.0688 272.975 18.0688C272.607 18.0688 272.033 18.0817 271.405 18.0957L271.207 18.1002C270.936 18.1055 270.649 18.1126 270.365 18.1197C269.813 18.1335 269.268 18.1471 268.845 18.1471C267.108 18.1471 266.388 18.1471 265.043 18.0688C265.012 18.0688 264.98 18.0845 264.949 18.1002C264.918 18.1315 264.902 18.1628 264.902 18.1941V18.3819C264.902 18.4445 264.949 18.4915 265.012 18.5071C266.357 18.7106 266.811 19.2271 266.811 21.888V42.5645C266.811 45.6431 266.296 45.7259 264.94 45.9443L264.933 45.9453C264.871 45.961 264.824 46.0079 264.824 46.0705V46.2584C264.824 46.2897 264.84 46.321 264.871 46.3523C264.902 46.3836 264.933 46.3992 264.965 46.3836L265.085 46.3788C265.874 46.3478 266.949 46.3053 268.407 46.3053C270.034 46.3053 271.364 46.3523 271.849 46.3836C271.88 46.3836 271.911 46.3679 271.942 46.3523C271.974 46.321 271.989 46.2897 271.989 46.2584V46.0705C271.989 46.0079 271.943 45.961 271.88 45.9453L271.874 45.9443C270.517 45.7259 270.002 45.6431 270.002 42.5645V33.7993H272.412C272.85 33.7993 273.398 33.7523 274.039 33.6584C274.734 34.2918 275.52 35.7639 276.007 36.6749L276.026 36.7106C276.079 36.8015 276.125 36.8888 276.167 36.9688L276.167 36.969C276.211 37.0542 276.252 37.1312 276.292 37.1958C280.939 45.7575 281.455 46.274 285.648 46.4305C286.133 46.4305 286.289 46.4305 286.649 46.3992C286.712 46.3992 286.759 46.3366 286.759 46.274V46.0392C286.79 45.9923 286.743 45.9453 286.696 45.914ZM202.43 23.2339C202.43 26.5678 204.965 28.2739 207.64 30.0739L207.641 30.0745C210.645 32.0934 213.742 34.1752 213.742 38.6982C213.742 43.2217 210.441 46.3834 205.716 46.3834C204.341 46.3834 203.363 46.1698 202.51 45.9837L202.477 45.9765L202.333 45.9456C201.653 45.8 201.015 45.6634 200.24 45.6634H200.24C200.021 45.6634 199.911 45.6634 199.692 45.6947C199.661 45.7104 199.614 45.6947 199.583 45.6634C199.552 45.6321 199.536 45.6008 199.552 45.5539C199.583 45.3817 199.583 44.9434 199.583 44.6147C199.583 44.2067 199.539 43.8279 199.494 43.436L199.489 43.3939C199.442 42.9556 199.395 42.5173 199.395 42.0321C199.395 41.7191 199.426 40.5921 199.865 39.6373C199.896 39.5904 199.943 39.5591 199.99 39.5591H200.177C200.209 39.5591 200.24 39.5747 200.271 39.606C200.287 39.6217 200.303 39.6686 200.303 39.6999L200.287 39.8252L200.282 39.872C200.252 40.1365 200.224 40.3869 200.224 40.6234C200.224 43.6286 203.166 45.1939 206.06 45.1939C208.563 45.1939 211.098 43.6756 211.098 40.2947C211.098 36.7106 208.439 34.942 205.638 33.0795L205.638 33.0791C202.728 31.1382 199.708 29.1191 199.708 24.9086C199.708 20.9173 202.649 18.1156 206.858 18.1156C208.022 18.1156 208.958 18.2865 209.789 18.4381L209.909 18.4599L210.038 18.4835C210.678 18.6004 211.28 18.7104 211.896 18.7104C212.131 18.7104 212.303 18.7104 212.522 18.6791C212.553 18.6791 212.6 18.6791 212.631 18.7104C212.663 18.7417 212.678 18.7886 212.678 18.8199C212.6 19.6652 212.569 20.3226 212.569 21.2617C212.569 21.8095 212.569 22.7486 212.6 23.2965C212.6 23.3278 212.6 23.3591 212.569 23.3904C212.537 23.4217 212.506 23.4373 212.475 23.4373H212.256C212.193 23.4373 212.146 23.3904 212.131 23.3278C211.583 20.5886 209.799 19.1486 206.936 19.1486C203.619 19.1486 202.43 21.2617 202.43 23.2339ZM249.241 45.2567C255.609 45.2567 259.567 40.3889 259.567 32.5628C259.567 22.7176 254.013 19.2272 249.241 19.2116C241.809 19.2116 239.181 26.2863 239.181 32.328C239.181 40.4202 242.936 45.2567 249.241 45.2567ZM235.348 32.4533C235.348 25.4255 240.667 18.1472 249.554 18.1472C257.298 18.1472 263.369 24.3768 263.369 32.3437C263.369 40.2167 257.158 46.3837 249.241 46.3837C240.542 46.3837 235.348 39.3089 235.348 32.4533ZM236.271 18.1626C236.287 18.1939 236.302 18.2408 236.287 18.2721C235.958 19.3052 235.504 21.1521 235.411 21.7782C235.395 21.8408 235.348 21.8878 235.285 21.8878H235.051C235.019 21.8878 234.988 21.8721 234.957 21.8408C234.941 21.8095 234.926 21.7626 234.941 21.7313C234.972 21.5904 235.019 21.3713 235.019 21.1834C235.019 20.1504 234.096 19.8843 227.197 19.8843V42.58C227.197 45.6602 227.696 45.7416 229.039 45.9602L229.043 45.9609C229.105 45.9766 229.152 46.0235 229.152 46.0861V46.274C229.152 46.3053 229.137 46.3366 229.105 46.3679C229.074 46.3835 229.043 46.3992 229.012 46.3992C228.511 46.3679 227.212 46.3209 225.601 46.3209C224.171 46.3209 223.116 46.3626 222.332 46.3936L222.19 46.3992C222.159 46.3992 222.128 46.3992 222.096 46.3679C222.065 46.3366 222.049 46.3053 222.049 46.274V46.0861C222.049 46.0235 222.096 45.9766 222.159 45.9609L222.163 45.9602C223.506 45.7416 224.005 45.6602 224.005 42.58V19.8843C217.982 19.8843 216.151 19.9 215.025 22.2791C215.009 22.326 214.962 22.3574 214.915 22.3574H214.727C214.696 22.3574 214.665 22.3417 214.634 22.3104C214.602 22.2791 214.602 22.2321 214.602 22.2008C214.721 21.6077 214.884 21.0368 215.054 20.4413C215.086 20.3296 215.118 20.2171 215.15 20.1034C215.204 19.9028 215.262 19.6984 215.322 19.4876C215.435 19.09 215.554 18.6698 215.666 18.2095C215.682 18.1469 215.729 18.1156 215.791 18.1156C224.553 18.3034 234.3 18.1469 236.162 18.1156C236.208 18.1156 236.24 18.1313 236.271 18.1626ZM197.064 18.1003C196.297 18.1316 194.78 18.1786 193.465 18.1786C192.089 18.1786 190.54 18.1473 189.726 18.1003C189.695 18.1003 189.664 18.116 189.632 18.1316C189.601 18.163 189.585 18.1943 189.585 18.2256V18.4134C189.585 18.476 189.632 18.523 189.695 18.5386L189.72 18.5427C191.067 18.7594 191.948 18.9011 191.948 21.7943V38.5734C191.948 41.7351 190.415 45.1473 187.911 45.1473C187.458 45.1473 187.019 45.116 186.597 45.0377C184.86 44.6151 183.797 43.4256 183.139 42.5803C183.093 42.5178 183.05 42.4592 183.007 42.4006L183.006 42.4004C182.963 42.3417 182.92 42.283 182.873 42.2203C182.154 41.1873 181.825 40.2638 181.825 40.2325C181.794 40.1542 181.716 40.1073 181.622 40.1229C181.528 40.1386 181.481 40.2325 181.481 40.3108L182.06 44.7247C182.06 44.7873 182.091 44.8342 182.138 44.8656C183.75 45.8986 185.768 46.2116 186.159 46.2429C186.8 46.3369 187.317 46.3682 187.661 46.3682C187.861 46.3682 187.991 46.3581 188.043 46.3541C188.056 46.3531 188.065 46.3525 188.068 46.3525C192.214 46.3525 194.999 43.0499 194.999 38.1508V21.7943C194.999 18.9801 195.685 18.8363 197.028 18.5552L197.033 18.5543L197.111 18.5386C197.173 18.523 197.22 18.476 197.22 18.4134V18.2256C197.22 18.1943 197.205 18.163 197.173 18.1316C197.142 18.116 197.111 18.1003 197.064 18.1003Z" fill="white"/>
</svg>
