<svg width="132" height="132" viewBox="0 0 132 132" fill="none" xmlns="http://www.w3.org/2000/svg">
<path d="M65.6 131.2C101.83 131.2 131.2 101.83 131.2 65.6C131.2 29.3701 101.83 0 65.6 0C29.3701 0 0 29.3701 0 65.6C0 101.83 29.3701 131.2 65.6 131.2Z" fill="#990000"/>
<path d="M110.4 59.3004C109.5 59.9004 108.5 60.0004 108.5 60.0004C108.5 60.0004 108.4 60.0004 108.4 60.1004V60.2004C108.4 60.2004 110.9 62.3004 111.1 65.3004C111.4 68.3004 110.9 69.9004 109.4 71.3004C108.2 72.4004 106.5 72.6004 105.8 72.4004C105.7 72.4004 105.6 72.3004 105.6 72.3004C105.5 71.9004 106.1 71.5004 106.7 71.1004C106.8 71.0004 107 70.9004 107.1 70.8004C107.9 70.2004 108.4 69.2004 108.1 68.6004C108 68.4004 107.9 68.4004 107.7 68.4004C107.6 68.4004 107.4 68.5004 107.2 68.5004C106.9 68.6004 106.5 68.7004 106.3 68.5004C106.1 68.3004 106.2 68.1004 106.4 67.7004C106.5 67.4004 106.7 67.0004 106.8 66.5004C106.9 65.4004 106.8 62.4004 105.2 62.1004C105.1 62.1004 105.1 62.1004 105 62.1004C104.8 62.2004 104.8 62.6004 104.8 63.2004C104.8 63.9004 104.8 65.0004 104.3 65.6004C103.6 66.6004 102.6 67.4004 102.1 67.4004C102 67.4004 101.9 67.4004 101.9 67.3004C101.8 67.2004 101.9 67.0004 102 66.6004C102.2 65.7004 102.5 64.2004 102 61.2004C101.8 60.2004 101.2 59.0004 100.6 58.0004C100 57.0004 99.5 56.0004 99.4 55.1004C99.2 53.5004 99.4 52.9004 100.3 52.2004C100.8 51.8004 100.9 51.4004 100.9 51.2004C100.9 51.0004 100.8 50.5004 100.3 50.4004C100.3 50.4004 100.3 50.4004 100.2 50.4004C100 50.4004 99.6 50.3004 99.2 50.3004C97.5 50.3004 93.6 50.4004 90.8 46.6004C88.6 43.6004 88.4 40.7004 88.8 37.3004C88.8 37.2004 88.5 36.0004 87.5 35.0004C87 34.5004 86.5 34.3004 86.1 34.1004C86.2 34.0004 86 33.9004 86 33.8004C86 33.8004 86 33.8004 86.1 33.7004C86.4 33.4004 87.3 33.0004 88.6 33.2004C89.6 33.4004 90.3 33.7004 90.3 33.7004H90.4C90.4 33.7004 93 30.7004 97.2 31.0004C99.7 31.2004 102.2 33.7004 102.2 36.4004C102.3 39.1004 101 40.5004 99.9 40.9004C99 41.2004 98.2 41.2004 97.7 40.8004C97.5 40.6004 97.3 40.4004 97.3 40.2004C97.3 40.0004 97.5 39.9004 97.9 39.7004C98.5 39.4004 99.4 38.9004 99.6 37.2004C99.7 36.3004 99.4 35.5004 98.8 34.8004C98.4 34.4004 97.7 33.9004 96.5 33.9004C95 34.0004 93.8 34.6004 93 35.6004C92 36.9004 91.6 39.0004 92 41.4004C92.6 44.9004 95.9 47.3004 99.7 46.9004C101.9 46.7004 103.9 45.4004 105.5 43.5004C107 41.6004 107.8 39.2004 107.8 36.8004C107.9 31.0004 104.5 24.9004 96.8 24.7004C89.4 24.4004 84.8 29.0004 82.7 31.8004C81.4 33.5004 80 36.7004 79 39.4004C79.4 39.3004 80.9 39.1004 82.2 39.8004C83.5 40.4004 85 42.0004 84.8 42.7004C84.7 42.9004 84.3 42.8004 83.8 42.6004C83.1 42.4004 82 42.5004 80.8 42.6004C78.8 42.9004 77.9 43.3004 77.7 43.5004L77.8 43.1004C77.7 43.3004 77.7 43.5004 77.7 43.5004L74.9 41.8004C75.3 40.1004 77 32.8004 81.5 28.0004C86 23.1004 91.5 21.5004 96.3 21.5004C98.9 21.5004 101.3 21.9004 103.3 22.3004C103.5 22.4004 103.8 22.4004 104 22.5004C105.9 22.9004 107.9 23.3004 109.3 23.0004C110.1 22.8004 110.7 22.5004 111.2 22.3004C111.5 22.2004 111.8 22.0004 111.9 22.0004C111.9 22.0004 111.9 22.0004 111.9 22.1004C112 22.4004 111.7 23.4004 110.8 24.6004C110.2 25.4004 109.6 25.8004 109.1 26.1004C108.7 26.4004 108.3 26.6004 108.3 26.9004C108.3 27.0004 108.4 27.3004 108.7 27.8004C109.6 29.3004 111.3 32.5004 111.1 37.0004C110.8 43.9004 107.5 46.9004 105.3 48.8004L105 49.0004C103.6 50.7004 103.7 52.2004 104.2 53.2004C104.8 54.7004 106.2 55.9004 108 56.6004C109 57.0004 110.2 57.1004 111 57.2004C111.6 57.3004 112.2 57.3004 112.3 57.5004C112.2 57.8004 111.6 58.5004 110.4 59.3004ZM110.7 83.1004C110 87.0004 107.8 88.7004 105.9 88.9004C105.7 88.9004 105.6 88.9004 105.5 88.9004C104.9 88.9004 104.5 88.7004 104.4 88.5004C104.4 88.4004 104.3 88.3004 104.4 88.2004C104.5 88.0004 104.7 88.0004 105 87.9004C105.4 87.8004 105.9 87.6004 106.4 87.1004C108 85.8004 107.9 85.3004 107.9 84.8004C107.9 84.8004 107.9 84.7004 107.8 84.7004C107.7 84.6004 107.5 84.8004 107.2 84.9004L107.1 85.0004C106.7 85.2004 106.4 85.2004 106.1 85.1004C105.9 85.0004 105.9 84.9004 105.8 84.7004C105.8 84.5004 106 84.3004 106.2 84.1004C106.4 83.9004 106.6 83.7004 106.8 83.5004C107.6 82.2004 107.8 80.7004 107.1 79.5004C106.6 78.6004 106 77.8004 104 77.5004H103.9C103.9 77.5004 103.9 77.5004 103.8 77.5004C103.6 77.5004 103.3 77.5004 103 77.6004C100.8 78.0004 99.4 79.5004 98.4 81.0004C98.4 81.0004 98.4 81.0004 98.4 81.1004C97.1 83.1004 96.7 86.1004 96.7 86.7004C96.3 89.5004 95.4 93.6004 89.6 100.8C88.9 101.6 88.4 102.8 88.7 104.1C89.3 106.4 91.5 106.6 91.5 106.9C91.5 107.2 91 107.2 90.2 107.2C89.4 107.1 89.1 106.9 89.1 106.9C89.1 106.9 88.9 107.4 90.2 108.4C91.2 109.2 92.4 109.1 92.5 109.5C92.5 109.9 86.1 111.4 85.7 104.9C85.7 104.7 85.7 104.6 85.7 104.5C78.7 110.9 76.7 111.2 76.2 110.5C76 110.2 76.6 110.2 78 108.7C79.4 107.2 79.4 106.5 79.4 106.5C79.4 106.5 76.7 108 73.5 107.7C70.3 107.4 67.6 105.1 67.8 104.3C68 103.5 69.9 104.8 72.2 104.5C74.3 104.2 74.5 103.3 74.5 103.3C74.5 103.3 74.1 103.3 73.4 102.6C72.7 101.9 71.7 101.3 72.2 100.7C72.5 100.4 74.1 101.1 75.7 101.1C77.7 101.1 79 100.6 79 100.6C79 100.6 78.2 100.3 77.3 99.5004C76.4 98.7004 76.3 97.8004 76.5 97.6004C76.6 97.5004 77 98.2004 78.1 98.1004C79.4 98.1004 79.6 97.8004 79.6 97.8004C79.6 97.8004 79 97.3004 78.8 96.8004C78.5 96.3004 77.8 94.8004 78.3 94.3004C78.5 94.1004 79.9 96.0004 82.1 96.2004C85.9 96.5004 90 93.5004 90 93.5004C90 93.5004 88 96.0004 83.6 99.7004C80.8 102.1 77.3 104 77.5 104.5C77.7 105.1 80.5 104.4 85.2 100.5C86.7 99.2004 87.7 98.4004 89.7 95.9004C93.4 91.4004 94.2 86.5004 93.4 82.5004C93.1 81.0004 92.7 79.5004 92.2 78.4004C90.2 74.0004 88 71.9004 84.3 70.5004C81.1 69.2004 78.5 70.4004 77.1 71.1004C76.3 71.5004 75.8 71.7004 75.6 71.4004C74.9 70.5004 76.3 69.2004 77.5 68.1004C79 66.7004 80 66.1004 80.3 66.0004C80 65.9004 79 65.4004 78.1 65.3004C77.6 65.3004 77.1 65.4004 76.6 65.4004C75.8 65.5004 75.2 65.6004 75.2 65.2004C75 64.4004 78.1 63.1004 79.8 62.5004C81.5 61.9004 82.9 61.9004 83.1 61.9004C83.1 61.5004 82.8 58.7004 83.1 54.5004C83.3 52.3004 83.7 50.8004 84 49.9004C84.4 48.8004 84.8 48.0004 85.3 47.8004C85.5 47.7004 85.6 47.7004 85.8 47.8004C86 47.6004 86 48.1004 86 49.0004C86 49.5004 86 50.2004 86 50.9004C86.2 53.0004 86.9 54.1004 87.2 54.4004C87.3 54.4004 87.3 54.5004 87.4 54.4004C87.6 54.3004 87.6 54.1004 87.7 53.7004C87.8 53.2004 87.9 52.5004 88.3 51.7004C89 50.3004 90.3 48.6004 90.8 48.7004C90.9 48.7004 91 48.9004 90.9 49.1004C90.9 49.8004 90.8 50.3004 90.7 51.0004C90.5 52.3004 90.2 53.7004 90.4 56.4004C90.6 60.3004 92.4 60.8004 92.6 60.9004C92.7 60.7004 93.6 59.2004 94.9 57.8004C95.2 57.5004 95.4 57.2004 95.7 56.9004C96.5 56.0004 97.1 55.3004 97.6 55.3004C97.7 55.3004 97.8 55.4004 97.9 55.5004C98.1 55.8004 97.8 56.4004 97.4 57.4004C96.8 58.8004 95.9 61.0004 95.6 63.6004C94.9 68.7004 95.6 73.6004 95.6 73.6004L95.7 74.0004L95.6 73.7004C95.6 73.7004 95.2 72.5004 93.4 69.9004C92.6 68.7004 92 68.0004 91.4 67.4004C90.6 66.6004 89.9 65.8004 88.9 64.1004C87.7 62.1004 87.4 60.7004 87.3 59.7004C87.1 58.9004 87.1 58.5004 86.6 58.4004C86.5 58.4004 86.5 58.4004 86.5 58.5004C86.1 59.1004 86.3 62.7004 87.4 64.8004C88 65.9004 88.7 66.8004 89.5 67.9004C90.3 69.0004 91.2 70.2004 92.4 72.0004C94.4 75.3004 95.4 77.7004 95.9 79.2004C96 79.6004 96.1 79.9004 96.2 80.2004C96.4 79.7004 96.9 79.1004 97 79.0004C100.6 75.0004 103.7 74.8004 105.9 75.3004C107.5 75.6004 108.8 76.5004 109.8 77.9004C110.5 79.3004 111 81.3004 110.7 83.1004ZM109.9 103.1V103.2C109.1 106 107.4 107.9 105 108.6C104.3 108.8 103.6 108.9 102.9 108.9C101.3 108.9 100 108.3 98.6 107.4C98.5 107.4 97.7 107.3 96.9 107.7C96.5 107.9 96.2 108.2 96 108.4C95.8 108.6 95.7 108.7 95.6 108.7L95.5 108.6C95.4 108.3 95.4 107.5 95.9 106.6C96.2 106 96.6 105.7 96.7 105.6C96.5 105.2 95.5 102.7 96.8 99.9004C97.7 98.0004 100 97.0004 101.7 97.7004C103.5 98.4004 104 99.8004 104 100.7C103.9 101.5 103.7 102.1 103.3 102.4C103.1 102.5 102.9 102.6 102.7 102.5C102.5 102.4 102.5 102.2 102.5 101.8C102.5 101.3 102.4 100.5 101.5 100C101 99.7004 100.4 99.7004 99.9 99.9004C99.5 100.1 99 100.4 98.8 101.2C98.4 102.3 98.5 103.3 98.9 104.2C99.5 105.3 100.6 106 102.2 106.4C104.5 106.9 106.9 105.2 107.6 102.5C107.8 101.7 107.9 100.7 107.6 99.7004C107 97.7004 105.6 95.9004 102.3 94.3004C101.2 93.7004 98.8 92.7004 97.9 92.3004C98.4 90.8004 98.5 90.4004 98.6 89.9004C98.9 89.4004 99.8 88.6004 100.6 88.4004C101.6 88.2004 102.7 88.7004 102.6 88.8004C102.6 89.0004 101.3 89.3004 100.6 90.9004C100.9 91.0004 103.2 91.7004 105.2 93.0004C108.6 95.2004 109.5 97.5004 109.8 98.5004C110.3 100.2 110.3 101.8 109.9 103.1ZM77.2 49.5004C75.2 47.6004 73.5 47.1004 73.5 47.1004V43.6004C74.5 44.1004 76.7 45.3004 78 46.3004C79.3 47.4004 80.2 48.4004 81 49.3004L80.5 52.9004C79.6 51.9004 78.4 50.6004 77.2 49.5004ZM74.6 56.0004C74 51.9004 74.3 50.0004 74.3 50.0004C75.2 50.3004 76.7 51.8004 77.3 52.4004C77.3 52.4004 77.2 52.9004 77.6 55.5004C77.9 57.4004 78.4 59.1004 78.7 59.8004L75.9 61.1004C75.5 60.2004 74.9 58.2004 74.6 56.0004ZM76.8 80.4004C77.1 83.1004 79.4 85.7004 82.6 85.3004C84 85.1004 84.9 84.5004 85.6 83.8004L85.4 83.6004C85 83.2004 83.5 81.8004 82.3 80.3004C81.1 78.8004 80.5 78.0004 80.4 77.8004L80 77.3004C80 77.3004 80.4 77.0004 81.6 77.0004C82.9 77.1004 84.2 78.1004 84.5 78.4004C84.5 78.4004 85.1 79.1004 87 81.1004C89.3 83.5004 91 84.7004 91.2 84.8004C91.2 85.5004 91 86.8004 90.8 87.8004C89.7 87.2004 88.4 86.1004 87.7 85.5004C87.6 85.4004 87.5 85.4004 87.5 85.3004C86.7 86.3004 85.4 87.3004 83.5 87.9004C83.1 88.0004 82.6 88.0004 82.1 88.0004C78 87.9004 75.2 84.8004 74.5 81.8004C74.2 80.7004 74.3 79.2004 74.4 78.3004C74.4 77.4004 74.5 76.7004 74.3 76.1004C74.1 75.5004 73.8 75.1004 73.6 74.8004C73.4 74.5004 73.3 74.4004 73.4 74.2004C73.6 73.9004 74.3 74.1004 75 74.5004C75.4 74.8004 75.6 75.1004 75.7 75.3004C76.1 74.7004 78 72.1004 81.3 72.0004C82.4 72.0004 83.4 72.2004 84.2 72.7004C84.8 73.1004 85.3 73.7004 85.4 74.2004C85.5 74.7004 85.5 75.0004 85.2 75.2004C85 75.3004 84.7 75.1004 84.2 74.9004C83.5 74.6004 82.4 74.2004 81.1 74.3004C80.1 74.4004 78.6 75.1004 77.6 76.4004C76.9 77.6004 76.6 79.0004 76.8 80.4004ZM63 104.7C59.1 108.2 56.1 109.1 52.4 109.7C48.3 110.4 40.6 109.3 40.6 109.3L36.6 96.4004C36.6 96.4004 40.8 100.3 42.9 102C45.1 103.7 47.1 104.7 50.2 104.7C53.3 104.7 55.4 103.9 57.7 101.5C60 99.1004 60.8 95.9004 61.4 92.2004C61.8 89.5004 61.6 82.2004 61.6 80.4004L62.2 40.3004C62.2 40.3004 62.5 31.6004 61.9 29.5004C61.3 27.3004 60 25.7004 59.2 24.9004C57.5 23.1004 53.8 22.5004 53.8 22.5004C52.7 22.3004 52.5 21.8004 52.6 21.3004C52.7 20.5004 53.4 20.4004 53.4 20.4004L79.6 20.5004C79.6 20.5004 80.3 20.6004 80.4 21.3004C80.5 21.8004 80.3 22.3004 79.2 22.5004C79.2 22.5004 75.5 23.1004 73.8 24.9004C73 25.7004 71.7 27.3004 71.1 29.5004C70.5 31.7004 70.8 40.3004 70.8 40.3004V80.5004C70.8 80.5004 70.9 88.3004 69.9 92.3004C68.9 95.3004 67.3 100.8 63 104.7ZM33.7 102.7C32.3 105.7 29.9 108.4 29.5 107.9C29.1 107.5 29.6 107.2 29.8 106.3C30 105.4 30.1 105.2 30.1 105.2C30.1 105.2 29.4 106.1 27.2 107.5C24.9 108.9 24.5 109 24.1 108.5C23.9 108.1 24.4 107.7 25 106.8C25.5 105.9 25.4 105.9 25.4 105.9C25.4 105.9 23.5 105.7 21.9 105C20.3 104.3 18.6 102.7 18.7 102.3C18.8 101.9 19.4 101.6 20.6 101C21.9 100.4 22.8 99.5004 22.8 99.5004C22.8 99.5004 21.9 99.3004 21.5 99.1004C20.7 98.7004 20 98.4004 20.4 97.9004C20.8 97.5004 22.9 98.9004 26 95.9004C28.8 93.3004 28.8 89.5004 28.8 89.5004C28.8 89.5004 30.1 94.0004 28.4 97.5004C26.2 101.9 22.1 101.9 22.6 102.8C23.2 103.9 28.2 102.9 30.3 97.7004C32.1 93.3004 30.2 87.8004 28.8 84.5004C28.4 83.6004 27.9 82.3004 27.5 81.3004C28.8 81.9004 29.8 82.1004 30.8 82.3004L31 82.6004C32.2 84.5004 34.1 85.2004 35.1 85.6004C36.1 86.0004 37.1 86.1004 38.1 86.1004C39 86.1004 39.9 86.0004 40.7 85.6004C41.2 85.4004 41.8 85.1004 42.2 84.7004C43.4 83.4004 43.7 79.4004 44.3 79.1004C44.6 79.0004 45.2 79.9004 45.4 80.7004C45.6 81.4004 45.5 82.2004 46 82.4004C46.3 82.5004 46.5 82.2004 47.2 81.4004C48.2 80.3004 48 79.8004 48.5 80.0004C49 80.2004 48.5 82.7004 48.2 84.0004C48 85.4004 47.3 87.3004 47.3 87.3004C47.3 87.3004 48.9 86.2004 50.4 85.6004C54.6 83.7004 56.3 84.3004 56.3 84.8004C56.3 85.3004 55.3 85.4004 54.2 86.7004C53.4 87.6004 53.6 87.9004 53.6 87.9004C53.6 87.9004 54.2 87.9004 56 87.4004C57.3 87.0004 58.3 86.5004 58.7 87.0004C59.1 87.5004 57.4 89.7004 54.9 91.5004C52.4 93.2004 50.3 93.9004 50.3 93.9004C50.3 93.9004 50.8 94.4004 52 94.6004C53.2 94.8004 53.7 94.6004 53.9 95.0004C54 95.5004 52.7 95.9004 50.3 96.1004C47 96.4004 45.2 95.0004 45.2 95.0004C45.2 95.0004 45.6 96.2004 45.1 97.4004C44.6 98.6004 44.5 99.8004 44 99.7004C43.5 99.6004 44.1 98.5004 43.2 97.3004C42.2 96.0004 41 95.8004 39.3 94.5004C37.6 93.2004 37.6 92.2004 37.6 92.2004C37.6 92.2004 40.5 93.3004 45.3 92.5004C49.9 91.8004 51.3 90.4004 51 89.9004C50.7 89.4004 49.9 90.0004 47.8 90.5004C45.3 91.1004 41.8 90.9004 38 90.3004C36.7 90.1004 34.8 89.4004 33.2 88.4004C33.8 89.7004 34.9 92.0004 35.1 93.6004C35.5 96.5004 35.1 99.6004 33.7 102.7ZM30.7 61.5004C30.9 60.2004 31.6 58.9004 32 58.4004C33.7 58.1004 34.7 59.0004 34.9 59.2004C34 61.0004 33.4 62.9004 32.9 64.9004C32.3 64.5004 31.5 63.6004 30.7 61.5004ZM31.1 74.7004C30.2 74.6004 28.1 73.1004 27.9 72.8004C27.9 72.0004 28.1 70.3004 28.4 69.3004C29.5 71.2004 31.3 72.0004 31.3 72.0004C31 73.2004 31.1 74.7004 31.1 74.7004ZM22.2 57.8004C22.4 57.2004 22.6 56.8004 22.8 56.4004C23.2 55.6004 23.4 55.1004 23.5 54.0004C23.6 52.7004 23.2 51.7004 22.9 51.4004C23.2 51.4004 24.3 51.9004 24.7 52.7004C25 53.4004 25.5 55.2004 25.5 55.5004C25.5 55.6004 25.5 55.6004 25.5 55.6004C25.6 55.6004 25.6 55.6004 25.9 55.4004C26.6 54.9004 28.7 53.3004 32.5 53.3004C39.4 53.3004 42.5 59.7004 42.5 59.8004C42.5 59.8004 43.5 60.1004 45.3 59.3004C46 59.0004 46.5 58.6004 46.9 58.2004C47.6 57.6004 48.2 57.1004 49.9 57.0004C51.6 56.9004 52.9 57.9004 53.1 58.6004C53.2 58.8004 53.2 59.0004 53 59.1004C52.7 59.3004 52.7 59.3004 52.5 59.2004C52.3 59.1004 51.9 58.9004 50.6 59.1004C49.5 59.3004 49.1 60.2004 48.5 61.3004C47.9 62.4004 47.4 63.6004 46 63.9004C44.8 64.2004 43.3 63.4004 43.1 63.0004C43 62.9004 42.9 62.7004 42.8 62.8004C42.7 62.8004 42.6 63.0004 42.6 63.1004C42.6 63.1004 42.6 64.2004 41.9 66.0004C41.3 67.7004 38.5 71.8004 33 70.3004C29.6 69.4004 28.3 66.2004 28.5 64.3004C28.5 63.7004 28.8 63.2004 29 63.2004C29.2 63.2004 29.5 63.4004 29.5 63.5004C29.8 64.2004 30 65.0004 30.4 65.6004C30.9 66.5004 32 67.5004 33.2 67.7004C35.9 68.3004 37.6 66.9004 37.9 66.6004C38.9 65.6004 39.5 64.0004 39.4 62.3004C39.3 60.1004 38.1 58.7004 37.1 57.9004C35.9 56.9004 34.3 56.3004 32.8 56.3004H32.7C30.7 56.3004 28.7 57.1004 27.1 58.5004C25.1 60.3004 23.9 63.0004 23.7 66.2004C23.5 69.0004 24.6 72.1004 26.7 74.3004C28.3 76.0004 30.3 77.0004 32.2 77.0004H32.3C37.5 77.0004 40.9 73.8004 44.5 70.4004C47.8 67.2004 51.3 63.9004 56.7 62.4004C57.1 62.3004 59 62.1004 59.4 62.1004L59.1 65.0004C56.1 65.6004 51.9 67.5004 52.1 69.6004C52.3 71.7004 53.6 72.8004 54.3 73.3004C54.4 73.4004 54.6 73.5004 54.6 73.6004C54.6 73.6004 54.5 73.7004 54.3 73.7004C53.7 73.9004 52.4 74.1004 51.3 73.6004C49.9 73.0004 48.5 70.7004 48.5 70.6004L48.4 70.5004L48.3 70.6004C48.3 70.6004 44.1 75.0004 41.9 76.6004C40.4 77.7004 36.6 80.5004 32 80.3004C28.9 80.2004 25.9 78.7004 23.8 76.3004C21.5 73.7004 20.3 70.1004 20.4 66.2004C20.5 62.8004 20.9 61.2004 22.2 57.8004ZM32.2 20.5004C32.2 20.5004 35.5 20.2004 38.5 21.5004C39.8 22.0004 40.8 22.7004 41.7 23.3004C43 24.2004 44 24.9004 45.4 24.5004C47 24.0004 47.3 22.7004 47.6 21.9004C47.7 21.7004 47.7 21.3004 47.8 21.3004C47.9 21.3004 48.2 21.4004 48.4 21.8004C48.7 22.3004 49.5 24.0004 47.4 27.1004C46.2 28.8004 44.3 29.2004 44.2 29.2004C44.1 29.2004 44 29.3004 44 29.3004C44 29.4004 43.9 29.5004 44 29.5004C44.1 29.9004 44.1 30.2004 44.2 30.6004C44.3 31.7004 44.2 32.7004 43.5 34.4004C42.4 37.0004 40.2 38.7004 37.3 39.0004C34.5 39.3004 32.2 37.8004 31.4 36.0004C30.7 34.4004 30.6 32.5004 31.3 30.9004C31.5 30.5004 31.7 30.2004 32 30.1004C32.1 30.1004 32.2 30.1004 32.3 30.2004C32.5 30.4004 32.5 30.9004 32.6 31.5004C32.6 32.1004 32.7 32.9004 32.9 33.8004C33.3 35.1004 34.7 36.3004 36.6 36.1004C39.4 35.8004 41.1 33.9004 41.1 30.8004C41.2 27.6004 39.1 23.8004 33.2 23.7004C33.1 23.7004 33 23.7004 33 23.7004C30.7 23.7004 28.7 24.6004 27 26.2004C25.1 28.1004 23.9 31.1004 23.8 33.8004C23.7 39.2004 26.5 42.4004 28.9 44.1004C31.3 45.8004 35.1 45.9004 39.8 44.4004C41.4 43.9004 43.1 43.2004 44.8 42.5004C46.2 41.9004 47.7 41.3004 49.1 40.8004C49.9 40.5004 50.8 40.3004 51.7 40.1004H51.8L51.7 40.0004C51.3 39.5004 50.9 38.9004 50.3 38.1004C49.1 36.4004 48.7 33.3004 49.1 32.6004C49.3 32.3004 49.5 32.3004 49.5 32.3004C49.6 32.3004 49.6 32.3004 49.6 32.3004V32.5004C49.6 32.7004 49.6 33.4004 49.9 33.8004C50.3 34.3004 50.9 34.4004 51.2 34.3004C51.3 34.3004 51.4 34.2004 51.4 34.1004C51.5 33.8004 51.9 32.5004 52.6 31.4004C53.2 30.5004 55.1 29.1004 56.2 29.1004H56.3C56.6 29.1004 56.8 29.3004 56.9 29.5004C57 29.8004 56.6 30.3004 56.4 30.5004C55.4 31.5004 54.3 33.0004 54.2 35.6004C54.2 36.8004 54.5 37.8004 55.2 38.5004C56.6 39.9004 58.8 40.1004 59.3 40.1004V42.7004C59.2 42.7004 59.2 42.7004 59.1 42.7004C56.8 42.7004 55 45.5004 54.4 48.3004C53.9 50.6004 54.3 53.9004 54.5 54.8004C54.7 55.7004 54.5 55.9004 54.5 55.9004C54.5 55.9004 54.4 55.9004 54.3 55.9004C53.8 55.8004 52.9 54.8004 51.9 53.2004C51.2 52.0004 51.4 50.6004 51.5 49.8004C51.6 49.4004 51.6 49.2004 51.4 49.1004C51.3 49.0004 51.2 48.9004 51 48.9004C50.8 48.9004 50.5 49.0004 50.3 49.3004C50.1 49.5004 50 49.7004 49.9 49.8004C49.8 50.0004 49.8 50.0004 49.5 49.9004C49.5 49.9004 49.5 49.9004 49.4 49.8004C49.2 49.2004 49.8 47.2004 50.6 45.8004C51.3 44.7004 51.9 43.9004 52.9 43.1004L53.2 42.9004L52.8 43.0004C49.5 43.8004 46.2 45.1004 44.1 46.5004C41.5 48.3004 39.4 50.3004 37.8 52.7004C37.5 52.5004 37.3 52.4004 36.6 52.1004C36.2 51.9004 35.5 51.7004 35.1 51.6004C35.8 50.7004 36.8 49.5004 37.3 49.1004C37.4 49.0004 37.4 48.9004 37.3 48.8004C37.2 48.7004 37.1 48.7004 37 48.7004C36.9 48.7004 33.9 49.9004 28.7 47.9004C24.5 46.3004 20.1 41.7004 20.3 33.6004C20.8 25.2004 26.6 21.0004 32.2 20.5004Z" fill="white"/>
</svg>
