<svg width="200" height="160" viewBox="0 0 200 160" fill="none" xmlns="http://www.w3.org/2000/svg">
<rect width="200" height="160" fill="white"/>
<path fill-rule="evenodd" clip-rule="evenodd" d="M133.398 106.31H62.8311V19H133.398V106.31ZM127.47 58.5183C127.491 58.5183 128.157 58.4412 128.781 57.9272C129.633 57.2593 130.029 56.6938 129.883 56.283C129.841 56.1545 129.427 56.103 129.012 56.0515H129.009L128.989 56.0486C128.429 55.9722 127.67 55.8682 126.971 55.5635C125.744 55.0239 124.787 53.9702 124.351 52.7112C124.06 51.8892 123.935 50.5786 124.933 49.1655H124.954L125.141 48.96L125.151 48.9482C126.649 47.2786 128.885 44.7839 129.113 38.9646C129.259 35.1619 128.053 32.4639 127.47 31.1792C127.283 30.7681 127.179 30.5369 127.179 30.4084C127.179 30.1514 127.387 29.9717 127.699 29.7402L127.81 29.647C128.133 29.3777 128.55 29.0293 128.885 28.4556C129.488 27.4536 129.675 26.6313 129.633 26.3743C129.633 26.3486 129.613 26.323 129.613 26.323C129.571 26.2974 129.363 26.4258 129.155 26.5542C128.822 26.7598 128.385 27.0166 127.866 27.1709C126.909 27.4792 125.557 27.1453 124.268 26.7854C124.215 26.7668 124.163 26.7517 124.109 26.7375C124.014 26.7122 123.916 26.6899 123.81 26.657C122.458 26.2715 120.815 25.9375 119.026 25.9631C115.74 25.989 112.018 27.3508 108.919 31.4875C105.903 35.5217 104.697 41.6626 104.427 43.1272L106.319 44.5662C106.485 44.3862 107.047 44.0522 108.44 43.821C109.252 43.6667 109.979 43.6155 110.499 43.7952C110.895 43.9238 111.165 44.0007 111.207 43.8467C111.394 43.2815 110.354 41.9453 109.46 41.4058C108.586 40.8662 107.609 41.0203 107.297 41.0974C107.983 38.8618 108.919 36.1125 109.813 34.6736C111.248 32.3611 114.389 28.4812 119.442 28.7126C124.725 28.9695 127.034 34.0571 126.992 38.9905C126.971 40.969 126.389 43.0244 125.391 44.6174C124.33 46.3132 122.936 47.3669 121.439 47.5466C118.902 47.8806 116.593 45.8252 116.198 42.8704C115.928 40.8403 116.177 39.0674 116.884 37.937C117.446 37.0376 118.278 36.5493 119.297 36.498C120.087 36.4465 120.566 36.8835 120.836 37.2432C121.231 37.7571 121.439 38.5022 121.397 39.2473C121.314 40.6863 120.669 41.0974 120.254 41.3542C120.004 41.5085 119.879 41.6113 119.879 41.791C119.879 41.9119 119.915 42.0237 119.974 42.1216C120.016 42.1902 120.069 42.252 120.129 42.3049C120.462 42.5876 121.023 42.6133 121.626 42.3564C122.375 42.0481 123.228 40.8403 123.186 38.5535C123.144 36.2668 121.481 34.1599 119.734 34.0056C116.9 33.7305 115.169 36.1331 115.059 36.2852L115.054 36.2925C115.033 36.3181 115.013 36.3438 114.992 36.3181C114.992 36.3181 114.513 35.9841 113.848 35.8557C112.954 35.7014 112.309 36.0354 112.122 36.2668C112.08 36.2925 112.08 36.3438 112.08 36.3438C112.08 36.4209 112.246 36.498 112.392 36.6008C112.642 36.7549 112.995 36.9863 113.349 37.3716C114.077 38.1938 114.243 39.2473 114.243 39.2988V39.3245C113.952 42.1765 114.056 44.5918 115.595 47.1614C117.487 50.3474 120.17 50.3218 121.314 50.2959C121.585 50.2959 121.834 50.3218 121.98 50.373C121.989 50.384 121.994 50.3904 121.998 50.394C122.004 50.3987 122.009 50.3987 122.021 50.3987C122.313 50.5273 122.396 50.9126 122.396 51.1182C122.396 51.3237 122.333 51.6321 121.98 51.9661C121.377 52.5315 121.252 53.0967 121.397 54.4329C121.481 55.1523 121.855 56.0002 122.25 56.8738L122.321 57.0349C122.696 57.8862 123.088 58.7759 123.186 59.5974C123.498 62.0898 123.29 63.426 123.165 64.1455C123.103 64.4536 123.082 64.6592 123.124 64.7363C123.165 64.7878 123.207 64.8135 123.29 64.8135C123.623 64.8135 124.351 64.1455 124.808 63.2717C125.099 62.7065 125.12 61.8586 125.12 61.2163C125.12 60.728 125.12 60.4197 125.224 60.3169C125.266 60.2913 125.307 60.2913 125.349 60.2913C126.43 60.5737 126.534 63.0662 126.472 64.0168C126.451 64.4536 126.326 64.762 126.223 65.019C126.098 65.3274 126.035 65.4814 126.181 65.6614C126.306 65.8413 126.555 65.7385 126.784 65.6614L126.836 65.6394C126.938 65.5962 127.028 65.5586 127.117 65.5586C127.242 65.5586 127.346 65.5842 127.408 65.7385C127.595 66.2009 127.283 67.0488 126.701 67.5627C126.597 67.6399 126.493 67.7427 126.389 67.8198C125.931 68.2051 125.557 68.5391 125.619 68.8474C125.619 68.8733 125.64 68.8989 125.744 68.9246C126.181 69.053 127.366 68.9246 128.177 67.9739C129.197 66.792 129.509 65.4045 129.321 62.9121C129.16 60.5493 127.577 58.7886 127.457 58.6545L127.45 58.6467C127.437 58.6313 127.432 58.616 127.43 58.6003C127.429 58.5901 127.429 58.5798 127.429 58.5696C127.429 58.5527 127.438 58.5359 127.45 58.5261C127.456 58.5212 127.463 58.5183 127.47 58.5183ZM125.703 83.031C126.992 82.8254 128.51 81.4121 128.968 78.0977C129.176 76.5559 128.843 74.8601 128.157 73.5239C127.491 72.3677 126.534 71.5969 125.474 71.3142H125.453C123.976 70.8774 121.834 71.1086 119.38 74.449C119.297 74.5518 119.026 75.0398 118.86 75.4509C118.825 75.3208 118.79 75.1826 118.751 75.0315C118.721 74.9143 118.689 74.7893 118.652 74.6545C118.319 73.4211 117.633 71.3655 116.24 68.5649C115.47 67.0232 114.846 66.021 114.285 65.1218C113.744 64.248 113.266 63.4773 112.87 62.5266C112.122 60.7537 111.976 57.7476 112.246 57.2078C112.288 57.1565 112.309 57.1309 112.35 57.1309C112.662 57.1821 112.725 57.5161 112.829 58.21C112.954 59.0322 113.162 60.2656 113.952 61.9099C114.609 63.2876 115.095 63.9587 115.591 64.6448L115.657 64.7363C116.073 65.3018 116.51 65.8926 117.051 66.8948C118.278 69.1045 118.569 70.1323 118.569 70.1323L118.652 70.4148L118.611 70.1064C118.59 70.0808 118.091 65.9182 118.59 61.6274C118.857 59.4214 119.447 57.616 119.843 56.4082L119.858 56.3599C120.15 55.4863 120.316 54.9468 120.212 54.7412C120.17 54.6384 120.087 54.5613 120.004 54.5613H119.983C119.671 54.5613 119.234 55.1523 118.694 55.9231C118.6 56.0388 118.512 56.1609 118.423 56.283C118.335 56.405 118.247 56.5271 118.153 56.6426C117.279 57.7988 116.676 59.0835 116.593 59.2634C116.427 59.2119 115.179 58.7751 115.054 55.4607C114.951 53.2185 115.114 52.0125 115.258 50.9399L115.262 50.9126C115.278 50.7844 115.295 50.6577 115.311 50.531C115.362 50.1501 115.413 49.7695 115.428 49.3452C115.428 49.1655 115.408 49.0369 115.325 49.0112C115.013 48.9084 114.097 50.3218 113.64 51.5293C113.381 52.1694 113.303 52.708 113.245 53.1084L113.224 53.251C113.195 53.4617 113.177 53.6365 113.135 53.7424C113.115 53.7915 113.09 53.8257 113.058 53.8418C113.037 53.8677 112.995 53.8418 112.954 53.8162C112.683 53.6106 112.226 52.6343 112.101 50.8613C112.059 50.2703 112.059 49.7051 112.059 49.2683C112.059 48.5488 112.059 48.0605 111.872 47.9321C111.789 47.8806 111.664 47.8806 111.56 47.9578C111.29 48.1633 110.978 48.8057 110.707 49.7563C110.499 50.5015 110.208 51.7864 110.104 53.6362C109.905 57.0176 110.069 59.3792 110.101 59.8337L110.104 59.8801C109.938 59.8801 109.002 59.9573 107.837 60.4197C106.693 60.8821 104.572 62.0383 104.676 62.6809C104.738 63.0149 105.154 62.9377 105.674 62.835C106.007 62.7837 106.381 62.7065 106.714 62.7322C107.298 62.7788 107.898 63.1196 108.146 63.26C108.172 63.2749 108.194 63.2876 108.212 63.2974C108.024 63.4001 107.338 63.8884 106.298 65.0962C105.487 66.0469 104.572 67.126 105.03 67.9226C105.175 68.1794 105.529 67.9995 106.049 67.6912C107.089 67.1003 108.794 66.1497 111.019 67.2031C113.515 68.385 115.013 70.2092 116.406 73.9094C116.739 74.9114 117.009 76.0933 117.217 77.4038C117.716 80.7441 117.155 84.9067 114.659 88.7095C113.245 90.8677 112.579 91.5615 111.539 92.6406C108.295 95.981 106.423 96.5205 106.257 96.0581C106.178 95.8489 106.847 95.2683 107.778 94.4604C108.561 93.7808 109.531 92.9399 110.395 92.0239C113.349 88.8635 114.742 86.7566 114.742 86.7566C114.742 86.7566 111.914 89.2747 109.335 88.9919C108.302 88.8679 107.497 88.0959 107.062 87.6794C106.867 87.4922 106.747 87.377 106.714 87.4248C106.413 87.843 106.827 88.8914 107.032 89.4114C107.053 89.4666 107.073 89.5156 107.089 89.5574C107.276 89.9685 107.65 90.4053 107.65 90.4053C107.65 90.4053 107.546 90.6621 106.652 90.688C106.151 90.688 105.879 90.448 105.721 90.3091C105.637 90.2349 105.586 90.1895 105.55 90.2253C105.383 90.4053 105.508 91.1248 106.09 91.8442C106.673 92.5378 107.234 92.7949 107.234 92.7949C107.234 92.7949 106.361 93.1802 104.988 93.1802C104.49 93.1685 103.988 93.0315 103.569 92.9172C103.077 92.783 102.699 92.6797 102.576 92.8462C102.269 93.2444 102.625 93.6426 103.023 94.0884C103.139 94.218 103.258 94.3518 103.366 94.4907C103.844 95.1074 104.135 95.1074 104.135 95.1074C104.135 95.1074 104.011 95.8269 102.555 96.1094C101.74 96.2683 100.996 96.0518 100.451 95.8926C99.938 95.7429 99.5995 95.6443 99.5391 95.9553C99.3727 96.7004 101.224 98.6018 103.428 98.8589C105.591 99.0901 107.442 97.8567 107.442 97.8567C107.442 97.8567 107.421 98.4478 106.485 99.7581C106.007 100.43 105.653 100.729 105.449 100.903C105.262 101.061 105.2 101.114 105.279 101.248C105.633 101.814 107.026 101.557 111.789 96.1609C111.789 96.2393 111.797 96.3176 111.803 96.3962C111.807 96.4463 111.81 96.4963 111.81 96.5464C112.08 102.045 116.489 100.786 116.468 100.452C116.459 100.322 116.283 100.257 116.027 100.163C115.725 100.052 115.312 99.8999 114.929 99.5525C113.993 98.7046 114.139 98.2678 114.139 98.2678C114.139 98.2678 114.347 98.499 114.909 98.5505C115.47 98.6018 115.782 98.6018 115.803 98.3191C115.808 98.2654 115.709 98.2136 115.552 98.1316C115.106 97.8989 114.197 97.4243 113.889 95.981C113.661 94.8503 114.014 93.8484 114.472 93.1545C118.444 87.0649 119.068 83.5962 119.359 81.2581V81.2322C119.365 81.1909 119.371 81.1345 119.379 81.0649C119.465 80.3149 119.728 78.033 120.566 76.5044C120.566 76.5044 120.586 76.4788 120.586 76.4531C121.252 75.1426 122.25 73.9094 123.748 73.5496C123.956 73.4983 124.143 73.4724 124.309 73.4724H124.434C125.786 73.6267 126.243 74.3462 126.555 75.1169C126.992 76.1448 126.888 77.4551 126.326 78.5344C126.223 78.74 126.056 78.9197 125.911 79.074C125.744 79.2795 125.599 79.4336 125.619 79.5879C125.64 79.7163 125.703 79.8191 125.807 79.8962C125.994 79.999 126.223 79.9731 126.472 79.8191L126.555 79.7676C126.742 79.6392 126.909 79.5364 126.971 79.5879C126.992 79.5879 127.013 79.6135 127.013 79.665L127.014 79.6726C127.055 80.0312 127.109 80.4946 126.015 81.5664C125.64 81.926 125.287 82.106 125.037 82.2087C124.829 82.2859 124.683 82.3628 124.642 82.4912C124.621 82.5684 124.642 82.6455 124.663 82.7227C124.746 82.9282 125.037 83.0566 125.411 83.0566C125.495 83.0566 125.599 83.0566 125.703 83.031ZM128.406 95.0303C128.406 94.979 128.427 94.9531 128.427 94.9275C128.677 93.874 128.739 92.5378 128.406 91.0991C128.219 90.2253 127.574 88.2727 125.266 86.4226C124.14 85.5159 122.859 84.99 122.332 84.7737C122.217 84.7263 122.138 84.6938 122.105 84.6753C122.453 83.6821 123.001 83.2766 123.281 83.0701C123.384 82.9934 123.451 82.9441 123.456 82.9023C123.477 82.7483 122.708 82.3628 122.063 82.5427C121.501 82.7227 120.919 83.3906 120.711 83.8018C120.683 83.9214 120.659 84.0371 120.632 84.1675C120.561 84.5132 120.469 84.9617 120.212 85.8574C120.443 85.9907 120.809 86.1948 121.217 86.4226C121.91 86.8086 122.723 87.2622 123.207 87.5532C125.474 88.915 126.41 90.4565 126.826 92.1526C127.034 93.0005 126.95 93.7969 126.805 94.4907C126.285 96.7776 124.663 98.2163 123.103 97.7539C122.042 97.4456 121.252 96.7776 120.878 95.8782C120.566 95.1587 120.545 94.2852 120.794 93.3857C120.982 92.7178 121.314 92.4094 121.564 92.281C121.897 92.1011 122.292 92.1267 122.625 92.3582C123.29 92.8206 123.311 93.4373 123.332 93.874C123.332 94.1309 123.352 94.3364 123.498 94.4136C123.602 94.4651 123.748 94.4392 123.872 94.3364C124.122 94.1052 124.309 93.5657 124.351 92.9233C124.392 92.1526 124.018 90.9963 122.812 90.3796C121.605 89.7629 120.025 90.6108 119.422 92.2039C118.527 94.5679 119.234 96.7004 119.338 97.0088C119.255 97.0859 119.006 97.3943 118.798 97.8823C118.444 98.6533 118.444 99.3469 118.527 99.604C118.548 99.6553 118.59 99.7068 118.611 99.7068C118.694 99.7324 118.777 99.6296 118.902 99.4753C118.962 99.4014 119.029 99.3186 119.107 99.2324C119.219 99.1094 119.354 98.9797 119.526 98.8589C120.087 98.4734 120.628 98.5762 120.69 98.6018C121.668 99.3726 122.583 99.8865 123.664 99.8865C124.101 99.8865 124.579 99.7837 125.079 99.604C126.701 99.0129 127.866 97.3943 128.406 95.0303ZM103.532 47.675C103.532 47.675 104.655 48.0862 106.049 49.6794C106.8 50.5359 107.551 51.5251 108.17 52.3401L108.316 52.5315L108.69 49.4995C108.149 48.7544 107.484 47.8806 106.61 46.9814C105.737 46.082 104.198 45.0801 103.532 44.6689V47.675ZM104.052 50.0903C104.052 50.0903 103.886 51.6836 104.281 55.1267C104.489 56.9766 104.863 58.7239 105.05 59.4946L107.005 58.364C106.984 58.2742 106.958 58.1663 106.927 58.0425C106.749 57.3174 106.437 56.0505 106.277 54.6897C106.007 52.5828 106.09 52.1204 106.09 52.1204C105.737 51.6577 104.676 50.3474 104.052 50.0903ZM109.688 79.9219C107.525 80.2046 105.986 78.0461 105.758 75.7593C105.633 74.5774 105.862 73.4468 106.402 72.5732C107.089 71.4426 108.087 70.8516 108.794 70.7488C109.668 70.6204 110.416 70.9287 110.895 71.2114C111.227 71.417 111.477 71.5454 111.581 71.4683C111.789 71.3398 111.789 71.0315 111.706 70.6462C111.581 70.158 111.29 69.6697 110.853 69.3357C110.333 68.9246 109.647 68.719 108.877 68.7446C106.61 68.8474 105.3 71.0571 105.03 71.571C105.008 71.4912 104.964 71.3772 104.887 71.2534C104.814 71.1382 104.713 71.0146 104.572 70.9031C104.115 70.5176 103.615 70.3635 103.47 70.5947C103.382 70.7036 103.443 70.8125 103.54 70.9844C103.557 71.0151 103.576 71.0479 103.595 71.083C103.74 71.3142 103.948 71.6482 104.094 72.1877C104.239 72.6504 104.198 73.2927 104.177 74.0122C104.156 74.8342 104.094 76.042 104.26 76.9927C104.718 79.5364 106.61 82.1316 109.439 82.2344C109.751 82.26 110.083 82.2087 110.375 82.106C111.664 81.6692 112.517 80.8213 113.099 79.9475C113.128 79.9651 113.166 79.9949 113.207 80.0369C113.226 80.0559 113.246 80.0776 113.266 80.1018C113.723 80.5642 114.68 81.5405 115.408 82.0288C115.595 81.2322 115.72 80.1018 115.72 79.5107C115.532 79.3567 114.389 78.3801 112.808 76.3503C111.477 74.6287 111.061 74.0635 111.061 74.0635C110.811 73.8066 109.959 72.9587 109.064 72.9072C108.253 72.8816 107.983 73.1128 107.962 73.1384L108.191 73.5496C108.214 73.585 108.261 73.6636 108.333 73.7856C108.524 74.106 108.893 74.7263 109.48 75.6565C110.312 76.967 111.331 78.1489 111.622 78.4829L111.747 78.6628C111.29 79.2539 110.624 79.7935 109.688 79.9219ZM89.0986 100.606C91.6151 100.092 93.6741 99.3469 96.3362 96.3665C99.2894 93.0774 100.392 88.3496 100.891 85.9602C101.577 82.5171 101.515 75.9648 101.515 75.9648V41.9709C101.515 41.9709 101.328 34.6736 101.744 32.8237C102.16 30.9736 103.054 29.6375 103.595 28.9438C104.801 27.4277 107.317 26.9138 107.317 26.9138C108.045 26.7598 108.212 26.323 108.149 25.8862C108.066 25.218 107.629 25.1667 107.629 25.1667L89.7017 25.1152C89.7017 25.1152 89.2441 25.218 89.1609 25.8604C89.0986 26.2974 89.265 26.7341 89.9929 26.8882C89.9929 26.8882 92.5302 27.3765 93.7157 28.9182C94.2564 29.6118 95.1507 30.948 95.5667 32.7981C95.9826 34.6223 95.7954 41.9453 95.7954 41.9453L95.4003 75.8621C95.4003 76.1206 95.4043 76.5339 95.4093 77.0515C95.4323 79.4153 95.4765 83.9509 95.2547 85.8059C94.8596 88.9407 94.2772 91.5872 92.7174 93.6428C91.1575 95.6982 89.7225 96.3665 87.6011 96.3665C85.4798 96.3665 84.0863 95.5698 82.5889 94.1052C81.0914 92.6406 78.2422 89.3262 78.2422 89.3262L80.9875 100.272C80.9875 100.272 86.3117 101.197 89.0986 100.606ZM73.3547 99.0645C73.6667 99.4241 75.2889 97.1628 76.2664 94.6191C77.2439 92.0498 77.4935 89.3774 77.1815 87.0137C77.0151 85.626 76.2872 83.699 75.8504 82.6199C76.9735 83.5449 78.2214 84.0845 79.1365 84.2642C81.7362 84.804 84.0863 84.9324 85.8126 84.4441C86.3601 84.2822 86.7761 84.113 87.0934 83.9841C87.6319 83.7654 87.8862 83.6621 88.0171 83.9045C88.2458 84.3413 87.2684 85.4976 84.1279 86.1143C80.8627 86.7566 78.8661 85.8315 78.8661 85.8315C78.8661 85.8315 78.9077 86.7053 80.0516 87.7844C80.5248 88.2439 80.9362 88.5547 81.304 88.8325C81.8413 89.2388 82.2854 89.5742 82.6929 90.1997C83.0626 90.7595 83.0903 91.3279 83.1095 91.7207C83.1238 92.0127 83.1333 92.2075 83.2752 92.2295C83.5001 92.2817 83.611 91.8528 83.7684 91.2439C83.8439 90.9519 83.9301 90.6184 84.0447 90.2769C84.3775 89.249 84.0863 88.2212 84.0863 88.2212C84.0863 88.2212 85.2718 89.4546 87.5596 89.1719C89.1609 88.9663 90.1177 88.6067 90.0137 88.1956C89.9617 88.0032 89.8126 87.9907 89.5004 87.9651C89.3125 87.9495 89.0655 87.9292 88.745 87.8616C87.8923 87.6816 87.5596 87.2449 87.5596 87.2449C87.5596 87.2449 88.953 86.6794 90.6792 85.2148C92.4054 83.7505 93.5285 81.8748 93.2789 81.4377C93.1054 81.1064 92.6328 81.3074 92.0424 81.5583C91.8545 81.6382 91.6547 81.7231 91.4487 81.7976C90.2424 82.2344 89.8057 82.2087 89.8057 82.2087C89.8057 82.2087 89.6809 82.0032 90.2217 81.2065C90.6053 80.6406 90.9725 80.3442 91.2366 80.1311C91.488 79.9282 91.6461 79.8008 91.6359 79.5879C91.6151 79.1511 90.492 78.6628 87.6011 80.2559C86.5613 80.8213 85.459 81.7205 85.459 81.7205C85.459 81.7205 85.8958 80.0503 86.0621 78.894C86.2285 77.7634 86.582 75.6565 86.2493 75.5024C86.0549 75.4124 86.0096 75.5063 85.8729 75.7896C85.7755 75.9912 85.6318 76.2888 85.355 76.6843C85.2491 76.832 85.1606 76.9622 85.0844 77.0742C84.8163 77.4685 84.7012 77.6379 84.5231 77.5579C84.3211 77.458 84.2847 77.1646 84.2391 76.7957C84.2142 76.5947 84.1866 76.3713 84.1279 76.1448C83.9615 75.5281 83.5456 74.6802 83.3792 74.8086C83.2219 74.9165 83.094 75.5779 82.9368 76.3906C82.7199 77.5122 82.4473 78.9216 81.965 79.5623C81.6946 79.9219 81.341 80.1531 80.9667 80.333C80.4052 80.6157 79.7812 80.7185 79.178 80.7185C78.4709 80.7185 77.7638 80.5642 77.1191 80.2559L77.0248 80.2104C76.3199 79.8699 75.1066 79.2842 74.3114 77.7122C74.3114 77.7122 74.2074 77.481 74.1866 77.481V77.4551C73.5003 77.3523 72.7932 77.1211 71.9404 76.6331C72.1693 77.481 72.5228 78.5601 72.7932 79.3567C73.7291 82.1572 75.0185 86.8594 73.7914 90.5593C72.3148 95.0046 68.8832 95.8525 68.5089 94.9019C68.3939 94.6179 68.7023 94.4351 69.2125 94.1326C70.0874 93.6135 71.5562 92.7424 72.502 90.4053C73.7083 87.3989 72.7932 83.6218 72.7932 83.6218C72.7932 83.6218 72.7932 86.8594 70.9006 89.0691C69.3327 90.8933 68.1659 90.7629 67.5388 90.6929C67.3091 90.6672 67.1519 90.6497 67.0738 90.7393C66.7618 91.1504 67.2817 91.4587 67.8017 91.7671C68.1345 91.947 68.7168 92.1267 68.7168 92.1267C68.7168 92.1267 68.1136 92.8206 67.2402 93.3601C67.0917 93.4541 66.955 93.5378 66.8306 93.614C66.2755 93.9543 65.9639 94.1455 65.9299 94.4392C65.9091 94.7219 67.053 96.1094 68.1345 96.7004C69.2159 97.2915 70.547 97.4456 70.547 97.4456C70.547 97.4456 70.651 97.4199 70.2974 98.1907C70.1647 98.4731 70.0293 98.6975 69.9173 98.8831C69.7134 99.2209 69.5869 99.4307 69.6943 99.6296C69.9647 100.092 70.235 100.015 71.7949 98.8074C73.3547 97.5999 73.7914 96.8289 73.7914 96.8289C73.7914 96.8289 73.7499 96.9832 73.5835 97.7539C73.5227 98.0261 73.4425 98.2332 73.3773 98.4014C73.2641 98.6936 73.1963 98.8687 73.3547 99.0645ZM75.1641 57.1309C74.8729 57.6189 74.3738 58.7495 74.249 59.803C74.7482 61.6016 75.3513 62.3467 75.7672 62.5522C76.1208 60.908 76.5159 59.2634 77.1399 57.7732C77.0359 57.6448 76.308 56.8738 75.1641 57.1309ZM72.3564 69.3101C72.4396 69.6184 73.937 70.8516 74.5193 70.9287C74.5193 70.9287 74.457 69.7212 74.665 68.6934C74.665 68.6934 73.4379 67.9995 72.6891 66.3809C72.4812 67.2288 72.3564 68.6677 72.3564 69.3101ZM68.7792 55.4863C68.6544 55.7947 68.5296 56.1543 68.384 56.6682C67.5521 59.5203 67.2817 60.8821 67.2817 63.8884C67.261 67.1772 68.0929 70.2092 69.6319 72.3933C71.0878 74.4746 73.0844 75.6824 75.2473 75.8108C78.3569 75.99 80.9913 73.6162 81.9968 72.7104L82.0065 72.7017C83.5456 71.3142 86.3741 67.6399 86.3949 67.6143L86.4365 67.5371L86.4781 67.6143C86.48 67.6167 86.4902 67.6362 86.5078 67.6699C86.676 67.9919 87.5252 69.6179 88.3915 70.1064C89.0986 70.5176 90.0137 70.3892 90.4088 70.2092C90.5544 70.1323 90.596 70.1064 90.596 70.0808C90.596 70.0552 90.492 69.9524 90.3881 69.8496L90.3737 69.8342C89.9315 69.3665 89.0346 68.4172 88.8906 66.6892C88.745 64.9163 91.6359 63.2717 93.7157 62.7837L93.7781 60.2913C93.5077 60.3169 92.239 60.4453 91.9687 60.5481C88.2709 61.8313 85.9219 64.6016 83.6367 67.2964L83.6288 67.3059C81.1954 70.1836 78.8869 72.9072 75.3097 72.9072H75.2265C73.8746 72.8816 72.5228 72.085 71.4413 70.6204C70.0479 68.7446 69.2576 66.1238 69.4031 63.76C69.5695 61.0107 70.3598 58.7495 71.7325 57.2336C72.814 56.0515 74.2074 55.3579 75.5801 55.3579H75.6633C76.7239 55.3835 77.8054 55.8975 78.6373 56.7454C79.3029 57.4133 80.0931 58.5955 80.1763 60.4709C80.2388 61.9355 79.8436 63.2974 79.1365 64.1196C78.9285 64.3767 77.7846 65.5586 75.9128 65.0447C75.0809 64.8135 74.3946 63.9399 74.0202 63.2205C73.7499 62.7065 73.5627 62.0898 73.3963 61.4731C73.3547 61.3191 73.2091 61.1648 73.0427 61.1904C72.8348 61.2163 72.71 61.5759 72.6684 62.1155C72.5644 63.76 73.4587 66.4321 75.7672 67.2031C79.5316 68.4622 81.445 65.019 81.861 63.5801C82.3185 62.0127 82.3393 61.1135 82.3393 61.1135C82.3393 61.062 82.3809 60.908 82.4641 60.8821C82.5681 60.8564 82.6513 60.9849 82.6929 61.0876C82.8801 61.4475 83.8575 62.167 84.6895 61.8843C85.5926 61.6052 85.9893 60.6506 86.3793 59.7119L86.3949 59.6746L86.4108 59.635C86.7585 58.7756 87.0921 57.9509 87.8091 57.8245C88.6618 57.6448 88.9322 57.7988 89.0986 57.9016L89.1054 57.9053C89.2045 57.9539 89.2478 57.9753 89.4105 57.8245C89.4788 57.7683 89.5098 57.6812 89.517 57.5928C89.5229 57.5198 89.5126 57.4458 89.4937 57.3877C89.3481 56.8225 88.4747 56.0002 87.31 56.0515C86.1805 56.0771 85.7607 56.5281 85.2898 57.0347L85.2718 57.0537L85.2028 57.1272C84.9335 57.4143 84.6501 57.7163 84.1903 57.9529C82.9216 58.6211 82.2977 58.3899 82.2769 58.3899H82.2561L82.2354 58.364C82.2145 58.3127 80.1348 52.8911 75.3929 52.8911H75.3513C72.8057 52.9165 71.3543 54.2437 70.8572 54.6982L70.8382 54.7156C70.7424 54.8042 70.6879 54.8503 70.6511 54.8687C70.6239 54.8821 70.6063 54.8806 70.5886 54.8696C70.5886 54.844 70.547 54.8184 70.5678 54.7668C70.6094 54.51 70.2766 52.9683 70.0479 52.3772C69.7775 51.6577 69.0704 51.2725 68.8416 51.2468C69.008 51.478 69.2783 52.3259 69.2159 53.4307C69.1744 54.3813 69.0287 54.7925 68.7792 55.4863ZM79.6148 25.9631C77.5142 24.9355 75.3097 25.1667 75.2889 25.1667C71.4413 25.5779 67.4897 29.1238 67.2817 36.1125C67.1154 42.9473 70.131 46.8271 73.0219 48.1633C76.5784 49.8079 78.5957 48.8572 78.6789 48.8057C78.7286 48.7903 78.7783 48.7935 78.8235 48.8147C78.8541 48.8291 78.8826 48.8518 78.9077 48.8828C78.9701 48.96 78.9701 49.0884 78.9285 49.1655L78.9077 49.1912C78.5957 49.6023 77.8262 50.6042 77.3895 51.3496C77.7222 51.4009 78.159 51.5808 78.4501 51.7349C78.9077 51.9919 79.0948 52.0947 79.282 52.2488C80.3427 50.2703 81.7986 48.4973 83.5872 47.0071C84.9807 45.8252 87.2476 44.7202 89.5145 44.0779L89.7641 44.0007L89.5769 44.1807C88.9114 44.823 88.433 45.5168 87.9963 46.4675C87.4348 47.6494 86.998 49.3452 87.1436 49.8335C87.1644 49.885 87.1852 49.885 87.1852 49.885C87.3932 49.9878 87.3932 49.9878 87.4764 49.8335C87.5015 49.7712 87.542 49.6995 87.6023 49.6069C87.6415 49.5469 87.6893 49.4778 87.7467 49.3967C87.9339 49.1655 88.1003 49.0369 88.2458 49.0369H88.2667C88.3915 49.0369 88.4954 49.114 88.5579 49.1912L88.5786 49.2168C88.6464 49.2837 88.6612 49.3726 88.6517 49.5261C88.6467 49.6079 88.6347 49.7083 88.6202 49.8335C88.537 50.5015 88.3915 51.7349 88.8906 52.7112C89.5562 54.0474 90.1592 54.9211 90.492 54.998C90.5544 54.998 90.5752 54.998 90.596 54.9724C90.6376 54.9468 90.7416 54.7668 90.6168 54.0217C90.492 53.1995 90.1801 50.4502 90.5336 48.4973C90.9496 46.1079 92.1974 43.7695 93.7573 43.7695H93.9028V41.5598C93.5909 41.5598 92.0103 41.4058 91.0952 40.198C90.6168 39.5557 90.3881 38.7334 90.4088 37.7314C90.4713 35.5986 91.2615 34.314 91.9271 33.4404C92.0311 33.3118 92.3638 32.875 92.2598 32.6182C92.1766 32.4126 92.0311 32.3098 91.8231 32.2842H91.7607C90.9911 32.2842 89.6809 33.4661 89.265 34.2368C88.7658 35.1619 88.4747 36.2925 88.4122 36.5237C88.3915 36.6008 88.3499 36.6521 88.2875 36.7036C88.1211 36.8064 87.726 36.7292 87.4348 36.3181C87.206 36.0098 87.206 35.3931 87.206 35.2646V35.0847C87.206 35.0847 87.1644 35.0591 87.1228 35.0591C87.0604 35.0591 86.9356 35.1106 86.8109 35.3418C86.5405 35.8813 86.7692 38.5278 87.6011 39.9668C87.805 40.3069 87.9838 40.6099 88.1426 40.8789C88.3079 41.1587 88.4514 41.4016 88.5786 41.6113L88.6411 41.7141L88.5579 41.7397C87.9339 41.8682 87.3307 42.0737 86.7692 42.3049C86.0162 42.6487 85.2373 43.0403 84.4631 43.4297C84.2538 43.5349 84.0448 43.6399 83.8367 43.7439H83.816C82.6721 44.335 81.4866 44.9258 80.3843 45.3625C77.1607 46.6216 74.5818 46.5188 72.9387 45.0801C71.3165 43.6411 69.3823 40.9688 69.4447 36.3696C69.4863 34.0056 70.3182 31.5391 71.6077 29.8945C72.7308 28.5071 74.145 27.762 75.684 27.762H75.8504C79.9268 27.8904 81.3203 31.0764 81.2786 33.7744C81.2371 36.3438 80.0931 38.0139 78.1797 38.2195C76.9319 38.3481 75.9544 37.3203 75.6633 36.241C75.4761 35.5474 75.4553 34.8792 75.4344 34.3396C75.4137 33.8 75.4137 33.3889 75.2473 33.2349C75.1849 33.1577 75.1225 33.1321 75.0393 33.1577C74.8729 33.209 74.665 33.4917 74.561 33.8516C74.1034 35.2646 74.145 36.832 74.6442 38.1938C75.2057 39.6584 76.7655 40.9946 78.6789 40.7119C80.6547 40.4036 82.1522 39.0417 82.9009 36.8064C83.3792 35.3418 83.4624 34.4683 83.4 33.5688C83.3954 33.5117 83.3918 33.4534 83.3881 33.3933C83.3751 33.1826 83.3607 32.9495 83.296 32.6694C83.2928 32.6575 83.2906 32.6455 83.2892 32.6335C83.2817 32.5691 83.2993 32.5073 83.3168 32.4639C83.3402 32.4351 83.3636 32.406 83.3906 32.3862C83.4117 32.3708 83.4351 32.3611 83.4624 32.3611C83.5248 32.3611 84.835 32.0527 85.6462 30.614C87.102 27.9932 86.5613 26.5542 86.3533 26.1687C86.1869 25.8347 85.9789 25.7319 85.9373 25.7576C85.8958 25.7834 85.8333 26.0918 85.7917 26.2715C85.6462 26.991 85.4174 28.0701 84.3151 28.4812C83.3742 28.8523 82.7224 28.2949 81.8959 27.5881L81.7986 27.5049H81.7778C81.1954 26.991 80.5299 26.4258 79.6148 25.9631Z" fill="#990000"/>
<path d="M98.7068 117.976C98.7484 117.976 98.7692 118.001 98.79 118.027C98.8107 118.053 98.8107 118.104 98.7484 118.13C98.5196 119.003 98.2284 120.571 98.1452 121.085C98.1452 121.136 98.1036 121.188 98.062 121.188H97.8956C97.8844 121.188 97.8732 121.18 97.8619 121.169C97.8524 121.16 97.8428 121.148 97.8333 121.136C97.8124 121.11 97.8124 121.059 97.8124 121.033C97.8333 120.93 97.8541 120.725 97.8541 120.571C97.8541 119.697 97.2301 119.466 92.5922 119.466V138.685C92.5922 141.281 92.9458 141.358 93.8401 141.538C93.8817 141.538 93.9233 141.589 93.9233 141.64V141.794C93.9233 141.82 93.9233 141.846 93.9025 141.872C93.892 141.885 93.8816 141.891 93.8712 141.894C93.8608 141.897 93.8505 141.897 93.8401 141.897C93.5073 141.872 92.6339 141.82 91.5524 141.82C90.7071 141.82 90.0478 141.855 89.5508 141.882C89.4486 141.888 89.3533 141.893 89.2646 141.897C89.2438 141.897 89.223 141.897 89.2022 141.872C89.1814 141.846 89.1814 141.82 89.1814 141.794V141.64C89.1814 141.618 89.1896 141.595 89.2023 141.577C89.2182 141.553 89.2414 141.538 89.2646 141.538C90.1797 141.358 90.5125 141.281 90.5125 138.685V119.466C86.4777 119.466 85.2506 119.491 84.4811 121.496C84.4603 121.547 84.4395 121.573 84.3979 121.573H84.2731C84.2523 121.573 84.2316 121.547 84.2108 121.521C84.1899 121.496 84.1899 121.444 84.1899 121.419C84.2939 120.828 84.4187 120.262 84.5643 119.646C84.6177 119.437 84.6672 119.224 84.7162 119.001C84.7818 118.704 84.8464 118.391 84.9178 118.053C84.9178 118.001 84.9595 117.976 85.001 117.976C90.8868 118.13 97.4589 118.001 98.7068 117.976Z" fill="#990000"/>
<path fill-rule="evenodd" clip-rule="evenodd" d="M98.603 130.155C98.603 124.194 102.159 118.027 108.149 118.027C113.349 118.027 117.425 123.32 117.446 130.052C117.446 136.733 113.265 141.949 107.941 141.949C102.097 141.949 98.603 135.962 98.603 130.155ZM107.92 140.998C112.205 140.998 114.867 136.887 114.867 130.258C114.867 121.907 111.144 118.952 107.92 118.952C102.929 118.952 101.161 124.939 101.161 130.052C101.161 136.913 103.678 140.998 107.92 140.998Z" fill="#990000"/>
<path d="M75.6839 122.344C75.6839 125.17 77.3893 126.609 79.1987 128.125L79.2676 128.184C81.2636 129.887 83.3169 131.638 83.3375 135.525C83.3375 139.379 81.1121 142.052 77.9301 142.052C77.0083 142.052 76.3488 141.877 75.7728 141.725L75.7463 141.718L75.6949 141.704C75.235 141.58 74.7902 141.46 74.2488 141.46C74.0825 141.46 74.0201 141.46 73.8745 141.486C73.8508 141.486 73.8339 141.486 73.8198 141.482C73.8092 141.478 73.8002 141.472 73.7913 141.46C73.7705 141.435 73.7705 141.384 73.7705 141.358C73.7913 141.204 73.7913 140.844 73.7913 140.561C73.7913 140.201 73.7705 139.893 73.7289 139.533C73.7081 139.174 73.6665 138.788 73.6665 138.377C73.6665 138.094 73.6873 137.144 73.9785 136.347C73.9839 136.334 73.9893 136.322 73.9951 136.312C74.0026 136.3 74.0106 136.29 74.02 136.283C74.0314 136.274 74.0449 136.27 74.0616 136.27H74.1448C74.1656 136.27 74.1865 136.27 74.2073 136.296C74.228 136.296 74.228 136.347 74.228 136.373V136.476C74.2072 136.707 74.1865 136.938 74.1865 137.144C74.1865 139.662 76.1414 140.998 78.0964 140.998C79.781 140.998 81.4865 139.713 81.4865 136.861C81.4865 133.829 79.7186 132.339 77.826 130.746L77.7534 130.684C75.8208 129.033 73.8329 127.336 73.8329 123.808C73.8329 120.417 75.8295 118.053 78.658 118.053C79.4426 118.053 80.0607 118.19 80.6172 118.313L80.619 118.314L80.7169 118.335C81.1745 118.438 81.6112 118.541 82.048 118.541C82.1935 118.541 82.3184 118.541 82.4639 118.515C82.5056 118.515 82.5263 118.515 82.5471 118.541C82.5679 118.567 82.5679 118.618 82.5679 118.644C82.5056 119.363 82.4847 119.928 82.4847 120.725C82.4847 121.188 82.4847 121.984 82.5056 122.447C82.5056 122.472 82.5056 122.498 82.4847 122.524C82.4639 122.549 82.4431 122.549 82.4224 122.549H82.2767C82.2352 122.549 82.1935 122.498 82.1935 122.447C81.8192 120.134 80.6129 118.901 78.6995 118.901C76.4742 118.901 75.6839 120.674 75.6839 122.344Z" fill="#990000"/>
<path fill-rule="evenodd" clip-rule="evenodd" d="M133.896 141.538C132.373 140.902 130.606 137.019 129.299 134.149L129.12 133.755C128.437 132.255 127.9 131.073 127.491 130.592C129.716 129.512 131.047 127.328 131.047 124.682C131.047 120.674 128.551 118.078 124.683 118.078C124.64 118.078 124.593 118.079 124.542 118.08C124.458 118.082 124.363 118.085 124.26 118.088H124.253C124.03 118.096 123.771 118.104 123.498 118.104C122.957 118.13 122.354 118.13 121.917 118.13C120.752 118.13 120.274 118.13 119.38 118.053C119.359 118.053 119.338 118.053 119.317 118.078C119.297 118.104 119.297 118.13 119.297 118.156V118.31C119.297 118.361 119.338 118.412 119.38 118.412C120.274 118.592 120.586 119.029 120.586 121.265V138.737C120.586 141.332 120.253 141.409 119.338 141.589C119.297 141.589 119.255 141.64 119.255 141.692V141.846C119.255 141.857 119.255 141.868 119.257 141.879C119.259 141.894 119.264 141.908 119.276 141.923C119.297 141.949 119.317 141.949 119.338 141.949C119.438 141.944 119.546 141.938 119.661 141.932C119.951 141.917 120.29 141.899 120.684 141.887C120.974 141.878 121.294 141.872 121.647 141.872C122.728 141.872 123.622 141.923 123.955 141.949C123.976 141.949 123.997 141.949 124.018 141.923C124.022 141.918 124.025 141.913 124.028 141.908C124.032 141.9 124.034 141.893 124.036 141.885L124.037 141.878L124.038 141.864L124.038 141.846V141.692C124.038 141.64 123.997 141.589 123.955 141.589C123.04 141.409 122.707 141.332 122.707 138.737V131.363H124.309C124.6 131.363 124.974 131.311 125.39 131.234C125.842 131.767 126.375 133.002 126.709 133.775L126.721 133.803C126.784 133.958 126.846 134.112 126.908 134.215C130.028 141.435 130.361 141.872 133.169 142C133.481 142 133.605 142 133.834 141.974C133.876 141.974 133.917 141.923 133.917 141.872V141.666C133.959 141.615 133.938 141.563 133.896 141.538ZM128.655 125.093C128.655 127.38 128.156 130.438 123.914 130.438H122.728V119.337C123.477 119.081 123.976 119.029 124.558 119.029C127.033 119.055 128.655 121.419 128.655 125.093Z" fill="#990000"/>
<path d="M71.4405 118.001C70.9205 118.027 69.9014 118.052 69.028 118.052C68.092 118.052 67.0521 118.027 66.5114 118.001C66.4906 118.001 66.4698 118.001 66.449 118.027C66.4364 118.042 66.4315 118.058 66.4295 118.073C66.4282 118.083 66.4282 118.094 66.4282 118.104V118.258C66.4282 118.309 66.4698 118.361 66.5114 118.361C67.4265 118.541 68.0297 118.669 68.0297 121.11V135.319C68.0297 137.991 66.9897 140.895 65.3259 140.895C65.014 140.895 64.7228 140.869 64.4524 140.818C63.2877 140.458 62.5598 139.456 62.1231 138.737C62.0982 138.696 62.0733 138.655 62.0497 138.614C62.0142 138.552 61.9817 138.49 61.9567 138.428C61.4783 137.529 61.2496 136.758 61.2496 136.732C61.2288 136.655 61.1664 136.63 61.104 136.63C61.0416 136.655 61 136.707 61 136.809L61.3951 140.535C61.3951 140.566 61.4027 140.597 61.4178 140.623C61.4278 140.639 61.441 140.653 61.4576 140.664C62.5598 141.537 63.9117 141.794 64.1613 141.82C64.598 141.897 64.9516 141.923 65.1595 141.923H65.4299C68.2168 141.923 70.0886 139.122 70.0886 134.959V121.11C70.0886 118.746 70.5365 118.62 71.4323 118.369L71.4612 118.361L71.5029 118.335C71.5444 118.335 71.5652 118.284 71.5652 118.232V118.078C71.5652 118.052 71.5652 118.027 71.5444 118.001H71.4405Z" fill="#990000"/>
<rect x="25" y="149" width="200" height="2" transform="rotate(-45 25 149)" fill="black"/>
</svg>
