<svg width="330" height="145" viewBox="0 0 330 145" fill="none" xmlns="http://www.w3.org/2000/svg">
<path d="M260.703 48.776C260.521 48.9893 260.255 49.1547 259.903 49.272C259.551 49.3893 259.193 49.448 258.831 49.448H258.319V47.672H258.639C259.247 47.6613 259.753 47.5067 260.159 47.208C260.575 46.9093 260.868 46.4667 261.039 45.88H262.671V57H260.703V48.776ZM269.294 57.24C267.854 57.24 266.74 56.728 265.95 55.704C265.172 54.68 264.782 53.2613 264.782 51.448C264.782 49.624 265.172 48.2 265.95 47.176C266.74 46.152 267.854 45.64 269.294 45.64C270.734 45.64 271.849 46.152 272.638 47.176C273.428 48.2 273.822 49.624 273.822 51.448C273.822 53.2613 273.428 54.68 272.638 55.704C271.849 56.728 270.734 57.24 269.294 57.24ZM269.294 55.672C270.116 55.672 270.74 55.304 271.166 54.568C271.604 53.832 271.822 52.792 271.822 51.448C271.822 50.0933 271.604 49.048 271.166 48.312C270.74 47.576 270.116 47.208 269.294 47.208C268.473 47.208 267.849 47.576 267.422 48.312C266.996 49.048 266.782 50.0933 266.782 51.448C266.782 52.792 266.996 53.832 267.422 54.568C267.849 55.304 268.473 55.672 269.294 55.672ZM279.396 57.24C277.956 57.24 276.842 56.728 276.052 55.704C275.274 54.68 274.884 53.2613 274.884 51.448C274.884 49.624 275.274 48.2 276.052 47.176C276.842 46.152 277.956 45.64 279.396 45.64C280.836 45.64 281.951 46.152 282.74 47.176C283.53 48.2 283.924 49.624 283.924 51.448C283.924 53.2613 283.53 54.68 282.74 55.704C281.951 56.728 280.836 57.24 279.396 57.24ZM279.396 55.672C280.218 55.672 280.842 55.304 281.268 54.568C281.706 53.832 281.924 52.792 281.924 51.448C281.924 50.0933 281.706 49.048 281.268 48.312C280.842 47.576 280.218 47.208 279.396 47.208C278.575 47.208 277.951 47.576 277.524 48.312C277.098 49.048 276.884 50.0933 276.884 51.448C276.884 52.792 277.098 53.832 277.524 54.568C277.951 55.304 278.575 55.672 279.396 55.672ZM289.305 49H291.129V50.392C291.374 49.88 291.716 49.4907 292.153 49.224C292.601 48.9467 293.113 48.808 293.689 48.808C294.329 48.808 294.889 48.984 295.369 49.336C295.86 49.6773 296.238 50.1627 296.505 50.792C296.772 51.4213 296.905 52.152 296.905 52.984C296.905 53.8267 296.766 54.568 296.489 55.208C296.212 55.848 295.822 56.3387 295.321 56.68C294.82 57.0213 294.244 57.192 293.593 57.192C293.049 57.192 292.574 57.0747 292.169 56.84C291.764 56.5947 291.449 56.264 291.225 55.848V60.12H289.305V49ZM293.033 55.72C293.609 55.72 294.062 55.48 294.393 55C294.734 54.5093 294.905 53.8373 294.905 52.984C294.905 52.1307 294.74 51.4693 294.409 51C294.089 50.52 293.636 50.28 293.049 50.28C292.462 50.28 292.004 50.504 291.673 50.952C291.342 51.3893 291.177 52.008 291.177 52.808V53.208C291.177 53.976 291.342 54.5893 291.673 55.048C292.014 55.496 292.468 55.72 293.033 55.72ZM298.485 49H300.405V57H298.485V49ZM298.389 45.672H300.469V47.672H298.389V45.672ZM304.442 52.856L301.738 49H303.93L305.162 50.952C305.396 51.336 305.54 51.608 305.594 51.768H305.61C305.674 51.576 305.812 51.304 306.026 50.952L307.21 49H309.354L306.698 52.888L309.594 57H307.402L305.978 54.84C305.732 54.4773 305.588 54.2 305.546 54.008H305.514C305.46 54.2 305.311 54.4773 305.066 54.84L303.642 57H301.546L304.442 52.856ZM317.176 53.48H311.56C311.571 54.152 311.768 54.6907 312.152 55.096C312.547 55.4907 313.059 55.688 313.688 55.688C314.147 55.688 314.542 55.576 314.872 55.352C315.203 55.128 315.459 54.7973 315.64 54.36L317.112 55.032C316.814 55.7253 316.36 56.2587 315.752 56.632C315.155 57.0053 314.446 57.192 313.624 57.192C312.398 57.192 311.438 56.8347 310.744 56.12C310.051 55.3947 309.704 54.3813 309.704 53.08C309.704 51.7573 310.04 50.7173 310.712 49.96C311.395 49.192 312.334 48.808 313.528 48.808C314.691 48.808 315.587 49.1387 316.216 49.8C316.856 50.4507 317.176 51.384 317.176 52.6V53.48ZM315.288 52.088C315.288 51.4373 315.134 50.9413 314.824 50.6C314.515 50.2587 314.072 50.088 313.496 50.088C312.888 50.088 312.419 50.2747 312.088 50.648C311.758 51.0213 311.582 51.544 311.56 52.216H315.288V52.088ZM320.822 57H318.902V45.4H320.822V57ZM326.039 57.192C325.122 57.192 324.338 57.0053 323.687 56.632C323.047 56.2587 322.599 55.72 322.343 55.016L323.783 54.376C323.964 54.824 324.247 55.1707 324.631 55.416C325.026 55.6613 325.506 55.784 326.071 55.784C326.551 55.784 326.919 55.6933 327.175 55.512C327.442 55.3307 327.575 55.0907 327.575 54.792C327.575 54.5147 327.484 54.3067 327.303 54.168C327.132 54.0293 326.839 53.928 326.423 53.864L324.999 53.608C324.252 53.4693 323.682 53.208 323.287 52.824C322.903 52.4293 322.711 51.912 322.711 51.272C322.711 50.536 323.004 49.944 323.591 49.496C324.178 49.0373 324.972 48.808 325.975 48.808C326.828 48.808 327.554 48.9733 328.151 49.304C328.759 49.624 329.159 50.072 329.351 50.648L328.023 51.368C327.82 50.9947 327.538 50.7067 327.175 50.504C326.823 50.3013 326.391 50.2 325.879 50.2C325.431 50.2 325.084 50.2853 324.839 50.456C324.594 50.616 324.471 50.8507 324.471 51.16C324.471 51.4267 324.556 51.6293 324.727 51.768C324.908 51.9067 325.18 52.008 325.543 52.072L327.111 52.36C327.868 52.4987 328.423 52.76 328.775 53.144C329.138 53.5173 329.319 54.024 329.319 54.664C329.319 55.432 329.026 56.0453 328.439 56.504C327.863 56.9627 327.063 57.192 326.039 57.192Z" fill="#DE3330"/>
<path d="M242 1H250V101H242" stroke="#DE3330"/>
<path d="M155.251 89.7197C153.437 88.4872 151.726 87.3174 151.726 85.0195C151.726 83.6617 152.519 82.2202 154.751 82.2202C156.67 82.2202 157.88 83.223 158.255 85.1031C158.255 85.1448 158.297 85.1866 158.339 85.1866H158.485C158.505 85.1866 158.526 85.1866 158.547 85.1657C158.568 85.1448 158.568 85.124 158.568 85.1031C158.547 84.727 158.547 84.0795 158.547 83.7034C158.547 83.0558 158.568 82.5963 158.631 82.0113C158.631 81.9905 158.631 81.9487 158.61 81.9278C158.589 81.9069 158.568 81.9069 158.526 81.9069C158.38 81.9278 158.255 81.9278 158.109 81.9278C157.671 81.9278 157.233 81.8442 156.774 81.7607C156.19 81.6562 155.543 81.5309 154.709 81.5309C151.872 81.5309 149.87 83.4528 149.87 86.2102C149.87 89.1139 151.914 90.4927 153.875 91.8505C155.773 93.1457 157.546 94.3573 157.546 96.8223C157.546 99.1411 155.835 100.186 154.146 100.186C152.185 100.186 150.224 99.0993 150.224 97.0521C150.224 96.885 150.245 96.697 150.266 96.509V96.4254C150.266 96.4045 150.266 96.3627 150.245 96.3627C150.224 96.3419 150.204 96.3419 150.183 96.3419H150.099C150.058 96.3419 150.037 96.3627 150.016 96.4045C149.724 97.0521 149.703 97.825 149.703 98.0548C149.703 98.3891 149.745 98.7024 149.766 98.9949C149.807 99.2873 149.828 99.538 149.828 99.8305C149.828 100.06 149.828 100.353 149.807 100.478C149.807 100.499 149.807 100.541 149.828 100.562C149.849 100.583 149.87 100.583 149.912 100.583C150.058 100.562 150.12 100.562 150.287 100.562C150.85 100.562 151.309 100.666 151.789 100.771C152.373 100.896 153.04 101.042 153.979 101.042C157.17 101.042 159.402 98.8695 159.402 95.736C159.381 92.5399 157.275 91.1194 155.251 89.7197Z" fill="#990000"/>
<path d="M191.024 91.4534C191.024 96.843 188.354 100.185 184.058 100.185C179.802 100.185 177.278 96.8638 177.278 91.2862C177.278 87.1292 179.051 82.2618 184.058 82.2618C187.291 82.2618 191.024 84.6641 191.024 91.4534ZM184.287 81.5098C178.28 81.5098 174.713 86.5233 174.713 91.3698C174.713 96.0909 178.217 100.958 184.078 100.958C189.418 100.958 193.611 96.7176 193.611 91.2862C193.59 85.8131 189.502 81.5098 184.287 81.5098Z" fill="#990000"/>
<path d="M204.853 87.2547C204.853 89.1139 204.352 91.5998 200.097 91.5998H198.908V82.5754C199.659 82.3665 200.16 82.3247 200.744 82.3247C203.226 82.3456 204.853 84.2675 204.853 87.2547ZM210.11 100.624C208.566 100.102 206.772 96.885 205.458 94.5453C204.707 93.2083 204.123 92.143 203.685 91.7252C205.917 90.8478 207.252 89.0721 207.252 86.9205C207.252 83.6617 204.749 81.5518 200.869 81.5518C200.598 81.5518 200.16 81.5727 199.68 81.5727C199.138 81.5936 198.533 81.5936 198.095 81.5936C196.927 81.5936 196.447 81.5936 195.55 81.5309C195.529 81.5309 195.508 81.5309 195.488 81.5518C195.467 81.5727 195.467 81.5936 195.467 81.6144V81.7398C195.467 81.7816 195.508 81.8233 195.55 81.8233C196.447 81.9696 196.76 82.3247 196.76 84.1421V98.3473C196.76 100.457 196.426 100.52 195.508 100.666C195.467 100.666 195.425 100.708 195.425 100.75V100.875C195.425 100.896 195.425 100.917 195.446 100.938C195.467 100.958 195.488 100.958 195.508 100.958C196.051 100.938 196.802 100.896 197.824 100.896C198.908 100.896 199.805 100.938 200.139 100.958C200.16 100.958 200.181 100.958 200.202 100.938C200.222 100.917 200.222 100.896 200.222 100.875V100.75C200.222 100.708 200.181 100.666 200.139 100.666C199.221 100.52 198.887 100.457 198.887 98.3473V92.3519H200.494C200.786 92.3519 201.161 92.3101 201.578 92.2474C202.037 92.6861 202.579 93.7097 202.913 94.3364C202.976 94.4617 203.038 94.5871 203.101 94.6706C206.23 100.541 206.564 100.896 209.379 101C209.692 101 209.817 101 210.047 100.979C210.089 100.979 210.13 100.938 210.13 100.896V100.729C210.172 100.687 210.151 100.645 210.11 100.624Z" fill="#990000"/>
<path d="M174.901 81.5102C174.88 81.4893 174.859 81.4684 174.817 81.4684C173.566 81.4893 166.974 81.5937 161.071 81.4684C161.03 81.4684 160.988 81.4893 160.988 81.5311C160.863 82.0115 160.758 82.4293 160.633 82.8262C160.487 83.3276 160.362 83.7872 160.258 84.2676C160.258 84.2885 160.258 84.3303 160.279 84.3512C160.3 84.3721 160.32 84.393 160.341 84.393H160.466C160.508 84.393 160.529 84.3721 160.55 84.3303C161.322 82.7009 162.552 82.68 166.599 82.68V98.3056C166.599 100.416 166.265 100.478 165.347 100.624C165.306 100.624 165.264 100.666 165.264 100.708V100.833C165.264 100.854 165.264 100.875 165.285 100.896C165.306 100.917 165.326 100.917 165.347 100.917C165.869 100.896 166.62 100.854 167.642 100.854C168.726 100.854 169.603 100.896 169.936 100.917C169.957 100.917 169.978 100.917 169.999 100.896C170.02 100.875 170.02 100.854 170.02 100.833V100.708C170.02 100.666 169.978 100.624 169.936 100.624C169.039 100.478 168.685 100.416 168.685 98.3056V82.68C173.336 82.68 173.962 82.868 173.962 83.5783C173.962 83.7036 173.941 83.8707 173.92 83.9543C173.92 83.9752 173.92 84.0169 173.941 84.0378C173.962 84.0587 173.983 84.0796 174.004 84.0796H174.171C174.212 84.0796 174.254 84.0378 174.254 83.9961C174.337 83.5783 174.63 82.304 174.859 81.5937C174.922 81.5728 174.922 81.531 174.901 81.5102Z" fill="#990000"/>
<path d="M147.471 81.4884C146.95 81.5093 145.928 81.5302 145.051 81.5302C144.113 81.5302 143.07 81.5093 142.528 81.4884C142.507 81.4884 142.486 81.4884 142.465 81.5093C142.444 81.5302 142.444 81.5511 142.444 81.572V81.6973C142.444 81.7391 142.486 81.7809 142.528 81.7809C143.445 81.9271 144.05 82.0315 144.05 84.0161V95.5682C144.05 97.7408 143.007 100.101 141.339 100.101C141.026 100.101 140.734 100.08 140.463 100.039C139.294 99.7462 138.564 98.9315 138.126 98.3466C138.064 98.263 138.001 98.1794 137.96 98.0959C137.48 97.3647 137.25 96.7381 137.25 96.7172C137.229 96.6545 137.167 96.6336 137.104 96.6336C137.042 96.6545 137 96.6963 137 96.7798L137.396 99.8089C137.396 99.8506 137.417 99.8924 137.459 99.9133C138.564 100.624 139.92 100.832 140.171 100.853C140.609 100.916 140.963 100.937 141.172 100.937C141.339 100.937 141.443 100.937 141.443 100.937C144.238 100.937 146.115 98.6599 146.115 95.2758V84.0161C146.115 82.0733 146.574 81.9898 147.492 81.7809L147.534 81.76C147.575 81.76 147.596 81.7182 147.596 81.6764V81.5511C147.596 81.5302 147.596 81.5093 147.575 81.4884C147.513 81.4884 147.492 81.4884 147.471 81.4884Z" fill="#990000"/>
<path d="M204.979 32.6482C204.353 33.066 203.686 33.1287 203.665 33.1287C203.644 33.1287 203.623 33.1496 203.623 33.1705C203.623 33.1914 203.623 33.2122 203.644 33.2331C203.665 33.254 205.354 34.7163 205.521 36.7009C205.709 38.7272 205.396 39.8552 204.374 40.8162C203.561 41.5891 202.372 41.6935 201.934 41.5891C201.829 41.5682 201.808 41.5473 201.808 41.5264C201.746 41.2757 202.121 41.0042 202.58 40.6908C202.685 40.6282 202.789 40.5446 202.893 40.4819C203.477 40.0641 203.79 39.3748 203.602 38.9987C203.54 38.8734 203.435 38.8525 203.31 38.8525C203.206 38.8525 203.102 38.8943 202.977 38.9361C202.747 38.9987 202.497 39.0823 202.372 38.9361C202.226 38.7899 202.288 38.6645 202.413 38.4138C202.518 38.2049 202.643 37.9543 202.664 37.5991C202.726 36.8262 202.622 34.7999 201.537 34.5701C201.496 34.5701 201.454 34.5701 201.412 34.591C201.308 34.6745 201.308 34.9252 201.308 35.3221C201.308 35.8444 201.287 36.5337 200.995 36.9933C200.536 37.7036 199.806 38.2467 199.472 38.2467C199.389 38.2467 199.347 38.2258 199.305 38.184C199.264 38.1214 199.285 37.9543 199.347 37.7036C199.472 37.1187 199.681 36.0324 199.368 34.0061C199.264 33.2958 198.826 32.5229 198.429 31.7917C198.033 31.0815 197.658 30.3921 197.574 29.8072C197.428 28.7209 197.553 28.2613 198.158 27.8018C198.513 27.5302 198.575 27.2795 198.575 27.1124C198.575 26.9453 198.492 26.6319 198.2 26.5275C198.179 26.5275 198.179 26.5275 198.158 26.5066C198.012 26.4648 197.762 26.4439 197.491 26.4439C196.343 26.4648 193.653 26.4857 191.755 23.8953C190.211 21.8064 190.107 19.8427 190.399 17.5239V17.503C190.399 17.4613 190.232 16.6048 189.502 15.9363C189.147 15.6229 188.793 15.4349 188.542 15.3096C188.396 15.226 188.229 15.1634 188.229 15.1007C188.229 15.1007 188.229 15.0589 188.271 15.038C188.459 14.85 189.105 14.5784 190.002 14.7038C190.67 14.8082 191.15 15.0798 191.15 15.0798C191.17 15.1007 191.191 15.0798 191.212 15.0589C191.233 15.038 192.985 12.9699 195.905 13.1997C197.658 13.325 199.326 15.038 199.368 16.8972C199.41 18.7564 198.554 19.7383 197.804 19.9889C197.199 20.1978 196.635 20.1769 196.302 19.9471C196.156 19.8427 196.051 19.6965 196.051 19.5294C196.051 19.3831 196.177 19.2996 196.427 19.1742C196.844 18.9653 197.491 18.6311 197.574 17.4613C197.616 16.8554 197.407 16.2496 197.011 15.8318C196.74 15.5394 196.26 15.1842 195.467 15.226C194.445 15.2678 193.611 15.6647 193.048 16.3959C192.339 17.315 192.088 18.7564 192.359 20.4067C192.756 22.8091 195.071 24.4803 197.616 24.2087C199.118 24.0625 200.515 23.206 201.579 21.8272C202.58 20.5321 203.164 18.8609 203.185 17.2524C203.227 13.2415 200.912 9.10529 195.613 8.89639C190.545 8.70838 187.395 11.8628 185.956 13.7428C185.059 14.9127 184.12 17.1479 183.432 18.9653C183.745 18.9027 184.725 18.7773 185.601 19.216C186.498 19.6547 187.541 20.741 187.353 21.2005C187.312 21.3259 187.04 21.2632 186.644 21.1588C186.123 21.0125 185.393 21.0543 184.579 21.1797C183.182 21.3677 182.618 21.6392 182.452 21.7855L182.535 21.5348C182.493 21.681 182.452 21.7855 182.452 21.7855L180.553 20.6156C180.825 19.4249 182.034 14.4322 185.059 11.1525C188.167 7.78922 191.901 6.68206 195.196 6.66117C196.99 6.64028 198.638 6.91184 199.994 7.22519C200.161 7.26697 200.307 7.28786 200.453 7.32964C201.746 7.6221 203.102 7.89367 204.061 7.64299C204.583 7.51765 205.021 7.30875 205.354 7.14163C205.563 7.03718 205.772 6.93273 205.813 6.95362C205.813 6.95362 205.834 6.97451 205.834 6.9954C205.876 7.2043 205.688 7.87278 205.083 8.68749C204.708 9.20973 204.228 9.50219 203.894 9.73198C203.581 9.91999 203.373 10.0662 203.373 10.2751C203.373 10.3796 203.477 10.5676 203.665 10.9018C204.249 11.9463 205.459 14.1398 205.313 17.2315C205.083 21.9735 202.831 23.9998 201.329 25.3576L201.141 25.5248H201.12C200.119 26.6737 200.244 27.7391 200.536 28.4076C200.974 29.4312 201.934 30.2877 203.164 30.7263C203.873 30.977 204.645 31.0606 205.208 31.1233C205.626 31.165 206.043 31.2068 206.085 31.3113C206.231 31.6455 205.834 32.1051 204.979 32.6482ZM205.167 49.0468C204.708 51.7416 203.185 52.8905 201.892 53.0577C201.788 53.0785 201.683 53.0785 201.6 53.0785C201.224 53.0785 200.932 52.9741 200.849 52.807C200.828 52.7443 200.807 52.6816 200.828 52.619C200.87 52.5145 201.016 52.4519 201.224 52.3892C201.475 52.3056 201.829 52.1594 202.205 51.8669C203.31 50.9896 203.248 50.6135 203.206 50.3211C203.206 50.2793 203.185 50.2584 203.164 50.2584C203.102 50.2166 202.935 50.3002 202.747 50.4046L202.664 50.4464C202.413 50.5718 202.184 50.5926 201.996 50.5091C201.892 50.4464 201.829 50.3629 201.808 50.2584C201.788 50.1331 201.934 50.0077 202.1 49.8406C202.246 49.7153 202.413 49.569 202.518 49.4019C203.081 48.5245 203.185 47.4592 202.747 46.6236C202.434 45.9969 201.975 45.4119 200.62 45.2866C200.599 45.2866 200.557 45.2866 200.536 45.2866H200.494C200.327 45.2866 200.14 45.3075 199.931 45.3493C198.429 45.6417 197.428 46.6445 196.761 47.7098C196.761 47.7307 196.74 47.7516 196.74 47.7516C195.822 49.1095 195.593 51.1985 195.53 51.5954V51.6163C195.238 53.5172 194.612 56.3374 190.628 61.2883C190.169 61.8523 189.815 62.667 190.044 63.5862C190.461 65.1738 191.984 65.32 191.963 65.4872C191.942 65.7169 191.629 65.7169 191.066 65.6752C190.503 65.6334 190.294 65.4454 190.294 65.4454C190.294 65.4454 190.148 65.8005 191.087 66.4899C191.796 67.0121 192.61 66.9912 192.631 67.221C192.651 67.4926 188.229 68.5162 187.958 64.0457C187.958 63.9413 187.937 63.8368 187.937 63.7324C183.161 68.1193 181.763 68.3282 181.409 67.8686C181.242 67.6388 181.701 67.7015 182.618 66.657C183.557 65.5916 183.578 65.1111 183.578 65.1111C183.578 65.1111 181.721 66.1139 179.552 65.9258C177.341 65.7169 175.485 64.1711 175.652 63.5653C175.777 63.043 177.091 63.9413 178.676 63.6906C180.136 63.4608 180.261 62.8759 180.261 62.8759C180.261 62.8759 179.969 62.8759 179.49 62.3746C179.01 61.8732 178.301 61.4554 178.697 61.0376C178.926 60.7869 180.032 61.2883 181.117 61.3092C182.493 61.3092 183.369 60.9958 183.369 60.9958C183.369 60.9958 182.806 60.7869 182.222 60.2229C181.638 59.638 181.513 59.0531 181.68 58.9068C181.784 58.8233 182.013 59.2829 182.785 59.2829C183.682 59.262 183.786 59.0531 183.786 59.0531C183.786 59.0531 183.411 58.6979 183.223 58.3637C183.056 58.0086 182.514 57.0058 182.848 56.6298C182.952 56.5045 183.974 57.7579 185.476 57.9041C188.063 58.1339 190.899 56.0867 190.899 56.0867C190.899 56.0867 189.502 57.7997 186.54 60.3691C184.642 61.9985 182.243 63.3355 182.389 63.6488C182.556 64.0249 184.433 63.5862 187.687 60.8705C188.73 59.9931 189.397 59.4291 190.816 57.6743C193.319 54.5826 193.882 51.1985 193.382 48.4828C193.173 47.4174 192.902 46.4564 192.568 45.6417C191.17 42.6336 189.669 41.1504 187.166 40.1895C184.934 39.333 183.223 40.1059 182.18 40.5864C181.659 40.8371 181.304 40.9833 181.158 40.7744C180.699 40.1268 181.617 39.2494 182.431 38.4765C183.474 37.4947 184.162 37.0978 184.35 37.0142C184.162 36.9306 183.494 36.5964 182.848 36.5546C182.514 36.5337 182.139 36.5964 181.805 36.6382C181.283 36.7217 180.866 36.7844 180.804 36.5128C180.699 35.9906 182.827 35.0506 183.974 34.6745C185.142 34.2985 186.081 34.2359 186.248 34.2359C186.227 33.9852 186.039 32.0215 186.248 29.1596C186.352 27.6555 186.644 26.611 186.853 26.0052C187.124 25.2323 187.437 24.71 187.708 24.5429C187.812 24.4803 187.937 24.4803 188.021 24.522C188.209 24.6265 188.209 25.0234 188.209 25.6083C188.209 25.9634 188.209 26.423 188.25 26.9035C188.375 28.3449 188.834 29.1387 189.105 29.3058C189.147 29.3267 189.189 29.3476 189.21 29.3267C189.314 29.2849 189.335 29.0969 189.377 28.8463C189.439 28.512 189.502 28.0315 189.794 27.4466C190.253 26.4648 191.17 25.3159 191.483 25.3994C191.567 25.4203 191.588 25.5248 191.588 25.671C191.567 26.1306 191.483 26.5275 191.421 26.9453C191.275 27.8226 191.108 28.8045 191.212 30.6428C191.337 33.3376 192.589 33.6927 192.756 33.7345C192.839 33.5883 193.444 32.5438 194.32 31.6037C194.508 31.4157 194.675 31.2068 194.862 31.0188C195.405 30.3921 195.843 29.9116 196.156 29.9116H196.177C196.26 29.9116 196.343 29.9743 196.385 30.0579C196.489 30.225 196.323 30.6637 196.031 31.3739C195.634 32.3558 195.029 33.8389 194.758 35.6564C194.258 39.145 194.758 42.5291 194.779 42.55L194.821 42.8007L194.737 42.5709C194.737 42.5709 194.445 41.7353 193.215 39.9388C192.672 39.1241 192.234 38.6436 191.817 38.184C191.296 37.5991 190.795 37.056 190.107 35.8862C189.314 34.5492 189.105 33.5465 188.98 32.878C188.876 32.314 188.813 32.0424 188.501 32.0006C188.459 32.0006 188.438 32.0215 188.396 32.0633C188.125 32.502 188.271 34.9461 189.022 36.3875C189.418 37.1604 189.898 37.7871 190.44 38.4974C191.004 39.2285 191.629 40.0432 192.401 41.2966C193.799 43.5736 194.487 45.2448 194.821 46.2475C194.904 46.4982 194.967 46.7071 195.029 46.8951C195.196 46.5609 195.467 46.164 195.551 46.0804C198.012 43.3647 200.161 43.1767 201.642 43.5319H201.662C202.726 43.7617 203.686 44.3883 204.353 45.3284C205.042 46.4147 205.375 47.7934 205.167 49.0468ZM204.624 62.7297C204.624 62.7506 204.604 62.7715 204.604 62.8132C204.061 64.7351 202.893 66.0512 201.266 66.5317C200.766 66.6779 200.286 66.7614 199.848 66.7614C198.763 66.7614 197.845 66.3436 196.865 65.7169C196.802 65.6961 196.26 65.6125 195.697 65.9258C195.405 66.093 195.217 66.281 195.071 66.4272C194.946 66.5525 194.862 66.6361 194.779 66.6152C194.758 66.6152 194.716 66.5734 194.696 66.5317C194.612 66.3228 194.612 65.7587 194.967 65.132C195.175 64.7351 195.426 64.4844 195.509 64.4218C195.405 64.1711 194.696 62.4372 195.593 60.5154C196.197 59.2202 197.783 58.5308 198.993 59.0322C200.202 59.5335 200.578 60.4736 200.536 61.1003C200.494 61.6225 200.307 62.0612 200.056 62.2492C199.931 62.3328 199.785 62.3537 199.681 62.3119C199.535 62.2492 199.514 62.0821 199.514 61.8732C199.493 61.5181 199.472 61.0167 198.805 60.6407C198.471 60.4527 198.075 60.4318 197.741 60.578C197.491 60.6825 197.157 60.9332 196.969 61.4763C196.719 62.2074 196.74 62.9177 197.053 63.5026C197.428 64.2338 198.221 64.7769 199.285 65.0276C200.849 65.4036 202.476 64.2338 202.997 62.3746C203.143 61.8105 203.227 61.1629 203.018 60.4736C202.601 59.0948 201.662 57.8414 199.389 56.7343C198.617 56.3583 197.011 55.648 196.385 55.3556C196.74 54.3528 196.781 54.0395 196.886 53.6844C197.094 53.3501 197.678 52.807 198.242 52.6608C198.888 52.5145 199.66 52.8279 199.639 52.9532C199.618 53.0785 198.763 53.2874 198.283 54.3946C198.471 54.4782 200.077 54.9169 201.454 55.8151C203.769 57.3192 204.416 58.9068 204.604 59.6171C204.937 60.7869 204.875 61.8732 204.624 62.7297ZM182.18 25.9426C180.783 24.6474 179.656 24.3131 179.656 24.3131V21.869C180.324 22.2033 181.867 23.018 182.744 23.7491C183.62 24.4803 184.287 25.1905 184.829 25.7963L184.454 28.2613C183.807 27.572 182.994 26.6946 182.18 25.9426ZM180.407 30.3712C180.011 27.572 180.178 26.2768 180.178 26.2768C180.804 26.4857 181.867 27.5511 182.222 27.9271C182.222 27.9271 182.139 28.3031 182.41 30.0161C182.598 31.3113 182.994 32.502 183.14 33.0033L181.179 33.9225C180.991 33.2958 180.616 31.8753 180.407 30.3712ZM181.888 47.1458C182.118 49.005 183.661 50.7598 185.831 50.53C186.769 50.4255 187.437 49.9868 187.896 49.5064L187.771 49.3601C187.478 49.0886 186.456 48.1276 185.622 47.0623C184.809 46.0178 184.412 45.4537 184.329 45.3493L184.099 45.015C184.12 44.9942 184.391 44.8061 185.205 44.827C186.102 44.8688 186.957 45.5582 187.207 45.7671C187.207 45.7671 187.624 46.2267 188.959 47.6263C190.545 49.2766 191.692 50.0704 191.88 50.1957C191.88 50.6762 191.755 51.5954 191.567 52.243C190.837 51.846 189.877 51.0522 189.418 50.6762C189.356 50.6135 189.293 50.5718 189.251 50.5509C188.667 51.2611 187.812 51.9505 186.519 52.3056C186.227 52.3892 185.893 52.431 185.58 52.4101C182.744 52.3265 180.845 50.2166 180.386 48.1485C180.22 47.3756 180.282 46.3938 180.303 45.7253C180.324 45.1404 180.366 44.6181 180.22 44.2421C180.074 43.8034 179.865 43.5319 179.719 43.3438C179.594 43.1558 179.49 43.0514 179.594 42.9469C179.74 42.7589 180.24 42.8843 180.699 43.1976C180.991 43.3856 181.117 43.6154 181.158 43.7408C181.429 43.323 182.744 41.5264 185.017 41.4429C185.789 41.422 186.477 41.5891 186.999 41.9233C187.437 42.1949 187.729 42.5918 187.854 42.9887C187.937 43.3021 187.937 43.5527 187.729 43.6572C187.624 43.7199 187.374 43.6154 187.04 43.4483C186.561 43.2185 185.81 42.9678 184.934 43.0723C184.225 43.1558 183.223 43.6363 182.535 44.5555C181.993 45.2657 181.763 46.1849 181.888 47.1458ZM172.439 63.8995C169.769 66.3228 167.704 66.9286 165.18 67.3464C162.385 67.8268 157.046 67.0748 157.046 67.0748L154.292 58.1757C154.292 58.1757 157.15 60.8705 158.652 62.0612C160.153 63.2519 161.551 63.8995 163.679 63.8995C165.806 63.8995 167.245 63.3564 168.81 61.6852C170.374 60.014 170.958 57.8623 171.355 55.3138C171.626 53.4755 171.501 48.3992 171.501 47.2294L171.897 19.6547C171.897 19.6547 172.085 13.7011 171.668 12.2179C171.25 10.7138 170.353 9.62753 169.811 9.06351C168.622 7.81011 166.077 7.4132 166.077 7.4132C165.347 7.28786 165.18 6.93273 165.243 6.57761C165.326 6.05536 165.785 5.9718 165.785 5.9718L183.766 6.01358C183.766 6.01358 184.204 6.05536 184.287 6.5985C184.35 6.95362 184.183 7.30875 183.453 7.43409C183.453 7.43409 180.929 7.85189 179.719 9.0844C179.177 9.64842 178.28 10.7347 177.863 12.2388C177.445 13.7428 177.633 19.6756 177.633 19.6756V47.3129C177.633 47.3129 177.696 52.6399 177.007 55.4391C176.507 57.3819 175.401 61.2256 172.439 63.8995ZM152.311 62.479C151.33 64.5471 149.703 66.3854 149.39 66.093C149.14 65.8423 149.453 65.6334 149.62 65.0276C149.787 64.4009 149.828 64.2755 149.828 64.2755C149.828 64.2755 149.39 64.9022 147.826 65.8841C146.262 66.8659 145.99 66.9286 145.719 66.5525C145.552 66.3019 145.949 66.0303 146.324 65.3827C146.679 64.756 146.574 64.7769 146.574 64.7769C146.574 64.7769 145.239 64.6516 144.155 64.1711C143.07 63.6906 141.923 62.5626 141.944 62.3328C141.985 62.0403 142.444 61.8732 143.258 61.4554C144.134 61.0167 144.739 60.4527 144.739 60.4527C144.739 60.4527 144.155 60.3065 143.821 60.1602C143.3 59.9096 142.778 59.6589 143.091 59.3246C143.383 59.0531 144.781 59.9931 146.929 57.9668C148.827 56.1703 148.827 53.5381 148.827 53.5381C148.827 53.5381 149.745 56.6089 148.535 59.0531C147.033 62.0612 144.217 62.0821 144.53 62.7088C144.906 63.4817 148.347 62.7924 149.828 59.1784C151.059 56.1703 149.766 52.3474 148.827 50.0704C148.556 49.4228 148.201 48.5454 147.972 47.8561C148.827 48.253 149.536 48.441 150.225 48.5245C150.225 48.5245 150.225 48.5245 150.225 48.5454C150.246 48.5454 150.35 48.7334 150.35 48.7334C151.184 50.0704 152.477 50.53 153.166 50.8015C153.812 51.0522 154.522 51.1776 155.231 51.1776C155.836 51.1776 156.461 51.094 157.025 50.8642C157.4 50.718 157.755 50.53 158.026 50.2375C158.86 49.3393 159.069 46.5818 159.444 46.3729C159.611 46.2684 160.028 46.9578 160.195 47.4592C160.362 47.9814 160.279 48.4828 160.592 48.6081C160.821 48.6917 160.946 48.441 161.426 47.8979C162.093 47.1249 161.989 46.8116 162.323 46.9369C162.657 47.0623 162.302 48.7752 162.135 49.6944C161.968 50.6344 161.53 51.9923 161.53 51.9923C161.53 51.9923 162.636 51.2611 163.679 50.8015C166.578 49.5064 167.704 49.9033 167.725 50.2584C167.746 50.6135 167.058 50.6762 166.307 51.5745C165.764 52.2221 165.89 52.3892 165.89 52.3892C165.89 52.3892 166.328 52.4101 167.537 52.0549C168.393 51.8043 169.144 51.4074 169.373 51.7625C169.623 52.1176 168.497 53.6426 166.766 54.8333C165.034 56.024 163.637 56.4836 163.637 56.4836C163.637 56.4836 163.971 56.8387 164.826 56.985C165.681 57.1312 166.015 57.0058 166.098 57.2565C166.203 57.5908 165.243 57.8832 163.637 58.0504C161.342 58.2801 160.153 57.2774 160.153 57.2774C160.153 57.2774 160.446 58.113 160.112 58.9486C159.757 59.8051 159.674 60.5989 159.34 60.5362C159.006 60.4945 159.403 59.6798 158.756 58.8859C158.068 58.0295 157.275 57.8414 156.107 56.9223C154.96 56.0449 154.918 55.3347 154.918 55.3347C154.918 55.3347 156.92 56.0867 160.195 55.5644C163.345 55.0631 164.325 54.123 164.096 53.7679C163.887 53.4546 163.366 53.8515 161.885 54.2066C160.153 54.6035 157.796 54.4991 155.189 54.0604C154.271 53.9141 153.02 53.4755 151.893 52.7234C152.331 53.6008 153.062 55.1675 153.228 56.2956C153.541 58.2175 153.291 60.39 152.311 62.479ZM150.287 34.1732C150.412 33.3167 150.913 32.3975 151.205 32.0006C152.352 31.7917 153.082 32.4184 153.187 32.5229C152.561 33.7345 152.165 35.0714 151.81 36.4084C151.393 36.2413 150.788 35.6355 150.287 34.1732ZM150.558 43.2185C149.974 43.1558 148.473 42.1531 148.389 41.9024C148.389 41.3802 148.514 40.2104 148.723 39.521C149.474 40.8371 150.704 41.4011 150.704 41.4011C150.496 42.2367 150.558 43.2185 150.558 43.2185ZM144.405 31.6246C144.551 31.2068 144.676 30.9144 144.801 30.6637C145.052 30.0996 145.198 29.7654 145.239 28.9925C145.302 28.0942 145.031 27.4048 144.864 27.2168C145.093 27.2377 145.803 27.5511 146.074 28.136C146.303 28.6165 146.637 29.8699 146.595 30.0788C146.574 30.1205 146.616 30.1414 146.616 30.1623C146.658 30.1832 146.7 30.1623 146.866 30.037C147.346 29.6818 148.806 28.5747 151.393 28.5538H151.435C156.19 28.5538 158.276 32.9616 158.297 33.0033L158.318 33.0242H158.339C158.36 33.0242 158.985 33.2122 160.258 32.6691C160.758 32.4602 161.05 32.1886 161.342 31.938C161.822 31.5202 162.239 31.1441 163.387 31.1233C164.555 31.0815 165.431 31.7499 165.577 32.2095C165.618 32.314 165.618 32.4811 165.493 32.5647C165.326 32.69 165.285 32.6691 165.18 32.6273C165.014 32.5438 164.742 32.4184 163.887 32.5647C163.157 32.6691 162.823 33.3585 162.469 34.0687C162.072 34.8417 161.676 35.6355 160.758 35.8653C159.924 36.0951 158.944 35.5101 158.756 35.2177C158.714 35.1341 158.631 35.0297 158.527 35.0506C158.443 35.0714 158.401 35.1968 158.401 35.2386C158.401 35.2386 158.38 35.9697 157.922 37.244C157.504 38.4138 155.585 41.2131 151.81 40.1895C149.495 39.5628 148.598 37.3902 148.702 36.0533C148.744 35.6146 148.869 35.3221 149.077 35.3012C149.244 35.2803 149.39 35.4057 149.432 35.531C149.599 36.0324 149.787 36.5337 150.058 36.9515C150.433 37.5365 151.122 38.2467 151.956 38.4347C153.833 38.8525 154.981 37.8916 155.189 37.6827C155.898 37.0142 156.295 35.907 156.232 34.7163C156.149 33.1914 155.356 32.2304 154.688 31.6873C153.854 30.9979 152.769 30.5801 151.706 30.5592C151.685 30.5592 151.643 30.5592 151.622 30.5592C150.246 30.5592 148.848 31.1233 147.763 32.0842C146.387 33.3167 145.594 35.155 145.427 37.3902C145.281 39.3121 146.074 41.4429 147.471 42.9678C148.556 44.1586 149.912 44.8061 151.268 44.827C151.289 44.827 151.309 44.827 151.351 44.827C154.939 44.827 157.254 42.6127 159.695 40.273C161.989 38.0796 164.346 35.8235 168.059 34.779C168.33 34.6954 169.603 34.591 169.874 34.5701L169.811 36.5964C167.725 36.9933 164.826 38.3303 164.972 39.7717C165.118 41.1922 166.036 41.9651 166.474 42.3411C166.578 42.4247 166.682 42.5083 166.682 42.5291C166.682 42.55 166.641 42.5709 166.495 42.6336C166.098 42.7798 165.18 42.8843 164.471 42.55C163.512 42.1113 162.573 40.5446 162.552 40.5237L162.511 40.461L162.469 40.5237C162.448 40.5446 159.611 43.5319 158.068 44.6599C157.066 45.3911 154.417 47.3338 151.289 47.1876C149.119 47.0831 147.117 46.1013 145.657 44.4092C144.113 42.6336 143.279 40.1686 143.3 37.4947C143.3 35.0506 143.571 33.9434 144.405 31.6246ZM151.33 6.01358C151.351 6.01358 153.562 5.82557 155.669 6.66117C156.587 7.03718 157.254 7.49676 157.838 7.91456H157.859C158.735 8.52037 159.403 9.02173 160.383 8.70838C161.488 8.37414 161.718 7.49676 161.864 6.91184C161.906 6.76562 161.968 6.51494 162.01 6.49405C162.052 6.47316 162.26 6.55672 162.427 6.82829C162.636 7.14163 163.178 8.31147 161.718 10.4422C160.904 11.6121 159.59 11.8628 159.528 11.8628C159.465 11.8628 159.423 11.9045 159.382 11.9463C159.361 11.9881 159.34 12.0508 159.361 12.1134C159.444 12.4059 159.444 12.6357 159.465 12.8446C159.528 13.5757 159.444 14.286 158.965 15.4767C158.214 17.2941 156.712 18.4013 154.73 18.652C152.811 18.8818 151.247 17.7955 150.684 16.6048C150.183 15.4976 150.141 14.2233 150.6 13.0744C150.704 12.7819 150.913 12.5521 151.08 12.5103C151.163 12.4895 151.226 12.5103 151.289 12.573C151.455 12.6984 151.455 13.0326 151.476 13.4713C151.497 13.91 151.518 14.4531 151.706 15.0171C151.998 15.8945 152.978 16.7301 154.23 16.6257C156.149 16.4585 157.296 15.1007 157.338 13.0117C157.379 10.8183 155.982 8.22791 151.893 8.12346C151.831 8.12346 151.789 8.12346 151.727 8.12346C150.183 8.12346 148.765 8.72927 147.638 9.85732C146.345 11.1943 145.511 13.1997 145.469 15.1216C145.406 18.8609 147.346 21.0334 148.973 22.2033C150.621 23.3731 153.208 23.4567 156.441 22.433C157.546 22.0779 158.735 21.5975 159.882 21.117H159.903C160.884 20.7201 161.885 20.3023 162.844 19.9471C163.407 19.7591 164.012 19.592 164.638 19.4876L164.722 19.4667L164.659 19.3831C164.409 19.0489 164.096 18.6102 163.679 18.0462C162.844 16.8763 162.615 14.7247 162.886 14.286C163.011 14.098 163.136 14.0562 163.199 14.0562C163.241 14.0562 163.282 14.0771 163.282 14.0771C163.282 14.098 163.282 14.2024 163.282 14.2233C163.282 14.3278 163.282 14.8291 163.512 15.0798C163.804 15.414 164.2 15.4767 164.367 15.3931C164.43 15.3514 164.471 15.3096 164.492 15.2469C164.555 15.0589 164.847 14.1398 165.347 13.3877C165.764 12.761 167.079 11.8001 167.85 11.8001C167.871 11.8001 167.892 11.8001 167.913 11.8001C168.122 11.821 168.268 11.9045 168.351 12.0717C168.455 12.2806 168.122 12.6357 168.017 12.7401C167.35 13.4504 166.557 14.4949 166.495 16.2287C166.474 17.0435 166.703 17.7119 167.183 18.2342C168.101 19.216 169.686 19.3413 169.999 19.3413V21.1379C169.957 21.1379 169.895 21.1379 169.853 21.1379C168.288 21.1379 167.037 23.0389 166.62 24.9816C166.265 26.5693 166.578 28.8045 166.703 29.4729C166.828 30.0788 166.724 30.225 166.682 30.2459C166.661 30.2668 166.641 30.2668 166.578 30.2668C166.244 30.2041 165.639 29.4938 164.972 28.4076C164.471 27.6137 164.617 26.611 164.701 26.0679C164.742 25.7754 164.763 25.6501 164.659 25.5665L164.638 25.5456C164.576 25.483 164.471 25.4203 164.346 25.4203C164.346 25.4203 164.346 25.4203 164.325 25.4203C164.179 25.4203 164.012 25.5248 163.825 25.7128C163.679 25.8799 163.595 25.9843 163.553 26.0679C163.47 26.1932 163.47 26.1932 163.261 26.1097C163.261 26.1097 163.241 26.1097 163.22 26.0679C163.074 25.671 163.512 24.2923 164.075 23.3313C164.513 22.5584 164.993 21.9944 165.66 21.4721L165.848 21.3259L165.598 21.3886C163.324 21.9108 161.05 22.8091 159.653 23.77C157.859 24.9816 156.399 26.423 155.335 28.0315C155.147 27.9062 154.96 27.8226 154.501 27.6137C154.209 27.4884 153.771 27.3422 153.437 27.3004C153.875 26.6946 154.647 25.8799 154.96 25.5456L154.981 25.5248C155.022 25.4621 155.022 25.3576 154.96 25.295C154.897 25.2323 154.814 25.2114 154.73 25.2323C154.647 25.2741 152.623 26.047 149.057 24.71C146.157 23.6238 143.133 20.4694 143.3 14.9127C143.508 9.23062 147.471 6.34782 151.33 6.01358ZM138.836 71.9839H209.61V1H138.836V71.9839Z" fill="#990000"/>
<path fill-rule="evenodd" clip-rule="evenodd" d="M95.6665 46.9441C95.6964 46.9441 96.6537 46.8545 97.5511 46.2568C98.7776 45.4802 99.346 44.823 99.1366 44.3452C99.0768 44.1958 98.4785 44.136 97.8802 44.0762L97.8475 44.0725C97.0428 43.9832 95.9521 43.8623 94.9486 43.5088C93.1836 42.8813 91.8076 41.6565 91.1794 40.1929C90.7606 39.2368 90.5811 37.7134 92.017 36.0703H92.0469L92.3161 35.8315L92.3311 35.8184C94.4849 33.8762 97.7015 30.9763 98.0298 24.2109C98.2392 19.7898 96.5042 16.6533 95.6665 15.1597C95.3973 14.6816 95.2477 14.4128 95.2477 14.2634C95.2477 13.9646 95.5469 13.7556 95.9956 13.4868L96.1567 13.3774C96.6204 13.0645 97.2201 12.6597 97.7007 11.9932C98.5683 10.8281 98.8375 9.87207 98.7776 9.57349C98.7776 9.54346 98.7477 9.51367 98.7477 9.51367C98.6879 9.48389 98.3888 9.63306 98.0896 9.78247C97.611 10.0215 96.9828 10.3203 96.2349 10.4995C94.8589 10.8579 92.9144 10.4697 91.0597 10.0513C90.9428 10.0181 90.8259 9.9939 90.7039 9.96875C90.6072 9.94897 90.5073 9.92847 90.4016 9.9021C88.4572 9.45386 86.0939 9.06567 83.5212 9.09546C78.7947 9.12524 73.44 10.7085 68.9828 15.5181C64.6452 20.208 62.9101 27.3477 62.5212 29.0503L65.2435 30.7231C65.4828 30.5142 66.2905 30.1257 68.2947 29.8569C69.4614 29.6777 70.5084 29.6179 71.2563 29.8271C71.8246 29.9763 72.2136 30.0659 72.2734 29.8867C72.5426 29.2295 71.0469 27.6763 69.7606 27.0488C68.5042 26.4216 67.0982 26.6008 66.6494 26.6904C67.6366 24.0916 68.9828 20.895 70.2691 19.2222C72.3332 16.5337 76.8503 12.0229 84.1195 12.2917C91.7178 12.5906 95.0383 18.5054 94.9785 24.241C94.9486 26.541 94.111 28.9309 92.6751 30.783C91.1494 32.7546 89.1452 33.9792 86.9913 34.1885C83.3417 34.5767 80.0212 32.187 79.4529 28.7517C79.064 26.3916 79.4229 24.3306 80.44 23.0161C81.2477 21.9705 82.4443 21.4031 83.9101 21.3433C85.0469 21.2834 85.7349 21.7913 86.1238 22.2095C86.6922 22.8069 86.9913 23.6733 86.9315 24.5396C86.8118 26.2124 85.8845 26.6904 85.2862 26.9893C84.9272 27.1685 84.7477 27.2878 84.7477 27.4971C84.7477 27.7358 84.8973 27.9451 85.1067 28.0945C85.5854 28.4231 86.393 28.4529 87.2606 28.1541C88.3375 27.7957 89.564 26.3916 89.5042 23.7329C89.4443 21.0745 87.0511 18.6248 84.5383 18.4456C80.3503 18.1169 77.8375 21.0745 77.8076 21.1042C77.793 21.1189 77.7784 21.1335 77.7638 21.1411C77.7485 21.1489 77.7332 21.1494 77.7178 21.134C77.7178 21.134 77.0298 20.7458 76.0725 20.5964C74.7862 20.4172 73.8589 20.8054 73.5896 21.0745C73.5298 21.1042 73.5298 21.1641 73.5298 21.1641C73.5298 21.2295 73.6577 21.2949 73.8083 21.3721C73.8637 21.4004 73.9222 21.4304 73.9785 21.4626C74.3375 21.6418 74.846 21.9109 75.3546 22.3589C76.4016 23.3147 76.6409 24.5396 76.6409 24.5994V24.6292C76.2221 27.9451 76.3717 30.7532 78.5854 33.7402C81.3076 37.4446 85.1665 37.4146 86.8118 37.3848C87.2007 37.3848 87.5597 37.4146 87.7691 37.4744C87.799 37.5044 87.799 37.5044 87.8289 37.5044C88.2477 37.6536 88.3674 38.1018 88.3674 38.3408C88.3674 38.5796 88.2776 38.9382 87.7691 39.3264C86.9016 39.9836 86.7221 40.6409 86.9315 42.1943C87.0511 43.0308 87.5896 44.0166 88.158 45.0322L88.2596 45.2188C88.7992 46.2083 89.3634 47.2434 89.5042 48.1987C89.9529 51.0962 89.6537 52.6497 89.4742 53.4861C89.3845 53.8445 89.3546 54.0835 89.4144 54.1731C89.4742 54.2329 89.5341 54.2627 89.6537 54.2627C90.1324 54.2627 91.1794 53.4861 91.8375 52.4705C92.2563 51.8132 92.2862 50.8274 92.2862 50.0806C92.2862 49.5132 92.2862 49.1545 92.4358 49.0352C92.4956 49.0051 92.5554 49.0051 92.6153 49.0051C94.1708 49.3337 94.3204 52.2314 94.2307 53.3367C94.2007 53.8445 94.0212 54.2031 93.8717 54.5017C93.6922 54.8604 93.6024 55.0396 93.8118 55.2485C93.9784 55.4426 94.2994 55.3535 94.6076 55.2683L94.6794 55.2485L94.7575 55.2222C94.9033 55.1726 95.0306 55.1292 95.158 55.1292C95.3375 55.1292 95.4871 55.1589 95.5768 55.3381C95.846 55.876 95.3973 56.8618 94.5597 57.4592C94.4583 57.52 94.3569 57.5945 94.2555 57.6641C94.2073 57.697 94.1591 57.729 94.111 57.7578C93.4529 58.2061 92.9144 58.5942 93.0042 58.9529C93.0042 58.9827 93.0341 59.0125 93.1836 59.0425C93.8118 59.1919 95.517 59.0425 96.6837 57.937C98.1494 56.563 98.5982 54.95 98.3289 52.0522C98.0973 49.3057 95.8202 47.2588 95.6468 47.1028L95.6366 47.0935C95.6067 47.0635 95.6067 47.0337 95.6067 47.0037C95.6067 46.9739 95.6366 46.9441 95.6665 46.9441ZM65.2435 30.7231C65.2435 30.7231 65.2699 30.657 65.3052 30.5513C65.323 30.498 65.3431 30.4348 65.3631 30.3647L65.2435 30.7231ZM93.1238 75.4424C94.9785 75.2034 97.1623 73.5605 97.8204 69.707C98.1195 67.9146 97.6409 65.9429 96.6537 64.3896C95.6965 63.0454 94.3204 62.1492 92.7947 61.8206H92.7648C90.6409 61.3127 87.5597 61.5815 84.0298 65.4651C83.9101 65.5845 83.5212 66.1521 83.2819 66.6301C83.2404 66.5059 83.199 66.3752 83.1545 66.2354C83.1028 66.0725 83.0471 65.897 82.9828 65.7041C82.5042 64.27 81.517 61.8804 79.5127 58.6243C78.4059 56.8318 77.5084 55.6667 76.7007 54.6213L76.6868 54.603C75.9148 53.595 75.2315 52.7029 74.6665 51.6042C73.5896 49.543 73.3802 46.0479 73.7691 45.4204C73.8289 45.3608 73.8589 45.3308 73.9187 45.3308C74.3674 45.3906 74.4571 45.7791 74.6067 46.5854C74.7862 47.5415 75.0854 48.9753 76.2221 50.8872C77.1674 52.489 77.8658 53.269 78.58 54.0669L78.6751 54.1731C79.2734 54.8303 79.9016 55.5173 80.6794 56.6824C82.4443 59.2515 82.8631 60.4465 82.8631 60.4465L82.9828 60.7751L82.9229 60.4165C82.893 60.3867 82.1751 55.5474 82.893 50.5586C83.277 47.9927 84.1275 45.8926 84.696 44.4888L84.7178 44.4348C85.1366 43.4189 85.3759 42.7917 85.2264 42.5527C85.1665 42.4333 85.0469 42.3438 84.9272 42.3438H84.8973C84.4486 42.3438 83.8204 43.0308 83.0426 43.927C82.9077 44.0618 82.7803 44.2039 82.653 44.3459C82.5261 44.4875 82.3992 44.6292 82.2648 44.7634C81.0084 46.1077 80.1409 47.6013 80.0212 47.8103C79.7819 47.7505 77.9871 47.2427 77.8076 43.3892C77.6592 40.7822 77.8934 39.3799 78.1015 38.1333L78.1067 38.1018C78.1292 37.9524 78.1535 37.8049 78.1778 37.6575C78.2507 37.2151 78.3236 36.7725 78.346 36.2795C78.346 36.1174 78.328 35.9912 78.2642 35.9287C78.2457 35.9106 78.2233 35.8979 78.1964 35.8911C77.7477 35.7717 76.4315 37.4146 75.7734 38.8186C75.4008 39.5627 75.2887 40.1887 75.2053 40.6541L75.1751 40.8201L75.1595 40.915C75.1089 41.2256 75.0718 41.4529 74.9358 41.5073C74.9059 41.5371 74.846 41.5073 74.7862 41.4773C74.3973 41.2383 73.7392 40.1033 73.5597 38.042C73.4999 37.355 73.4999 36.6978 73.4999 36.1899C73.4999 35.3535 73.4999 34.7859 73.2307 34.6365C73.111 34.5767 72.9315 34.5767 72.7819 34.6665C72.393 34.9053 71.9443 35.6521 71.5554 36.7576C71.2563 37.6238 70.8375 39.1174 70.6879 41.2683C70.4005 45.2007 70.6378 47.947 70.6833 48.4739L70.6879 48.5273C70.4486 48.5273 69.1024 48.6169 67.4272 49.1545C65.7819 49.6924 62.7307 51.0366 62.8802 51.7834C62.9699 52.1716 63.5682 52.082 64.3161 51.9626C64.7947 51.9028 65.3332 51.8132 65.8118 51.843C66.7392 51.9028 67.6964 52.3809 67.9657 52.5002C67.6964 52.6199 66.7093 53.1875 65.2135 54.5913C64.0469 55.6968 62.7307 56.9514 63.3888 57.8774C63.5981 58.176 64.1067 57.967 64.8546 57.6086C66.3503 56.9214 68.8033 55.8162 72.0042 57.041C75.5939 58.415 77.7477 60.5361 79.752 64.8376C80.2307 66.0027 80.6195 67.377 80.9187 68.9004C81.6366 72.7837 80.8289 77.623 77.2392 82.0442C75.205 84.5537 74.2477 85.3601 72.752 86.6147C68.0853 90.4983 65.393 91.1255 65.1537 90.5879C65.04 90.3445 66.0027 89.6694 67.3422 88.7302C68.4692 87.9399 69.8629 86.9626 71.1067 85.8979C75.3546 82.2236 77.3589 79.7739 77.3589 79.7739C77.3589 79.7739 73.2905 82.7014 69.5811 82.3728C68.0954 82.2288 66.9371 81.3313 66.3123 80.8469C66.0313 80.6292 65.8582 80.4951 65.8118 80.5508C65.3791 81.0369 65.9734 82.2556 66.2682 82.8601C66.2995 82.9243 66.3274 82.9814 66.3503 83.03C66.6195 83.5081 67.158 84.0159 67.158 84.0159C67.158 84.0159 67.0084 84.3147 65.7221 84.3445C65.0013 84.3445 64.6103 84.0657 64.3839 83.9043C64.2628 83.8179 64.1888 83.7651 64.1366 83.8069C63.8973 84.0159 64.0768 84.8523 64.9144 85.6887C65.752 86.4954 66.5597 86.7939 66.5597 86.7939C66.5597 86.7939 65.3033 87.2422 63.3289 87.2422C62.6132 87.2283 61.8912 87.0691 61.2881 86.936C60.5804 86.78 60.0365 86.6602 59.8589 86.8538C59.4185 87.3167 59.9297 87.7795 60.5023 88.2979C60.6688 88.4485 60.8406 88.604 60.9956 88.7656C61.6836 89.4827 62.1024 89.4827 62.1024 89.4827C62.1024 89.4827 61.9229 90.3191 59.8289 90.6477C58.6566 90.8325 57.5876 90.5806 56.8025 90.3953C56.0652 90.2214 55.5782 90.1064 55.4913 90.4683C55.252 91.3347 57.9144 93.5452 61.0853 93.844C64.1964 94.1128 66.8589 92.679 66.8589 92.679C66.8589 92.679 66.8289 93.366 65.4828 94.8894C64.7943 95.6707 64.2858 96.0188 63.9917 96.2202C63.7236 96.4038 63.6336 96.4653 63.7477 96.6221C64.2563 97.2793 66.2606 96.9805 73.111 90.7073C73.111 90.8567 73.1409 91.0061 73.1409 91.1555C73.5298 97.5481 79.8717 96.0845 79.8418 95.696C79.828 95.5452 79.5748 95.47 79.2064 95.3604C78.7723 95.2312 78.1783 95.0544 77.6281 94.6506C76.2819 93.6648 76.4913 93.157 76.4913 93.157C76.4913 93.157 76.7905 93.4258 77.5982 93.4856C78.4059 93.5452 78.8546 93.5452 78.8845 93.2166C78.8923 93.1543 78.7495 93.094 78.5234 92.9985C77.8829 92.7283 76.5746 92.1763 76.1324 90.4983C75.8033 89.1838 76.3118 88.0188 76.9699 87.2122C82.6836 80.1326 83.5811 76.0996 83.9999 73.3813V73.3513C84.0075 73.3032 84.0168 73.2378 84.0283 73.157C84.1524 72.2852 84.5302 69.6321 85.7349 67.8547C85.7349 67.8547 85.7648 67.825 85.7648 67.7952C86.7221 66.2715 88.158 64.8376 90.3118 64.4194C90.611 64.3596 90.8802 64.3298 91.1195 64.3298H91.1794H91.299C93.2435 64.509 93.9016 65.3455 94.3503 66.2417C94.9785 67.4365 94.8289 68.9602 94.0212 70.2148C93.8717 70.4539 93.6324 70.6628 93.4229 70.842C93.1836 71.0811 92.9742 71.2603 93.0042 71.4395C93.0261 71.5491 93.0802 71.6426 93.1665 71.72C93.1979 71.748 93.2335 71.7742 93.2734 71.7981C93.5426 71.9175 93.8717 71.8877 94.2307 71.7085L94.3503 71.6487C94.6195 71.4993 94.8589 71.3799 94.9486 71.4395C94.9785 71.4395 95.0084 71.4695 95.0084 71.5291L95.0097 71.5378C95.0695 71.9551 95.1467 72.4941 93.5725 73.7397C93.0341 74.158 92.5255 74.3669 92.1665 74.4866C91.8674 74.5762 91.658 74.6658 91.5982 74.8152C91.5757 74.8826 91.587 74.95 91.6067 75.0173C91.6132 75.0396 91.6206 75.0618 91.6281 75.084C91.7477 75.323 92.1665 75.4724 92.705 75.4724C92.8246 75.4724 92.9742 75.4724 93.1238 75.4424ZM97.0127 89.3931C97.0127 89.3333 97.0426 89.3032 97.0426 89.2734C97.4016 88.0486 97.4913 86.4954 97.0127 84.8225C96.7435 83.8069 95.8161 81.5364 92.4956 79.3857C90.8761 78.332 89.0353 77.7207 88.2772 77.4688C88.1111 77.4136 87.997 77.3757 87.9486 77.3542C88.4504 76.1995 89.2387 75.728 89.6403 75.488C89.7892 75.3989 89.8849 75.3418 89.893 75.2932C89.9229 75.1138 88.8161 74.6658 87.8888 74.875C87.0811 75.084 86.2435 75.8606 85.9443 76.3386C85.7947 76.8464 85.7349 77.2947 85.2264 78.7285C85.5607 78.8843 86.0902 79.123 86.6802 79.3892C87.674 79.8372 88.8396 80.3625 89.5341 80.7C92.7947 82.2832 94.1409 84.0757 94.7392 86.0471C95.0383 87.033 94.9187 87.959 94.7093 88.7656C93.9614 91.4243 91.6281 93.0972 89.3845 92.5593C87.8589 92.2009 86.7221 91.4243 86.1836 90.3787C85.7349 89.5422 85.705 88.5266 86.064 87.4812C86.3332 86.7043 86.8118 86.3459 87.1708 86.1965C87.6494 85.9875 88.2178 86.0173 88.6964 86.2861C89.6413 86.8171 89.6827 87.5222 89.7124 88.0288L89.7136 88.0486C89.7136 88.3474 89.7435 88.5864 89.9529 88.676C90.1024 88.7358 90.3118 88.7058 90.4913 88.5864C90.8503 88.3176 91.1195 87.6902 91.1794 86.9434C91.2392 86.0471 90.7007 84.7029 88.9657 83.9861C87.2307 83.269 84.9572 84.2549 84.0896 86.1069C82.8033 88.8552 83.8204 91.3347 83.97 91.6931C83.8503 91.7827 83.4913 92.1411 83.1922 92.7087C82.6836 93.605 82.6836 94.4116 82.8033 94.7102C82.8332 94.77 82.893 94.8298 82.9229 94.8298C83.0426 94.8596 83.1623 94.7402 83.3418 94.5608C83.5511 94.3518 83.8204 94.083 84.2392 93.844C85.0469 93.3958 85.8247 93.5154 85.9144 93.5452C87.3204 94.4414 88.6366 95.0388 90.1922 95.0388C90.8204 95.0388 91.5084 94.9194 92.2264 94.7102C94.5597 94.0232 96.2349 92.1411 97.0127 89.3931ZM61.2349 34.3379C61.2349 34.3379 62.8503 34.8157 64.8546 36.668C65.9359 37.6646 67.0173 38.8152 67.9081 39.7634L68.1153 39.9836L68.6537 36.4587C67.8759 35.5925 66.9187 34.5767 65.6623 33.5312C64.4059 32.4856 62.1922 31.3206 61.2349 30.8428V34.3379ZM61.9828 37.1458C61.9828 37.1458 61.7435 38.9978 62.3118 43.0007C62.611 45.1516 63.1494 47.1831 63.4187 48.0791L66.2307 46.7649C66.2 46.6597 66.1615 46.5334 66.1175 46.3887C65.861 45.5454 65.4134 44.0737 65.1836 42.4929C64.7947 40.0435 64.9144 39.5059 64.9144 39.5059C64.4059 38.968 62.8802 37.4446 61.9828 37.1458ZM70.0896 71.8279C66.9785 72.1565 64.7648 69.6472 64.4358 66.9885C64.2563 65.6143 64.5853 64.3 65.3631 63.2844C66.3503 61.97 67.7862 61.283 68.8033 61.1633C70.0597 61.0139 71.1366 61.3726 71.8246 61.7012C72.3033 61.9399 72.6623 62.0894 72.8118 61.9998C73.111 61.8503 73.111 61.4919 72.9913 61.0439C72.8118 60.4763 72.393 59.9087 71.7648 59.5203C71.017 59.0425 70.0298 58.8035 68.9229 58.8333C65.6623 58.9529 63.7776 61.5217 63.3888 62.1194C63.3289 61.9399 63.1494 61.6116 62.7307 61.3425C62.0725 60.8945 61.3546 60.7153 61.1452 60.9841C61.0182 61.1108 61.1067 61.2375 61.2461 61.4373C61.271 61.4729 61.2975 61.511 61.3246 61.5518C61.5341 61.8206 61.8332 62.209 62.0426 62.8362C62.2281 63.3127 62.2023 63.9534 62.1732 64.675L62.1623 64.9573L62.1496 65.3193C62.1155 66.2458 62.0713 67.4497 62.2819 68.4224C62.94 71.3799 65.6623 74.397 69.7307 74.5164C70.1794 74.5464 70.658 74.4866 71.0768 74.3669C72.9315 73.8591 74.158 72.8735 74.9956 71.8577C75.0554 71.8877 75.1452 71.9473 75.2349 72.0369L75.303 72.0925C75.9843 72.6497 77.304 73.7288 78.3161 74.2773C78.5853 73.3513 78.7648 72.0369 78.7648 71.3499C78.4956 71.1707 76.8503 70.0354 74.5768 67.6755C72.6623 65.6741 72.064 65.0168 72.064 65.0168C71.705 64.7183 70.4785 63.7324 69.1922 63.6726C68.0255 63.6428 67.6366 63.9116 67.6067 63.9414L67.9358 64.4194C68.0554 64.5688 68.6238 65.3755 69.7905 66.8691C70.9871 68.3926 72.4529 69.7666 72.8717 70.155L73.0511 70.364C72.393 71.0513 71.4358 71.6785 70.0896 71.8279ZM40.4742 95.8752C44.0939 95.2778 47.0554 94.4116 50.8845 90.9463C55.1324 87.1226 56.7178 81.626 57.4358 78.8479C58.4229 74.845 58.3332 67.2275 58.3332 67.2275V27.7061C58.3332 27.7061 58.064 19.2222 58.6623 17.0715C59.2606 14.9207 60.5469 13.3672 61.3246 12.5608C63.0597 10.7981 66.6794 10.2007 66.6794 10.2007C67.7264 10.0215 67.9657 9.51367 67.8759 9.00586C67.7563 8.22925 67.1281 8.16943 67.1281 8.16943L41.3417 8.10962C41.3417 8.10962 40.6836 8.22925 40.564 8.97607C40.4742 9.48389 40.7135 9.9917 41.7606 10.1709C41.7606 10.1709 45.4101 10.7385 47.1153 12.5308C47.893 13.3374 49.1794 14.8909 49.7776 17.0415C50.3759 19.1626 50.1067 27.6763 50.1067 27.6763L49.5383 67.1079C49.5383 67.4082 49.5441 67.8887 49.5514 68.4902C49.5845 71.2385 49.648 76.512 49.3289 78.6687C48.7606 82.3132 47.9229 85.3901 45.6794 87.7798C43.4358 90.1697 41.3717 90.9463 38.3204 90.9463C35.2691 90.9463 33.2648 90.0203 31.111 88.3176C28.9571 86.6147 24.8588 82.7612 24.8588 82.7612L28.8076 95.4871C28.8076 95.4871 36.4657 96.5623 40.4742 95.8752ZM17.8289 94.083C18.2776 94.5012 20.611 91.8723 22.017 88.915C23.4229 85.9277 23.7819 82.821 23.3332 80.0728C23.0939 78.4595 22.0469 76.2192 21.4187 74.9646C23.0341 76.0398 24.8289 76.6672 26.1452 76.8762C29.8845 77.5037 33.2648 77.6531 35.7477 77.0854C36.5354 76.8972 37.1338 76.7007 37.5903 76.5508C38.3647 76.2964 38.7305 76.1763 38.9187 76.458C39.2477 76.9661 37.8417 78.3103 33.3246 79.0271C28.6281 79.7739 25.7563 78.6985 25.7563 78.6985C25.7563 78.6985 25.8161 79.7144 27.4614 80.969C28.1419 81.5029 28.7336 81.8643 29.2625 82.1873C30.0355 82.6597 30.6744 83.0498 31.2606 83.7769C31.7924 84.428 31.8323 85.0889 31.8598 85.5454C31.8803 85.8848 31.894 86.1113 32.0981 86.1367C32.4216 86.1975 32.5811 85.6987 32.8075 84.991C32.9161 84.6514 33.0401 84.2637 33.205 83.8665C33.6836 82.6716 33.2648 81.4768 33.2648 81.4768C33.2648 81.4768 34.9699 82.9106 38.2606 82.582C40.564 82.343 41.94 81.9248 41.7905 81.4468C41.7158 81.2231 41.5013 81.2087 41.0526 81.179C40.7822 81.1609 40.4268 81.1372 39.9657 81.0586C38.7392 80.8494 38.2606 80.3416 38.2606 80.3416C38.2606 80.3416 40.2648 79.6843 42.7477 77.9817C45.2306 76.2788 46.846 74.0981 46.4871 73.5903C46.2375 73.2051 45.5576 73.4387 44.7086 73.7305C44.4382 73.8232 44.1508 73.9219 43.8546 74.0085C42.1195 74.5164 41.4913 74.4866 41.4913 74.4866C41.4913 74.4866 41.3118 74.2476 42.0896 73.3215C42.6414 72.6633 43.1697 72.3188 43.5497 72.071C43.9112 71.8352 44.1384 71.687 44.1238 71.4395C44.0939 70.9316 42.4785 70.364 38.3204 72.2163C36.8246 72.8735 35.2392 73.9189 35.2392 73.9189C35.2392 73.9189 35.8674 71.9773 36.1067 70.6331L36.1795 70.2395C36.4321 68.8823 36.81 66.8525 36.3759 66.6897C36.0964 66.585 36.0312 66.6943 35.8346 67.0234C35.6945 67.2581 35.4879 67.6042 35.0896 68.064C34.9374 68.2358 34.8101 68.3872 34.7005 68.5173C34.3148 68.9758 34.1493 69.1726 33.893 69.0796C33.6025 68.9636 33.5502 68.6223 33.4845 68.1931C33.4488 67.9595 33.409 67.7 33.3246 67.4365C33.0853 66.7197 32.4871 65.7339 32.2477 65.8833C32.0215 66.0088 31.8375 66.7778 31.6114 67.7227C31.2994 69.0264 30.9073 70.665 30.2135 71.4097C29.8246 71.8279 29.3161 72.0967 28.7776 72.3059C27.9699 72.6345 27.0725 72.7539 26.205 72.7539C25.1879 72.7539 24.1708 72.5747 23.2435 72.2163L23.1077 72.1633C22.0938 71.7673 20.3487 71.0862 19.205 69.2588C19.205 69.2588 19.0554 68.99 19.0255 68.99V68.9602C18.0383 68.8406 17.0212 68.5718 15.7947 68.0042C16.1238 68.99 16.6324 70.2446 17.0212 71.1707C18.3674 74.4268 20.2221 79.8936 18.4571 84.1951C16.3332 89.363 11.3973 90.3489 10.8588 89.2437C10.6936 88.9136 11.137 88.7009 11.8708 88.3494C13.1292 87.7461 15.2419 86.7334 16.6024 84.0159C18.3375 80.5208 17.0212 76.1296 17.0212 76.1296C17.0212 76.1296 17.0212 79.8936 14.299 82.4624C12.0439 84.5833 10.3657 84.4316 9.46371 84.3503C9.13327 84.3206 8.90701 84.3 8.79474 84.4043C8.34601 84.8821 9.09387 85.2407 9.84174 85.5991C10.3204 85.8083 11.158 86.0173 11.158 86.0173C11.158 86.0173 10.2905 86.824 9.03406 87.4512C8.82065 87.5605 8.62424 87.6577 8.4454 87.7463C7.64661 88.1421 7.1983 88.364 7.14944 88.7058C7.11951 89.0344 8.76483 90.6477 10.3204 91.3347C11.8759 92.0217 13.7905 92.2009 13.7905 92.2009C13.7905 92.2009 13.94 92.1711 13.4315 93.0674C13.2406 93.3958 13.0459 93.6565 12.8848 93.8723C12.5915 94.2649 12.4095 94.5088 12.564 94.7402C12.9529 95.2778 13.3417 95.1882 15.5853 93.7842C17.8289 92.3801 18.4571 91.4841 18.4571 91.4841C18.4571 91.4841 18.3973 91.6633 18.158 92.5593C18.0706 92.876 17.9552 93.1167 17.8614 93.3123C17.6986 93.6521 17.6011 93.8555 17.8289 94.083ZM20.4315 45.3308C20.0127 45.8984 19.2947 47.2129 19.1153 48.4377C19.8332 50.5288 20.7007 51.395 21.299 51.634C21.8076 49.7222 22.3759 47.8103 23.2734 46.0776C23.1238 45.9285 22.0768 45.0322 20.4315 45.3308ZM16.393 59.4905C16.5127 59.8489 18.6665 61.283 19.5042 61.3726C19.5042 61.3726 19.4144 59.9685 19.7135 58.7734C19.7135 58.7734 17.9486 57.967 16.8717 56.085C16.5725 57.0708 16.393 58.7437 16.393 59.4905ZM11.2477 43.4189C11.0682 43.7776 10.8888 44.1958 10.6794 44.7932C9.48276 48.1091 9.09387 49.6924 9.09387 53.1875C9.06396 57.011 10.2606 60.5361 12.4742 63.0752C14.5682 65.4949 17.44 66.8989 20.5511 67.0483C25.0237 67.2566 28.8127 64.4973 30.2592 63.4438L30.2734 63.4336C32.4001 61.884 36.2386 57.8804 36.5634 57.5417L36.5853 57.5188L36.6452 57.4292L36.705 57.5188C36.7349 57.5488 38.0811 59.7893 39.4571 60.4165C40.4742 60.8945 41.7905 60.7451 42.3589 60.5361C42.5682 60.4465 42.6281 60.4165 42.6281 60.3867C42.6281 60.3567 42.4785 60.2373 42.3289 60.1179L42.3074 60.0996C41.6711 59.5549 40.3821 58.4519 40.1751 56.4436C39.9657 54.3823 44.1238 52.4705 47.1153 51.9028L47.205 49.0051C46.8161 49.0352 44.9913 49.1846 44.6024 49.304C39.2841 50.7959 35.9055 54.0161 32.6186 57.1494L32.6067 57.1604C29.1067 60.5061 25.7862 63.6726 20.6409 63.6726H20.5212C18.5768 63.6428 16.6324 62.7168 15.0768 61.0139C13.0725 58.8333 11.9358 55.7864 12.1452 53.0381C12.3845 49.8416 13.5212 47.2129 15.4956 45.4504C17.0511 44.0762 19.0554 43.2698 21.0298 43.2698H21.1494C22.6751 43.2996 24.2306 43.897 25.4272 44.8828C26.3845 45.6594 27.5212 47.0337 27.6409 49.2144C27.7306 50.917 27.1623 52.5002 26.1452 53.4563C25.846 53.7549 24.2007 55.1292 21.5084 54.5317C20.3118 54.2627 19.3246 53.2471 18.7862 52.4106C18.3973 51.8132 18.1281 51.0962 17.8888 50.3794C17.8289 50.2002 17.6195 50.021 17.3802 50.0508C17.0811 50.0806 16.9016 50.4988 16.8417 51.1262C16.6922 53.0381 17.9785 56.1448 21.299 57.041C26.7135 58.5046 29.4657 54.5017 30.064 52.8289C30.7221 51.0066 30.752 49.9612 30.752 49.9612C30.752 49.9307 30.7677 49.8687 30.799 49.8115C30.8289 49.7571 30.8731 49.707 30.9315 49.6924C31.0811 49.6624 31.2007 49.8118 31.2606 49.9314C31.5298 50.3496 32.9358 51.186 34.1324 50.8574C35.4314 50.5332 36.002 49.4231 36.563 48.3315L36.5853 48.2883L36.6081 48.2429C37.1083 47.2434 37.5882 46.2847 38.6195 46.1375C39.846 45.9285 40.2349 46.1077 40.4742 46.2271L40.4834 46.2307C40.6264 46.2881 40.6886 46.313 40.9229 46.1375C41.0059 46.0823 41.0505 46.0017 41.0686 45.916C41.0897 45.8164 41.0748 45.71 41.0426 45.6296C40.8332 44.9724 39.5768 44.0166 37.9016 44.0762C36.2771 44.1057 35.6733 44.6301 34.996 45.2185L34.9699 45.2412L34.8713 45.3259C34.4836 45.6602 34.076 46.0115 33.4144 46.2869C31.7139 47.0105 30.8187 46.8264 30.6805 46.7981L30.6623 46.7947H30.6324L30.6024 46.7649C30.5725 46.7051 27.5811 40.4019 20.7606 40.4019H20.7007C17.0403 40.4314 14.9529 41.9734 14.2373 42.5024L14.2093 42.5229C13.9699 42.7021 13.9101 42.7319 13.8503 42.7021C13.8503 42.6917 13.8429 42.6812 13.8347 42.6694C13.8194 42.6477 13.8009 42.6213 13.8204 42.5825C13.8802 42.2839 13.4016 40.4915 13.0725 39.8044C12.6836 38.968 11.6665 38.52 11.3375 38.49C11.5768 38.759 11.9657 39.7446 11.8759 41.0293C11.8161 42.1345 11.6067 42.6125 11.2477 43.4189ZM20.6268 8.16846L20.611 8.16943C15.0768 8.64746 9.39304 12.7698 9.09387 20.895C8.85455 28.8413 13.1922 33.3521 17.3503 34.9053C22.4657 36.8171 25.3674 35.7119 25.487 35.6521C25.6067 35.6223 25.7263 35.6521 25.8161 35.7417C25.9059 35.8315 25.9059 35.9807 25.846 36.0703L25.8161 36.1003L25.7345 36.1873C25.2446 36.708 24.2253 37.7917 23.6324 38.6096C24.111 38.6694 24.7392 38.8784 25.158 39.0576L25.2481 39.0984C25.8414 39.3677 26.098 39.4841 26.3546 39.655C27.8802 37.355 29.9742 35.2937 32.5469 33.561C34.5511 32.187 37.8118 30.9023 41.0725 30.1555L41.4315 30.0659L41.1623 30.2751C40.205 31.022 39.517 31.8286 38.8888 32.9338C38.0811 34.3079 37.4529 36.2795 37.6623 36.8472C37.6922 36.9067 37.7221 36.9067 37.7221 36.9067C38.0212 37.0264 38.0212 37.0264 38.1409 36.8472C38.2007 36.7275 38.3204 36.5781 38.5298 36.3394C38.799 36.0703 39.0383 35.9211 39.2477 35.9211H39.2776C39.4571 35.9211 39.6067 36.0107 39.6964 36.1003L39.7264 36.1301C39.8722 36.2468 39.8474 36.4202 39.7906 36.8164L39.7862 36.8472C39.6665 37.6238 39.4571 39.0576 40.1751 40.1929C41.1324 41.7461 41.9999 42.762 42.4785 42.8516C42.5682 42.8516 42.5981 42.8516 42.6281 42.8215C42.6879 42.7917 42.8375 42.5825 42.658 41.7163C42.4785 40.7605 42.0298 37.564 42.5383 35.2937C43.1366 32.5156 44.9315 29.7971 47.1751 29.7971H47.3845V27.228C46.9358 27.228 44.6623 27.0488 43.346 25.6448C42.658 24.8979 42.3289 23.9421 42.3589 22.7771C42.4486 20.2976 43.5853 18.804 44.5426 17.7883C44.6922 17.6389 45.1708 17.1311 45.0212 16.8325C44.9016 16.5935 44.6922 16.4739 44.393 16.4441H44.3033C43.1964 16.4441 41.3118 17.8184 40.7135 18.7144C39.9956 19.7898 39.5768 21.1042 39.4871 21.373C39.4709 21.4216 39.4459 21.4614 39.4121 21.4973C39.3835 21.5276 39.3487 21.5549 39.3076 21.5823C39.0682 21.7017 38.4999 21.6121 38.0811 21.134C37.752 20.7756 37.752 20.0586 37.752 19.9094V19.7002C37.752 19.7002 37.732 19.6902 37.7036 19.6819C37.6829 19.6758 37.6576 19.6704 37.6324 19.6704C37.5426 19.6704 37.3631 19.7302 37.1836 19.999C36.7947 20.6262 37.1238 23.7031 38.3204 25.376C38.6138 25.7715 38.8712 26.124 39.0997 26.4368C39.3372 26.762 39.5434 27.0442 39.7264 27.2878L39.8161 27.4075L39.6964 27.4373C38.799 27.5867 37.9315 27.8257 37.1238 28.0945C36.0402 28.4944 34.9195 28.95 33.8055 29.4026C33.5049 29.5247 33.2047 29.6467 32.9059 29.7673H32.8759C31.2306 30.4543 29.5255 31.1414 27.94 31.6492C23.3033 33.113 19.5939 32.9934 17.2306 31.3206C14.8973 29.6477 12.1152 26.541 12.205 21.1938C12.2648 18.4456 13.4614 15.5779 15.3161 13.666C16.9315 12.0527 18.9657 11.1865 21.1794 11.1865H21.4187C27.2819 11.3359 29.2862 15.04 29.2263 18.1768C29.1665 21.1641 27.5212 23.1057 24.7691 23.3447C22.9742 23.4941 21.5682 22.2991 21.1494 21.0444C20.888 20.2612 20.8522 19.5061 20.8229 18.8887L20.8204 18.834L20.8133 18.6787C20.7888 18.1282 20.7703 17.7136 20.5511 17.5493C20.4614 17.4597 20.3717 17.4299 20.252 17.4597C20.0127 17.5195 19.7135 17.8481 19.564 18.2664C18.9059 19.9094 18.9657 21.7314 19.6836 23.3147C20.4913 25.0176 22.7349 26.571 25.487 26.2424C28.3289 25.8838 30.4828 24.3005 31.5597 21.7017C32.2477 19.999 32.3674 18.9834 32.2776 17.9377C32.2477 17.6389 32.2477 17.3105 32.1281 16.8921C32.0981 16.8025 32.1281 16.7129 32.158 16.6533C32.2178 16.5935 32.2776 16.5337 32.3674 16.5337C32.4571 16.5337 34.3417 16.1753 35.5084 14.5024C37.6024 11.4553 36.8246 9.78247 36.5255 9.33447C36.2862 8.94604 35.9871 8.82666 35.9272 8.85645C35.8816 8.87939 35.8185 9.09351 35.7645 9.28662L35.7178 9.45386C35.5084 10.2903 35.1794 11.5449 33.5939 12.0229C32.2407 12.4543 31.3032 11.8064 30.1145 10.9846L29.9742 10.8879H29.9443C29.1067 10.2903 28.1494 9.63306 26.8332 9.09546C23.9228 7.94458 20.8735 8.15186 20.6268 8.16846ZM104.192 102.507H2.69217V1H104.192V102.507ZM54.2946 116.069C54.3544 116.069 54.3843 116.099 54.4143 116.129C54.4442 116.158 54.4442 116.218 54.3544 116.248C54.0254 117.264 53.6066 119.086 53.4869 119.683C53.4869 119.743 53.4271 119.803 53.3672 119.803H53.1279C53.098 119.803 53.0681 119.773 53.0382 119.743C53.0083 119.713 53.0083 119.654 53.0083 119.624C53.0382 119.504 53.0681 119.265 53.0681 119.086C53.0681 118.07 52.1707 117.802 45.4997 117.802V140.146C45.4997 143.163 46.0083 143.253 47.2946 143.462C47.315 143.462 47.3354 143.469 47.3535 143.48C47.3649 143.488 47.3754 143.497 47.3844 143.508C47.4026 143.529 47.4142 143.555 47.4142 143.582V143.761L47.4141 143.775C47.4138 143.785 47.413 143.796 47.4104 143.806C47.4066 143.821 47.3991 143.835 47.3843 143.85C47.3544 143.88 47.3245 143.88 47.2946 143.88C46.816 143.85 45.5596 143.791 44.004 143.791C42.7878 143.791 41.8394 143.832 41.1245 143.863L40.7134 143.88C40.6835 143.88 40.6536 143.88 40.6237 143.85C40.5938 143.82 40.5938 143.791 40.5938 143.761V143.582C40.5938 143.556 40.6049 143.53 40.6224 143.509C40.6394 143.489 40.6623 143.473 40.6868 143.466L40.6963 143.464C40.702 143.463 40.7077 143.462 40.7134 143.462C42.0296 143.253 42.5083 143.163 42.5083 140.146V117.802C36.7049 117.802 34.9399 117.831 33.8331 120.161C33.8031 120.221 33.7732 120.251 33.7134 120.251H33.5339C33.5198 120.251 33.5058 120.244 33.4917 120.234C33.4759 120.223 33.46 120.207 33.4442 120.191C33.4305 120.177 33.4231 120.158 33.419 120.137C33.4142 120.113 33.4142 120.088 33.4142 120.072C33.5638 119.385 33.7433 118.728 33.9527 118.01C33.9922 117.886 34.0302 117.76 34.0674 117.631L34.1167 117.458C34.1836 117.22 34.2488 116.974 34.3161 116.716L34.3822 116.462L34.4613 116.158C34.4613 116.135 34.47 116.117 34.4841 116.103C34.507 116.08 34.5439 116.069 34.5809 116.069C43.0467 116.248 52.4997 116.099 54.2946 116.069ZM67.5467 142.835C73.709 142.835 77.5381 138.055 77.5381 130.348C77.5381 120.64 72.1834 117.204 67.5467 117.204C60.3672 117.204 57.8244 124.165 57.8244 130.109C57.8244 138.085 61.4441 142.835 67.5467 142.835ZM54.1449 130.229C54.1449 123.298 59.2603 116.129 67.8757 116.129C75.3543 116.129 81.2176 122.283 81.2475 130.109C81.2475 137.876 75.2347 143.94 67.5766 143.94C59.1706 143.94 54.1449 136.98 54.1449 130.229ZM21.1791 121.148C21.1791 124.434 23.6321 126.107 26.2347 127.869L26.3329 127.937C29.2041 129.917 32.1581 131.954 32.1877 136.472C32.1877 140.953 28.9868 144.06 24.4099 144.06C23.0827 144.06 22.1336 143.857 21.3044 143.679L21.2689 143.672C20.5808 143.522 19.9227 143.373 19.115 143.373C18.8757 143.373 18.7859 143.373 18.5765 143.403C18.5471 143.403 18.5249 143.403 18.5064 143.4L18.4948 143.397C18.4884 143.395 18.4824 143.392 18.4766 143.389C18.4698 143.385 18.4633 143.38 18.4569 143.373C18.4457 143.362 18.4387 143.347 18.4343 143.33C18.4307 143.317 18.4289 143.302 18.4279 143.289C18.427 143.276 18.427 143.263 18.427 143.254C18.4569 143.074 18.4569 142.656 18.4569 142.328C18.4569 141.909 18.427 141.551 18.3672 141.133C18.3581 141.006 18.3463 140.876 18.3342 140.744C18.3193 140.581 18.304 140.413 18.2931 140.242C18.2836 140.094 18.2774 139.943 18.2774 139.788C18.2774 139.46 18.3073 138.354 18.7261 137.428C18.7386 137.404 18.7512 137.384 18.7659 137.369C18.7742 137.361 18.7831 137.354 18.7932 137.35C18.808 137.343 18.8251 137.339 18.8458 137.339H18.9654H18.9777L18.9931 137.34C19.0019 137.341 19.0107 137.342 19.0196 137.345C19.0257 137.348 19.0318 137.351 19.0379 137.354C19.0436 137.358 19.0494 137.363 19.0552 137.369C19.0731 137.369 19.0803 137.39 19.0832 137.414C19.0851 137.429 19.0851 137.446 19.0851 137.458V137.578C19.0552 137.847 19.0253 138.115 19.0253 138.354C19.0253 141.282 21.8372 142.835 24.6492 142.835C27.0723 142.835 29.5253 141.342 29.5253 138.026C29.5253 134.501 26.9825 132.768 24.2603 130.916L24.1552 130.844C21.3757 128.925 18.5167 126.951 18.5167 122.851C18.5167 118.907 21.3885 116.159 25.4569 116.159C26.5855 116.159 27.4746 116.319 28.2748 116.462L28.4184 116.488L28.5078 116.504C29.1335 116.618 29.7332 116.727 30.3329 116.727C30.5424 116.727 30.7218 116.727 30.9312 116.697C30.9911 116.697 31.021 116.697 31.0509 116.727C31.0567 116.732 31.0614 116.74 31.0652 116.747L31.0688 116.756L31.0725 116.766C31.0808 116.794 31.0808 116.827 31.0808 116.846C30.9911 117.683 30.9612 118.34 30.9612 119.266L30.9617 119.756L30.9631 120.053C30.9647 120.29 30.9676 120.535 30.9728 120.761C30.9771 120.948 30.983 121.122 30.9911 121.267C30.9911 121.297 30.9911 121.327 30.9612 121.357C30.942 121.376 30.9228 121.383 30.9037 121.385L30.8939 121.386L30.8714 121.387H30.662C30.6022 121.387 30.5424 121.327 30.5424 121.267C30.0039 118.579 28.2689 117.145 25.5167 117.145C22.3159 117.145 21.1791 119.206 21.1791 121.148ZM97.3715 124.344C97.3715 127.003 96.6535 130.558 90.551 130.558H88.8458V117.653C89.9228 117.354 90.6407 117.294 91.4783 117.294C95.0381 117.324 97.3715 120.073 97.3715 124.344ZM104.91 143.463C102.719 142.723 100.176 138.209 98.2967 134.872L98.239 134.77L98.0399 134.416C97.0582 132.671 96.2852 131.297 95.6963 130.737C98.8971 129.482 100.812 126.943 100.812 123.866C100.812 119.206 97.2219 116.189 91.6578 116.189C91.4949 116.189 91.29 116.194 91.0563 116.2C90.7321 116.209 90.3525 116.219 89.9527 116.219C89.1749 116.249 88.3074 116.249 87.6792 116.249C86.0039 116.249 85.3159 116.249 84.0296 116.159C83.9997 116.159 83.9698 116.159 83.9398 116.189C83.9099 116.219 83.9099 116.249 83.9099 116.279V116.458C83.9099 116.483 83.9203 116.508 83.9368 116.528C83.9598 116.557 83.9947 116.577 84.0296 116.577C85.3159 116.786 85.7646 117.294 85.7646 119.893V140.207C85.7646 143.224 85.286 143.313 83.9698 143.522C83.9347 143.522 83.8995 143.543 83.8765 143.572C83.8603 143.593 83.8501 143.617 83.8501 143.642V143.821C83.8501 143.851 83.8501 143.881 83.88 143.911L83.8928 143.922C83.9184 143.941 83.9441 143.941 83.9698 143.941L84.422 143.922C85.1501 143.891 86.0898 143.851 87.2903 143.851C88.8458 143.851 90.1321 143.911 90.6108 143.941C90.6407 143.941 90.6706 143.941 90.7005 143.911C90.7304 143.881 90.7304 143.851 90.7304 143.821V143.642C90.7304 143.628 90.727 143.613 90.7209 143.6C90.7179 143.593 90.7141 143.586 90.7098 143.58C90.6872 143.547 90.649 143.522 90.6108 143.522C89.2946 143.313 88.8159 143.224 88.8159 140.207V131.633H91.1193C91.5381 131.633 92.0766 131.573 92.6749 131.484C93.333 132.111 94.1108 133.575 94.5894 134.471C94.6792 134.65 94.7689 134.83 94.8586 134.949C99.3458 143.343 99.8245 143.851 103.863 144C104.312 144 104.491 144 104.82 143.97C104.88 143.97 104.94 143.911 104.94 143.851V143.612C105 143.552 104.97 143.492 104.91 143.463ZM15.0767 116.099C14.3288 116.129 12.863 116.159 11.6066 116.159C10.2604 116.159 8.76471 116.129 7.98691 116.099C7.97122 116.099 7.95554 116.099 7.93985 116.104C7.92563 116.107 7.91141 116.115 7.89719 116.129C7.86725 116.159 7.86725 116.189 7.86725 116.219V116.398C7.86725 116.423 7.87753 116.448 7.89386 116.468C7.91687 116.497 7.9519 116.517 7.98691 116.517C9.30316 116.727 10.1707 116.876 10.1707 119.714V136.233C10.1707 139.34 8.67496 142.716 6.2818 142.716C5.83307 142.716 5.41428 142.686 5.02539 142.626C3.35016 142.208 2.30316 141.043 1.67496 140.206C1.6261 140.141 1.57724 140.076 1.53323 140.011C1.49637 139.957 1.46289 139.902 1.43564 139.848C0.747589 138.802 0.418549 137.906 0.418549 137.876C0.388611 137.787 0.298889 137.757 0.209137 137.757C0.119385 137.787 0.0595703 137.846 0.0595703 137.966L0.62793 142.297C0.62793 142.357 0.657867 142.417 0.717682 142.447C2.30316 143.462 4.24759 143.761 4.60657 143.791C5.23477 143.881 5.74332 143.911 6.04248 143.911H6.43137C10.4399 143.911 13.1322 140.655 13.1322 135.815V119.714C13.1322 116.965 13.7764 116.819 15.0648 116.527L15.1066 116.517L15.1664 116.488C15.2054 116.488 15.2318 116.462 15.2453 116.428C15.2525 116.409 15.2561 116.389 15.2561 116.368V116.189C15.2561 116.159 15.2562 116.129 15.2262 116.099H15.0767Z" fill="#990000"/>
</svg>
