<svg width="273" height="110" viewBox="0 0 273 110" fill="none" xmlns="http://www.w3.org/2000/svg">
<path d="M89.8428 22.3302C86.3189 19.8021 82.9983 17.4847 82.9983 12.8499C82.9983 10.1111 84.5569 7.16169 88.894 7.16169C92.6212 7.16169 94.993 9.19821 95.7385 12.9903C95.7385 13.0606 95.8062 13.1308 95.874 13.1308H96.1451C96.2128 13.1308 96.2128 13.1308 96.2806 13.0606C96.2806 12.9903 96.3484 12.9903 96.3484 12.9201C96.2806 12.1476 96.2806 10.8836 96.2806 10.1111C96.2806 8.77686 96.3484 7.86394 96.4161 6.74034C96.4161 6.67012 96.4161 6.59989 96.3484 6.59989C96.2806 6.52967 96.2806 6.52967 96.2128 6.52967C95.9418 6.59989 95.6707 6.59989 95.3996 6.59989C94.5187 6.59989 93.7055 6.45944 92.7567 6.24877C91.6047 6.03809 90.3171 5.75719 88.7585 5.75719C83.2016 5.75719 79.3389 9.61955 79.3389 15.1673C79.3389 20.996 83.3372 23.8049 87.1321 26.5437C90.7915 29.142 94.3154 31.5999 94.3154 36.5858C94.3154 41.2909 90.9948 43.3977 87.6742 43.3977C83.8793 43.3977 80.0166 41.2207 80.0166 37.0774C80.0166 36.7263 80.0843 36.3752 80.0843 35.9538V35.8134C80.0843 35.7432 80.0843 35.7432 80.0166 35.6729C80.0166 35.6027 79.9488 35.6027 79.881 35.6027H79.61C79.5422 35.6027 79.4744 35.6729 79.4744 35.6729C78.9323 37.0072 78.8645 38.5521 78.8645 38.9735C78.8645 39.6757 78.9323 40.2375 79.0001 40.8696C79.0678 41.4314 79.1356 41.9932 79.1356 42.555C79.1356 42.9763 79.1356 43.6083 79.0678 43.8892C79.0678 43.9594 79.0678 44.0297 79.1356 44.0297C79.2034 44.0999 79.2034 44.0999 79.2711 44.0999C79.5422 44.0297 79.6777 44.0297 80.0166 44.0297C81.1008 44.0297 81.9818 44.2403 82.9305 44.451C84.0826 44.7319 85.3701 45.0128 87.1999 45.0128C93.4344 45.0128 97.7715 40.5887 97.7715 34.3387C97.907 28.0184 93.7732 25.1392 89.8428 22.3302Z" fill="#990000"/>
<path d="M145.004 5.75719C133.281 5.75719 126.301 15.8696 126.301 25.6308C126.301 35.1111 133.145 45.0128 144.598 45.0128C155.034 45.0128 163.166 36.4454 163.166 25.4903C163.166 14.4651 155.169 5.75719 145.004 5.75719ZM158.151 25.7712C158.151 36.6561 152.933 43.3977 144.598 43.3977C136.33 43.3977 131.383 36.6561 131.383 25.4201C131.383 16.9932 134.839 7.23191 144.598 7.23191C150.832 7.30214 158.151 12.1476 158.151 25.7712Z" fill="#990000"/>
<path d="M193.865 44.3813C190.815 43.3279 187.291 36.797 184.784 32.0217C183.293 29.283 182.141 27.106 181.328 26.3335C185.733 24.5779 188.308 20.9262 188.308 16.5723C188.308 9.97119 183.429 5.68748 175.839 5.68748C175.297 5.68748 174.416 5.68748 173.535 5.7577C172.45 5.7577 171.298 5.82793 170.417 5.82793C168.113 5.82793 167.164 5.82793 165.403 5.68748C165.335 5.68748 165.335 5.68748 165.267 5.7577C165.267 5.7577 165.199 5.82793 165.199 5.89815V6.17905C165.199 6.24928 165.267 6.3195 165.335 6.3195C167.097 6.6004 167.707 7.30265 167.707 11.0246V39.7465C167.707 44.0302 167.029 44.1706 165.267 44.4515C165.199 44.4515 165.131 44.5217 165.131 44.592V44.8729C165.131 44.9431 165.131 44.9431 165.199 45.0133C165.199 45.0133 165.267 45.0835 165.335 45.0835C166.419 45.0133 167.842 44.9431 169.875 44.9431C172.044 44.9431 173.738 45.0133 174.416 45.0835C174.483 45.0835 174.483 45.0835 174.551 45.0133C174.551 45.0133 174.619 44.9431 174.619 44.8729V44.592C174.619 44.5217 174.551 44.4515 174.483 44.4515C172.721 44.1706 172.044 44.0302 172.044 39.7465V27.5274H175.229C175.771 27.5274 176.516 27.4571 177.397 27.3167C178.346 28.2296 179.363 30.2661 180.04 31.5302C180.176 31.8111 180.311 32.0217 180.379 32.2324C186.478 44.1004 187.156 44.8026 192.713 45.0835C193.322 45.0835 193.526 45.0835 194.068 45.0133C194.136 45.0133 194.203 44.9431 194.203 44.8729V44.5217C194 44.4515 193.932 44.3813 193.865 44.3813ZM183.564 17.2043C183.564 23.2437 180.582 25.9824 174.212 25.9824H171.908V7.724C173.399 7.30265 174.416 7.23242 175.5 7.23242C180.379 7.23242 183.564 11.165 183.564 17.2043Z" fill="#990000"/>
<path d="M127.521 5.96787C127.521 5.89764 127.521 5.82742 127.521 5.82742C127.521 5.75719 127.453 5.75719 127.386 5.75719C124.946 5.82742 112.138 6.03809 100.618 5.75719C100.55 5.75719 100.482 5.82742 100.482 5.89764C100.279 6.88079 100.008 7.72349 99.8044 8.49596C99.5334 9.47911 99.2623 10.4623 99.059 11.4454C99.059 11.5156 99.059 11.5156 99.1267 11.5858C99.1267 11.6561 99.1945 11.6561 99.2623 11.6561H99.5333C99.6011 11.6561 99.6689 11.5858 99.6689 11.5858C101.16 8.28528 103.532 8.28528 111.46 8.28528V39.8162C111.46 44.0999 110.783 44.2404 109.021 44.5213C108.953 44.5213 108.885 44.5915 108.885 44.6617V44.9426C108.885 45.0128 108.885 45.0128 108.953 45.083C108.953 45.083 109.021 45.1533 109.088 45.1533C110.105 45.083 111.596 45.0128 113.561 45.0128C115.662 45.0128 117.424 45.083 118.034 45.1533C118.101 45.1533 118.101 45.1533 118.169 45.083C118.169 45.083 118.237 45.0128 118.237 44.9426V44.6617C118.237 44.5915 118.169 44.5213 118.101 44.5213C116.34 44.2404 115.662 44.0999 115.662 39.8162V8.14484C124.743 8.14484 125.962 8.49596 125.962 9.97068C125.962 10.2516 125.895 10.5325 125.895 10.7432C125.895 10.8134 125.895 10.8836 125.895 10.8836C125.895 10.9538 125.962 10.9538 126.03 10.9538H126.369C126.437 10.9538 126.505 10.8836 126.505 10.8134C126.505 9.97068 127.114 7.37236 127.521 5.96787Z" fill="#990000"/>
<path d="M75.9503 5.68748C74.9338 5.7577 72.9685 5.7577 71.2066 5.7577C69.3769 5.7577 67.3439 5.68748 66.2596 5.68748C66.1918 5.68748 66.1918 5.68748 66.1241 5.7577C66.1241 5.7577 66.0563 5.82793 66.0563 5.89815V6.17905C66.0563 6.24928 66.1241 6.3195 66.1918 6.3195C67.9538 6.6004 69.1736 6.81108 69.1736 10.8139V34.1285C69.1736 38.5527 67.1406 43.2577 63.8878 43.2577C63.2779 43.2577 62.7357 43.1875 62.1936 43.1173C59.8895 42.5555 58.5342 40.8701 57.6532 39.6762C57.5177 39.5358 57.4499 39.3251 57.3144 39.1847C56.3656 37.7802 55.959 36.4459 55.959 36.4459C55.8913 36.3055 55.8235 36.2352 55.688 36.3055C55.5524 36.3055 55.4847 36.4459 55.4847 36.5864L56.2301 42.6959C56.2301 42.7661 56.2979 42.8364 56.3656 42.9066C58.4664 44.3111 61.1771 44.7324 61.6515 44.8026C62.5324 44.9431 63.2101 44.9431 63.6167 44.9431C63.9555 44.9431 64.1588 44.9431 64.1588 44.9431C69.5802 44.9431 73.2396 40.3785 73.2396 33.5667V10.8139C73.2396 6.8813 74.1206 6.67063 75.9503 6.3195H76.018C76.0858 6.3195 76.1536 6.24928 76.1536 6.17905V5.89815C76.1536 5.82793 76.1536 5.82793 76.0858 5.7577C76.0858 5.7577 76.018 5.68748 75.9503 5.68748Z" fill="#990000"/>
<path d="M1 0V50H49.1822V0H1ZM9.47086 3.51124C9.47086 3.51124 10.9617 3.37079 12.4526 4.00281C13.0625 4.28371 13.5369 4.56461 13.9435 4.91573C14.5534 5.33708 15.0277 5.6882 15.6376 5.47753C16.4508 5.19663 16.5864 4.56461 16.6541 4.21348C16.6541 4.14326 16.7219 3.93258 16.7219 3.93258C16.7897 3.93258 16.8574 4.00281 16.993 4.14326C17.1285 4.35393 17.5351 5.19663 16.5186 6.67135C15.9765 7.51405 15.0955 7.65449 15.0277 7.65449C14.96 7.65449 14.96 7.65449 14.96 7.72472C14.96 7.72472 14.96 7.79494 14.96 7.86517C15.0277 8.07584 15.0277 8.21629 15.0277 8.35674C15.0955 8.84832 15.0277 9.33989 14.6889 10.1826C14.1468 11.4466 13.1303 12.2191 11.7749 12.4298C10.4874 12.5702 9.40309 11.7978 8.99649 10.9551C8.65765 10.1826 8.65765 9.26966 8.92872 8.49719C8.99649 8.28652 9.13202 8.14607 9.26756 8.07584C9.33532 8.07584 9.33532 8.07584 9.40309 8.14607C9.53862 8.21629 9.53862 8.49719 9.53862 8.77809C9.53862 9.05899 9.53862 9.48034 9.67416 9.90169C9.87746 10.5337 10.5551 11.0955 11.3683 11.0253C12.6559 10.8848 13.4691 9.97191 13.4691 8.49719C13.4691 6.95225 12.5204 5.1264 9.74192 5.05618C9.67416 5.05618 9.67416 5.05618 9.60639 5.05618C8.52212 5.05618 7.57339 5.47753 6.82795 6.25C5.94698 7.16292 5.33708 8.56742 5.33708 9.97191C5.26931 12.5702 6.62465 14.1152 7.70892 14.9579C8.86096 15.8006 10.6229 15.8708 12.7914 15.0983C13.5369 14.8174 14.3501 14.5365 15.1633 14.1854C15.8409 13.9045 16.5186 13.6236 17.1963 13.3427C17.6029 13.2022 18.0095 13.0618 18.4161 12.9916H18.4838L18.6194 12.9213C18.4161 12.7107 18.2128 12.3596 17.9417 12.0084C17.3996 11.1657 17.1963 9.69101 17.3996 9.33989C17.4673 9.19944 17.6029 9.19944 17.6029 9.19944H17.6706C17.6706 9.19944 17.6706 9.26966 17.6706 9.33989C17.6706 9.41011 17.6706 9.76124 17.8062 9.97191C18.0095 10.1826 18.2806 10.2528 18.4161 10.1826C18.4839 10.1826 18.4838 10.1124 18.4838 10.1124C18.5516 9.97191 18.6872 9.33989 19.0938 8.77809C19.3648 8.35674 20.2458 7.65449 20.7879 7.65449C20.7879 7.65449 20.7879 7.65449 20.8557 7.65449C20.9912 7.65449 21.059 7.72472 21.1268 7.86517C21.1945 8.00562 20.9912 8.28652 20.9235 8.35674C20.4491 8.84832 19.907 9.62079 19.907 10.8146C19.907 11.3764 20.0425 11.868 20.3813 12.2191C20.9912 12.9213 22.0755 12.9916 22.2788 12.9916V14.2556H22.211C21.1268 14.2556 20.3136 15.5899 19.9747 16.9944C19.7714 18.118 19.9747 19.6629 20.0425 20.1545C20.1103 20.5758 20.0425 20.7163 20.0425 20.7163C20.0425 20.7163 20.0425 20.7163 19.9747 20.7163C19.7714 20.6461 19.3648 20.1545 18.8904 19.382C18.5516 18.8202 18.6194 18.118 18.6871 17.7669C18.6871 17.5562 18.7549 17.486 18.6194 17.4157C18.5516 17.3455 18.4839 17.3455 18.4161 17.3455C18.2806 17.3455 18.2128 17.4157 18.0772 17.5562C18.0095 17.6966 17.9417 17.7669 17.8739 17.8371C17.8062 17.9073 17.8062 17.9073 17.6706 17.8371C17.6029 17.5562 17.8739 16.573 18.2805 15.941C18.6194 15.3792 18.8905 15.0281 19.3648 14.6067L19.5004 14.4663L19.3648 14.5365C17.8062 14.8876 16.2475 15.5197 15.2988 16.2219C14.079 17.0646 13.0625 18.118 12.3848 19.2416C12.2493 19.1713 12.1138 19.1011 11.8427 18.9607C11.6394 18.8904 11.3683 18.75 11.0973 18.75C11.3683 18.3287 11.9105 17.7669 12.1138 17.486C12.1138 17.4157 12.1138 17.3455 12.1138 17.3455C12.046 17.2753 12.046 17.2753 11.9782 17.2753C11.9105 17.2753 10.5551 17.8371 8.11552 16.9242C6.15028 16.1517 4.04951 13.9747 4.18504 10.0421C4.18504 5.82865 6.89572 3.79213 9.47086 3.51124ZM4.79494 21.559C4.93048 21.2781 4.99824 21.0674 5.06601 20.8567C5.20155 20.4354 5.33708 20.2247 5.33708 19.6629C5.40485 19.0309 5.20155 18.5393 5.06601 18.3989C5.20155 18.3989 5.67591 18.6096 5.87921 19.0309C6.01475 19.382 6.28581 20.2247 6.21805 20.4354V20.5056C6.21805 20.5056 6.28581 20.5056 6.35358 20.4354C6.69242 20.1545 7.70892 19.382 9.40309 19.382C12.6559 19.382 14.079 22.4719 14.079 22.5421C14.079 22.5421 14.5534 22.6826 15.3666 22.2612C15.7054 22.1208 15.9087 21.9101 16.112 21.7697C16.4508 21.4888 16.7219 21.2079 17.5351 21.2079C18.3483 21.2079 18.8905 21.6292 19.026 21.9803C19.026 22.0506 19.0938 22.191 18.9582 22.2612C18.8227 22.3315 18.8227 22.3315 18.7549 22.3315C18.6194 22.2612 18.4838 22.191 17.8739 22.2612C17.3996 22.3315 17.1285 22.823 16.9252 23.3146C16.6541 23.8764 16.3831 24.4382 15.7732 24.5787C15.231 24.7191 14.5534 24.368 14.4178 24.1573C14.4178 24.0871 14.3501 24.0169 14.2823 24.0169C14.2145 24.0169 14.2145 24.0871 14.2145 24.1573C14.2145 24.1573 14.2145 24.6489 13.8757 25.5618C13.6046 26.4045 12.3171 28.3708 9.74192 27.6685C8.18329 27.2472 7.57339 25.7022 7.64115 24.7893C7.64115 24.5084 7.77669 24.2978 7.91222 24.2275C8.04775 24.2275 8.11552 24.2978 8.18329 24.368C8.31882 24.7191 8.45435 25.0702 8.58989 25.3511C8.86096 25.7725 9.33532 26.264 9.87746 26.4045C11.165 26.6854 11.9105 25.9831 12.1138 25.9129C12.5881 25.4214 12.8592 24.6489 12.7914 23.8062C12.7237 22.7528 12.1815 22.0506 11.7072 21.6994C11.165 21.2079 10.4196 20.927 9.67416 20.927H9.60639C8.65765 20.927 7.70892 21.3483 6.96348 21.9803C6.01475 22.823 5.47261 24.1573 5.33708 25.7022C5.26931 27.0365 5.74368 28.5815 6.76018 29.6348C7.50562 30.4775 8.45435 30.9691 9.33532 30.9691H9.40309C11.8427 30.9691 13.4013 29.4242 15.0955 27.7388C16.6541 26.1938 18.2806 24.5787 20.7879 23.8764C20.9912 23.8062 21.8722 23.736 22.0077 23.736L21.94 25.1404C20.5169 25.4213 18.5516 26.3343 18.6194 27.3876C18.6871 28.3708 19.3648 28.9326 19.6359 29.2135C19.7037 29.2837 19.7714 29.3539 19.7714 29.3539C19.7714 29.3539 19.7714 29.4242 19.6359 29.4242C19.3648 29.4944 18.7549 29.6348 18.2805 29.3539C17.6029 29.073 16.993 27.9494 16.993 27.9494V27.8792L16.9252 27.9494C16.9252 27.9494 14.96 30.0562 13.9435 30.8287C13.2658 31.3202 11.4361 32.7247 9.33532 32.5843C7.84445 32.514 6.48912 31.8118 5.47261 30.618C4.38834 29.3539 3.84621 27.5983 3.84621 25.7725C4.04951 24.0169 4.18504 23.1742 4.79494 21.559ZM8.99649 29.7753C8.58989 29.7051 7.57339 29.0028 7.50562 28.8624C7.50562 28.5112 7.57338 27.6685 7.70892 27.177C8.25105 28.0899 9.06426 28.5112 9.06426 28.5112C8.92872 29.073 8.99649 29.7753 8.99649 29.7753ZM8.79319 23.3848C8.86096 22.7528 9.19979 22.1208 9.40309 21.8399C10.1485 21.6994 10.6907 22.1208 10.7584 22.191C10.3518 23.0337 10.0808 24.0169 9.80969 24.9298C9.53862 24.8596 9.13202 24.4382 8.79319 23.3848ZM10.1485 43.3287C9.47086 44.8034 8.38659 46.0674 8.18329 45.8567C7.97999 45.7163 8.25105 45.5056 8.31882 45.0843C8.45435 44.6629 8.45435 44.5225 8.45435 44.5225C8.45435 44.5225 8.18329 44.9438 7.09902 45.6461C6.01475 46.3483 5.81145 46.4185 5.67591 46.1376C5.54038 45.927 5.81145 45.7865 6.08251 45.2949C6.35358 44.8736 6.28581 44.9438 6.28581 44.9438C6.28581 44.9438 5.40485 44.8736 4.65941 44.5225C3.91398 44.1713 3.16854 43.3989 3.16854 43.2584C3.16854 43.0478 3.50737 42.9073 4.04951 42.6264C4.65941 42.3455 5.06601 41.9242 5.06601 41.9242C5.06601 41.9242 4.65941 41.7837 4.38834 41.6433C4.04951 41.4326 3.64291 41.2921 3.91398 41.0815C4.11728 40.8708 5.06601 41.573 6.55688 40.0983C7.84445 38.8343 7.84445 37.0084 7.84445 37.0084C7.84445 37.0084 8.45435 39.1854 7.64115 40.8708C6.62465 42.9775 4.72718 42.9775 4.93048 43.4691C5.20155 44.0309 7.50562 43.5393 8.52212 41.0112C9.33532 38.9045 8.45435 36.1657 7.84445 34.6208C7.64115 34.1292 7.43785 33.5674 7.23455 33.0758C7.84445 33.3567 8.31882 33.4972 8.79319 33.5674L8.86096 33.7079C9.40309 34.6208 10.2841 34.9719 10.7584 35.1826C11.2328 35.323 11.7072 35.4635 12.1815 35.4635C12.5881 35.4635 12.9947 35.3933 13.4013 35.2528C13.6724 35.1826 13.8757 35.0421 14.079 34.8315C14.6211 34.1994 14.7567 32.2331 15.0277 32.0927C15.1633 32.0225 15.4343 32.514 15.5699 32.8652C15.7054 33.2163 15.6376 33.5674 15.8409 33.6376C15.9765 33.7079 16.112 33.4972 16.3831 33.1461C16.8574 32.5843 16.7897 32.3736 16.993 32.4438C17.1963 32.514 16.993 33.7079 16.8574 34.4101C16.7219 35.0421 16.4508 36.0253 16.4508 36.0253C16.4508 36.0253 17.1963 35.5337 17.9417 35.1826C19.907 34.2697 20.6524 34.5506 20.7202 34.8315C20.7202 35.1124 20.2458 35.1124 19.7714 35.7444C19.4326 36.1657 19.5004 36.3062 19.5004 36.3062C19.5004 36.3062 19.7714 36.3062 20.5846 36.0955C21.1945 35.9551 21.6689 35.6742 21.8722 35.8848C22.0077 36.1657 21.2623 37.2191 20.1103 38.0618C18.9582 38.9045 17.9417 39.2556 17.9417 39.2556C17.9417 39.2556 18.145 39.5365 18.7549 39.6067C19.3648 39.7472 19.5681 39.6067 19.6359 39.8174C19.7037 40.0281 19.026 40.2388 17.9417 40.3792C16.3831 40.5197 15.5699 39.8174 15.5699 39.8174C15.5699 39.8174 15.7732 40.3792 15.5021 41.0112C15.231 41.4326 15.231 41.9944 14.96 41.9242C14.7567 41.8539 15.0277 41.2921 14.5534 40.7303C14.079 40.0983 13.5369 40.0281 12.7237 39.3258C11.9105 38.6938 11.9105 38.2023 11.9105 38.2023C11.9105 38.2023 13.2658 38.764 15.5021 38.3427C17.6706 37.9916 18.2805 37.2893 18.145 37.0787C18.0095 36.868 17.6706 37.1489 16.6541 37.3596C15.5021 37.6404 13.8757 37.5702 12.1138 37.2191C11.5039 37.0787 10.6229 36.7978 9.87746 36.3062C10.1485 36.9382 10.6907 38.0618 10.7584 38.8343C11.0295 40.309 10.8262 41.8539 10.1485 43.3287ZM18.9582 46.7697C17.0607 47.1208 13.4013 46.559 13.4013 46.559L11.5039 40.309C11.5039 40.309 13.4691 42.2051 14.4856 43.0478C15.5021 43.8904 16.4508 44.3118 17.8739 44.3118C19.2971 44.3118 20.3136 43.9607 21.3978 42.7669C22.4821 41.573 22.8887 40.0983 23.1598 38.2725C23.3631 37.0084 23.2953 33.427 23.2953 32.5843L23.5664 13.132C23.5664 13.132 23.7019 8.91854 23.4308 7.86517C23.1598 6.8118 22.5499 6.03933 22.1433 5.61798C21.3301 4.77528 19.6359 4.42416 19.6359 4.42416C19.1615 4.35393 19.026 4.07303 19.0938 3.86236C19.026 3.51124 19.3648 3.51124 19.3648 3.51124H31.6306C31.6306 3.51124 31.9017 3.51124 31.9695 3.93258C32.0372 4.21348 31.9017 4.42416 31.4273 4.49438C31.4273 4.49438 29.7331 4.77528 28.9199 5.6882C28.5811 6.10955 27.9712 6.88202 27.6324 7.93539C27.3613 8.98876 27.4968 13.2022 27.4968 13.2022V32.6545C27.4968 32.6545 27.5646 36.3764 27.0902 38.4129C26.7514 39.8174 26.006 42.486 23.973 44.382C22.0755 45.9972 20.6524 46.4185 18.9582 46.7697ZM30.2753 32.514C30.4108 33.8483 31.4951 35.0421 32.986 34.9017C33.5959 34.8315 34.0702 34.5506 34.4091 34.1994L34.2735 34.1292C34.0702 33.9185 33.3926 33.2865 32.7827 32.514C32.2405 31.8118 31.9695 31.3904 31.9017 31.3202L31.7662 31.1096C31.7662 31.1096 31.9695 30.9691 32.5116 30.9691C33.1215 30.9691 33.7314 31.4607 33.8669 31.6011C33.8669 31.6011 34.138 31.9522 35.0867 32.9354C36.171 34.1292 36.9164 34.691 37.052 34.7612C37.052 35.1124 36.9842 35.7444 36.8487 36.236C36.3743 35.9551 35.6966 35.3933 35.3578 35.1124C35.29 35.0421 35.29 35.0421 35.2223 35.0421C34.8157 35.5337 34.2735 36.0253 33.3926 36.3062C33.1893 36.3764 32.986 36.3764 32.7827 36.3764C30.8174 36.3062 29.5298 34.8315 29.2588 33.3567C29.1232 32.7949 29.191 32.0927 29.191 31.6713C29.191 31.25 29.2588 30.8989 29.1232 30.618C29.0555 30.3371 28.8522 30.1264 28.7844 29.986C28.7166 29.8455 28.6489 29.7753 28.7166 29.7051C28.8522 29.5646 29.1232 29.6348 29.4621 29.8455C29.6654 29.986 29.7331 30.1264 29.8009 30.1966C30.0042 29.9157 30.8852 28.6517 32.4438 28.5815C32.986 28.5815 33.4603 28.6517 33.7992 28.9326C34.0702 29.1433 34.2735 29.4242 34.4091 29.7051C34.4768 29.9157 34.4768 30.1264 34.3413 30.1966C34.2735 30.2669 34.0702 30.1264 33.8669 30.0562C33.5281 29.9157 33.0537 29.7051 32.4438 29.7753C31.9695 29.8455 31.2918 30.1966 30.8174 30.8287C30.4108 31.1798 30.2075 31.8118 30.2753 32.514ZM29.3265 20.7163C29.0555 18.75 29.191 17.8371 29.191 17.8371C29.5976 17.9775 30.3431 18.75 30.6141 19.0309C30.6141 19.0309 30.5464 19.3118 30.7497 20.5056C30.8852 21.4185 31.1562 22.2612 31.224 22.6124L29.8687 23.2444C29.6654 22.7528 29.4621 21.7697 29.3265 20.7163ZM30.4786 17.5562C29.5298 16.6433 28.7844 16.4326 28.7844 16.4326V14.7472C29.2588 14.9579 30.2753 15.5197 30.8852 16.0815C31.4951 16.573 31.9017 17.1348 32.3083 17.5562L32.0372 19.3118C31.6306 18.75 31.0885 18.118 30.4786 17.5562ZM45.7939 43.4691C45.7939 43.5393 45.7939 43.5393 45.7939 43.4691C45.3873 44.8736 44.6419 45.7865 43.4898 46.1376C43.151 46.2781 42.8121 46.2781 42.5411 46.2781C41.7956 46.2781 41.1857 45.9972 40.5081 45.5758C40.4403 45.5758 40.1015 45.5056 39.6949 45.7163C39.4916 45.8567 39.356 45.9972 39.2883 46.0674C39.2205 46.1376 39.1527 46.2079 39.085 46.2079C39.085 46.2079 39.0172 46.2079 39.0172 46.1376C38.9494 45.9972 38.9494 45.5758 39.2205 45.1545C39.356 44.8736 39.5593 44.7331 39.5593 44.6629C39.4916 44.4522 39.0172 43.2584 39.6271 41.9242C40.0337 41.0112 41.118 40.5197 41.9312 40.8708C42.7444 41.2219 43.0154 41.8539 43.0154 42.3455C43.0154 42.6966 42.8799 43.0478 42.6766 43.118C42.6088 43.1882 42.4733 43.1882 42.4055 43.1882C42.3378 43.118 42.3378 42.9775 42.3378 42.8371C42.3378 42.5562 42.3378 42.2051 41.8634 41.9944C41.6601 41.8539 41.389 41.8539 41.118 41.9242C40.9147 41.9944 40.7114 42.1348 40.5758 42.5562C40.3725 43.0478 40.4403 43.5393 40.6436 43.9607C40.9147 44.4522 41.4568 44.8736 42.1345 45.014C43.2188 45.2949 44.303 44.4523 44.6419 43.118C44.7774 42.6966 44.7774 42.2753 44.6419 41.7837C44.3708 40.8006 43.6931 39.9579 42.2022 39.1854C41.6601 38.9045 40.5758 38.4129 40.1692 38.2023C40.3725 37.5 40.4403 37.2893 40.5081 37.0084C40.6436 36.7978 41.0502 36.3764 41.4568 36.3062C41.9312 36.1657 42.4055 36.4466 42.4055 36.5169C42.4055 36.5871 41.7956 36.7275 41.4568 37.5702C41.5923 37.6404 42.6766 37.9213 43.6254 38.5534C45.184 39.6067 45.6584 40.7303 45.7939 41.2219C45.9972 42.1348 45.9972 42.9073 45.7939 43.4691ZM46.1327 33.8483C45.7939 35.7444 44.7774 36.5871 43.8964 36.6573C43.8287 36.6573 43.7609 36.6573 43.6931 36.6573C43.4221 36.6573 43.2188 36.5871 43.151 36.4466C43.151 36.3764 43.151 36.3764 43.151 36.3062C43.151 36.236 43.2865 36.1657 43.4221 36.1657C43.6254 36.0955 43.8287 36.0253 44.0997 35.8146C44.8452 35.1826 44.7774 34.9017 44.7774 34.691V34.6208C44.7096 34.6208 44.6419 34.6208 44.5063 34.7612H44.4386C44.2353 34.8315 44.0997 34.8315 43.9642 34.8315C43.8964 34.7612 43.8287 34.7612 43.8287 34.6208C43.8287 34.5506 43.8964 34.4101 44.032 34.3399C44.0997 34.2697 44.2353 34.1292 44.303 34.059C44.7096 33.427 44.7774 32.7247 44.4386 32.0927C44.2353 31.6713 43.8964 31.25 43.0154 31.1798H42.9477C42.9477 31.1798 42.9477 31.1798 42.8799 31.1798C42.7444 31.1798 42.6089 31.1798 42.4733 31.25C41.4568 31.4607 40.7791 32.1629 40.3048 32.9354C39.6949 33.9185 39.4916 35.3933 39.4916 35.6742C39.2883 37.0084 38.8817 38.9747 36.171 42.486C35.8322 42.9073 35.6289 43.4691 35.7644 44.1011C36.0355 45.2247 37.052 45.2949 37.052 45.4354C37.052 45.5758 36.8487 45.5758 36.4421 45.5758C36.0355 45.5758 35.8999 45.4354 35.8999 45.4354C35.8999 45.4354 35.8322 45.7163 36.4421 46.1376C36.9164 46.4888 37.4586 46.4888 37.5263 46.6292C37.5263 46.8399 34.5446 47.5421 34.3413 44.382C34.3413 44.3118 34.3413 44.2416 34.3413 44.1713C31.0885 47.2612 30.1397 47.4017 29.8687 47.1208C29.7331 46.9803 30.072 46.9803 30.6819 46.2781C31.2918 45.5056 31.3596 45.2247 31.3596 45.2247C31.3596 45.2247 30.072 45.927 28.6489 45.7865C27.158 45.6461 25.8704 44.5225 26.006 44.1011C26.0737 43.75 26.9547 44.382 28.039 44.1713C29.0555 44.0309 29.1232 43.6096 29.1232 43.6096C29.1232 43.6096 28.9199 43.6096 28.5811 43.2584C28.2423 42.9073 27.7679 42.6264 28.039 42.3455C28.1745 42.2051 28.9199 42.5562 29.6654 42.5562C30.6141 42.5562 31.224 42.3455 31.224 42.3455C31.224 42.3455 30.8174 42.2051 30.4108 41.7837C30.0042 41.3624 29.9364 40.941 30.072 40.8708C30.1397 40.8006 30.2753 41.1517 30.8174 41.1517C31.4273 41.1517 31.4951 41.0112 31.4951 41.0112C31.4951 41.0112 31.224 40.8006 31.0885 40.5197C30.953 40.309 30.6141 39.5365 30.8174 39.3258C30.8852 39.2556 31.5629 40.0983 32.5794 40.2388C34.3413 40.3792 36.2388 38.9747 36.2388 38.9747C36.2388 38.9747 35.29 40.1685 33.257 41.9944C31.9695 43.118 30.3431 44.1011 30.4108 44.3118C30.5464 44.5927 31.8339 44.2416 34.0025 42.3455C34.6801 41.7135 35.1545 41.2921 36.1032 40.0983C37.7974 37.9213 38.204 35.5337 37.8652 33.6376C37.7296 32.8652 37.5263 32.2331 37.323 31.6713C36.3743 29.5646 35.3578 28.5112 33.6636 27.809C32.1728 27.177 30.953 27.7388 30.2753 28.0899C29.9364 28.2303 29.6654 28.3708 29.5976 28.2303C29.2588 27.809 29.9364 27.177 30.4786 26.6152C31.1563 25.9129 31.6306 25.632 31.7662 25.5618C31.6306 25.4916 31.1563 25.2809 30.7497 25.2107C30.5464 25.2107 30.2753 25.2107 30.0042 25.2809C29.6654 25.3511 29.3943 25.3511 29.3265 25.2107C29.2588 24.8596 30.6819 24.1573 31.4951 23.9466C32.3083 23.6657 32.9182 23.6657 33.0537 23.6657C33.0537 23.4551 32.9182 22.1208 33.0537 20.0843C33.1215 19.0309 33.3248 18.2584 33.4603 17.8371C33.6636 17.2753 33.8669 16.9242 34.0702 16.7837C34.138 16.7135 34.2058 16.7135 34.2735 16.7837C34.4091 16.8539 34.4091 17.1348 34.4091 17.5562C34.4091 17.8371 34.4091 18.118 34.4091 18.4691C34.4768 19.4522 34.8157 20.014 35.019 20.1545H35.0867C35.1545 20.1545 35.1545 20.014 35.2223 19.8034C35.29 19.5927 35.29 19.2416 35.4933 18.8202C35.8322 18.118 36.4421 17.3455 36.6454 17.4157C36.7131 17.4157 36.7131 17.486 36.7131 17.6264C36.7131 17.9775 36.6454 18.2584 36.5776 18.5393C36.5098 19.1713 36.3743 19.8736 36.4421 21.1376C36.5098 23.0337 37.3908 23.3146 37.4586 23.3146C37.5263 23.2444 37.9329 22.4719 38.5428 21.8399C38.6784 21.6994 38.8139 21.559 38.8817 21.4185C39.2883 20.9972 39.5593 20.6461 39.7626 20.6461C39.8304 20.6461 39.8982 20.7163 39.8982 20.7865C39.9659 20.927 39.8304 21.2079 39.6271 21.6994C39.356 22.4017 38.9494 23.4551 38.7461 24.7191C38.4073 27.177 38.7461 29.5646 38.7461 29.5646V29.7051L38.6784 29.5646C38.6784 29.5646 38.4751 29.0028 37.6619 27.7388C37.2553 27.177 36.9842 26.8258 36.7131 26.4747C36.3743 26.0534 36.0355 25.7022 35.5611 24.8596C35.019 23.9466 34.8834 23.1742 34.8157 22.7528C34.7479 22.3315 34.6801 22.191 34.4768 22.1208C34.4768 22.1208 34.4091 22.1208 34.4091 22.191C34.2058 22.4719 34.3413 24.2275 34.8157 25.2107C35.0867 25.7725 35.4256 26.1938 35.7644 26.6854C36.171 27.177 36.5776 27.809 37.1197 28.6517C38.0685 30.2669 38.5428 31.4607 38.7461 32.1629C38.8139 32.3034 38.8139 32.514 38.8817 32.6545C39.0172 32.4438 39.2205 32.1629 39.2205 32.0927C40.9147 30.1966 42.3378 30.0562 43.3543 30.2669C44.0997 30.4073 44.7096 30.8287 45.184 31.5309C46.065 32.0225 46.2683 33.0056 46.1327 33.8483ZM30.6819 14.677L29.3943 13.8343C29.5976 12.9916 30.4108 9.48034 32.4438 7.16292C34.5446 4.77528 37.1197 4.00281 39.356 4.00281C40.5758 4.00281 41.7279 4.21348 42.6089 4.42416C42.7444 4.42416 42.8122 4.49438 42.9477 4.49438C43.8287 4.70506 44.7774 4.91573 45.3873 4.70506C45.7261 4.63483 46.065 4.49438 46.2683 4.35393C46.4038 4.28371 46.5393 4.21348 46.6071 4.21348C46.6071 4.35393 46.4716 4.84551 46.065 5.4073C45.7939 5.75843 45.4551 5.9691 45.2518 6.10955C45.0485 6.32022 44.9129 6.46067 44.9129 6.60112C44.9129 6.67135 44.9807 6.8118 45.1162 7.02247C45.5228 7.79494 46.336 9.33989 46.2683 11.4466C46.1327 14.8174 44.5741 16.2219 43.5576 17.1348L43.4221 17.2753C42.7444 18.118 42.8121 18.8202 43.0154 19.3118C43.2865 20.014 43.9642 20.6461 44.7774 20.927C45.2518 21.1376 45.7939 21.1376 46.2005 21.2079C46.4716 21.2079 46.7426 21.2781 46.8104 21.3483C46.8782 21.559 46.6071 21.8399 46.065 22.2612C45.6584 22.5421 45.184 22.6124 45.184 22.6124C45.184 22.6124 45.184 22.6124 45.184 22.6826C45.184 22.6826 46.336 23.736 46.4716 25.1404C46.6071 26.5449 46.4038 27.3876 45.6584 28.0197C45.1162 28.5815 44.303 28.6517 43.9642 28.5815C43.8964 28.5815 43.8964 28.5112 43.8964 28.5112C43.8287 28.3006 44.0997 28.1601 44.4386 27.9494C44.5063 27.8792 44.5741 27.8792 44.6419 27.809C45.0485 27.5281 45.2518 27.0365 45.1162 26.7556C45.0485 26.6854 44.9807 26.6854 44.9129 26.6854C44.8452 26.6854 44.7774 26.6854 44.7096 26.7556C44.5741 26.8258 44.3708 26.8258 44.303 26.7556C44.2353 26.6152 44.2353 26.5449 44.303 26.4045C44.3708 26.264 44.4386 26.0534 44.4386 25.8427C44.5063 25.2809 44.4386 23.8764 43.6931 23.736H43.6254C43.5576 23.8062 43.5576 23.9466 43.5576 24.2275C43.5576 24.5787 43.5576 25.0702 43.3543 25.4213C43.0154 25.9129 42.5411 26.3343 42.3378 26.3343C42.27 26.3343 42.27 26.3343 42.2022 26.264C42.2022 26.1938 42.2022 26.1236 42.2022 25.9129C42.27 25.4916 42.4055 24.7191 42.2022 23.3146C42.1345 22.823 41.8634 22.2612 41.5246 21.7697C41.2535 21.2781 40.9824 20.7865 40.9147 20.3652C40.7791 19.5927 40.9147 19.3118 41.3213 18.9607C41.5923 18.75 41.5924 18.6096 41.5924 18.4691C41.5924 18.3287 41.5246 18.118 41.3213 18.0478C41.2535 18.0478 41.0502 17.9775 40.8469 17.9775C40.0337 17.9775 38.204 17.9775 36.9164 16.1517C35.8999 14.677 35.7644 13.2725 35.9677 11.6573C35.9677 11.6573 35.8322 11.0253 35.3578 10.5337C35.0867 10.323 34.8834 10.1826 34.6801 10.1124C34.5446 10.0421 34.4768 9.97191 34.4768 9.97191C34.4768 9.97191 34.4768 9.97191 34.4768 9.90169C34.6124 9.76124 35.019 9.55056 35.6289 9.69101C36.1032 9.76124 36.4421 9.97191 36.4421 9.97191C36.4421 9.97191 36.4421 9.97191 36.5098 9.97191C36.5098 9.97191 37.7296 8.49719 39.6949 8.63764C40.9147 8.70787 41.9989 9.97191 42.0667 11.236C42.0667 12.5702 41.5246 13.2022 40.9824 13.4129C40.5758 13.5534 40.1692 13.5534 39.9659 13.4129C39.8304 13.3427 39.8304 13.2022 39.7626 13.132C39.7626 12.9916 39.8304 12.9916 40.0337 12.8511C40.3048 12.7107 40.7791 12.5 40.7791 11.6573C40.7791 11.236 40.6436 10.8146 40.3725 10.5337C40.1692 10.323 39.8304 10.1124 39.2883 10.1124C38.6106 10.1124 38.0007 10.3933 37.6619 10.9551C37.1875 11.5871 36.9842 12.6404 37.1875 13.764C37.4586 15.4494 39.0172 16.6433 40.7791 16.4326C41.7956 16.2921 42.7444 15.7303 43.4898 14.7472C44.1675 13.8343 44.5741 12.6404 44.5741 11.5169C44.5741 8.70786 43.0155 5.75843 39.4238 5.61798C35.9677 5.47753 33.7992 7.72472 32.8504 9.05899C32.2405 9.90168 31.6306 11.4466 31.1563 12.7107C31.3596 12.6404 32.0372 12.5702 32.6471 12.8511C33.257 13.132 34.0025 13.9045 33.8669 14.2556C33.7992 14.3258 33.6636 14.3258 33.3926 14.2556C33.0537 14.1854 32.5794 14.1854 31.9695 14.2556C31.1563 14.3961 30.8174 14.6067 30.6819 14.677Z" fill="#990000"/>
<rect y="50" width="273" height="11" fill="#EAE8E1"/>
<path d="M33.4026 61H1V91.8613H33.4026V61Z" fill="black"/>
<path d="M49.4151 61H35.7354V91.8613H49.4151V61Z" fill="black"/>
<path d="M23.2534 94.1982H49.4361V110H23.2534V94.1982Z" fill="black"/>
<path d="M20.9207 94.1982H1V110H20.9207V94.1982Z" fill="black"/>
<path d="M154.377 73.6797C154.377 78.2036 157.718 80.5186 161.269 82.9614L161.273 82.9644C165.201 85.6816 169.254 88.4854 169.275 94.5796C169.275 100.675 164.947 104.923 158.769 104.923C156.94 104.923 155.659 104.647 154.524 104.392L154.423 104.369C153.514 104.165 152.636 103.967 151.582 103.967C151.267 103.967 151.141 103.967 150.847 104.01L150.678 104.031L150.72 103.861C150.763 103.627 150.763 103.033 150.763 102.587C150.763 102.013 150.699 101.482 150.636 100.93C150.573 100.356 150.51 99.7617 150.51 99.1035C150.51 98.6572 150.552 97.1494 151.12 95.875L151.141 95.811H151.603L151.582 96.0874C151.54 96.4697 151.498 96.8306 151.498 97.1919C151.498 101.27 155.385 103.415 159.231 103.415C162.551 103.415 165.913 101.355 165.913 96.7456C165.913 91.8818 162.404 89.4819 158.706 86.9541L158.69 86.9438C154.85 84.314 150.91 81.6157 150.91 75.9521C150.91 70.5786 154.755 66.8188 160.261 66.8188C161.858 66.8188 163.139 67.0737 164.274 67.2861C164.626 67.3521 164.971 67.418 165.313 67.4741C165.464 67.499 165.615 67.522 165.765 67.5425C165.889 67.5591 166.013 67.5737 166.137 67.5859C166.392 67.6113 166.647 67.626 166.901 67.626C167.216 67.626 167.447 67.626 167.741 67.5835L167.888 67.5625L167.867 67.7109C167.783 68.688 167.72 69.5801 167.72 71.0244C167.72 71.7681 167.72 73.0425 167.762 73.7856V73.9131H167.237L167.216 73.8071C166.502 70.0898 164.127 68.1147 160.345 68.1147C155.953 68.1147 154.377 70.9819 154.377 73.6797Z" fill="black"/>
<path fill-rule="evenodd" clip-rule="evenodd" d="M216.682 66.8403C205.061 66.8403 198.106 76.6528 198.106 86.147C198.106 95.3862 204.893 104.944 216.282 104.944C226.642 104.944 234.753 96.6182 234.753 85.9985C234.753 75.251 226.81 66.8403 216.682 66.8403ZM229.878 86.2959C229.878 96.9155 224.667 103.521 216.282 103.521C207.982 103.521 203.044 96.958 203.044 85.9985C203.044 80.1787 204.473 75.4634 207.183 72.3413C209.495 69.686 212.731 68.2207 216.282 68.2207C222.544 68.1997 229.878 72.936 229.878 86.2959Z" fill="black"/>
<path fill-rule="evenodd" clip-rule="evenodd" d="M112.653 92.1387L112.846 92.4863C115.544 97.3267 118.871 103.297 121.869 104.307L121.953 104.328V104.838L121.848 104.859C121.365 104.902 121.154 104.902 120.524 104.902C115.061 104.689 114.367 104.01 108.294 92.4976C108.258 92.4233 108.213 92.3418 108.164 92.251L108.159 92.2422C108.097 92.1279 108.027 92.0005 107.958 91.8604C107.286 90.5859 106.277 88.6748 105.373 87.7827C104.617 87.8887 103.945 87.9526 103.419 87.9526H100.204V99.8252C100.204 104.031 100.94 104.158 102.705 104.435L102.81 104.456V104.944H102.684C102.032 104.902 100.309 104.838 98.1658 104.838C96.1696 104.838 94.6986 104.902 93.6479 104.944H93.5219V104.456L93.627 104.435L93.6487 104.431C95.3981 104.136 96.1275 104.013 96.1275 99.8252V71.98C96.1275 68.582 95.6652 67.6685 93.732 67.3711L93.627 67.3501V66.8613H93.753C95.5181 66.9678 96.4637 66.9678 98.7332 66.9678C99.2872 66.9678 99.9963 66.9492 100.716 66.9307C101.089 66.9209 101.464 66.9111 101.822 66.9038C102.726 66.8828 103.608 66.8613 104.134 66.8613C111.656 66.8613 116.532 70.9819 116.532 77.354C116.532 81.644 113.842 85.1914 109.345 86.8481C110.162 87.6738 111.316 89.7422 112.653 92.1387ZM102.6 86.6357C110.984 86.6357 111.951 81.729 111.951 78.0337C111.951 72.1289 108.778 68.3057 103.86 68.3057C102.726 68.3057 101.738 68.3906 100.225 68.7944V86.6357H102.6Z" fill="black"/>
<path fill-rule="evenodd" clip-rule="evenodd" d="M265.916 104.328C262.893 103.275 259.582 97.3315 256.883 92.4883L256.817 92.3701L256.715 92.1875C255.292 89.6387 254.15 87.5947 253.35 86.8267C257.721 85.1489 260.326 81.644 260.326 77.4175C260.326 71.0454 255.472 66.9463 247.949 66.9463C247.489 66.9463 246.77 66.9629 245.977 66.9814L245.638 66.9888C245.28 66.9961 244.904 67.0059 244.532 67.0156L244.492 67.0171L243.517 67.0405C243.166 67.0479 242.837 67.0527 242.549 67.0527C240.279 67.0527 239.334 67.0527 237.569 66.9463H237.443V67.4351L237.548 67.4561C239.46 67.7534 239.943 68.667 239.943 72.0439V99.8467C239.943 104.031 239.208 104.158 237.443 104.435L237.338 104.456V104.944H237.464C238.514 104.902 239.964 104.838 241.982 104.838C244.125 104.838 245.848 104.902 246.499 104.944H246.625V104.456L246.52 104.435C244.755 104.158 244.02 104.031 244.02 99.8467V88.0161H247.214C247.802 88.0161 248.538 87.9526 249.42 87.8252C250.324 88.7173 251.332 90.6284 252.005 91.9028C252.131 92.1577 252.257 92.3916 252.362 92.5615C258.435 104.031 259.107 104.732 264.571 104.944L264.967 104.943L265.17 104.94C265.41 104.934 265.597 104.918 265.874 104.88L265.979 104.859V104.35L265.916 104.328ZM255.745 78.0972C255.745 81.7715 254.779 86.6782 246.415 86.6782H244.041V68.8794C245.554 68.4756 246.583 68.3906 247.655 68.3906C252.572 68.3906 255.745 72.1924 255.745 78.0972Z" fill="black"/>
<path d="M121.154 66.8188H121.26C132.775 67.0952 145.593 66.8828 148.031 66.7979H148.199L148.157 66.9678C147.715 68.3906 147.127 70.897 146.98 71.7041L146.959 71.8105H146.392L146.434 71.6616C146.45 71.5947 146.47 71.5049 146.488 71.4048C146.516 71.2505 146.539 71.0728 146.539 70.9185C146.539 69.4741 145.32 69.1128 136.158 69.1128V99.8257C136.158 104.012 136.887 104.136 138.614 104.43L138.638 104.435L138.743 104.456V104.944H138.617C137.965 104.902 136.221 104.838 134.141 104.838C132.208 104.838 130.737 104.902 129.665 104.944H129.539V104.456L129.644 104.435C131.388 104.158 132.124 104.031 132.124 99.8257V69.1343C124.159 69.1343 121.743 69.1343 120.23 72.3838L120.188 72.4478H119.705L119.726 72.2988C119.915 71.3433 120.167 70.4297 120.44 69.4741C120.603 68.9185 120.767 68.3418 120.93 67.7134C120.998 67.4531 121.066 67.1841 121.133 66.9038L121.154 66.8188Z" fill="black"/>
<path d="M199.135 66.8613H198.967C196.509 66.9038 183.712 67.1162 172.196 66.8613H172.091L172.07 66.9463C171.839 67.9023 171.608 68.7095 171.377 69.4951C171.104 70.4507 170.851 71.3643 170.662 72.3198L170.641 72.4688H171.125L171.167 72.4048C172.68 69.1768 175.096 69.1553 183.06 69.1553V99.8467C183.06 104.033 182.331 104.157 180.605 104.451L180.581 104.456L180.475 104.477V104.965H180.602L180.793 104.958C181.846 104.916 183.257 104.859 185.077 104.859C187.158 104.859 188.902 104.923 189.553 104.965H189.679V104.477L189.574 104.456C187.83 104.18 187.095 104.052 187.095 99.8467V69.1343C196.257 69.1343 197.475 69.4951 197.475 70.9395C197.475 71.1943 197.412 71.5127 197.37 71.6826L197.328 71.8315H197.896L197.917 71.7251C198.064 70.918 198.652 68.4121 199.093 66.9888L199.135 66.8613Z" fill="black"/>
<path fill-rule="evenodd" clip-rule="evenodd" d="M89.2983 103.012C89.8446 104.052 90.3699 104.286 91.6938 104.456L91.8619 104.414V104.902H91.7358C91.0844 104.859 89.3613 104.796 87.323 104.796C85.8101 104.796 84.3391 104.838 82.8051 104.902H82.679V104.414H82.7841C84.213 104.329 84.9064 103.776 84.9064 102.735C84.9064 102.679 84.897 102.612 84.8845 102.542L84.8644 102.438L80.4306 90.5439H73.3071C71.4789 90.5439 69.7348 90.5439 67.9907 90.5864L64.9647 98.8062C64.5234 100.017 64.1031 101.27 64.1031 102.247C64.1031 103.521 64.8176 104.222 66.3306 104.392L66.4357 104.414V104.902H66.3096C65.6371 104.859 63.809 104.796 61.5815 104.796C60.1526 104.796 59.4382 104.838 58.6397 104.881L57.9883 104.902V104.435L58.0723 104.414C60.678 103.797 61.4344 103.139 63.5778 97.4253L75.0932 66.543H75.7656L75.7866 66.6279L89.2983 103.012ZM73.244 88.8447H79.7161L74.0845 73.7432L68.579 88.8022C70.155 88.8447 71.647 88.8447 73.244 88.8447Z" fill="black"/>
</svg>
