<svg width="172" height="172" viewBox="0 0 172 172" fill="none" xmlns="http://www.w3.org/2000/svg">
<path d="M58.2347 142.869C55.6321 141.107 53.1791 139.434 53.1791 136.148C53.1791 134.206 54.3159 132.145 57.5167 132.145C60.2689 132.145 62.0039 133.579 62.5424 136.267C62.5424 136.327 62.6022 136.387 62.662 136.387H62.8714C62.9013 136.387 62.9313 136.387 62.9612 136.357C62.9911 136.327 62.9911 136.297 62.9911 136.267C62.9612 135.73 62.9612 134.804 62.9612 134.266C62.9612 133.34 62.9911 132.683 63.0808 131.846C63.0808 131.816 63.0808 131.757 63.0509 131.727C63.021 131.697 62.9911 131.697 62.9313 131.697C62.7219 131.727 62.5424 131.727 62.333 131.727C61.7048 131.727 61.0766 131.607 60.4184 131.488C59.5808 131.338 58.6535 131.159 57.4569 131.159C53.3885 131.159 50.5167 133.907 50.5167 137.851C50.5167 142.003 53.4483 143.974 56.2603 145.916C58.9825 147.768 61.5253 149.501 61.5253 153.026C61.5253 156.342 59.0723 157.835 56.6492 157.835C53.8372 157.835 51.0253 156.282 51.0253 153.354C51.0253 153.115 51.0552 152.847 51.0851 152.578V152.458C51.0851 152.428 51.0851 152.369 51.0552 152.369C51.0253 152.339 50.9954 152.339 50.9654 152.339H50.8458C50.786 152.339 50.756 152.369 50.7261 152.428C50.3073 153.354 50.2774 154.46 50.2774 154.788C50.2774 155.266 50.3372 155.714 50.3672 156.133C50.427 156.551 50.4569 156.909 50.4569 157.328C50.4569 157.656 50.4569 158.074 50.427 158.254C50.427 158.283 50.427 158.343 50.4569 158.373C50.4868 158.403 50.5167 158.403 50.5766 158.403C50.786 158.373 50.8757 158.373 51.115 158.373C51.9227 158.373 52.5808 158.522 53.2689 158.672C54.1065 158.851 55.0637 159.06 56.4099 159.06C60.9868 159.06 64.1877 155.953 64.1877 151.473C64.1577 146.902 61.1364 144.871 58.2347 142.869Z" fill="#990000"/>
<path d="M109.538 145.348C109.538 153.055 105.709 157.835 99.5467 157.835C93.4441 157.835 89.8244 153.085 89.8244 145.109C89.8244 139.165 92.3672 132.204 99.5467 132.204C104.183 132.204 109.538 135.64 109.538 145.348ZM99.8757 131.129C91.2603 131.129 86.1449 138.298 86.1449 145.229C86.1449 151.98 91.1706 158.94 99.5766 158.94C107.235 158.94 113.248 152.876 113.248 145.109C113.218 137.283 107.354 131.129 99.8757 131.129Z" fill="#990000"/>
<path d="M129.371 139.344C129.371 142.003 128.654 145.558 122.551 145.558H120.846V132.653C121.923 132.354 122.641 132.294 123.478 132.294C127.038 132.324 129.371 135.072 129.371 139.344ZM136.91 158.463C134.696 157.716 132.124 153.115 130.239 149.77C129.162 147.858 128.324 146.334 127.696 145.737C130.897 144.482 132.812 141.943 132.812 138.866C132.812 134.206 129.222 131.189 123.658 131.189C123.269 131.189 122.641 131.219 121.953 131.219C121.175 131.249 120.307 131.249 119.679 131.249C118.004 131.249 117.316 131.249 116.03 131.159C116 131.159 115.97 131.159 115.94 131.189C115.91 131.219 115.91 131.249 115.91 131.279V131.458C115.91 131.518 115.97 131.577 116.03 131.577C117.316 131.786 117.765 132.294 117.765 134.893V155.207C117.765 158.224 117.286 158.313 115.97 158.522C115.91 158.522 115.85 158.582 115.85 158.642V158.821C115.85 158.851 115.85 158.881 115.88 158.911C115.91 158.941 115.94 158.941 115.97 158.941C116.748 158.911 117.824 158.851 119.29 158.851C120.846 158.851 122.132 158.911 122.611 158.941C122.641 158.941 122.671 158.941 122.701 158.911C122.73 158.881 122.73 158.851 122.73 158.821V158.642C122.73 158.582 122.671 158.522 122.611 158.522C121.295 158.313 120.816 158.224 120.816 155.207V146.633H123.119C123.538 146.633 124.077 146.573 124.675 146.484C125.333 147.111 126.111 148.575 126.589 149.471C126.679 149.65 126.769 149.829 126.859 149.949C131.346 158.343 131.824 158.851 135.863 159C136.312 159 136.491 159 136.82 158.971C136.88 158.971 136.94 158.911 136.94 158.851V158.612C137 158.552 136.97 158.493 136.91 158.463Z" fill="#990000"/>
<path d="M86.4143 131.129C86.3844 131.099 86.3544 131.069 86.2946 131.069C84.4997 131.099 75.0467 131.248 66.5809 131.069C66.5211 131.069 66.4613 131.099 66.4613 131.158C66.2818 131.846 66.1322 132.443 65.9527 133.011C65.7433 133.727 65.5638 134.385 65.4143 135.072C65.4143 135.102 65.4143 135.161 65.4442 135.191C65.4741 135.221 65.504 135.251 65.5339 135.251H65.7134C65.7732 135.251 65.8031 135.221 65.8331 135.161C66.9399 132.831 68.7049 132.801 74.5083 132.801V155.146C74.5083 158.163 74.0296 158.253 72.7134 158.462C72.6536 158.462 72.5938 158.522 72.5938 158.581V158.761C72.5938 158.791 72.5938 158.82 72.6237 158.85C72.6536 158.88 72.6835 158.88 72.7134 158.88C73.4613 158.85 74.5382 158.791 76.004 158.791C77.5596 158.791 78.816 158.85 79.2946 158.88C79.3245 158.88 79.3544 158.88 79.3843 158.85C79.4143 158.82 79.4143 158.791 79.4143 158.761V158.581C79.4143 158.522 79.3544 158.462 79.2946 158.462C78.0083 158.253 77.4997 158.163 77.4997 155.146V132.801C84.1707 132.801 85.0681 133.07 85.0681 134.086C85.0681 134.265 85.0382 134.504 85.0083 134.624C85.0083 134.654 85.0083 134.713 85.0382 134.743C85.0681 134.773 85.098 134.803 85.1279 134.803H85.3673C85.4271 134.803 85.4869 134.743 85.4869 134.683C85.6066 134.086 86.0254 132.264 86.3544 131.248C86.4442 131.218 86.4442 131.158 86.4143 131.129Z" fill="#990000"/>
<path d="M47.0767 131.099C46.3288 131.129 44.863 131.159 43.6066 131.159C42.2604 131.159 40.7647 131.129 39.9869 131.099C39.957 131.099 39.9271 131.099 39.8972 131.129C39.8673 131.159 39.8673 131.189 39.8673 131.219V131.398C39.8673 131.458 39.9271 131.517 39.9869 131.517C41.3032 131.727 42.1707 131.876 42.1707 134.714V151.233C42.1707 154.34 40.675 157.716 38.2818 157.716C37.8331 157.716 37.4143 157.686 37.0254 157.626C35.3502 157.208 34.3032 156.043 33.675 155.206C33.5852 155.087 33.4955 154.967 33.4356 154.848C32.7476 153.802 32.4185 152.906 32.4185 152.876C32.3886 152.787 32.2989 152.757 32.2091 152.757C32.1194 152.787 32.0596 152.846 32.0596 152.966L32.6279 157.297C32.6279 157.357 32.6579 157.417 32.7177 157.447C34.3032 158.462 36.2476 158.761 36.6066 158.791C37.2348 158.881 37.7433 158.911 38.0425 158.911C38.2818 158.911 38.4314 158.911 38.4314 158.911C42.4399 158.911 45.1322 155.654 45.1322 150.815V134.714C45.1322 131.936 45.7903 131.816 47.1066 131.517L47.1664 131.488C47.2262 131.488 47.2562 131.428 47.2562 131.368V131.189C47.2562 131.159 47.2562 131.129 47.2262 131.099C47.1365 131.099 47.1066 131.099 47.0767 131.099Z" fill="#990000"/>
<path d="M129.551 61.257C128.654 61.8544 127.696 61.944 127.667 61.944C127.637 61.944 127.607 61.9739 127.607 62.0038C127.607 62.0336 127.607 62.0635 127.637 62.0934C127.667 62.1233 130.09 64.2143 130.329 67.0522C130.598 69.9499 130.149 71.563 128.684 72.9371C127.517 74.0424 125.812 74.1918 125.184 74.0424C125.034 74.0125 125.004 73.9827 125.004 73.9528C124.914 73.5943 125.453 73.206 126.111 72.7579C126.261 72.6683 126.41 72.5488 126.56 72.4592C127.397 71.8617 127.846 70.8759 127.577 70.3382C127.487 70.159 127.337 70.1291 127.158 70.1291C127.008 70.1291 126.859 70.1889 126.679 70.2486C126.35 70.3382 125.991 70.4577 125.812 70.2486C125.602 70.0395 125.692 69.8603 125.872 69.5018C126.021 69.2031 126.201 68.8446 126.231 68.3368C126.32 67.2315 126.171 64.3338 124.615 64.0052C124.555 64.0052 124.496 64.0052 124.436 64.0351C124.286 64.1546 124.286 64.5131 124.286 65.0806C124.286 65.8275 124.256 66.8133 123.837 67.4704C123.179 68.4861 122.132 69.2628 121.654 69.2628C121.534 69.2628 121.474 69.2329 121.414 69.1732C121.355 69.0836 121.384 68.8446 121.474 68.4861C121.654 67.6497 121.953 66.0963 121.504 63.1987C121.355 62.183 120.726 61.0777 120.158 60.0322C119.59 59.0165 119.051 58.0307 118.932 57.1943C118.722 55.6409 118.902 54.9837 119.769 54.3265C120.278 53.9382 120.367 53.5797 120.367 53.3407C120.367 53.1017 120.248 52.6536 119.829 52.5043C119.799 52.5043 119.799 52.5043 119.769 52.4744C119.56 52.4147 119.201 52.3848 118.812 52.3848C117.167 52.4147 113.308 52.4445 110.585 48.7403C108.372 45.7531 108.222 42.9451 108.641 39.6292V39.5993C108.641 39.5396 108.402 38.3148 107.355 37.3589C106.846 36.9108 106.337 36.6419 105.979 36.4627C105.769 36.3432 105.53 36.2536 105.53 36.164C105.53 36.164 105.53 36.1042 105.59 36.0744C105.859 35.8055 106.786 35.4172 108.073 35.5964C109.03 35.7458 109.718 36.1341 109.718 36.1341C109.748 36.164 109.778 36.1341 109.808 36.1042C109.837 36.0744 112.35 33.117 116.538 33.4456C119.051 33.6248 121.444 36.0744 121.504 38.733C121.564 41.3917 120.337 42.7957 119.261 43.1542C118.393 43.4529 117.585 43.423 117.107 43.0944C116.897 42.9451 116.748 42.736 116.748 42.497C116.748 42.2879 116.927 42.1684 117.286 41.9891C117.884 41.6904 118.812 41.2125 118.932 39.5396C118.991 38.6733 118.692 37.807 118.124 37.2095C117.735 36.7913 117.047 36.2835 115.91 36.3432C114.444 36.403 113.248 36.9705 112.44 38.0161C111.423 39.3305 111.064 41.3917 111.453 43.7516C112.021 47.187 115.342 49.5768 118.991 49.1884C121.145 48.9793 123.149 47.7545 124.675 45.783C126.111 43.9309 126.949 41.5411 126.979 39.2409C127.038 33.5053 123.718 27.5906 116.12 27.2918C108.85 27.023 104.333 31.5337 102.269 34.2223C100.983 35.8951 99.6366 39.0915 98.6495 41.6904C99.0982 41.6008 100.504 41.4216 101.761 42.0489C103.047 42.6762 104.543 44.2296 104.273 44.8868C104.214 45.066 103.825 44.9764 103.256 44.827C102.508 44.6179 101.461 44.6777 100.295 44.8569C98.2905 45.1258 97.4828 45.5141 97.2435 45.7232L97.3631 45.3647C97.3033 45.5739 97.2435 45.7232 97.2435 45.7232L94.5212 44.0503C94.9101 42.3476 96.6452 35.2081 100.983 30.5181C105.44 25.7086 110.795 24.1253 115.521 24.0955C118.094 24.0656 120.457 24.4539 122.402 24.902C122.641 24.9618 122.85 24.9916 123.06 25.0514C124.914 25.4696 126.859 25.8579 128.235 25.4995C128.983 25.3202 129.611 25.0215 130.09 24.7825C130.389 24.6332 130.688 24.4838 130.748 24.5137C130.748 24.5137 130.778 24.5436 130.778 24.5734C130.837 24.8722 130.568 25.8281 129.701 26.9931C129.162 27.7399 128.474 28.1581 127.996 28.4867C127.547 28.7556 127.248 28.9647 127.248 29.2634C127.248 29.4128 127.397 29.6816 127.667 30.1596C128.504 31.6532 130.239 34.7898 130.03 39.211C129.701 45.9921 126.47 48.8897 124.316 50.8314L124.047 51.0704H124.017C122.581 52.7134 122.761 54.2369 123.179 55.1928C123.808 56.6566 125.184 57.8814 126.949 58.5087C127.966 58.8671 129.073 58.9866 129.88 59.0763C130.479 59.136 131.077 59.1957 131.137 59.3451C131.346 59.8231 130.778 60.4803 129.551 61.257ZM129.82 84.7069C129.162 88.5605 126.979 90.2035 125.124 90.4425C124.974 90.4723 124.825 90.4723 124.705 90.4723C124.167 90.4723 123.748 90.323 123.628 90.084C123.598 89.9944 123.568 89.9048 123.598 89.8151C123.658 89.6658 123.867 89.5762 124.167 89.4865C124.526 89.367 125.034 89.1579 125.573 88.7397C127.158 87.4851 127.068 86.9474 127.008 86.5292C127.008 86.4694 126.979 86.4395 126.949 86.4395C126.859 86.3798 126.62 86.4993 126.35 86.6486L126.231 86.7084C125.872 86.8876 125.543 86.9175 125.273 86.798C125.124 86.7084 125.034 86.5889 125.004 86.4395C124.974 86.2603 125.184 86.0811 125.423 85.8421C125.632 85.6628 125.872 85.4537 126.021 85.2148C126.829 83.9601 126.979 82.4366 126.35 81.2417C125.902 80.3455 125.243 79.5091 123.299 79.3299C123.269 79.3299 123.209 79.3299 123.179 79.3299H123.12C122.88 79.3299 122.611 79.3597 122.312 79.4195C120.158 79.8377 118.722 81.2716 117.765 82.7951C117.765 82.825 117.735 82.8548 117.735 82.8548C116.419 84.7965 116.09 87.7838 116 88.3514V88.3812C115.581 91.0997 114.684 95.1325 108.97 102.212C108.312 103.019 107.803 104.184 108.132 105.498C108.731 107.769 110.914 107.978 110.884 108.217C110.855 108.545 110.406 108.545 109.598 108.485C108.79 108.426 108.491 108.157 108.491 108.157C108.491 108.157 108.282 108.665 109.628 109.651C110.645 110.397 111.812 110.367 111.842 110.696C111.872 111.084 105.53 112.548 105.141 106.155C105.141 106.006 105.111 105.857 105.111 105.707C98.2606 111.981 96.2563 112.279 95.7477 111.622C95.5084 111.294 96.1665 111.383 97.4828 109.89C98.8289 108.366 98.8589 107.679 98.8589 107.679C98.8589 107.679 96.1965 109.113 93.0853 108.844C89.9144 108.545 87.252 106.335 87.4913 105.468C87.6708 104.722 89.5554 106.006 91.8289 105.648C93.923 105.319 94.1024 104.483 94.1024 104.483C94.1024 104.483 93.6836 104.483 92.9956 103.766C92.3076 103.049 91.2905 102.451 91.8589 101.854C92.1879 101.495 93.7734 102.212 95.3289 102.242C97.3033 102.242 98.5597 101.794 98.5597 101.794C98.5597 101.794 97.752 101.495 96.9144 100.689C96.0768 99.8523 95.8973 99.0159 96.1366 98.8068C96.2862 98.6873 96.6153 99.3445 97.7221 99.3445C99.0084 99.3146 99.158 99.0159 99.158 99.0159C99.158 99.0159 98.6195 98.5081 98.3503 98.0301C98.111 97.5223 97.3332 96.0884 97.8118 95.5507C97.9614 95.3714 99.4272 97.1638 101.581 97.3729C105.29 97.7015 109.359 94.774 109.359 94.774C109.359 94.774 107.355 97.2235 103.107 100.898C100.384 103.228 96.9443 105.14 97.1537 105.588C97.393 106.126 100.085 105.498 104.752 101.615C106.248 100.36 107.205 99.5536 109.239 97.0443C112.829 92.6232 113.637 87.7838 112.919 83.9004C112.62 82.3769 112.231 81.0027 111.752 79.8377C109.748 75.536 107.594 73.4151 104.004 72.041C100.803 70.8162 98.3503 71.9215 96.8546 72.6085C96.1067 72.967 95.5982 73.1761 95.3888 72.8774C94.7306 71.9513 96.0469 70.6967 97.2136 69.5914C98.7093 68.1874 99.6965 67.6198 99.9657 67.5003C99.6965 67.3808 98.7392 66.9029 97.8118 66.8431C97.3332 66.8133 96.7948 66.9029 96.3161 66.9626C95.5683 67.0821 94.97 67.1717 94.8802 66.7834C94.7306 66.0366 97.7819 64.6923 99.4272 64.1546C101.102 63.6169 102.449 63.5273 102.688 63.5273C102.658 63.1688 102.389 60.3608 102.688 56.2682C102.837 54.1174 103.256 52.6238 103.555 51.7575C103.944 50.6522 104.393 49.9054 104.782 49.6664C104.932 49.5768 105.111 49.5768 105.231 49.6365C105.5 49.7859 105.5 50.3535 105.5 51.1899C105.5 51.6977 105.5 52.3549 105.56 53.042C105.739 55.1032 106.397 56.2384 106.786 56.4773C106.846 56.5072 106.906 56.5371 106.936 56.5072C107.085 56.4475 107.115 56.1786 107.175 55.8201C107.265 55.3422 107.355 54.6551 107.773 53.8187C108.432 52.4147 109.748 50.7717 110.196 50.8912C110.316 50.921 110.346 51.0704 110.346 51.2795C110.316 51.9367 110.196 52.5043 110.107 53.1017C109.897 54.3564 109.658 55.7604 109.808 58.3892C109.987 62.2427 111.782 62.7506 112.021 62.8103C112.141 62.6012 113.008 61.1076 114.265 59.7633C114.534 59.4945 114.773 59.1957 115.043 58.9269C115.82 58.0307 116.449 57.3436 116.897 57.3436H116.927C117.047 57.3436 117.167 57.4333 117.226 57.5528C117.376 57.7917 117.137 58.4191 116.718 59.4347C116.149 60.8387 115.282 62.9597 114.893 65.5586C114.175 70.5473 114.893 75.3867 114.923 75.4165L114.983 75.775L114.863 75.4464C114.863 75.4464 114.444 74.2515 112.679 71.6825C111.902 70.5174 111.273 69.8304 110.675 69.1732C109.927 68.3368 109.209 67.5601 108.222 65.8872C107.085 63.9754 106.786 62.5415 106.607 61.5856C106.457 60.779 106.367 60.3906 105.919 60.3309C105.859 60.3309 105.829 60.3608 105.769 60.4205C105.38 61.0478 105.59 64.5429 106.667 66.6041C107.235 67.7094 107.923 68.6056 108.701 69.6213C109.508 70.6668 110.406 71.8318 111.513 73.6242C113.517 76.8803 114.504 79.2701 114.983 80.704C115.102 81.0625 115.192 81.3612 115.282 81.6301C115.521 81.1521 115.91 80.5845 116.03 80.465C119.56 76.5816 122.641 76.3127 124.765 76.8206H124.795C126.32 77.1492 127.696 78.0453 128.654 79.3896C129.641 80.943 130.12 82.9146 129.82 84.7069ZM129.043 104.273C129.043 104.303 129.013 104.333 129.013 104.393C128.235 107.141 126.56 109.023 124.226 109.71C123.508 109.919 122.82 110.039 122.192 110.039C120.637 110.039 119.32 109.441 117.914 108.545C117.825 108.515 117.047 108.396 116.239 108.844C115.82 109.083 115.551 109.352 115.342 109.561C115.162 109.74 115.043 109.86 114.923 109.83C114.893 109.83 114.833 109.77 114.803 109.71C114.684 109.412 114.684 108.605 115.192 107.709C115.491 107.141 115.85 106.783 115.97 106.693C115.82 106.335 114.803 103.855 116.09 101.107C116.957 99.2549 119.231 98.2691 120.966 98.986C122.701 99.7029 123.239 101.047 123.179 101.943C123.12 102.69 122.85 103.318 122.491 103.586C122.312 103.706 122.102 103.736 121.953 103.676C121.743 103.586 121.714 103.347 121.714 103.049C121.684 102.541 121.654 101.824 120.696 101.286C120.218 101.017 119.649 100.987 119.171 101.197C118.812 101.346 118.333 101.704 118.064 102.481C117.705 103.527 117.735 104.542 118.184 105.379C118.722 106.424 119.859 107.201 121.384 107.559C123.628 108.097 125.961 106.424 126.709 103.766C126.919 102.959 127.038 102.033 126.739 101.047C126.141 99.0756 124.795 97.2833 121.534 95.7C120.427 95.1623 118.124 94.1467 117.226 93.7284C117.735 92.2946 117.795 91.8465 117.944 91.3386C118.243 90.8607 119.081 90.084 119.889 89.8749C120.816 89.6658 121.923 90.1139 121.893 90.2931C121.863 90.4723 120.637 90.7711 119.949 92.3543C120.218 92.4738 122.521 93.1011 124.496 94.3856C127.816 96.5365 128.743 98.8068 129.013 99.8224C129.491 101.495 129.402 103.049 129.043 104.273ZM96.8546 51.6679C94.8503 49.8158 93.2349 49.3378 93.2349 49.3378V45.8427C94.1922 46.3207 96.4059 47.4857 97.6623 48.5312C98.9187 49.5768 99.8759 50.5924 100.654 51.4587L100.115 54.9837C99.1879 53.9979 98.0212 52.7433 96.8546 51.6679ZM94.3118 58.0008C93.7435 53.9979 93.9828 52.1458 93.9828 52.1458C94.8802 52.4445 96.4059 53.968 96.9144 54.5057C96.9144 54.5057 96.7947 55.0435 97.1836 57.493C97.4529 59.3451 98.0212 61.0478 98.2306 61.7648L95.4187 63.0792C95.1494 62.183 94.611 60.1517 94.3118 58.0008ZM96.4358 81.9885C96.7648 84.6472 98.9785 87.1565 102.09 86.8279C103.436 86.6785 104.393 86.0512 105.051 85.3641L104.872 85.155C104.453 84.7667 102.987 83.3925 101.79 81.869C100.624 80.3754 100.055 79.5688 99.9358 79.4195L99.6067 78.9415C99.6366 78.9116 100.026 78.6428 101.192 78.6727C102.479 78.7324 103.705 79.7182 104.064 80.0169C104.064 80.0169 104.662 80.6741 106.577 82.6756C108.85 85.0355 110.496 86.1707 110.765 86.3499C110.765 87.037 110.585 88.3514 110.316 89.2774C109.269 88.7098 107.893 87.5747 107.235 87.037C107.145 86.9474 107.055 86.8876 106.996 86.8577C106.158 87.8734 104.932 88.8592 103.077 89.3671C102.658 89.4865 102.179 89.5463 101.731 89.5164C97.6623 89.3969 94.94 86.3798 94.2819 83.4224C94.0426 82.3171 94.1324 80.9131 94.1623 79.9572C94.1922 79.1208 94.252 78.3739 94.0426 77.8362C93.8332 77.2089 93.5341 76.8206 93.3247 76.5517C93.1452 76.2829 92.9956 76.1335 93.1452 75.9841C93.3546 75.7153 94.0725 75.8945 94.7306 76.3426C95.1494 76.6115 95.3289 76.9401 95.3888 77.1193C95.7777 76.5218 97.6623 73.9528 100.923 73.8333C102.03 73.8034 103.017 74.0424 103.765 74.5204C104.393 74.9087 104.812 75.4763 104.991 76.0439C105.111 76.492 105.111 76.8504 104.812 76.9998C104.662 77.0894 104.303 76.9401 103.825 76.7011C103.137 76.3725 102.06 76.014 100.803 76.1634C99.7862 76.2829 98.3503 76.9699 97.3631 78.2843C96.5853 79.3 96.2563 80.6144 96.4358 81.9885ZM82.8845 105.946C79.0554 109.412 76.0939 110.278 72.4742 110.875C68.4657 111.562 60.8076 110.487 60.8076 110.487L56.8588 97.7612C56.8588 97.7612 60.9571 101.615 63.111 103.318C65.2648 105.02 67.2691 105.946 70.3204 105.946C73.3717 105.946 75.4358 105.17 77.6794 102.78C79.923 100.39 80.7606 97.3131 81.3289 93.6687C81.7178 91.0399 81.5383 83.7809 81.5383 82.108L82.1067 42.6762C82.1067 42.6762 82.3759 34.1625 81.7777 32.0416C81.1794 29.8907 79.893 28.3374 79.1153 27.5308C77.4101 25.7385 73.7606 25.1709 73.7606 25.1709C72.7136 24.9916 72.4742 24.4838 72.564 23.976C72.6836 23.2292 73.3418 23.1097 73.3418 23.1097L99.1281 23.1694C99.1281 23.1694 99.7563 23.2292 99.8759 24.0058C99.9657 24.5137 99.7264 25.0215 98.6794 25.2008C98.6794 25.2008 95.0597 25.7982 93.3247 27.5607C92.5469 28.3672 91.2606 29.9206 90.6623 32.0714C90.064 34.2223 90.3332 42.7061 90.3332 42.7061V82.2275C90.3332 82.2275 90.423 89.845 89.4358 93.8479C88.7178 96.6261 87.1324 102.123 82.8845 105.946ZM54.017 103.915C52.611 106.872 50.2776 109.501 49.8289 109.083C49.47 108.724 49.9187 108.426 50.158 107.559C50.3973 106.663 50.4571 106.484 50.4571 106.484C50.4571 106.484 49.8289 107.38 47.5853 108.784C45.3417 110.188 44.9529 110.278 44.564 109.74C44.3247 109.382 44.893 108.993 45.4315 108.067C45.94 107.171 45.7905 107.201 45.7905 107.201C45.7905 107.201 43.8759 107.022 42.3204 106.335C40.7648 105.648 39.1195 104.034 39.1494 103.706C39.2093 103.288 39.8674 103.049 41.0341 102.451C42.2905 101.824 43.158 101.017 43.158 101.017C43.158 101.017 42.3204 100.808 41.8418 100.599C41.0939 100.241 40.346 99.8822 40.7947 99.4042C41.2135 99.0159 43.2178 100.36 46.299 97.4625C49.0212 94.8935 49.0212 91.1295 49.0212 91.1295C49.0212 91.1295 50.3375 95.5208 48.6024 99.0159C46.4486 103.318 42.4101 103.347 42.8588 104.244C43.3973 105.349 48.3332 104.363 50.4571 99.1951C52.2221 94.8935 50.3674 89.4268 49.0212 86.1707C48.6323 85.2446 48.1238 83.99 47.7947 83.0042C49.0212 83.5718 50.0383 83.8406 51.0255 83.9601C51.0255 83.9601 51.0255 83.9601 51.0255 83.99C51.0554 83.99 51.205 84.2588 51.205 84.2588C52.4016 86.1707 54.2563 86.8279 55.2435 87.2162C56.1708 87.5747 57.1879 87.7539 58.205 87.7539C59.0725 87.7539 59.97 87.6344 60.7776 87.3058C61.3161 87.0967 61.8247 86.8279 62.2135 86.4097C63.4101 85.1251 63.7093 81.182 64.2477 80.8832C64.4871 80.7339 65.0853 81.7197 65.3247 82.4366C65.564 83.1834 65.4443 83.9004 65.893 84.0796C66.2221 84.1991 66.4016 83.8406 67.0896 83.0639C68.0469 81.9586 67.8973 81.5106 68.3759 81.6898C68.8546 81.869 68.346 84.3186 68.1067 85.633C67.8674 86.9772 67.2392 88.919 67.2392 88.919C67.2392 88.919 68.8247 87.8734 70.3204 87.2162C74.4785 85.3641 76.0939 85.9317 76.1238 86.4395C76.1537 86.9474 75.1665 87.037 74.0896 88.3215C73.3118 89.2476 73.4913 89.4865 73.4913 89.4865C73.4913 89.4865 74.1195 89.5164 75.8546 89.0086C77.0811 88.6501 78.158 88.0825 78.4871 88.5904C78.846 89.0982 77.2306 91.2789 74.7477 92.9816C72.2648 94.6844 70.2606 95.3416 70.2606 95.3416C70.2606 95.3416 70.7392 95.8494 71.9657 96.0585C73.1922 96.2676 73.6708 96.0884 73.7905 96.4468C73.94 96.9248 72.564 97.343 70.2606 97.582C66.97 97.9106 65.2648 96.4767 65.2648 96.4767C65.2648 96.4767 65.6836 97.6716 65.205 98.8665C64.6965 100.091 64.5768 101.226 64.0982 101.137C63.6195 101.077 64.1879 99.9121 63.2606 98.7769C62.2734 97.5521 61.1366 97.2833 59.4614 95.9689C57.8161 94.7142 57.7563 93.6986 57.7563 93.6986C57.7563 93.6986 60.6281 94.774 65.3247 94.0272C69.8418 93.3102 71.2477 91.966 70.9187 91.4581C70.6195 91.01 69.8717 91.5776 67.7477 92.0854C65.2648 92.653 61.8845 92.5037 58.1452 91.8763C56.8289 91.6672 55.0341 91.0399 53.4187 89.9645C54.0469 91.2191 55.0939 93.4596 55.3332 95.0727C55.7819 97.821 55.4229 100.928 54.017 103.915ZM51.1153 63.4376C51.2947 62.2129 52.0127 60.8985 52.4315 60.3309C54.0768 60.0322 55.1238 60.9284 55.2734 61.0777C54.3759 62.8103 53.8076 64.7222 53.299 66.634C52.7007 66.395 51.8332 65.5287 51.1153 63.4376ZM51.5041 76.3725C50.6665 76.2829 48.5127 74.849 48.393 74.4905C48.393 73.7437 48.5725 72.0708 48.8717 71.085C49.9486 72.967 51.7135 73.7736 51.7135 73.7736C51.4144 74.9685 51.5041 76.3725 51.5041 76.3725ZM42.6794 59.7932C42.8888 59.1957 43.0682 58.7775 43.2477 58.4191C43.6067 57.6125 43.8161 57.1345 43.8759 56.0293C43.9657 54.7447 43.5768 53.7589 43.3375 53.4901C43.6665 53.52 44.6836 53.968 45.0725 54.8045C45.4016 55.4915 45.8802 57.2839 45.8204 57.5826C45.7905 57.6424 45.8503 57.6722 45.8503 57.7021C45.9101 57.732 45.97 57.7021 46.2093 57.5229C46.8973 57.015 48.9913 55.4318 52.7007 55.4019H52.7606C59.5811 55.4019 62.5725 61.705 62.6024 61.7648L62.6324 61.7947H62.6623C62.6922 61.7947 63.5896 62.0635 65.4144 61.2868C66.1324 60.9881 66.5512 60.5998 66.97 60.2413C67.658 59.6438 68.2563 59.1061 69.9016 59.0763C71.5768 59.0165 72.8332 59.9724 73.0426 60.6296C73.1024 60.779 73.1024 61.018 72.923 61.1375C72.6836 61.3167 72.6238 61.2868 72.4742 61.2271C72.2349 61.1076 71.846 60.9284 70.6195 61.1375C69.5725 61.2868 69.0939 62.2726 68.5853 63.2883C68.017 64.3936 67.4486 65.5287 66.1324 65.8573C64.9358 66.1859 63.5298 65.3495 63.2606 64.9313C63.2007 64.8118 63.0811 64.6624 62.9315 64.6923C62.8118 64.7222 62.752 64.9014 62.752 64.9612C62.752 64.9612 62.7221 66.0067 62.064 67.8289C61.4657 69.5018 58.7135 73.5047 53.299 72.041C49.9785 71.1448 48.6922 68.038 48.8418 66.1262C48.9016 65.4989 49.0811 65.0806 49.3802 65.0508C49.6195 65.0209 49.8289 65.2001 49.8888 65.3794C50.1281 66.0963 50.3973 66.8133 50.7862 67.4107C51.3247 68.2471 52.3118 69.2628 53.5084 69.5317C56.2007 70.1291 57.846 68.755 58.1452 68.4562C59.1623 67.5003 59.7306 65.9171 59.6409 64.2143C59.5212 62.0336 58.3845 60.6595 57.4272 59.8828C56.2306 58.897 54.6751 58.2996 53.1494 58.2697C53.1195 58.2697 53.0597 58.2697 53.0298 58.2697C51.0554 58.2697 49.0512 59.0763 47.4956 60.4504C45.5212 62.2129 44.3845 64.8417 44.1452 68.038C43.9358 70.7863 45.0725 73.8333 47.0768 76.014C48.6323 77.7167 50.5768 78.6428 52.5212 78.6727C52.5512 78.6727 52.5811 78.6727 52.6409 78.6727C57.7862 78.6727 61.1067 75.5062 64.6067 72.1604C67.8973 69.0238 71.2777 65.7976 76.6024 64.304C76.9913 64.1845 78.8161 64.0351 79.205 64.0052L79.1153 66.9029C76.1238 67.4704 71.9657 69.3823 72.1751 71.4435C72.3845 73.4748 73.7007 74.5801 74.3289 75.1178C74.4785 75.2373 74.6281 75.3568 74.6281 75.3867C74.6281 75.4166 74.5683 75.4464 74.3589 75.536C73.7905 75.7452 72.4742 75.8945 71.4571 75.4165C70.0811 74.7892 68.7349 72.5488 68.705 72.5189L68.6452 72.4293L68.5853 72.5189C68.5554 72.5488 64.4871 76.8206 62.2734 78.4337C60.8375 79.4792 57.0383 82.2574 52.5512 82.0483C49.44 81.8989 46.5682 80.4949 44.4742 78.0752C42.2606 75.536 41.064 72.0111 41.0939 68.1874C41.0939 64.6923 41.4828 63.1091 42.6794 59.7932ZM52.611 23.1694C52.6409 23.1694 55.8118 22.9006 58.8332 24.0955C60.1494 24.6332 61.1067 25.2904 61.9443 25.8878H61.9742C63.2306 26.7541 64.1879 27.4711 65.5939 27.023C67.1794 26.545 67.5084 25.2904 67.7178 24.4539C67.7777 24.2448 67.8674 23.8864 67.9272 23.8565C67.9871 23.8266 68.2862 23.9461 68.5255 24.3344C68.8247 24.7825 69.6024 26.4554 67.5084 29.5024C66.3418 31.1753 64.4571 31.5337 64.3674 31.5337C64.2776 31.5337 64.2178 31.5935 64.158 31.6532C64.1281 31.713 64.0982 31.8026 64.1281 31.8922C64.2477 32.3104 64.2477 32.639 64.2776 32.9377C64.3674 33.9833 64.2477 34.999 63.5597 36.7017C62.4828 39.3006 60.3289 40.8839 57.487 41.2423C54.7349 41.5709 52.4913 40.0175 51.6836 38.3148C50.9657 36.7316 50.9059 34.9093 51.564 33.2663C51.7135 32.8481 52.0127 32.5195 52.252 32.4598C52.3717 32.4299 52.4614 32.4598 52.5512 32.5494C52.7905 32.7286 52.7905 33.2066 52.8204 33.8339C52.8503 34.4613 52.8802 35.2379 53.1494 36.0445C53.5682 37.2991 54.9742 38.4941 56.7691 38.3447C59.5212 38.1057 61.1665 36.164 61.2264 33.1767C61.2862 30.0401 59.2819 26.3359 53.4187 26.1865C53.3289 26.1865 53.2691 26.1865 53.1794 26.1865C50.9657 26.1865 48.9315 27.0529 47.3161 28.666C45.4614 30.5778 44.2648 33.4456 44.205 36.1939C44.1153 41.5411 46.8973 44.6478 49.2306 46.3207C51.5939 47.9935 55.3033 48.113 59.94 46.6493C61.5255 46.1414 63.2306 45.4544 64.8759 44.7673H64.9059C66.3118 44.1997 67.7477 43.6023 69.1238 43.0944C69.9315 42.8256 70.799 42.5866 71.6965 42.4372L71.8161 42.4074L71.7264 42.2879C71.3674 41.8099 70.9187 41.1826 70.3204 40.376C69.1238 38.7032 68.7947 35.6263 69.1836 34.999C69.3631 34.7301 69.5426 34.6704 69.6324 34.6704C69.6922 34.6704 69.752 34.7002 69.752 34.7002C69.752 34.7301 69.752 34.8795 69.752 34.9093C69.752 35.0587 69.752 35.7756 70.0811 36.1341C70.4999 36.6121 71.0682 36.7017 71.3076 36.5822C71.3973 36.5225 71.4571 36.4627 71.4871 36.3731C71.5768 36.1042 71.9956 34.7899 72.7136 33.7144C73.3118 32.8183 75.1965 31.4441 76.3033 31.4441C76.3332 31.4441 76.3631 31.4441 76.393 31.4441C76.6922 31.474 76.9016 31.5935 77.0212 31.8325C77.1708 32.1312 76.6922 32.639 76.5426 32.7884C75.5853 33.8041 74.4486 35.2977 74.3589 37.7771C74.3289 38.9421 74.658 39.8981 75.346 40.6449C76.6623 42.0489 78.9358 42.2281 79.3845 42.2281V44.7972C79.3247 44.7972 79.2349 44.7972 79.1751 44.7972C76.9315 44.7972 75.1366 47.5156 74.5383 50.2937C74.0298 52.564 74.4785 55.7604 74.658 56.7163C74.8375 57.5826 74.6879 57.7917 74.6281 57.8216C74.5982 57.8515 74.5683 57.8515 74.4785 57.8515C73.9999 57.7619 73.1324 56.7462 72.1751 55.1928C71.4571 54.0577 71.6665 52.6238 71.7862 51.8471C71.846 51.4289 71.8759 51.2496 71.7264 51.1301L71.6965 51.1003C71.6067 51.0107 71.4571 50.921 71.2777 50.921C71.2777 50.921 71.2777 50.921 71.2477 50.921C71.0383 50.921 70.799 51.0704 70.5298 51.3393C70.3204 51.5782 70.2007 51.7276 70.1409 51.8471C70.0212 52.0263 70.0212 52.0263 69.7221 51.9068C69.7221 51.9068 69.6922 51.9068 69.6623 51.8471C69.4529 51.2795 70.0811 49.3079 70.8888 47.9338C71.517 46.8285 72.205 46.0219 73.1623 45.2751L73.4315 45.066L73.0725 45.1556C69.8118 45.9024 66.5512 47.187 64.5469 48.5611C61.9742 50.2937 59.8802 52.3549 58.3546 54.6551C58.0853 54.4759 57.8161 54.3564 57.158 54.0577C56.7392 53.8784 56.111 53.6693 55.6324 53.6096C56.2606 52.7433 57.3674 51.5782 57.8161 51.1003L57.846 51.0704C57.9059 50.9808 57.9059 50.8314 57.8161 50.7418C57.7264 50.6522 57.6067 50.6223 57.487 50.6522C57.3674 50.7119 54.4657 51.8172 49.3503 49.9054C45.1922 48.352 40.8546 43.8412 41.0939 35.8951C41.393 27.7698 47.0768 23.6474 52.611 23.1694ZM34.6922 117.507H136.192V16H34.6922V117.507Z" fill="#990000"/>
<rect x="0.5" y="0.5" width="171" height="171" stroke="#D1CFC7"/>
</svg>
