<svg width="251" height="122" viewBox="0 0 251 122" fill="none" xmlns="http://www.w3.org/2000/svg">
<path d="M22.6062 108.193C20.3636 106.69 18.2499 105.263 18.2499 102.461C18.2499 100.805 19.2294 99.047 21.9876 99.047C24.3591 99.047 25.8542 100.27 26.3182 102.563C26.3182 102.613 26.3697 102.664 26.4213 102.664H26.6017C26.6275 102.664 26.6533 102.664 26.679 102.639C26.7048 102.613 26.7048 102.588 26.7048 102.563C26.679 102.104 26.679 101.314 26.679 100.856C26.679 100.066 26.7048 99.5055 26.7822 98.7922C26.7822 98.7668 26.7822 98.7158 26.7564 98.6903C26.7306 98.6649 26.7048 98.6649 26.6533 98.6649C26.4728 98.6903 26.3182 98.6903 26.1377 98.6903C25.5964 98.6903 25.0551 98.5884 24.488 98.4865C23.7662 98.3592 22.9671 98.2063 21.936 98.2063C18.4303 98.2063 15.9557 100.55 15.9557 103.913C15.9557 107.454 18.4819 109.135 20.9049 110.791C23.2507 112.37 25.4417 113.848 25.4417 116.854C25.4417 119.682 23.328 120.956 21.24 120.956C18.817 120.956 16.3939 119.631 16.3939 117.134C16.3939 116.93 16.4197 116.701 16.4455 116.472V116.37C16.4455 116.345 16.4455 116.294 16.4197 116.294C16.3939 116.268 16.3681 116.268 16.3424 116.268H16.2392C16.1877 116.268 16.1619 116.294 16.1361 116.345C15.7753 117.134 15.7495 118.077 15.7495 118.357C15.7495 118.765 15.801 119.147 15.8268 119.503C15.8784 119.86 15.9041 120.166 15.9041 120.522C15.9041 120.803 15.9041 121.159 15.8784 121.312C15.8784 121.338 15.8784 121.389 15.9041 121.414C15.9299 121.44 15.9557 121.44 16.0073 121.44C16.1877 121.414 16.265 121.414 16.4712 121.414C17.1672 121.414 17.7343 121.541 18.3272 121.669C19.049 121.822 19.8738 122 21.0338 122C24.9777 122 27.7359 119.351 27.7359 115.529C27.7101 111.632 25.1066 109.899 22.6062 108.193Z" fill="#990000"/>
<path d="M66.8146 110.307C66.8146 116.879 63.5151 120.955 58.205 120.955C52.9464 120.955 49.8273 116.905 49.8273 110.103C49.8273 105.033 52.0184 99.0978 58.205 99.0978C62.2004 99.0978 66.8146 102.027 66.8146 110.307ZM58.4885 98.1807C51.0646 98.1807 46.6567 104.295 46.6567 110.205C46.6567 115.962 50.9873 121.898 58.2307 121.898C64.8297 121.898 70.011 116.727 70.011 110.103C69.9852 103.429 64.9328 98.1807 58.4885 98.1807Z" fill="#990000"/>
<path d="M83.9049 105.186C83.9049 107.454 83.2862 110.485 78.0277 110.485H76.5583V99.4801C77.4863 99.2253 78.105 99.1744 78.8268 99.1744C81.8942 99.1998 83.9049 101.544 83.9049 105.186ZM90.4008 121.49C88.4932 120.854 86.2764 116.93 84.6524 114.077C83.7244 112.447 83.0027 111.148 82.4613 110.638C85.2195 109.568 86.8693 107.403 86.8693 104.779C86.8693 100.805 83.776 98.2318 78.9814 98.2318C78.6463 98.2318 78.105 98.2573 77.5121 98.2573C76.8419 98.2827 76.0944 98.2827 75.553 98.2827C74.1095 98.2827 73.5166 98.2827 72.4082 98.2063C72.3824 98.2063 72.3567 98.2063 72.3309 98.2318C72.3051 98.2573 72.3051 98.2827 72.3051 98.3082V98.4611C72.3051 98.512 72.3567 98.563 72.4082 98.563C73.5166 98.7413 73.9033 99.1744 73.9033 101.391V118.714C73.9033 121.287 73.4909 121.363 72.3567 121.541C72.3051 121.541 72.2535 121.592 72.2535 121.643V121.796C72.2535 121.822 72.2535 121.847 72.2793 121.873C72.3051 121.898 72.3309 121.898 72.3567 121.898C73.0269 121.873 73.9548 121.822 75.2179 121.822C76.5583 121.822 77.6668 121.873 78.0792 121.898C78.105 121.898 78.1308 121.898 78.1566 121.873C78.1823 121.847 78.1823 121.822 78.1823 121.796V121.643C78.1823 121.592 78.1308 121.541 78.0792 121.541C76.945 121.363 76.5326 121.287 76.5326 118.714V111.402H78.5174C78.8783 111.402 79.3423 111.351 79.8578 111.275C80.4249 111.81 81.0952 113.058 81.5076 113.822C81.5849 113.975 81.6623 114.128 81.7396 114.23C85.6062 121.389 86.0186 121.822 89.4986 121.949C89.8852 121.949 90.0399 121.949 90.3234 121.924C90.375 121.924 90.4265 121.873 90.4265 121.822V121.618C90.4781 121.567 90.4523 121.516 90.4008 121.49Z" fill="#990000"/>
<path d="M46.8888 98.1804C46.863 98.1549 46.8372 98.1295 46.7857 98.1295C45.239 98.155 37.0934 98.2823 29.7984 98.1295C29.7469 98.1295 29.6953 98.155 29.6953 98.2059C29.5407 98.7918 29.4118 99.3013 29.2571 99.7854C29.0767 100.397 28.922 100.957 28.7931 101.543C28.7931 101.569 28.7931 101.62 28.8189 101.645C28.8447 101.671 28.8704 101.696 28.8962 101.696H29.0509C29.1024 101.696 29.1282 101.671 29.154 101.62C30.1078 99.6325 31.6286 99.607 36.6294 99.607V118.662C36.6294 121.235 36.217 121.312 35.0828 121.49C35.0312 121.49 34.9797 121.541 34.9797 121.592V121.745C34.9797 121.77 34.9797 121.796 35.0054 121.821C35.0312 121.847 35.057 121.847 35.0828 121.847C35.7272 121.821 36.6552 121.77 37.9183 121.77C39.2587 121.77 40.3413 121.821 40.7538 121.847C40.7796 121.847 40.8053 121.847 40.8311 121.821C40.8569 121.796 40.8569 121.77 40.8569 121.745V121.592C40.8569 121.541 40.8053 121.49 40.7538 121.49C39.6454 121.312 39.2071 121.235 39.2071 118.662V99.607C44.9555 99.607 45.7288 99.8363 45.7288 100.702C45.7288 100.855 45.703 101.059 45.6772 101.161C45.6772 101.186 45.6772 101.237 45.703 101.263C45.7288 101.288 45.7546 101.314 45.7803 101.314H45.9866C46.0381 101.314 46.0897 101.263 46.0897 101.212C46.1928 100.702 46.5537 99.1485 46.8372 98.2823C46.9145 98.2569 46.9145 98.2059 46.8888 98.1804Z" fill="#990000"/>
<path d="M12.9915 98.1551C12.347 98.1806 11.0839 98.206 10.0013 98.206C8.84132 98.206 7.55246 98.1806 6.88225 98.1551C6.85647 98.1551 6.83069 98.1551 6.80492 98.1806C6.77914 98.206 6.77914 98.2315 6.77914 98.257V98.4098C6.77914 98.4608 6.83069 98.5117 6.88225 98.5117C8.01645 98.6901 8.76399 98.8174 8.76399 101.238V115.325C8.76399 117.975 7.47513 120.853 5.41294 120.853C5.02628 120.853 4.6654 120.828 4.3303 120.777C2.88677 120.42 1.98457 119.427 1.44324 118.713C1.36591 118.612 1.28858 118.51 1.23702 118.408C0.644147 117.516 0.360597 116.752 0.360597 116.726C0.33482 116.65 0.257488 116.624 0.180156 116.624C0.102824 116.65 0.0512695 116.701 0.0512695 116.803L0.541038 120.497C0.541038 120.548 0.566815 120.599 0.61837 120.624C1.98457 121.49 3.66009 121.745 3.96942 121.77C4.51074 121.847 4.94895 121.872 5.20673 121.872C5.41294 121.872 5.54183 121.872 5.54183 121.872C8.99599 121.872 11.3159 119.096 11.3159 114.969V101.238C11.3159 98.8684 11.883 98.7665 13.0172 98.5117L13.0688 98.4863C13.1203 98.4863 13.1461 98.4353 13.1461 98.3844V98.2315C13.1461 98.206 13.1461 98.1806 13.1203 98.1551C13.043 98.1551 13.0172 98.1551 12.9915 98.1551Z" fill="#990000"/>
<path d="M84.0595 38.5947C83.2862 39.1042 82.4613 39.1806 82.4355 39.1806C82.4098 39.1806 82.384 39.2061 82.384 39.2315C82.384 39.257 82.384 39.2825 82.4098 39.308C82.4355 39.3334 84.5235 41.1167 84.7297 43.5368C84.9617 46.0079 84.5751 47.3835 83.312 48.5554C82.3067 49.498 80.8373 49.6253 80.296 49.498C80.1671 49.4725 80.1414 49.447 80.1414 49.4215C80.064 49.1158 80.528 48.7847 81.0951 48.4025C81.224 48.3261 81.3529 48.2242 81.4818 48.1478C82.2035 47.6383 82.5902 46.7976 82.3582 46.3391C82.2809 46.1862 82.152 46.1607 81.9973 46.1607C81.8684 46.1607 81.7396 46.2117 81.5849 46.2626C81.3013 46.3391 80.992 46.441 80.8373 46.2626C80.6569 46.0843 80.7342 45.9315 80.8889 45.6258C81.0178 45.371 81.1725 45.0653 81.1982 44.6322C81.2756 43.6897 81.1467 41.2186 79.8063 40.9384C79.7547 40.9384 79.7032 40.9384 79.6516 40.9638C79.5227 41.0657 79.5227 41.3714 79.5227 41.8555C79.5227 42.4923 79.4969 43.333 79.1361 43.8935C78.569 44.7596 77.6667 45.422 77.2543 45.422C77.1512 45.422 77.0996 45.3965 77.0481 45.3455C76.9965 45.2691 77.0223 45.0653 77.0997 44.7596C77.2543 44.0463 77.5121 42.7216 77.1254 40.2505C76.9965 39.3844 76.4552 38.4418 75.9655 37.5502C75.4757 36.684 75.0117 35.8433 74.9086 35.1301C74.7281 33.8053 74.8828 33.2449 75.6303 32.6844C76.0686 32.3533 76.1459 32.0476 76.1459 31.8438C76.1459 31.64 76.0428 31.2578 75.6819 31.1305C75.6561 31.1305 75.6561 31.1305 75.6303 31.105C75.4499 31.054 75.1406 31.0286 74.8055 31.0286C73.3877 31.054 70.0625 31.0795 67.7167 27.9206C65.8092 25.3731 65.6803 22.9785 66.0412 20.1507V20.1253C66.0412 20.0743 65.835 19.0298 64.9328 18.2146C64.4946 17.8325 64.0563 17.6032 63.747 17.4504C63.5666 17.3485 63.3604 17.2721 63.3604 17.1956C63.3604 17.1956 63.3604 17.1447 63.4119 17.1192C63.6439 16.8899 64.443 16.5588 65.5514 16.7116C66.3763 16.839 66.9692 17.1702 66.9692 17.1702C66.9949 17.1956 67.0207 17.1702 67.0465 17.1447C67.0723 17.1192 69.2376 14.5972 72.8464 14.8774C75.0117 15.0303 77.0739 17.1192 77.1254 19.3865C77.177 21.6538 76.1201 22.8511 75.1921 23.1568C74.4446 23.4115 73.7486 23.3861 73.3362 23.1058C73.1557 22.9785 73.0268 22.8001 73.0268 22.5963C73.0268 22.418 73.1815 22.3161 73.4908 22.1633C74.0064 21.9085 74.8055 21.5009 74.9086 20.0743C74.9601 19.3355 74.7024 18.5968 74.2126 18.0873C73.8775 17.7306 73.2846 17.2975 72.3051 17.3485C71.042 17.3994 70.0109 17.8835 69.3149 18.7751C68.4385 19.896 68.1292 21.6538 68.4643 23.6663C68.954 26.5959 71.8153 28.6339 74.9601 28.3027C76.8161 28.1244 78.5432 27.0799 79.8578 25.3986C81.0951 23.8191 81.8169 21.7811 81.8427 19.8196C81.8942 14.9284 79.0329 9.88431 72.4855 9.62956C66.2216 9.40028 62.3293 13.247 60.5506 15.5398C59.4422 16.9664 58.2822 19.6922 57.4316 21.9085C57.8182 21.8321 59.0298 21.6792 60.1124 22.2142C61.2208 22.7492 62.5097 24.0739 62.2777 24.6343C62.2262 24.7872 61.891 24.7108 61.4013 24.5834C60.7568 24.4051 59.8546 24.456 58.8493 24.6089C57.1223 24.8381 56.4263 25.1693 56.22 25.3476L56.3232 25.0419C56.2716 25.2203 56.22 25.3476 56.22 25.3476L53.8743 23.921C54.2094 22.469 55.7045 16.3804 59.4422 12.3809C63.283 8.27938 67.8972 6.92921 71.97 6.90373C74.1868 6.87826 76.2232 7.20943 77.8988 7.59156C78.105 7.64251 78.2854 7.66798 78.4658 7.71893C80.064 8.07558 81.7396 8.40676 82.9253 8.10106C83.5697 7.94821 84.1111 7.69346 84.5235 7.48966C84.7813 7.36228 85.0391 7.23491 85.0906 7.26038C85.0906 7.26038 85.1164 7.28586 85.1164 7.31133C85.1679 7.56608 84.9359 8.38128 84.1884 9.37481C83.7244 10.0117 83.1315 10.3683 82.7191 10.6486C82.3324 10.8778 82.0747 11.0562 82.0747 11.3109C82.0747 11.4383 82.2035 11.6676 82.4355 12.0752C83.1573 13.3489 84.6524 16.0238 84.472 19.7941C84.1884 25.5769 81.4044 28.048 79.5485 29.7039L79.3165 29.9077H79.2907C78.0534 31.3088 78.2081 32.608 78.5689 33.4232C79.1103 34.6715 80.296 35.716 81.8169 36.251C82.6933 36.5567 83.6471 36.6586 84.3431 36.735C84.8586 36.7859 85.3742 36.8369 85.4257 36.9643C85.6061 37.3719 85.1164 37.9323 84.0595 38.5947ZM84.2915 58.5925C83.7244 61.8788 81.8427 63.2799 80.2445 63.4837C80.1156 63.5092 79.9867 63.5092 79.8836 63.5092C79.4196 63.5092 79.0587 63.3818 78.9556 63.178C78.9298 63.1016 78.9041 63.0252 78.9298 62.9488C78.9814 62.8214 79.1618 62.745 79.4196 62.6685C79.7289 62.5666 80.1671 62.3883 80.6311 62.0317C81.9973 60.9617 81.92 60.5032 81.8684 60.1465C81.8684 60.0956 81.8427 60.0701 81.8169 60.0701C81.7396 60.0191 81.5333 60.121 81.3013 60.2484L81.1982 60.2994C80.8889 60.4522 80.6054 60.4777 80.3734 60.3758C80.2445 60.2994 80.1671 60.1975 80.1414 60.0701C80.1156 59.9172 80.296 59.7644 80.5022 59.5606C80.6827 59.4077 80.8889 59.2294 81.0178 59.0256C81.7138 57.9557 81.8427 56.6564 81.3013 55.6374C80.9147 54.8732 80.3476 54.1599 78.6721 54.007C78.6463 54.007 78.5947 54.007 78.5689 54.007H78.5174C78.3112 54.007 78.0792 54.0325 77.8214 54.0835C75.9654 54.4401 74.7281 55.6629 73.9033 56.9621C73.9033 56.9876 73.8775 57.0131 73.8775 57.0131C72.7433 58.669 72.4597 61.2165 72.3824 61.7005V61.726C72.0215 64.0442 71.2482 67.4833 66.3247 73.5209C65.7576 74.2087 65.3194 75.2023 65.603 76.3232C66.1185 78.2593 68.0003 78.4376 67.9745 78.6414C67.9487 78.9216 67.562 78.9216 66.8661 78.8707C66.1701 78.8197 65.9123 78.5904 65.9123 78.5904C65.9123 78.5904 65.7319 79.0235 66.8918 79.8642C67.7683 80.5011 68.7736 80.4756 68.7994 80.7558C68.8251 81.087 63.3604 82.3353 63.0252 76.8836C63.0252 76.7562 62.9995 76.6289 62.9995 76.5015C57.0965 81.8512 55.3694 82.106 54.9312 81.5455C54.725 81.2653 55.2921 81.3417 56.4263 80.068C57.5862 78.7688 57.612 78.1828 57.612 78.1828C57.612 78.1828 55.3178 79.4056 52.637 79.1764C49.9046 78.9216 47.6104 77.0365 47.8167 76.2977C47.9713 75.6608 49.5953 76.7562 51.5544 76.4505C53.3588 76.1703 53.5134 75.457 53.5134 75.457C53.5134 75.457 53.1525 75.457 52.5597 74.8456C51.9668 74.2342 51.0904 73.7247 51.5801 73.2152C51.8637 72.9095 53.2299 73.5209 54.5703 73.5464C56.2716 73.5464 57.3542 73.1643 57.3542 73.1643C57.3542 73.1643 56.6583 72.9095 55.9365 72.2217C55.2147 71.5084 55.0601 70.7951 55.2663 70.6168C55.3952 70.5149 55.6787 71.0753 56.6325 71.0753C57.7409 71.0498 57.8698 70.7951 57.8698 70.7951C57.8698 70.7951 57.4058 70.362 57.1738 69.9544C56.9676 69.5213 56.2974 68.2985 56.7098 67.84C56.8387 67.6871 58.1018 69.2156 59.9578 69.3939C63.1541 69.6742 66.6599 67.1776 66.6599 67.1776C66.6599 67.1776 64.9328 69.2666 61.2724 72.4C58.9267 74.3871 55.9623 76.0175 56.1427 76.3996C56.3489 76.8581 58.6689 76.3232 62.6901 73.0114C63.979 71.9415 64.8039 71.2536 66.5567 69.1137C69.65 65.3434 70.346 61.2165 69.7273 57.9047C69.4696 56.6055 69.1345 55.4336 68.722 54.4401C66.9949 50.7717 65.139 48.963 62.0457 47.7911C59.2875 46.7467 57.1738 47.6892 55.8849 48.2752C55.2405 48.5809 54.8023 48.7592 54.6219 48.5044C54.0548 47.7147 55.189 46.6448 56.1943 45.7022C57.4831 44.5049 58.3338 44.0208 58.5658 43.9189C58.3338 43.817 57.5089 43.4094 56.7098 43.3585C56.2974 43.333 55.8334 43.4094 55.421 43.4604C54.7765 43.5623 54.261 43.6387 54.1836 43.3075C54.0548 42.6707 56.684 41.5243 58.1018 41.0657C59.5453 40.6072 60.7053 40.5308 60.9115 40.5308C60.8857 40.2251 60.6537 37.8304 60.9115 34.3403C61.0404 32.5061 61.4013 31.2324 61.6591 30.4936C61.9942 29.551 62.3808 28.9141 62.7159 28.7103C62.8448 28.6339 62.9995 28.6339 63.1026 28.6849C63.3346 28.8122 63.3346 29.2963 63.3346 30.0096C63.3346 30.4426 63.3346 31.0031 63.3861 31.589C63.5408 33.3468 64.1079 34.3148 64.443 34.5187C64.4946 34.5441 64.5461 34.5696 64.5719 34.5441C64.7008 34.4932 64.7266 34.2639 64.7781 33.9582C64.8554 33.5506 64.9328 32.9647 65.2937 32.2514C65.8608 31.054 66.9949 29.6529 67.3816 29.7548C67.4847 29.7803 67.5105 29.9077 67.5105 30.086C67.4847 30.6464 67.3816 31.1305 67.3043 31.64C67.1238 32.7099 66.9176 33.9072 67.0465 36.1491C67.2012 39.4353 68.7478 39.8684 68.954 39.9194C69.0571 39.741 69.8047 38.4673 70.8873 37.3209C71.1193 37.0916 71.3255 36.8369 71.5575 36.6076C72.2277 35.8433 72.7691 35.2574 73.1557 35.2574H73.1815C73.2846 35.2574 73.3877 35.3339 73.4393 35.4358C73.5682 35.6396 73.3619 36.1745 73.0011 37.0407C72.5113 38.238 71.7638 40.0467 71.4286 42.2631C70.81 46.5174 71.4286 50.6443 71.4544 50.6698L71.506 50.9755L71.4029 50.6953C71.4029 50.6953 71.042 49.6763 69.5211 47.4854C68.8509 46.4919 68.3096 45.906 67.7941 45.3455C67.1496 44.6322 66.531 43.9699 65.6803 42.5433C64.7008 40.9129 64.443 39.6901 64.2883 38.8749C64.1595 38.1871 64.0821 37.8559 63.6955 37.8049C63.6439 37.8049 63.6181 37.8304 63.5666 37.8814C63.2315 38.4163 63.4119 41.3969 64.3399 43.1547C64.8297 44.0973 65.4225 44.8615 66.0927 45.7277C66.7887 46.6193 67.562 47.6128 68.5158 49.1413C70.2429 51.9181 71.0935 53.9561 71.506 55.1789C71.6091 55.4846 71.6864 55.7393 71.7638 55.9686C71.97 55.561 72.3051 55.077 72.4082 54.9751C75.4499 51.6633 78.105 51.4341 79.9352 51.8671H79.9609C81.2756 52.1474 82.4613 52.9116 83.2862 54.058C84.1368 55.3827 84.5493 57.064 84.2915 58.5925ZM83.6213 75.2787C83.6213 75.3042 83.5955 75.3296 83.5955 75.3806C82.9253 77.7243 81.4818 79.3292 79.4712 79.9151C78.8525 80.0935 78.2596 80.1954 77.7183 80.1954C76.3779 80.1954 75.2437 79.6859 74.0322 78.9216C73.9548 78.8961 73.2846 78.7942 72.5886 79.1764C72.2277 79.3802 71.9958 79.6094 71.8153 79.7878C71.6606 79.9406 71.5575 80.0425 71.4544 80.017C71.4286 80.017 71.3771 79.9661 71.3513 79.9151C71.2482 79.6604 71.2482 78.9726 71.6864 78.2083C71.9442 77.7243 72.2535 77.4186 72.3566 77.3422C72.2277 77.0365 71.3513 74.922 72.4597 72.5783C73.2073 70.9989 75.1664 70.1582 76.6614 70.7696C78.1565 71.381 78.6205 72.5274 78.5689 73.2916C78.5174 73.9285 78.2854 74.4635 77.9761 74.6928C77.8214 74.7947 77.641 74.8201 77.5121 74.7692C77.3316 74.6927 77.3059 74.489 77.3059 74.2342C77.2801 73.8011 77.2543 73.1897 76.4294 72.7312C76.017 72.5019 75.5272 72.4764 75.1148 72.6548C74.8055 72.7821 74.393 73.0878 74.161 73.7502C73.8517 74.6418 73.8775 75.508 74.2641 76.2213C74.7281 77.1129 75.7077 77.7752 77.0223 78.0809C78.9556 78.5395 80.9662 77.1129 81.6107 74.8456C81.7911 74.1578 81.8942 73.3681 81.6365 72.5274C81.1209 70.846 79.9609 69.3175 77.1512 67.9673C76.1974 67.5088 74.2126 66.6426 73.4393 66.286C73.8775 65.0632 73.929 64.6811 74.0579 64.248C74.3157 63.8404 75.0375 63.178 75.7335 62.9997C76.5325 62.8214 77.4863 63.2035 77.4605 63.3564C77.4348 63.5092 76.3779 63.764 75.785 65.1141C76.017 65.216 78.0019 65.751 79.7032 66.8464C82.5644 68.6806 83.3635 70.6168 83.5955 71.4829C84.0079 72.9095 83.9306 74.2342 83.6213 75.2787ZM55.8849 30.4172C54.1579 28.8377 52.7659 28.4301 52.7659 28.4301V25.4495C53.5908 25.8571 55.4983 26.8507 56.5809 27.7423C57.6636 28.6339 58.4884 29.5001 59.1587 30.2388L58.6947 33.2449C57.8956 32.4042 56.8903 31.3343 55.8849 30.4172ZM53.6939 35.8179C53.2041 32.4042 53.4103 30.8248 53.4103 30.8248C54.1836 31.0795 55.4983 32.3787 55.9365 32.8373C55.9365 32.8373 55.8334 33.2958 56.1685 35.3848C56.4005 36.9642 56.8903 38.4163 57.0707 39.0277L54.6476 40.1486C54.4156 39.3844 53.9516 37.6521 53.6939 35.8179ZM55.5241 56.2743C55.8076 58.5416 57.7151 60.6815 60.396 60.4013C61.5559 60.2739 62.3808 59.7389 62.9479 59.153L62.7933 58.9747C62.4324 58.6435 61.1693 57.4716 60.1382 56.1724C59.1329 54.8987 58.6431 54.2108 58.54 54.0835L58.2565 53.6759C58.2822 53.6504 58.6173 53.4211 59.6226 53.4466C60.7311 53.4975 61.7879 54.3382 62.0973 54.593C62.0973 54.593 62.6128 55.1534 64.2626 56.8602C66.2216 58.8728 67.6394 59.8408 67.8714 59.9937C67.8714 60.5796 67.7167 61.7005 67.4847 62.4902C66.5825 62.0062 65.3968 61.0381 64.8297 60.5796C64.7523 60.5032 64.675 60.4522 64.6234 60.4267C63.9017 61.2929 62.8448 62.1336 61.2466 62.5666C60.8857 62.6685 60.4733 62.7195 60.0866 62.694C56.5809 62.5921 54.2352 60.0191 53.6681 57.4971C53.4619 56.5545 53.5392 55.3572 53.565 54.542C53.5908 53.8287 53.6423 53.1918 53.4619 52.7333C53.2814 52.1983 53.0237 51.8671 52.8432 51.6379C52.6886 51.4086 52.5597 51.2812 52.6886 51.1538C52.869 50.9246 53.4877 51.0774 54.0548 51.4595C54.4156 51.6888 54.5703 51.969 54.6219 52.1219C54.957 51.6124 56.5809 49.4215 59.3907 49.3196C60.3444 49.2942 61.1951 49.498 61.8395 49.9056C62.3808 50.2367 62.7417 50.7208 62.8964 51.2048C62.9995 51.5869 62.9995 51.8926 62.7417 52.02C62.6128 52.0964 62.3035 51.969 61.891 51.7652C61.2982 51.485 60.3702 51.1793 59.2875 51.3067C58.4111 51.4086 57.1738 51.9945 56.3232 53.1154C55.6529 53.9816 55.3694 55.1025 55.5241 56.2743ZM43.847 76.7053C40.5475 79.6604 37.9955 80.3992 34.8765 80.9087C31.4223 81.4946 24.8233 80.5775 24.8233 80.5775L21.4207 69.7251C21.4207 69.7251 24.9522 73.0114 26.8082 74.4635C28.6641 75.9156 30.3912 76.7053 33.0205 76.7053C35.6498 76.7053 37.4284 76.0429 39.3617 74.0049C41.295 71.9669 42.0168 69.343 42.5065 66.235C42.8416 63.9932 42.687 57.8028 42.687 56.3762L43.1767 22.7492C43.1767 22.7492 43.4087 15.4888 42.8932 13.6801C42.3776 11.8459 41.2692 10.5212 40.599 9.83336C39.1297 8.30486 35.9849 7.82083 35.9849 7.82083C35.0827 7.66798 34.8765 7.23491 34.9538 6.80183C35.0569 6.16495 35.624 6.06305 35.624 6.06305L57.844 6.114C57.844 6.114 58.3853 6.16495 58.4884 6.8273C58.5658 7.26038 58.3596 7.69346 57.4574 7.84631C57.4574 7.84631 54.3383 8.35581 52.8432 9.85883C52.173 10.5467 51.0646 11.8714 50.549 13.7056C50.0335 15.5398 50.2655 22.7747 50.2655 22.7747V56.4781C50.2655 56.4781 50.3428 62.9742 49.4922 66.3879C48.8735 68.7571 47.5073 73.4445 43.847 76.7053ZM18.9719 74.973C17.7603 77.495 15.7497 79.7368 15.3631 79.3802C15.0537 79.0745 15.4404 78.8197 15.6466 78.0809C15.8528 77.3167 15.9044 77.1638 15.9044 77.1638C15.9044 77.1638 15.3631 77.9281 13.4298 79.1254C11.4965 80.3227 11.1614 80.3992 10.8263 79.9406C10.62 79.6349 11.1098 79.3037 11.5738 78.514C12.012 77.7498 11.8831 77.7752 11.8831 77.7752C11.8831 77.7752 10.2334 77.6224 8.89296 77.0365C7.55254 76.4505 6.13479 75.0749 6.16057 74.7947C6.21213 74.438 6.77923 74.2342 7.78454 73.7247C8.86719 73.1897 9.61473 72.5019 9.61473 72.5019C9.61473 72.5019 8.89296 72.3236 8.48053 72.1453C7.83609 71.8396 7.19166 71.5339 7.57832 71.1263C7.9392 70.7951 9.66628 71.9415 12.3213 69.4704C14.6671 67.2795 14.6671 64.0697 14.6671 64.0697C14.6671 64.0697 15.8013 67.8145 14.3062 70.7951C12.4502 74.4635 8.97029 74.489 9.35695 75.2532C9.82094 76.1958 14.0742 75.3551 15.9044 70.9479C17.4252 67.2795 15.8271 62.6176 14.6671 59.8408C14.332 59.0511 13.8938 57.9811 13.6102 57.1405C14.6671 57.6245 15.5435 57.8538 16.3942 57.9557C16.3942 57.9557 16.3942 57.9557 16.3942 57.9811C16.4199 57.9811 16.5488 58.2104 16.5488 58.2104C17.5799 59.8408 19.1781 60.4013 20.0287 60.7324C20.8278 61.0381 21.7043 61.191 22.5807 61.191C23.3282 61.191 24.1016 61.0891 24.7975 60.8089C25.2615 60.6305 25.6997 60.4013 26.0349 60.0446C27.0659 58.9492 27.3237 55.5865 27.7877 55.3317C27.9939 55.2044 28.5095 56.045 28.7157 56.6564C28.9219 57.2933 28.8188 57.9047 29.2055 58.0576C29.489 58.1595 29.6437 57.8538 30.2366 57.1914C31.0614 56.2488 30.9325 55.8667 31.345 56.0196C31.7574 56.1724 31.3192 58.2614 31.113 59.3823C30.9068 60.5286 30.3654 62.1845 30.3654 62.1845C30.3654 62.1845 31.7316 61.2929 33.0205 60.7324C36.6035 59.153 37.9955 59.637 38.0213 60.0701C38.0471 60.5032 37.1964 60.5796 36.2684 61.675C35.5982 62.4647 35.7529 62.6685 35.7529 62.6685C35.7529 62.6685 36.2942 62.694 37.7893 62.2609C38.8462 61.9552 39.7741 61.4712 40.0577 61.9043C40.367 62.3374 38.975 64.1971 36.8355 65.6491C34.696 67.1012 32.9689 67.6616 32.9689 67.6616C32.9689 67.6616 33.3814 68.0947 34.4382 68.273C35.4951 68.4514 35.9076 68.2985 36.0107 68.6042C36.1395 69.0118 34.9538 69.3685 32.9689 69.5723C30.1334 69.8525 28.6641 68.6297 28.6641 68.6297C28.6641 68.6297 29.025 69.6487 28.6126 70.6677C28.1744 71.7122 28.0713 72.6802 27.6588 72.6038C27.2464 72.5529 27.7362 71.5593 26.9371 70.5913C26.0864 69.5468 25.1069 69.3175 23.6633 68.1966C22.2456 67.1267 22.194 66.2605 22.194 66.2605C22.194 66.2605 24.6687 67.1776 28.7157 66.5407C32.6081 65.9294 33.8196 64.783 33.536 64.3499C33.2783 63.9678 32.6338 64.4518 30.8036 64.8849C28.6641 65.3689 25.7513 65.2415 22.5291 64.7066C21.3949 64.5282 19.8483 63.9932 18.4563 63.0761C18.9977 64.1461 19.8999 66.0567 20.1061 67.4324C20.4927 69.7761 20.1834 72.4255 18.9719 74.973ZM16.4715 40.4543C16.6261 39.4099 17.2448 38.289 17.6057 37.8049C19.0234 37.5502 19.9256 38.3144 20.0545 38.4418C19.2812 39.9194 18.7914 41.5498 18.3532 43.1802C17.8377 42.9764 17.0901 42.2376 16.4715 40.4543ZM16.8066 51.485C16.0848 51.4086 14.2289 50.1858 14.1258 49.8801C14.1258 49.2432 14.2804 47.8166 14.5382 46.9759C15.4662 48.5809 16.987 49.2687 16.987 49.2687C16.7293 50.2877 16.8066 51.485 16.8066 51.485ZM9.20229 37.3464C9.38273 36.8369 9.53739 36.4802 9.69206 36.1745C10.0014 35.4867 10.1818 35.0791 10.2334 34.1365C10.3107 33.0411 9.97561 32.2004 9.76939 31.9711C10.0529 31.9966 10.9294 32.3787 11.2645 33.092C11.548 33.678 11.9605 35.2065 11.9089 35.4612C11.8831 35.5122 11.9347 35.5377 11.9347 35.5631C11.9862 35.5886 12.0378 35.5631 12.244 35.4103C12.8369 34.9772 14.6413 33.627 17.8377 33.6016H17.8892C23.7665 33.6016 26.3442 38.9768 26.37 39.0277L26.3957 39.0532H26.4215C26.4473 39.0532 27.2206 39.2825 28.793 38.6201C29.4117 38.3654 29.7726 38.0342 30.1334 37.7285C30.7263 37.219 31.2419 36.7605 32.6596 36.735C34.1031 36.684 35.1858 37.4992 35.3662 38.0597C35.4178 38.187 35.4178 38.3909 35.2631 38.4928C35.0569 38.6456 35.0053 38.6201 34.8765 38.5692C34.6702 38.4673 34.3351 38.3144 33.2783 38.4928C32.3761 38.6201 31.9636 39.4608 31.5254 40.327C31.0356 41.2695 30.5459 42.2376 29.4117 42.5178C28.3806 42.798 27.1691 42.0847 26.9371 41.7281C26.8855 41.6262 26.7824 41.4988 26.6535 41.5243C26.5504 41.5498 26.4988 41.7026 26.4988 41.7536C26.4988 41.7536 26.4731 42.6452 25.906 44.1992C25.3904 45.6258 23.0189 49.0394 18.3532 47.7911C15.4919 47.0269 14.3835 44.3775 14.5124 42.7471C14.564 42.2121 14.7186 41.8555 14.9764 41.83C15.1826 41.8045 15.3631 41.9574 15.4146 42.1102C15.6208 42.7216 15.8528 43.333 16.1879 43.8425C16.6519 44.5558 17.5026 45.422 18.5337 45.6512C20.8536 46.1607 22.2714 44.9889 22.5291 44.7341C23.4056 43.9189 23.8953 42.5688 23.818 41.1167C23.7149 39.257 22.7354 38.0852 21.9105 37.4228C20.8794 36.5821 19.539 36.0726 18.2243 36.0471C18.1986 36.0471 18.147 36.0471 18.1212 36.0471C16.4199 36.0471 14.6929 36.735 13.3524 37.9068C11.6511 39.4099 10.6716 41.6517 10.4654 44.3775C10.2849 46.7212 11.2645 49.3196 12.9916 51.1793C14.332 52.6314 16.0075 53.4211 17.683 53.4466C17.7088 53.4466 17.7346 53.4466 17.7861 53.4466C22.2198 53.4466 25.0811 50.7462 28.097 47.893C30.9325 45.2182 33.8454 42.4669 38.4337 41.1931C38.7688 41.0912 40.3412 40.9638 40.6763 40.9384L40.599 43.4094C38.0213 43.8935 34.4382 45.5239 34.6187 47.2816C34.7991 49.0139 35.9333 49.9565 36.4747 50.4151C36.6035 50.517 36.7324 50.6189 36.7324 50.6443C36.7324 50.6698 36.6809 50.6953 36.5004 50.7717C36.0107 50.95 34.8765 51.0774 34 50.6698C32.8143 50.1348 31.6543 48.2242 31.6285 48.1987L31.577 48.1223L31.5254 48.1987C31.4996 48.2242 27.9939 51.8671 26.0864 53.2428C24.8491 54.1344 21.5754 56.5036 17.7088 56.3253C15.028 56.1979 12.5533 55.0006 10.7489 52.9371C8.84141 50.7717 7.81032 47.7657 7.83609 44.5049C7.83609 41.5243 8.1712 40.1741 9.20229 37.3464ZM17.7603 6.114C17.7861 6.114 20.5185 5.88473 23.122 6.90373C24.2562 7.36228 25.0811 7.92273 25.8029 8.43223H25.8286C26.9113 9.17101 27.7362 9.78241 28.9477 9.40028C30.3139 8.99268 30.5974 7.92273 30.7779 7.20943C30.8294 7.0311 30.9068 6.7254 30.9583 6.69993C31.0099 6.67445 31.2676 6.77635 31.4739 7.10753C31.7316 7.48966 32.4018 8.91626 30.5974 11.5147C29.5921 12.9413 27.9681 13.247 27.8908 13.247C27.8135 13.247 27.7619 13.298 27.7104 13.3489C27.6846 13.3999 27.6588 13.4763 27.6846 13.5527C27.7877 13.9094 27.7877 14.1896 27.8135 14.4443C27.8908 15.336 27.7877 16.2021 27.1948 17.6542C26.2668 19.8705 24.4109 21.2207 21.962 21.5264C19.5905 21.8066 17.6572 20.4819 16.9613 19.0298C16.3426 17.6797 16.291 16.1257 16.8581 14.7246C16.987 14.3679 17.2448 14.0877 17.451 14.0367C17.5541 14.0113 17.6315 14.0367 17.7088 14.1132C17.915 14.266 17.915 14.6736 17.9408 15.2086C17.9666 15.7436 17.9923 16.4059 18.2243 17.0937C18.5852 18.1637 19.7968 19.1827 21.3434 19.0553C23.7149 18.8515 25.1326 17.1956 25.1842 14.6481C25.2358 11.9733 23.5087 8.81436 18.4563 8.68698C18.379 8.68698 18.3274 8.68698 18.2501 8.68698C16.3426 8.68698 14.5897 9.42576 13.1978 10.8014C11.5996 12.4318 10.5685 14.8774 10.5169 17.2211C10.4396 21.7811 12.8369 24.4305 14.8475 25.8571C16.8839 27.2837 20.0803 27.3856 24.0758 26.1374C25.442 25.7043 26.9113 25.1184 28.329 24.5324H28.3548C29.5663 24.0484 30.8036 23.5389 31.9894 23.1058C32.6854 22.8766 33.4329 22.6728 34.2062 22.5454L34.3094 22.5199L34.232 22.418C33.9227 22.0104 33.536 21.4754 33.0205 20.7876C31.9894 19.361 31.7059 16.7371 32.041 16.2021C32.1956 15.9728 32.3503 15.9219 32.4276 15.9219C32.4792 15.9219 32.5307 15.9474 32.5307 15.9474C32.5307 15.9728 32.5307 16.1002 32.5307 16.1257C32.5307 16.2531 32.5307 16.8645 32.8143 17.1702C33.1752 17.5778 33.6649 17.6542 33.8711 17.5523C33.9485 17.5013 34 17.4504 34.0258 17.374C34.1031 17.1447 34.464 16.0238 35.0827 15.1067C35.5982 14.3424 37.2222 13.1706 38.1759 13.1706C38.2017 13.1706 38.2275 13.1706 38.2533 13.1706C38.5111 13.1961 38.6915 13.298 38.7946 13.5018C38.9235 13.7565 38.5111 14.1896 38.3822 14.317C37.5573 15.1831 36.5778 16.4569 36.5004 18.5713C36.4747 19.5648 36.7582 20.38 37.3511 21.0169C38.4853 22.2142 40.4443 22.3671 40.831 22.3671V24.5579C40.7795 24.5579 40.7021 24.5579 40.6506 24.5579C38.7173 24.5579 37.1706 26.8761 36.6551 29.2453C36.2169 31.1814 36.6035 33.9072 36.7582 34.7225C36.9129 35.4612 36.784 35.6396 36.7324 35.665C36.7066 35.6905 36.6809 35.6905 36.6035 35.6905C36.1911 35.6141 35.4436 34.7479 34.6187 33.4232C34 32.4552 34.1805 31.2324 34.2836 30.57C34.3351 30.2134 34.3609 30.0605 34.232 29.9586L34.2062 29.9331C34.1289 29.8567 34 29.7803 33.8454 29.7803C33.8454 29.7803 33.8454 29.7803 33.8196 29.7803C33.6391 29.7803 33.4329 29.9077 33.2009 30.1369C33.0205 30.3407 32.9174 30.4681 32.8658 30.57C32.7627 30.7229 32.7627 30.7229 32.5049 30.621C32.5049 30.621 32.4792 30.621 32.4534 30.57C32.273 30.086 32.8143 28.4046 33.5103 27.2328C34.0516 26.2902 34.6445 25.6024 35.4693 24.9655L35.7013 24.7872L35.392 24.8636C32.5823 25.5005 29.7726 26.5959 28.0455 27.7678C25.8286 29.2453 24.0242 31.0031 22.7096 32.9647C22.4776 32.8118 22.2456 32.7099 21.6785 32.4552C21.3176 32.3023 20.7763 32.124 20.3639 32.0731C20.9052 31.3343 21.8589 30.3407 22.2456 29.9331L22.2714 29.9077C22.3229 29.8312 22.3229 29.7039 22.2456 29.6274C22.1683 29.551 22.0652 29.5255 21.962 29.551C21.8589 29.602 19.3585 30.5445 14.9506 28.9141C11.3676 27.5894 7.62988 23.7427 7.83609 16.9664C8.09387 10.0372 12.9916 6.5216 17.7603 6.114ZM2.31976 86.5641H89.7821V0H2.31976V86.5641Z" fill="#990000"/>
<path d="M115.079 12.7601L115.081 12.8035C115.081 12.8289 115.054 12.8543 115.027 12.8797C115.001 12.9051 114.974 12.9051 114.947 12.9051H114.787C114.734 12.9051 114.681 12.8797 114.681 12.8289V12.7781L114.672 12.7428C114.411 11.6485 114.281 11.1014 111.826 11.1014L97.4487 11.1014C93.1274 11.1014 90.2199 8.81508 90.2199 5.41098L90.2199 5.08074C90.2199 4.8267 90.2465 4.39484 90.3266 3.86136C90.3532 3.55652 90.62 1.90528 91.5269 0.55888C91.5536 0.508073 91.607 0.482669 91.6603 0.482669L95.5282 0C95.6082 0 95.6882 0.0508065 95.7149 0.177825C95.7149 0.254036 95.6882 0.330247 95.6082 0.355651C95.5815 0.355651 94.7813 0.635091 93.8476 1.21938C93.7409 1.27018 93.6342 1.34639 93.5275 1.42261C92.7807 1.95608 91.7403 2.84521 91.3669 4.26782C91.3135 4.59807 91.2869 4.95372 91.2869 5.33477C91.2869 7.36707 94.3011 8.63725 97.0753 8.63725L111.826 8.63725C114.361 8.63725 114.494 7.90055 114.681 6.78279C114.681 6.73198 114.734 6.68117 114.787 6.68117H114.947C114.974 6.68117 115.001 6.68117 115.027 6.70657C115.054 6.73198 115.054 6.75738 115.054 6.78279C115.027 7.44328 115.001 8.71347 115.001 9.85663C115.001 10.8998 115.052 12.1129 115.079 12.7601Z" fill="#C4C4C4" fill-opacity="0.5"/>
<path d="M104.544 22.2802C106.118 20.0955 107.639 18.0124 110.546 18.0124C112.28 18.0124 114.121 18.9777 114.121 21.6959C114.121 24.033 112.84 25.5065 110.439 25.9637C110.386 25.9637 110.333 26.0145 110.333 26.0653V26.2432C110.333 26.2686 110.333 26.294 110.359 26.3194C110.386 26.3448 110.413 26.3448 110.439 26.3448C110.92 26.3194 111.747 26.3194 112.227 26.3194C113.054 26.3194 113.64 26.3448 114.387 26.421C114.414 26.421 114.467 26.421 114.494 26.3956C114.521 26.3702 114.521 26.3448 114.521 26.294C114.494 26.1161 114.494 25.9637 114.494 25.7859C114.494 25.2757 114.592 24.7654 114.694 24.2329L114.707 24.1601L114.731 24.0374C114.859 23.3581 115.001 22.6032 115.001 21.6451C115.054 18.1648 112.6 15.7514 109.079 15.7514C105.417 15.7514 103.655 18.1797 101.941 20.5402L101.877 20.629C100.223 22.9407 98.6759 25.1 95.5283 25.1C92.5407 25.1 91.2336 23.0169 91.2336 20.9592C91.2336 18.5713 92.6207 16.1833 95.2348 16.1833C95.4482 16.1833 95.6883 16.2087 95.9283 16.2341L96.0351 16.2341C96.0618 16.2341 96.1151 16.2341 96.1151 16.2087C96.1418 16.1833 96.1418 16.1579 96.1418 16.1325V16.0055C96.1418 15.9547 96.1151 15.9293 96.0618 15.9039C95.2882 15.5228 94.3012 15.4974 94.0078 15.4974C93.7103 15.4974 93.4258 15.5221 93.1542 15.5457C93.0362 15.5559 92.9206 15.5659 92.8074 15.5736C92.434 15.6244 92.1139 15.6498 91.7404 15.6498C91.447 15.6498 91.0736 15.6498 90.9135 15.6244C90.8868 15.6244 90.8335 15.6244 90.8068 15.6498C90.7801 15.6752 90.7801 15.7006 90.7801 15.7514C90.8068 15.9293 90.8068 16.0055 90.8068 16.2087C90.8068 16.8709 90.6825 17.4148 90.5539 17.9774L90.5401 18.0378L90.5332 18.0685C90.3747 18.7725 90.1933 19.5784 90.1933 20.7052C90.1933 24.5919 92.9675 27.3101 96.9687 27.3101C100.943 27.3101 102.784 24.7444 104.544 22.2802Z" fill="#C4C4C4" fill-opacity="0.5"/>
<path fill-rule="evenodd" clip-rule="evenodd" d="M115.027 57.641C115.027 50.3248 108.625 45.9807 102.437 45.9807C96.4081 45.9807 90.1929 50.2486 90.1929 57.387C90.1929 63.8903 95.6078 68.9965 102.543 68.9965C109.559 68.9711 115.027 63.992 115.027 57.641ZM102.357 65.8464C95.4745 65.8464 91.2065 62.5947 91.2065 57.3616C91.2065 52.1792 95.4478 49.1054 102.57 49.1054C107.878 49.1054 114.093 51.2647 114.093 57.3616C114.067 61.2992 110.999 65.8464 102.357 65.8464Z" fill="#C4C4C4" fill-opacity="0.5"/>
<path fill-rule="evenodd" clip-rule="evenodd" d="M98.2908 83.4757C95.3115 85.0715 91.2801 87.2309 90.62 89.0917C90.5933 89.1425 90.5666 89.1679 90.5133 89.1171H90.2999C90.2465 89.1171 90.1932 89.0663 90.1932 89.0155C90.1665 88.736 90.1665 88.5836 90.1665 88.2025C90.2999 84.773 90.7533 84.3666 98.249 80.556C98.3557 80.4798 98.5157 80.4036 98.6758 80.3274L98.7047 80.3127C99.5072 79.9052 100.79 79.2538 101.343 78.7016C101.263 78.1935 101.21 77.7362 101.21 77.3806V75.4245H93.5809C90.8867 75.4245 90.8067 75.8309 90.62 76.9487C90.62 76.9995 90.5666 77.0503 90.5133 77.0503H90.3532C90.3266 77.0503 90.2999 77.0503 90.2732 77.0249C90.2465 76.9995 90.2465 76.9741 90.2465 76.9487C90.2732 76.5423 90.3266 75.4499 90.3266 74.1289C90.3266 73.1129 90.291 72.3169 90.2634 71.6995C90.2572 71.5605 90.2514 71.4304 90.2465 71.3091C90.2465 71.2837 90.2465 71.2583 90.2732 71.2329C90.2999 71.2075 90.3266 71.2075 90.3532 71.2075H90.5133C90.5666 71.2075 90.62 71.2583 90.62 71.3091C90.8067 72.4269 90.8867 72.8333 93.5809 72.8333H111.666C113.987 72.8333 114.441 72.4522 114.627 71.3599C114.627 71.3091 114.681 71.2583 114.734 71.2583H114.894C114.921 71.2583 114.947 71.2583 114.974 71.2837C115.001 71.3091 115.001 71.3345 115.001 71.3599C114.921 72.4522 114.921 73.0365 114.921 74.4591C114.921 74.9926 114.921 75.7293 114.947 76.3898C114.947 76.7234 114.956 77.0403 114.964 77.3124C114.969 77.5169 114.974 77.6961 114.974 77.8378C114.974 82.5629 112.28 85.6114 108.119 85.6114C105.371 85.6114 103.104 83.9855 101.983 81.2673C101.483 81.7674 100.257 82.4237 98.6991 83.2571L98.2908 83.4757ZM102.143 76.8979C102.143 82.0803 105.318 82.6899 107.692 82.6899C111.506 82.6899 113.987 80.7085 113.987 77.6854C113.987 76.9741 113.934 76.3644 113.667 75.4499H102.143V76.8979Z" fill="#C4C4C4" fill-opacity="0.5"/>
<path d="M115.027 46.2092C115.054 46.1838 115.081 46.1584 115.081 46.1076C115.054 44.5834 114.921 36.5558 115.081 29.3666C115.081 29.3157 115.054 29.2649 115.001 29.2649L114.731 29.198C114.228 29.0739 113.778 28.9627 113.347 28.8331C112.707 28.6552 112.12 28.5028 111.506 28.3758C111.48 28.3758 111.426 28.3758 111.4 28.4012C111.373 28.4266 111.346 28.452 111.346 28.4774V28.6298C111.346 28.6807 111.373 28.7061 111.426 28.7315C113.507 29.6714 113.534 31.1702 113.534 36.0985L93.5809 36.0985C90.8867 36.0985 90.8067 35.6921 90.62 34.5743C90.62 34.5235 90.5666 34.4727 90.5133 34.4727H90.3532C90.3266 34.4727 90.2999 34.4727 90.2732 34.4981C90.2465 34.5235 90.2465 34.5489 90.2465 34.5743C90.251 34.6815 90.2563 34.7967 90.262 34.9201C90.2897 35.5276 90.3266 36.3341 90.3266 37.3687C90.3266 38.6897 90.2732 39.7567 90.2465 40.1631C90.2465 40.1885 90.2465 40.2139 90.2732 40.2393C90.2999 40.2647 90.3266 40.2647 90.3532 40.2647H90.5133C90.5666 40.2647 90.62 40.2139 90.62 40.1631C90.8067 39.0708 90.8867 38.6389 93.5809 38.6389H113.507C113.507 44.3039 113.267 45.066 112.36 45.066C112.2 45.066 111.987 45.0406 111.88 45.0152C111.853 45.0152 111.8 45.0152 111.773 45.0406C111.746 45.066 111.72 45.0914 111.72 45.1168V45.3201C111.72 45.3709 111.773 45.4217 111.826 45.4217C112.36 45.5233 113.987 45.879 114.894 46.1584C114.947 46.2346 115.001 46.2346 115.027 46.2092Z" fill="#C4C4C4" fill-opacity="0.5"/>
<path d="M199.377 0H140.183V55.7647H199.377V0Z" fill="black"/>
<path d="M226.804 0H202.326V55.7647H226.804V0Z" fill="black"/>
<path d="M226.804 58.7104H179.961V86.6623H226.804V58.7104Z" fill="black"/>
<path d="M177.04 58.7104H140.155V86.6623H177.04V58.7104Z" fill="black"/>
<path d="M184.134 108.196C181.908 106.667 179.822 105.25 179.822 102.444C179.822 100.777 180.796 99.0266 183.549 99.0266C185.914 99.0266 187.388 100.249 187.833 102.527C187.833 102.583 187.889 102.611 187.944 102.611H188.139C188.167 102.611 188.195 102.611 188.223 102.583C188.25 102.555 188.25 102.527 188.25 102.5C188.223 102.027 188.223 101.249 188.223 100.777C188.223 99.8879 188.25 99.3322 188.306 98.7209C188.306 98.6931 188.306 98.6654 188.278 98.6376C188.25 98.6098 188.223 98.6098 188.195 98.6098C188.028 98.6376 187.861 98.6376 187.666 98.6376C187.11 98.6376 186.581 98.5264 186.025 98.4153C185.302 98.2764 184.495 98.1375 183.494 98.1375C179.989 98.1375 177.569 100.499 177.569 103.861C177.569 107.418 180.072 109.113 182.492 110.752C184.829 112.336 186.999 113.808 186.999 116.809C186.999 119.643 184.912 120.921 182.826 120.921C180.434 120.921 177.986 119.615 177.986 117.087C177.986 116.865 178.014 116.642 178.042 116.42V116.337C178.042 116.309 178.042 116.281 178.014 116.253C177.986 116.226 177.958 116.226 177.93 116.226H177.764C177.708 116.226 177.68 116.253 177.652 116.281C177.291 117.087 177.263 118.032 177.263 118.309C177.263 118.726 177.291 119.087 177.346 119.449C177.374 119.81 177.43 120.115 177.43 120.477C177.43 120.755 177.43 121.116 177.402 121.282C177.402 121.31 177.402 121.366 177.43 121.394C177.458 121.421 177.485 121.421 177.541 121.421C177.708 121.394 177.819 121.394 177.986 121.394C178.654 121.394 179.238 121.533 179.822 121.644C180.545 121.81 181.352 121.977 182.492 121.977C186.415 121.977 189.141 119.31 189.141 115.503C189.196 111.641 186.637 109.891 184.134 108.196Z" fill="black"/>
<path d="M219.044 98.1656C211.7 98.1656 207.305 104.306 207.305 110.224C207.305 116.004 211.589 121.95 218.793 121.95C225.33 121.95 230.476 116.754 230.476 110.113C230.449 103.417 225.442 98.1656 219.044 98.1656ZM227.305 110.308C227.305 116.893 224.051 121.005 218.766 121.005C213.564 121.005 210.448 116.948 210.448 110.141C210.448 105.056 212.618 99.1103 218.766 99.1103C222.716 99.0825 227.305 102.028 227.305 110.308Z" fill="black"/>
<path d="M159.349 121.504C157.457 120.865 155.232 116.92 153.618 114.058C152.728 112.474 152.033 111.224 151.504 110.668C154.314 109.612 156.011 107.417 156.011 104.75C156.011 100.749 152.923 98.1925 148.166 98.1925C147.833 98.1925 147.304 98.1925 146.692 98.2203C146.025 98.2481 145.273 98.2481 144.745 98.2481C143.299 98.2481 142.714 98.2481 141.602 98.1925C141.574 98.1925 141.546 98.1925 141.518 98.2203C141.49 98.2481 141.49 98.2759 141.49 98.3036V98.4704C141.49 98.5259 141.518 98.5815 141.574 98.5815C142.687 98.7482 143.048 99.1928 143.048 101.416V118.754C143.048 121.338 142.631 121.393 141.49 121.588C141.435 121.588 141.407 121.643 141.407 121.699V121.865C141.407 121.893 141.407 121.921 141.435 121.949C141.463 121.977 141.49 121.977 141.518 121.977C142.186 121.949 143.104 121.921 144.356 121.921C145.691 121.921 146.803 121.977 147.193 121.977C147.221 121.977 147.248 121.977 147.276 121.949C147.304 121.921 147.304 121.893 147.304 121.865V121.699C147.304 121.643 147.276 121.588 147.221 121.588C146.108 121.421 145.663 121.338 145.663 118.754V111.418H147.638C147.972 111.418 148.389 111.39 148.862 111.307C149.418 111.863 150.058 113.058 150.475 113.836C150.559 113.974 150.642 114.113 150.698 114.225C154.536 121.393 154.982 121.838 158.431 121.977C158.82 121.977 158.959 121.977 159.265 121.949C159.321 121.949 159.377 121.893 159.377 121.838V121.643C159.404 121.56 159.377 121.504 159.349 121.504ZM153.034 105.167C153.034 107.445 152.422 110.474 147.193 110.474H145.719V99.4428C146.664 99.1928 147.276 99.1372 147.972 99.1372C151.032 99.1372 153.034 101.499 153.034 105.167Z" fill="black"/>
<path d="M250.059 121.478C248.168 120.839 245.97 116.921 244.357 114.06C243.467 112.448 242.716 111.17 242.215 110.642C244.941 109.586 246.582 107.391 246.582 104.779C246.582 100.806 243.522 98.222 238.766 98.222C238.432 98.222 237.903 98.222 237.319 98.2497C236.652 98.2775 235.901 98.2775 235.372 98.2775C233.953 98.2775 233.341 98.2775 232.229 98.222C232.201 98.222 232.173 98.222 232.145 98.2497C232.118 98.2775 232.118 98.3053 232.118 98.3331V98.4998C232.118 98.5554 232.145 98.611 232.201 98.611C233.314 98.7777 233.675 99.2222 233.675 101.445V118.755C233.675 121.339 233.258 121.395 232.145 121.589C232.09 121.589 232.062 121.645 232.062 121.7V121.867C232.062 121.895 232.062 121.923 232.09 121.95C232.118 121.978 232.145 121.978 232.173 121.978C232.841 121.95 233.759 121.923 235.01 121.923C236.346 121.923 237.431 121.978 237.848 121.978C237.876 121.978 237.903 121.978 237.931 121.95C237.959 121.923 237.959 121.895 237.959 121.867V121.7C237.959 121.645 237.931 121.589 237.876 121.589C236.763 121.423 236.346 121.339 236.346 118.755V111.42H238.321C238.682 111.42 239.155 111.392 239.684 111.309C240.24 111.864 240.88 113.031 241.297 113.837C241.381 114.004 241.464 114.143 241.52 114.254C245.358 121.423 245.776 121.839 249.225 121.978C249.614 121.978 249.753 121.978 250.059 121.95C250.115 121.95 250.171 121.895 250.171 121.839V121.645C250.143 121.534 250.115 121.506 250.059 121.478ZM243.606 105.196C243.606 107.474 242.994 110.503 237.764 110.503H236.318V99.4723C237.236 99.2222 237.876 99.1667 238.571 99.1667C241.603 99.1944 243.606 101.556 243.606 105.196Z" fill="black"/>
<path d="M175.788 98.1375C174.259 98.1652 166.22 98.3042 158.904 98.1375C158.876 98.1375 158.792 98.1652 158.792 98.2208C158.653 98.8043 158.486 99.3322 158.347 99.8046C158.18 100.416 158.014 100.972 157.902 101.555C157.902 101.583 157.902 101.611 157.93 101.638C157.958 101.666 157.986 101.666 158.014 101.666H158.18C158.236 101.666 158.264 101.638 158.292 101.611C159.238 99.6101 160.74 99.6101 165.719 99.6101V118.671C165.719 121.255 165.302 121.31 164.189 121.505C164.133 121.505 164.105 121.56 164.105 121.616V121.783C164.105 121.81 164.105 121.838 164.133 121.866C164.161 121.894 164.189 121.894 164.217 121.894C164.94 121.866 165.83 121.838 167.026 121.838C168.306 121.838 169.418 121.894 169.836 121.894C169.863 121.894 169.891 121.894 169.919 121.866C169.947 121.838 169.947 121.81 169.947 121.783V121.616C169.947 121.56 169.919 121.505 169.863 121.505C168.751 121.338 168.334 121.255 168.334 118.671V99.6101C174.036 99.6101 174.787 99.8323 174.787 100.694C174.787 100.86 174.759 101.027 174.731 101.138C174.731 101.166 174.731 101.194 174.759 101.222C174.787 101.249 174.815 101.277 174.843 101.277H175.037C175.093 101.277 175.149 101.249 175.149 101.194C175.232 100.694 175.622 99.1377 175.9 98.2486C175.9 98.2208 175.9 98.1652 175.872 98.1375C175.872 98.1652 175.816 98.1375 175.788 98.1375Z" fill="black"/>
<path d="M207.973 98.193C207.945 98.1652 207.917 98.1375 207.89 98.1375C206.332 98.1652 198.265 98.3042 191.033 98.1375C190.977 98.1375 190.949 98.1652 190.921 98.2208C190.782 98.8043 190.615 99.3322 190.476 99.8046C190.309 100.416 190.142 100.972 190.031 101.555C190.031 101.583 190.031 101.611 190.059 101.638C190.087 101.666 190.115 101.666 190.142 101.666H190.309C190.365 101.666 190.393 101.638 190.421 101.611C191.366 99.6101 192.869 99.6101 197.848 99.6101V118.671C197.848 121.255 197.43 121.31 196.318 121.505C196.262 121.505 196.234 121.56 196.234 121.616V121.783C196.234 121.81 196.234 121.838 196.262 121.866C196.29 121.894 196.318 121.894 196.346 121.894C197.069 121.866 197.959 121.838 199.155 121.838C200.435 121.838 201.547 121.894 201.965 121.894C201.992 121.894 202.02 121.894 202.048 121.866C202.076 121.838 202.076 121.81 202.076 121.783V121.616C202.076 121.56 202.048 121.505 201.992 121.505C200.88 121.338 200.462 121.255 200.462 118.671V99.6101C206.165 99.6101 206.916 99.8323 206.916 100.694C206.916 100.86 206.888 101.027 206.86 101.138C206.86 101.166 206.86 101.194 206.888 101.222C206.916 101.249 206.944 101.277 206.972 101.277H207.166C207.222 101.277 207.278 101.249 207.278 101.194C207.361 100.694 207.723 99.1377 208.029 98.2486C208.001 98.2764 208.001 98.2486 207.973 98.193Z" fill="black"/>
<path d="M140.322 121.532C139.516 121.421 139.182 121.282 138.848 120.671L130.336 98.1373C130.308 98.0817 130.28 98.0539 130.225 98.0539H129.891C129.835 98.0539 129.808 98.0817 129.78 98.1373L122.547 117.226C121.157 120.921 120.628 121.199 119.098 121.56C119.042 121.56 119.015 121.616 119.015 121.671V121.838C119.015 121.866 119.015 121.894 119.042 121.921C119.07 121.949 119.098 121.949 119.126 121.949L119.46 121.921C119.96 121.894 120.405 121.866 121.296 121.866C122.686 121.866 123.827 121.921 124.272 121.921C124.3 121.921 124.328 121.921 124.355 121.894C124.383 121.866 124.383 121.838 124.383 121.81V121.643C124.383 121.588 124.328 121.532 124.272 121.532C123.354 121.421 122.909 121.004 122.909 120.226C122.909 119.643 123.187 118.837 123.438 118.087L125.329 113.002C126.414 112.975 127.499 112.975 128.639 112.975H133.09L135.872 120.338C135.899 120.393 135.899 120.477 135.899 120.504C135.899 120.893 135.76 121.449 134.592 121.505C134.536 121.505 134.481 121.56 134.481 121.616V121.782C134.481 121.81 134.481 121.838 134.509 121.866C134.536 121.894 134.564 121.894 134.592 121.894C135.538 121.838 136.484 121.838 137.429 121.838C138.737 121.838 139.822 121.894 140.211 121.894C140.239 121.894 140.267 121.894 140.294 121.866C140.322 121.838 140.322 121.81 140.322 121.782V121.616C140.406 121.588 140.378 121.56 140.322 121.532ZM132.7 111.835H128.667C127.693 111.835 126.748 111.835 125.774 111.808L129.168 102.666L129.196 102.583L132.7 111.835Z" fill="black"/>
<path d="M129.293 22.2799C130.872 20.0952 132.398 18.0121 135.316 18.0121C137.056 18.0121 138.902 18.9775 138.902 21.6956C138.902 24.0328 137.618 25.5062 135.209 25.9635C135.155 25.9635 135.101 26.0143 135.101 26.0651V26.2429C135.101 26.2683 135.101 26.2937 135.128 26.3191C135.155 26.3445 135.182 26.3445 135.209 26.3445C135.69 26.3191 136.52 26.3191 137.002 26.3191C137.832 26.3191 138.421 26.3445 139.17 26.4207C139.197 26.4207 139.25 26.4207 139.277 26.3953C139.304 26.3699 139.304 26.3445 139.304 26.2937C139.277 26.1159 139.277 25.9635 139.277 25.7856C139.277 25.2521 139.384 24.7187 139.491 24.1598C139.625 23.4485 139.786 22.661 139.786 21.6448C139.839 18.1645 137.377 15.7512 133.843 15.7512C130.123 15.7512 128.356 18.2408 126.616 20.6287C124.956 22.9404 123.404 25.0997 120.245 25.0997C117.247 25.0997 115.936 23.0166 115.936 20.9589C115.936 18.571 117.328 16.1831 119.951 16.1831C120.165 16.1831 120.406 16.2085 120.647 16.2339H120.754C120.781 16.2339 120.834 16.2339 120.834 16.2085C120.861 16.1831 120.861 16.1577 120.861 16.1323V16.0052C120.861 15.9544 120.834 15.929 120.781 15.9036C120.004 15.5226 119.014 15.4972 118.72 15.4972C118.291 15.4972 117.89 15.548 117.515 15.5734C117.14 15.6242 116.819 15.6496 116.444 15.6496C116.15 15.6496 115.775 15.6496 115.615 15.6242C115.588 15.6242 115.534 15.6242 115.507 15.6496C115.481 15.675 115.481 15.7004 115.481 15.7512C115.507 15.929 115.507 16.0052 115.507 16.2085C115.507 16.8944 115.374 17.4532 115.24 18.0375C115.079 18.7488 114.892 19.5617 114.892 20.7049C114.892 24.5917 117.676 27.3098 121.691 27.3098C125.679 27.3098 127.526 24.7441 129.293 22.2799Z" fill="#C4C4C4" fill-opacity="0.5"/>
<path d="M127.098 65.8462C120.192 65.8462 115.909 62.5945 115.909 57.3614C115.909 52.179 120.165 49.1052 127.312 49.1052C132.639 49.1052 138.875 51.2645 138.875 57.3614C138.849 61.2989 135.77 65.8462 127.098 65.8462ZM139.812 57.6408C139.812 50.3246 133.388 45.9805 127.178 45.9805C121.128 45.9805 114.891 50.2483 114.891 57.3868C114.891 63.8901 120.325 68.9962 127.285 68.9962C134.325 68.9708 139.812 63.9917 139.812 57.6408Z" fill="#C4C4C4" fill-opacity="0.5"/>
<path d="M132.452 82.6897C130.069 82.6897 126.884 82.0801 126.884 76.8977V75.4497H138.448C138.715 76.3642 138.769 76.9739 138.769 77.6852C138.769 80.7083 136.279 82.6897 132.452 82.6897ZM115.32 89.0915C115.989 87.2116 120.112 85.0269 123.11 83.4265C124.823 82.5119 126.188 81.8006 126.723 81.2671C127.848 83.9853 130.123 85.6112 132.88 85.6112C137.056 85.6112 139.759 82.5627 139.759 77.8377C139.759 77.5074 139.733 76.9739 139.733 76.3896C139.706 75.7291 139.706 74.9924 139.706 74.459C139.706 73.0364 139.706 72.4521 139.786 71.3597C139.786 71.3343 139.786 71.3089 139.759 71.2835C139.733 71.2581 139.706 71.2581 139.679 71.2581H139.518C139.465 71.2581 139.411 71.3089 139.411 71.3597C139.224 72.4521 138.769 72.8331 136.44 72.8331H118.292C115.588 72.8331 115.508 72.4267 115.32 71.3089C115.32 71.2581 115.267 71.2073 115.213 71.2073H115.053C115.026 71.2073 114.999 71.2073 114.972 71.2327C114.946 71.2581 114.946 71.2835 114.946 71.3089C114.972 71.9694 115.026 72.8839 115.026 74.1287C115.026 75.4497 114.972 76.5421 114.946 76.9485C114.946 76.9739 114.946 76.9993 114.972 77.0247C114.999 77.0501 115.026 77.0501 115.053 77.0501H115.213C115.267 77.0501 115.32 76.9993 115.32 76.9485C115.508 75.8308 115.588 75.4243 118.292 75.4243H125.947L125.947 77.3804C125.947 77.736 126.001 78.1933 126.081 78.7014C125.519 79.2603 124.207 79.9208 123.404 80.3272C123.244 80.4034 123.083 80.4796 122.976 80.5558C115.454 84.3664 114.999 84.7728 114.865 88.2023C114.865 88.5834 114.865 88.7358 114.892 89.0153C114.892 89.0661 114.946 89.1169 114.999 89.1169H115.213C115.267 89.1677 115.294 89.1423 115.32 89.0915Z" fill="#C4C4C4" fill-opacity="0.5"/>
<path d="M139.813 46.209C139.839 46.1836 139.866 46.1582 139.866 46.1073C139.839 44.5831 139.705 36.5556 139.866 29.3664C139.866 29.3155 139.839 29.2647 139.786 29.2647C139.17 29.1123 138.635 28.9853 138.126 28.8329C137.484 28.655 136.895 28.5026 136.279 28.3756C136.252 28.3756 136.199 28.3756 136.172 28.401C136.145 28.4264 136.119 28.4518 136.119 28.4772V28.6296C136.119 28.6805 136.145 28.7059 136.199 28.7313C138.287 29.6712 138.314 31.17 138.314 36.0983H118.291C115.588 36.0983 115.507 35.6919 115.32 34.5741C115.32 34.5233 115.266 34.4725 115.213 34.4725H115.052C115.026 34.4725 114.999 34.4725 114.972 34.4979C114.945 34.5233 114.945 34.5487 114.945 34.5741C114.972 35.2092 115.026 36.1237 115.026 37.3685C115.026 38.6895 114.972 39.7564 114.945 40.1629C114.945 40.1883 114.945 40.2137 114.972 40.2391C114.999 40.2645 115.026 40.2645 115.052 40.2645H115.213C115.266 40.2645 115.32 40.2137 115.32 40.1629C115.507 39.0705 115.588 38.6387 118.291 38.6387H138.287C138.287 44.3037 138.046 45.0658 137.136 45.0658C136.975 45.0658 136.761 45.0404 136.654 45.015C136.627 45.015 136.574 45.015 136.547 45.0404C136.52 45.0658 136.493 45.0912 136.493 45.1166V45.3198C136.493 45.3706 136.547 45.4214 136.6 45.4214C137.136 45.5231 138.769 45.8787 139.679 46.1582C139.732 46.2344 139.786 46.2344 139.813 46.209Z" fill="#C4C4C4" fill-opacity="0.5"/>
<path d="M139.866 12.8034C139.839 12.1683 139.786 10.9236 139.786 9.85661C139.786 8.71345 139.812 7.44327 139.839 6.78277C139.839 6.75737 139.839 6.73196 139.812 6.70656C139.786 6.68116 139.759 6.68116 139.732 6.68116H139.572C139.518 6.68116 139.465 6.73196 139.465 6.78277C139.277 7.90053 139.143 8.63724 136.6 8.63724L121.798 8.63724C119.014 8.63723 115.989 7.36705 115.989 5.33476C115.989 4.95371 116.016 4.59806 116.069 4.26781C116.444 2.84521 117.488 1.95608 118.238 1.4226C118.345 1.34639 118.452 1.27018 118.559 1.21937C119.496 0.635091 120.299 0.355651 120.326 0.355651C120.406 0.330247 120.433 0.254036 120.433 0.177825C120.406 0.0508073 120.326 3.49791e-09 120.245 0L116.364 0.482669C116.31 0.482669 116.257 0.508072 116.23 0.55888C115.32 1.90527 115.052 3.55651 115.026 3.86135C114.945 4.39483 114.918 4.82669 114.918 5.08073C114.918 5.28396 114.918 5.41097 114.918 5.41097C114.918 8.81506 117.836 11.1014 122.173 11.1014L136.6 11.1014C139.09 11.1014 139.197 11.6603 139.465 12.778V12.8288C139.465 12.8796 139.518 12.905 139.572 12.905H139.732C139.759 12.905 139.786 12.905 139.812 12.8796C139.839 12.8542 139.866 12.8288 139.866 12.8034Z" fill="#C4C4C4" fill-opacity="0.5"/>
</svg>
