<svg width="776" height="148" viewBox="0 0 776 148" fill="none" xmlns="http://www.w3.org/2000/svg">
<path d="M412.164 131.816C409.563 130.054 407.111 128.382 407.111 125.097C407.111 123.156 408.247 121.096 411.446 121.096C414.197 121.096 415.932 122.529 416.47 125.217C416.47 125.277 416.53 125.336 416.59 125.336H416.799C416.829 125.336 416.859 125.336 416.889 125.306C416.919 125.277 416.919 125.247 416.919 125.217C416.889 124.679 416.889 123.754 416.889 123.216C416.889 122.291 416.919 121.634 417.008 120.798C417.008 120.768 417.008 120.708 416.978 120.678C416.948 120.648 416.919 120.648 416.859 120.648C416.649 120.678 416.47 120.678 416.261 120.678C415.633 120.678 415.005 120.559 414.347 120.439C413.51 120.29 412.583 120.111 411.387 120.111C407.32 120.111 404.449 122.858 404.449 126.799C404.449 130.95 407.38 132.921 410.191 134.862C412.912 136.713 415.453 138.445 415.453 141.968C415.453 145.283 413.001 146.776 410.579 146.776C407.769 146.776 404.958 145.223 404.958 142.297C404.958 142.058 404.988 141.789 405.018 141.52V141.401C405.018 141.371 405.018 141.311 404.988 141.311C404.958 141.281 404.928 141.281 404.898 141.281H404.778C404.719 141.281 404.689 141.311 404.659 141.371C404.24 142.297 404.21 143.402 404.21 143.73C404.21 144.208 404.27 144.656 404.3 145.074C404.36 145.492 404.39 145.85 404.39 146.268C404.39 146.597 404.39 147.015 404.36 147.194C404.36 147.224 404.36 147.283 404.39 147.313C404.419 147.343 404.449 147.343 404.509 147.343C404.719 147.313 404.808 147.313 405.047 147.313C405.855 147.313 406.513 147.463 407.2 147.612C408.038 147.791 408.994 148 410.34 148C414.915 148 418.115 144.895 418.115 140.416C418.085 135.847 415.065 133.816 412.164 131.816Z" fill="#990000"/>
<path d="M463.446 134.294C463.446 141.998 459.619 146.775 453.459 146.775C447.359 146.775 443.741 142.028 443.741 134.055C443.741 128.113 446.282 121.155 453.459 121.155C458.094 121.155 463.446 124.589 463.446 134.294ZM453.788 120.08C445.176 120.08 440.063 127.247 440.063 134.174C440.063 140.923 445.086 147.88 453.489 147.88C461.144 147.88 467.154 141.819 467.154 134.055C467.124 126.232 461.263 120.08 453.788 120.08Z" fill="#990000"/>
<path d="M483.271 128.292C483.271 130.95 482.553 134.503 476.453 134.503H474.749V121.604C475.825 121.305 476.543 121.245 477.38 121.245C480.939 121.275 483.271 124.022 483.271 128.292ZM490.806 147.403C488.594 146.656 486.022 142.058 484.138 138.714C483.062 136.802 482.224 135.28 481.596 134.682C484.796 133.428 486.71 130.89 486.71 127.815C486.71 123.156 483.121 120.141 477.56 120.141C477.171 120.141 476.543 120.17 475.855 120.17C475.078 120.2 474.211 120.2 473.583 120.2C471.908 120.2 471.221 120.2 469.935 120.111C469.905 120.111 469.875 120.111 469.845 120.141C469.815 120.17 469.815 120.2 469.815 120.23V120.409C469.815 120.469 469.875 120.529 469.935 120.529C471.221 120.738 471.669 121.245 471.669 123.843V144.148C471.669 147.164 471.191 147.253 469.875 147.462C469.815 147.462 469.755 147.522 469.755 147.582V147.761C469.755 147.791 469.755 147.821 469.785 147.851C469.815 147.881 469.845 147.881 469.875 147.881C470.652 147.851 471.729 147.791 473.194 147.791C474.749 147.791 476.035 147.851 476.513 147.881C476.543 147.881 476.573 147.881 476.603 147.851C476.633 147.821 476.633 147.791 476.633 147.761V147.582C476.633 147.522 476.573 147.462 476.513 147.462C475.197 147.253 474.719 147.164 474.719 144.148V135.578H477.021C477.44 135.578 477.978 135.518 478.576 135.429C479.234 136.056 480.012 137.519 480.49 138.415C480.58 138.594 480.67 138.773 480.759 138.893C485.245 147.283 485.723 147.791 489.76 147.94C490.208 147.94 490.388 147.94 490.717 147.91C490.776 147.91 490.836 147.851 490.836 147.791V147.552C490.896 147.492 490.866 147.433 490.806 147.403Z" fill="#990000"/>
<path d="M440.332 120.08C440.302 120.05 440.272 120.02 440.212 120.02C438.418 120.05 428.969 120.2 420.507 120.02C420.447 120.02 420.387 120.05 420.387 120.11C420.208 120.797 420.058 121.394 419.879 121.961C419.67 122.678 419.49 123.335 419.341 124.022C419.341 124.052 419.341 124.111 419.371 124.141C419.4 124.171 419.43 124.201 419.46 124.201H419.64C419.699 124.201 419.729 124.171 419.759 124.111C420.866 121.782 422.63 121.752 428.431 121.752V144.088C428.431 147.103 427.952 147.193 426.637 147.402C426.577 147.402 426.517 147.462 426.517 147.521V147.701C426.517 147.73 426.517 147.76 426.547 147.79C426.577 147.82 426.607 147.82 426.637 147.82C427.384 147.79 428.461 147.73 429.926 147.73C431.481 147.73 432.737 147.79 433.215 147.82C433.245 147.82 433.275 147.82 433.305 147.79C433.335 147.76 433.335 147.73 433.335 147.701V147.521C433.335 147.462 433.275 147.402 433.215 147.402C431.929 147.193 431.421 147.103 431.421 144.088V121.752C438.089 121.752 438.986 122.021 438.986 123.036C438.986 123.215 438.956 123.454 438.926 123.574C438.926 123.604 438.926 123.663 438.956 123.693C438.986 123.723 439.016 123.753 439.046 123.753H439.285C439.345 123.753 439.405 123.693 439.405 123.633C439.524 123.036 439.943 121.215 440.272 120.2C440.362 120.17 440.362 120.11 440.332 120.08Z" fill="#990000"/>
<path d="M401.011 120.051C400.263 120.081 398.798 120.111 397.542 120.111C396.197 120.111 394.701 120.081 393.924 120.051C393.894 120.051 393.864 120.051 393.834 120.081C393.804 120.111 393.804 120.14 393.804 120.17V120.349C393.804 120.409 393.864 120.469 393.924 120.469C395.24 120.678 396.107 120.827 396.107 123.664V140.176C396.107 143.282 394.612 146.656 392.22 146.656C391.771 146.656 391.352 146.626 390.964 146.566C389.289 146.148 388.243 144.984 387.615 144.148C387.525 144.028 387.435 143.909 387.375 143.789C386.688 142.744 386.359 141.849 386.359 141.819C386.329 141.729 386.239 141.699 386.15 141.699C386.06 141.729 386 141.789 386 141.908L386.568 146.238C386.568 146.298 386.598 146.357 386.658 146.387C388.243 147.403 390.186 147.701 390.545 147.731C391.173 147.821 391.681 147.85 391.98 147.85C392.22 147.85 392.369 147.85 392.369 147.85C396.376 147.85 399.067 144.596 399.067 139.758V123.664C399.067 120.887 399.725 120.767 401.041 120.469L401.1 120.439C401.16 120.439 401.19 120.379 401.19 120.32V120.14C401.19 120.111 401.19 120.081 401.16 120.051C401.071 120.051 401.041 120.051 401.011 120.051Z" fill="#990000"/>
<path d="M483.451 50.2379C482.554 50.8351 481.597 50.9247 481.567 50.9247C481.537 50.9247 481.507 50.9546 481.507 50.9844C481.507 51.0143 481.507 51.0441 481.537 51.074C481.567 51.1039 483.989 53.1941 484.228 56.0308C484.497 58.9272 484.049 60.5396 482.583 61.9132C481.417 63.018 479.713 63.1673 479.085 63.018C478.935 62.9882 478.906 62.9583 478.906 62.9284C478.816 62.5701 479.354 62.1819 480.012 61.734C480.161 61.6444 480.311 61.525 480.46 61.4354C481.298 60.8382 481.746 59.8528 481.477 59.3154C481.387 59.1362 481.238 59.1063 481.058 59.1063C480.909 59.1063 480.759 59.1661 480.58 59.2258C480.251 59.3154 479.892 59.4348 479.713 59.2258C479.504 59.0168 479.593 58.8376 479.773 58.4793C479.922 58.1807 480.102 57.8224 480.131 57.3147C480.221 56.2099 480.072 53.3135 478.517 52.985C478.457 52.985 478.397 52.985 478.337 53.0149C478.188 53.1343 478.188 53.4927 478.188 54.06C478.188 54.8065 478.158 55.7919 477.739 56.4488C477.081 57.464 476.035 58.2404 475.556 58.2404C475.437 58.2404 475.377 58.2105 475.317 58.1508C475.257 58.0612 475.287 57.8224 475.377 57.464C475.556 56.628 475.856 55.0752 475.407 52.1788C475.257 51.1636 474.63 50.0588 474.061 49.0137C473.493 47.9984 472.955 47.013 472.835 46.177C472.626 44.6242 472.806 43.9673 473.673 43.3104C474.181 42.9222 474.271 42.5639 474.271 42.325C474.271 42.0861 474.151 41.6382 473.732 41.4889C473.703 41.4889 473.703 41.4889 473.673 41.4591C473.463 41.3994 473.105 41.3695 472.716 41.3695C471.071 41.3994 467.214 41.4292 464.493 37.7266C462.28 34.7406 462.131 31.9337 462.549 28.6193V28.5894C462.549 28.5297 462.31 27.3054 461.263 26.3499C460.755 25.902 460.247 25.6333 459.888 25.4541C459.679 25.3347 459.439 25.2451 459.439 25.1555C459.439 25.1555 459.439 25.0958 459.499 25.0659C459.768 24.7972 460.695 24.409 461.981 24.5882C462.938 24.7375 463.626 25.1257 463.626 25.1257C463.656 25.1555 463.685 25.1257 463.715 25.0958C463.745 25.0659 466.257 22.1098 470.443 22.4382C472.955 22.6174 475.347 25.0659 475.407 27.7235C475.467 30.381 474.241 31.7844 473.164 32.1428C472.297 32.4414 471.49 32.4115 471.011 32.083C470.802 31.9337 470.653 31.7247 470.653 31.4858C470.653 31.2768 470.832 31.1574 471.191 30.9782C471.789 30.6796 472.716 30.2019 472.835 28.5297C472.895 27.6638 472.596 26.7978 472.028 26.2006C471.639 25.7826 470.952 25.275 469.815 25.3347C468.35 25.3944 467.154 25.9617 466.347 27.0068C465.33 28.3207 464.971 30.381 465.36 32.74C465.928 36.1739 469.247 38.5627 472.895 38.1745C475.048 37.9655 477.052 36.7412 478.577 34.7704C480.012 32.9191 480.849 30.5303 480.879 28.2311C480.939 22.498 477.62 16.5857 470.025 16.2871C462.758 16.0183 458.243 20.5272 456.18 23.2146C454.894 24.8868 453.549 28.0818 452.562 30.6796C453.01 30.59 454.416 30.4109 455.672 31.0379C456.957 31.665 458.453 33.2177 458.183 33.8746C458.124 34.0538 457.735 33.9642 457.167 33.8149C456.419 33.6059 455.373 33.6656 454.206 33.8448C452.203 34.1135 451.396 34.5017 451.156 34.7107L451.276 34.3524C451.216 34.5614 451.156 34.7107 451.156 34.7107L448.435 33.0386C448.824 31.3365 450.558 24.2 454.894 19.512C459.35 14.7045 464.702 13.1219 469.427 13.0921C471.998 13.0622 474.36 13.4504 476.304 13.8983C476.543 13.958 476.753 13.9879 476.962 14.0476C478.816 14.4656 480.759 14.8538 482.135 14.4955C482.882 14.3163 483.51 14.0177 483.989 13.7788C484.288 13.6295 484.587 13.4802 484.647 13.5101C484.647 13.5101 484.677 13.54 484.677 13.5698C484.736 13.8684 484.467 14.8239 483.6 15.9885C483.062 16.735 482.374 17.153 481.896 17.4815C481.447 17.7502 481.148 17.9592 481.148 18.2578C481.148 18.4071 481.298 18.6759 481.567 19.1536C482.404 20.6466 484.138 23.7819 483.929 28.2012C483.6 34.9795 480.371 37.8759 478.218 39.8168L477.949 40.0557H477.919C476.483 41.698 476.663 43.2208 477.081 44.1763C477.709 45.6395 479.085 46.8637 480.849 47.4908C481.866 47.8491 482.972 47.9686 483.78 48.0581C484.378 48.1179 484.976 48.1776 485.035 48.3269C485.245 48.8046 484.677 49.4616 483.451 50.2379ZM483.72 73.678C483.062 77.53 480.879 79.1723 479.025 79.4112C478.876 79.441 478.726 79.441 478.606 79.441C478.068 79.441 477.65 79.2917 477.53 79.0528C477.5 78.9633 477.47 78.8737 477.5 78.7841C477.56 78.6348 477.769 78.5452 478.068 78.4556C478.427 78.3362 478.935 78.1272 479.474 77.7091C481.058 76.455 480.969 75.9175 480.909 75.4995C480.909 75.4398 480.879 75.4099 480.849 75.4099C480.759 75.3502 480.52 75.4696 480.251 75.6189L480.131 75.6786C479.773 75.8578 479.444 75.8877 479.175 75.7682C479.025 75.6787 478.935 75.5592 478.906 75.4099C478.876 75.2308 479.085 75.0516 479.324 74.8127C479.533 74.6336 479.773 74.4245 479.922 74.1857C480.73 72.9315 480.879 71.4087 480.251 70.2143C479.803 69.3185 479.145 68.4824 477.201 68.3032C477.171 68.3032 477.111 68.3032 477.081 68.3032H477.022C476.782 68.3032 476.513 68.3331 476.214 68.3928C474.061 68.8109 472.626 70.2441 471.669 71.767C471.669 71.7969 471.639 71.8267 471.639 71.8267C470.324 73.7676 469.995 76.7536 469.905 77.321V77.3508C469.486 80.0681 468.589 84.0992 462.878 91.176C462.22 91.9822 461.712 93.1468 462.041 94.4606C462.639 96.73 464.822 96.939 464.792 97.1779C464.762 97.5063 464.313 97.5063 463.506 97.4466C462.699 97.3869 462.4 97.1181 462.4 97.1181C462.4 97.1181 462.19 97.6258 463.536 98.6111C464.553 99.3577 465.719 99.3278 465.749 99.6562C465.779 100.044 459.439 101.508 459.051 95.1175C459.051 94.9682 459.021 94.8189 459.021 94.6696C452.173 100.94 450.17 101.239 449.661 100.582C449.422 100.253 450.08 100.343 451.396 98.85C452.741 97.3272 452.771 96.6404 452.771 96.6404C452.771 96.6404 450.11 98.0737 447 97.8049C443.831 97.5063 441.169 95.2967 441.408 94.4307C441.588 93.6842 443.472 94.9682 445.744 94.6099C447.837 94.2814 448.017 93.4454 448.017 93.4454C448.017 93.4454 447.598 93.4454 446.91 92.7287C446.223 92.0121 445.206 91.4149 445.774 90.8177C446.103 90.4594 447.688 91.176 449.243 91.2059C451.216 91.2059 452.472 90.758 452.472 90.758C452.472 90.758 451.665 90.4594 450.828 89.6531C449.99 88.8171 449.811 87.981 450.05 87.772C450.2 87.6525 450.529 88.3094 451.635 88.3094C452.921 88.2796 453.07 87.981 453.07 87.981C453.07 87.981 452.532 87.4734 452.263 86.9956C452.024 86.488 451.246 85.0547 451.725 84.5172C451.874 84.3381 453.339 86.1297 455.492 86.3387C459.2 86.6671 463.267 83.7409 463.267 83.7409C463.267 83.7409 461.263 86.1894 457.017 89.8622C454.296 92.1912 450.857 94.1023 451.067 94.5502C451.306 95.0877 453.997 94.4606 458.662 90.5788C460.157 89.3247 461.114 88.5185 463.147 86.0102C466.735 81.5909 467.543 76.7536 466.825 72.8718C466.526 71.349 466.137 69.9754 465.659 68.8109C463.656 64.511 461.503 62.391 457.914 61.0174C454.715 59.7931 452.263 60.8979 450.768 61.5847C450.02 61.9431 449.512 62.1521 449.303 61.8535C448.645 60.9278 449.96 59.6737 451.127 58.5689C452.622 57.1654 453.608 56.5981 453.878 56.4787C453.608 56.3592 452.652 55.8815 451.725 55.8217C451.246 55.7919 450.708 55.8815 450.23 55.9412C449.482 56.0606 448.884 56.1502 448.794 55.762C448.645 55.0155 451.695 53.6718 453.339 53.1343C455.014 52.5969 456.359 52.5073 456.599 52.5073C456.569 52.149 456.3 49.3421 456.599 45.2513C456.748 43.1014 457.167 41.6084 457.466 40.7424C457.855 39.6376 458.303 38.8911 458.692 38.6522C458.841 38.5627 459.021 38.5627 459.14 38.6224C459.409 38.7717 459.409 39.339 459.409 40.1751C459.409 40.6827 459.409 41.3396 459.469 42.0264C459.649 44.0868 460.306 45.2214 460.695 45.4603C460.755 45.4902 460.815 45.52 460.845 45.4902C460.994 45.4305 461.024 45.1617 461.084 44.8034C461.174 44.3256 461.263 43.6389 461.682 42.8028C462.34 41.3994 463.656 39.7571 464.104 39.8765C464.224 39.9064 464.254 40.0557 464.254 40.2647C464.224 40.9216 464.104 41.4889 464.014 42.0861C463.805 43.3403 463.566 44.7437 463.715 47.3714C463.895 51.2233 465.689 51.7309 465.928 51.7906C466.048 51.5816 466.915 50.0886 468.171 48.7449C468.44 48.4762 468.679 48.1776 468.948 47.9088C469.726 47.013 470.354 46.3263 470.802 46.3263H470.832C470.952 46.3263 471.071 46.4158 471.131 46.5353C471.281 46.7742 471.041 47.4012 470.623 48.4165C470.055 49.8199 469.187 51.9399 468.799 54.5378C468.081 59.5244 468.799 64.3617 468.829 64.3916L468.888 64.7499L468.769 64.4214C468.769 64.4214 468.35 63.227 466.586 60.6591C465.808 59.4945 465.181 58.8077 464.582 58.1508C463.835 57.3148 463.117 56.5384 462.131 54.8662C460.994 52.9552 460.695 51.5219 460.516 50.5664C460.366 49.7602 460.277 49.372 459.828 49.3123C459.768 49.3123 459.738 49.3421 459.679 49.4018C459.29 50.0289 459.499 53.5225 460.576 55.5829C461.144 56.6877 461.831 57.5835 462.609 58.5987C463.416 59.6438 464.313 60.8084 465.42 62.6C467.423 65.8547 468.41 68.2435 468.888 69.6768C469.008 70.0351 469.098 70.3337 469.187 70.6025C469.427 70.1247 469.815 69.5574 469.935 69.4379C473.463 65.5561 476.543 65.2874 478.666 65.795H478.696C480.221 66.1235 481.597 67.0192 482.554 68.3629C483.54 69.9157 484.019 71.8864 483.72 73.678ZM482.942 93.2363C482.942 93.2662 482.912 93.2961 482.912 93.3558C482.135 96.1029 480.46 97.9841 478.128 98.6709C477.41 98.8799 476.723 98.9993 476.095 98.9993C474.54 98.9993 473.224 98.4021 471.819 97.5063C471.729 97.4765 470.952 97.357 470.144 97.8049C469.726 98.0438 469.456 98.3125 469.247 98.5216C469.068 98.7007 468.948 98.8202 468.829 98.7903C468.799 98.7903 468.739 98.7306 468.709 98.6709C468.589 98.3723 468.589 97.566 469.098 96.6702C469.397 96.1029 469.756 95.7446 469.875 95.655C469.726 95.2967 468.709 92.8183 469.995 90.0712C470.862 88.2199 473.134 87.2345 474.869 87.9511C476.603 88.6678 477.141 90.0115 477.081 90.9073C477.022 91.6538 476.753 92.2808 476.394 92.5496C476.214 92.669 476.005 92.6989 475.856 92.6391C475.646 92.5496 475.616 92.3107 475.616 92.0121C475.586 91.5045 475.556 90.7878 474.6 90.2503C474.121 89.9816 473.553 89.9517 473.075 90.1608C472.716 90.3101 472.237 90.6684 471.968 91.4447C471.609 92.4898 471.639 93.5051 472.088 94.3412C472.626 95.3863 473.762 96.1626 475.287 96.5209C477.53 97.0584 479.862 95.3863 480.61 92.7287C480.819 91.9225 480.939 90.9968 480.64 90.0115C480.042 88.0407 478.696 86.2491 475.437 84.6665C474.331 84.129 472.028 83.1138 471.131 82.6958C471.639 81.2625 471.699 80.8146 471.849 80.307C472.148 79.8292 472.985 79.0528 473.792 78.8438C474.719 78.6348 475.826 79.0827 475.796 79.2619C475.766 79.441 474.54 79.7396 473.852 81.3222C474.121 81.4416 476.424 82.0687 478.397 83.3527C481.716 85.5026 482.643 87.772 482.912 88.7872C483.391 90.4594 483.301 92.0121 482.942 93.2363ZM450.768 40.6529C448.764 38.8015 447.15 38.3238 447.15 38.3238V34.8302C448.106 35.3079 450.319 36.4725 451.575 37.5176C452.831 38.5627 453.788 39.5779 454.565 40.4438L454.027 43.9673C453.1 42.9819 451.934 41.7278 450.768 40.6529ZM448.226 46.9832C447.658 42.9819 447.897 41.1306 447.897 41.1306C448.794 41.4292 450.319 42.9521 450.828 43.4896C450.828 43.4896 450.708 44.027 451.097 46.4756C451.366 48.3269 451.934 50.0289 452.143 50.7455L449.332 52.0594C449.063 51.1636 448.525 49.1331 448.226 46.9832ZM450.349 70.9608C450.678 73.6183 452.891 76.1266 456.001 75.7981C457.346 75.6488 458.303 75.0217 458.961 74.335L458.781 74.1259C458.363 73.7378 456.898 72.3642 455.702 70.8413C454.535 69.3483 453.967 68.5421 453.848 68.3928L453.519 67.9151C453.549 67.8852 453.937 67.6165 455.104 67.6463C456.389 67.706 457.615 68.6914 457.974 68.99C457.974 68.99 458.572 69.6469 460.486 71.6476C462.758 74.0065 464.403 75.1412 464.672 75.3203C464.672 76.0071 464.493 77.321 464.224 78.2466C463.177 77.6793 461.802 76.5446 461.144 76.0071C461.054 75.9175 460.964 75.8578 460.905 75.828C460.067 76.8432 458.841 77.8286 456.987 78.3362C456.569 78.4556 456.09 78.5154 455.642 78.4855C451.575 78.3661 448.854 75.3502 448.196 72.3941C447.957 71.2892 448.047 69.8858 448.077 68.9303C448.106 68.0942 448.166 67.3477 447.957 66.8102C447.748 66.1832 447.449 65.795 447.239 65.5262C447.06 65.2575 446.91 65.1082 447.06 64.9589C447.269 64.6902 447.987 64.8693 448.645 65.3172C449.063 65.586 449.243 65.9144 449.303 66.0936C449.691 65.4964 451.575 62.9284 454.834 62.809C455.941 62.7791 456.928 63.018 457.675 63.4958C458.303 63.8839 458.722 64.4513 458.901 65.0186C459.021 65.4665 459.021 65.8248 458.722 65.9742C458.572 66.0637 458.213 65.9144 457.735 65.6756C457.047 65.3471 455.971 64.9888 454.715 65.1381C453.698 65.2575 452.263 65.9443 451.276 67.2581C450.499 68.2734 450.17 69.5872 450.349 70.9608ZM436.804 94.9085C432.976 98.3723 430.016 99.2382 426.398 99.8354C422.391 100.522 414.736 99.4472 414.736 99.4472L410.789 86.7269C410.789 86.7269 414.885 90.5788 417.038 92.2808C419.191 93.9828 421.195 94.9085 424.245 94.9085C427.295 94.9085 429.358 94.1321 431.601 91.7433C433.843 89.3545 434.681 86.279 435.249 82.636C435.637 80.0084 435.458 72.7524 435.458 71.0802L436.026 31.665C436.026 31.665 436.295 23.1549 435.697 21.0348C435.099 18.8849 433.813 17.3322 433.036 16.526C431.331 14.7344 427.683 14.167 427.683 14.167C426.637 13.9879 426.398 13.4802 426.487 12.9726C426.607 12.2261 427.265 12.1067 427.265 12.1067L453.04 12.1664C453.04 12.1664 453.668 12.2261 453.788 13.0025C453.878 13.5101 453.638 14.0177 452.592 14.1969C452.592 14.1969 448.974 14.7941 447.239 16.5558C446.462 17.362 445.176 18.9148 444.578 21.0647C443.98 23.2146 444.249 31.6949 444.249 31.6949V71.1997C444.249 71.1997 444.339 78.814 443.352 82.8152C442.634 85.5922 441.05 91.0864 436.804 94.9085ZM407.948 92.878C406.543 95.8342 404.21 98.4618 403.762 98.0438C403.403 97.6855 403.852 97.3869 404.091 96.5209C404.33 95.6252 404.39 95.446 404.39 95.446C404.39 95.446 403.762 96.3418 401.519 97.7452C399.277 99.1486 398.888 99.2382 398.499 98.7007C398.26 98.3424 398.828 97.9542 399.366 97.0286C399.875 96.1328 399.725 96.1626 399.725 96.1626C399.725 96.1626 397.811 95.9835 396.256 95.2967C394.702 94.6099 393.057 92.9975 393.087 92.669C393.147 92.251 393.805 92.0121 394.971 91.4149C396.227 90.7878 397.094 89.9816 397.094 89.9816C397.094 89.9816 396.256 89.7726 395.778 89.5636C395.031 89.2053 394.283 88.8469 394.731 88.3692C395.15 87.981 397.154 89.3247 400.233 86.4283C402.955 83.8603 402.955 80.0979 402.955 80.0979C402.955 80.0979 404.27 84.4874 402.536 87.981C400.383 92.2808 396.346 92.3107 396.795 93.2065C397.333 94.3113 402.267 93.3259 404.39 88.1601C406.154 83.8603 404.3 78.3959 402.955 75.1412C402.566 74.2155 402.057 72.9614 401.729 71.976C402.955 72.5434 403.971 72.8121 404.958 72.9315C404.958 72.9315 404.958 72.9315 404.958 72.9614C404.988 72.9614 405.137 73.2301 405.137 73.2301C406.333 75.1412 408.187 75.7981 409.174 76.1863C410.101 76.5446 411.118 76.7238 412.134 76.7238C413.002 76.7238 413.899 76.6043 414.706 76.2759C415.244 76.0668 415.753 75.7981 416.141 75.3801C417.337 74.0961 417.636 70.1546 418.175 69.8559C418.414 69.7067 419.012 70.692 419.251 71.4087C419.49 72.1552 419.371 72.8718 419.819 73.051C420.148 73.1704 420.328 72.8121 421.015 72.0357C421.972 70.9309 421.823 70.483 422.301 70.6622C422.78 70.8413 422.271 73.2899 422.032 74.6037C421.793 75.9474 421.165 77.8883 421.165 77.8883C421.165 77.8883 422.75 76.8432 424.245 76.1863C428.401 74.335 430.016 74.9023 430.046 75.4099C430.076 75.9175 429.089 76.0071 428.012 77.2911C427.235 78.2168 427.414 78.4556 427.414 78.4556C427.414 78.4556 428.042 78.4855 429.777 77.9779C431.003 77.6196 432.079 77.0522 432.408 77.5598C432.767 78.0675 431.152 80.2472 428.67 81.9493C426.188 83.6513 424.185 84.3082 424.185 84.3082C424.185 84.3082 424.663 84.8158 425.889 85.0248C427.115 85.2339 427.594 85.0547 427.713 85.413C427.863 85.8908 426.487 86.3088 424.185 86.5477C420.896 86.8762 419.191 85.4429 419.191 85.4429C419.191 85.4429 419.61 86.6373 419.131 87.8317C418.623 89.0559 418.504 90.1906 418.025 90.101C417.547 90.0413 418.115 88.8768 417.188 87.7421C416.201 86.5178 415.065 86.2491 413.39 84.9353C411.746 83.6811 411.686 82.6659 411.686 82.6659C411.686 82.6659 414.556 83.7409 419.251 82.9944C423.766 82.2777 425.172 80.934 424.843 80.4264C424.544 79.9785 423.796 80.5458 421.673 81.0535C419.191 81.6208 415.812 81.4715 412.075 80.8444C410.759 80.6354 408.965 80.0084 407.35 78.9334C407.978 80.1875 409.025 82.427 409.264 84.0395C409.712 86.7866 409.354 89.892 407.948 92.878ZM405.048 52.4177C405.227 51.1934 405.945 49.8796 406.363 49.3123C408.008 49.0137 409.055 49.9095 409.204 50.0588C408.307 51.7906 407.739 53.7017 407.231 55.6127C406.632 55.3738 405.765 54.5079 405.048 52.4177ZM405.436 65.3471C404.599 65.2575 402.446 63.8242 402.327 63.4659C402.327 62.7194 402.506 61.0472 402.805 60.0619C403.881 61.943 405.646 62.7493 405.646 62.7493C405.347 63.9437 405.436 65.3471 405.436 65.3471ZM396.615 48.7748C396.825 48.1776 397.004 47.7595 397.183 47.4012C397.542 46.595 397.752 46.1172 397.811 45.0124C397.901 43.7284 397.512 42.7431 397.273 42.4743C397.602 42.5042 398.619 42.9521 399.007 43.7882C399.336 44.4749 399.815 46.2665 399.755 46.5651C399.725 46.6249 399.785 46.6547 399.785 46.6846C399.845 46.7144 399.905 46.6846 400.144 46.5054C400.831 45.9978 402.925 44.4152 406.632 44.3854H406.692C413.51 44.3854 416.5 50.6858 416.53 50.7455L416.56 50.7754H416.59C416.62 50.7754 417.517 51.0441 419.341 50.2678C420.058 49.9692 420.477 49.581 420.896 49.2227C421.583 48.6255 422.181 48.088 423.826 48.0581C425.501 47.9984 426.756 48.9539 426.966 49.6109C427.026 49.7602 427.026 49.999 426.846 50.1185C426.607 50.2976 426.547 50.2678 426.398 50.2081C426.158 50.0886 425.77 49.9095 424.544 50.1185C423.497 50.2678 423.019 51.2532 422.51 52.2684C421.942 53.3732 421.374 54.5079 420.058 54.8364C418.862 55.1648 417.457 54.3287 417.188 53.9107C417.128 53.7913 417.008 53.642 416.859 53.6718C416.739 53.7017 416.68 53.8808 416.68 53.9406C416.68 53.9406 416.65 54.9857 415.992 56.8071C415.394 58.4793 412.643 62.4805 407.231 61.0174C403.911 60.1216 402.626 57.0161 402.775 55.1051C402.835 54.478 403.014 54.06 403.313 54.0301C403.553 54.0003 403.762 54.1794 403.822 54.3586C404.061 55.0752 404.33 55.7919 404.719 56.3891C405.257 57.2252 406.244 58.2404 407.44 58.5091C410.131 59.1063 411.776 57.7328 412.075 57.4342C413.091 56.4787 413.659 54.8961 413.57 53.1941C413.45 51.0143 412.314 49.6407 411.357 48.8644C410.161 47.879 408.606 47.2818 407.081 47.2519C407.051 47.2519 406.991 47.2519 406.961 47.2519C404.988 47.2519 402.984 48.0581 401.43 49.4317C399.456 51.1934 398.32 53.8211 398.081 57.0161C397.871 59.7633 399.007 62.809 401.011 64.9888C402.566 66.6908 404.509 67.6165 406.453 67.6463C406.483 67.6463 406.513 67.6463 406.573 67.6463C411.716 67.6463 415.035 64.4811 418.533 61.1368C421.823 58.0015 425.202 54.7766 430.524 53.2836C430.913 53.1642 432.737 53.0149 433.126 52.985L433.036 55.8815C430.046 56.4488 425.889 58.3598 426.099 60.4202C426.308 62.4507 427.624 63.5555 428.252 64.093C428.401 64.2124 428.551 64.3319 428.551 64.3617C428.551 64.3916 428.491 64.4214 428.281 64.511C427.713 64.72 426.398 64.8693 425.381 64.3916C424.006 63.7645 422.66 61.525 422.63 61.4952L422.57 61.4056L422.51 61.4952C422.481 61.525 418.414 65.795 416.201 67.4074C414.766 68.4525 410.968 71.2295 406.483 71.0205C403.373 70.8712 400.503 69.4678 398.409 67.0491C396.197 64.511 395.001 60.9875 395.031 57.1654C395.031 53.6718 395.419 52.0892 396.615 48.7748ZM406.543 12.1664C406.573 12.1664 409.742 11.8977 412.762 13.0921C414.078 13.6295 415.035 14.2865 415.872 14.8837H415.902C417.158 15.7496 418.115 16.4662 419.52 16.0183C421.105 15.5406 421.434 14.2865 421.643 13.4504C421.703 13.2414 421.793 12.883 421.853 12.8532C421.912 12.8233 422.211 12.9428 422.451 13.3309C422.75 13.7788 423.527 15.451 421.434 18.4967C420.268 20.1689 418.384 20.5272 418.294 20.5272C418.205 20.5272 418.145 20.5869 418.085 20.6466C418.055 20.7064 418.025 20.7959 418.055 20.8855C418.175 21.3036 418.175 21.632 418.205 21.9306C418.294 22.9757 418.175 23.991 417.487 25.693C416.41 28.2908 414.257 29.8734 411.417 30.2317C408.666 30.5602 406.423 29.0075 405.616 27.3054C404.898 25.7228 404.838 23.9014 405.496 22.2591C405.646 21.841 405.945 21.5126 406.184 21.4529C406.304 21.423 406.393 21.4529 406.483 21.5424C406.722 21.7216 406.722 22.1994 406.752 22.8264C406.782 23.4535 406.812 24.2298 407.081 25.0361C407.5 26.2902 408.905 27.4846 410.699 27.3353C413.45 27.0964 415.095 25.1555 415.155 22.1695C415.214 19.0342 413.211 15.3316 407.35 15.1823C407.26 15.1823 407.201 15.1823 407.111 15.1823C404.898 15.1823 402.865 16.0482 401.25 17.6606C399.396 19.5717 398.2 22.4382 398.14 25.1854C398.051 30.5303 400.831 33.6358 403.164 35.3079C405.526 36.9801 409.234 37.0995 413.869 35.6364C415.454 35.1288 417.158 34.442 418.803 33.7552H418.832C420.238 33.1879 421.673 32.5907 423.049 32.083C423.856 31.8143 424.723 31.5754 425.62 31.4261L425.74 31.3963L425.65 31.2768C425.291 30.7991 424.843 30.172 424.245 29.3658C423.049 27.6936 422.72 24.618 423.108 23.991C423.288 23.7222 423.467 23.6625 423.557 23.6625C423.617 23.6625 423.677 23.6924 423.677 23.6924C423.677 23.7222 423.677 23.8715 423.677 23.9014C423.677 24.0507 423.677 24.7673 424.006 25.1257C424.424 25.6034 424.992 25.693 425.231 25.5736C425.321 25.5138 425.381 25.4541 425.411 25.3645C425.501 25.0958 425.919 23.7819 426.637 22.707C427.235 21.8112 429.119 20.4376 430.225 20.4376C430.255 20.4376 430.285 20.4376 430.315 20.4376C430.614 20.4675 430.823 20.5869 430.943 20.8258C431.092 21.1244 430.614 21.632 430.464 21.7813C429.507 22.7966 428.371 24.2896 428.281 26.768C428.252 27.9325 428.581 28.888 429.268 29.6345C430.584 31.0379 432.856 31.2171 433.305 31.2171V33.7851C433.245 33.7851 433.156 33.7851 433.096 33.7851C430.853 33.7851 429.059 36.5023 428.461 39.2793C427.953 41.5487 428.401 44.7437 428.581 45.6992C428.76 46.5651 428.61 46.7742 428.551 46.804C428.521 46.8339 428.491 46.8339 428.401 46.8339C427.923 46.7443 427.056 45.7291 426.099 44.1763C425.381 43.0417 425.59 41.6084 425.71 40.832C425.77 40.414 425.8 40.2348 425.65 40.1154L425.62 40.0855C425.531 39.9959 425.381 39.9064 425.202 39.9064C425.202 39.9064 425.202 39.9064 425.172 39.9064C424.962 39.9064 424.723 40.0557 424.454 40.3244C424.245 40.5633 424.125 40.7126 424.065 40.832C423.946 41.0112 423.946 41.0112 423.647 40.8917C423.647 40.8917 423.617 40.8917 423.587 40.832C423.378 40.2647 424.006 38.2939 424.813 36.9204C425.441 35.8155 426.129 35.0093 427.085 34.2628L427.355 34.0538L426.996 34.1434C423.736 34.8899 420.477 36.1739 418.474 37.5474C415.902 39.2793 413.809 41.3396 412.284 43.6389C412.015 43.4597 411.746 43.3403 411.088 43.0417C410.669 42.8625 410.041 42.6535 409.563 42.5938C410.191 41.7278 411.297 40.5633 411.746 40.0855L411.776 40.0557C411.835 39.9661 411.835 39.8168 411.746 39.7272C411.656 39.6376 411.536 39.6078 411.417 39.6376C411.297 39.6973 408.397 40.8022 403.283 38.8911C399.127 37.3384 394.791 32.8295 395.031 24.8868C395.33 16.7648 401.011 12.6442 406.543 12.1664ZM388.631 106.464H490.089V5H388.631V106.464Z" fill="#990000"/>
<path d="M534.12 10.4C537.04 10.4 539.58 10.92 541.74 11.96C543.94 13 545.62 14.48 546.78 16.4C547.98 18.28 548.58 20.48 548.58 23C548.58 25.52 547.98 27.74 546.78 29.66C545.62 31.54 543.94 33 541.74 34.04C539.58 35.08 537.04 35.6 534.12 35.6H524.7V53H519V10.4H534.12ZM533.52 30.8C536.28 30.8 538.48 30.1 540.12 28.7C541.76 27.26 542.58 25.36 542.58 23C542.58 20.64 541.76 18.76 540.12 17.36C538.48 15.92 536.28 15.2 533.52 15.2H524.7V30.8H533.52ZM557.537 29.84C558.297 27.6 559.457 25.78 561.017 24.38C562.617 22.98 564.497 22.28 566.657 22.28C567.137 22.28 567.497 22.3 567.737 22.34V27.32H567.497C564.657 27.32 562.457 28.1 560.897 29.66C559.617 30.94 558.797 32.42 558.437 34.1C558.077 35.78 557.897 37.8 557.897 40.16V53H552.797V23H557.537V29.84ZM571.959 23H577.059V53H571.959V23ZM571.599 11H577.419V17.42H571.599V11ZM590.238 23V28.22C591.918 24.26 594.778 22.28 598.818 22.28C600.898 22.28 602.658 22.8 604.098 23.84C605.578 24.84 606.658 26.32 607.338 28.28C609.298 24.28 612.338 22.28 616.458 22.28C619.338 22.28 621.578 23.26 623.178 25.22C624.778 27.14 625.578 29.84 625.578 33.32V53H620.478V33.74C620.478 29.02 618.578 26.66 614.778 26.66C612.658 26.66 610.998 27.42 609.798 28.94C608.638 30.42 608.058 32.52 608.058 35.24V53H602.958V33.5C602.958 31.3 602.458 29.62 601.458 28.46C600.498 27.26 599.118 26.66 597.318 26.66C595.238 26.66 593.578 27.46 592.338 29.06C591.138 30.62 590.538 32.76 590.538 35.48V53H585.438V23H590.238ZM640.517 53.72C637.437 53.72 634.977 52.92 633.137 51.32C631.297 49.72 630.377 47.58 630.377 44.9C630.377 43.38 630.737 42.02 631.457 40.82C632.177 39.58 633.217 38.58 634.577 37.82C635.737 37.26 637.097 36.78 638.657 36.38C640.217 35.98 642.217 35.64 644.657 35.36L650.237 34.7V34.22C650.237 31.46 649.717 29.48 648.677 28.28C647.637 27.08 645.957 26.48 643.637 26.48C641.597 26.48 639.977 27 638.777 28.04C637.577 29.08 636.917 30.54 636.797 32.42H631.337C631.537 29.34 632.737 26.88 634.937 25.04C637.177 23.2 640.057 22.28 643.577 22.28C647.697 22.28 650.697 23.28 652.577 25.28C654.457 27.24 655.397 30.4 655.397 34.76V42.86C655.397 47.42 655.737 50.8 656.417 53H651.077C650.837 51.32 650.677 49.5 650.597 47.54C649.917 49.46 648.677 50.98 646.877 52.1C645.077 53.18 642.957 53.72 640.517 53.72ZM641.657 49.52C644.257 49.52 646.337 48.66 647.897 46.94C649.497 45.18 650.297 42.84 650.297 39.92V38.42L642.137 39.62C639.937 39.94 638.317 40.52 637.277 41.36C636.277 42.16 635.777 43.3 635.777 44.78C635.777 46.26 636.297 47.42 637.337 48.26C638.377 49.1 639.817 49.52 641.657 49.52ZM667.761 29.84C668.521 27.6 669.681 25.78 671.241 24.38C672.841 22.98 674.721 22.28 676.881 22.28C677.361 22.28 677.721 22.3 677.961 22.34V27.32H677.721C674.881 27.32 672.681 28.1 671.121 29.66C669.841 30.94 669.021 32.42 668.661 34.1C668.301 35.78 668.121 37.8 668.121 40.16V53H663.021V23H667.761V29.84ZM683.475 65C682.475 65 681.555 64.92 680.715 64.76V60.26C681.235 60.34 681.955 60.38 682.875 60.38C684.675 60.38 686.095 59.94 687.135 59.06C688.175 58.22 689.035 56.82 689.715 54.86L690.495 52.64L678.555 23H684.255L691.935 43.88C692.375 45.08 692.715 46.26 692.955 47.42H693.075C693.235 46.7 693.575 45.52 694.095 43.88L701.055 23H706.575L694.875 54.92C693.555 58.56 691.975 61.14 690.135 62.66C688.295 64.22 686.075 65 683.475 65Z" fill="black"/>
<path d="M533.9 103.02C528.7 103.02 524.64 101.78 521.72 99.3C518.8 96.78 517.16 93.46 516.8 89.34L522.56 88.5C523 91.38 524.14 93.74 525.98 95.58C527.86 97.42 530.56 98.34 534.08 98.34C536.72 98.34 538.96 97.74 540.8 96.54C542.64 95.34 543.56 93.5 543.56 91.02C543.56 88.66 542.9 86.94 541.58 85.86C540.26 84.74 538.22 83.9 535.46 83.34L529.28 82.08C522.16 80.6 518.6 76.68 518.6 70.32C518.6 67.96 519.2 65.88 520.4 64.08C521.64 62.28 523.36 60.88 525.56 59.88C527.8 58.88 530.42 58.38 533.42 58.38C537.86 58.38 541.5 59.4 544.34 61.44C547.18 63.48 548.8 66.5 549.2 70.5L543.5 71.7C542.74 65.82 539.34 62.88 533.3 62.88C530.66 62.88 528.52 63.5 526.88 64.74C525.28 65.98 524.48 67.66 524.48 69.78C524.48 71.82 525.04 73.42 526.16 74.58C527.28 75.74 529.04 76.58 531.44 77.1L537.68 78.42C541.4 79.18 544.28 80.48 546.32 82.32C548.4 84.16 549.44 86.88 549.44 90.48C549.44 92.76 548.86 94.86 547.7 96.78C546.58 98.66 544.84 100.18 542.48 101.34C540.16 102.46 537.3 103.02 533.9 103.02ZM566.135 102.72C563.335 102.72 560.875 102.1 558.755 100.86C556.635 99.58 554.995 97.76 553.835 95.4C552.715 93.04 552.155 90.24 552.155 87C552.155 83.76 552.715 80.96 553.835 78.6C554.995 76.24 556.635 74.44 558.755 73.2C560.875 71.92 563.335 71.28 566.135 71.28C568.935 71.28 571.395 71.92 573.515 73.2C575.635 74.44 577.255 76.24 578.375 78.6C579.535 80.96 580.115 83.76 580.115 87C580.115 90.24 579.535 93.04 578.375 95.4C577.255 97.76 575.635 99.58 573.515 100.86C571.395 102.1 568.935 102.72 566.135 102.72ZM566.135 98.28C568.855 98.28 570.955 97.32 572.435 95.4C573.955 93.48 574.715 90.68 574.715 87C574.715 83.32 573.955 80.52 572.435 78.6C570.955 76.68 568.855 75.72 566.135 75.72C563.415 75.72 561.295 76.68 559.775 78.6C558.295 80.52 557.555 83.32 557.555 87C557.555 90.68 558.295 93.48 559.775 95.4C561.295 97.32 563.415 98.28 566.135 98.28ZM595.155 102.72C591.555 102.72 588.935 101.72 587.295 99.72C585.695 97.72 584.895 94.86 584.895 91.14V72H589.995V90.54C589.995 93.06 590.515 95 591.555 96.36C592.635 97.68 594.155 98.34 596.115 98.34C598.515 98.34 600.455 97.4 601.935 95.52C603.415 93.64 604.155 91.18 604.155 88.14V72H609.255V102H604.455V96.36C603.775 98.2 602.575 99.72 600.855 100.92C599.135 102.12 597.235 102.72 595.155 102.72ZM622.413 78.84C623.173 76.6 624.333 74.78 625.893 73.38C627.493 71.98 629.373 71.28 631.533 71.28C632.013 71.28 632.373 71.3 632.613 71.34V76.32H632.373C629.533 76.32 627.333 77.1 625.773 78.66C624.493 79.94 623.673 81.42 623.313 83.1C622.953 84.78 622.773 86.8 622.773 89.16V102H617.673V72H622.413V78.84ZM647.642 102.72C644.882 102.72 642.462 102.08 640.382 100.8C638.302 99.52 636.682 97.7 635.522 95.34C634.402 92.94 633.842 90.16 633.842 87C633.842 82.12 635.062 78.28 637.502 75.48C639.982 72.68 643.362 71.28 647.642 71.28C651.162 71.28 654.002 72.24 656.162 74.16C658.322 76.08 659.602 78.76 660.002 82.2L654.782 82.8C654.502 80.52 653.722 78.78 652.442 77.58C651.202 76.34 649.562 75.72 647.522 75.72C644.922 75.72 642.882 76.72 641.402 78.72C639.962 80.68 639.242 83.42 639.242 86.94C639.242 90.54 639.982 93.34 641.462 95.34C642.942 97.3 645.022 98.28 647.702 98.28C649.742 98.28 651.382 97.68 652.622 96.48C653.862 95.28 654.682 93.5 655.082 91.14L659.942 91.92C659.382 95.36 658.022 98.02 655.862 99.9C653.742 101.78 651.002 102.72 647.642 102.72ZM689.424 88.5H668.124C668.164 91.42 668.984 93.78 670.584 95.58C672.224 97.34 674.384 98.22 677.064 98.22C678.984 98.22 680.624 97.74 681.984 96.78C683.344 95.78 684.364 94.36 685.044 92.52L689.244 94.38C688.204 97.1 686.604 99.18 684.444 100.62C682.324 102.02 679.744 102.72 676.704 102.72C672.384 102.72 669.024 101.4 666.624 98.76C664.224 96.08 663.024 92.28 663.024 87.36C663.024 82.32 664.224 78.38 666.624 75.54C669.024 72.7 672.364 71.28 676.644 71.28C680.724 71.28 683.864 72.44 686.064 74.76C688.304 77.08 689.424 80.46 689.424 84.9V88.5ZM684.264 83.7C684.264 80.98 683.584 78.9 682.224 77.46C680.904 76.02 679.004 75.3 676.524 75.3C673.924 75.3 671.884 76.1 670.404 77.7C668.964 79.3 668.204 81.52 668.124 84.36H684.264V83.7Z" fill="black"/>
<path d="M491 10H722M491 53.5H722" stroke="#D1CFC7"/>
<path d="M491 60H722M491 103.5H722" stroke="#D1CFC7"/>
<path d="M105.5 25.5H340M105.5 77.5H340" stroke="#D1CFC7"/>
<path d="M26.1641 126.816C23.5626 125.054 21.1107 123.382 21.1107 120.097C21.1107 118.156 22.2469 116.096 25.4465 116.096C28.1974 116.096 29.9317 117.529 30.47 120.217C30.47 120.277 30.5298 120.336 30.5896 120.336H30.7989C30.8288 120.336 30.8587 120.336 30.8886 120.306C30.9185 120.277 30.9185 120.247 30.9185 120.217C30.8886 119.679 30.8886 118.754 30.8886 118.216C30.8886 117.291 30.9185 116.634 31.0082 115.798C31.0082 115.768 31.0082 115.708 30.9783 115.678C30.9484 115.648 30.9185 115.648 30.8587 115.648C30.6494 115.678 30.47 115.678 30.2607 115.678C29.6327 115.678 29.0048 115.559 28.3469 115.439C27.5097 115.29 26.5827 115.111 25.3866 115.111C21.32 115.111 18.4494 117.858 18.4494 121.799C18.4494 125.95 21.3798 127.921 24.1906 129.862C26.9116 131.713 29.4533 133.445 29.4533 136.968C29.4533 140.283 27.0014 141.776 24.5793 141.776C21.7685 141.776 18.9577 140.223 18.9577 137.297C18.9577 137.058 18.9876 136.789 19.0175 136.52V136.401C19.0175 136.371 19.0175 136.311 18.9876 136.311C18.9577 136.281 18.9278 136.281 18.8979 136.281H18.7783C18.7185 136.281 18.6886 136.311 18.6587 136.371C18.2401 137.297 18.2102 138.402 18.2102 138.73C18.2102 139.208 18.27 139.656 18.2999 140.074C18.3597 140.492 18.3896 140.85 18.3896 141.268C18.3896 141.597 18.3896 142.015 18.3597 142.194C18.3597 142.224 18.3597 142.283 18.3896 142.313C18.4195 142.343 18.4494 142.343 18.5092 142.343C18.7185 142.313 18.8082 142.313 19.0474 142.313C19.8548 142.313 20.5126 142.463 21.2004 142.612C22.0376 142.791 22.9945 143 24.3401 143C28.9151 143 32.1146 139.895 32.1146 135.416C32.0847 130.847 29.0646 128.816 26.1641 126.816Z" fill="#990000"/>
<path d="M77.446 129.294C77.446 136.998 73.6185 141.775 67.4587 141.775C61.3587 141.775 57.7406 137.028 57.7406 129.055C57.7406 123.113 60.2822 116.155 67.4587 116.155C72.0935 116.155 77.446 119.589 77.446 129.294ZM67.7876 115.08C59.1759 115.08 54.0626 122.247 54.0626 129.174C54.0626 135.923 59.0862 142.88 67.4886 142.88C75.1435 142.88 81.1538 136.819 81.1538 129.055C81.1239 121.232 75.2631 115.08 67.7876 115.08Z" fill="#990000"/>
<path d="M97.271 123.292C97.271 125.95 96.5533 129.503 90.4533 129.503H88.7489V116.604C89.8254 116.305 90.543 116.245 91.3803 116.245C94.9386 116.275 97.271 119.022 97.271 123.292ZM104.806 142.403C102.594 141.656 100.022 137.058 98.1381 133.714C97.0617 131.802 96.2244 130.28 95.5965 129.682C98.796 128.428 100.71 125.89 100.71 122.815C100.71 118.156 97.1215 115.141 91.5597 115.141C91.171 115.141 90.5431 115.17 89.8553 115.17C89.0779 115.2 88.2107 115.2 87.5828 115.2C85.9082 115.2 85.2205 115.2 83.9347 115.111C83.9048 115.111 83.8749 115.111 83.845 115.141C83.8151 115.17 83.8151 115.2 83.8151 115.23V115.409C83.8151 115.469 83.8749 115.529 83.9347 115.529C85.2205 115.738 85.669 116.245 85.669 118.843V139.148C85.669 142.164 85.1906 142.253 83.8749 142.462C83.8151 142.462 83.7553 142.522 83.7553 142.582V142.761C83.7553 142.791 83.7553 142.821 83.7852 142.851C83.8151 142.881 83.845 142.881 83.8749 142.881C84.6524 142.851 85.7288 142.791 87.194 142.791C88.7489 142.791 90.0347 142.851 90.5132 142.881C90.5431 142.881 90.573 142.881 90.6029 142.851C90.6328 142.821 90.6328 142.791 90.6328 142.761V142.582C90.6328 142.522 90.573 142.462 90.5132 142.462C89.1975 142.253 88.719 142.164 88.719 139.148V130.578H91.0215C91.4401 130.578 91.9783 130.518 92.5764 130.429C93.2342 131.056 94.0117 132.519 94.4901 133.415C94.5798 133.594 94.6695 133.773 94.7592 133.893C99.2445 142.283 99.723 142.791 103.76 142.94C104.208 142.94 104.388 142.94 104.717 142.91C104.776 142.91 104.836 142.851 104.836 142.791V142.552C104.896 142.492 104.866 142.433 104.806 142.403Z" fill="#990000"/>
<path d="M54.3318 115.08C54.3019 115.05 54.272 115.02 54.2122 115.02C52.4181 115.05 42.9691 115.2 34.5068 115.02C34.447 115.02 34.3872 115.05 34.3872 115.11C34.2078 115.797 34.0583 116.394 33.8789 116.961C33.6696 117.678 33.4902 118.335 33.3407 119.022C33.3407 119.052 33.3407 119.111 33.3706 119.141C33.4005 119.171 33.4304 119.201 33.4603 119.201H33.6397C33.6995 119.201 33.7294 119.171 33.7593 119.111C34.8657 116.782 36.6299 116.752 42.4309 116.752V139.088C42.4309 142.103 41.9524 142.193 40.6367 142.402C40.5769 142.402 40.5171 142.462 40.5171 142.521V142.701C40.5171 142.73 40.5171 142.76 40.547 142.79C40.5769 142.82 40.6068 142.82 40.6367 142.82C41.3843 142.79 42.4608 142.73 43.926 142.73C45.4809 142.73 46.7367 142.79 47.2152 142.82C47.2451 142.82 47.275 142.82 47.3049 142.79C47.3348 142.76 47.3348 142.73 47.3348 142.701V142.521C47.3348 142.462 47.275 142.402 47.2152 142.402C45.9294 142.193 45.4211 142.103 45.4211 139.088V116.752C52.0892 116.752 52.9863 117.021 52.9863 118.036C52.9863 118.215 52.9564 118.454 52.9265 118.574C52.9265 118.604 52.9265 118.663 52.9564 118.693C52.9863 118.723 53.0162 118.753 53.0461 118.753H53.2853C53.3451 118.753 53.4049 118.693 53.4049 118.633C53.5245 118.036 53.9431 116.215 54.272 115.2C54.3617 115.17 54.3617 115.11 54.3318 115.08Z" fill="#990000"/>
<path d="M15.0108 115.051C14.2632 115.081 12.798 115.111 11.5422 115.111C10.1966 115.111 8.70147 115.081 7.92402 115.051C7.89412 115.051 7.86421 115.051 7.83431 115.081C7.80441 115.111 7.80441 115.14 7.80441 115.17V115.349C7.80441 115.409 7.86422 115.469 7.92402 115.469C9.23971 115.678 10.1069 115.827 10.1069 118.664V135.176C10.1069 138.282 8.61176 141.656 6.21961 141.656C5.77108 141.656 5.35245 141.626 4.96372 141.566C3.28922 141.148 2.24265 139.984 1.61471 139.148C1.525 139.028 1.43529 138.909 1.37549 138.789C0.687745 137.744 0.358824 136.849 0.358824 136.819C0.328922 136.729 0.239216 136.699 0.14951 136.699C0.0598039 136.729 0 136.789 0 136.908L0.568137 141.238C0.568137 141.298 0.598039 141.357 0.657843 141.387C2.24265 142.403 4.18627 142.701 4.5451 142.731C5.17304 142.821 5.68137 142.85 5.98039 142.85C6.21961 142.85 6.36912 142.85 6.36912 142.85C10.376 142.85 13.0672 139.596 13.0672 134.758V118.664C13.0672 115.887 13.725 115.767 15.0407 115.469L15.1005 115.439C15.1603 115.439 15.1902 115.379 15.1902 115.32V115.14C15.1902 115.111 15.1902 115.081 15.1603 115.051C15.0706 115.051 15.0407 115.051 15.0108 115.051Z" fill="#990000"/>
<path d="M97.4506 45.2379C96.5536 45.8351 95.5967 45.9247 95.5668 45.9247C95.5369 45.9247 95.507 45.9546 95.507 45.9844C95.507 46.0143 95.507 46.0441 95.5369 46.074C95.5668 46.1039 97.9888 48.1941 98.2281 51.0308C98.4972 53.9272 98.0486 55.5396 96.5835 56.9132C95.4173 58.018 93.7129 58.1673 93.0849 58.018C92.9354 57.9882 92.9055 57.9583 92.9055 57.9284C92.8158 57.5701 93.354 57.1819 94.0119 56.734C94.1614 56.6444 94.3109 56.525 94.4604 56.4354C95.2977 55.8382 95.7462 54.8528 95.4771 54.3154C95.3874 54.1362 95.2379 54.1063 95.0584 54.1063C94.9089 54.1063 94.7594 54.1661 94.58 54.2258C94.2511 54.3154 93.8923 54.4348 93.7129 54.2258C93.5035 54.0168 93.5932 53.8376 93.7727 53.4793C93.9222 53.1807 94.1016 52.8224 94.1315 52.3147C94.2212 51.2099 94.0717 48.3135 92.5168 47.985C92.457 47.985 92.3972 47.985 92.3374 48.0149C92.1879 48.1343 92.1879 48.4927 92.1879 49.06C92.1879 49.8065 92.158 50.7919 91.7393 51.4488C91.0815 52.464 90.0349 53.2404 89.5565 53.2404C89.4369 53.2404 89.3771 53.2105 89.3173 53.1508C89.2575 53.0612 89.2874 52.8224 89.3771 52.464C89.5565 51.628 89.8555 50.0752 89.407 47.1788C89.2575 46.1636 88.6295 45.0588 88.0614 44.0137C87.4933 42.9984 86.955 42.013 86.8354 41.177C86.6261 39.6242 86.8055 38.9673 87.6727 38.3104C88.181 37.9222 88.2707 37.5639 88.2707 37.325C88.2707 37.0861 88.1511 36.6382 87.7325 36.4889C87.7026 36.4889 87.7026 36.4889 87.6727 36.4591C87.4633 36.3994 87.1045 36.3695 86.7158 36.3695C85.0712 36.3994 81.2138 36.4292 78.4928 32.7266C76.28 29.7406 76.1305 26.9337 76.5491 23.6193V23.5894C76.5491 23.5297 76.3099 22.3054 75.2634 21.3499C74.755 20.902 74.2467 20.6333 73.8879 20.4541C73.6786 20.3347 73.4393 20.2451 73.4393 20.1555C73.4393 20.1555 73.4393 20.0958 73.4991 20.0659C73.7683 19.7972 74.6952 19.409 75.981 19.5882C76.9379 19.7375 77.6256 20.1257 77.6256 20.1257C77.6555 20.1555 77.6854 20.1257 77.7153 20.0958C77.7452 20.0659 80.257 17.1098 84.4433 17.4382C86.955 17.6174 89.3472 20.0659 89.407 22.7235C89.4668 25.381 88.2408 26.7844 87.1643 27.1428C86.2972 27.4414 85.4898 27.4115 85.0114 27.083C84.8021 26.9337 84.6526 26.7247 84.6526 26.4858C84.6526 26.2768 84.832 26.1574 85.1908 25.9782C85.7888 25.6796 86.7158 25.2019 86.8354 23.5297C86.8952 22.6638 86.5962 21.7978 86.0281 21.2006C85.6393 20.7826 84.9516 20.275 83.8153 20.3347C82.3501 20.3944 81.154 20.9617 80.3467 22.0068C79.33 23.3207 78.9712 25.381 79.3599 27.74C79.9281 31.1739 83.2472 33.5627 86.8952 33.1745C89.0482 32.9655 91.0516 31.7412 92.5766 29.7704C94.0119 27.9191 94.8491 25.5303 94.879 23.2311C94.9388 17.498 91.6197 11.5857 84.0246 11.2871C76.7585 11.0183 72.2433 15.5272 70.18 18.2146C68.8942 19.8868 67.5487 23.0818 66.5619 25.6796C67.0104 25.59 68.4158 25.4109 69.6717 26.0379C70.9575 26.665 72.4526 28.2177 72.1834 28.8746C72.1236 29.0538 71.7349 28.9642 71.1668 28.8149C70.4192 28.6059 69.3727 28.6656 68.2065 28.8448C66.2031 29.1135 65.3957 29.5017 65.1565 29.7107L65.2761 29.3524C65.2163 29.5614 65.1565 29.7107 65.1565 29.7107L62.4354 28.0386C62.8241 26.3365 64.5585 19.2 68.8942 14.512C73.3496 9.7045 78.7021 8.12192 83.4266 8.09206C85.9982 8.0622 88.3604 8.45038 90.304 8.89828C90.5433 8.958 90.7526 8.98786 90.9619 9.04758C92.8158 9.46562 94.7594 9.8538 96.1349 9.49548C96.8825 9.31632 97.5104 9.01772 97.9888 8.77884C98.2879 8.62954 98.5869 8.48024 98.6467 8.51011C98.6467 8.51011 98.6766 8.53996 98.6766 8.56982C98.7364 8.86842 98.4673 9.82395 97.6001 10.9885C97.0619 11.735 96.3741 12.153 95.8957 12.4815C95.4472 12.7502 95.1481 12.9592 95.1481 13.2578C95.1481 13.4071 95.2977 13.6759 95.5668 14.1536C96.404 15.6466 98.1384 18.7819 97.929 23.2012C97.6001 29.9795 94.3707 32.8759 92.2178 34.8168L91.9486 35.0557H91.9187C90.4834 36.698 90.6629 38.2208 91.0815 39.1763C91.7094 40.6395 93.0849 41.8637 94.8491 42.4908C95.8658 42.8491 96.9722 42.9686 97.7795 43.0581C98.3776 43.1179 98.9756 43.1776 99.0354 43.3269C99.2447 43.8046 98.6766 44.4616 97.4506 45.2379ZM97.7197 68.678C97.0619 72.53 94.879 74.1723 93.0251 74.4112C92.8756 74.441 92.7261 74.441 92.6065 74.441C92.0683 74.441 91.6496 74.2917 91.53 74.0528C91.5001 73.9633 91.4702 73.8737 91.5001 73.7841C91.5599 73.6348 91.7692 73.5452 92.0683 73.4556C92.4271 73.3362 92.9354 73.1272 93.4736 72.7091C95.0584 71.455 94.9687 70.9175 94.9089 70.4995C94.9089 70.4398 94.879 70.4099 94.8491 70.4099C94.7594 70.3502 94.5202 70.4696 94.2511 70.6189L94.1315 70.6786C93.7727 70.8578 93.4437 70.8877 93.1746 70.7682C93.0251 70.6787 92.9354 70.5592 92.9055 70.4099C92.8756 70.2308 93.0849 70.0516 93.3241 69.8127C93.5334 69.6336 93.7727 69.4245 93.9222 69.1857C94.7295 67.9315 94.879 66.4087 94.2511 65.2143C93.8026 64.3185 93.1447 63.4824 91.2011 63.3032C91.1712 63.3032 91.1114 63.3032 91.0815 63.3032H91.0217C90.7825 63.3032 90.5134 63.3331 90.2143 63.3928C88.0614 63.8109 86.6261 65.2441 85.6692 66.767C85.6692 66.7969 85.6393 66.8267 85.6393 66.8267C84.3236 68.7676 83.9947 71.7536 83.905 72.321V72.3508C83.4864 75.0681 82.5893 79.0992 76.8781 86.176C76.2202 86.9822 75.7119 88.1468 76.0408 89.4606C76.6388 91.73 78.8217 91.939 78.7918 92.1779C78.7619 92.5063 78.3133 92.5063 77.506 92.4466C76.6986 92.3869 76.3996 92.1181 76.3996 92.1181C76.3996 92.1181 76.1903 92.6258 77.5359 93.6111C78.5526 94.3577 79.7187 94.3278 79.7486 94.6562C79.7785 95.0444 73.4393 96.5076 73.0506 90.1175C73.0506 89.9682 73.0207 89.8189 73.0207 89.6696C66.1732 95.9402 64.1697 96.2388 63.6614 95.5819C63.4222 95.2534 64.08 95.343 65.3957 93.85C66.7413 92.3272 66.7712 91.6404 66.7712 91.6404C66.7712 91.6404 64.1099 93.0737 61.0001 92.8049C57.8305 92.5063 55.1692 90.2967 55.4085 89.4307C55.5879 88.6842 57.4717 89.9682 59.7442 89.6099C61.8374 89.2814 62.0168 88.4454 62.0168 88.4454C62.0168 88.4454 61.5982 88.4454 60.9104 87.7287C60.2227 87.0121 59.206 86.4149 59.7741 85.8177C60.1031 85.4594 61.6879 86.176 63.2428 86.2059C65.2163 86.2059 66.4722 85.758 66.4722 85.758C66.4722 85.758 65.6648 85.4594 64.8276 84.6531C63.9903 83.8171 63.8109 82.981 64.0501 82.772C64.1996 82.6525 64.5285 83.3094 65.6349 83.3094C66.9207 83.2796 67.0702 82.981 67.0702 82.981C67.0702 82.981 66.532 82.4734 66.2629 81.9956C66.0236 81.488 65.2462 80.0547 65.7246 79.5172C65.8741 79.3381 67.3393 81.1297 69.4923 81.3387C73.2001 81.6671 77.2668 78.7409 77.2668 78.7409C77.2668 78.7409 75.2634 81.1894 71.0173 84.8622C68.2962 87.1912 64.8575 89.1023 65.0668 89.5502C65.306 90.0877 67.9972 89.4606 72.6619 85.5788C74.157 84.3247 75.1138 83.5185 77.1472 81.0102C80.7354 76.5909 81.5428 71.7536 80.8251 67.8718C80.5261 66.349 80.1374 64.9754 79.6589 63.8109C77.6555 59.511 75.5026 57.391 71.9143 56.0174C68.7148 54.7931 66.2629 55.8979 64.7678 56.5847C64.0202 56.9431 63.5119 57.1521 63.3026 56.8535C62.6447 55.9278 63.9604 54.6737 65.1266 53.5689C66.6217 52.1654 67.6085 51.5981 67.8776 51.4787C67.6085 51.3592 66.6516 50.8815 65.7246 50.8217C65.2462 50.7919 64.708 50.8815 64.2295 50.9412C63.482 51.0606 62.8839 51.1502 62.7942 50.762C62.6447 50.0155 65.6947 48.6718 67.3393 48.1343C69.0138 47.5969 70.3594 47.5073 70.5986 47.5073C70.5687 47.149 70.2996 44.3421 70.5986 40.2513C70.7482 38.1014 71.1668 36.6084 71.4658 35.7424C71.8545 34.6376 72.3031 33.8911 72.6918 33.6522C72.8413 33.5627 73.0207 33.5627 73.1403 33.6224C73.4094 33.7717 73.4094 34.339 73.4094 35.1751C73.4094 35.6827 73.4094 36.3396 73.4692 37.0264C73.6487 39.0868 74.3065 40.2214 74.6952 40.4603C74.755 40.4902 74.8148 40.52 74.8447 40.4902C74.9942 40.4305 75.0241 40.1617 75.0839 39.8034C75.1736 39.3256 75.2634 38.6389 75.682 37.8028C76.3398 36.3994 77.6555 34.7571 78.104 34.8765C78.2236 34.9064 78.2535 35.0557 78.2535 35.2647C78.2236 35.9216 78.104 36.4889 78.0143 37.0861C77.805 38.3403 77.5658 39.7437 77.7153 42.3714C77.8947 46.2233 79.6888 46.7309 79.9281 46.7906C80.0477 46.5816 80.9148 45.0886 82.1707 43.7449C82.4398 43.4762 82.679 43.1776 82.9482 42.9088C83.7256 42.013 84.3535 41.3263 84.8021 41.3263H84.832C84.9516 41.3263 85.0712 41.4158 85.131 41.5353C85.2805 41.7742 85.0413 42.4012 84.6227 43.4165C84.0545 44.8199 83.1874 46.9399 82.7986 49.5378C82.081 54.5244 82.7986 59.3617 82.8285 59.3916L82.8884 59.7499L82.7687 59.4214C82.7687 59.4214 82.3501 58.227 80.5859 55.6591C79.8085 54.4945 79.1805 53.8077 78.5825 53.1508C77.8349 52.3148 77.1173 51.5384 76.1305 49.8662C74.9942 47.9552 74.6952 46.5219 74.5158 45.5664C74.3663 44.7602 74.2766 44.372 73.8281 44.3123C73.7683 44.3123 73.7384 44.3421 73.6786 44.4018C73.2898 45.0289 73.4991 48.5225 74.5756 50.5829C75.1437 51.6877 75.8315 52.5835 76.6089 53.5987C77.4163 54.6438 78.3133 55.8084 79.4197 57.6C81.4231 60.8547 82.4099 63.2435 82.8884 64.6768C83.008 65.0351 83.0977 65.3337 83.1874 65.6025C83.4266 65.1247 83.8153 64.5574 83.9349 64.4379C87.4633 60.5561 90.5433 60.2874 92.6663 60.795H92.6962C94.2212 61.1235 95.5967 62.0192 96.5536 63.3629C97.5403 64.9157 98.0187 66.8864 97.7197 68.678ZM96.9423 88.2363C96.9423 88.2662 96.9124 88.2961 96.9124 88.3558C96.1349 91.1029 94.4604 92.9841 92.1281 93.6709C91.4104 93.8799 90.7227 93.9993 90.0947 93.9993C88.5398 93.9993 87.2241 93.4021 85.8187 92.5063C85.729 92.4765 84.9516 92.357 84.1442 92.8049C83.7256 93.0438 83.4565 93.3125 83.2472 93.5216C83.0678 93.7007 82.9482 93.8202 82.8285 93.7903C82.7986 93.7903 82.7388 93.7306 82.7089 93.6709C82.5893 93.3723 82.5893 92.566 83.0977 91.6702C83.3967 91.1029 83.7555 90.7446 83.8751 90.655C83.7256 90.2967 82.7089 87.8183 83.9947 85.0712C84.8619 83.2199 87.1344 82.2345 88.8687 82.9511C90.6031 83.6678 91.1413 85.0115 91.0815 85.9073C91.0217 86.6538 90.7526 87.2808 90.3937 87.5496C90.2143 87.669 90.005 87.6989 89.8555 87.6391C89.6462 87.5496 89.6163 87.3107 89.6163 87.0121C89.5864 86.5045 89.5565 85.7878 88.5996 85.2503C88.1212 84.9816 87.5531 84.9517 87.0746 85.1608C86.7158 85.3101 86.2374 85.6684 85.9683 86.4447C85.6094 87.4898 85.6393 88.5051 86.0879 89.3412C86.6261 90.3863 87.7624 91.1626 89.2874 91.5209C91.53 92.0584 93.8624 90.3863 94.6099 87.7287C94.8192 86.9225 94.9388 85.9968 94.6398 85.0115C94.0418 83.0407 92.6962 81.2491 89.4369 79.6665C88.3305 79.129 86.0281 78.1138 85.131 77.6958C85.6393 76.2625 85.6991 75.8146 85.8486 75.307C86.1477 74.8292 86.9849 74.0528 87.7923 73.8438C88.7192 73.6348 89.8256 74.0827 89.7957 74.2619C89.7658 74.441 88.5398 74.7396 87.8521 76.3222C88.1212 76.4416 90.4237 77.0687 92.3972 78.3527C95.7163 80.5026 96.6432 82.772 96.9124 83.7872C97.3908 85.4594 97.3011 87.0121 96.9423 88.2363ZM64.7678 35.6529C62.7643 33.8015 61.1496 33.3238 61.1496 33.3238V29.8302C62.1065 30.3079 64.3192 31.4725 65.5751 32.5176C66.831 33.5627 67.7879 34.5779 68.5653 35.4438L68.0271 38.9673C67.1001 37.9819 65.9339 36.7278 64.7678 35.6529ZM62.2261 41.9832C61.658 37.9819 61.8972 36.1306 61.8972 36.1306C62.7942 36.4292 64.3192 37.9521 64.8276 38.4896C64.8276 38.4896 64.708 39.027 65.0967 41.4756C65.3658 43.3269 65.9339 45.0289 66.1432 45.7455L63.3325 47.0594C63.0634 46.1636 62.5251 44.1331 62.2261 41.9832ZM64.3491 65.9608C64.6781 68.6183 66.8908 71.1266 70.0006 70.7981C71.3462 70.6488 72.3031 70.0217 72.9609 69.335L72.7815 69.1259C72.3629 68.7378 70.8977 67.3642 69.7016 65.8413C68.5354 64.3483 67.9673 63.5421 67.8477 63.3928L67.5187 62.9151C67.5486 62.8852 67.9374 62.6165 69.1035 62.6463C70.3893 62.706 71.6153 63.6914 71.9741 63.99C71.9741 63.99 72.5722 64.6469 74.4859 66.6476C76.7585 69.0065 78.4031 70.1412 78.6722 70.3203C78.6722 71.0071 78.4928 72.321 78.2236 73.2466C77.1771 72.6793 75.8016 71.5446 75.1437 71.0071C75.054 70.9175 74.9643 70.8578 74.9045 70.828C74.0673 71.8432 72.8413 72.8286 70.9874 73.3362C70.5687 73.4556 70.0903 73.5154 69.6418 73.4855C65.5751 73.3661 62.854 70.3502 62.1962 67.3941C61.957 66.2892 62.0467 64.8858 62.0766 63.9303C62.1065 63.0942 62.1663 62.3477 61.957 61.8102C61.7477 61.1832 61.4486 60.795 61.2393 60.5262C61.0599 60.2575 60.9104 60.1082 61.0599 59.9589C61.2692 59.6902 61.9869 59.8693 62.6447 60.3172C63.0634 60.586 63.2428 60.9144 63.3026 61.0936C63.6913 60.4964 65.5751 57.9284 68.8344 57.809C69.9408 57.7791 70.9276 58.018 71.6751 58.4958C72.3031 58.8839 72.7217 59.4513 72.9011 60.0186C73.0207 60.4665 73.0207 60.8248 72.7217 60.9742C72.5722 61.0637 72.2134 60.9144 71.7349 60.6756C71.0472 60.3471 69.9707 59.9888 68.7148 60.1381C67.6982 60.2575 66.2629 60.9443 65.2761 62.2581C64.4986 63.2734 64.1697 64.5872 64.3491 65.9608ZM50.8036 89.9085C46.9761 93.3723 44.0158 94.2382 40.3977 94.8354C36.3908 95.5222 28.7359 94.4472 28.7359 94.4472L24.7888 81.7269C24.7888 81.7269 28.8854 85.5788 31.0384 87.2808C33.1913 88.9828 35.1947 89.9085 38.2447 89.9085C41.2947 89.9085 43.358 89.1321 45.6006 86.7433C47.8433 84.3545 48.6805 81.279 49.2486 77.636C49.6374 75.0084 49.458 67.7524 49.458 66.0802L50.0261 26.665C50.0261 26.665 50.2952 18.1549 49.6972 16.0348C49.0991 13.8849 47.8134 12.3322 47.0359 11.526C45.3315 9.73437 41.6835 9.16703 41.6835 9.16703C40.6369 8.98787 40.3977 8.48024 40.4874 7.97262C40.607 7.22612 41.2648 7.10668 41.2648 7.10668L67.0403 7.1664C67.0403 7.1664 67.6683 7.22612 67.7879 8.00248C67.8776 8.5101 67.6383 9.01772 66.5918 9.19689C66.5918 9.19689 62.9736 9.79409 61.2393 11.5558C60.4619 12.362 59.1761 13.9148 58.5781 16.0647C57.98 18.2146 58.2491 26.6949 58.2491 26.6949V66.1997C58.2491 66.1997 58.3388 73.814 57.3521 77.8152C56.6344 80.5922 55.0496 86.0864 50.8036 89.9085ZM21.9482 87.878C20.5428 90.8342 18.2104 93.4618 17.7619 93.0438C17.4031 92.6855 17.8516 92.3869 18.0908 91.5209C18.33 90.6252 18.3898 90.446 18.3898 90.446C18.3898 90.446 17.7619 91.3418 15.5192 92.7452C13.2766 94.1486 12.8879 94.2382 12.4991 93.7007C12.2599 93.3424 12.8281 92.9542 13.3663 92.0286C13.8746 91.1328 13.7251 91.1626 13.7251 91.1626C13.7251 91.1626 11.8114 90.9835 10.2565 90.2967C8.7016 89.6099 7.05699 87.9975 7.08689 87.669C7.14669 87.251 7.80454 87.0121 8.97071 86.4149C10.2266 85.7878 11.0938 84.9816 11.0938 84.9816C11.0938 84.9816 10.2565 84.7726 9.77807 84.5636C9.03052 84.2053 8.28297 83.8469 8.7315 83.3692C9.15013 82.981 11.1536 84.3247 14.2335 81.4283C16.9545 78.8603 16.9545 75.0979 16.9545 75.0979C16.9545 75.0979 18.2702 79.4874 16.5359 82.981C14.383 87.2808 10.3462 87.3107 10.7947 88.2065C11.333 89.3113 16.2668 88.3259 18.3898 83.1601C20.154 78.8603 18.3001 73.3959 16.9545 70.1412C16.5658 69.2155 16.0575 67.9614 15.7286 66.976C16.9545 67.5434 17.9712 67.8121 18.958 67.9315C18.958 67.9315 18.958 67.9315 18.958 67.9614C18.9879 67.9614 19.1374 68.2301 19.1374 68.2301C20.3335 70.1412 22.1874 70.7981 23.1741 71.1863C24.1011 71.5446 25.1178 71.7238 26.1344 71.7238C27.0016 71.7238 27.8987 71.6043 28.706 71.2759C29.2442 71.0668 29.7526 70.7981 30.1413 70.3801C31.3374 69.0961 31.6364 65.1546 32.1746 64.8559C32.4138 64.7067 33.0119 65.692 33.2511 66.4087C33.4903 67.1552 33.3707 67.8718 33.8192 68.051C34.1482 68.1704 34.3276 67.8121 35.0153 67.0357C35.9722 65.9309 35.8227 65.483 36.3011 65.6622C36.7795 65.8413 36.2712 68.2899 36.032 69.6037C35.7928 70.9474 35.1648 72.8883 35.1648 72.8883C35.1648 72.8883 36.7496 71.8432 38.2447 71.1863C42.4011 69.335 44.0158 69.9023 44.0457 70.4099C44.0756 70.9175 43.0888 71.0071 42.0124 72.2911C41.2349 73.2168 41.4143 73.4556 41.4143 73.4556C41.4143 73.4556 42.0423 73.4855 43.7766 72.9779C45.0026 72.6196 46.079 72.0522 46.408 72.5598C46.7668 73.0675 45.1521 75.2472 42.6702 76.9493C40.1884 78.6513 38.1849 79.3082 38.1849 79.3082C38.1849 79.3082 38.6634 79.8158 39.8893 80.0248C41.1153 80.2339 41.5938 80.0547 41.7134 80.413C41.8629 80.8908 40.4874 81.3088 38.1849 81.5477C34.8957 81.8762 33.1913 80.4429 33.1913 80.4429C33.1913 80.4429 33.6099 81.6373 33.1315 82.8317C32.6232 84.0559 32.5036 85.1906 32.0251 85.101C31.5467 85.0413 32.1148 83.8768 31.1879 82.7421C30.2011 81.5178 29.0648 81.2491 27.3903 79.9353C25.7457 78.6811 25.6859 77.6659 25.6859 77.6659C25.6859 77.6659 28.5565 78.7409 33.2511 77.9944C37.7663 77.2777 39.1717 75.934 38.8428 75.4264C38.5438 74.9785 37.7962 75.5458 35.6732 76.0535C33.1913 76.6208 29.8124 76.4715 26.0746 75.8444C24.7589 75.6354 22.9648 75.0084 21.3501 73.9334C21.9781 75.1875 23.0246 77.427 23.2639 79.0395C23.7124 81.7866 23.3536 84.892 21.9482 87.878ZM19.0477 47.4177C19.2271 46.1934 19.9447 44.8796 20.3634 44.3123C22.008 44.0137 23.0545 44.9095 23.204 45.0588C22.307 46.7906 21.7388 48.7017 21.2305 50.6127C20.6325 50.3738 19.7653 49.5079 19.0477 47.4177ZM19.4364 60.3471C18.5991 60.2575 16.4462 58.8242 16.3266 58.4659C16.3266 57.7194 16.506 56.0472 16.805 55.0619C17.8815 56.943 19.6457 57.7493 19.6457 57.7493C19.3467 58.9437 19.4364 60.3471 19.4364 60.3471ZM10.6153 43.7748C10.8246 43.1776 11.004 42.7595 11.1835 42.4012C11.5423 41.595 11.7516 41.1172 11.8114 40.0124C11.9011 38.7284 11.5124 37.7431 11.2732 37.4743C11.6021 37.5042 12.6188 37.9521 13.0075 38.7882C13.3364 39.4749 13.8148 41.2665 13.755 41.5651C13.7251 41.6249 13.7849 41.6547 13.7849 41.6846C13.8447 41.7144 13.9045 41.6846 14.1438 41.5054C14.8315 40.9978 16.9246 39.4152 20.6325 39.3854H20.6923C27.5099 39.3854 30.5001 45.6858 30.53 45.7455L30.5599 45.7754H30.5898C30.6197 45.7754 31.5168 46.0441 33.3408 45.2678C34.0585 44.9692 34.4771 44.581 34.8957 44.2227C35.5835 43.6255 36.1815 43.088 37.8261 43.0581C39.5006 42.9984 40.7565 43.9539 40.9658 44.6109C41.0256 44.7602 41.0256 44.999 40.8462 45.1185C40.607 45.2976 40.5472 45.2678 40.3977 45.2081C40.1585 45.0886 39.7697 44.9095 38.5438 45.1185C37.4972 45.2678 37.0187 46.2532 36.5104 47.2684C35.9423 48.3732 35.3741 49.5079 34.0585 49.8364C32.8624 50.1648 31.457 49.3287 31.1879 48.9107C31.1281 48.7913 31.0085 48.642 30.8589 48.6718C30.7393 48.7017 30.6795 48.8808 30.6795 48.9406C30.6795 48.9406 30.6496 49.9857 29.9918 51.8071C29.3938 53.4793 26.6428 57.4805 21.2305 56.0174C17.9114 55.1216 16.6256 52.0161 16.7751 50.1051C16.8349 49.478 17.0143 49.06 17.3134 49.0301C17.5526 49.0003 17.7619 49.1794 17.8217 49.3586C18.0609 50.0752 18.33 50.7919 18.7188 51.3891C19.257 52.2252 20.2438 53.2404 21.4398 53.5091C24.131 54.1063 25.7756 52.7328 26.0746 52.4342C27.0913 51.4787 27.6594 49.8961 27.5697 48.1941C27.4501 46.0143 26.3138 44.6407 25.357 43.8644C24.1609 42.879 22.606 42.2818 21.081 42.2519C21.0511 42.2519 20.9913 42.2519 20.9614 42.2519C18.9879 42.2519 16.9844 43.0581 15.4295 44.4317C13.456 46.1934 12.3197 48.8211 12.0805 52.0161C11.8712 54.7633 13.0075 57.809 15.0109 59.9888C16.5658 61.6908 18.5094 62.6165 20.4531 62.6463C20.483 62.6463 20.5129 62.6463 20.5727 62.6463C25.7158 62.6463 29.0349 59.4811 32.5335 56.1368C35.8227 53.0015 39.2016 49.7766 44.5241 48.2836C44.9129 48.1642 46.7369 48.0149 47.1256 47.985L47.0359 50.8815C44.0457 51.4488 39.8893 53.3598 40.0987 55.4202C40.308 57.4507 41.6236 58.5555 42.2516 59.093C42.4011 59.2124 42.5506 59.3319 42.5506 59.3617C42.5506 59.3916 42.4908 59.4214 42.2815 59.511C41.7134 59.72 40.3977 59.8693 39.381 59.3916C38.0055 58.7645 36.6599 56.525 36.63 56.4952L36.5702 56.4056L36.5104 56.4952C36.4805 56.525 32.4138 60.795 30.2011 62.4074C28.7658 63.4525 24.9683 66.2295 20.483 66.0205C17.3732 65.8712 14.5026 64.4678 12.4094 62.0491C10.1967 59.511 9.00062 55.9875 9.03052 52.1654C9.03052 48.6718 9.41924 47.0892 10.6153 43.7748ZM20.5428 7.1664C20.5727 7.1664 23.7423 6.89766 26.7624 8.09206C28.0781 8.62954 29.0349 9.28646 29.8722 9.88367H29.9021C31.158 10.7496 32.1148 11.4662 33.5202 11.0183C35.105 10.5406 35.4339 9.28646 35.6433 8.45038C35.7031 8.24136 35.7928 7.88304 35.8526 7.85318C35.9124 7.82332 36.2114 7.94276 36.4506 8.33095C36.7496 8.77884 37.5271 10.451 35.4339 13.4967C34.2678 15.1689 32.3839 15.5272 32.2942 15.5272C32.2045 15.5272 32.1447 15.5869 32.0849 15.6466C32.055 15.7064 32.0251 15.7959 32.055 15.8855C32.1746 16.3036 32.1746 16.632 32.2045 16.9306C32.2942 17.9757 32.1746 18.991 31.4869 20.693C30.4104 23.2908 28.2575 24.8734 25.4168 25.2317C22.6658 25.5602 20.4232 24.0075 19.6158 22.3054C18.8982 20.7228 18.8384 18.9014 19.4962 17.2591C19.6457 16.841 19.9447 16.5126 20.1839 16.4529C20.3036 16.423 20.3933 16.4529 20.483 16.5424C20.7222 16.7216 20.7222 17.1994 20.7521 17.8264C20.782 18.4535 20.8119 19.2298 21.081 20.0361C21.4996 21.2902 22.905 22.4846 24.6991 22.3353C27.4501 22.0964 29.0947 20.1555 29.1545 17.1695C29.2143 14.0342 27.2109 10.3316 21.3501 10.1823C21.2604 10.1823 21.2006 10.1823 21.1109 10.1823C18.8982 10.1823 16.8648 11.0482 15.2501 12.6606C13.3962 14.5717 12.2001 17.4382 12.1403 20.1854C12.0506 25.5303 14.8315 28.6358 17.1638 30.3079C19.5261 31.9801 23.2339 32.0995 27.8688 30.6364C29.4536 30.1288 31.158 29.442 32.8026 28.7552H32.8325C34.2379 28.1879 35.6732 27.5907 37.0487 27.083C37.856 26.8143 38.7232 26.5754 39.6202 26.4261L39.7398 26.3963L39.6501 26.2768C39.2913 25.7991 38.8428 25.172 38.2447 24.3658C37.0487 22.6936 36.7197 19.618 37.1085 18.991C37.2879 18.7222 37.4673 18.6625 37.557 18.6625C37.6168 18.6625 37.6766 18.6924 37.6766 18.6924C37.6766 18.7222 37.6766 18.8715 37.6766 18.9014C37.6766 19.0507 37.6766 19.7673 38.0055 20.1257C38.4241 20.6034 38.9923 20.693 39.2315 20.5736C39.3212 20.5138 39.381 20.4541 39.4109 20.3645C39.5006 20.0958 39.9192 18.7819 40.6369 17.707C41.2349 16.8112 43.1188 15.4376 44.2251 15.4376C44.255 15.4376 44.2849 15.4376 44.3148 15.4376C44.6138 15.4675 44.8232 15.5869 44.9428 15.8258C45.0923 16.1244 44.6138 16.632 44.4643 16.7813C43.5075 17.7966 42.3712 19.2896 42.2815 21.768C42.2516 22.9325 42.5805 23.888 43.2683 24.6345C44.5839 26.0379 46.8565 26.2171 47.305 26.2171V28.7851C47.2452 28.7851 47.1555 28.7851 47.0957 28.7851C44.8531 28.7851 43.0589 31.5023 42.4609 34.2793C41.9526 36.5487 42.4011 39.7437 42.5805 40.6992C42.7599 41.5651 42.6104 41.7742 42.5506 41.804C42.5207 41.8339 42.4908 41.8339 42.4011 41.8339C41.9227 41.7443 41.0555 40.7291 40.0987 39.1763C39.381 38.0417 39.5903 36.6084 39.7099 35.832C39.7697 35.414 39.7996 35.2348 39.6501 35.1154L39.6202 35.0855C39.5305 34.9959 39.381 34.9064 39.2016 34.9064C39.2016 34.9064 39.2016 34.9064 39.1717 34.9064C38.9624 34.9064 38.7232 35.0557 38.454 35.3244C38.2447 35.5633 38.1251 35.7126 38.0653 35.832C37.9457 36.0112 37.9457 36.0112 37.6467 35.8917C37.6467 35.8917 37.6168 35.8917 37.5869 35.832C37.3776 35.2647 38.0055 33.2939 38.8129 31.9204C39.4408 30.8155 40.1286 30.0093 41.0854 29.2628L41.3545 29.0538L40.9957 29.1434C37.7364 29.8899 34.4771 31.1739 32.4737 32.5474C29.9021 34.2793 27.8089 36.3396 26.2839 38.6389C26.0148 38.4597 25.7457 38.3403 25.0879 38.0417C24.6692 37.8625 24.0413 37.6535 23.5629 37.5938C24.1908 36.7278 25.2972 35.5633 25.7457 35.0855L25.7756 35.0557C25.8354 34.9661 25.8354 34.8168 25.7457 34.7272C25.656 34.6376 25.5364 34.6078 25.4168 34.6376C25.2972 34.6973 22.3967 35.8022 17.2835 33.8911C13.1271 32.3384 8.7913 27.8295 9.03052 19.8868C9.32954 11.7648 15.0109 7.64416 20.5428 7.1664ZM2.6315 101.464H104.089V0H2.6315V101.464Z" fill="#990000"/>
<path d="M150.527 27.2836C153.934 27.2836 156.897 27.8903 159.417 29.1036C161.984 30.3169 163.944 32.0436 165.297 34.2836C166.697 36.4769 167.397 39.0436 167.397 41.9836C167.397 44.9236 166.697 47.5136 165.297 49.7536C163.944 51.9469 161.984 53.6503 159.417 54.8636C156.897 56.0769 153.934 56.6836 150.527 56.6836H139.537V76.9836H132.887V27.2836H150.527ZM149.827 51.0836C153.047 51.0836 155.614 50.2669 157.527 48.6336C159.441 46.9536 160.397 44.7369 160.397 41.9836C160.397 39.2303 159.441 37.0369 157.527 35.4036C155.614 33.7236 153.047 32.8836 149.827 32.8836H139.537V51.0836H149.827ZM172.667 26.2336H178.617V48.5636C180.717 43.6169 184.544 41.1436 190.097 41.1436C193.877 41.1436 196.747 42.3336 198.707 44.7136C200.667 47.0936 201.647 50.5936 201.647 55.2136V76.9836H195.697V55.6336C195.697 52.5536 195.044 50.2203 193.737 48.6336C192.477 47.0469 190.587 46.2536 188.067 46.2536C185.08 46.2536 182.747 47.3503 181.067 49.5436C179.434 51.6903 178.617 54.7469 178.617 58.7136V76.9836H172.667V26.2336ZM219.076 77.8236C215.483 77.8236 212.613 76.8903 210.466 75.0236C208.319 73.1569 207.246 70.6603 207.246 67.5336C207.246 65.7603 207.666 64.1736 208.506 62.7736C209.346 61.3269 210.559 60.1603 212.146 59.2736C213.499 58.6203 215.086 58.0603 216.906 57.5936C218.726 57.1269 221.059 56.7303 223.906 56.4036L230.416 55.6336V55.0736C230.416 51.8536 229.809 49.5436 228.596 48.1436C227.383 46.7436 225.423 46.0436 222.716 46.0436C220.336 46.0436 218.446 46.6503 217.046 47.8636C215.646 49.0769 214.876 50.7803 214.736 52.9736H208.366C208.599 49.3803 209.999 46.5103 212.566 44.3636C215.179 42.2169 218.539 41.1436 222.646 41.1436C227.453 41.1436 230.953 42.3103 233.146 44.6436C235.339 46.9303 236.436 50.6169 236.436 55.7036V65.1536C236.436 70.4736 236.833 74.4169 237.626 76.9836H231.396C231.116 75.0236 230.929 72.9003 230.836 70.6136C230.043 72.8536 228.596 74.6269 226.496 75.9336C224.396 77.1936 221.923 77.8236 219.076 77.8236ZM220.406 72.9236C223.439 72.9236 225.866 71.9203 227.686 69.9136C229.553 67.8603 230.486 65.1303 230.486 61.7236V59.9736L220.966 61.3736C218.399 61.7469 216.509 62.4236 215.296 63.4036C214.129 64.3369 213.546 65.6669 213.546 67.3936C213.546 69.1203 214.153 70.4736 215.366 71.4536C216.579 72.4336 218.259 72.9236 220.406 72.9236ZM250.86 49.9636C251.747 47.3503 253.1 45.2269 254.92 43.5936C256.787 41.9603 258.98 41.1436 261.5 41.1436C262.06 41.1436 262.48 41.1669 262.76 41.2136V47.0236H262.48C259.167 47.0236 256.6 47.9336 254.78 49.7536C253.287 51.2469 252.33 52.9736 251.91 54.9336C251.49 56.8936 251.28 59.2503 251.28 62.0036V76.9836H245.33V41.9836H250.86V49.9636ZM280.505 77.8236C277.238 77.8236 274.368 77.1003 271.895 75.6536C269.422 74.1603 267.508 72.0369 266.155 69.2836C264.848 66.5303 264.195 63.2636 264.195 59.4836C264.195 55.7036 264.848 52.4369 266.155 49.6836C267.508 46.9303 269.422 44.8303 271.895 43.3836C274.368 41.8903 277.238 41.1436 280.505 41.1436C283.772 41.1436 286.642 41.8903 289.115 43.3836C291.588 44.8303 293.478 46.9303 294.785 49.6836C296.138 52.4369 296.815 55.7036 296.815 59.4836C296.815 63.2636 296.138 66.5303 294.785 69.2836C293.478 72.0369 291.588 74.1603 289.115 75.6536C286.642 77.1003 283.772 77.8236 280.505 77.8236ZM280.505 72.6436C283.678 72.6436 286.128 71.5236 287.855 69.2836C289.628 67.0436 290.515 63.7769 290.515 59.4836C290.515 55.1903 289.628 51.9236 287.855 49.6836C286.128 47.4436 283.678 46.3236 280.505 46.3236C277.332 46.3236 274.858 47.4436 273.085 49.6836C271.358 51.9236 270.495 55.1903 270.495 59.4836C270.495 63.7769 271.358 67.0436 273.085 69.2836C274.858 71.5236 277.332 72.6436 280.505 72.6436ZM315.341 77.8236C311.188 77.8236 307.781 76.8903 305.121 75.0236C302.508 73.1569 300.898 70.4969 300.291 67.0436L306.311 65.9936C306.731 68.1869 307.735 69.8903 309.321 71.1036C310.908 72.3169 312.985 72.9236 315.551 72.9236C317.838 72.9236 319.611 72.4336 320.871 71.4536C322.178 70.4269 322.831 69.1436 322.831 67.6036C322.831 66.1103 322.411 64.9903 321.571 64.2436C320.731 63.4969 319.471 62.9836 317.791 62.7036L310.931 61.4436C307.945 60.8836 305.635 59.7869 304.001 58.1536C302.415 56.4736 301.621 54.3036 301.621 51.6436C301.621 48.5636 302.811 46.0436 305.191 44.0836C307.618 42.1236 310.861 41.1436 314.921 41.1436C318.841 41.1436 322.038 41.9836 324.511 43.6636C327.031 45.3436 328.455 47.6536 328.781 50.5936L322.901 51.9236C322.481 50.1036 321.571 48.6569 320.171 47.5836C318.771 46.5103 316.928 45.9736 314.641 45.9736C312.401 45.9736 310.628 46.4403 309.321 47.3736C308.061 48.3069 307.431 49.6369 307.431 51.3636C307.431 52.7636 307.875 53.8603 308.761 54.6536C309.695 55.4469 311.048 56.0069 312.821 56.3336L319.611 57.5936C322.738 58.2003 325.025 59.2969 326.471 60.8836C327.965 62.4236 328.711 64.5003 328.711 67.1136C328.711 70.3336 327.521 72.9236 325.141 74.8836C322.808 76.8436 319.541 77.8236 315.341 77.8236Z" fill="black"/>
</svg>
