<svg width="200" height="140" viewBox="0 0 200 140" fill="none" xmlns="http://www.w3.org/2000/svg">
<path d="M0 0H200V140H0V0Z" fill="#EAE8E1"/>
<path d="M110.913 34.8203C110.865 34.99 110.816 35.1111 110.816 35.1111L110.913 34.8203Z" fill="#990000"/>
<path fill-rule="evenodd" clip-rule="evenodd" d="M142.346 93.3413H60.1797V11H142.346V93.3413ZM135.445 48.2693C135.469 48.2693 136.244 48.1966 136.97 47.7119C137.963 47.0819 138.423 46.5488 138.254 46.1611C138.205 46.0399 137.721 45.9914 137.237 45.943L137.211 45.9401C136.559 45.8677 135.676 45.7695 134.863 45.4826C133.435 44.9737 132.321 43.9802 131.812 42.7928C131.473 42.0173 131.328 40.7815 132.49 39.4487H132.514L132.732 39.2549L132.744 39.244C134.488 37.669 137.092 35.3166 137.358 29.8285C137.527 26.2421 136.123 23.6977 135.445 22.4861C135.227 22.0984 135.106 21.8803 135.106 21.7591C135.106 21.5168 135.348 21.3472 135.711 21.1291C135.753 21.1005 135.796 21.071 135.841 21.0404C136.217 20.7866 136.702 20.4582 137.091 19.9175C137.794 18.9724 138.012 18.197 137.963 17.9547C137.963 17.9304 137.939 17.9062 137.939 17.9062C137.891 17.882 137.648 18.0031 137.406 18.1243C137.019 18.3182 136.51 18.5605 135.905 18.7059C134.791 18.9967 133.217 18.6816 131.715 18.3424C131.621 18.3154 131.526 18.2959 131.428 18.2755C131.349 18.2594 131.268 18.2427 131.183 18.2212C129.608 17.8577 127.695 17.5427 125.613 17.567C121.787 17.5912 117.452 18.8755 113.844 22.7769C110.332 26.5814 108.928 32.3729 108.613 33.7541L110.816 35.1111C111.01 34.9415 111.664 34.6265 113.287 34.4084C114.231 34.263 115.079 34.2145 115.684 34.3842C116.144 34.5053 116.459 34.578 116.507 34.4326C116.725 33.8995 115.514 32.6394 114.473 32.1306C113.456 31.6217 112.318 31.7671 111.955 31.8398C112.754 29.7316 113.844 27.1387 114.885 25.7817C116.556 23.6008 120.212 19.9417 126.097 20.1598C132.248 20.4021 134.936 25.2001 134.888 29.8527C134.863 31.7186 134.185 33.6572 133.023 35.1596C131.788 36.7589 130.165 37.7525 128.422 37.9221C125.467 38.2371 122.779 36.2985 122.319 33.5118C122.004 31.5975 122.295 29.9254 123.118 28.8592C123.772 28.0111 124.741 27.5507 125.928 27.5022C126.848 27.4537 127.405 27.8657 127.72 28.2049C128.18 28.6896 128.422 29.3923 128.373 30.0951C128.277 31.4521 127.526 31.8398 127.042 32.0821C126.751 32.2275 126.606 32.3244 126.606 32.494C126.606 32.6879 126.727 32.8575 126.896 32.9787C127.284 33.2452 127.938 33.2695 128.64 33.0272C129.512 32.7364 130.504 31.5975 130.456 29.4408C130.408 27.2841 128.47 25.2971 126.436 25.1517C123.135 24.8922 121.12 27.1592 120.994 27.3015C120.99 27.3054 120.988 27.3077 120.987 27.3083C120.963 27.3326 120.939 27.3568 120.915 27.3326C120.915 27.3326 120.358 27.0175 119.583 26.8964C118.542 26.751 117.791 27.066 117.573 27.2841C117.524 27.3083 117.524 27.3568 117.524 27.3568C117.524 27.4099 117.628 27.463 117.75 27.5256C117.795 27.5487 117.842 27.573 117.888 27.5991C118.178 27.7445 118.59 27.9626 119.002 28.3261C119.849 29.1015 120.043 30.095 120.043 30.1435V30.1677C119.704 32.8575 119.825 35.1354 121.617 37.5586C123.821 40.5634 126.945 40.5392 128.277 40.5149C128.591 40.5149 128.882 40.5392 129.051 40.5876C129.076 40.6119 129.076 40.6119 129.1 40.6119C129.439 40.733 129.536 41.0965 129.536 41.2904C129.536 41.4842 129.463 41.775 129.051 42.09C128.349 42.6231 128.204 43.1563 128.373 44.4163C128.47 45.0948 128.906 45.8945 129.366 46.7184C129.394 46.769 129.421 46.8198 129.449 46.8707C129.886 47.6733 130.342 48.5123 130.456 49.287C130.819 51.6376 130.577 52.8976 130.432 53.5761C130.359 53.8669 130.335 54.0608 130.383 54.1335C130.432 54.182 130.48 54.2062 130.577 54.2062C130.965 54.2062 131.812 53.5761 132.345 52.7522C132.684 52.2191 132.708 51.4195 132.708 50.8137C132.708 50.3532 132.708 50.0625 132.829 49.9655C132.878 49.9413 132.926 49.9413 132.975 49.9413C134.234 50.2079 134.355 52.5584 134.282 53.455C134.258 53.8669 134.113 54.1577 133.992 54.4C133.846 54.6908 133.774 54.8362 133.943 55.0059C134.078 55.1633 134.338 55.0911 134.588 55.0218C134.607 55.0164 134.626 55.0111 134.646 55.0059C134.667 54.9988 134.687 54.9917 134.708 54.9848C134.826 54.9443 134.93 54.9089 135.033 54.9089C135.178 54.9089 135.299 54.9332 135.372 55.0785C135.59 55.5147 135.227 56.3144 134.549 56.799C134.488 56.8354 134.428 56.8778 134.367 56.9202C134.306 56.9626 134.246 57.005 134.185 57.0414C133.653 57.4048 133.217 57.7199 133.289 58.0107C133.289 58.0349 133.314 58.0591 133.435 58.0834C133.943 58.2045 135.324 58.0834 136.268 57.1868C137.455 56.0721 137.818 54.7635 137.6 52.413C137.412 50.1857 135.57 48.5256 135.429 48.3981C135.424 48.3938 135.421 48.3912 135.42 48.3904C135.396 48.3662 135.396 48.342 135.396 48.3177C135.396 48.2935 135.42 48.2693 135.445 48.2693ZM133.386 71.3869C134.888 71.193 136.655 69.8602 137.188 66.7343C137.43 65.2803 137.043 63.681 136.244 62.4209C135.469 61.3305 134.355 60.6035 133.12 60.337H133.096C131.376 59.925 128.882 60.1431 126.024 63.2933C125.928 63.3902 125.613 63.8506 125.419 64.2384C125.385 64.1371 125.352 64.0307 125.315 63.9166C125.274 63.7849 125.229 63.643 125.177 63.4872C124.789 62.324 123.99 60.3854 122.368 57.7441C121.472 56.2902 120.745 55.3451 120.091 54.497L120.08 54.4816C119.455 53.664 118.902 52.9405 118.445 52.0495C117.573 50.3775 117.403 47.5423 117.718 47.0334C117.767 46.985 117.791 46.9607 117.839 46.9607C118.202 47.0092 118.275 47.3242 118.396 47.9785C118.542 48.7539 118.784 49.9171 119.704 51.4679C120.469 52.7675 121.035 53.4003 121.613 54.0475C121.638 54.0761 121.664 54.1048 121.69 54.1335L121.703 54.1487C122.184 54.6772 122.689 55.2329 123.312 56.169C124.741 58.253 125.08 59.2223 125.08 59.2223L125.177 59.4888L125.128 59.198C125.104 59.1738 124.523 55.2482 125.104 51.2014C125.415 49.1206 126.103 47.4175 126.563 46.2785L126.581 46.2338C126.92 45.4099 127.114 44.901 126.993 44.7071C126.945 44.6102 126.848 44.5375 126.751 44.5375H126.727C126.363 44.5375 125.855 45.0948 125.225 45.8218C125.116 45.9309 125.013 46.0459 124.91 46.161C124.808 46.2762 124.705 46.3913 124.596 46.5003C123.579 47.5908 122.876 48.8024 122.779 48.972C122.586 48.9235 121.133 48.5116 120.987 45.3856C120.867 43.2709 121.057 42.1333 121.225 41.1219L121.23 41.0965C121.248 40.9754 121.267 40.8557 121.287 40.7361C121.346 40.3771 121.405 40.0182 121.423 39.6183C121.423 39.4487 121.399 39.3276 121.302 39.3033C120.939 39.2064 119.873 40.5392 119.341 41.6781C119.039 42.2818 118.948 42.7896 118.881 43.1673C118.872 43.2141 118.864 43.2589 118.856 43.3017C118.852 43.328 118.848 43.3537 118.844 43.3788C118.803 43.6305 118.773 43.8149 118.663 43.859C118.638 43.8832 118.59 43.859 118.542 43.8348C118.227 43.6409 117.694 42.7201 117.549 41.048C117.5 40.4907 117.5 39.9576 117.5 39.5456C117.5 38.8671 117.5 38.4067 117.282 38.2856C117.185 38.2371 117.04 38.2371 116.919 38.3098C116.604 38.5037 116.241 39.1095 115.926 40.0061C115.684 40.7088 115.345 41.9204 115.224 43.6651C114.991 46.8555 115.183 49.0836 115.22 49.5106C115.222 49.5279 115.223 49.5422 115.224 49.5536C115.03 49.5536 113.94 49.6263 112.584 50.0625C111.252 50.4986 108.782 51.5891 108.903 52.1949C108.976 52.5099 109.46 52.4372 110.066 52.3403C110.129 52.3323 110.194 52.3237 110.26 52.315C110.595 52.2705 110.953 52.2231 111.277 52.2434C111.956 52.2872 112.654 52.6086 112.943 52.7413C112.973 52.7553 112.999 52.7672 113.02 52.7765C112.802 52.8734 112.003 53.3338 110.792 54.4727C109.848 55.3693 108.782 56.3871 109.315 57.1383C109.485 57.3806 109.896 57.211 110.502 56.9202C111.712 56.3629 113.698 55.4663 116.289 56.4598C119.195 57.5745 120.939 59.295 122.561 62.7844C122.949 63.7295 123.264 64.8442 123.506 66.08C124.087 69.2302 123.433 73.1558 120.527 76.7422C118.881 78.7777 118.106 79.432 116.895 80.4498C113.117 83.6 110.938 84.1088 110.744 83.6727C110.652 83.4753 111.431 82.9277 112.515 82.1657C113.428 81.5246 114.556 80.7318 115.563 79.8682C119.002 76.8876 120.624 74.9006 120.624 74.9006C120.624 74.9006 117.331 77.2753 114.328 77.0088C113.125 76.8918 112.187 76.1636 111.682 75.7708C111.454 75.5943 111.314 75.4855 111.277 75.5306C110.926 75.925 111.407 76.9136 111.646 77.404C111.671 77.456 111.694 77.5024 111.712 77.5419C111.93 77.9296 112.366 78.3416 112.366 78.3416C112.366 78.3416 112.245 78.5839 111.204 78.6081C110.62 78.6081 110.304 78.3819 110.121 78.251C110.023 78.1809 109.963 78.1381 109.92 78.1719C109.727 78.3416 109.872 79.0201 110.55 79.6986C111.228 80.3528 111.882 80.5952 111.882 80.5952C111.882 80.5952 110.865 80.9586 109.267 80.9586C108.687 80.9475 108.103 80.8183 107.614 80.7105C107.042 80.5839 106.601 80.4866 106.457 80.6436C106.101 81.0191 106.515 81.3945 106.978 81.8151C107.113 81.9374 107.252 82.0635 107.378 82.1945C107.935 82.7761 108.274 82.7761 108.274 82.7761C108.274 82.7761 108.128 83.4546 106.433 83.7211C105.484 83.8711 104.619 83.6666 103.983 83.5165C103.386 83.3754 102.992 83.2823 102.922 83.5757C102.728 84.2785 104.883 86.0717 107.45 86.314C109.969 86.5321 112.124 85.3689 112.124 85.3689C112.124 85.3689 112.1 85.9263 111.01 87.1621C110.453 87.7959 110.041 88.0783 109.803 88.2416C109.586 88.3905 109.513 88.4405 109.606 88.5676C110.017 89.1007 111.64 88.8584 117.185 83.7696C117.185 83.8302 117.191 83.8907 117.198 83.9513C117.204 84.0119 117.21 84.0725 117.21 84.1331C117.524 89.3188 122.658 88.1314 122.634 87.8164C122.623 87.694 122.418 87.633 122.12 87.5441C121.768 87.4394 121.288 87.296 120.842 86.9682C119.752 86.1686 119.922 85.7566 119.922 85.7566C119.922 85.7566 120.164 85.9747 120.818 86.0232C121.472 86.0717 121.835 86.0717 121.859 85.8051C121.866 85.7545 121.75 85.7056 121.567 85.6281C121.048 85.4088 119.989 84.961 119.631 83.6C119.365 82.5337 119.777 81.5887 120.309 80.9344C124.935 75.1914 125.661 71.92 126 69.7149V69.6906C126.006 69.6516 126.014 69.5984 126.023 69.5329C126.124 68.8253 126.43 66.6734 127.405 65.2319C127.405 65.2319 127.429 65.2076 127.429 65.1834C128.204 63.9476 129.366 62.7844 131.11 62.4452C131.352 62.3967 131.57 62.3725 131.764 62.3725H131.909C133.483 62.5179 134.016 63.1964 134.379 63.9233C134.888 64.8926 134.767 66.1285 134.113 67.1462C133.992 67.3401 133.798 67.5097 133.628 67.6551C133.606 67.6772 133.585 67.6987 133.563 67.7196C133.399 67.8821 133.268 68.0109 133.289 68.1398C133.314 68.2609 133.386 68.3578 133.507 68.4305C133.725 68.5275 133.992 68.5032 134.282 68.3578L134.379 68.3094C134.597 68.1882 134.791 68.0913 134.863 68.1398C134.888 68.1398 134.912 68.164 134.912 68.2125L134.913 68.2197C134.961 68.558 135.024 68.9952 133.749 70.0056C133.314 70.3449 132.902 70.5145 132.611 70.6115C132.369 70.6841 132.2 70.7568 132.151 70.878C132.127 70.9507 132.151 71.0234 132.175 71.0961C132.272 71.29 132.611 71.4111 133.047 71.4111C133.144 71.4111 133.265 71.4111 133.386 71.3869ZM136.55 82.6383C136.554 82.6265 136.559 82.6165 136.559 82.6064C136.849 81.6129 136.922 80.3528 136.534 78.9958C136.316 78.1719 135.566 76.3303 132.878 74.5855C131.566 73.7306 130.075 73.2345 129.462 73.0304C129.328 72.9858 129.236 72.9551 129.197 72.9378C129.603 72.001 130.241 71.6186 130.566 71.4238C130.687 71.3515 130.764 71.3051 130.771 71.2657C130.795 71.1203 129.899 70.7568 129.148 70.9265C128.495 71.0961 127.816 71.7261 127.574 72.1138C127.541 72.2265 127.513 72.3356 127.482 72.4584C127.4 72.7845 127.292 73.2075 126.993 74.0524C127.263 74.1787 127.691 74.372 128.168 74.5875C128.973 74.9512 129.918 75.3779 130.48 75.6518C133.12 76.9361 134.21 78.39 134.694 79.9893C134.936 80.789 134.839 81.5402 134.67 82.1945C134.064 84.3512 132.175 85.7082 130.359 85.272C129.124 84.9812 128.204 84.3512 127.768 83.503C127.405 82.8245 127.381 82.0006 127.671 81.1525C127.889 80.5225 128.277 80.2317 128.567 80.1105C128.955 79.9409 129.415 79.9651 129.802 80.1832C130.567 80.6138 130.601 81.186 130.625 81.5969L130.626 81.6129C130.626 81.8552 130.65 82.0491 130.819 82.1218C130.94 82.1703 131.11 82.146 131.255 82.0491C131.546 81.831 131.764 81.3221 131.812 80.7163C131.861 79.9893 131.425 78.8989 130.02 78.3173C128.616 77.7357 126.775 78.5354 126.073 80.0378C125.032 82.2672 125.855 84.2785 125.976 84.5693C125.879 84.642 125.589 84.9327 125.346 85.3932C124.935 86.1201 124.935 86.7744 125.032 87.0167C125.056 87.0652 125.104 87.1136 125.128 87.1136C125.225 87.1379 125.322 87.0409 125.467 86.8956C125.637 86.7259 125.855 86.5078 126.194 86.314C126.848 85.9505 127.477 86.0474 127.55 86.0717C128.688 86.7986 129.754 87.2833 131.013 87.2833C131.522 87.2833 132.079 87.1863 132.66 87.0167C134.549 86.4594 135.905 84.9327 136.534 82.7034C136.534 82.675 136.543 82.6549 136.55 82.6383ZM107.571 38.0432C107.571 38.0432 108.879 38.431 110.502 39.9334C111.377 40.7417 112.252 41.675 112.973 42.4438C113.03 42.5047 113.086 42.5645 113.141 42.6231L113.577 39.7637C112.948 39.061 112.173 38.2371 111.155 37.389C110.138 36.5408 108.346 35.5958 107.571 35.2081V38.0432ZM108.177 40.3211C108.177 40.3211 107.983 41.8235 108.443 45.0706C108.685 46.8153 109.121 48.4631 109.339 49.1901L111.616 48.1239C111.591 48.0387 111.56 47.9363 111.524 47.819C111.316 47.1351 110.954 45.941 110.768 44.6587C110.453 42.6716 110.55 42.2354 110.55 42.2354C110.138 41.7992 108.903 40.5634 108.177 40.3211ZM114.74 68.4548C112.221 68.7213 110.429 66.6858 110.163 64.5291C110.017 63.4145 110.284 62.3482 110.913 61.5243C111.712 60.4581 112.875 59.9008 113.698 59.8038C114.715 59.6827 115.587 59.9735 116.144 60.24C116.532 60.4339 116.822 60.555 116.943 60.4823C117.185 60.3612 117.185 60.0704 117.089 59.7069C116.943 59.2465 116.604 58.7861 116.096 58.4711C115.49 58.0834 114.691 57.8895 113.795 57.9137C111.155 58.0107 109.63 60.0946 109.315 60.5793C109.267 60.4339 109.121 60.1673 108.782 59.9492C108.249 59.5858 107.668 59.4404 107.499 59.6585C107.396 59.7612 107.468 59.864 107.58 60.026C107.601 60.055 107.622 60.0858 107.644 60.1189C107.814 60.337 108.056 60.652 108.225 61.1609C108.375 61.5473 108.355 62.067 108.331 62.6525C108.328 62.7277 108.325 62.8041 108.322 62.8813C108.319 62.9744 108.316 63.0727 108.312 63.1751C108.284 63.9266 108.249 64.9033 108.419 65.6923C108.952 68.0913 111.155 70.5388 114.449 70.6357C114.812 70.6599 115.2 70.6115 115.539 70.5145C117.04 70.1026 118.033 69.3029 118.711 68.479C118.759 68.5032 118.832 68.5517 118.905 68.6244L118.961 68.6703C119.513 69.1224 120.58 69.997 121.399 70.4418C121.617 69.6906 121.762 68.6244 121.762 68.0671C121.544 67.9217 120.212 67.0008 118.372 65.0865C116.822 63.4629 116.338 62.9298 116.338 62.9298C116.047 62.6875 115.054 61.8878 114.013 61.8394C113.069 61.8151 112.754 62.0332 112.73 62.0574L112.996 62.4452C113.023 62.4786 113.077 62.5524 113.161 62.6673C113.383 62.9693 113.813 63.5545 114.497 64.4322C115.466 65.6681 116.653 66.7827 116.992 67.0978L117.137 67.2674C116.604 67.8247 115.829 68.3336 114.74 68.4548ZM90.7652 87.9618C93.6954 87.4771 96.0928 86.7744 99.1925 83.9634C102.631 80.8617 103.915 76.403 104.496 74.1494C105.295 70.9022 105.222 64.723 105.222 64.723V32.6637C105.222 32.6637 105.004 25.7817 105.489 24.037C105.973 22.2922 107.014 21.0322 107.644 20.3779C109.049 18.9482 111.979 18.4635 111.979 18.4635C112.826 18.3182 113.02 17.9062 112.948 17.4943C112.851 16.8642 112.342 16.8158 112.342 16.8158L91.4674 16.7673C91.4674 16.7673 90.9347 16.8642 90.8378 17.47C90.7652 17.882 90.9589 18.2939 91.8065 18.4393C91.8065 18.4393 94.7609 18.8997 96.1412 20.3537C96.7709 21.0079 97.8122 22.268 98.2965 24.0127C98.7808 25.7332 98.5629 32.6394 98.5629 32.6394L98.1028 64.6261C98.1028 64.8698 98.1075 65.2596 98.1133 65.7475C98.1401 67.9768 98.1915 72.2545 97.9333 74.004C97.4731 76.9603 96.7951 79.4562 94.9788 81.3948C93.1626 83.3334 91.4917 83.9634 89.0216 83.9634C86.5515 83.9634 84.929 83.2122 83.1854 81.831C81.4418 80.4498 78.1241 77.3238 78.1241 77.3238L81.3207 87.6468C81.3207 87.6468 87.5201 88.5191 90.7652 87.9618ZM72.4333 86.5078C72.7965 86.8471 74.6854 84.7146 75.8236 82.3156C76.9617 79.8924 77.2523 77.3723 76.8891 75.1429C76.6954 73.8343 75.8478 72.0169 75.3392 70.9992C76.6469 71.8715 78.0999 72.3804 79.1654 72.55C82.1925 73.0589 84.929 73.1801 86.939 72.7197C87.5765 72.5669 88.0609 72.4075 88.4303 72.2859C89.0573 72.0796 89.3535 71.9821 89.5059 72.2108C89.7723 72.6227 88.6341 73.7132 84.9774 74.2948C81.1754 74.9006 78.8506 74.0282 78.8506 74.0282C78.8506 74.0282 78.8991 74.8521 80.231 75.8699C80.7819 76.303 81.261 76.5962 81.6891 76.8583C82.3148 77.2413 82.832 77.5578 83.3065 78.1477C83.737 78.6758 83.7693 79.2118 83.7916 79.5822C83.8082 79.8576 83.8193 80.0414 83.9845 80.062C84.2464 80.1112 84.3755 79.7066 84.5587 79.1325C84.6467 78.8571 84.7471 78.5425 84.8805 78.2204C85.268 77.2511 84.929 76.2818 84.929 76.2818C84.929 76.2818 86.3093 77.445 88.9731 77.1784C90.8378 76.9845 91.9518 76.6453 91.8307 76.2576C91.7702 76.0761 91.5966 76.0645 91.2334 76.0402C91.0145 76.0256 90.7268 76.0063 90.3535 75.9426C89.3606 75.7729 88.9731 75.361 88.9731 75.361C88.9731 75.361 90.5956 74.8279 92.6056 73.4466C94.6156 72.0654 95.9233 70.2964 95.6327 69.8845C95.4306 69.572 94.8802 69.7615 94.1928 69.9981C93.974 70.0734 93.7413 70.1535 93.5016 70.2237C92.0971 70.6357 91.5885 70.6115 91.5885 70.6115C91.5885 70.6115 91.4432 70.4176 92.0729 69.6664C92.5195 69.1325 92.9472 68.8531 93.2547 68.6521C93.5474 68.4608 93.7314 68.3406 93.7196 68.1398C93.6954 67.7278 92.3877 67.2674 89.0216 68.7698C87.8107 69.3029 86.5273 70.151 86.5273 70.151C86.5273 70.151 87.0358 68.5759 87.2295 67.4855C87.2476 67.3863 87.2675 67.2792 87.2885 67.1663C87.493 66.0655 87.7989 64.4187 87.4475 64.2868C87.2212 64.2019 87.1684 64.2906 87.0092 64.5576C86.8959 64.7478 86.7286 65.0285 86.4062 65.4015C86.283 65.5409 86.1799 65.6637 86.0912 65.7694C85.779 66.1412 85.645 66.3009 85.4375 66.2254C85.2024 66.1313 85.16 65.8543 85.1069 65.5063C85.0779 65.3168 85.0457 65.1062 84.9774 64.8926C84.7837 64.3111 84.2994 63.5114 84.1056 63.6325C83.9225 63.7344 83.7735 64.3581 83.5905 65.1246C83.3379 66.1821 83.0205 67.5114 82.4589 68.1155C82.1441 68.4548 81.7324 68.6729 81.2965 68.8425C80.6427 69.109 79.9162 69.206 79.2139 69.206C78.3905 69.206 77.5672 69.0606 76.8164 68.7698C76.7812 68.7559 76.7446 68.7416 76.7067 68.7268C75.8859 68.4058 74.4732 67.8533 73.5472 66.3708C73.5472 66.3708 73.4261 66.1527 73.4019 66.1527V66.1285C72.6028 66.0315 71.7794 65.8135 70.7865 65.353C71.0529 66.1527 71.4646 67.1705 71.7794 67.9217C72.8691 70.563 74.3706 74.9975 72.9418 78.4869C71.2224 82.6791 67.2267 83.4788 66.7908 82.5822C66.657 82.3145 67.016 82.142 67.6099 81.8567C68.6287 81.3673 70.3389 80.5458 71.4404 78.3416C72.8449 75.5064 71.7794 71.9442 71.7794 71.9442C71.7794 71.9442 71.7794 74.9975 69.5757 77.0815C67.7501 78.8018 66.3916 78.6789 65.6614 78.6129C65.3939 78.5887 65.2108 78.5721 65.1199 78.6566C64.7566 79.0443 65.362 79.3351 65.9674 79.6259C66.3549 79.7955 67.033 79.9651 67.033 79.9651C67.033 79.9651 66.3307 80.6194 65.3136 81.1283C65.1408 81.217 64.9817 81.2959 64.8369 81.3678C64.1904 81.6887 63.8275 81.8689 63.788 82.146C63.7637 82.4126 65.0956 83.7211 66.3549 84.2785C67.6142 84.8358 69.164 84.9812 69.164 84.9812C69.164 84.9812 69.2851 84.957 68.8734 85.6839C68.7189 85.9503 68.5613 86.1618 68.4309 86.3368C68.1935 86.6555 68.0461 86.8532 68.1711 87.0409C68.486 87.4771 68.8008 87.4044 70.617 86.2655C72.4333 85.1266 72.9418 84.3996 72.9418 84.3996C72.9418 84.3996 72.8934 84.545 72.6996 85.272C72.6289 85.5287 72.5354 85.724 72.4596 85.8827C72.3278 86.1583 72.2488 86.3233 72.4333 86.5078ZM74.5401 46.9607C74.2011 47.4211 73.6199 48.4874 73.4746 49.4809C74.0558 51.1771 74.758 51.8799 75.2424 52.0737C75.654 50.5229 76.1142 48.972 76.8407 47.5665C76.7196 47.4454 75.872 46.7184 74.5401 46.9607ZM71.2709 58.4468C71.3677 58.7376 73.1113 59.9008 73.7894 59.9735C73.7894 59.9735 73.7167 58.8346 73.9589 57.8653C73.9589 57.8653 72.5301 57.211 71.6583 55.6844C71.4162 56.484 71.2709 57.841 71.2709 58.4468ZM67.1056 45.4099C66.9603 45.7006 66.815 46.0399 66.6455 46.5245C65.6768 49.2143 65.362 50.4986 65.362 53.3338C65.3378 56.4356 66.3065 59.295 68.0985 61.3547C69.7936 63.3175 72.1184 64.4564 74.637 64.5776C78.2572 64.7467 81.3242 62.5088 82.4955 61.6541L82.5073 61.6455C84.2247 60.3914 87.3211 57.1566 87.5973 56.868C87.6093 56.8555 87.616 56.8485 87.617 56.8475L87.6654 56.7748L87.7139 56.8475C87.7162 56.8498 87.728 56.8682 87.7485 56.9C87.9446 57.2041 88.9333 58.7373 89.9418 59.198C90.7652 59.5858 91.8307 59.4646 92.2908 59.295C92.4603 59.2223 92.5088 59.198 92.5088 59.1738C92.5088 59.1496 92.3877 59.0526 92.2666 58.9557L92.2494 58.941C91.7344 58.4995 90.6906 57.6046 90.523 55.9751C90.3535 54.3031 93.7196 52.7522 96.1412 52.2918L96.2139 49.9413C95.8991 49.9655 94.4219 50.0867 94.107 50.1836C89.8014 51.3939 87.0662 54.0064 84.4053 56.5481L84.3962 56.5567C81.5629 59.2707 78.8748 61.8394 74.7096 61.8394H74.6127C73.0387 61.8151 71.4646 61.0639 70.2053 59.6827C68.5828 57.9137 67.6626 55.442 67.8321 53.2127C68.0258 50.6198 68.9461 48.4874 70.5444 47.0577C71.8036 45.943 73.4261 45.2887 75.0244 45.2887H75.1213C76.3563 45.3129 77.6156 45.7976 78.5842 46.5972C79.3592 47.2273 80.2794 48.342 80.3763 50.1109C80.4489 51.4922 79.9888 52.7765 79.1654 53.5519C78.9233 53.7942 77.5914 54.9089 75.4119 54.4243C74.4432 54.2062 73.6441 53.3823 73.2082 52.7038C72.8934 52.2191 72.6754 51.6376 72.4817 51.056C72.4333 50.9106 72.2637 50.7652 72.07 50.7894C71.8278 50.8137 71.6825 51.1529 71.6341 51.6618C71.513 53.2127 72.5543 55.7328 75.2424 56.4598C79.6256 57.6472 81.8535 54.4 82.3378 53.043C82.8706 51.5649 82.8948 50.7167 82.8948 50.7167C82.8948 50.6683 82.9432 50.5229 83.0401 50.4986C83.1612 50.4744 83.258 50.5956 83.3065 50.6925C83.5244 51.0318 84.6626 51.7103 85.6313 51.4437C86.6829 51.1806 87.1448 50.2802 87.599 49.3948L87.617 49.3597L87.6354 49.3228C88.0404 48.5121 88.4288 47.7344 89.2637 47.615C90.2566 47.4454 90.5714 47.5908 90.7652 47.6877L90.7727 47.6907C90.8884 47.7371 90.9388 47.7573 91.1284 47.615C91.2737 47.5181 91.2737 47.3242 91.2253 47.203C91.0558 46.6699 90.0387 45.8945 88.6825 45.943C87.3675 45.9669 86.8787 46.3924 86.3305 46.8696L86.3093 46.888C86.2825 46.9111 86.2556 46.9342 86.2287 46.9575C85.9151 47.2282 85.5852 47.513 85.0501 47.7362C83.6735 48.3233 82.9488 48.1739 82.8369 48.1508C82.8287 48.1491 82.8238 48.1481 82.8221 48.1481H82.7979L82.7737 48.1239C82.7734 48.1233 82.7729 48.1222 82.772 48.1205C82.696 47.9638 80.2672 42.9624 74.8065 42.9624H74.758C71.7948 42.9863 70.1049 44.2373 69.5257 44.6662L69.5031 44.6829C69.3093 44.8283 69.2609 44.8525 69.2125 44.8283C69.2125 44.8198 69.2065 44.8113 69.1998 44.8017C69.1874 44.7841 69.1725 44.7628 69.1882 44.7314C69.2367 44.489 68.8492 43.0351 68.5828 42.4778C68.268 41.7992 67.4446 41.4358 67.1783 41.4115C67.372 41.6296 67.6868 42.4293 67.6142 43.4713C67.5657 44.3679 67.3962 44.7556 67.1056 45.4099ZM74.6982 16.8149C74.6906 16.8155 74.6863 16.8158 74.6854 16.8158C70.2053 17.2035 65.6042 20.5475 65.362 27.1387C65.1683 33.5845 68.6797 37.2436 72.0458 38.5037C76.1868 40.0545 78.5358 39.1579 78.6327 39.1095C78.7295 39.0852 78.8264 39.1095 78.8991 39.1822C78.9717 39.2549 78.9717 39.376 78.9233 39.4487L78.8991 39.4729C78.8781 39.4953 78.8555 39.5194 78.8312 39.5453C78.4339 39.9687 77.6105 40.8462 77.1313 41.5085C77.5187 41.5569 78.0273 41.7266 78.3663 41.8719L78.4358 41.9035C78.9185 42.123 79.1267 42.2177 79.335 42.3566C80.57 40.4907 82.2652 38.8187 84.3478 37.4132C85.9703 36.2985 88.6099 35.2565 91.2495 34.6507L91.5401 34.578L91.3221 34.7477C90.5472 35.3535 89.9902 36.0077 89.4817 36.9043C88.8278 38.019 88.3193 39.6183 88.4888 40.0788C88.513 40.1272 88.5372 40.1272 88.5372 40.1272C88.6756 40.1826 88.7349 40.2063 88.7784 40.1894C88.811 40.1767 88.8347 40.1411 88.8763 40.0788C88.9247 39.9818 89.0216 39.8607 89.1911 39.6668C89.409 39.4487 89.6028 39.3276 89.7723 39.3276H89.7965C89.9418 39.3276 90.0629 39.4003 90.1355 39.4729L90.1598 39.4972C90.2778 39.5917 90.2577 39.7323 90.2117 40.0539L90.2082 40.0788C90.1113 40.7088 89.9418 41.8719 90.523 42.7928C91.2979 44.0529 92.0002 44.8768 92.3877 44.9494C92.4603 44.9494 92.4845 44.9494 92.5088 44.9252C92.5572 44.901 92.6783 44.7314 92.533 44.0286C92.3877 43.2532 92.0244 40.6603 92.4361 38.8187C92.9204 36.5651 94.3734 34.3599 96.1897 34.3599H96.3592V32.276C95.9959 32.276 94.1555 32.1306 93.0899 30.9916C92.533 30.3858 92.2666 29.6104 92.2908 28.6653C92.3635 26.6541 93.2837 25.4424 94.0586 24.6186C94.1797 24.4974 94.5672 24.0854 94.4461 23.8431C94.3492 23.6493 94.1797 23.5523 93.9375 23.5281H93.8649C92.9689 23.5281 91.4432 24.6428 90.9589 25.3698C90.4028 26.2044 90.0684 27.2166 89.9769 27.4935C89.9728 27.506 89.9692 27.517 89.966 27.5264C89.9418 27.5991 89.8934 27.6476 89.8207 27.6961C89.627 27.793 89.1669 27.7203 88.8278 27.3326C88.5615 27.0418 88.5615 26.4602 88.5615 26.339V26.1694C88.5615 26.1694 88.513 26.1452 88.4646 26.1452C88.3919 26.1452 88.2466 26.1936 88.1013 26.4117C87.7865 26.9206 88.0529 29.4165 89.0216 30.7736C89.2593 31.0946 89.4678 31.3807 89.6529 31.6346C89.8449 31.8981 90.0118 32.127 90.1598 32.3244L90.2324 32.4214L90.1355 32.4456C89.409 32.5667 88.7068 32.7606 88.0529 32.9787C87.1766 33.3027 86.2704 33.6718 85.3696 34.0386C85.1252 34.1381 84.8812 34.2375 84.6384 34.3357H84.6142C83.2823 34.893 81.9019 35.4504 80.6184 35.8623C76.8649 37.0497 73.862 36.9528 71.9489 35.5958C70.06 34.2388 67.8079 31.7186 67.8805 27.381C67.929 25.1517 68.8976 22.8254 70.3991 21.2745C71.7068 19.966 73.3535 19.2632 75.1455 19.2632H75.3392C80.0857 19.3844 81.7082 22.3892 81.6597 24.9336C81.6113 27.3568 80.2794 28.9319 78.0515 29.1258C76.5985 29.2469 75.4603 28.2776 75.1213 27.2599C74.9096 26.6245 74.8807 26.012 74.857 25.5111C74.8563 25.4962 74.8556 25.4814 74.8549 25.4667C74.8529 25.4238 74.851 25.3817 74.8492 25.3406C74.8293 24.8941 74.8144 24.5578 74.637 24.4247C74.5643 24.352 74.4917 24.3278 74.3948 24.352C74.2011 24.4005 73.9589 24.667 73.8378 25.0063C73.305 26.339 73.3535 27.8172 73.9347 29.1015C74.5885 30.4828 76.4048 31.7428 78.6327 31.4763C80.9333 31.1855 82.6768 29.9012 83.5486 27.793C84.1056 26.4117 84.2025 25.5878 84.1298 24.7397C84.1245 24.6859 84.1203 24.6309 84.116 24.5742C84.1008 24.3755 84.0841 24.1555 84.0088 23.8916C83.9845 23.8189 84.0088 23.7462 84.033 23.6977C84.0814 23.6493 84.1298 23.6008 84.2025 23.6008C84.2751 23.6008 85.8008 23.31 86.7452 21.953C88.4404 19.4813 87.8107 18.1243 87.5686 17.7608C87.3748 17.4458 87.1327 17.3489 87.0842 17.3731C87.0435 17.3935 86.9856 17.6027 86.9394 17.7696C86.9307 17.801 86.9224 17.8309 86.9147 17.8577C86.7452 18.5362 86.4788 19.554 85.1954 19.9417C84.0998 20.2916 83.3408 19.7659 82.3785 19.0993C82.341 19.0734 82.3033 19.0472 82.2652 19.0209H82.2409C81.5629 18.5362 80.788 18.0031 79.7224 17.567C77.3663 16.6332 74.8979 16.8013 74.6982 16.8149Z" fill="#990000"/>
<path d="M101.953 104.343C102.001 104.343 102.026 104.367 102.05 104.391C102.074 104.415 102.074 104.464 102.001 104.488C101.735 105.312 101.396 106.79 101.299 107.275C101.299 107.323 101.251 107.372 101.202 107.372H101.009C100.984 107.372 100.96 107.348 100.936 107.323C100.912 107.299 100.912 107.251 100.912 107.226C100.936 107.129 100.96 106.936 100.96 106.79C100.96 105.966 100.234 105.748 94.8333 105.748V123.874C94.8333 126.321 95.245 126.394 96.2863 126.564C96.3347 126.564 96.3831 126.612 96.3831 126.661V126.806C96.3831 126.83 96.3831 126.855 96.3589 126.879C96.3347 126.903 96.3105 126.903 96.2863 126.903C95.8988 126.879 94.8817 126.83 93.6225 126.83C92.6365 126.83 91.8678 126.864 91.2888 126.889L91.1225 126.896L90.9586 126.903C90.9344 126.903 90.9102 126.903 90.886 126.879C90.8618 126.855 90.8618 126.83 90.8618 126.806V126.661C90.8618 126.612 90.9102 126.564 90.9586 126.564C92.0242 126.394 92.4116 126.321 92.4116 123.874V105.748C87.7136 105.748 86.2848 105.772 85.3888 107.663C85.3646 107.711 85.3404 107.735 85.292 107.735H85.1467C85.1225 107.735 85.0982 107.711 85.074 107.687C85.0498 107.663 85.0498 107.614 85.0498 107.59C85.1709 107.033 85.3162 106.499 85.4857 105.918C85.6093 105.526 85.7153 105.117 85.8336 104.661L85.8974 104.415C85.8974 104.367 85.9458 104.343 85.9942 104.343C92.8475 104.488 100.5 104.367 101.953 104.343Z" fill="#990000"/>
<path fill-rule="evenodd" clip-rule="evenodd" d="M101.832 115.829C101.832 110.207 105.973 104.392 112.947 104.392C119.002 104.392 123.748 109.383 123.772 115.732C123.772 122.033 118.905 126.952 112.705 126.952C105.9 126.952 101.832 121.306 101.832 115.829ZM112.681 126.055C117.67 126.055 120.769 122.178 120.769 115.926C120.769 108.051 116.435 105.264 112.681 105.264C106.869 105.264 104.811 110.91 104.811 115.732C104.811 122.202 107.741 126.055 112.681 126.055Z" fill="#990000"/>
<path d="M75.1454 108.463C75.1454 111.128 77.1311 112.485 79.238 113.915L79.3177 113.97C81.642 115.576 84.0331 117.228 84.0571 120.894C84.0571 124.529 81.4659 127.049 77.7608 127.049C76.6867 127.049 75.9184 126.884 75.2473 126.74L75.218 126.734L75.1604 126.721C74.6242 126.605 74.1057 126.492 73.4745 126.492C73.2807 126.492 73.2081 126.492 73.0386 126.516C72.9901 126.516 72.9659 126.516 72.9417 126.492C72.9175 126.467 72.9175 126.419 72.9175 126.395C72.9417 126.249 72.9417 125.91 72.9417 125.644C72.9417 125.304 72.9175 125.013 72.869 124.674C72.8617 124.571 72.8521 124.466 72.8424 124.359C72.8199 124.113 72.7964 123.854 72.7964 123.584C72.7964 123.317 72.8206 122.421 73.1596 121.669C73.1839 121.621 73.2081 121.597 73.2565 121.597H73.3534C73.3776 121.597 73.4018 121.597 73.426 121.621C73.4502 121.621 73.4502 121.669 73.4502 121.694V121.791C73.426 122.009 73.4018 122.227 73.4018 122.421C73.4018 124.795 75.6782 126.055 77.9545 126.055C79.916 126.055 81.9018 124.844 81.9018 122.154C81.9018 119.295 79.8434 117.889 77.6397 116.387L77.5551 116.328C75.3049 114.772 72.9901 113.171 72.9901 109.844C72.9901 106.645 75.3149 104.416 78.6084 104.416C79.5217 104.416 80.2412 104.545 80.8888 104.662L81.0058 104.683L81.0752 104.695C81.5828 104.788 82.0692 104.876 82.5556 104.876C82.7252 104.876 82.8705 104.876 83.04 104.852C83.0884 104.852 83.1126 104.852 83.1368 104.876C83.1611 104.901 83.1611 104.949 83.1611 104.973C83.0884 105.652 83.0642 106.185 83.0642 106.936C83.0642 107.372 83.0642 108.124 83.0884 108.56C83.0884 108.584 83.0884 108.608 83.0642 108.632C83.04 108.657 83.0158 108.657 82.9915 108.657H82.822C82.7736 108.657 82.7252 108.608 82.7252 108.56C82.2893 106.379 80.8847 105.216 78.6568 105.216C76.0656 105.216 75.1454 106.888 75.1454 108.463Z" fill="#990000"/>
<path fill-rule="evenodd" clip-rule="evenodd" d="M142.927 126.564C141.154 125.965 139.095 122.302 137.574 119.596L137.365 119.225C136.571 117.81 135.945 116.696 135.469 116.241C138.06 115.224 139.61 113.164 139.61 110.668C139.61 106.888 136.704 104.44 132.199 104.44C132.064 104.44 131.894 104.445 131.699 104.45L131.697 104.45C131.438 104.457 131.136 104.464 130.819 104.464C130.19 104.489 129.488 104.489 128.979 104.489C127.623 104.489 127.065 104.489 126.024 104.416C126 104.416 125.976 104.416 125.952 104.44C125.927 104.464 125.927 104.489 125.927 104.513V104.658C125.927 104.707 125.976 104.755 126.024 104.755C127.066 104.925 127.429 105.337 127.429 107.445V123.923C127.429 126.37 127.041 126.443 125.976 126.613C125.927 126.613 125.879 126.661 125.879 126.71V126.855C125.879 126.879 125.879 126.904 125.903 126.928C125.927 126.952 125.952 126.952 125.976 126.952C126.091 126.948 126.215 126.942 126.348 126.937C126.936 126.912 127.695 126.879 128.664 126.879C129.923 126.879 130.964 126.928 131.352 126.952C131.376 126.952 131.4 126.952 131.424 126.928C131.449 126.904 131.449 126.879 131.449 126.855V126.71C131.449 126.661 131.4 126.613 131.352 126.613C130.286 126.443 129.899 126.37 129.899 123.923V116.968H131.764C132.103 116.968 132.538 116.92 133.023 116.847C133.549 117.35 134.17 118.515 134.559 119.244L134.573 119.27C134.645 119.416 134.718 119.561 134.791 119.658C138.423 126.467 138.811 126.879 142.08 127.001C142.443 127.001 142.588 127.001 142.855 126.976C142.903 126.976 142.952 126.928 142.952 126.879V126.686C143 126.637 142.976 126.589 142.927 126.564ZM136.825 111.056C136.825 113.212 136.244 116.096 131.303 116.096H129.923V105.628C130.795 105.385 131.376 105.337 132.054 105.337C134.936 105.361 136.825 107.59 136.825 111.056Z" fill="#990000"/>
<path d="M70.205 104.367C69.5996 104.391 68.413 104.416 67.3959 104.416C66.3062 104.416 65.0954 104.391 64.4657 104.367C64.4415 104.367 64.4173 104.367 64.3931 104.391C64.3689 104.416 64.3689 104.44 64.3689 104.464V104.61C64.3689 104.658 64.4173 104.706 64.4657 104.706C65.5312 104.876 66.2335 104.997 66.2335 107.299V120.7C66.2335 123.22 65.0227 125.958 63.0854 125.958C62.7221 125.958 62.3831 125.934 62.0683 125.885C60.7122 125.546 59.8646 124.601 59.356 123.923C59.2834 123.826 59.2107 123.729 59.1623 123.632C58.6053 122.784 58.3389 122.057 58.3389 122.033C58.3147 121.96 58.2421 121.936 58.1694 121.936C58.0968 121.96 58.0483 122.008 58.0483 122.105L58.5085 125.619C58.5085 125.667 58.5327 125.716 58.5811 125.74C59.8646 126.564 61.4387 126.806 61.7293 126.831C62.2378 126.903 62.6495 126.927 62.8916 126.927H63.2065C66.4515 126.927 68.631 124.286 68.631 120.361V107.299C68.631 105.07 69.1525 104.951 70.1956 104.714L70.2293 104.706L70.2777 104.682C70.3261 104.682 70.3503 104.634 70.3503 104.585V104.44C70.3503 104.416 70.3503 104.391 70.3261 104.367H70.205Z" fill="#990000"/>
</svg>
