<svg width="249" height="78" viewBox="0 0 249 78" fill="none" xmlns="http://www.w3.org/2000/svg">
<path d="M34.2 33H21.7V76H13.2V33H4V26H13.2V18.1C13.2 13.5 14.5333 9.83333 17.2 7.1C19.8667 4.3 23.4 2.9 27.8 2.9C30.2667 2.9 32.4 3.13333 34.2 3.6V10.9C32.2 10.5667 30.4333 10.4 28.9 10.4C26.3667 10.4 24.5333 11.1333 23.4 12.6C22.2667 14 21.7 16.2333 21.7 19.3V26H34.2V33ZM61.0031 77.2C56.3365 77.2 52.2365 76.1667 48.7031 74.1C45.1698 71.9667 42.4365 68.9333 40.5031 65C38.6365 61.0667 37.7031 56.4 37.7031 51C37.7031 45.6 38.6365 40.9333 40.5031 37C42.4365 33.0667 45.1698 30.0667 48.7031 28C52.2365 25.8667 56.3365 24.8 61.0031 24.8C65.6698 24.8 69.7698 25.8667 73.3031 28C76.8365 30.0667 79.5365 33.0667 81.4031 37C83.3365 40.9333 84.3031 45.6 84.3031 51C84.3031 56.4 83.3365 61.0667 81.4031 65C79.5365 68.9333 76.8365 71.9667 73.3031 74.1C69.7698 76.1667 65.6698 77.2 61.0031 77.2ZM61.0031 69.8C65.5365 69.8 69.0365 68.2 71.5031 65C74.0365 61.8 75.3031 57.1333 75.3031 51C75.3031 44.8667 74.0365 40.2 71.5031 37C69.0365 33.8 65.5365 32.2 61.0031 32.2C56.4698 32.2 52.9365 33.8 50.4031 37C47.9365 40.2 46.7031 44.8667 46.7031 51C46.7031 57.1333 47.9365 61.8 50.4031 65C52.9365 68.2 56.4698 69.8 61.0031 69.8ZM104.905 50.2L88.1047 26H98.1047L107.205 40.1C108.871 42.7 109.838 44.4333 110.105 45.3H110.205C110.605 44.2333 111.538 42.5 113.005 40.1L121.605 26H132.005L115.505 50.8L133.305 76H123.205L112.905 60.6C111.305 58.1333 110.371 56.4333 110.105 55.5H110.005C109.738 56.3667 108.771 58.0667 107.105 60.6L96.9047 76H86.8047L104.905 50.2Z" fill="black"/>
<path d="M0 27H151" stroke="#FB4848"/>
<path d="M0 1H151" stroke="#FB4848"/>
<path d="M0 75H151" stroke="#FB4848"/>
</svg>
