<svg width="96" height="24" viewBox="0 0 96 24" fill="none" xmlns="http://www.w3.org/2000/svg">
<path fill-rule="evenodd" clip-rule="evenodd" d="M0 24V0H23.8619V24H0ZM5.67184 1.92135C4.93346 1.61798 4.19512 1.68539 4.19512 1.68539C2.91981 1.82022 1.57737 2.79775 1.57737 4.82021C1.51025 6.70785 2.55064 7.75283 3.52391 8.12359C4.61284 8.51855 5.26557 8.3385 5.40841 8.2991C5.42406 8.29478 5.43359 8.29215 5.4369 8.29215C5.47046 8.29215 5.47046 8.29215 5.50402 8.32582V8.39325C5.46445 8.44626 5.39893 8.5201 5.32584 8.60249C5.21299 8.72969 5.08206 8.87726 5.00059 9C5.10315 9 5.2057 9.03935 5.2933 9.07296C5.32037 9.08334 5.346 9.09318 5.36977 9.10114L5.63827 9.23595C5.97386 8.69662 6.4773 8.19101 7.08139 7.7865C7.55122 7.44945 8.32316 7.14608 9.09506 6.97751L9.16219 6.94384L9.09506 7.01122C8.86012 7.2135 8.72587 7.38202 8.55806 7.65169C8.35669 7.95506 8.22247 8.42696 8.25604 8.56181C8.29525 8.58149 8.31155 8.58967 8.32501 8.58635C8.33459 8.58399 8.34273 8.57581 8.35669 8.56181C8.39025 8.5281 8.42381 8.49439 8.45737 8.42696C8.5245 8.35954 8.55806 8.32582 8.62519 8.32582C8.65875 8.32582 8.69231 8.32583 8.72587 8.35954C8.77334 8.38338 8.77046 8.40721 8.7647 8.45489C8.76232 8.47464 8.75944 8.49848 8.75944 8.5281C8.72587 8.69662 8.69231 9.03371 8.86012 9.30338C9.09506 9.67418 9.2964 9.91012 9.39709 9.94384H9.43065C9.43065 9.94384 9.46421 9.87641 9.43065 9.67418C9.39709 9.43819 9.2964 8.69662 9.39709 8.1573C9.5649 7.48316 9.96765 6.8427 10.5046 6.8427H10.5382V6.23595C10.4375 6.23595 9.90052 6.20224 9.59846 5.86515C9.43065 5.69662 9.36352 5.46068 9.36352 5.19101C9.36352 4.61798 9.63202 4.24718 9.86696 4.01122C9.90052 3.97751 10.0012 3.8427 9.96765 3.77527C9.93409 3.70786 9.90052 3.67416 9.8334 3.67416H9.79984C9.53134 3.67416 9.09506 4.01123 8.96081 4.2135C8.80754 4.41875 8.73204 4.6435 8.68992 4.76889C8.6767 4.80825 8.66677 4.83782 8.65875 4.85392C8.65875 4.85392 8.65875 4.88764 8.62519 4.88764C8.55806 4.92135 8.42381 4.88764 8.32312 4.7865C8.25604 4.6854 8.25604 4.51684 8.25604 4.48316V4.41574H8.22247C8.22247 4.41574 8.15535 4.41574 8.12179 4.48316C8.0211 4.65169 8.12179 5.35954 8.39025 5.76405C8.44537 5.83324 8.49483 5.90244 8.54096 5.96698C8.60718 6.05962 8.66653 6.14265 8.72587 6.20224L8.65875 6.23595H8.62519C8.42389 6.26965 8.22262 6.33704 8.02132 6.40444L8.0211 6.40451L7.01426 6.80899C6.71685 6.93344 6.41945 7.03952 6.13557 7.14079C6.03502 7.17665 5.93617 7.21192 5.83961 7.24718C4.76569 7.61797 3.8931 7.58426 3.32254 7.17979C2.78557 6.77527 2.11435 6.03371 2.14791 4.7865C2.14791 4.11236 2.44996 3.4382 2.88625 3C3.25542 2.62922 3.72528 2.42697 4.26225 2.42697H4.32937C5.70536 2.46068 6.17524 3.33708 6.17524 4.07865C6.17524 4.7865 5.77249 5.22473 5.13484 5.29215C4.73212 5.32583 4.3965 5.05616 4.29581 4.75282C4.22869 4.55055 4.22869 4.34831 4.22869 4.2135C4.22869 4.07865 4.22869 3.94384 4.16156 3.91013C4.128 3.87641 4.128 3.87641 4.09444 3.87641C4.02731 3.91013 3.96019 3.97751 3.92666 4.07865C3.79241 4.44945 3.79241 4.88764 3.96019 5.25844C4.16156 5.66291 4.69856 6.03371 5.33621 5.96629C6.00742 5.86519 6.51086 5.49439 6.77932 4.88764C6.94714 4.48316 6.9807 4.24718 6.94714 4.01122C6.94714 3.94384 6.94714 3.87641 6.91357 3.77527V3.70786C6.91357 3.69099 6.91357 3.68256 6.91779 3.67835C6.92199 3.67416 6.93038 3.67416 6.94714 3.67416C6.9807 3.67416 7.41701 3.60674 7.68547 3.20225C8.18891 2.49438 7.98754 2.08989 7.92041 1.98876L7.9204 1.98875C7.85328 1.92135 7.81972 1.88764 7.78616 1.88764C7.78616 1.88764 7.7526 1.98876 7.7526 2.02247C7.71904 2.19101 7.65191 2.49438 7.2492 2.62922C6.95761 2.72683 6.72857 2.57316 6.44136 2.38046C6.43104 2.37354 6.42065 2.36657 6.41017 2.35955C6.2088 2.19101 5.97386 2.05618 5.67184 1.92135ZM2.01365 10.0113C1.98009 10.1124 1.94653 10.2135 1.87942 10.3483C1.57737 11.1236 1.51025 11.5281 1.40956 12.3708C1.40956 13.2472 1.67805 14.0899 2.21503 14.6966C2.71845 15.2697 3.38967 15.6068 4.128 15.6405C5.12691 15.7052 6.00206 15.0863 6.36732 14.828C6.3825 14.8173 6.39679 14.8072 6.41017 14.7978C6.91357 14.427 7.88685 13.4157 7.88685 13.4157L7.92041 13.382V13.4157C7.92041 13.4157 8.22248 13.9551 8.55806 14.0899C8.793 14.2247 9.09506 14.1573 9.22927 14.1236C9.2964 14.1236 9.2964 14.0899 9.2964 14.0899L9.22927 14.0225C9.21505 14.0082 9.19857 13.9924 9.18043 13.975C9.02733 13.8282 8.75588 13.568 8.72587 13.1461C8.69231 12.6405 9.66559 12.2022 10.3704 12.0674L10.4039 11.3932C10.3368 11.3932 9.90052 11.427 9.79984 11.4607C8.56018 11.7972 7.75535 12.5704 6.98466 13.3108L6.9807 13.3146C6.14167 14.1236 5.36977 14.8652 4.16156 14.8652H4.128C3.69172 14.8652 3.22186 14.6292 2.85269 14.2247C2.34927 13.7191 2.11435 12.9775 2.14791 12.3371C2.21503 11.5955 2.48352 10.9551 2.95337 10.5506C3.32254 10.2472 3.79241 10.0449 4.26225 10.0449H4.29581C4.665 10.0449 5.03415 10.1798 5.30265 10.4157C5.53759 10.5843 5.80605 10.9214 5.83961 11.427C5.87317 11.8315 5.73892 12.2022 5.50402 12.4382C5.48544 12.4444 5.45772 12.461 5.42085 12.483C5.25793 12.5802 4.91648 12.7841 4.3965 12.6742C4.128 12.6067 3.8931 12.3708 3.75885 12.1685C3.69172 12.0337 3.6246 11.8652 3.55747 11.6966C3.52391 11.6629 3.49035 11.6292 3.42323 11.6292C3.35611 11.6629 3.28899 11.7641 3.28899 11.8989C3.25542 12.3371 3.55747 13.0786 4.32937 13.2809C5.60471 13.618 6.24236 12.6742 6.37661 12.2697C6.54442 11.8315 6.54442 11.5955 6.54442 11.5955C6.54442 11.5618 6.54442 11.5281 6.57799 11.5281C6.61151 11.5281 6.64507 11.5618 6.64507 11.5955C6.7122 11.6966 7.04782 11.8651 7.31632 11.7978C7.61835 11.7303 7.7526 11.4607 7.88685 11.191C7.98754 10.9551 8.12179 10.7191 8.35669 10.6854C8.65875 10.6517 8.72587 10.6854 8.793 10.7191C8.80365 10.7191 8.81092 10.7191 8.81802 10.718C8.83332 10.7157 8.84786 10.7084 8.89369 10.6854C8.94573 10.6593 8.93725 10.6129 8.93081 10.5776C8.92894 10.5674 8.92725 10.5581 8.92725 10.5506C8.86012 10.382 8.59162 10.1798 8.18891 10.1798C7.81504 10.1798 7.67255 10.296 7.5198 10.4205C7.508 10.4301 7.49613 10.4398 7.4841 10.4494C7.45552 10.4686 7.42694 10.4904 7.39682 10.5135C7.32086 10.5716 7.23511 10.6371 7.11495 10.6854C6.7122 10.8876 6.4773 10.8202 6.4773 10.8202C6.4773 10.7865 5.77249 9.30338 4.16156 9.30338C3.32254 9.30338 2.81913 9.67418 2.65132 9.80899C2.61776 9.8427 2.5842 9.8427 2.5842 9.8427V9.80899C2.61776 9.70785 2.48352 9.30338 2.41639 9.13485C2.31571 8.93258 2.08078 8.83148 2.01366 8.83148C2.08078 8.89886 2.18147 9.13485 2.14791 9.43819C2.14791 9.64714 2.10761 9.75491 2.05823 9.88693C2.04389 9.92529 2.02877 9.9657 2.01366 10.0112L2.01365 10.0113ZM3.22186 13.8539C3.25542 13.9214 3.75885 14.2584 3.96019 14.2922C3.96019 14.2922 3.92666 13.9551 3.99375 13.6854C3.99375 13.6854 3.59103 13.4832 3.32254 13.0449C3.25542 13.2809 3.22186 13.6854 3.22186 13.8539ZM4.16156 10.4832C4.06087 10.618 3.8931 10.9214 3.85954 11.2247C4.02731 11.7303 4.22869 11.9326 4.36294 11.9663C4.37701 11.9204 4.39108 11.874 4.40524 11.8275C4.52607 11.4299 4.65254 11.0138 4.83277 10.6517C4.79925 10.618 4.53075 10.4157 4.16156 10.4832ZM3.55747 22.0112C3.65815 22.1124 4.19512 21.5056 4.53075 20.7978C4.86634 20.0899 4.96702 19.3483 4.83277 18.6405C4.80411 18.3234 4.60363 17.8831 4.46219 17.5725C4.43822 17.5198 4.41595 17.4709 4.3965 17.427C4.76569 17.6629 5.20196 17.7978 5.50402 17.8652C6.37661 18.0337 7.18207 18.0674 7.7526 17.9326C7.95571 17.8918 8.10419 17.8455 8.21346 17.8114C8.37503 17.7611 8.45089 17.7374 8.49094 17.7978C8.55806 17.8989 8.25604 18.236 7.18207 18.4045C6.07455 18.6068 5.40334 18.3371 5.40334 18.3371C5.40334 18.3371 5.40334 18.573 5.80605 18.8764C5.98144 19.0232 6.13138 19.1125 6.26416 19.1915C6.43629 19.294 6.5796 19.3793 6.7122 19.5506C6.85298 19.7121 6.8612 19.8737 6.86683 19.9845C6.8706 20.0587 6.87322 20.1101 6.91357 20.1236C6.99474 20.144 7.02683 20.0535 7.06919 19.934C7.0969 19.8559 7.12899 19.7654 7.18207 19.6854C7.31632 19.382 7.21564 19.1124 7.21564 19.1124C7.21564 19.1124 7.61835 19.4494 8.39025 19.382C8.92725 19.3146 9.26284 19.2135 9.22927 19.1124C9.20987 19.0538 9.16794 19.0518 9.07747 19.0473C9.01167 19.0441 8.92018 19.0396 8.793 19.0112C8.49094 18.9775 8.39025 18.8427 8.39025 18.8427C8.39025 18.8427 8.89369 18.6742 9.46421 18.2697C10.0348 17.8652 10.4039 17.3595 10.3368 17.2247C10.2677 17.1553 10.1355 17.197 9.96166 17.2518C9.88216 17.2769 9.79396 17.3047 9.69915 17.3259C9.2964 17.427 9.16219 17.427 9.16219 17.427C9.16219 17.427 9.12862 17.3595 9.2964 17.1573C9.41845 16.9997 9.54051 16.924 9.62962 16.8687C9.71204 16.8175 9.76627 16.7839 9.76627 16.7191C9.73271 16.5843 9.36352 16.4494 8.39025 16.8876C8.0211 17.0562 7.65191 17.2922 7.65191 17.2922C7.65191 17.2922 7.78616 16.8202 7.85329 16.5168C7.92041 16.1798 8.0211 15.6067 7.92041 15.573C7.86381 15.5541 7.84963 15.5777 7.80634 15.65C7.77261 15.7063 7.72122 15.792 7.61835 15.9101C7.60256 15.9299 7.5877 15.9488 7.57366 15.9667C7.46832 16.1006 7.40912 16.1758 7.34989 16.1461C7.28863 16.1256 7.27706 16.0552 7.26228 15.9652C7.25277 15.9073 7.24192 15.8413 7.21564 15.7753C7.14851 15.6068 7.01426 15.3708 6.94714 15.4045C6.88855 15.4339 6.84275 15.6302 6.78741 15.8674C6.71595 16.1737 6.6286 16.5481 6.4773 16.7191C6.37661 16.8202 6.27592 16.8876 6.14167 16.9214C5.9403 16.9888 5.73892 17.0225 5.53759 17.0225C5.30265 17.0225 5.06771 16.9551 4.83277 16.8876C4.82068 16.8824 4.80806 16.877 4.79495 16.8715C4.5534 16.7684 4.14774 16.5954 3.8931 16.1798L3.85954 16.1124C3.6246 16.0786 3.38967 16.0112 3.08762 15.8764C3.13797 15.9944 3.18832 16.1208 3.23866 16.2472C3.289 16.3736 3.33933 16.5 3.38967 16.618C3.69172 17.3595 4.128 18.6742 3.72528 19.6854C3.22186 20.8989 2.08078 21.1348 1.94654 20.8652C1.90828 20.7755 2.02026 20.7199 2.20144 20.63C2.49704 20.4832 2.97687 20.2449 3.28899 19.618C3.69172 18.809 3.38967 17.764 3.38967 17.764C3.38967 17.764 3.38967 18.6405 2.75201 19.2472C2.21589 19.7612 1.82133 19.7242 1.60687 19.7042C1.52598 19.6966 1.4707 19.6914 1.44313 19.7191C1.33492 19.8006 1.44476 19.8602 1.57932 19.9332C1.6117 19.9508 1.64551 19.9692 1.67805 19.9888C1.8123 20.0562 2.01366 20.1236 2.01366 20.1236C2.01366 20.1236 1.8123 20.3258 1.51025 20.4607C1.47482 20.4785 1.44115 20.4951 1.40938 20.5108C1.2004 20.6139 1.07395 20.6763 1.07395 20.764C1.07395 20.8315 1.44313 21.2022 1.8123 21.3708C2.18147 21.5393 2.61776 21.573 2.61776 21.573C2.61776 21.573 2.65132 21.5393 2.51708 21.7416C2.46837 21.8272 2.41966 21.8906 2.38056 21.9415C2.31192 22.0309 2.27295 22.0816 2.31571 22.1461C2.38284 22.2809 2.48352 22.2472 3.0205 21.9101C3.55747 21.573 3.69172 21.3708 3.69172 21.3708C3.69172 21.3708 3.69172 21.4382 3.6246 21.6405C3.61114 21.7215 3.5815 21.7864 3.5573 21.8393C3.52115 21.9184 3.49716 21.9709 3.55747 22.0112ZM6.14167 22.3483C6.14167 22.3483 7.95397 22.618 8.89369 22.4494C9.73271 22.2809 10.4375 22.0786 11.3772 21.3034C12.384 20.3932 12.7532 19.1124 12.921 18.4382C13.1559 17.4607 13.1224 15.6742 13.1224 15.6742V6.33709C13.1224 6.33709 13.0552 4.3146 13.1895 3.80899C13.3573 3.30337 13.6593 2.93259 13.8271 2.73034C14.2299 2.29214 15.0689 2.1573 15.0689 2.1573C15.3039 2.12359 15.3709 2.02247 15.3374 1.88764C15.3039 1.68539 15.1696 1.68539 15.1696 1.68539H9.09506C9.09506 1.68539 8.92725 1.68539 8.96081 1.85393C8.92725 1.95505 8.99437 2.08989 9.22927 2.12359C9.22927 2.12359 10.0683 2.29214 10.471 2.69663C10.6724 2.89888 10.9744 3.26966 11.1087 3.77527C11.2429 4.28089 11.1758 6.30338 11.1758 6.30338L11.0416 15.6405C11.0416 15.7021 11.0424 15.7943 11.0433 15.9084C11.0487 16.5431 11.0598 17.8565 10.9744 18.3708C10.8402 19.2472 10.6389 19.9551 10.1019 20.5281C9.5649 21.1011 9.0615 21.2697 8.35669 21.2697C7.65191 21.2697 7.18207 21.0674 6.67864 20.6629C6.17524 20.2584 5.20196 19.3483 5.20196 19.3483L6.14167 22.3483ZM15.8408 16.7528C15.1025 16.8202 14.5655 16.2472 14.4984 15.6068C14.4648 15.2697 14.5655 14.9663 14.7669 14.7978C15.0018 14.4944 15.3374 14.3259 15.5723 14.2922C15.8626 14.2598 16.0909 14.3518 16.2571 14.4189C16.2639 14.4216 16.2705 14.4243 16.2771 14.427C16.3094 14.4378 16.3416 14.452 16.3717 14.4653C16.4354 14.4935 16.4892 14.5173 16.512 14.4944C16.5792 14.4607 16.5792 14.3595 16.5456 14.2584C16.4785 14.1236 16.3778 13.9888 16.2435 13.8876C16.0758 13.7528 15.8408 13.7191 15.5723 13.7191C14.8159 13.7521 14.3818 14.3354 14.2699 14.4857C14.2676 14.4888 14.2655 14.4917 14.2635 14.4944C14.254 14.4849 14.2446 14.4728 14.2337 14.4588C14.2058 14.4228 14.1681 14.3743 14.0956 14.3258C13.9278 14.2247 13.7936 14.191 13.7265 14.2584C13.7003 14.2848 13.715 14.311 13.7386 14.3534C13.7453 14.3653 13.7527 14.3785 13.76 14.3932C13.7709 14.415 13.7887 14.4403 13.809 14.4691C13.8516 14.5295 13.9051 14.6053 13.9278 14.6966C13.9774 14.7962 13.9721 14.9142 13.9659 15.0506C13.9637 15.0988 13.9614 15.1494 13.9614 15.2022C13.9614 15.2484 13.9597 15.3016 13.9577 15.3594C13.9513 15.5549 13.9432 15.8031 13.995 16.0112C14.1292 16.7191 14.7669 17.427 15.7401 17.4607H15.7402C15.8408 17.4607 15.9415 17.4607 16.0422 17.427C16.4785 17.2922 16.747 17.0562 16.9483 16.8202C16.9626 16.8202 16.9708 16.8202 16.9781 16.8228C16.988 16.8263 16.9962 16.8345 17.0155 16.8539C17.1832 16.9888 17.5189 17.2584 17.7538 17.3932C17.8209 17.1573 17.8545 16.8539 17.8545 16.6854C17.7874 16.6517 17.4182 16.382 16.8812 15.809C16.4113 15.3371 16.2771 15.1685 16.2771 15.1685C16.21 15.1011 15.9079 14.8652 15.6059 14.8652C15.3374 14.8652 15.2367 14.9326 15.2367 14.9326L15.3039 15.0337C15.3169 15.0469 15.3453 15.0856 15.391 15.1479C15.4624 15.2456 15.5763 15.401 15.7401 15.6068C15.9848 15.9071 16.2515 16.1632 16.3975 16.3034C16.4317 16.3363 16.4593 16.3628 16.4785 16.382L16.5456 16.4157C16.3778 16.5843 16.1429 16.7191 15.8408 16.7528ZM13.9614 8.56181C13.9614 8.56181 13.8943 9 14.0285 9.94384C14.0956 10.4494 14.1963 10.9214 14.297 11.1573L14.9682 10.8539C14.9573 10.799 14.9357 10.719 14.9091 10.6209C14.8543 10.4181 14.7785 10.1381 14.7333 9.8427C14.6326 9.26966 14.6662 9.13485 14.6662 9.13485C14.5319 9 14.1628 8.6292 13.9614 8.56181ZM13.76 7.88764C13.76 7.88764 14.1292 7.98878 14.599 8.42696C14.9011 8.69663 15.1696 9 15.3709 9.26966L15.5052 8.42696C15.4415 8.36295 15.3777 8.29219 15.3108 8.21788C15.1663 8.0574 15.0069 7.88038 14.8004 7.71911C14.4984 7.44945 13.995 7.17979 13.76 7.07865V7.88764ZM21.0428 22.1461C21.6133 21.9775 21.9825 21.5393 22.1839 20.8652C22.2846 20.5955 22.2846 20.2247 22.1839 19.7865C22.1167 19.5506 21.8818 19.0112 21.1099 18.5056C20.7427 18.2685 20.3346 18.1344 20.1417 18.071C20.0877 18.0533 20.0506 18.0411 20.0359 18.0337C20.1622 17.7295 20.3643 17.6159 20.4568 17.564C20.4873 17.5469 20.5058 17.5365 20.5058 17.5281C20.5058 17.4944 20.2709 17.3595 20.0359 17.427C19.8346 17.4607 19.6332 17.6629 19.5661 17.764C19.5424 17.8594 19.5186 17.9379 19.4712 18.0949C19.4515 18.1599 19.4278 18.2384 19.3983 18.3371C19.4917 18.384 19.6574 18.4599 19.835 18.5413C20.0401 18.6354 20.2612 18.7367 20.4051 18.809C21.1435 19.1798 21.4791 19.5843 21.6133 20.0562C21.6804 20.2922 21.6804 20.4944 21.6133 20.6966C21.4455 21.3371 20.9085 21.7416 20.3716 21.6068C20.0359 21.5393 19.7674 21.3371 19.6332 21.1011C19.5325 20.8989 19.499 20.6629 19.5997 20.427C19.6668 20.2247 19.7674 20.1573 19.8681 20.1236C20.0024 20.0899 20.1366 20.0899 20.2373 20.1573C20.4723 20.2584 20.4723 20.427 20.4723 20.5618C20.4723 20.6292 20.4723 20.6966 20.5058 20.7303C20.5394 20.7303 20.6065 20.7303 20.64 20.6966C20.7407 20.6629 20.8078 20.4944 20.8078 20.3258C20.8078 20.0899 20.6736 19.7865 20.2709 19.618C19.8681 19.4495 19.3312 19.6854 19.1298 20.1236C18.8455 20.7264 19.0369 21.2694 19.0884 21.4155C19.0916 21.4247 19.0943 21.4322 19.0962 21.4382C19.0962 21.4526 19.0777 21.4733 19.0513 21.5028C19.0161 21.5421 18.9668 21.5971 18.9284 21.6742C18.7942 21.8764 18.7942 22.0786 18.8278 22.1461C18.8278 22.1798 18.8613 22.1798 18.8613 22.1798C18.8949 22.1798 18.9284 22.1461 18.962 22.1124C18.9955 22.0786 19.0627 22.0112 19.1634 21.9438C19.3372 21.8565 19.4861 21.8697 19.5451 21.875C19.5544 21.8758 19.5615 21.8764 19.5661 21.8764C19.9017 22.0786 20.2038 22.2135 20.5729 22.2135C20.7072 22.2135 20.875 22.2135 21.0428 22.1461ZM21.2442 17.5955C21.6804 17.5618 22.1839 17.1573 22.3517 16.2472C22.4188 15.8427 22.3181 15.3708 21.8818 15.1348C21.6469 14.7978 21.3448 14.5955 20.9757 14.5281C20.4723 14.427 19.7674 14.4944 18.9284 15.4045C18.9284 15.4298 18.8718 15.512 18.8151 15.5942C18.7963 15.6216 18.7774 15.6489 18.7606 15.6742C18.7439 15.6405 18.7355 15.5983 18.7271 15.5562C18.7187 15.514 18.7103 15.4719 18.6935 15.4382C18.5928 15.1011 18.3579 14.5281 17.8881 13.7528C17.6196 13.3483 17.4182 13.0449 17.2168 12.809C17.1782 12.7547 17.1397 12.7023 17.1015 12.6503C16.9736 12.4765 16.8504 12.3088 16.747 12.1011C16.512 11.6292 16.4449 10.7865 16.5456 10.6517C16.5456 10.618 16.5792 10.618 16.5792 10.618C16.6798 10.6517 16.7134 10.7191 16.747 10.9214C16.7805 11.1236 16.8477 11.4944 17.1161 11.9326C17.3096 12.2658 17.4576 12.4388 17.5976 12.6025C17.6275 12.6376 17.6571 12.6722 17.6867 12.7078L17.6876 12.7091C17.8216 12.8772 17.9557 13.0456 18.1565 13.3146C18.5593 13.9214 18.66 14.191 18.66 14.191L18.6935 14.2584V14.191C18.6935 14.191 18.5257 13.0449 18.6935 11.8652C18.7942 11.2584 18.9955 10.7528 19.1298 10.4157C19.1423 10.3865 19.1542 10.3588 19.1655 10.3326C19.2456 10.1474 19.2935 10.0366 19.264 9.97751C19.264 9.94384 19.2305 9.91012 19.1969 9.91012C19.1177 9.91012 19.0178 10.0144 18.8808 10.1572C18.8436 10.196 18.8036 10.2377 18.7606 10.2809C18.7271 10.3483 18.66 10.4157 18.5928 10.4832L18.5928 10.4832C18.3663 10.7107 18.1964 10.9761 18.1114 11.1089C18.0831 11.1531 18.0642 11.1826 18.0558 11.191C18.0223 11.191 17.586 11.0562 17.5524 10.1461C17.5248 9.64729 17.5653 9.33074 17.5992 9.06534C17.6066 9.00789 17.6136 8.95284 17.6196 8.89886C17.6531 8.76405 17.6867 8.6292 17.6867 8.46068C17.6867 8.39325 17.6867 8.35954 17.6531 8.35954C17.5524 8.32583 17.2504 8.69662 17.0826 9.03371C17.0148 9.16981 16.9927 9.29065 16.9752 9.38595C16.9667 9.43227 16.9593 9.47255 16.9483 9.50561C16.9372 9.53933 16.9297 9.56929 16.9235 9.59427C16.9111 9.64421 16.9036 9.67418 16.8812 9.67418H16.8477C16.747 9.60675 16.5792 9.33709 16.5456 8.86515V8.42696C16.5456 8.22473 16.5456 8.08988 16.4785 8.05616C16.4449 8.02249 16.4113 8.02249 16.3778 8.05616C16.2771 8.12359 16.1764 8.29215 16.0758 8.56181C16.0086 8.76405 15.9079 9.13485 15.8744 9.64046C15.8194 10.4413 15.8545 11.0159 15.869 11.253C15.8722 11.3054 15.8744 11.3413 15.8744 11.3595C15.8073 11.3595 15.5052 11.3595 15.1025 11.4944C14.6997 11.5955 13.995 11.9326 14.0285 12.1011C14.0621 12.1685 14.1963 12.1685 14.3641 12.1348C14.4984 12.1011 14.6326 12.1011 14.7333 12.1011C14.9347 12.1348 15.1696 12.236 15.2367 12.2697C15.1696 12.3034 14.9347 12.4382 14.599 12.7753C14.5785 12.7959 14.5576 12.8167 14.5365 12.8377C14.2822 13.0908 14.0078 13.3638 14.1628 13.5506C14.192 13.6093 14.2976 13.5657 14.4351 13.509C14.4555 13.5006 14.4767 13.4919 14.4984 13.4832C14.834 13.3146 15.4381 13.0449 16.1764 13.3483C17.0155 13.6854 17.5189 14.191 17.9887 15.2022C18.0894 15.4719 18.1901 15.7753 18.2572 16.1461C18.425 17.0562 18.2236 18.2022 17.3846 19.2472C16.9433 19.7855 16.7092 19.9966 16.4042 20.2717C16.3845 20.2894 16.3646 20.3074 16.3442 20.3258C15.2703 21.236 14.6326 21.4045 14.5655 21.2697C14.5471 21.2141 14.7816 21.0468 15.1023 20.818C15.3658 20.63 15.6875 20.4005 15.9751 20.1573C16.9819 19.2809 17.4517 18.7078 17.4517 18.7078C17.4517 18.7078 16.512 19.382 15.6394 19.3146C15.2869 19.2674 15.0166 19.0548 14.8748 18.9433C14.8141 18.8955 14.7769 18.8663 14.7669 18.8764C14.6662 18.9775 14.834 19.3483 14.9011 19.4494C14.9682 19.5843 15.1025 19.6854 15.1025 19.6854C15.1025 19.6854 15.0689 19.7528 14.7669 19.7528C14.5914 19.7528 14.5019 19.6808 14.4516 19.6404C14.425 19.6189 14.4093 19.6063 14.3977 19.618C14.3306 19.6517 14.3641 19.8539 14.5655 20.0562C14.7669 20.2584 14.9682 20.3258 14.9682 20.3258C14.9682 20.3258 14.6662 20.427 14.1963 20.427C14.0107 20.427 13.825 20.3843 13.6778 20.3505C13.5322 20.3171 13.4242 20.2923 13.3909 20.3258C13.2864 20.4307 13.4054 20.5356 13.5424 20.6563C13.5815 20.6908 13.6221 20.7266 13.6593 20.764C13.8271 20.9326 13.9278 20.9326 13.9278 20.9326C13.9278 20.9326 13.8943 21.1348 13.3909 21.2022C13.1053 21.256 12.8481 21.1954 12.6649 21.1522C12.5037 21.1142 12.3997 21.0896 12.384 21.1685C12.3169 21.3708 12.9546 21.9101 13.6929 21.9775C14.3977 22.0449 15.0354 21.7078 15.0354 21.7078C15.0354 21.7078 15.0018 21.8427 14.6997 22.2135C14.5462 22.3849 14.4273 22.4691 14.3564 22.5194C14.2878 22.568 14.264 22.5848 14.297 22.618C14.4313 22.7528 14.9011 22.6854 16.512 21.2022V21.3034C16.6127 22.8202 18.0894 22.4832 18.0894 22.382C18.075 22.353 18.017 22.3365 17.937 22.3137C17.8311 22.2834 17.6863 22.2421 17.5524 22.1461C17.2504 21.9438 17.2839 21.809 17.2839 21.809C17.2839 21.809 17.3511 21.8764 17.5524 21.8764C17.7538 21.8764 17.8545 21.8764 17.8545 21.809C17.8545 21.7906 17.8172 21.7748 17.7602 21.7506C17.6078 21.6858 17.3145 21.5611 17.2168 21.1685C17.1497 20.8652 17.2504 20.5955 17.4182 20.3932C18.7606 18.7078 18.962 17.764 19.0627 17.1236C19.0627 16.9888 19.1634 16.2809 19.4654 15.809C19.7004 15.4382 20.0359 15.1011 20.5394 15C20.6065 14.9663 20.6736 14.9663 20.7407 14.9663H20.7743H20.8078C21.2442 15 21.412 15.2022 21.5126 15.4045C21.6804 15.7079 21.6469 16.0449 21.4455 16.3483L21.3113 16.4832C21.2442 16.5168 21.2106 16.5843 21.2106 16.618C21.2106 16.6673 21.2286 16.6806 21.2514 16.6973C21.2597 16.7035 21.2687 16.7101 21.2777 16.7191C21.3448 16.7191 21.412 16.7191 21.5126 16.6854H21.5462C21.6133 16.618 21.6469 16.618 21.6804 16.618V16.6517C21.6804 16.6592 21.6806 16.6669 21.6808 16.6749C21.6832 16.7739 21.6865 16.9102 21.3448 17.191C21.2107 17.2921 21.11 17.3258 21.0094 17.3595L21.0092 17.3595C20.9421 17.3595 20.875 17.3932 20.875 17.427V17.4944C20.9085 17.5618 21.0092 17.5955 21.1435 17.5955H21.2442ZM14.0621 6.64046L14.6997 7.04494C14.7056 7.04201 14.7122 7.03856 14.7196 7.03468C14.7978 6.99389 14.9697 6.90426 15.3374 6.8427C15.6394 6.80899 15.8744 6.80899 16.0422 6.8427C16.1764 6.87641 16.2435 6.87641 16.2771 6.8427C16.3442 6.67417 15.9751 6.30337 15.673 6.16852C15.3709 6.03371 15.0354 6.06742 14.9347 6.10114C15.1696 5.49439 15.4716 4.75282 15.7737 4.34831C16.2435 3.70786 17.3175 2.62922 19.0291 2.69663C20.8078 2.76405 21.5797 4.17979 21.5797 5.5281C21.5797 6.06742 21.3784 6.64046 21.0428 7.07865C20.6736 7.55055 20.2038 7.82021 19.7004 7.88764C18.8278 7.98878 18.0558 7.41574 17.9216 6.60675C17.8209 6.06742 17.9216 5.56181 18.1565 5.25844C18.3243 4.98878 18.6264 4.85392 18.962 4.85392C19.2305 4.85392 19.3983 4.95506 19.499 5.05616C19.6332 5.19101 19.7004 5.39325 19.7004 5.59549C19.7004 5.98487 19.4827 6.09315 19.3466 6.16081C19.3414 6.16344 19.3362 6.166 19.3312 6.16852C19.3078 6.1842 19.288 6.19622 19.2714 6.2063C19.2167 6.23959 19.1969 6.25162 19.1969 6.30338C19.2094 6.31592 19.2173 6.33314 19.2256 6.35156C19.2398 6.38261 19.2555 6.41705 19.2976 6.43819C19.3983 6.50561 19.5997 6.50561 19.801 6.43819C20.0695 6.33709 20.338 6.03371 20.338 5.39325C20.3044 4.7865 19.7674 4.17979 19.1634 4.14608C18.1901 4.07865 17.586 4.7865 17.586 4.7865H17.5524C17.5524 4.7865 17.3846 4.6854 17.1497 4.65169C16.8477 4.58426 16.6463 4.6854 16.5792 4.75282V4.7865C16.5792 4.7865 16.6127 4.82021 16.6798 4.85392C16.7805 4.88764 16.8812 4.95506 17.0155 5.05616C17.2504 5.29215 17.3175 5.59549 17.3175 5.59549C17.2168 6.3708 17.2839 7.04494 17.7874 7.75282C18.425 8.6292 19.3312 8.6292 19.7339 8.6292C19.7977 8.6292 19.8616 8.64275 19.9083 8.65267C19.9353 8.6584 19.9565 8.66291 19.9688 8.66291C20.0695 8.69663 20.1031 8.79776 20.1031 8.86515C20.1031 8.93258 20.1031 9 19.9688 9.10114C19.7674 9.26966 19.7004 9.40451 19.7674 9.77528C19.801 9.97751 19.9353 10.2135 20.0695 10.4494C20.2373 10.6854 20.3716 10.9551 20.4051 11.191C20.5034 11.8487 20.4419 12.2176 20.4077 12.423C20.4068 12.4282 20.406 12.4332 20.4051 12.4382V12.6068C20.4244 12.6262 20.4326 12.6344 20.4425 12.6379C20.4498 12.6405 20.458 12.6405 20.4723 12.6405C20.5729 12.6405 20.8078 12.4382 20.9757 12.2022C21.0763 12.0337 21.0763 11.7978 21.0763 11.6292V11.6292C21.0763 11.4944 21.0763 11.427 21.1099 11.3932H21.1435C21.5126 11.4607 21.5462 12.1349 21.5126 12.4045C21.5126 12.5056 21.4791 12.6067 21.4455 12.6742C21.412 12.7416 21.412 12.7753 21.4455 12.8427C21.4791 12.8764 21.5797 12.8764 21.6469 12.8427C21.6804 12.809 21.714 12.809 21.7476 12.809C21.7811 12.809 21.8147 12.809 21.8482 12.8427C21.9154 12.9775 21.8147 13.2135 21.6133 13.3483C21.5965 13.3652 21.5797 13.3736 21.563 13.382C21.5462 13.3905 21.5294 13.3989 21.5126 13.4157C21.497 13.4252 21.4816 13.4343 21.4667 13.4432C21.3213 13.5297 21.2137 13.5937 21.2442 13.6854C21.2442 13.6854 21.2442 13.7191 21.2777 13.7191C21.4455 13.7528 21.8482 13.7191 22.1167 13.4494C22.4859 13.1461 22.5866 12.7416 22.5195 12.0674C22.4523 11.3932 21.8818 10.8876 21.8818 10.8876V10.8539C21.8818 10.8539 22.1167 10.8202 22.3181 10.6854C22.5866 10.4832 22.7208 10.3483 22.6873 10.2472C22.6537 10.2135 22.5195 10.1798 22.3852 10.1798C22.3285 10.1703 22.2665 10.1635 22.2014 10.1563C22.0353 10.1381 21.8492 10.1176 21.6804 10.0449C21.2777 9.91013 20.9421 9.60675 20.8078 9.26966C20.7072 9.03371 20.6736 8.69662 21.0092 8.29215L21.0763 8.22472C21.5797 7.7865 22.3517 7.11236 22.4188 5.49439C22.4523 4.48316 22.0496 3.74157 21.8482 3.37078C21.7811 3.26966 21.7476 3.20225 21.7476 3.16854C21.7476 3.10113 21.8147 3.03372 21.9154 2.9326L21.9154 2.93258C21.9259 2.92551 21.9373 2.91806 21.9492 2.9102C22.0509 2.8432 22.198 2.74636 22.3181 2.59551C22.5195 2.32584 22.5866 2.08989 22.5866 2.02247C22.553 2.02247 22.4859 2.05616 22.4188 2.08986L22.4188 2.08989C22.3181 2.1573 22.1503 2.22472 21.9825 2.25843C21.6804 2.35955 21.2106 2.25843 20.7743 2.1573C20.7407 2.1573 20.7155 2.14888 20.6904 2.14045C20.6652 2.13202 20.64 2.12359 20.6065 2.12359C20.1702 2.02247 19.5997 1.92135 18.9955 1.92135C17.8881 1.92135 16.6127 2.29214 15.5723 3.4382C14.5863 4.52754 14.1797 6.16645 14.0687 6.61373C14.0664 6.62317 14.0642 6.63209 14.0621 6.64046ZM37.1186 2.73024C36.6152 2.76395 35.6419 2.76395 34.7693 2.76395C34.2573 2.76395 33.7131 2.75319 33.2398 2.74383L33.2397 2.74383C32.8753 2.73662 32.5529 2.73024 32.3193 2.73024C32.3051 2.73024 32.2969 2.73024 32.2896 2.73282C32.2797 2.73632 32.2715 2.74455 32.2522 2.76393L32.2522 2.76395C32.2522 2.76395 32.2187 2.79766 32.2187 2.83137V2.9662C32.2187 2.99991 32.2522 3.03362 32.2858 3.03362C33.1584 3.16845 33.7625 3.26957 33.7625 5.19093V16.3819C33.7625 18.5055 32.7556 20.764 31.1447 20.764C30.8427 20.764 30.5743 20.7303 30.3058 20.6966L30.3057 20.6965C29.1646 20.4269 28.4934 19.6179 28.0571 19.0449C28.0235 19.0112 27.9984 18.969 27.9732 18.9269C27.948 18.8848 27.9229 18.8426 27.8893 18.8089C27.4194 18.1347 27.218 17.4943 27.218 17.4943C27.1845 17.4269 27.1509 17.3932 27.0838 17.4269C27.0167 17.4269 26.9831 17.4943 26.9831 17.5617L27.3523 20.4943C27.3523 20.528 27.3858 20.5617 27.4194 20.5954C28.4598 21.2696 29.8023 21.4718 30.0372 21.5055C30.4735 21.573 30.8091 21.573 31.0104 21.573H31.0104H31.2789C33.9638 21.573 35.7761 19.3819 35.7761 16.1123V5.19093C35.7761 3.30328 36.2124 3.20216 37.1186 3.03362H37.1521C37.1857 3.03362 37.2192 2.99991 37.2192 2.9662V2.83137C37.2192 2.81703 37.2192 2.80879 37.2167 2.80146C37.2132 2.79156 37.205 2.78332 37.1857 2.76395C37.1857 2.76395 37.1521 2.73024 37.1186 2.73024ZM95.515 21.3033C94.0048 20.7977 92.2596 17.6628 91.018 15.3707L90.8602 15.0895C90.1978 13.9083 89.6797 12.9843 89.3061 12.6403C91.4878 11.7977 92.7628 10.0449 92.7628 7.95498C92.7628 4.78642 90.3467 2.73024 86.5877 2.73024C86.3192 2.73024 85.8831 2.73024 85.4466 2.76395C85.1642 2.76395 84.8726 2.77327 84.596 2.78211C84.3467 2.79008 84.1097 2.79766 83.9027 2.79766C82.7619 2.79766 82.2921 2.79766 81.4194 2.73024C81.4051 2.73024 81.3968 2.73024 81.3895 2.73286C81.3796 2.73637 81.3715 2.74462 81.3523 2.76395C81.3523 2.76395 81.3186 2.79766 81.3186 2.83137V2.9662C81.3186 2.99991 81.3523 3.03362 81.3857 3.03362C82.2583 3.16845 82.5606 3.50553 82.5606 5.29203V19.0786C82.5606 21.1348 82.2249 21.2022 81.3523 21.337C81.3186 21.337 81.2852 21.3707 81.2852 21.4044V21.5392C81.2852 21.573 81.2852 21.573 81.3186 21.6067C81.3186 21.6067 81.3523 21.6404 81.3857 21.6404C81.9227 21.6067 82.6277 21.573 83.6342 21.573C84.7082 21.573 85.5474 21.6067 85.8831 21.6404C85.9165 21.6404 85.9165 21.6404 85.9502 21.6067C85.9502 21.6067 85.9836 21.573 85.9836 21.5392V21.4044C85.9836 21.3707 85.9502 21.337 85.9165 21.337C85.0438 21.2022 84.7082 21.1348 84.7082 19.0786V13.2134H86.2858C86.5543 13.2134 86.9233 13.1797 87.3598 13.1123C87.7742 13.499 88.2151 14.3058 88.5437 14.9071L88.5438 14.9072L88.5438 14.9073C88.5875 14.9872 88.6292 15.0635 88.6686 15.1347C88.6923 15.1823 88.716 15.2258 88.7382 15.2664L88.7382 15.2665L88.7384 15.2669C88.779 15.3412 88.8147 15.4065 88.8362 15.4718C91.8568 21.1684 92.1925 21.5055 94.9446 21.6404C95.2465 21.6404 95.3473 21.6404 95.6158 21.6067C95.6492 21.6067 95.683 21.573 95.683 21.5392V21.3707C95.6325 21.3539 95.599 21.337 95.5738 21.3244C95.5486 21.3117 95.5318 21.3033 95.515 21.3033ZM90.4138 8.25832C90.4138 11.1572 88.9371 12.4718 85.7822 12.4718H84.6411V3.70777C85.3794 3.50553 85.8831 3.47182 86.4201 3.47182C88.8362 3.47182 90.4138 5.35946 90.4138 8.25832ZM43.9262 10.6683L43.9983 10.7185L44.0648 10.7645C45.9912 12.0985 47.9912 13.4833 47.9249 16.4825C47.9249 19.4825 45.7772 21.6061 42.6895 21.6061C41.7835 21.6061 41.1456 21.4713 40.5752 21.3364L40.4977 21.3197C40.0569 21.2245 39.6392 21.1342 39.1319 21.1342C38.9642 21.1342 38.8971 21.1342 38.7629 21.1679C38.7295 21.1679 38.7295 21.1679 38.6958 21.1342C38.6624 21.1342 38.6624 21.1005 38.6624 21.0668C38.6958 20.9319 38.6958 20.6286 38.6958 20.4263C38.6958 20.1567 38.6624 19.887 38.6286 19.6173L38.6195 19.5354C38.5894 19.2644 38.5615 19.0137 38.5615 18.7072C38.5615 18.505 38.5952 17.7634 38.8638 17.1229C38.8638 17.1229 38.8971 17.0893 38.9309 17.0893H39.0648C39.0985 17.0893 39.1319 17.0893 39.1319 17.1229L39.1319 17.123C39.1656 17.1567 39.1656 17.1567 39.1656 17.1904V17.2578C39.1656 17.3635 39.1564 17.46 39.1476 17.5522C39.1396 17.6363 39.1319 17.7167 39.1319 17.7971C39.1319 19.7859 41.0451 20.8308 42.9246 20.8308C44.569 20.8308 46.2134 19.8196 46.2134 17.5612C46.2134 15.189 44.4988 14.009 42.7041 12.7739L42.6561 12.7409L42.5843 12.6907C40.7265 11.3917 38.7966 10.0424 38.7966 7.28029C38.7966 4.61733 40.7095 2.76341 43.4613 2.76341C44.1412 2.76341 44.7168 2.86799 45.2344 2.96202C45.3045 2.97476 45.3735 2.9873 45.4416 2.99937C45.9115 3.10049 46.3143 3.16791 46.7504 3.16791C46.8846 3.16791 47.0189 3.16791 47.1531 3.1342C47.1865 3.1342 47.1865 3.1342 47.2202 3.16791C47.2536 3.16791 47.2536 3.20162 47.2536 3.23532L47.2409 3.4369V3.43694C47.2122 3.88945 47.1865 4.29436 47.1865 4.85328C47.1865 5.22408 47.1865 5.83084 47.2202 6.2016C47.2202 6.21845 47.2118 6.22688 47.2034 6.23531C47.1949 6.24374 47.1865 6.25217 47.1865 6.26902C47.1531 6.30274 47.1531 6.30273 47.1194 6.30273H46.9855C46.9517 6.30273 46.9184 6.26902 46.9184 6.23531C46.549 4.4151 45.3745 3.43757 43.5284 3.43757C41.3807 3.43757 40.6086 4.85329 40.6086 6.16792C40.6086 8.36195 42.2083 9.4741 43.9262 10.6683ZM62.0547 12.3027C62.0547 7.61734 65.5114 2.76341 71.3172 2.76341C76.3515 2.76341 80.3115 6.9432 80.3115 12.2353C80.3115 17.4937 76.2844 21.6061 71.1158 21.6061C65.4443 21.6061 62.0547 16.8533 62.0547 12.3027ZM71.1158 20.8308C75.2442 20.8308 77.8283 17.5949 77.8283 12.3702C77.8283 5.83084 74.2035 3.50498 71.1158 3.47128C66.2832 3.47128 64.5717 8.15666 64.5717 12.2016C64.5717 17.5949 67.0215 20.8308 71.1158 20.8308ZM62.6586 2.79712V2.86454C62.4572 3.53869 62.1553 4.7859 62.1553 5.19037C62.1553 5.22408 62.1216 5.2578 62.0882 5.2578H61.9202C61.8868 5.2578 61.8531 5.2578 61.8531 5.22408V5.15666C61.8531 5.10976 61.8603 5.0556 61.8681 4.99756L61.8681 4.99747C61.8771 4.9304 61.8868 4.85814 61.8868 4.7859C61.8868 4.07801 61.2827 3.90948 56.7857 3.90948V19.1117C56.7857 21.1679 57.1209 21.2353 57.9936 21.3702C58.0273 21.3702 58.0607 21.4039 58.0607 21.4376V21.5724C58.0607 21.6061 58.0273 21.6398 58.0273 21.6398C58.0078 21.6593 57.9996 21.6675 57.9897 21.671C57.9824 21.6735 57.9743 21.6735 57.9602 21.6735C57.6579 21.6398 56.7857 21.6061 55.7451 21.6061C54.7719 21.6061 54.0336 21.6398 53.5299 21.6735C53.4966 21.6735 53.4628 21.6398 53.4628 21.6398C53.4436 21.6205 53.4355 21.6122 53.432 21.6023C53.4312 21.5999 53.4306 21.5974 53.4302 21.5945C53.4298 21.5917 53.4296 21.5885 53.4295 21.5849C53.4294 21.5813 53.4294 21.5772 53.4294 21.5724V21.4376C53.4294 21.4039 53.4628 21.3702 53.4966 21.3702C54.3692 21.2353 54.7048 21.1679 54.7048 19.1117V3.97691C50.7782 3.97691 49.6033 3.97691 48.8649 5.56117C48.8649 5.56117 48.8316 5.59488 48.7978 5.59488H48.6636C48.6302 5.59488 48.5964 5.59488 48.5964 5.56117C48.5631 5.52746 48.5631 5.52746 48.5631 5.49375C48.6635 5.02205 48.7977 4.55035 48.9319 4.07862L48.9321 4.07801C48.9629 3.96456 48.9969 3.84796 49.0321 3.72723L49.0321 3.72719L49.0321 3.72711L49.0322 3.727C49.112 3.45323 49.198 3.15826 49.2677 2.83083C49.2677 2.79712 49.3014 2.76341 49.3348 2.76341C55.0404 2.89824 61.3836 2.79712 62.5914 2.76341C62.6252 2.76341 62.6586 2.76341 62.6586 2.79712Z" fill="#990000"/>
</svg>
